<svg xmlns="http://www.w3.org/2000/svg" width="38" height="38" viewBox="0 0 38 38" fill="none">
<circle cx="19" cy="19" r="18" fill=""/>
<path fill-rule="evenodd" clip-rule="evenodd" d="M19 36.1C28.4441 36.1 36.1 28.4443 36.1 19C36.1 9.55594 28.4443 1.89996 19 1.89996C9.55594 1.89996 1.89996 9.55594 1.89996 19C1.89996 28.4441 9.55594 36.1 19 36.1ZM19 38C29.4933 38 38 29.4933 38 19C38 8.50651 29.4933 0 19 0C8.50651 0 0 8.50651 0 19C0 29.4933 8.50651 38 19 38Z" fill="white"/>
<path fill-rule="evenodd" clip-rule="evenodd" d="M23.9372 19L15.1999 13.1752V24.825L23.9372 19ZM25.7024 17.8934C26.4922 18.4199 26.4922 19.5802 25.7024 20.1068L15.3675 26.9968C14.4837 27.5861 13.2997 26.9523 13.2997 25.8901V12.1101C13.2997 11.0479 14.4837 10.4143 15.3675 11.0036L25.7024 17.8934Z" fill="white"/>
</svg>