<svg width="1521" height="255" viewBox="0 0 1521 255" fill="none" xmlns="http://www.w3.org/2000/svg">
<g clip-path="url(#clip0_4_723)">
<path d="M1521 0H0V255H1521V0Z" fill="white"/>
<mask id="mask0_4_723" style="mask-type:luminance" maskUnits="userSpaceOnUse" x="0" y="0" width="1521" height="255">
<path d="M1521 0H0V255H1521V0Z" fill="white"/>
</mask>
<g mask="url(#mask0_4_723)">
<path d="M589.8 65C625.7 65 654.8 35.9 654.8 0H524.8C524.8 35.9 553.9 65 589.8 65Z" fill="#F2FCFF"/>
</g>
<mask id="mask1_4_723" style="mask-type:luminance" maskUnits="userSpaceOnUse" x="0" y="0" width="1521" height="255">
<path d="M1521 0H0V255H1521V0Z" fill="white"/>
</mask>
<g mask="url(#mask1_4_723)">
<path d="M1163.8 214.2C1141.3 214.2 1123 232.5 1123 255H1204.6C1204.6 232.5 1186.3 214.2 1163.8 214.2Z" fill="#F2FCFF"/>
</g>
<mask id="mask2_4_723" style="mask-type:luminance" maskUnits="userSpaceOnUse" x="0" y="0" width="1521" height="255">
<path d="M1521 0H0V255H1521V0Z" fill="white"/>
</mask>
<g mask="url(#mask2_4_723)">
<path d="M56.9999 64.7C65.0633 64.7 71.5999 58.1634 71.5999 50.1C71.5999 42.0366 65.0633 35.5 56.9999 35.5C48.9365 35.5 42.3999 42.0366 42.3999 50.1C42.3999 58.1634 48.9365 64.7 56.9999 64.7Z" fill="#F9FEFA"/>
</g>
<mask id="mask3_4_723" style="mask-type:luminance" maskUnits="userSpaceOnUse" x="0" y="0" width="1521" height="255">
<path d="M1521 0H0V255H1521V0Z" fill="white"/>
</mask>
<g mask="url(#mask3_4_723)">
<path d="M1242.7 70.5999L1233.7 64L1240.3 55L1235.8 51.7L1229.2 60.7L1220.4 54.2999L1217.1 58.7999L1225.9 65.1999L1219.4 74L1223.9 77.3L1230.4 68.5L1239.4 75.0999L1242.7 70.5999Z" fill="#D4F6FF"/>
</g>
<mask id="mask4_4_723" style="mask-type:luminance" maskUnits="userSpaceOnUse" x="0" y="0" width="1521" height="255">
<path d="M1521 0H0V255H1521V0Z" fill="white"/>
</mask>
<g mask="url(#mask4_4_723)">
<path d="M69.7 126.2C67.3 126.2 65.1 125.8 63.3 125C61.4 124.2 60.0001 123.1 58.9001 121.7C57.8001 120.3 57.3 118.7 57.3 116.9C57.3 115.5 57.6001 114.2 58.2001 113.1C58.8001 111.9 59.7001 111 60.7001 110.2C61.7001 109.4 62.9 108.9 64.2 108.7V108.5C62.5 108.1 61.1 107.2 60.1 105.9C59 104.5 58.5 103 58.5 101.2C58.5 99.5 59.0001 98 59.9001 96.6C60.8001 95.2 62.2001 94.2 63.9001 93.4C65.6001 92.6 67.5 92.2 69.6 92.2C71.7 92.2 73.6001 92.6 75.3001 93.4C77.0001 94.2 78.3001 95.2 79.3001 96.6C80.3001 98 80.8001 99.5 80.8001 101.2C80.8001 103 80.3 104.6 79.2 105.9C78.1 107.2 76.8 108.1 75.1 108.5V108.7C76.4 108.9 77.6 109.4 78.6 110.2C79.6 111 80.5 112 81.1 113.1C81.7 114.3 82 115.5 82 116.9C82 118.7 81.5001 120.3 80.4001 121.7C79.3001 123.1 77.9 124.2 76 125C74.2001 125.8 72.1 126.2 69.7 126.2ZM69.7 121.6C70.9 121.6 72.0001 121.4 72.9001 121C73.8001 120.6 74.5 120 75 119.2C75.5 118.4 75.8001 117.5 75.8001 116.5C75.8001 115.4 75.5 114.5 75 113.7C74.5 112.9 73.7001 112.2 72.8001 111.8C71.9001 111.3 70.8 111.1 69.6 111.1C68.4 111.1 67.4001 111.3 66.4001 111.8C65.5001 112.3 64.7 112.9 64.2 113.7C63.7 114.5 63.4001 115.5 63.4001 116.5C63.4001 117.5 63.6 118.4 64.1 119.2C64.6 120 65.3 120.6 66.2 121C67.3 121.4 68.4 121.6 69.7 121.6ZM69.7 106.5C70.7 106.5 71.6001 106.3 72.4001 105.9C73.2001 105.5 73.8001 104.9 74.3001 104.2C74.8001 103.5 75 102.6 75 101.7C75 100.7 74.8001 99.9 74.3001 99.2C73.9001 98.5 73.2 97.9 72.5 97.5C71.7 97.1 70.8001 96.9 69.8001 96.9C68.8001 96.9 67.8 97.1 67 97.5C66.2 97.9 65.6 98.5 65.2 99.2C64.8 99.9 64.5 100.8 64.6 101.7C64.6 102.7 64.8001 103.5 65.3001 104.2C65.7001 104.9 66.4 105.5 67.2 105.9C68 106.3 68.6 106.5 69.7 106.5Z" fill="#242438"/>
<path d="M98.7999 126.2C96.4999 126.2 94.3999 125.8 92.5999 125C90.7999 124.2 89.3999 123.1 88.2999 121.7C87.2999 120.3 86.6999 118.6 86.5999 116.8H92.6999C92.7999 117.7 93.0999 118.5 93.5999 119.1C94.0999 119.8 94.8999 120.3 95.7999 120.6C96.6999 121 97.6999 121.2 98.7999 121.2C99.9999 121.2 101 121 102 120.6C102.9 120.2 103.6 119.6 104.2 118.9C104.8 118.2 105 117.3 105 116.3C105 115.3 104.8 114.4 104.2 113.6C103.7 112.8 102.9 112.2 101.9 111.8C100.9 111.4 99.6999 111.2 98.2999 111.2H95.3999V106.6H98.2999C99.4999 106.6 100.5 106.4 101.3 106C102.2 105.6 102.9 105 103.4 104.3C103.9 103.6 104.1 102.7 104.1 101.8C104.1 100.9 103.9 100 103.5 99.3C103.1 98.6 102.5 98.1 101.7 97.7C100.9 97.3 99.9999 97.1 98.9999 97.1C97.9999 97.1 96.9999 97.3 96.1999 97.7C95.2999 98.1 94.5999 98.6 94.0999 99.3C93.5999 100 93.2999 100.8 93.2999 101.7H87.4999C87.4999 99.8 88.0999 98.2 89.0999 96.8C90.0999 95.4 91.4999 94.3 93.1999 93.5C94.8999 92.7 96.8999 92.3 98.9999 92.3C101.2 92.3 103.1 92.7 104.8 93.5C106.4 94.3 107.7 95.4 108.6 96.8C109.5 98.2 109.9 99.7 109.9 101.4C109.9 103.3 109.4 104.8 108.3 106.1C107.2 107.4 105.7 108.2 103.9 108.6V108.9C106.2 109.2 108 110.1 109.3 111.5C110.6 112.9 111.2 114.6 111.2 116.7C111.2 118.6 110.7 120.2 109.6 121.7C108.5 123.2 107.1 124.3 105.3 125.1C103.5 125.9 101.2 126.2 98.7999 126.2Z" fill="#242438"/>
<path d="M128.5 126.4C125.8 126.4 123.5 125.7 121.6 124.4C119.7 123 118.2 121.1 117.2 118.5C116.2 115.9 115.7 112.8 115.7 109.2C115.7 105.6 116.2 102.5 117.2 99.9C118.2 97.3 119.7 95.4 121.6 94.1C123.5 92.8 125.8 92.1 128.5 92.1C131.2 92.1 133.4 92.8 135.4 94.1C137.4 95.4 138.8 97.4 139.8 99.9C140.8 102.5 141.3 105.5 141.3 109.1C141.3 112.7 140.8 115.8 139.8 118.4C138.8 121 137.3 122.9 135.4 124.3C133.4 125.7 131.2 126.4 128.5 126.4ZM128.5 121.3C130.6 121.3 132.2 120.3 133.4 118.2C134.6 116.2 135.2 113.1 135.2 109.1C135.2 106.5 134.9 104.2 134.4 102.4C133.8 100.6 133.1 99.3 132.1 98.3C131.1 97.4 129.9 96.9 128.5 96.9C126.4 96.9 124.8 97.9 123.6 100C122.4 102 121.8 105.1 121.8 109C121.8 111.6 122.1 113.9 122.6 115.7C123.1 117.5 123.9 118.9 124.9 119.8C125.9 120.7 127.1 121.3 128.5 121.3Z" fill="#242438"/>
<path d="M168 135.6C165.9 135.6 164.1 135.3 162.6 134.7C161.1 134.1 159.9 133.4 159 132.4C158.1 131.4 157.4 130.4 157.1 129.2L162.4 127.9C162.6 128.4 163 128.9 163.4 129.4C163.9 129.9 164.5 130.3 165.2 130.6C166 130.9 166.9 131.1 168.1 131.1C169.8 131.1 171.1 130.7 172.2 129.9C173.3 129.1 173.8 127.8 173.8 125.9V121.2H173.5C173.2 121.8 172.8 122.4 172.2 123.1C171.6 123.7 170.9 124.3 169.9 124.7C169 125.1 167.8 125.3 166.3 125.3C164.4 125.3 162.7 124.8 161.1 123.9C159.5 123 158.3 121.6 157.4 119.8C156.5 118 156 115.7 156 113C156 110.3 156.5 108 157.4 106.1C158.3 104.2 159.5 102.8 161.1 101.8C162.7 100.8 164.4 100.3 166.3 100.3C167.8 100.3 169 100.5 169.9 101C170.8 101.5 171.6 102.1 172.2 102.8C172.8 103.5 173.2 104.1 173.5 104.7H173.8V100.6H179.6V125.9C179.6 128 179.1 129.8 178.1 131.2C177.1 132.6 175.7 133.6 173.9 134.3C172.1 135 170.2 135.6 168 135.6ZM168 120.8C169.2 120.8 170.3 120.5 171.2 119.9C172.1 119.3 172.7 118.4 173.2 117.3C173.7 116.2 173.9 114.8 173.9 113.2C173.9 111.6 173.7 110.3 173.2 109.1C172.8 107.9 172.1 107 171.2 106.4C170.3 105.8 169.3 105.4 168 105.4C166.7 105.4 165.6 105.7 164.7 106.4C163.8 107.1 163.2 108 162.7 109.2C162.3 110.4 162 111.7 162 113.2C162 114.7 162.2 116.1 162.7 117.2C163.1 118.3 163.8 119.2 164.7 119.9C165.7 120.5 166.8 120.8 168 120.8Z" fill="#77809C"/>
<path d="M185.3 125.8V100.9H191V105.1H191.3C191.8 103.7 192.5 102.6 193.6 101.8C194.7 101 196 100.6 197.4 100.6C197.7 100.6 198.1 100.6 198.5 100.6C198.9 100.6 199.2 100.7 199.5 100.7V106.1C199.3 106 198.9 105.9 198.3 105.9C197.7 105.9 197.2 105.8 196.8 105.8C195.7 105.8 194.8 106 193.9 106.5C193 107 192.4 107.6 191.9 108.4C191.4 109.2 191.2 110.1 191.2 111.2V125.8H185.3Z" fill="#77809C"/>
<path d="M214 126.3C211.5 126.3 209.3 125.8 207.5 124.7C205.7 123.7 204.3 122.2 203.3 120.3C202.3 118.4 201.8 116.1 201.8 113.5C201.8 110.9 202.3 108.7 203.3 106.7C204.3 104.8 205.6 103.2 207.4 102.2C209.2 101.2 211.2 100.6 213.6 100.6C215.1 100.6 216.6 100.8 218 101.3C219.4 101.8 220.6 102.6 221.6 103.6C222.7 104.6 223.5 105.9 224.1 107.5C224.7 109.1 225 111 225 113.2V115H204.6V111H219.4C219.4 109.9 219.1 108.9 218.7 108C218.2 107.1 217.6 106.4 216.7 105.9C215.9 105.4 214.9 105.1 213.7 105.1C212.5 105.1 211.4 105.4 210.5 106C209.6 106.6 208.9 107.3 208.4 108.3C207.9 109.3 207.6 110.3 207.6 111.4V114.9C207.6 116.3 207.9 117.6 208.4 118.6C208.9 119.6 209.7 120.4 210.6 121C211.6 121.5 212.7 121.8 213.9 121.8C214.8 121.8 215.5 121.7 216.2 121.4C216.9 121.2 217.5 120.8 218 120.3C218.5 119.8 218.9 119.2 219.2 118.5L224.7 119.1C224.4 120.5 223.7 121.8 222.7 122.9C221.7 124 220.5 124.8 219 125.4C217.6 126 215.9 126.3 214 126.3Z" fill="#77809C"/>
<path d="M240.6 126.3C238.1 126.3 235.9 125.8 234.1 124.7C232.3 123.7 230.9 122.2 229.9 120.3C228.9 118.4 228.4 116.1 228.4 113.5C228.4 110.9 228.9 108.7 229.9 106.7C230.9 104.8 232.2 103.2 234 102.2C235.8 101.2 237.8 100.6 240.2 100.6C241.7 100.6 243.2 100.8 244.6 101.3C246 101.8 247.2 102.6 248.2 103.6C249.3 104.6 250.1 105.9 250.7 107.5C251.3 109.1 251.6 111 251.6 113.2V115H231.2V111H246C246 109.9 245.7 108.9 245.3 108C244.8 107.1 244.2 106.4 243.3 105.9C242.5 105.4 241.5 105.1 240.3 105.1C239.1 105.1 238 105.4 237.1 106C236.2 106.6 235.5 107.3 235 108.3C234.5 109.3 234.2 110.3 234.2 111.4V114.9C234.2 116.3 234.5 117.6 235 118.6C235.5 119.6 236.3 120.4 237.2 121C238.2 121.5 239.3 121.8 240.5 121.8C241.4 121.8 242.1 121.7 242.8 121.4C243.5 121.2 244.1 120.8 244.6 120.3C245.1 119.8 245.5 119.2 245.8 118.5L251.3 119.1C251 120.5 250.3 121.8 249.3 122.9C248.3 124 247.1 124.8 245.6 125.4C244.2 126 242.5 126.3 240.6 126.3Z" fill="#77809C"/>
<path d="M262 111.2V125.8H256.1V100.9H261.7V105.1H262C262.6 103.7 263.5 102.6 264.7 101.8C266 101 267.5 100.6 269.4 100.6C271.1 100.6 272.6 101 273.9 101.7C275.2 102.4 276.2 103.5 276.9 104.9C277.6 106.3 278 108 277.9 110V125.9H272V110.9C272 109.2 271.6 107.9 270.7 107C269.8 106.1 268.7 105.6 267.1 105.6C266.1 105.6 265.2 105.8 264.4 106.3C263.6 106.7 263 107.4 262.5 108.2C262 109 262 110 262 111.2Z" fill="#77809C"/>
<path d="M296.2 100.9V105.4H281.5V100.9H296.2ZM285.1 125.8V98.5C285.1 96.8 285.4 95.4 286.1 94.3C286.8 93.2 287.7 92.4 288.9 91.8C290.1 91.2 291.4 91 292.8 91C293.8 91 294.7 91.1 295.5 91.2C296.3 91.4 296.9 91.5 297.3 91.6L296.1 96.1C295.9 96 295.5 95.9 295.2 95.9C294.9 95.9 294.4 95.8 293.9 95.8C292.8 95.8 292 96.1 291.6 96.6C291.2 97.1 290.9 97.9 290.9 98.8V125.7H285.1V125.8Z" fill="#77809C"/>
<path d="M303.3 97.3C302.4 97.3 301.6 97 300.9 96.4C300.2 95.8 299.9 95 299.9 94.1C299.9 93.2 300.2 92.5 300.9 91.9C301.6 91.3 302.4 91 303.3 91C304.2 91 305 91.3 305.7 91.9C306.4 92.5 306.7 93.3 306.7 94.2C306.7 95.1 306.4 95.8 305.7 96.4C305 97 304.2 97.3 303.3 97.3ZM300.3 125.8V100.9H306.2V125.8H300.3Z" fill="#77809C"/>
<path d="M322.8 126.3C320.3 126.3 318.1 125.8 316.3 124.7C314.5 123.7 313.1 122.2 312.1 120.3C311.1 118.4 310.6 116.1 310.6 113.5C310.6 110.9 311.1 108.7 312.1 106.7C313.1 104.8 314.4 103.2 316.2 102.2C318 101.2 320 100.6 322.4 100.6C323.9 100.6 325.4 100.8 326.8 101.3C328.2 101.8 329.4 102.6 330.4 103.6C331.5 104.6 332.3 105.9 332.9 107.5C333.5 109.1 333.8 111 333.8 113.2V115H313.4V111H328.2C328.2 109.9 327.9 108.9 327.5 108C327 107.1 326.4 106.4 325.5 105.9C324.7 105.4 323.7 105.1 322.5 105.1C321.3 105.1 320.2 105.4 319.3 106C318.4 106.6 317.7 107.3 317.2 108.3C316.7 109.3 316.4 110.3 316.4 111.4V114.9C316.4 116.3 316.7 117.6 317.2 118.6C317.7 119.6 318.5 120.4 319.4 121C320.4 121.5 321.5 121.8 322.7 121.8C323.6 121.8 324.3 121.7 325 121.4C325.7 121.2 326.3 120.8 326.8 120.3C327.3 119.8 327.7 119.2 328 118.5L333.5 119.1C333.2 120.5 332.5 121.8 331.5 122.9C330.5 124 329.3 124.8 327.8 125.4C326.5 126 324.7 126.3 322.8 126.3Z" fill="#77809C"/>
<path d="M344.3 92.6V125.8H338.4V92.6H344.3Z" fill="#77809C"/>
<path d="M359.1 126.2C357.1 126.2 355.4 125.7 353.8 124.7C352.3 123.7 351 122.2 350.1 120.3C349.2 118.4 348.8 116.1 348.8 113.3C348.8 110.5 349.3 108.2 350.2 106.3C351.1 104.4 352.3 102.9 353.9 102C355.5 101 357.2 100.5 359.1 100.5C360.6 100.5 361.8 100.7 362.7 101.2C363.6 101.7 364.4 102.3 364.9 103C365.5 103.7 365.9 104.3 366.2 104.9H366.4V92.6H372.3V125.8H366.5V121.9H366.1C365.8 122.5 365.4 123.1 364.8 123.8C364.2 124.5 363.5 125.1 362.5 125.5C361.7 126 360.5 126.2 359.1 126.2ZM360.7 121.4C361.9 121.4 363 121.1 363.9 120.4C364.8 119.7 365.4 118.8 365.9 117.6C366.4 116.4 366.6 115 366.6 113.4C366.6 111.8 366.4 110.4 365.9 109.2C365.4 108 364.8 107.1 363.9 106.4C363 105.7 362 105.4 360.7 105.4C359.4 105.4 358.3 105.7 357.4 106.4C356.5 107.1 355.9 108 355.4 109.2C354.9 110.4 354.7 111.8 354.7 113.3C354.7 114.9 354.9 116.2 355.4 117.5C355.8 118.7 356.5 119.7 357.4 120.4C358.4 121.1 359.4 121.4 360.7 121.4Z" fill="#77809C"/>
<path d="M389.1 135.1V100.8H394.9V104.9H395.2C395.5 104.3 395.9 103.6 396.5 103C397.1 102.3 397.8 101.7 398.7 101.2C399.6 100.7 400.8 100.5 402.3 100.5C404.2 100.5 406 101 407.5 102C409 103 410.3 104.4 411.2 106.3C412.1 108.2 412.6 110.5 412.6 113.3C412.6 116 412.2 118.4 411.3 120.3C410.4 122.2 409.2 123.7 407.6 124.7C406 125.7 404.3 126.2 402.3 126.2C400.9 126.2 399.7 126 398.7 125.5C397.8 125 397 124.4 396.4 123.8C395.8 123.1 395.4 122.5 395.1 121.9H394.9V135.2H389.1V135.1ZM394.8 113.3C394.8 114.9 395 116.3 395.5 117.5C396 118.7 396.6 119.7 397.5 120.3C398.4 120.9 399.4 121.3 400.7 121.3C402 121.3 403.1 121 404 120.3C404.9 119.6 405.5 118.6 406 117.4C406.4 116.2 406.7 114.8 406.7 113.2C406.7 111.7 406.5 110.3 406 109.1C405.6 107.9 404.9 107 404 106.3C403.1 105.6 402 105.3 400.7 105.3C399.4 105.3 398.4 105.6 397.5 106.3C396.6 107 396 107.9 395.5 109.1C395 110.3 394.8 111.7 394.8 113.3Z" fill="#77809C"/>
<path d="M417.1 125.8V100.9H422.8V105.1H423.1C423.6 103.7 424.3 102.6 425.4 101.8C426.5 101 427.8 100.6 429.2 100.6C429.5 100.6 429.9 100.6 430.3 100.6C430.7 100.6 431 100.7 431.3 100.7V106.1C431.1 106 430.7 105.9 430.1 105.9C429.5 105.9 429 105.8 428.6 105.8C427.5 105.8 426.6 106 425.7 106.5C424.8 107 424.2 107.6 423.7 108.4C423.2 109.2 423 110.1 423 111.2V125.8H417.1Z" fill="#77809C"/>
<path d="M445.7 126.3C443.3 126.3 441.2 125.8 439.4 124.7C437.6 123.6 436.2 122.1 435.3 120.2C434.3 118.3 433.8 116 433.8 113.5C433.8 110.9 434.3 108.7 435.3 106.7C436.3 104.8 437.7 103.3 439.4 102.2C441.2 101.1 443.3 100.6 445.7 100.6C448.1 100.6 450.2 101.1 452 102.2C453.8 103.3 455.2 104.8 456.1 106.7C457.1 108.6 457.6 110.9 457.6 113.5C457.6 116.1 457.1 118.3 456.1 120.2C455.1 122.1 453.7 123.6 452 124.7C450.2 125.7 448.1 126.3 445.7 126.3ZM445.7 121.6C447 121.6 448.1 121.2 449 120.5C449.9 119.8 450.5 118.8 451 117.6C451.4 116.4 451.7 115 451.7 113.5C451.7 112 451.5 110.6 451 109.4C450.5 108.2 449.9 107.2 449 106.4C448.1 105.7 447 105.3 445.7 105.3C444.3 105.3 443.2 105.7 442.3 106.4C441.4 107.1 440.7 108.1 440.3 109.4C439.9 110.7 439.6 112 439.6 113.5C439.6 115 439.8 116.4 440.3 117.6C440.7 118.8 441.4 119.8 442.3 120.5C443.2 121.2 444.4 121.6 445.7 121.6Z" fill="#77809C"/>
<path d="M462.1 100.9H468V127.2C468 129 467.7 130.5 467 131.6C466.3 132.8 465.3 133.6 464 134.2C462.7 134.8 461.2 135.1 459.3 135.1C459.1 135.1 458.9 135.1 458.7 135.1C458.5 135.1 458.3 135.1 458.1 135.1V130.3C458.3 130.3 458.4 130.3 458.5 130.3C458.6 130.3 458.8 130.3 458.9 130.3C460 130.3 460.8 130 461.3 129.5C461.8 129 462 128.2 462 127.1V100.9H462.1ZM465 97.3C464.1 97.3 463.3 97 462.6 96.4C461.9 95.8 461.6 95 461.6 94.2C461.6 93.3 461.9 92.6 462.6 91.9C463.3 91.2 464.1 91 465 91C465.9 91 466.7 91.3 467.4 91.9C468.1 92.5 468.4 93.3 468.4 94.2C468.4 95.1 468.1 95.8 467.4 96.4C466.8 97 466 97.3 465 97.3Z" fill="#77809C"/>
<path d="M484.6 126.3C482.1 126.3 479.9 125.8 478.1 124.7C476.3 123.7 474.9 122.2 473.9 120.3C472.9 118.4 472.4 116.1 472.4 113.5C472.4 110.9 472.9 108.7 473.9 106.7C474.9 104.8 476.2 103.2 478 102.2C479.8 101.2 481.8 100.6 484.2 100.6C485.7 100.6 487.2 100.8 488.6 101.3C490 101.8 491.2 102.6 492.2 103.6C493.3 104.6 494.1 105.9 494.7 107.5C495.3 109.1 495.6 111 495.6 113.2V115H475.2V111H490C490 109.9 489.7 108.9 489.3 108C488.8 107.1 488.2 106.4 487.3 105.9C486.5 105.4 485.5 105.1 484.3 105.1C483.1 105.1 482 105.4 481.1 106C480.2 106.6 479.5 107.3 479 108.3C478.5 109.3 478.2 110.3 478.2 111.4V114.9C478.2 116.3 478.5 117.6 479 118.6C479.5 119.6 480.3 120.4 481.2 121C482.2 121.5 483.3 121.8 484.5 121.8C485.4 121.8 486.1 121.7 486.8 121.4C487.5 121.2 488.1 120.8 488.6 120.3C489.1 119.8 489.5 119.2 489.8 118.5L495.3 119.1C495 120.5 494.3 121.8 493.3 122.9C492.3 124 491.1 124.8 489.6 125.4C488.3 126 486.5 126.3 484.6 126.3Z" fill="#77809C"/>
<path d="M511.1 126.3C508.6 126.3 506.5 125.8 504.7 124.7C502.9 123.6 501.6 122.1 500.6 120.2C499.6 118.3 499.2 116 499.2 113.5C499.2 111 499.7 108.7 500.7 106.8C501.7 104.9 503 103.3 504.8 102.3C506.6 101.3 508.7 100.7 511.1 100.7C513.1 100.7 514.9 101.1 516.5 101.8C518.1 102.5 519.3 103.6 520.2 104.9C521.1 106.2 521.7 107.8 521.8 109.6H516.2C516 108.4 515.4 107.4 514.6 106.6C513.8 105.8 512.6 105.4 511.2 105.4C510 105.4 508.9 105.7 508 106.4C507.1 107 506.4 108 505.9 109.2C505.4 110.4 505.1 111.8 505.1 113.5C505.1 115.2 505.3 116.7 505.8 117.9C506.3 119.1 507 120.1 507.9 120.7C508.8 121.3 509.9 121.7 511.1 121.7C512 121.7 512.7 121.5 513.4 121.2C514.1 120.9 514.7 120.4 515.1 119.8C515.6 119.2 515.9 118.4 516.1 117.5H521.7C521.6 119.3 521 120.8 520.1 122.2C519.2 123.6 518 124.6 516.4 125.4C515 125.9 513.1 126.3 511.1 126.3Z" fill="#77809C"/>
<path d="M538.5 100.9V105.4H524.2V100.9H538.5ZM527.8 94.9H533.7V118.3C533.7 119.1 533.8 119.7 534.1 120.1C534.3 120.5 534.7 120.8 535.1 121C535.5 121.2 535.9 121.2 536.4 121.2C536.8 121.2 537.1 121.2 537.4 121.1C537.7 121 537.9 121 538.1 121L539.1 125.6C538.8 125.7 538.3 125.8 537.8 126C537.2 126.1 536.5 126.2 535.7 126.2C534.2 126.2 532.9 126 531.7 125.5C530.5 125 529.6 124.2 528.9 123.2C528.2 122.2 527.9 120.9 527.9 119.3V94.9H527.8Z" fill="#77809C"/>
<path d="M562.7 107.5L557.3 108.1C557.1 107.6 556.9 107.1 556.5 106.6C556.1 106.1 555.6 105.7 555 105.4C554.4 105.1 553.6 105 552.7 105C551.5 105 550.5 105.3 549.6 105.8C548.8 106.3 548.4 107 548.4 107.9C548.4 108.6 548.7 109.2 549.2 109.7C549.7 110.2 550.7 110.5 551.9 110.8L556.1 111.7C558.5 112.2 560.2 113 561.4 114.1C562.6 115.2 563.1 116.6 563.1 118.4C563.1 120 562.6 121.4 561.7 122.5C560.8 123.7 559.5 124.6 557.9 125.3C556.3 126 554.5 126.3 552.4 126.3C549.4 126.3 546.9 125.7 545 124.4C543.1 123.1 542 121.3 541.7 119L547.4 118.4C547.7 119.5 548.2 120.4 549.1 120.9C550 121.4 551 121.8 552.4 121.8C553.8 121.8 554.9 121.5 555.8 120.9C556.6 120.3 557.1 119.6 557.1 118.8C557.1 118.1 556.8 117.5 556.3 117C555.8 116.5 554.9 116.2 553.8 115.9L549.5 115C547.1 114.5 545.3 113.7 544.2 112.5C543.1 111.3 542.5 109.8 542.5 108C542.5 106.5 542.9 105.1 543.8 104C544.7 102.9 545.8 102 547.4 101.4C548.9 100.8 550.7 100.5 552.7 100.5C555.6 100.5 557.9 101.1 559.6 102.4C561.3 103.7 562.3 105.3 562.7 107.5Z" fill="#77809C"/>
<path d="M581.5 97.3C580.6 97.3 579.8 97 579.1 96.4C578.4 95.8 578.1 95 578.1 94.1C578.1 93.2 578.4 92.5 579.1 91.9C579.8 91.3 580.6 91 581.5 91C582.4 91 583.2 91.3 583.9 91.9C584.6 92.5 584.9 93.3 584.9 94.2C584.9 95.1 584.6 95.8 583.9 96.4C583.2 97 582.4 97.3 581.5 97.3ZM578.5 125.8V100.9H584.4V125.8H578.5Z" fill="#77809C"/>
<path d="M595.8 111.2V125.8H590V100.9H595.6V105.1H595.9C596.5 103.7 597.4 102.6 598.6 101.8C599.9 101 601.4 100.6 603.3 100.6C605 100.6 606.5 101 607.8 101.7C609.1 102.4 610.1 103.5 610.8 104.9C611.5 106.3 611.9 108 611.8 110V125.9H605.9V110.9C605.9 109.2 605.5 107.9 604.6 107C603.7 106.1 602.6 105.6 601 105.6C600 105.6 599.1 105.8 598.3 106.3C597.5 106.7 596.9 107.4 596.4 108.2C595.9 109 595.8 110 595.8 111.2Z" fill="#77809C"/>
<path d="M632.8 125.8H626.4L638 92.6H645.4L657.1 125.8H650.7L641.8 99.4H641.5L632.8 125.8ZM633 112.8H650.5V117.6H633V112.8Z" fill="#77809C"/>
<path d="M673.5 100.9V105.4H658.8V100.9H673.5ZM662.4 125.8V98.5C662.4 96.8 662.7 95.4 663.4 94.3C664.1 93.2 665 92.4 666.2 91.8C667.4 91.2 668.7 91 670.1 91C671.1 91 672 91.1 672.8 91.2C673.6 91.4 674.2 91.5 674.6 91.6L673.4 96.1C673.2 96 672.8 95.9 672.5 95.9C672.2 95.9 671.7 95.8 671.2 95.8C670.1 95.8 669.3 96.1 668.9 96.6C668.5 97.1 668.2 97.9 668.2 98.8V125.7H662.4V125.8Z" fill="#77809C"/>
<path d="M677.6 125.8V100.9H683.3V105.1H683.6C684.1 103.7 684.8 102.6 685.9 101.8C687 101 688.3 100.6 689.7 100.6C690 100.6 690.4 100.6 690.8 100.6C691.2 100.6 691.5 100.7 691.8 100.7V106.1C691.6 106 691.2 105.9 690.6 105.9C690 105.9 689.5 105.8 689.1 105.8C688 105.8 687.1 106 686.2 106.5C685.3 107 684.7 107.6 684.2 108.4C683.7 109.2 683.5 110.1 683.5 111.2V125.8H677.6Z" fill="#77809C"/>
<path d="M698.2 97.3C697.3 97.3 696.5 97 695.8 96.4C695.1 95.8 694.8 95 694.8 94.1C694.8 93.2 695.1 92.5 695.8 91.9C696.5 91.3 697.3 91 698.2 91C699.1 91 699.9 91.3 700.6 91.9C701.3 92.5 701.6 93.3 701.6 94.2C701.6 95.1 701.3 95.8 700.6 96.4C700 97 699.2 97.3 698.2 97.3ZM695.3 125.8V100.9H701.2V125.8H695.3Z" fill="#77809C"/>
<path d="M717.6 126.3C715.1 126.3 713 125.8 711.2 124.7C709.4 123.6 708.1 122.1 707.1 120.2C706.1 118.3 705.7 116 705.7 113.5C705.7 111 706.2 108.7 707.2 106.8C708.2 104.9 709.5 103.3 711.3 102.3C713.1 101.3 715.2 100.7 717.6 100.7C719.6 100.7 721.4 101.1 723 101.8C724.6 102.5 725.8 103.6 726.7 104.9C727.6 106.2 728.2 107.8 728.3 109.6H722.7C722.5 108.4 721.9 107.4 721.1 106.6C720.3 105.8 719.1 105.4 717.7 105.4C716.5 105.4 715.4 105.7 714.5 106.4C713.6 107 712.9 108 712.4 109.2C711.9 110.4 711.6 111.8 711.6 113.5C711.6 115.2 711.8 116.7 712.3 117.9C712.8 119.1 713.5 120.1 714.4 120.7C715.3 121.3 716.4 121.7 717.6 121.7C718.5 121.7 719.2 121.5 719.9 121.2C720.6 120.9 721.2 120.4 721.6 119.8C722.1 119.2 722.4 118.4 722.6 117.5H728.2C728.1 119.3 727.5 120.8 726.6 122.2C725.7 123.6 724.5 124.6 722.9 125.4C721.5 125.9 719.7 126.3 717.6 126.3Z" fill="#77809C"/>
<path d="M739.8 126.3C738.2 126.3 736.8 126 735.5 125.4C734.2 124.8 733.2 124 732.5 122.9C731.8 121.8 731.4 120.4 731.4 118.8C731.4 117.4 731.7 116.2 732.2 115.3C732.7 114.4 733.4 113.6 734.3 113.1C735.2 112.5 736.2 112.1 737.3 111.8C738.4 111.5 739.6 111.3 740.8 111.2C742.3 111 743.4 110.9 744.4 110.8C745.4 110.7 746 110.5 746.4 110.2C746.8 109.9 747 109.5 747 109V108.9C747 107.7 746.6 106.7 745.9 106.1C745.2 105.4 744.1 105.1 742.8 105.1C741.4 105.1 740.2 105.4 739.4 106C738.6 106.6 738 107.4 737.7 108.2L732.2 107.4C732.6 105.9 733.3 104.6 734.3 103.6C735.3 102.6 736.5 101.8 737.9 101.3C739.3 100.8 740.9 100.5 742.7 100.5C743.9 100.5 745.1 100.6 746.3 100.9C747.5 101.2 748.6 101.6 749.6 102.3C750.6 103 751.4 103.8 752 104.9C752.6 106 752.9 107.4 752.9 109V125.7H747.3V122.3H747.1C746.7 123 746.2 123.6 745.6 124.2C745 124.8 744.2 125.3 743.2 125.6C742.2 126.1 741.1 126.3 739.8 126.3ZM741.3 122C742.5 122 743.5 121.8 744.4 121.3C745.3 120.8 745.9 120.2 746.4 119.4C746.9 118.6 747.1 117.8 747.1 116.9V114C746.9 114.2 746.6 114.3 746.2 114.4C745.8 114.5 745.3 114.6 744.7 114.7C744.2 114.8 743.6 114.9 743.1 115C742.6 115.1 742.1 115.1 741.7 115.2C740.8 115.3 740 115.5 739.3 115.8C738.6 116.1 738.1 116.4 737.7 116.9C737.3 117.4 737.1 118 737.1 118.8C737.1 119.9 737.5 120.7 738.3 121.2C739.1 121.7 740.1 122 741.3 122Z" fill="#77809C"/>
<path d="M780.2 126.3C777.7 126.3 775.6 125.8 773.8 124.7C772 123.6 770.7 122.1 769.7 120.2C768.7 118.3 768.3 116 768.3 113.5C768.3 111 768.8 108.7 769.8 106.8C770.8 104.9 772.1 103.3 773.9 102.3C775.7 101.3 777.8 100.7 780.2 100.7C782.2 100.7 784 101.1 785.6 101.8C787.2 102.5 788.4 103.6 789.3 104.9C790.2 106.2 790.8 107.8 790.9 109.6H785.3C785.1 108.4 784.5 107.4 783.7 106.6C782.9 105.8 781.7 105.4 780.3 105.4C779.1 105.4 778 105.7 777.1 106.4C776.2 107 775.5 108 775 109.2C774.5 110.4 774.2 111.8 774.2 113.5C774.2 115.2 774.4 116.7 774.9 117.9C775.4 119.1 776.1 120.1 777 120.7C777.9 121.3 779 121.7 780.2 121.7C781.1 121.7 781.8 121.5 782.5 121.2C783.2 120.9 783.8 120.4 784.2 119.8C784.7 119.2 785 118.4 785.2 117.5H790.8C790.7 119.3 790.1 120.8 789.2 122.2C788.3 123.6 787.1 124.6 785.5 125.4C784.1 125.9 782.3 126.3 780.2 126.3Z" fill="#77809C"/>
<path d="M806.1 126.3C803.7 126.3 801.6 125.8 799.8 124.7C798 123.6 796.6 122.1 795.7 120.2C794.7 118.3 794.2 116 794.2 113.5C794.2 110.9 794.7 108.7 795.7 106.7C796.7 104.8 798.1 103.3 799.8 102.2C801.6 101.1 803.7 100.6 806.1 100.6C808.5 100.6 810.6 101.1 812.4 102.2C814.2 103.3 815.6 104.8 816.5 106.7C817.5 108.6 818 110.9 818 113.5C818 116.1 817.5 118.3 816.5 120.2C815.5 122.1 814.1 123.6 812.4 124.7C810.6 125.7 808.5 126.3 806.1 126.3ZM806.1 121.6C807.4 121.6 808.5 121.2 809.4 120.5C810.3 119.8 810.9 118.8 811.4 117.6C811.8 116.4 812.1 115 812.1 113.5C812.1 112 811.9 110.6 811.4 109.4C810.9 108.2 810.3 107.2 809.4 106.4C808.5 105.7 807.4 105.3 806.1 105.3C804.7 105.3 803.6 105.7 802.7 106.4C801.8 107.1 801.1 108.1 800.7 109.4C800.3 110.7 800 112 800 113.5C800 115 800.2 116.4 800.7 117.6C801.1 118.8 801.8 119.8 802.7 120.5C803.7 121.2 804.8 121.6 806.1 121.6Z" fill="#77809C"/>
<path d="M838.4 115.3V100.9H844.3V125.8H838.6V121.4H838.3C837.7 122.8 836.8 123.9 835.5 124.8C834.2 125.7 832.6 126.1 830.8 126.1C829.2 126.1 827.7 125.7 826.5 125C825.3 124.3 824.3 123.2 823.6 121.8C822.9 120.4 822.5 118.7 822.5 116.7V100.8H828.4V115.8C828.4 117.4 828.8 118.6 829.7 119.6C830.6 120.5 831.7 121 833.1 121C834 121 834.8 120.8 835.6 120.4C836.4 120 837.1 119.3 837.6 118.5C838.2 117.6 838.4 116.6 838.4 115.3Z" fill="#77809C"/>
<path d="M855.7 92.6V125.8H849.8V92.6H855.7Z" fill="#77809C"/>
<path d="M870.6 126.2C868.6 126.2 866.9 125.7 865.3 124.7C863.8 123.7 862.5 122.2 861.6 120.3C860.7 118.4 860.3 116.1 860.3 113.3C860.3 110.5 860.8 108.2 861.7 106.3C862.6 104.4 863.8 102.9 865.4 102C867 101 868.7 100.5 870.6 100.5C872.1 100.5 873.3 100.7 874.2 101.2C875.1 101.7 875.9 102.3 876.4 103C877 103.7 877.4 104.3 877.7 104.9H877.9V92.6H883.8V125.8H878V121.9H877.6C877.3 122.5 876.9 123.1 876.3 123.8C875.7 124.5 875 125.1 874 125.5C873.2 126 872 126.2 870.6 126.2ZM872.2 121.4C873.4 121.4 874.5 121.1 875.4 120.4C876.3 119.7 876.9 118.8 877.4 117.6C877.9 116.4 878.1 115 878.1 113.4C878.1 111.8 877.9 110.4 877.4 109.2C876.9 108 876.3 107.1 875.4 106.4C874.5 105.7 873.5 105.4 872.2 105.4C870.9 105.4 869.8 105.7 868.9 106.4C868 107.1 867.4 108 866.9 109.2C866.4 110.4 866.2 111.8 866.2 113.3C866.2 114.9 866.4 116.2 866.9 117.5C867.3 118.7 868 119.7 868.9 120.4C869.8 121.1 870.9 121.4 872.2 121.4Z" fill="#77809C"/>
<path d="M68.6999 190.5C66.5999 190.5 64.7999 190.2 63.2999 189.6C61.7999 189 60.6 188.3 59.7 187.3C58.8 186.3 58.0999 185.3 57.7999 184.1L63.0999 182.8C63.2999 183.3 63.6999 183.8 64.0999 184.3C64.5999 184.8 65.2 185.2 65.9 185.5C66.7 185.8 67.6 186 68.8 186C70.5 186 71.8 185.6 72.9 184.8C74 184 74.5 182.7 74.5 180.8V176.1H74.1999C73.8999 176.7 73.5 177.3 72.9 178C72.3 178.6 71.5999 179.2 70.5999 179.6C69.6999 180 68.5 180.2 67 180.2C65.1 180.2 63.3999 179.7 61.7999 178.8C60.1999 177.9 58.9999 176.5 58.0999 174.7C57.1999 172.9 56.7 170.6 56.7 167.9C56.7 165.2 57.1999 162.9 58.0999 161C58.9999 159.1 60.1999 157.7 61.7999 156.7C63.3999 155.7 65.1 155.2 67 155.2C68.5 155.2 69.6999 155.4 70.5999 155.9C71.4999 156.4 72.3 157 72.9 157.7C73.5 158.4 73.8999 159 74.1999 159.6H74.5V155.5H80.3V181C80.3 183.1 79.8 184.9 78.8 186.3C77.8 187.7 76.3999 188.7 74.5999 189.4C72.7999 190.1 70.9999 190.5 68.6999 190.5ZM68.8 175.6C70 175.6 71.1 175.3 72 174.7C72.9 174.1 73.5 173.2 74 172.1C74.5 171 74.6999 169.6 74.6999 168C74.6999 166.4 74.5 165.1 74 163.9C73.6 162.7 72.9 161.8 72 161.2C71.1 160.6 70.1 160.2 68.8 160.2C67.5 160.2 66.4 160.5 65.5 161.2C64.6 161.9 64 162.8 63.5 164C63.1 165.2 62.7999 166.5 62.7999 168C62.7999 169.5 63 170.9 63.5 172C63.9 173.1 64.6 174 65.5 174.7C66.4 175.3 67.5 175.6 68.8 175.6Z" fill="#77809C"/>
<path d="M97.0999 181.1C94.5999 181.1 92.3999 180.6 90.5999 179.5C88.7999 178.5 87.3999 177 86.3999 175.1C85.3999 173.2 84.8999 170.9 84.8999 168.3C84.8999 165.7 85.3999 163.5 86.3999 161.5C87.3999 159.6 88.6999 158 90.4999 157C92.2999 156 94.2999 155.4 96.6999 155.4C98.1999 155.4 99.6999 155.6 101.1 156.1C102.5 156.6 103.7 157.4 104.7 158.4C105.8 159.4 106.6 160.7 107.2 162.3C107.8 163.9 108.1 165.8 108.1 168V169.8H87.6999V165.8H102.5C102.5 164.7 102.2 163.7 101.8 162.8C101.3 161.9 100.7 161.2 99.7999 160.7C98.9999 160.2 97.9999 159.9 96.7999 159.9C95.5999 159.9 94.4999 160.2 93.5999 160.8C92.6999 161.4 91.9999 162.1 91.4999 163.1C90.9999 164.1 90.6999 165.1 90.6999 166.2V169.7C90.6999 171.1 90.9999 172.4 91.4999 173.4C91.9999 174.4 92.7999 175.2 93.6999 175.8C94.6999 176.3 95.7999 176.6 96.9999 176.6C97.8999 176.6 98.5999 176.5 99.2999 176.2C99.9999 176 100.6 175.6 101.1 175.1C101.6 174.6 102 174 102.3 173.3L107.8 173.9C107.5 175.3 106.8 176.6 105.8 177.7C104.8 178.8 103.6 179.6 102.1 180.2C100.7 180.8 98.9999 181.1 97.0999 181.1Z" fill="#77809C"/>
<path d="M118.5 166V180.6H112.6V155.7H118.2V159.9H118.5C119.1 158.5 120 157.4 121.2 156.6C122.5 155.8 124 155.4 125.9 155.4C127.6 155.4 129.1 155.8 130.4 156.5C131.7 157.2 132.7 158.3 133.4 159.7C134.1 161.1 134.5 162.8 134.4 164.8V180.7H128.5V165.7C128.5 164 128.1 162.7 127.2 161.8C126.3 160.9 125.2 160.4 123.6 160.4C122.6 160.4 121.7 160.6 120.9 161.1C120.1 161.5 119.5 162.2 119 163C118.5 163.8 118.5 164.8 118.5 166Z" fill="#77809C"/>
<path d="M151.1 181.1C148.6 181.1 146.4 180.6 144.6 179.5C142.8 178.5 141.4 177 140.4 175.1C139.4 173.2 138.9 170.9 138.9 168.3C138.9 165.7 139.4 163.5 140.4 161.5C141.4 159.6 142.7 158 144.5 157C146.3 156 148.3 155.4 150.7 155.4C152.2 155.4 153.7 155.6 155.1 156.1C156.5 156.6 157.7 157.4 158.7 158.4C159.8 159.4 160.6 160.7 161.2 162.3C161.8 163.9 162.1 165.8 162.1 168V169.8H141.7V165.8H156.5C156.5 164.7 156.2 163.7 155.8 162.8C155.3 161.9 154.7 161.2 153.8 160.7C153 160.2 152 159.9 150.8 159.9C149.6 159.9 148.5 160.2 147.6 160.8C146.7 161.4 146 162.1 145.5 163.1C145 164.1 144.7 165.1 144.7 166.2V169.7C144.7 171.1 145 172.4 145.5 173.4C146 174.4 146.8 175.2 147.7 175.8C148.7 176.3 149.8 176.6 151 176.6C151.9 176.6 152.6 176.5 153.3 176.2C154 176 154.6 175.6 155.1 175.1C155.6 174.6 156 174 156.3 173.3L161.8 173.9C161.5 175.3 160.8 176.6 159.8 177.7C158.8 178.8 157.6 179.6 156.1 180.2C154.7 180.8 153 181.1 151.1 181.1Z" fill="#77809C"/>
<path d="M166.6 180.6V155.7H172.3V159.9H172.6C173.1 158.5 173.8 157.4 174.9 156.6C176 155.8 177.3 155.4 178.7 155.4C179 155.4 179.4 155.4 179.8 155.4C180.2 155.4 180.5 155.5 180.8 155.5V160.9C180.6 160.8 180.2 160.7 179.6 160.7C179 160.7 178.5 160.6 178.1 160.6C177 160.6 176.1 160.8 175.2 161.3C174.3 161.8 173.7 162.4 173.2 163.2C172.7 164 172.5 164.9 172.5 166V180.6H166.6Z" fill="#77809C"/>
<path d="M191.5 181.1C189.9 181.1 188.5 180.8 187.2 180.2C185.9 179.6 184.9 178.8 184.2 177.7C183.5 176.6 183.1 175.2 183.1 173.6C183.1 172.2 183.4 171 183.9 170.1C184.4 169.2 185.1 168.4 186 167.9C186.9 167.3 187.9 166.9 189 166.6C190.1 166.3 191.3 166.1 192.5 166C194 165.8 195.1 165.7 196.1 165.6C197.1 165.5 197.7 165.3 198.1 165C198.5 164.7 198.7 164.3 198.7 163.8V163.7C198.7 162.5 198.3 161.5 197.6 160.9C196.9 160.2 195.8 159.9 194.5 159.9C193.1 159.9 191.9 160.2 191.1 160.8C190.3 161.4 189.7 162.2 189.4 163L183.9 162.2C184.3 160.7 185 159.4 186 158.4C187 157.4 188.2 156.6 189.6 156.1C191 155.6 192.6 155.3 194.4 155.3C195.6 155.3 196.8 155.4 198 155.7C199.2 156 200.3 156.4 201.3 157.1C202.3 157.8 203.1 158.6 203.7 159.7C204.3 160.8 204.6 162.2 204.6 163.8V180.5H199V177.1H198.8C198.4 177.8 197.9 178.4 197.3 179C196.7 179.6 195.9 180.1 194.9 180.4C193.9 180.9 192.8 181.1 191.5 181.1ZM193 176.8C194.2 176.8 195.2 176.6 196.1 176.1C197 175.6 197.6 175 198.1 174.2C198.6 173.4 198.8 172.6 198.8 171.7V168.8C198.6 169 198.3 169.1 197.9 169.2C197.5 169.3 197 169.4 196.4 169.5C195.9 169.6 195.3 169.7 194.8 169.8C194.3 169.9 193.8 169.9 193.4 170C192.5 170.1 191.7 170.3 191 170.6C190.3 170.9 189.8 171.2 189.4 171.7C189 172.2 188.8 172.8 188.8 173.6C188.8 174.7 189.2 175.5 190 176C190.8 176.5 191.8 176.8 193 176.8Z" fill="#77809C"/>
<path d="M222.5 155.7V160.2H208.2V155.7H222.5ZM211.8 149.7H217.7V173.1C217.7 173.9 217.8 174.5 218.1 174.9C218.3 175.3 218.7 175.6 219.1 175.8C219.5 176 219.9 176 220.4 176C220.8 176 221.1 176 221.4 175.9C221.7 175.8 221.9 175.8 222.1 175.8L223.1 180.4C222.8 180.5 222.3 180.6 221.8 180.8C221.2 180.9 220.5 181 219.7 181C218.2 181 216.9 180.8 215.7 180.3C214.5 179.8 213.6 179 212.9 178C212.2 177 211.9 175.7 211.9 174.1V149.7H211.8Z" fill="#77809C"/>
<path d="M238 181.1C235.5 181.1 233.3 180.6 231.5 179.5C229.7 178.5 228.3 177 227.3 175.1C226.3 173.2 225.8 170.9 225.8 168.3C225.8 165.7 226.3 163.5 227.3 161.5C228.3 159.6 229.6 158 231.4 157C233.2 156 235.2 155.4 237.6 155.4C239.1 155.4 240.6 155.6 242 156.1C243.4 156.6 244.6 157.4 245.6 158.4C246.7 159.4 247.5 160.7 248.1 162.3C248.7 163.9 249 165.8 249 168V169.8H228.6V165.8H243.4C243.4 164.7 243.1 163.7 242.7 162.8C242.2 161.9 241.6 161.2 240.7 160.7C239.9 160.2 238.9 159.9 237.7 159.9C236.5 159.9 235.4 160.2 234.5 160.8C233.6 161.4 232.9 162.1 232.4 163.1C231.9 164.1 231.6 165.1 231.6 166.2V169.7C231.6 171.1 231.9 172.4 232.4 173.4C232.9 174.4 233.7 175.2 234.6 175.8C235.6 176.3 236.7 176.6 237.9 176.6C238.8 176.6 239.5 176.5 240.2 176.2C240.9 176 241.5 175.6 242 175.1C242.5 174.6 242.9 174 243.2 173.3L248.7 173.9C248.4 175.3 247.7 176.6 246.7 177.7C245.7 178.8 244.5 179.6 243 180.2C241.7 180.8 240 181.1 238 181.1Z" fill="#77809C"/>
<path d="M264.4 180.6V176.3L275.9 165C277 163.9 277.9 162.9 278.7 162C279.4 161.1 280 160.3 280.4 159.5C280.8 158.7 281 157.8 281 156.9C281 155.9 280.8 155 280.3 154.2C279.8 153.4 279.2 152.9 278.3 152.5C277.5 152.1 276.5 151.9 275.5 151.9C274.4 151.9 273.5 152.1 272.6 152.6C271.8 153 271.1 153.7 270.7 154.5C270.3 155.3 270 156.3 270 157.4H264.3C264.3 155.3 264.8 153.5 265.7 151.9C266.7 150.3 268 149.1 269.7 148.3C271.4 147.5 273.3 147 275.5 147C277.7 147 279.7 147.4 281.4 148.2C283.1 149 284.4 150.2 285.3 151.6C286.2 153 286.7 154.7 286.7 156.6C286.7 157.8 286.5 159.1 286 160.3C285.5 161.5 284.7 162.8 283.5 164.3C282.3 165.8 280.6 167.5 278.5 169.6L272.8 175.4V175.6H287.3V180.6H264.4Z" fill="#242438"/>
<path d="M304.6 181.2C301.9 181.2 299.6 180.5 297.7 179.2C295.8 177.8 294.3 175.9 293.3 173.3C292.3 170.7 291.8 167.6 291.8 164C291.8 160.4 292.3 157.3 293.3 154.7C294.3 152.1 295.8 150.2 297.7 148.9C299.6 147.6 301.9 146.9 304.6 146.9C307.3 146.9 309.5 147.6 311.5 148.9C313.5 150.2 314.9 152.2 315.9 154.7C316.9 157.3 317.4 160.3 317.4 163.9C317.4 167.5 316.9 170.6 315.9 173.2C314.9 175.8 313.4 177.7 311.5 179.1C309.6 180.6 307.3 181.2 304.6 181.2ZM304.6 176.2C306.7 176.2 308.3 175.2 309.5 173.1C310.7 171.1 311.3 168 311.3 164C311.3 161.4 311 159.1 310.5 157.3C309.9 155.5 309.2 154.2 308.2 153.2C307.2 152.3 306 151.8 304.6 151.8C302.5 151.8 300.9 152.8 299.7 154.9C298.5 156.9 297.9 160 297.9 163.9C297.9 166.5 298.2 168.8 298.7 170.6C299.2 172.4 300 173.8 301 174.7C302 175.6 303.3 176.2 304.6 176.2Z" fill="#242438"/>
<path d="M334.7 181.2C332 181.2 329.7 180.5 327.8 179.2C325.9 177.8 324.4 175.9 323.4 173.3C322.4 170.7 321.9 167.6 321.9 164C321.9 160.4 322.4 157.3 323.4 154.7C324.4 152.1 325.9 150.2 327.8 148.9C329.7 147.6 332 146.9 334.7 146.9C337.4 146.9 339.6 147.6 341.6 148.9C343.6 150.2 345 152.2 346 154.7C347 157.3 347.5 160.3 347.5 163.9C347.5 167.5 347 170.6 346 173.2C345 175.8 343.5 177.7 341.6 179.1C339.6 180.6 337.3 181.2 334.7 181.2ZM334.7 176.2C336.8 176.2 338.4 175.2 339.6 173.1C340.8 171.1 341.4 168 341.4 164C341.4 161.4 341.1 159.1 340.6 157.3C340 155.5 339.3 154.2 338.3 153.2C337.3 152.3 336.1 151.8 334.7 151.8C332.6 151.8 331 152.8 329.8 154.9C328.6 156.9 328 160 328 163.9C328 166.5 328.3 168.8 328.8 170.6C329.3 172.4 330.1 173.8 331.1 174.7C332.1 175.6 333.3 176.2 334.7 176.2Z" fill="#242438"/>
<path d="M359.3 176.1L359.1 177.9C358.9 179.3 358.7 180.7 358.3 182.1C357.9 183.5 357.5 184.8 357.1 186C356.7 187.2 356.3 188.1 356.1 188.8H352.1C352.3 188.1 352.5 187.2 352.7 186.1C352.9 185 353.2 183.7 353.5 182.3C353.7 180.9 353.9 179.4 354 178L354.1 176.2H359.3V176.1Z" fill="#242438"/>
<path d="M377.7 181.2C375 181.2 372.7 180.5 370.8 179.2C368.9 177.8 367.4 175.9 366.4 173.3C365.4 170.7 364.9 167.6 364.9 164C364.9 160.4 365.4 157.3 366.4 154.7C367.4 152.1 368.9 150.2 370.8 148.9C372.7 147.6 375 146.9 377.7 146.9C380.4 146.9 382.6 147.6 384.6 148.9C386.6 150.2 388 152.2 389 154.7C390 157.3 390.5 160.3 390.5 163.9C390.5 167.5 390 170.6 389 173.2C388 175.8 386.5 177.7 384.6 179.1C382.6 180.6 380.4 181.2 377.7 181.2ZM377.7 176.2C379.8 176.2 381.4 175.2 382.6 173.1C383.8 171.1 384.4 168 384.4 164C384.4 161.4 384.1 159.1 383.6 157.3C383 155.5 382.3 154.2 381.3 153.2C380.3 152.3 379.1 151.8 377.7 151.8C375.6 151.8 374 152.8 372.8 154.9C371.6 156.9 371 160 371 163.9C371 166.5 371.3 168.8 371.8 170.6C372.3 172.4 373.1 173.8 374.1 174.7C375.1 175.6 376.3 176.2 377.7 176.2Z" fill="#242438"/>
<path d="M407.7 181.2C405 181.2 402.7 180.5 400.8 179.2C398.9 177.8 397.4 175.9 396.4 173.3C395.4 170.7 394.9 167.6 394.9 164C394.9 160.4 395.4 157.3 396.4 154.7C397.4 152.1 398.9 150.2 400.8 148.9C402.7 147.6 405 146.9 407.7 146.9C410.4 146.9 412.6 147.6 414.6 148.9C416.6 150.2 418 152.2 419 154.7C420 157.3 420.5 160.3 420.5 163.9C420.5 167.5 420 170.6 419 173.2C418 175.8 416.5 177.7 414.6 179.1C412.6 180.6 410.4 181.2 407.7 181.2ZM407.7 176.2C409.8 176.2 411.4 175.2 412.6 173.1C413.8 171.1 414.4 168 414.4 164C414.4 161.4 414.1 159.1 413.6 157.3C413 155.5 412.3 154.2 411.3 153.2C410.3 152.3 409.1 151.8 407.7 151.8C405.6 151.8 404 152.8 402.8 154.9C401.6 156.9 401 160 401 163.9C401 166.5 401.3 168.8 401.8 170.6C402.3 172.4 403.1 173.8 404.1 174.7C405.1 175.6 406.3 176.2 407.7 176.2Z" fill="#242438"/>
<path d="M437.7 181.2C435 181.2 432.7 180.5 430.8 179.2C428.9 177.8 427.4 175.9 426.4 173.3C425.4 170.7 424.9 167.6 424.9 164C424.9 160.4 425.4 157.3 426.4 154.7C427.4 152.1 428.9 150.2 430.8 148.9C432.7 147.6 435 146.9 437.7 146.9C440.4 146.9 442.6 147.6 444.6 148.9C446.6 150.2 448 152.2 449 154.7C450 157.3 450.5 160.3 450.5 163.9C450.5 167.5 450 170.6 449 173.2C448 175.8 446.5 177.7 444.6 179.1C442.7 180.6 440.4 181.2 437.7 181.2ZM437.7 176.2C439.8 176.2 441.4 175.2 442.6 173.1C443.8 171.1 444.4 168 444.4 164C444.4 161.4 444.1 159.1 443.6 157.3C443 155.5 442.3 154.2 441.3 153.2C440.3 152.3 439.1 151.8 437.7 151.8C435.6 151.8 434 152.8 432.8 154.9C431.6 156.9 431 160 431 163.9C431 166.5 431.3 168.8 431.8 170.6C432.3 172.4 433.1 173.8 434.1 174.7C435.1 175.6 436.3 176.2 437.7 176.2Z" fill="#242438"/>
<path d="M472.2 166V180.6H466.3V155.7H471.9V159.9H472.2C472.8 158.5 473.7 157.4 474.9 156.6C476.2 155.8 477.7 155.4 479.6 155.4C481.3 155.4 482.8 155.8 484.1 156.5C485.4 157.2 486.4 158.3 487.1 159.7C487.8 161.1 488.2 162.8 488.1 164.8V180.7H482.2V165.7C482.2 164 481.8 162.7 480.9 161.8C480 160.9 478.9 160.4 477.3 160.4C476.3 160.4 475.4 160.6 474.6 161.1C473.8 161.5 473.2 162.2 472.7 163C472.2 163.8 472.2 164.8 472.2 166Z" fill="#77809C"/>
<path d="M504.8 181.1C502.3 181.1 500.1 180.6 498.3 179.5C496.5 178.5 495.1 177 494.1 175.1C493.1 173.2 492.6 170.9 492.6 168.3C492.6 165.7 493.1 163.5 494.1 161.5C495.1 159.6 496.4 158 498.2 157C500 156 502 155.4 504.4 155.4C505.9 155.4 507.4 155.6 508.8 156.1C510.2 156.6 511.4 157.4 512.4 158.4C513.5 159.4 514.3 160.7 514.9 162.3C515.5 163.9 515.8 165.8 515.8 168V169.8H495.4V165.8H510.2C510.2 164.7 509.9 163.7 509.5 162.8C509 161.9 508.4 161.2 507.5 160.7C506.7 160.2 505.7 159.9 504.5 159.9C503.3 159.9 502.2 160.2 501.3 160.8C500.4 161.4 499.7 162.1 499.2 163.1C498.7 164.1 498.4 165.1 498.4 166.2V169.7C498.4 171.1 498.7 172.4 499.2 173.4C499.7 174.4 500.5 175.2 501.4 175.8C502.4 176.3 503.5 176.6 504.7 176.6C505.6 176.6 506.3 176.5 507 176.2C507.7 176 508.3 175.6 508.8 175.1C509.3 174.6 509.7 174 510 173.3L515.5 173.9C515.2 175.3 514.5 176.6 513.5 177.7C512.5 178.8 511.3 179.6 509.8 180.2C508.5 180.8 506.7 181.1 504.8 181.1Z" fill="#77809C"/>
<path d="M525.5 180.6L518.5 155.7H524.5L528.9 173.2H529.1L533.6 155.7H539.5L544 173.1H544.2L548.5 155.7H554.5L547.4 180.6H541.3L536.6 163.8H536.3L531.6 180.6H525.5Z" fill="#77809C"/>
<path d="M569.1 155.7H575V182C575 183.8 574.7 185.3 574 186.4C573.3 187.6 572.3 188.4 571 189C569.7 189.6 568.2 189.9 566.3 189.9C566.1 189.9 565.9 189.9 565.7 189.9C565.5 189.9 565.3 189.9 565.1 189.9V185.1C565.3 185.1 565.4 185.1 565.5 185.1C565.6 185.1 565.8 185.1 565.9 185.1C567 185.1 567.8 184.8 568.3 184.3C568.8 183.8 569 183 569 181.9V155.7H569.1ZM572 152.1C571.1 152.1 570.3 151.8 569.6 151.2C568.9 150.6 568.6 149.8 568.6 149C568.6 148.1 568.9 147.4 569.6 146.7C570.3 146 571.1 145.8 572 145.8C572.9 145.8 573.7 146.1 574.4 146.7C575.1 147.3 575.4 148.1 575.4 149C575.4 149.9 575.1 150.6 574.4 151.2C573.7 151.8 572.9 152.1 572 152.1Z" fill="#77809C"/>
<path d="M591.4 181.1C589 181.1 586.9 180.6 585.1 179.5C583.3 178.4 581.9 176.9 581 175C580 173.1 579.5 170.8 579.5 168.3C579.5 165.7 580 163.5 581 161.5C582 159.6 583.4 158.1 585.1 157C586.9 155.9 589 155.4 591.4 155.4C593.8 155.4 595.9 155.9 597.7 157C599.5 158.1 600.9 159.6 601.8 161.5C602.8 163.4 603.3 165.7 603.3 168.3C603.3 170.9 602.8 173.1 601.8 175C600.8 176.9 599.4 178.4 597.7 179.5C595.9 180.6 593.8 181.1 591.4 181.1ZM591.4 176.4C592.7 176.4 593.8 176 594.7 175.3C595.6 174.6 596.2 173.6 596.7 172.4C597.1 171.2 597.4 169.8 597.4 168.3C597.4 166.8 597.2 165.4 596.7 164.2C596.2 163 595.6 162 594.7 161.2C593.8 160.5 592.7 160.1 591.4 160.1C590 160.1 588.9 160.5 588 161.2C587.1 161.9 586.4 162.9 586 164.2C585.6 165.5 585.3 166.8 585.3 168.3C585.3 169.8 585.5 171.2 586 172.4C586.4 173.6 587.1 174.6 588 175.3C588.9 176 590.1 176.4 591.4 176.4Z" fill="#77809C"/>
<path d="M608.1 180.6V147.4H614V159.8H614.2C614.5 159.2 614.9 158.5 615.5 157.9C616.1 157.2 616.8 156.6 617.7 156.1C618.6 155.6 619.8 155.4 621.3 155.4C623.2 155.4 625 155.9 626.5 156.9C628 157.9 629.3 159.3 630.2 161.2C631.1 163.1 631.6 165.4 631.6 168.2C631.6 170.9 631.2 173.3 630.3 175.2C629.4 177.1 628.2 178.6 626.6 179.6C625.1 180.6 623.3 181.1 621.3 181.1C619.9 181.1 618.7 180.9 617.7 180.4C616.8 179.9 616 179.3 615.4 178.7C614.8 178.1 614.4 177.4 614.1 176.8H613.8V180.7H608.1V180.6ZM613.8 168.1C613.8 169.7 614 171.1 614.5 172.3C615 173.5 615.6 174.5 616.5 175.1C617.4 175.8 618.4 176.1 619.7 176.1C621 176.1 622.1 175.8 623 175.1C623.9 174.4 624.5 173.4 625 172.2C625.4 171 625.7 169.6 625.7 168C625.7 166.5 625.5 165.1 625 163.9C624.5 162.7 623.9 161.8 623 161.1C622.1 160.4 621 160.1 619.7 160.1C618.4 160.1 617.4 160.4 616.5 161.1C615.6 161.8 615 162.7 614.5 163.9C614 165.1 613.8 166.5 613.8 168.1Z" fill="#77809C"/>
<path d="M655.8 162.3L650.4 162.9C650.2 162.4 650 161.9 649.6 161.4C649.2 160.9 648.7 160.5 648.1 160.2C647.5 159.9 646.7 159.8 645.8 159.8C644.6 159.8 643.6 160.1 642.7 160.6C641.9 161.1 641.5 161.8 641.5 162.7C641.5 163.4 641.8 164 642.3 164.5C642.8 165 643.8 165.3 645 165.6L649.2 166.5C651.6 167 653.3 167.8 654.5 168.9C655.7 170 656.2 171.4 656.2 173.2C656.2 174.8 655.7 176.2 654.8 177.3C653.9 178.5 652.6 179.4 651 180.1C649.4 180.8 647.6 181.1 645.5 181.1C642.5 181.1 640 180.5 638.1 179.2C636.2 177.9 635.1 176.1 634.8 173.8L640.5 173.2C640.8 174.3 641.3 175.2 642.2 175.7C643.1 176.2 644.1 176.6 645.5 176.6C646.9 176.6 648 176.3 648.9 175.7C649.7 175.1 650.2 174.4 650.2 173.6C650.2 172.9 649.9 172.3 649.4 171.8C648.9 171.3 648 171 646.9 170.7L642.6 169.8C640.2 169.3 638.4 168.5 637.3 167.3C636.2 166.1 635.6 164.6 635.6 162.8C635.6 161.3 636 159.9 636.9 158.8C637.8 157.7 638.9 156.8 640.5 156.2C642 155.6 643.8 155.3 645.8 155.3C648.7 155.3 651 155.9 652.7 157.2C654.4 158.5 655.4 160.1 655.8 162.3Z" fill="#77809C"/>
<path d="M664.4 181C663.4 181 662.6 180.7 661.9 180C661.2 179.3 660.9 178.5 660.9 177.5C660.9 176.5 661.2 175.7 661.9 175C662.6 174.3 663.4 174 664.4 174C665.4 174 666.2 174.3 666.9 175C667.6 175.7 668 176.5 668 177.5C668 178.2 667.8 178.8 667.5 179.3C667.2 179.8 666.7 180.3 666.2 180.6C665.6 180.8 665 181 664.4 181Z" fill="#77809C"/>
</g>
<mask id="mask5_4_723" style="mask-type:luminance" maskUnits="userSpaceOnUse" x="0" y="0" width="1521" height="255">
<path d="M1521 0H0V255H1521V0Z" fill="white"/>
</mask>
<g mask="url(#mask5_4_723)">
<path d="M1484 238C1489.52 238 1494 233.523 1494 228C1494 222.477 1489.52 218 1484 218C1478.48 218 1474 222.477 1474 228C1474 233.523 1478.48 238 1484 238Z" fill="#F2FCFF"/>
</g>
<mask id="mask6_4_723" style="mask-type:luminance" maskUnits="userSpaceOnUse" x="0" y="0" width="1521" height="255">
<path d="M1521 0H0V255H1521V0Z" fill="white"/>
</mask>
<g mask="url(#mask6_4_723)">
<path d="M655 274C667.703 274 678 263.703 678 251C678 238.297 667.703 228 655 228C642.297 228 632 238.297 632 251C632 263.703 642.297 274 655 274Z" fill="#F2FCFF"/>
</g>
<mask id="mask7_4_723" style="mask-type:luminance" maskUnits="userSpaceOnUse" x="0" y="0" width="1521" height="255">
<path d="M1521 0H0V255H1521V0Z" fill="white"/>
</mask>
<g mask="url(#mask7_4_723)">
<path d="M1466 207.7C1464.7 210.8 1462.1 211.7 1459 211.7C1442.5 211.6 1425.9 211.7 1409.4 211.7C1409 211.7 1408.5 211.7 1408.1 211.7C1404.5 211.5 1402.3 209.4 1402.3 206.4C1402.4 203.4 1404.6 201.4 1408.3 201.4C1423 201.4 1437.8 201.4 1452.5 201.4C1453.5 201.4 1454.5 201.4 1455.5 201.4C1457.3 188.3 1450.7 177.6 1438.7 174.2C1437 173.7 1435.2 173.4 1433.4 173.4C1425.3 173.3 1417.1 173.4 1408.9 173.4C1400.6 202.8 1382.4 222.9 1352.5 230.2C1322.7 237.5 1297.3 228.2 1276.4 206C1275.9 206.4 1275.5 206.8 1275.1 207.2C1256.6 225.7 1238.1 244.2 1219.6 262.7C1217 265.3 1215.6 268.2 1216.5 272C1218.1 278.3 1225.4 280.9 1230.6 276.9C1231.5 276.2 1232.3 275.4 1233.1 274.6C1242.9 264.8 1252.6 255.1 1262.4 245.3C1263.2 244.5 1264 243.7 1264.9 243.1C1267 241.7 1269.5 242.1 1271.2 243.8C1272.8 245.5 1273.1 247.9 1271.8 249.9C1271.2 250.8 1270.4 251.7 1269.6 252.4C1260.5 261.5 1251.3 270.5 1242.4 279.7C1238.3 283.9 1233.9 287.6 1227.9 288.9C1226 288.9 1224.1 288.9 1222.2 288.9C1217.5 287.5 1213.1 285.5 1210 281.4C1204.7 274.6 1204.6 264.6 1210 257.8C1211 256.6 1212 255.5 1213.1 254.4C1231.4 236.1 1249.7 217.8 1268 199.5C1268.7 198.8 1269.4 198.3 1269.7 198C1266.1 189.5 1262.8 181.5 1259.5 173.6C1250.4 173.6 1240.8 172.9 1231.3 173.8C1221.1 174.7 1213.6 184.5 1213 195.5C1212.9 197.3 1213 199.1 1213 201.2C1217 201.2 1220.9 201.2 1224.7 201.2C1227.7 201.2 1230.7 201.2 1233.7 201.2C1237.4 201.3 1239.6 203.2 1239.7 206.2C1239.8 209.3 1237.4 211.4 1233.7 211.5C1226.3 211.6 1219 211.5 1211.6 211.5C1210.1 211.5 1208.7 211.5 1207.2 211.3C1204.6 211 1202.9 209.4 1202.8 207C1202.5 198.6 1201.9 190.2 1205.7 182.3C1210 173.3 1216.8 167.3 1226.4 164.4C1227.1 164.2 1227.8 163.9 1228.8 163.6C1225.6 158.7 1225 153.3 1225.2 147.8C1225.6 138.6 1229.6 131.6 1238.1 127.8C1246.1 124.2 1253.8 125.4 1260.7 131C1261.1 131.3 1261.5 131.6 1261.9 131.8C1275.5 99.3 1299.3 80.9 1334.9 80.3C1363.8 79.8 1394.7 98.2 1406.3 131.1C1410.2 129.5 1414.1 127.1 1418.2 126.3C1431.3 123.9 1442.8 133.3 1443.3 146.6C1443.6 152.5 1444.4 154.5 1440.3 163.1C1444.3 165.2 1448.5 166.8 1452.2 169.3C1459.7 174.3 1463.8 181.7 1465.6 190.4C1465.7 191 1465.9 191.5 1466.1 192.1C1466 197.4 1466 202.6 1466 207.7ZM1334.3 222.2C1370.5 222.2 1400.1 192.7 1400.1 156.5C1400.2 120.4 1370.7 90.8 1334.4 90.6C1298.4 90.3 1268.4 120.3 1268.4 156.5C1268.5 192.7 1298.1 222.2 1334.3 222.2ZM1258.1 149.7C1258.1 148.8 1258.1 147.9 1258.1 147.1C1257.8 141.3 1253.3 136.7 1247.6 136.3C1241.9 135.9 1236.6 139.7 1235.7 145.4C1235.3 148.1 1235.2 150.9 1235.6 153.6C1236.9 162.2 1247.2 166 1253.9 160.5C1257.4 157.6 1258.4 153.9 1258.1 149.7ZM1433.1 149.6C1433.1 148.8 1433.1 148.1 1433.1 147.3C1432.9 141.5 1428.5 136.8 1422.9 136.3C1417.2 135.8 1411.9 139.5 1410.8 145.2C1410.3 148 1410.3 151.1 1410.7 153.9C1411.9 160.7 1418.9 164.6 1425.4 162.5C1430.5 160.7 1433.1 156.4 1433.1 149.6Z" fill="#15BEE6"/>
<path d="M1339.5 39.4C1339.5 42.2 1339.6 45 1339.5 47.9C1339.4 51.1 1337.4 53.3 1334.6 53.4C1331.9 53.5 1329.4 51.4 1329.3 48.2C1329.1 42.4 1329.1 36.6 1329.3 30.8C1329.4 27.7 1331.9 25.5 1334.6 25.7C1337.4 25.8 1339.4 28 1339.5 31.3C1339.5 33.9 1339.5 36.6 1339.5 39.4Z" fill="#15BEE6"/>
<path d="M1308.5 58.1999C1308.4 62.3999 1303.9 65.1999 1300.9 62.7999C1296.9 59.4999 1293.3 55.6999 1289.9 51.7999C1288.4 50.0999 1289.1 47.2999 1290.7 45.6999C1292.4 44.0999 1295.1 43.4999 1296.8 45.0999C1300.6 48.4999 1304.1 52.1999 1307.7 55.8999C1308.2 56.5999 1308.3 57.6999 1308.5 58.1999Z" fill="#15BEE6"/>
<path d="M1364.7 63.9C1363.6 63 1361.9 62.2 1360.9 60.9C1359.7 59.3 1359.8 57.2 1361.1 55.7C1364.4 52.1 1367.8 48.7 1371.4 45.4C1373.2 43.8 1376 44.2 1377.7 45.8C1379.4 47.4 1380.1 50.1 1378.5 51.8C1375 55.7 1371.2 59.2 1367.5 62.9C1367.2 63.4 1366.1 63.4 1364.7 63.9Z" fill="#15BEE6"/>
<path d="M1334.3 70.2999C1331.6 70.1999 1329.2 67.7999 1329.3 65.0999C1329.4 62.3999 1331.9 59.9999 1334.5 60.0999C1337.2 60.1999 1339.5 62.4999 1339.5 65.2999C1339.4 67.9999 1337 70.3999 1334.3 70.2999Z" fill="#15BEE6"/>
<path d="M1281.2 228.5C1283.9 228.5 1286.3 230.9 1286.3 233.6C1286.3 236.3 1283.9 238.6 1281.2 238.6C1278.4 238.6 1276.1 236.3 1276.1 233.5C1276.1 230.8 1278.5 228.5 1281.2 228.5Z" fill="#15BEE6"/>
<path d="M1334.3 100.8C1364.9 100.9 1390 126.1 1389.8 156.6C1389.6 187.2 1364.7 212 1334.2 211.9C1303.5 211.8 1278.5 186.8 1278.7 156.2C1278.9 125.7 1304 100.7 1334.3 100.8ZM1298.8 184.1C1303.7 176.8 1310.2 171.4 1318.4 167.8C1312.8 161.3 1312.3 153.7 1313.6 146C1316.1 130.6 1334.9 123.8 1347.3 133.2C1357.5 141 1357.2 158.4 1351.7 165.7C1351.2 166.4 1350.8 167.1 1350.2 167.9C1358.5 171.4 1364.8 176.9 1369.8 184.1C1384.8 165.8 1382 138.4 1363.7 122C1346.3 106.5 1318.3 107.7 1301.9 124.6C1284.5 142.8 1286.1 169.1 1298.8 184.1ZM1306.4 191.7C1322.2 205.3 1348 204.4 1362.2 191.6C1355.8 180.9 1346.5 175.1 1334 175.2C1321.7 175.3 1312.6 181.2 1306.4 191.7ZM1345.1 151.9C1345.1 151.3 1345.1 150.5 1345.1 149.8C1344.9 143 1339.1 138.3 1332.4 139.3C1326.8 140.2 1323.5 144.9 1323.5 151.8C1323.5 159 1326.7 163.6 1332.4 164.6C1338.9 165.7 1345.8 160.8 1345.1 151.9Z" fill="#15BEE6"/>
</g>
<mask id="mask8_4_723" style="mask-type:luminance" maskUnits="userSpaceOnUse" x="0" y="0" width="1521" height="255">
<path d="M1521 0H0V255H1521V0Z" fill="white"/>
</mask>
<g mask="url(#mask8_4_723)">
<path d="M1439 79C1451.15 79 1461 69.1503 1461 57C1461 44.8497 1451.15 35 1439 35C1426.85 35 1417 44.8497 1417 57C1417 69.1503 1426.85 79 1439 79Z" fill="#D4F6FF"/>
</g>
<mask id="mask9_4_723" style="mask-type:luminance" maskUnits="userSpaceOnUse" x="0" y="0" width="1521" height="255">
<path d="M1521 0H0V255H1521V0Z" fill="white"/>
</mask>
<g mask="url(#mask9_4_723)">
<path d="M58.5 207.7C58.5 206.4 58.7 205.2 59 204.1C59.3 203 59.8 202 60.4 201.1H61.5C61.3 201.4 61 201.9 60.8 202.3C60.6 202.7 60.4 203.3 60.2 203.9C60 204.5 59.9 205.1 59.8 205.7C59.7 206.3 59.7 206.9 59.7 207.6C59.7 208.4 59.8 209.2 59.9 210.1C60.1 210.9 60.3 211.7 60.5 212.4C60.7 213.1 61.1 213.7 61.4 214.2H60.3C59.7 213.3 59.2 212.3 58.9 211.2C58.7 210.2 58.5 209 58.5 207.7Z" fill="#D3D3D3"/>
<path d="M70.4 201.7H71.6999V208.6C71.6999 209.3 71.4999 210 71.1999 210.5C70.8999 211.1 70.4 211.5 69.8 211.8C69.2 212.1 68.4999 212.3 67.6999 212.3C66.8999 212.3 66.1999 212.1 65.5999 211.8C64.9999 211.5 64.4999 211 64.1999 210.5C63.8999 209.9 63.7 209.3 63.7 208.6V201.7H65V208.5C65 209 65.1 209.5 65.3 209.9C65.5 210.3 65.8 210.6 66.3 210.8C66.7 211 67.2 211.1 67.8 211.1C68.4 211.1 68.9 211 69.3 210.8C69.7 210.6 70 210.3 70.3 209.9C70.5 209.5 70.5999 209 70.5999 208.5V201.7H70.4Z" fill="#D3D3D3"/>
<path d="M82.5 201.7V212.2H81.3L75.6 204H75.5V212.2H74.2V201.7H75.4L81.1 209.9H81.2V201.7H82.5Z" fill="#D3D3D3"/>
<path d="M93.5 205H92.2C92.1 204.6 92 204.3 91.8 204C91.6 203.7 91.4 203.5 91.1 203.3C90.8 203.1 90.5 203 90.2 202.9C89.9 202.8 89.5 202.8 89.2 202.8C88.6 202.8 88 203 87.5 203.3C87 203.6 86.6 204.1 86.3 204.7C86 205.3 85.8 206.1 85.8 207C85.8 207.9 86 208.7 86.3 209.3C86.6 209.9 87 210.4 87.5 210.7C88 211 88.6 211.2 89.2 211.2C89.5 211.2 89.9 211.2 90.2 211.1C90.5 211 90.8 210.9 91.1 210.7C91.4 210.5 91.6 210.3 91.8 210C92 209.7 92.1 209.4 92.2 209H93.5C93.4 209.5 93.2 210 93 210.4C92.8 210.8 92.4 211.2 92.1 211.5C91.7 211.8 91.3 212 90.8 212.2C90.3 212.4 89.8 212.4 89.3 212.4C88.4 212.4 87.6 212.2 86.9 211.7C86.2 211.3 85.7 210.6 85.3 209.8C84.9 209 84.7 208 84.7 206.9C84.7 205.8 84.9 204.8 85.3 204C85.7 203.2 86.2 202.6 86.9 202.1C87.6 201.7 88.4 201.4 89.3 201.4C89.8 201.4 90.3 201.5 90.8 201.6C91.3 201.8 91.7 202 92.1 202.3C92.5 202.6 92.8 203 93 203.4C93.2 203.8 93.4 204.4 93.5 205Z" fill="#D3D3D3"/>
<path d="M94.8999 202.8V201.7H102.8V202.8H99.4999V212.2H98.1999V202.8H94.8999Z" fill="#D3D3D3"/>
<path d="M105.2 212.2H103.9L107.7 201.7H109L112.8 212.2H111.5L108.4 203.4H108.3L105.2 212.2ZM105.7 208.1H111.1V209.2H105.7V208.1Z" fill="#D3D3D3"/>
<path d="M117.7 212.2H114.5V201.7H117.9C118.9 201.7 119.8 201.9 120.5 202.3C121.2 202.7 121.8 203.3 122.2 204.1C122.6 204.9 122.8 205.8 122.8 206.9C122.8 208 122.6 208.9 122.2 209.7C121.8 210.5 121.2 211.1 120.5 211.5C119.7 212 118.8 212.2 117.7 212.2ZM115.8 211H117.7C118.6 211 119.3 210.8 119.9 210.5C120.5 210.2 120.9 209.7 121.2 209.1C121.5 208.5 121.6 207.7 121.6 206.9C121.6 206.1 121.5 205.3 121.2 204.7C120.9 204.1 120.5 203.6 120 203.3C119.5 203 118.8 202.8 117.9 202.8H115.9V211H115.8Z" fill="#D3D3D3"/>
<path d="M128.7 212.2V211.3L132.2 207.5C132.6 207.1 132.9 206.7 133.2 206.3C133.5 206 133.7 205.7 133.8 205.4C133.9 205.1 134 204.8 134 204.5C134 204.1 133.9 203.8 133.7 203.5C133.5 203.2 133.3 203 133 202.9C132.7 202.8 132.4 202.7 132 202.7C131.6 202.7 131.2 202.8 130.9 202.9C130.6 203.1 130.4 203.3 130.2 203.6C130 203.9 130 204.2 130 204.6H128.8C128.8 204 128.9 203.4 129.2 203C129.5 202.5 129.9 202.2 130.4 201.9C130.9 201.6 131.4 201.5 132.1 201.5C132.7 201.5 133.3 201.6 133.7 201.9C134.2 202.2 134.5 202.5 134.8 202.9C135.1 203.3 135.2 203.8 135.2 204.4C135.2 204.8 135.1 205.2 135 205.5C134.9 205.9 134.6 206.3 134.3 206.7C134 207.1 133.5 207.7 132.9 208.3L130.5 210.8V210.9H135.4V212H128.7V212.2Z" fill="#D3D3D3"/>
<path d="M140.9 212.3C140.1 212.3 139.5 212.1 138.9 211.7C138.4 211.3 137.9 210.7 137.7 209.9C137.4 209.1 137.3 208.1 137.3 207C137.3 205.9 137.4 204.9 137.7 204.1C138 203.3 138.4 202.7 138.9 202.3C139.4 201.9 140.1 201.7 140.9 201.7C141.7 201.7 142.3 201.9 142.9 202.3C143.4 202.7 143.9 203.3 144.1 204.1C144.4 204.9 144.5 205.9 144.5 207C144.5 208.1 144.4 209.1 144.1 209.9C143.8 210.7 143.4 211.3 142.9 211.7C142.3 212.1 141.6 212.3 140.9 212.3ZM140.9 211.2C141.7 211.2 142.3 210.8 142.7 210.1C143.1 209.4 143.3 208.3 143.3 206.9C143.3 206 143.2 205.2 143 204.6C142.8 204 142.5 203.5 142.2 203.1C141.8 202.8 141.4 202.6 140.9 202.6C140.1 202.6 139.6 203 139.1 203.7C138.7 204.4 138.5 205.5 138.5 206.9C138.5 207.8 138.6 208.6 138.8 209.2C139 209.8 139.3 210.3 139.6 210.6C139.9 211 140.4 211.2 140.9 211.2Z" fill="#D3D3D3"/>
<path d="M146.5 212.2V211.3L150 207.5C150.4 207.1 150.7 206.7 151 206.3C151.3 206 151.5 205.7 151.6 205.4C151.7 205.1 151.8 204.8 151.8 204.5C151.8 204.1 151.7 203.8 151.5 203.5C151.3 203.2 151.1 203 150.8 202.9C150.5 202.8 150.2 202.7 149.8 202.7C149.4 202.7 149 202.8 148.7 202.9C148.4 203.1 148.2 203.3 148 203.6C147.8 203.9 147.8 204.2 147.8 204.6H146.6C146.6 204 146.7 203.4 147 203C147.3 202.5 147.7 202.2 148.2 201.9C148.7 201.6 149.2 201.5 149.9 201.5C150.5 201.5 151.1 201.6 151.5 201.9C152 202.2 152.3 202.5 152.6 202.9C152.9 203.3 153 203.8 153 204.4C153 204.8 152.9 205.2 152.8 205.5C152.7 205.9 152.4 206.3 152.1 206.7C151.8 207.1 151.3 207.7 150.7 208.3L148.3 210.8V210.9H153.2V212H146.5V212.2Z" fill="#D3D3D3"/>
<path d="M154.9 210V209L159.5 201.7H160.3V203.3H159.8L156.3 208.8V208.9H162.5V210H154.9ZM159.9 212.2V209.7V209.2V201.7H161.1V212.2H159.9Z" fill="#D3D3D3"/>
<path d="M167 207.7C167 209 166.8 210.2 166.5 211.3C166.2 212.4 165.7 213.4 165.1 214.3H164C164.2 214 164.5 213.5 164.7 213.1C164.9 212.7 165.1 212.1 165.3 211.5C165.5 210.9 165.6 210.3 165.7 209.7C165.8 209.1 165.8 208.5 165.8 207.8C165.8 207 165.7 206.2 165.6 205.3C165.4 204.5 165.2 203.7 165 203C164.7 202.3 164.4 201.7 164.1 201.2H165.2C165.8 202.1 166.3 203.1 166.6 204.2C166.9 205.3 167 206.5 167 207.7Z" fill="#D3D3D3"/>
</g>
<mask id="mask10_4_723" style="mask-type:luminance" maskUnits="userSpaceOnUse" x="0" y="0" width="1521" height="255">
<path d="M1521 0H0V255H1521V0Z" fill="white"/>
</mask>
<g mask="url(#mask10_4_723)">
<path d="M63.9 60.9H57V39.4H64.2C66.3 39.4 68.1 39.8 69.6 40.7C71.1 41.6 72.3 42.8 73.1 44.4C73.9 46 74.3 47.9 74.3 50.1C74.3 52.3 73.9 54.3 73.1 55.9C72.3 57.5 71.1 58.7 69.6 59.6C67.9 60.5 66.1 60.9 63.9 60.9ZM60.2 58.1H63.7C65.3 58.1 66.7 57.8 67.8 57.2C68.9 56.6 69.7 55.7 70.2 54.5C70.7 53.3 71 51.9 71 50.2C71 48.5 70.7 47.1 70.2 45.9C69.7 44.7 68.9 43.8 67.8 43.2C66.7 42.6 65.4 42.3 63.9 42.3H60.2V58.1Z" fill="#242438"/>
<path d="M79.6001 42.3C79.1001 42.3 78.6001 42.1 78.2001 41.7C77.8001 41.3 77.6001 40.9 77.6001 40.4C77.6001 39.9 77.8001 39.4 78.2001 39.1C78.6001 38.7 79.1001 38.5 79.6001 38.5C80.1001 38.5 80.6001 38.7 81.0001 39.1C81.4001 39.5 81.6001 39.9 81.6001 40.4C81.6001 40.9 81.4001 41.4 81.0001 41.7C80.6001 42.1 80.1001 42.3 79.6001 42.3ZM78.0001 60.9V44.8H81.1001V60.9H78.0001Z" fill="#242438"/>
<path d="M91.3 61.2C90 61.2 88.8 60.9 87.8 60.2C86.8 59.5 86 58.6 85.4 57.3C84.8 56.1 84.5 54.6 84.5 52.8C84.5 51.1 84.8 49.6 85.4 48.3C86 47.1 86.8 46.1 87.8 45.5C88.8 44.8 90 44.5 91.3 44.5C92.3 44.5 93.1 44.7 93.7 45C94.3 45.3 94.8 45.7 95.1 46.2C95.4 46.6 95.7 47 95.9 47.4H96.1V39.4H99.2V60.9H96.1V58.4H96C95.8 58.7 95.5 59.1 95.2 59.6C94.8 60 94.4 60.4 93.7 60.8C93.1 61 92.3 61.2 91.3 61.2ZM92 58.5C92.9 58.5 93.7 58.3 94.3 57.8C94.9 57.3 95.4 56.7 95.7 55.8C96 54.9 96.2 54 96.2 52.8C96.2 51.7 96 50.7 95.7 49.9C95.4 49.1 94.9 48.4 94.3 47.9C93.7 47.4 92.9 47.2 92 47.2C91.1 47.2 90.3 47.4 89.6 47.9C88.9 48.4 88.5 49.1 88.2 49.9C87.9 50.7 87.7 51.7 87.7 52.8C87.7 53.9 87.9 54.8 88.2 55.7C88.5 56.6 89 57.2 89.6 57.7C90.2 58.2 91.1 58.5 92 58.5Z" fill="#242438"/>
<path d="M113.6 66.9001C113.1 66.9001 112.7 66.9001 112.3 66.8001C111.9 66.7001 111.6 66.6 111.4 66.6L112.2 64C112.8 64.2001 113.3 64.2 113.7 64.2C114.1 64.2 114.5 64 114.9 63.7001C115.3 63.4001 115.6 62.9001 115.8 62.2001L116.2 61.1L110.3 44.8H113.7L117.8 57.3H118L122.1 44.8H125.5L118.7 63C118.4 63.8 118 64.5 117.5 65.1C117 65.7 116.5 66.1001 115.8 66.4001C115.2 66.8001 114.5 66.9001 113.6 66.9001Z" fill="#242438"/>
<path d="M135.1 61.2C133.6 61.2 132.3 60.9 131.1 60.2C130 59.5 129.1 58.5 128.5 57.3C127.9 56.1 127.6 54.6 127.6 52.9C127.6 51.2 127.9 49.8 128.5 48.5C129.1 47.2 130 46.3 131.1 45.6C132.2 44.9 133.5 44.6 135.1 44.6C136.7 44.6 137.9 44.9 139.1 45.6C140.2 46.3 141.1 47.3 141.7 48.5C142.3 49.7 142.6 51.2 142.6 52.9C142.6 54.6 142.3 56 141.7 57.3C141.1 58.5 140.2 59.5 139.1 60.2C137.9 60.9 136.6 61.2 135.1 61.2ZM135.1 58.6C136.1 58.6 136.9 58.3 137.5 57.8C138.1 57.3 138.6 56.6 138.9 55.7C139.2 54.8 139.4 53.9 139.4 52.9C139.4 51.9 139.2 50.9 138.9 50.1C138.6 49.2 138.1 48.5 137.5 48C136.9 47.5 136 47.2 135.1 47.2C134.1 47.2 133.3 47.5 132.7 48C132.1 48.5 131.6 49.2 131.3 50.1C131 51 130.8 51.9 130.8 52.9C130.8 53.9 131 54.9 131.3 55.7C131.6 56.6 132.1 57.2 132.7 57.8C133.3 58.3 134.1 58.6 135.1 58.6Z" fill="#242438"/>
<path d="M156.3 54.2001V44.8H159.4V60.9001H156.3V58.1H156.1C155.7 59 155.1 59.7001 154.3 60.2001C153.5 60.8001 152.5 61.1 151.3 61.1C150.3 61.1 149.4 60.9001 148.6 60.4001C147.8 59.9001 147.2 59.3001 146.7 58.4001C146.2 57.5001 146 56.4 146 55.1V44.8H149.1V54.7001C149.1 55.8001 149.4 56.7 150 57.3C150.6 58 151.4 58.3 152.4 58.3C153 58.3 153.6 58.2001 154.2 57.9001C154.8 57.6001 155.3 57.2 155.7 56.6C156.1 56 156.3 55.1 156.3 54.2001Z" fill="#242438"/>
<path d="M171.5 60.9V39.4H174.6V60.9H171.5ZM174.4 55.4V51.6H174.9L181.3 44.8H185.1L177.8 52.6H177.3L174.4 55.4ZM181.6 60.9L175.8 53.2L178 51L185.5 60.8H181.6V60.9Z" fill="#15BEE6"/>
<path d="M191 51.3V60.9H187.9V44.8H190.9V47.4H191.1C191.5 46.5 192.1 45.9 192.8 45.3C193.6 44.8 194.6 44.5 195.8 44.5C196.9 44.5 197.9 44.7 198.7 45.2C199.5 45.7 200.2 46.3 200.6 47.2C201.1 48.1 201.3 49.2 201.3 50.5V60.7H198.2V51C198.2 49.8 197.9 48.9 197.3 48.3C196.7 47.6 195.9 47.3 194.8 47.3C194.1 47.3 193.4 47.5 192.9 47.8C192.4 48.1 191.9 48.6 191.6 49.2C191.2 49.7 191 50.5 191 51.3Z" fill="#15BEE6"/>
<path d="M212.3 61.2C210.8 61.2 209.5 60.9 208.3 60.2C207.2 59.5 206.3 58.5 205.7 57.3C205.1 56.1 204.8 54.6 204.8 52.9C204.8 51.2 205.1 49.8 205.7 48.5C206.3 47.2 207.2 46.3 208.3 45.6C209.4 44.9 210.7 44.6 212.3 44.6C213.9 44.6 215.1 44.9 216.3 45.6C217.4 46.3 218.3 47.3 218.9 48.5C219.5 49.7 219.8 51.2 219.8 52.9C219.8 54.6 219.5 56 218.9 57.3C218.3 58.5 217.4 59.5 216.3 60.2C215.1 60.9 213.8 61.2 212.3 61.2ZM212.3 58.6C213.3 58.6 214.1 58.3 214.7 57.8C215.3 57.3 215.8 56.6 216.1 55.7C216.4 54.8 216.6 53.9 216.6 52.9C216.6 51.9 216.4 50.9 216.1 50.1C215.8 49.2 215.3 48.5 214.7 48C214.1 47.5 213.2 47.2 212.3 47.2C211.3 47.2 210.5 47.5 209.9 48C209.3 48.5 208.8 49.2 208.5 50.1C208.2 51 208 51.9 208 52.9C208 53.9 208.2 54.9 208.5 55.7C208.8 56.6 209.3 57.2 209.9 57.8C210.5 58.3 211.3 58.6 212.3 58.6Z" fill="#15BEE6"/>
<path d="M226.8 60.9001L222.1 44.8H225.3L228.5 56.6H228.7L231.9 44.8H235.1L238.2 56.6H238.4L241.5 44.8H244.7L240 60.9001H236.8L233.5 49.3H233.3L230 60.9001H226.8Z" fill="#15BEE6"/>
<path d="M251.1 54.5C251.1 53.2 251.2 52.2 251.5 51.4C251.8 50.6 252.1 50 252.6 49.5C253.1 49 253.6 48.6 254.3 48.2C254.7 47.9 255.1 47.6 255.4 47.3C255.7 47 256 46.6 256.2 46.2C256.4 45.8 256.5 45.3 256.5 44.8C256.5 44.2 256.4 43.6 256.1 43.2C255.8 42.7 255.4 42.4 254.9 42.1C254.4 41.8 253.9 41.7 253.3 41.7C252.8 41.7 252.2 41.8 251.8 42C251.4 42.2 250.9 42.6 250.6 43C250.3 43.4 250.1 44.1 250 44.8H246.8C246.8 43.5 247.2 42.5 247.8 41.6C248.4 40.7 249.2 40.1 250.1 39.6C251 39.1 252.1 38.9 253.3 38.9C254.6 38.9 255.7 39.1 256.7 39.6C257.7 40.1 258.4 40.7 258.9 41.6C259.4 42.5 259.7 43.5 259.7 44.6C259.7 45.4 259.6 46.1 259.3 46.7C259.1 47.3 258.7 47.9 258.3 48.4C257.8 48.9 257.3 49.3 256.7 49.7C256.1 50.1 255.6 50.5 255.3 50.9C254.9 51.3 254.7 51.8 254.5 52.3C254.3 52.8 254.2 53.5 254.2 54.3V54.5H251.1ZM252.7 61.1C252.1 61.1 251.6 60.9 251.2 60.5C250.8 60.1 250.6 59.6 250.6 59C250.6 58.4 250.8 57.9 251.2 57.5C251.6 57.1 252.1 56.9 252.7 56.9C253.3 56.9 253.8 57.1 254.2 57.5C254.6 57.9 254.8 58.4 254.8 59C254.8 59.4 254.7 59.7 254.5 60.1C254.3 60.4 254.1 60.7 253.7 60.9C253.4 61 253 61.1 252.7 61.1Z" fill="#15BEE6"/>
<path d="M257 65.6H170.9V68.2H257V65.6Z" fill="#D9F4F9"/>
</g>
</g>
<defs>
<clipPath id="clip0_4_723">
<rect width="1521" height="255" fill="white"/>
</clipPath>
</defs>
</svg>
