<svg width="1521" height="255" viewBox="0 0 1521 255" fill="none" xmlns="http://www.w3.org/2000/svg">
<g clip-path="url(#clip0_4_1166)">
<path d="M1521 0H0V255H1521V0Z" fill="white"/>
<mask id="mask0_4_1166" style="mask-type:luminance" maskUnits="userSpaceOnUse" x="0" y="0" width="1521" height="255">
<path d="M1521 0H0V255H1521V0Z" fill="white"/>
</mask>
<g mask="url(#mask0_4_1166)">
<path d="M589.8 65C625.7 65 654.8 35.9 654.8 0H524.8C524.8 35.9 553.9 65 589.8 65Z" fill="#F2FCFF"/>
</g>
<mask id="mask1_4_1166" style="mask-type:luminance" maskUnits="userSpaceOnUse" x="0" y="0" width="1521" height="255">
<path d="M1521 0H0V255H1521V0Z" fill="white"/>
</mask>
<g mask="url(#mask1_4_1166)">
<path d="M1163.8 214.2C1141.3 214.2 1123 232.5 1123 255H1204.6C1204.6 232.5 1186.3 214.2 1163.8 214.2Z" fill="#F2FCFF"/>
</g>
<mask id="mask2_4_1166" style="mask-type:luminance" maskUnits="userSpaceOnUse" x="0" y="0" width="1521" height="255">
<path d="M1521 0H0V255H1521V0Z" fill="white"/>
</mask>
<g mask="url(#mask2_4_1166)">
<path d="M56.9999 64.7C65.0633 64.7 71.5999 58.1634 71.5999 50.1C71.5999 42.0366 65.0633 35.5 56.9999 35.5C48.9365 35.5 42.3999 42.0366 42.3999 50.1C42.3999 58.1634 48.9365 64.7 56.9999 64.7Z" fill="#F9FEFA"/>
</g>
<mask id="mask3_4_1166" style="mask-type:luminance" maskUnits="userSpaceOnUse" x="0" y="0" width="1521" height="255">
<path d="M1521 0H0V255H1521V0Z" fill="white"/>
</mask>
<g mask="url(#mask3_4_1166)">
<path d="M1176.7 125.6L1167.7 119L1174.3 110L1169.8 106.7L1163.2 115.7L1154.4 109.3L1151.1 113.8L1159.9 120.2L1153.4 129L1157.9 132.3L1164.4 123.5L1173.4 130.1L1176.7 125.6Z" fill="#D4F6FF"/>
</g>
<mask id="mask4_4_1166" style="mask-type:luminance" maskUnits="userSpaceOnUse" x="0" y="0" width="1521" height="255">
<path d="M1521 0H0V255H1521V0Z" fill="white"/>
</mask>
<g mask="url(#mask4_4_1166)">
<path d="M1456 192C1461.52 192 1466 187.523 1466 182C1466 176.477 1461.52 172 1456 172C1450.48 172 1446 176.477 1446 182C1446 187.523 1450.48 192 1456 192Z" fill="#F2FCFF"/>
</g>
<mask id="mask5_4_1166" style="mask-type:luminance" maskUnits="userSpaceOnUse" x="0" y="0" width="1521" height="255">
<path d="M1521 0H0V255H1521V0Z" fill="white"/>
</mask>
<g mask="url(#mask5_4_1166)">
<path d="M655 274C667.703 274 678 263.703 678 251C678 238.297 667.703 228 655 228C642.297 228 632 238.297 632 251C632 263.703 642.297 274 655 274Z" fill="#F2FCFF"/>
</g>
<mask id="mask6_4_1166" style="mask-type:luminance" maskUnits="userSpaceOnUse" x="0" y="0" width="1521" height="255">
<path d="M1521 0H0V255H1521V0Z" fill="white"/>
</mask>
<g mask="url(#mask6_4_1166)">
<path d="M62.4 121.8H56L67.7 88.6H75.1L86.8 121.8H80.4L71.5 95.4H71.2L62.4 121.8ZM62.6 108.8H80.1V113.6H62.6V108.8Z" fill="#77809C"/>
<path d="M103.1 96.9V101.4H88.4001V96.9H103.1ZM92.1001 121.8V94.5C92.1001 92.8 92.4001 91.4 93.1001 90.3C93.8001 89.2 94.7001 88.4 95.9001 87.8C97.1001 87.2 98.4001 87 99.8001 87C100.8 87 101.7 87.1 102.5 87.2C103.3 87.4 103.9 87.5 104.3 87.6L103.1 92.1C102.9 92 102.5 91.9 102.2 91.9C101.9 91.9 101.4 91.8 100.9 91.8C99.8001 91.8 99.0001 92.1 98.6001 92.6C98.2001 93.1 98.0001 93.9 98.0001 94.9V121.8H92.1001Z" fill="#77809C"/>
<path d="M107.3 121.8V96.9H113V101.1H113.3C113.8 99.7 114.5 98.6 115.6 97.8C116.7 97 118 96.6 119.4 96.6C119.7 96.6 120.1 96.6 120.5 96.6C120.9 96.6 121.2 96.7 121.5 96.7V102.1C121.3 102 120.9 101.9 120.3 101.9C119.7 101.9 119.2 101.8 118.8 101.8C117.7 101.8 116.8 102 115.9 102.5C115 103 114.4 103.6 113.9 104.4C113.4 105.2 113.2 106.1 113.2 107.2V121.8H107.3Z" fill="#77809C"/>
<path d="M127.9 93.3C127 93.3 126.2 93 125.5 92.4C124.8 91.8 124.5 91 124.5 90.1C124.5 89.2 124.8 88.5 125.5 87.9C126.2 87.3 127 87 127.9 87C128.8 87 129.6 87.3 130.3 87.9C131 88.5 131.3 89.3 131.3 90.2C131.3 91.1 131 91.8 130.3 92.4C129.6 93 128.8 93.3 127.9 93.3ZM124.9 121.8V96.9H130.8V121.8H124.9Z" fill="#77809C"/>
<path d="M147.3 122.3C144.8 122.3 142.7 121.8 140.9 120.7C139.1 119.6 137.8 118.1 136.8 116.2C135.8 114.3 135.4 112 135.4 109.5C135.4 107 135.9 104.7 136.9 102.8C137.9 100.9 139.2 99.3001 141 98.3001C142.8 97.3001 144.9 96.7001 147.3 96.7001C149.3 96.7001 151.1 97.1001 152.7 97.8001C154.3 98.5001 155.5 99.6001 156.4 100.9C157.3 102.2 157.9 103.8 158 105.6H152.4C152.2 104.4 151.6 103.4 150.8 102.6C150 101.8 148.8 101.4 147.4 101.4C146.2 101.4 145.1 101.7 144.2 102.4C143.3 103 142.6 104 142.1 105.2C141.6 106.4 141.3 107.8 141.3 109.5C141.3 111.2 141.5 112.7 142 113.9C142.5 115.1 143.2 116.1 144.1 116.7C145 117.3 146.1 117.7 147.3 117.7C148.2 117.7 148.9 117.5 149.6 117.2C150.3 116.9 150.9 116.4 151.3 115.8C151.8 115.2 152.1 114.4 152.3 113.5H157.9C157.8 115.3 157.2 116.8 156.3 118.2C155.4 119.6 154.2 120.6 152.6 121.4C151.2 121.9 149.4 122.3 147.3 122.3Z" fill="#77809C"/>
<path d="M169.5 122.3C167.9 122.3 166.5 122 165.2 121.4C163.9 120.8 162.9 120 162.2 118.9C161.5 117.8 161.1 116.4 161.1 114.8C161.1 113.4 161.4 112.2 161.9 111.3C162.4 110.4 163.1 109.6 164 109.1C164.9 108.5 165.9 108.1 167 107.8C168.1 107.5 169.3 107.3 170.5 107.2C172 107 173.1 106.9 174.1 106.8C175.1 106.7 175.7 106.5 176.1 106.2C176.5 105.9 176.7 105.5 176.7 105V104.9C176.7 103.7 176.3 102.7 175.6 102.1C174.9 101.4 173.8 101.1 172.5 101.1C171.1 101.1 169.9 101.4 169.1 102C168.3 102.6 167.7 103.4 167.4 104.2L161.9 103.4C162.3 101.9 163 100.6 164 99.6C165 98.6 166.2 97.8 167.6 97.3C169 96.8 170.6 96.5 172.4 96.5C173.6 96.5 174.8 96.6 176 96.9C177.2 97.2 178.3 97.6 179.3 98.3C180.3 99 181.1 99.8 181.7 100.9C182.3 102 182.6 103.4 182.6 105V121.7H177V118.3H176.8C176.4 119 175.9 119.6 175.3 120.2C174.7 120.8 173.9 121.3 172.9 121.6C171.9 122.1 170.8 122.3 169.5 122.3ZM171 118C172.2 118 173.2 117.8 174.1 117.3C175 116.8 175.6 116.2 176.1 115.4C176.6 114.6 176.8 113.8 176.8 112.9V110C176.6 110.2 176.3 110.3 175.9 110.4C175.5 110.5 175 110.6 174.4 110.7C173.9 110.8 173.3 110.9 172.8 111C172.3 111.1 171.8 111.1 171.4 111.2C170.5 111.3 169.7 111.5 169 111.8C168.3 112.1 167.8 112.4 167.4 112.9C167 113.4 166.8 114 166.8 114.8C166.8 115.9 167.2 116.7 168 117.2C168.8 117.7 169.8 118 171 118Z" fill="#77809C"/>
<path d="M206.2 122.3C204.6 122.3 203.2 122 201.9 121.4C200.6 120.8 199.6 120 198.9 118.9C198.2 117.8 197.8 116.4 197.8 114.8C197.8 113.4 198.1 112.2 198.6 111.3C199.1 110.4 199.8 109.6 200.7 109.1C201.6 108.5 202.6 108.1 203.7 107.8C204.8 107.5 206 107.3 207.2 107.2C208.7 107 209.8 106.9 210.8 106.8C211.8 106.7 212.4 106.5 212.8 106.2C213.2 105.9 213.4 105.5 213.4 105V104.9C213.4 103.7 213 102.7 212.3 102.1C211.6 101.4 210.5 101.1 209.2 101.1C207.8 101.1 206.6 101.4 205.8 102C205 102.6 204.4 103.4 204.1 104.2L198.6 103.4C199 101.9 199.7 100.6 200.7 99.6C201.7 98.6 202.9 97.8 204.3 97.3C205.7 96.8 207.3 96.5 209.1 96.5C210.3 96.5 211.5 96.6 212.7 96.9C213.9 97.2 215 97.6 216 98.3C217 99 217.8 99.8 218.4 100.9C219 102 219.3 103.4 219.3 105V121.7H213.7V118.3H213.5C213.1 119 212.6 119.6 212 120.2C211.4 120.8 210.6 121.3 209.6 121.6C208.6 122.1 207.5 122.3 206.2 122.3ZM207.7 118C208.9 118 209.9 117.8 210.8 117.3C211.7 116.8 212.3 116.2 212.8 115.4C213.3 114.6 213.5 113.8 213.5 112.9V110C213.3 110.2 213 110.3 212.6 110.4C212.2 110.5 211.7 110.6 211.1 110.7C210.6 110.8 210 110.9 209.5 111C209 111.1 208.5 111.1 208.1 111.2C207.2 111.3 206.4 111.5 205.7 111.8C205 112.1 204.5 112.4 204.1 112.9C203.7 113.4 203.5 114 203.5 114.8C203.5 115.9 203.9 116.7 204.7 117.2C205.5 117.7 206.5 118 207.7 118Z" fill="#77809C"/>
<path d="M237.2 96.9V101.4H222.9V96.9H237.2ZM226.4 90.9H232.3V114.3C232.3 115.1 232.4 115.7 232.7 116.1C232.9 116.5 233.3 116.8 233.7 117C234.1 117.2 234.5 117.2 235 117.2C235.4 117.2 235.7 117.2 236 117.1C236.3 117 236.5 117 236.7 117L237.7 121.6C237.4 121.7 236.9 121.8 236.4 122C235.8 122.1 235.1 122.2 234.3 122.2C232.8 122.2 231.5 122 230.3 121.5C229.1 121 228.2 120.2 227.5 119.2C226.8 118.2 226.5 116.9 226.5 115.3V90.9H226.4Z" fill="#77809C"/>
<path d="M254.1 96.9V101.4H239.8V96.9H254.1ZM243.3 90.9H249.2V114.3C249.2 115.1 249.3 115.7 249.6 116.1C249.8 116.5 250.2 116.8 250.6 117C251 117.2 251.4 117.2 251.9 117.2C252.3 117.2 252.6 117.2 252.9 117.1C253.2 117 253.4 117 253.6 117L254.6 121.6C254.3 121.7 253.8 121.8 253.3 122C252.7 122.1 252 122.2 251.2 122.2C249.7 122.2 248.4 122 247.2 121.5C246 121 245.1 120.2 244.4 119.2C243.7 118.2 243.4 116.9 243.4 115.3V90.9H243.3Z" fill="#77809C"/>
<path d="M258.6 121.8V96.9H264.3V101.1H264.6C265.1 99.7 265.8 98.6 266.9 97.8C268 97 269.3 96.6 270.7 96.6C271 96.6 271.4 96.6 271.8 96.6C272.2 96.6 272.5 96.7 272.8 96.7V102.1C272.6 102 272.2 101.9 271.6 101.9C271 101.9 270.5 101.8 270.1 101.8C269 101.8 268.1 102 267.2 102.5C266.3 103 265.7 103.6 265.2 104.4C264.7 105.2 264.5 106.1 264.5 107.2V121.8H258.6Z" fill="#77809C"/>
<path d="M283.4 122.3C281.8 122.3 280.4 122 279.1 121.4C277.8 120.8 276.8 120 276.1 118.9C275.4 117.8 275 116.4 275 114.8C275 113.4 275.3 112.2 275.8 111.3C276.3 110.4 277 109.6 277.9 109.1C278.8 108.5 279.8 108.1 280.9 107.8C282 107.5 283.2 107.3 284.4 107.2C285.9 107 287 106.9 288 106.8C289 106.7 289.6 106.5 290 106.2C290.4 105.9 290.6 105.5 290.6 105V104.9C290.6 103.7 290.2 102.7 289.5 102.1C288.8 101.4 287.7 101.1 286.4 101.1C285 101.1 283.8 101.4 283 102C282.2 102.6 281.6 103.4 281.3 104.2L275.8 103.4C276.2 101.9 276.9 100.6 277.9 99.6C278.9 98.6 280.1 97.8 281.5 97.3C282.9 96.8 284.5 96.5 286.3 96.5C287.5 96.5 288.7 96.6 289.9 96.9C291.1 97.2 292.2 97.6 293.2 98.3C294.2 99 295 99.8 295.6 100.9C296.2 102 296.5 103.4 296.5 105V121.7H290.9V118.3H290.7C290.3 119 289.8 119.6 289.2 120.2C288.6 120.8 287.8 121.3 286.8 121.6C285.8 122.1 284.7 122.3 283.4 122.3ZM284.9 118C286.1 118 287.1 117.8 288 117.3C288.9 116.8 289.5 116.2 290 115.4C290.5 114.6 290.7 113.8 290.7 112.9V110C290.5 110.2 290.2 110.3 289.8 110.4C289.4 110.5 288.9 110.6 288.3 110.7C287.8 110.8 287.2 110.9 286.7 111C286.2 111.1 285.7 111.1 285.3 111.2C284.4 111.3 283.6 111.5 282.9 111.8C282.2 112.1 281.7 112.4 281.3 112.9C280.9 113.4 280.7 114 280.7 114.8C280.7 115.9 281.1 116.7 281.9 117.2C282.7 117.7 283.7 118 284.9 118Z" fill="#77809C"/>
<path d="M312.9 122.3C310.4 122.3 308.3 121.8 306.5 120.7C304.7 119.6 303.4 118.1 302.4 116.2C301.4 114.3 301 112 301 109.5C301 107 301.5 104.7 302.5 102.8C303.5 100.9 304.8 99.3001 306.6 98.3001C308.4 97.3001 310.5 96.7001 312.9 96.7001C314.9 96.7001 316.7 97.1001 318.3 97.8001C319.9 98.5001 321.1 99.6001 322 100.9C322.9 102.2 323.5 103.8 323.6 105.6H318C317.8 104.4 317.2 103.4 316.4 102.6C315.6 101.8 314.4 101.4 313 101.4C311.8 101.4 310.7 101.7 309.8 102.4C308.9 103 308.2 104 307.7 105.2C307.2 106.4 306.9 107.8 306.9 109.5C306.9 111.2 307.1 112.7 307.6 113.9C308.1 115.1 308.8 116.1 309.7 116.7C310.6 117.3 311.7 117.7 312.9 117.7C313.8 117.7 314.5 117.5 315.2 117.2C315.9 116.9 316.5 116.4 316.9 115.8C317.4 115.2 317.7 114.4 317.9 113.5H323.5C323.4 115.3 322.8 116.8 321.9 118.2C321 119.6 319.8 120.6 318.2 121.4C316.8 121.9 315 122.3 312.9 122.3Z" fill="#77809C"/>
<path d="M340.4 96.9V101.4H326.1V96.9H340.4ZM329.6 90.9H335.5V114.3C335.5 115.1 335.6 115.7 335.9 116.1C336.1 116.5 336.5 116.8 336.9 117C337.3 117.2 337.7 117.2 338.2 117.2C338.6 117.2 338.9 117.2 339.2 117.1C339.5 117 339.7 117 339.9 117L340.9 121.6C340.6 121.7 340.1 121.8 339.6 122C339 122.1 338.3 122.2 337.5 122.2C336 122.2 334.7 122 333.5 121.5C332.3 121 331.4 120.2 330.7 119.2C330 118.2 329.7 116.9 329.7 115.3V90.9H329.6Z" fill="#77809C"/>
<path d="M355.9 122.3C353.4 122.3 351.2 121.8 349.4 120.7C347.6 119.7 346.2 118.2 345.2 116.3C344.2 114.4 343.7 112.1 343.7 109.5C343.7 106.9 344.2 104.7 345.2 102.7C346.2 100.8 347.5 99.2 349.3 98.2C351.1 97.2 353.1 96.6 355.5 96.6C357 96.6 358.5 96.8 359.9 97.3C361.3 97.8 362.5 98.6 363.5 99.6C364.6 100.6 365.4 101.9 366 103.5C366.6 105.1 366.9 107 366.9 109.2V111H346.5V107H361.3C361.3 105.9 361 104.9 360.6 104C360.1 103.1 359.5 102.4 358.6 101.9C357.8 101.4 356.8 101.1 355.6 101.1C354.4 101.1 353.3 101.4 352.4 102C351.5 102.6 350.8 103.3 350.3 104.3C349.8 105.3 349.5 106.3 349.5 107.4V110.9C349.5 112.3 349.8 113.6 350.3 114.6C350.8 115.6 351.6 116.4 352.5 117C353.5 117.5 354.6 117.8 355.8 117.8C356.7 117.8 357.4 117.7 358.1 117.4C358.8 117.2 359.4 116.8 359.9 116.3C360.4 115.8 360.8 115.2 361.1 114.5L366.6 115.1C366.3 116.5 365.6 117.8 364.6 118.9C363.6 120 362.4 120.8 360.9 121.4C359.5 122 357.8 122.3 355.9 122.3Z" fill="#77809C"/>
<path d="M380.7 122.2C378.7 122.2 377 121.7 375.4 120.7C373.9 119.7 372.6 118.2 371.7 116.3C370.8 114.4 370.4 112.1 370.4 109.3C370.4 106.5 370.9 104.2 371.8 102.3C372.7 100.4 373.9 98.9 375.5 98C377.1 97 378.8 96.5 380.7 96.5C382.2 96.5 383.4 96.7 384.3 97.2C385.2 97.7 386 98.3 386.5 99C387.1 99.7 387.5 100.3 387.8 100.9H388V88.6H393.9V121.8H388.1V117.9H387.7C387.4 118.5 387 119.1 386.4 119.8C385.8 120.5 385.1 121.1 384.1 121.5C383.3 122 382.1 122.2 380.7 122.2ZM382.3 117.4C383.5 117.4 384.6 117.1 385.5 116.4C386.4 115.7 387 114.8 387.5 113.6C388 112.4 388.2 111 388.2 109.4C388.2 107.8 388 106.4 387.5 105.2C387 104 386.4 103.1 385.5 102.4C384.6 101.7 383.6 101.4 382.3 101.4C381 101.4 379.9 101.7 379 102.4C378.1 103.1 377.5 104 377 105.2C376.5 106.4 376.3 107.8 376.3 109.3C376.3 110.9 376.5 112.2 377 113.5C377.4 114.7 378.1 115.7 379 116.4C380 117.1 381.1 117.4 382.3 117.4Z" fill="#77809C"/>
<path d="M429 97.7C428.8 96.3 428.2 95.2 427.1 94.4C426 93.6 424.5 93.2 422.7 93.2C421.4 93.2 420.4 93.4 419.5 93.8C418.6 94.2 417.9 94.7 417.4 95.3C416.9 95.9 416.7 96.7 416.7 97.5C416.7 98.2 416.9 98.8 417.2 99.3C417.5 99.8 418 100.2 418.5 100.6C419.1 101 419.7 101.2 420.3 101.5C421 101.7 421.6 101.9 422.3 102.1L425.4 102.9C426.7 103.2 427.9 103.6 429 104.1C430.1 104.6 431.2 105.2 432.1 106C433 106.8 433.8 107.7 434.3 108.7C434.8 109.8 435.1 111 435.1 112.5C435.1 114.4 434.6 116.2 433.6 117.6C432.6 119.1 431.2 120.2 429.3 121.1C427.4 121.9 425.2 122.3 422.5 122.3C419.9 122.3 417.7 121.9 415.8 121.1C413.9 120.3 412.4 119.1 411.4 117.6C410.3 116.1 409.8 114.2 409.7 112H415.6C415.7 113.2 416 114.1 416.7 114.9C417.3 115.7 418.1 116.2 419.2 116.6C420.3 117 421.3 117.2 422.6 117.2C423.9 117.2 425.1 117 426 116.6C427 116.2 427.8 115.7 428.3 114.9C428.9 114.2 429.1 113.4 429.2 112.4C429.2 111.5 428.9 110.8 428.4 110.3C427.9 109.8 427.2 109.3 426.3 108.9C425.4 108.5 424.4 108.2 423.2 107.9L419.4 106.9C416.7 106.2 414.5 105.1 412.9 103.7C411.3 102.3 410.5 100.4 410.5 98C410.5 96 411 94.3 412.1 92.9C413.2 91.4 414.6 90.3 416.5 89.5C418.3 88.7 420.4 88.3 422.7 88.3C425.1 88.3 427.1 88.7 428.9 89.5C430.7 90.3 432.1 91.4 433.1 92.9C434.1 94.3 434.6 96 434.7 97.9H429V97.7ZM421.3 125.9V84.4H424V125.9H421.3Z" fill="#242438"/>
<path d="M453.3 88.6V121.8H447.3V94.4H447.1L439.3 99.4V93.9L447.6 88.6H453.3Z" fill="#242438"/>
<path d="M473.6 122.4C470.9 122.4 468.6 121.7 466.7 120.4C464.8 119 463.3 117.1 462.3 114.5C461.3 111.9 460.8 108.8 460.8 105.2C460.8 101.6 461.3 98.5 462.3 95.9C463.3 93.3 464.8 91.4 466.7 90.1C468.6 88.8 470.9 88.1 473.6 88.1C476.3 88.1 478.5 88.8 480.5 90.1C482.5 91.4 483.9 93.4 484.9 95.9C485.9 98.5 486.4 101.5 486.4 105.1C486.4 108.7 485.9 111.8 484.9 114.4C483.9 117 482.4 118.9 480.5 120.3C478.6 121.7 476.3 122.4 473.6 122.4ZM473.6 117.3C475.7 117.3 477.3 116.3 478.5 114.2C479.7 112.2 480.3 109.1 480.3 105.1C480.3 102.5 480 100.2 479.5 98.4C478.9 96.6 478.2 95.3 477.2 94.3C476.2 93.4 475 92.9 473.6 92.9C471.5 92.9 469.9 93.9 468.7 96C467.5 98 466.9 101.1 466.9 105C466.9 107.6 467.2 109.9 467.7 111.7C468.2 113.5 469 114.9 470 115.8C471 116.7 472.2 117.3 473.6 117.3Z" fill="#242438"/>
<path d="M495 122.1C494 122.1 493.2 121.8 492.5 121.1C491.8 120.4 491.5 119.6 491.5 118.6C491.5 117.6 491.8 116.8 492.5 116.1C493.2 115.4 494 115.1 495 115.1C496 115.1 496.8 115.4 497.5 116.1C498.2 116.8 498.6 117.6 498.6 118.6C498.6 119.3 498.4 119.9 498.1 120.4C497.8 120.9 497.3 121.4 496.8 121.7C496.2 122 495.6 122.1 495 122.1Z" fill="#242438"/>
<path d="M515.9 122.2C513.5 122.2 511.3 121.8 509.5 121C507.6 120.2 506.2 119.1 505.1 117.7C504 116.3 503.5 114.7 503.5 112.9C503.5 111.5 503.8 110.2 504.4 109.1C505 107.9 505.9 107 506.9 106.2C507.9 105.4 509.1 104.9 510.4 104.7V104.5C508.7 104.1 507.3 103.2 506.3 101.9C505.2 100.5 504.7 99.0001 504.7 97.2001C504.7 95.5001 505.2 94.0001 506.1 92.6001C507 91.2001 508.4 90.2001 510.1 89.4001C511.8 88.6001 513.7 88.2001 515.8 88.2001C517.9 88.2001 519.8 88.6001 521.5 89.4001C523.2 90.2001 524.5 91.2001 525.5 92.6001C526.5 94.0001 527 95.5001 527 97.2001C527 99.0001 526.5 100.6 525.4 101.9C524.3 103.2 523 104.1 521.3 104.5V104.7C522.6 104.9 523.8 105.4 524.8 106.2C525.8 107 526.7 108 527.3 109.1C527.9 110.3 528.2 111.5 528.2 112.9C528.2 114.7 527.7 116.3 526.6 117.7C525.5 119.1 524.1 120.2 522.2 121C520.5 121.8 518.3 122.2 515.9 122.2ZM515.9 117.6C517.1 117.6 518.2 117.4 519.1 117C520 116.6 520.7 116 521.2 115.2C521.7 114.4 522 113.5 522 112.5C522 111.4 521.7 110.5 521.2 109.7C520.7 108.9 519.9 108.2 519 107.8C518.1 107.3 517 107.1 515.8 107.1C514.6 107.1 513.6 107.3 512.6 107.8C511.7 108.3 510.9 108.9 510.4 109.7C509.9 110.5 509.6 111.5 509.6 112.5C509.6 113.5 509.8 114.4 510.3 115.2C510.8 116 511.5 116.6 512.4 117C513.6 117.4 514.7 117.6 515.9 117.6ZM515.9 102.5C516.9 102.5 517.8 102.3 518.6 101.9C519.4 101.5 520 100.9 520.5 100.2C521 99.5001 521.2 98.6001 521.2 97.7001C521.2 96.7001 521 95.9001 520.5 95.2001C520.1 94.5001 519.4 93.9001 518.7 93.5001C517.9 93.1001 517 92.9001 516 92.9001C515 92.9001 514 93.1001 513.2 93.5001C512.4 93.9001 511.8 94.5001 511.4 95.2001C511 95.9001 510.7 96.8001 510.8 97.7001C510.8 98.7001 511 99.5001 511.5 100.2C511.9 100.9 512.6 101.5 513.4 101.9C514.2 102.3 514.9 102.5 515.9 102.5Z" fill="#242438"/>
<path d="M544.4 121.8V88.6H550.3V101H550.5C550.8 100.4 551.2 99.7 551.8 99.1C552.4 98.4 553.1 97.8 554 97.3C554.9 96.8 556.1 96.6 557.6 96.6C559.5 96.6 561.3 97.1 562.8 98.1C564.3 99.1 565.6 100.5 566.5 102.4C567.4 104.3 567.9 106.6 567.9 109.4C567.9 112.1 567.5 114.5 566.6 116.4C565.7 118.3 564.5 119.8 562.9 120.8C561.4 121.8 559.6 122.3 557.6 122.3C556.2 122.3 555 122.1 554 121.6C553.1 121.1 552.3 120.5 551.7 119.9C551.1 119.3 550.7 118.6 550.4 118H550.1V121.9H544.4V121.8ZM550.2 109.3C550.2 110.9 550.4 112.3 550.9 113.5C551.4 114.7 552 115.7 552.9 116.3C553.8 117 554.8 117.3 556.1 117.3C557.4 117.3 558.5 117 559.4 116.3C560.3 115.6 560.9 114.6 561.4 113.4C561.8 112.2 562.1 110.8 562.1 109.2C562.1 107.7 561.9 106.3 561.4 105.1C560.9 103.9 560.3 103 559.4 102.3C558.5 101.6 557.4 101.3 556.1 101.3C554.8 101.3 553.8 101.6 552.9 102.3C552 103 551.4 103.9 550.9 105.1C550.4 106.3 550.2 107.7 550.2 109.3Z" fill="#242438"/>
<path d="M575.4 93.3C574.5 93.3 573.7 93 573 92.4C572.3 91.8 572 91 572 90.1C572 89.2 572.3 88.5 573 87.9C573.7 87.3 574.5 87 575.4 87C576.3 87 577.1 87.3 577.8 87.9C578.5 88.5 578.8 89.3 578.8 90.2C578.8 91.1 578.5 91.8 577.8 92.4C577.2 93 576.4 93.3 575.4 93.3ZM572.5 121.8V96.9H578.4V121.8H572.5Z" fill="#242438"/>
<path d="M589.8 88.6V121.8H583.9V88.6H589.8Z" fill="#242438"/>
<path d="M601.2 88.6V121.8H595.3V88.6H601.2Z" fill="#242438"/>
<path d="M609.8 93.3C608.9 93.3 608.1 93 607.4 92.4C606.7 91.8 606.4 91 606.4 90.1C606.4 89.2 606.7 88.5 607.4 87.9C608.1 87.3 608.9 87 609.8 87C610.7 87 611.5 87.3 612.2 87.9C612.9 88.5 613.2 89.3 613.2 90.2C613.2 91.1 612.9 91.8 612.2 92.4C611.5 93 610.7 93.3 609.8 93.3ZM606.8 121.8V96.9H612.7V121.8H606.8Z" fill="#242438"/>
<path d="M629.1 122.3C626.7 122.3 624.6 121.8 622.8 120.7C621 119.6 619.6 118.1 618.7 116.2C617.7 114.3 617.2 112 617.2 109.5C617.2 106.9 617.7 104.7 618.7 102.7C619.7 100.8 621.1 99.3 622.8 98.2C624.6 97.1 626.7 96.6 629.1 96.6C631.5 96.6 633.6 97.1 635.4 98.2C637.2 99.3 638.6 100.8 639.5 102.7C640.5 104.6 641 106.9 641 109.5C641 112.1 640.5 114.3 639.5 116.2C638.5 118.1 637.1 119.6 635.4 120.7C633.7 121.7 631.6 122.3 629.1 122.3ZM629.2 117.6C630.5 117.6 631.6 117.2 632.5 116.5C633.4 115.8 634 114.8 634.5 113.6C634.9 112.4 635.2 111 635.2 109.5C635.2 108 635 106.6 634.5 105.4C634 104.2 633.4 103.2 632.5 102.4C631.6 101.7 630.5 101.3 629.2 101.3C627.8 101.3 626.7 101.7 625.8 102.4C624.9 103.1 624.2 104.1 623.8 105.4C623.4 106.7 623.1 108 623.1 109.5C623.1 111 623.3 112.4 623.8 113.6C624.2 114.8 624.9 115.8 625.8 116.5C626.7 117.2 627.8 117.6 629.2 117.6Z" fill="#242438"/>
<path d="M651.5 107.2V121.8H645.6V96.9H651.2V101.1H651.5C652.1 99.7 653 98.6 654.2 97.8C655.5 97 657 96.6 658.9 96.6C660.6 96.6 662.1 97 663.4 97.7C664.7 98.4 665.7 99.5 666.4 100.9C667.1 102.3 667.5 104 667.4 106V121.9H661.5V106.9C661.5 105.2 661.1 103.9 660.2 103C659.3 102.1 658.2 101.6 656.6 101.6C655.6 101.6 654.7 101.8 653.9 102.3C653.1 102.7 652.5 103.4 652 104.2C651.5 105 651.5 106 651.5 107.2Z" fill="#242438"/>
<path d="M686.8 93.3C685.9 93.3 685.1 93 684.4 92.4C683.7 91.8 683.4 91 683.4 90.1C683.4 89.2 683.7 88.5 684.4 87.9C685.1 87.3 685.9 87 686.8 87C687.7 87 688.5 87.3 689.2 87.9C689.9 88.5 690.2 89.3 690.2 90.2C690.2 91.1 689.9 91.8 689.2 92.4C688.6 93 687.8 93.3 686.8 93.3ZM683.9 121.8V96.9H689.8V121.8H683.9Z" fill="#77809C"/>
<path d="M701.2 107.2V121.8H695.3V96.9H700.9V101.1H701.2C701.8 99.7 702.7 98.6 703.9 97.8C705.2 97 706.7 96.6 708.6 96.6C710.3 96.6 711.8 97 713.1 97.7C714.4 98.4 715.4 99.5 716.1 100.9C716.8 102.3 717.2 104 717.1 106V121.9H711.2V106.9C711.2 105.2 710.8 103.9 709.9 103C709 102.1 707.9 101.6 706.3 101.6C705.3 101.6 704.4 101.8 703.6 102.3C702.8 102.7 702.2 103.4 701.7 104.2C701.2 105 701.2 106 701.2 107.2Z" fill="#77809C"/>
<path d="M733.6 131.1V96.9H739.4V101H739.7C740 100.4 740.4 99.7 741 99.1C741.6 98.4 742.3 97.8 743.2 97.3C744.1 96.8 745.3 96.6 746.8 96.6C748.7 96.6 750.5 97.1 752 98.1C753.5 99.1 754.8 100.5 755.7 102.4C756.6 104.3 757.1 106.6 757.1 109.4C757.1 112.1 756.7 114.5 755.8 116.4C754.9 118.3 753.7 119.8 752.1 120.8C750.5 121.8 748.8 122.3 746.8 122.3C745.4 122.3 744.2 122.1 743.2 121.6C742.3 121.1 741.5 120.5 740.9 119.9C740.3 119.2 739.9 118.6 739.6 118H739.4V131.3H733.6V131.1ZM739.3 109.3C739.3 110.9 739.5 112.3 740 113.5C740.5 114.7 741.1 115.7 742 116.3C742.9 116.9 743.9 117.3 745.2 117.3C746.5 117.3 747.6 117 748.5 116.3C749.4 115.6 750 114.6 750.5 113.4C750.9 112.2 751.2 110.8 751.2 109.2C751.2 107.7 751 106.3 750.5 105.1C750.1 103.9 749.4 103 748.5 102.3C747.6 101.6 746.5 101.3 745.2 101.3C743.9 101.3 742.9 101.6 742 102.3C741.1 103 740.5 103.9 740 105.1C739.6 106.3 739.3 107.7 739.3 109.3Z" fill="#77809C"/>
<path d="M761.7 121.8V96.9H767.4V101.1H767.7C768.2 99.7 768.9 98.6 770 97.8C771.1 97 772.4 96.6 773.8 96.6C774.1 96.6 774.5 96.6 774.9 96.6C775.3 96.6 775.6 96.7 775.9 96.7V102.1C775.7 102 775.3 101.9 774.7 101.9C774.1 101.9 773.6 101.8 773.2 101.8C772.1 101.8 771.2 102 770.3 102.5C769.4 103 768.8 103.6 768.3 104.4C767.8 105.2 767.6 106.1 767.6 107.2V121.8H761.7Z" fill="#77809C"/>
<path d="M790.2 122.3C787.8 122.3 785.7 121.8 783.9 120.7C782.1 119.6 780.7 118.1 779.8 116.2C778.8 114.3 778.3 112 778.3 109.5C778.3 106.9 778.8 104.7 779.8 102.7C780.8 100.8 782.2 99.3 783.9 98.2C785.7 97.1 787.8 96.6 790.2 96.6C792.6 96.6 794.7 97.1 796.5 98.2C798.3 99.3 799.7 100.8 800.6 102.7C801.6 104.6 802.1 106.9 802.1 109.5C802.1 112.1 801.6 114.3 800.6 116.2C799.6 118.1 798.2 119.6 796.5 120.7C794.7 121.7 792.6 122.3 790.2 122.3ZM790.2 117.6C791.5 117.6 792.6 117.2 793.5 116.5C794.4 115.8 795 114.8 795.5 113.6C795.9 112.4 796.2 111 796.2 109.5C796.2 108 796 106.6 795.5 105.4C795 104.2 794.4 103.2 793.5 102.4C792.6 101.7 791.5 101.3 790.2 101.3C788.8 101.3 787.7 101.7 786.8 102.4C785.9 103.1 785.2 104.1 784.8 105.4C784.4 106.7 784.1 108 784.1 109.5C784.1 111 784.3 112.4 784.8 113.6C785.2 114.8 785.9 115.8 786.8 116.5C787.8 117.2 788.9 117.6 790.2 117.6Z" fill="#77809C"/>
<path d="M806.6 96.9H812.5V123.2C812.5 125 812.2 126.5 811.5 127.6C810.8 128.8 809.8 129.6 808.5 130.2C807.2 130.8 805.7 131.1 803.8 131.1C803.6 131.1 803.4 131.1 803.2 131.1C803 131.1 802.8 131.1 802.6 131.1V126.3C802.8 126.3 802.9 126.3 803 126.3C803.1 126.3 803.3 126.3 803.4 126.3C804.5 126.3 805.3 126 805.8 125.5C806.3 125 806.5 124.2 806.5 123.1V96.9H806.6ZM809.6 93.3C808.7 93.3 807.9 93 807.2 92.4C806.5 91.8 806.2 91 806.2 90.2C806.2 89.3 806.5 88.6 807.2 87.9C807.9 87.2 808.7 87 809.6 87C810.5 87 811.3 87.3 812 87.9C812.7 88.5 813 89.3 813 90.2C813 91.1 812.7 91.8 812 92.4C811.3 93 810.5 93.3 809.6 93.3Z" fill="#77809C"/>
<path d="M829.1 122.3C826.6 122.3 824.4 121.8 822.6 120.7C820.8 119.7 819.4 118.2 818.4 116.3C817.4 114.4 816.9 112.1 816.9 109.5C816.9 106.9 817.4 104.7 818.4 102.7C819.4 100.8 820.7 99.2 822.5 98.2C824.3 97.2 826.3 96.6 828.7 96.6C830.2 96.6 831.7 96.8 833.1 97.3C834.5 97.8 835.7 98.6 836.7 99.6C837.8 100.6 838.6 101.9 839.2 103.5C839.8 105.1 840.1 107 840.1 109.2V111H819.7V107H834.5C834.5 105.9 834.2 104.9 833.8 104C833.3 103.1 832.7 102.4 831.8 101.9C831 101.4 830 101.1 828.8 101.1C827.6 101.1 826.5 101.4 825.6 102C824.7 102.6 824 103.3 823.5 104.3C823 105.3 822.7 106.3 822.7 107.4V110.9C822.7 112.3 823 113.6 823.5 114.6C824 115.6 824.8 116.4 825.7 117C826.7 117.5 827.8 117.8 829 117.8C829.9 117.8 830.6 117.7 831.3 117.4C832 117.2 832.6 116.8 833.1 116.3C833.6 115.8 834 115.2 834.3 114.5L839.8 115.1C839.5 116.5 838.8 117.8 837.8 118.9C836.8 120 835.6 120.8 834.1 121.4C832.8 122 831.1 122.3 829.1 122.3Z" fill="#77809C"/>
<path d="M855.6 122.3C853.1 122.3 851 121.8 849.2 120.7C847.4 119.6 846.1 118.1 845.1 116.2C844.1 114.3 843.7 112 843.7 109.5C843.7 107 844.2 104.7 845.2 102.8C846.2 100.9 847.5 99.3001 849.3 98.3001C851.1 97.3001 853.2 96.7001 855.6 96.7001C857.6 96.7001 859.4 97.1001 861 97.8001C862.6 98.5001 863.8 99.6001 864.7 100.9C865.6 102.2 866.2 103.8 866.3 105.6H860.7C860.5 104.4 859.9 103.4 859.1 102.6C858.3 101.8 857.1 101.4 855.7 101.4C854.5 101.4 853.4 101.7 852.5 102.4C851.6 103 850.9 104 850.4 105.2C849.9 106.4 849.6 107.8 849.6 109.5C849.6 111.2 849.8 112.7 850.3 113.9C850.8 115.1 851.5 116.1 852.4 116.7C853.3 117.3 854.4 117.7 855.6 117.7C856.5 117.7 857.2 117.5 857.9 117.2C858.6 116.9 859.2 116.4 859.6 115.8C860.1 115.2 860.4 114.4 860.6 113.5H866.2C866.1 115.3 865.5 116.8 864.6 118.2C863.7 119.6 862.5 120.6 860.9 121.4C859.5 121.9 857.7 122.3 855.6 122.3Z" fill="#77809C"/>
<path d="M883.1 96.9V101.4H868.8V96.9H883.1ZM872.3 90.9H878.2V114.3C878.2 115.1 878.3 115.7 878.6 116.1C878.8 116.5 879.2 116.8 879.6 117C880 117.2 880.4 117.2 880.9 117.2C881.3 117.2 881.6 117.2 881.9 117.1C882.2 117 882.4 117 882.6 117L883.6 121.6C883.3 121.7 882.8 121.8 882.3 122C881.7 122.1 881 122.2 880.2 122.2C878.7 122.2 877.4 122 876.2 121.5C875 121 874.1 120.2 873.4 119.2C872.7 118.2 872.4 116.9 872.4 115.3V90.9H872.3Z" fill="#77809C"/>
<path d="M911 96.9V101.4H896.3V96.9H911ZM900 121.8V94.5C900 92.8 900.3 91.4 901 90.3C901.7 89.2 902.6 88.4 903.8 87.8C905 87.2 906.3 87 907.7 87C908.7 87 909.6 87.1 910.4 87.2C911.2 87.4 911.8 87.5 912.2 87.6L911 92.1C910.8 92 910.4 91.9 910.1 91.9C909.8 91.9 909.3 91.8 908.8 91.8C907.7 91.8 906.9 92.1 906.5 92.6C906.1 93.1 905.8 93.9 905.8 94.8V121.7H900V121.8Z" fill="#77809C"/>
<path d="M918.1 93.3C917.2 93.3 916.4 93 915.7 92.4C915 91.8 914.7 91 914.7 90.1C914.7 89.2 915 88.5 915.7 87.9C916.4 87.3 917.2 87 918.1 87C919 87 919.8 87.3 920.5 87.9C921.2 88.5 921.5 89.3 921.5 90.2C921.5 91.1 921.2 91.8 920.5 92.4C919.9 93 919.1 93.3 918.1 93.3ZM915.2 121.8V96.9H921.1V121.8H915.2Z" fill="#77809C"/>
<path d="M932.5 107.2V121.8H926.6V96.9H932.2V101.1H932.5C933.1 99.7 934 98.6 935.2 97.8C936.5 97 938 96.6 939.9 96.6C941.6 96.6 943.1 97 944.4 97.7C945.7 98.4 946.7 99.5 947.4 100.9C948.1 102.3 948.5 104 948.4 106V121.9H942.5V106.9C942.5 105.2 942.1 103.9 941.2 103C940.3 102.1 939.2 101.6 937.6 101.6C936.6 101.6 935.7 101.8 934.9 102.3C934.1 102.7 933.5 103.4 933 104.2C932.5 105 932.5 106 932.5 107.2Z" fill="#77809C"/>
<path d="M961.2 122.3C959.6 122.3 958.2 122 956.9 121.4C955.6 120.8 954.6 120 953.9 118.9C953.2 117.8 952.8 116.4 952.8 114.8C952.8 113.4 953.1 112.2 953.6 111.3C954.1 110.4 954.8 109.6 955.7 109.1C956.6 108.5 957.6 108.1 958.7 107.8C959.8 107.5 961 107.3 962.2 107.2C963.7 107 964.8 106.9 965.8 106.8C966.8 106.7 967.4 106.5 967.8 106.2C968.2 105.9 968.4 105.5 968.4 105V104.9C968.4 103.7 968 102.7 967.3 102.1C966.6 101.4 965.5 101.1 964.2 101.1C962.8 101.1 961.6 101.4 960.8 102C960 102.6 959.4 103.4 959.1 104.2L953.6 103.4C954 101.9 954.7 100.6 955.7 99.6C956.7 98.6 957.9 97.8 959.3 97.3C960.7 96.8 962.3 96.5 964.1 96.5C965.3 96.5 966.5 96.6 967.7 96.9C968.9 97.2 970 97.6 971 98.3C972 98.9 972.8 99.8 973.4 100.9C974 102 974.3 103.4 974.3 105V121.7H968.7V118.3H968.5C968.1 119 967.6 119.6 967 120.2C966.4 120.8 965.6 121.3 964.6 121.6C963.6 122.1 962.5 122.3 961.2 122.3ZM962.7 118C963.9 118 964.9 117.8 965.8 117.3C966.7 116.8 967.3 116.2 967.8 115.4C968.3 114.6 968.5 113.8 968.5 112.9V110C968.3 110.2 968 110.3 967.6 110.4C967.2 110.5 966.7 110.6 966.1 110.7C965.6 110.8 965 110.9 964.5 111C964 111.1 963.5 111.1 963.1 111.2C962.2 111.3 961.4 111.5 960.7 111.8C960 112.1 959.5 112.4 959.1 112.9C958.7 113.4 958.5 114 958.5 114.8C958.5 115.9 958.9 116.7 959.7 117.2C960.5 117.7 961.5 118 962.7 118Z" fill="#77809C"/>
<path d="M985.7 107.2V121.8H979.8V96.9H985.4V101.1H985.7C986.3 99.7 987.2 98.6 988.4 97.8C989.7 97 991.2 96.6 993.1 96.6C994.8 96.6 996.3 97 997.6 97.7C998.9 98.4 999.9 99.5 1000.6 100.9C1001.3 102.3 1001.7 104 1001.6 106V121.9H995.7V106.9C995.7 105.2 995.3 103.9 994.4 103C993.5 102.1 992.4 101.6 990.8 101.6C989.8 101.6 988.9 101.8 988.1 102.3C987.3 102.7 986.7 103.4 986.2 104.2C985.9 105 985.7 106 985.7 107.2Z" fill="#77809C"/>
<path d="M1018.1 122.3C1015.6 122.3 1013.5 121.8 1011.7 120.7C1009.9 119.6 1008.6 118.1 1007.6 116.2C1006.6 114.3 1006.2 112 1006.2 109.5C1006.2 107 1006.7 104.7 1007.7 102.8C1008.7 100.9 1010 99.3001 1011.8 98.3001C1013.6 97.2001 1015.7 96.7001 1018.1 96.7001C1020.1 96.7001 1021.9 97.1001 1023.5 97.8001C1025.1 98.5001 1026.3 99.6001 1027.2 100.9C1028.1 102.2 1028.7 103.8 1028.8 105.6H1023.2C1023 104.4 1022.4 103.4 1021.6 102.6C1020.8 101.8 1019.6 101.4 1018.2 101.4C1017 101.4 1015.9 101.7 1015 102.4C1014.1 103 1013.4 104 1012.9 105.2C1012.4 106.4 1012.1 107.8 1012.1 109.5C1012.1 111.2 1012.3 112.7 1012.8 113.9C1013.3 115.1 1014 116.1 1014.9 116.7C1015.8 117.4 1016.9 117.7 1018.1 117.7C1019 117.7 1019.7 117.5 1020.4 117.2C1021.1 116.9 1021.7 116.4 1022.1 115.8C1022.6 115.2 1022.9 114.4 1023.1 113.5H1028.7C1028.6 115.3 1028 116.8 1027.1 118.2C1026.2 119.6 1025 120.6 1023.4 121.4C1022 121.9 1020.2 122.3 1018.1 122.3Z" fill="#77809C"/>
<path d="M1044.2 122.3C1041.7 122.3 1039.5 121.8 1037.7 120.7C1035.9 119.7 1034.5 118.2 1033.5 116.3C1032.5 114.4 1032 112.1 1032 109.5C1032 106.9 1032.5 104.7 1033.5 102.7C1034.5 100.8 1035.8 99.2 1037.6 98.2C1039.4 97.2 1041.4 96.6 1043.8 96.6C1045.3 96.6 1046.8 96.8 1048.2 97.3C1049.6 97.8 1050.8 98.6 1051.8 99.6C1052.9 100.6 1053.7 101.9 1054.3 103.5C1054.9 105.1 1055.2 107 1055.2 109.2V111H1034.8V107H1049.6C1049.6 105.9 1049.3 104.9 1048.9 104C1048.4 103.1 1047.8 102.4 1046.9 101.9C1046.1 101.4 1045.1 101.1 1043.9 101.1C1042.7 101.1 1041.6 101.4 1040.7 102C1039.8 102.6 1039.1 103.3 1038.6 104.3C1038.1 105.3 1037.8 106.3 1037.8 107.4V110.9C1037.8 112.3 1038.1 113.6 1038.6 114.6C1039.1 115.6 1039.9 116.4 1040.8 117C1041.8 117.5 1042.9 117.8 1044.1 117.8C1045 117.8 1045.7 117.7 1046.4 117.4C1047.1 117.2 1047.7 116.8 1048.2 116.3C1048.7 115.8 1049.1 115.2 1049.4 114.5L1054.9 115.1C1054.6 116.5 1053.9 117.8 1052.9 118.9C1051.9 120 1050.7 120.8 1049.2 121.4C1047.7 122 1046.1 122.3 1044.2 122.3Z" fill="#77809C"/>
<path d="M70.5 151.7V156.2H55.8V151.7H70.5ZM59.5 176.6V149.3C59.5 147.6 59.8 146.2 60.5 145.1C61.2 144 62.1 143.2 63.3 142.6C64.5 142 65.8 141.8 67.2 141.8C68.2 141.8 69.1001 141.9 69.9001 142C70.7001 142.2 71.3 142.3 71.7 142.4L70.5 146.9C70.3 146.8 69.9 146.7 69.6 146.7C69.3 146.7 68.8001 146.6 68.3001 146.6C67.2001 146.6 66.4 146.9 66 147.4C65.6 147.9 65.3001 148.7 65.3001 149.6V176.5H59.5V176.6Z" fill="#77809C"/>
<path d="M85.6 177.1C83.2 177.1 81.1 176.6 79.3 175.5C77.5 174.4 76.1 172.9 75.2 171C74.2 169.1 73.7 166.8 73.7 164.3C73.7 161.7 74.2 159.5 75.2 157.5C76.2 155.6 77.6 154.1 79.3 153C81.1 151.9 83.2 151.4 85.6 151.4C88 151.4 90.1 151.9 91.9 153C93.7 154.1 95.1 155.6 96 157.5C97 159.4 97.5 161.7 97.5 164.3C97.5 166.9 97 169.1 96 171C95 172.9 93.6 174.4 91.9 175.5C90.1 176.6 88 177.1 85.6 177.1ZM85.6 172.4C86.9 172.4 88 172 88.9 171.3C89.8 170.6 90.4 169.6 90.9 168.4C91.3 167.2 91.6 165.8 91.6 164.3C91.6 162.8 91.4 161.4 90.9 160.2C90.4 159 89.8 158 88.9 157.2C88 156.5 86.9 156.1 85.6 156.1C84.2 156.1 83.1 156.5 82.2 157.2C81.3 157.9 80.6 158.9 80.2 160.2C79.8 161.5 79.5 162.8 79.5 164.3C79.5 165.8 79.7 167.2 80.2 168.4C80.6 169.6 81.3 170.6 82.2 171.3C83.1 172 84.2 172.4 85.6 172.4Z" fill="#77809C"/>
<path d="M102 176.6V151.7H107.7V155.9H108C108.5 154.5 109.2 153.4 110.3 152.6C111.4 151.8 112.7 151.4 114.1 151.4C114.4 151.4 114.8 151.4 115.2 151.4C115.6 151.4 115.9 151.5 116.2 151.5V156.9C116 156.8 115.6 156.7 115 156.7C114.4 156.7 113.9 156.6 113.5 156.6C112.4 156.6 111.5 156.8 110.6 157.3C109.7 157.8 109.1 158.4 108.6 159.2C108.1 160 107.9 160.9 107.9 162V176.6H102Z" fill="#77809C"/>
<path d="M135.7 176.6L128.7 151.7H134.7L139.1 169.2H139.3L143.8 151.7H149.7L154.2 169.1H154.4L158.7 151.7H164.7L157.6 176.6H151.5L146.8 159.8H146.5L141.8 176.6H135.7Z" fill="#77809C"/>
<path d="M171.3 148.1C170.4 148.1 169.6 147.8 168.9 147.2C168.2 146.6 167.9 145.8 167.9 144.9C167.9 144 168.2 143.3 168.9 142.7C169.6 142.1 170.4 141.8 171.3 141.8C172.2 141.8 173 142.1 173.7 142.7C174.4 143.3 174.7 144.1 174.7 145C174.7 145.9 174.4 146.6 173.7 147.2C173 147.8 172.2 148.1 171.3 148.1ZM168.3 176.6V151.7H174.2V176.6H168.3Z" fill="#77809C"/>
<path d="M185.7 162V176.6H179.8V151.7H185.4V155.9H185.7C186.3 154.5 187.2 153.4 188.4 152.6C189.7 151.8 191.2 151.4 193.1 151.4C194.8 151.4 196.3 151.8 197.6 152.5C198.9 153.2 199.9 154.3 200.6 155.7C201.3 157.1 201.7 158.8 201.6 160.8V176.7H195.7V161.7C195.7 160 195.3 158.7 194.4 157.8C193.5 156.9 192.4 156.4 190.8 156.4C189.8 156.4 188.9 156.6 188.1 157.1C187.3 157.5 186.7 158.2 186.2 159C185.7 159.8 185.7 160.8 185.7 162Z" fill="#77809C"/>
<path d="M216.4 177C214.4 177 212.7 176.5 211.1 175.5C209.6 174.5 208.3 173 207.4 171.1C206.5 169.2 206.1 166.9 206.1 164.1C206.1 161.3 206.6 159 207.5 157.1C208.4 155.2 209.6 153.7 211.2 152.8C212.8 151.8 214.5 151.3 216.4 151.3C217.9 151.3 219.1 151.5 220 152C220.9 152.5 221.7 153.1 222.2 153.8C222.8 154.5 223.2 155.1 223.5 155.7H223.7V143.3H229.6V176.5H223.8V172.6H223.4C223.1 173.2 222.7 173.8 222.1 174.5C221.5 175.2 220.8 175.8 219.8 176.2C219 176.8 217.9 177 216.4 177ZM218.1 172.2C219.3 172.2 220.4 171.9 221.3 171.2C222.2 170.5 222.8 169.6 223.3 168.4C223.8 167.2 224 165.8 224 164.2C224 162.6 223.8 161.2 223.3 160C222.8 158.8 222.2 157.9 221.3 157.2C220.4 156.5 219.4 156.2 218.1 156.2C216.8 156.2 215.7 156.5 214.8 157.2C213.9 157.9 213.3 158.8 212.8 160C212.3 161.2 212.1 162.6 212.1 164.1C212.1 165.7 212.3 167 212.8 168.3C213.2 169.5 213.9 170.5 214.8 171.2C215.7 171.9 216.8 172.2 218.1 172.2Z" fill="#77809C"/>
<path d="M253.6 177.1C252 177.1 250.6 176.8 249.3 176.2C248 175.6 247 174.8 246.3 173.7C245.6 172.6 245.2 171.2 245.2 169.6C245.2 168.2 245.5 167 246 166.1C246.5 165.2 247.2 164.4 248.1 163.9C249 163.3 250 162.9 251.1 162.6C252.2 162.3 253.4 162.1 254.6 162C256.1 161.8 257.2 161.7 258.2 161.6C259.2 161.5 259.8 161.3 260.2 161C260.6 160.7 260.8 160.3 260.8 159.8V159.7C260.8 158.5 260.4 157.5 259.7 156.9C259 156.2 257.9 155.9 256.6 155.9C255.2 155.9 254 156.2 253.2 156.8C252.4 157.4 251.8 158.2 251.5 159L246 158.2C246.4 156.7 247.1 155.4 248.1 154.4C249.1 153.4 250.3 152.6 251.7 152.1C253.1 151.6 254.7 151.3 256.5 151.3C257.7 151.3 258.9 151.4 260.1 151.7C261.3 152 262.4 152.4 263.4 153.1C264.4 153.8 265.2 154.6 265.8 155.7C266.4 156.8 266.7 158.2 266.7 159.8V176.5H261.1V173.1H260.9C260.5 173.8 260 174.4 259.4 175C258.8 175.6 258 176.1 257 176.4C256 176.9 254.9 177.1 253.6 177.1ZM255.1 172.8C256.3 172.8 257.3 172.6 258.2 172.1C259.1 171.6 259.7 171 260.2 170.2C260.7 169.4 260.9 168.6 260.9 167.7V164.8C260.7 165 260.4 165.1 260 165.2C259.6 165.3 259.1 165.4 258.5 165.5C258 165.6 257.4 165.7 256.9 165.8C256.4 165.9 255.9 165.9 255.5 166C254.6 166.1 253.8 166.3 253.1 166.6C252.4 166.9 251.9 167.2 251.5 167.7C251.1 168.2 250.9 168.8 250.9 169.6C250.9 170.7 251.3 171.5 252.1 172C252.9 172.5 253.9 172.8 255.1 172.8Z" fill="#77809C"/>
<path d="M278.1 162V176.6H272.2V151.7H277.8V155.9H278.1C278.7 154.5 279.6 153.4 280.8 152.6C282.1 151.8 283.6 151.4 285.5 151.4C287.2 151.4 288.7 151.8 290 152.5C291.3 153.2 292.3 154.3 293 155.7C293.7 157.1 294.1 158.8 294 160.8V176.7H288.1V161.7C288.1 160 287.7 158.7 286.8 157.8C285.9 156.9 284.8 156.4 283.2 156.4C282.2 156.4 281.3 156.6 280.5 157.1C279.7 157.5 279.1 158.2 278.6 159C278.1 159.8 278.1 160.8 278.1 162Z" fill="#77809C"/>
<path d="M308.8 177C306.8 177 305.1 176.5 303.5 175.5C302 174.5 300.7 173 299.8 171.1C298.9 169.2 298.5 166.9 298.5 164.1C298.5 161.3 299 159 299.9 157.1C300.8 155.2 302 153.7 303.6 152.8C305.2 151.8 306.9 151.3 308.8 151.3C310.3 151.3 311.5 151.5 312.4 152C313.3 152.5 314.1 153.1 314.6 153.8C315.2 154.5 315.6 155.1 315.9 155.7H316.1V143.3H322V176.5H316.2V172.6H316C315.7 173.2 315.3 173.8 314.7 174.5C314.1 175.2 313.4 175.8 312.4 176.2C311.4 176.8 310.3 177 308.8 177ZM310.5 172.2C311.7 172.2 312.8 171.9 313.7 171.2C314.6 170.5 315.2 169.6 315.7 168.4C316.2 167.2 316.4 165.8 316.4 164.2C316.4 162.6 316.2 161.2 315.7 160C315.2 158.8 314.6 157.9 313.7 157.2C312.8 156.5 311.8 156.2 310.5 156.2C309.2 156.2 308.1 156.5 307.2 157.2C306.3 157.9 305.7 158.8 305.2 160C304.7 161.2 304.5 162.6 304.5 164.1C304.5 165.7 304.7 167 305.2 168.3C305.6 169.5 306.3 170.5 307.2 171.2C308.1 171.9 309.2 172.2 310.5 172.2Z" fill="#77809C"/>
<path d="M358.5 158.3L353.1 158.9C352.9 158.4 352.7 157.9 352.3 157.4C351.9 156.9 351.4 156.5 350.8 156.2C350.2 155.9 349.4 155.8 348.5 155.8C347.3 155.8 346.3 156.1 345.4 156.6C344.6 157.1 344.2 157.8 344.2 158.7C344.2 159.4 344.5 160 345 160.5C345.5 161 346.5 161.3 347.7 161.6L351.9 162.5C354.3 163 356 163.8 357.2 164.9C358.4 166 358.9 167.4 358.9 169.2C358.9 170.8 358.4 172.2 357.5 173.3C356.6 174.5 355.3 175.4 353.7 176.1C352.1 176.8 350.3 177.1 348.2 177.1C345.2 177.1 342.7 176.5 340.8 175.2C338.9 173.9 337.8 172.1 337.5 169.8L343.2 169.2C343.5 170.3 344 171.2 344.9 171.7C345.8 172.2 346.8 172.6 348.2 172.6C349.6 172.6 350.7 172.3 351.6 171.7C352.4 171.1 352.9 170.4 352.9 169.6C352.9 168.9 352.6 168.3 352.1 167.8C351.6 167.3 350.7 167 349.6 166.7L345.3 165.8C342.9 165.3 341.1 164.5 340 163.3C338.9 162.1 338.3 160.6 338.3 158.8C338.3 157.3 338.7 155.9 339.6 154.8C340.5 153.7 341.6 152.8 343.2 152.2C344.7 151.6 346.5 151.3 348.5 151.3C351.4 151.3 353.7 151.9 355.4 153.2C357.1 154.5 358.1 156.1 358.5 158.3Z" fill="#77809C"/>
<path d="M374.3 177.1C371.9 177.1 369.8 176.6 368 175.5C366.2 174.4 364.8 172.9 363.9 171C362.9 169.1 362.4 166.8 362.4 164.3C362.4 161.7 362.9 159.5 363.9 157.5C364.9 155.6 366.3 154.1 368 153C369.8 151.9 371.9 151.4 374.3 151.4C376.7 151.4 378.8 151.9 380.6 153C382.4 154.1 383.8 155.6 384.7 157.5C385.7 159.4 386.2 161.7 386.2 164.3C386.2 166.9 385.7 169.1 384.7 171C383.7 172.9 382.3 174.4 380.6 175.5C378.8 176.6 376.7 177.1 374.3 177.1ZM374.3 172.4C375.6 172.4 376.7 172 377.6 171.3C378.5 170.6 379.1 169.6 379.6 168.4C380 167.2 380.3 165.8 380.3 164.3C380.3 162.8 380.1 161.4 379.6 160.2C379.1 159 378.5 158 377.6 157.2C376.7 156.5 375.6 156.1 374.3 156.1C372.9 156.1 371.8 156.5 370.9 157.2C370 157.9 369.3 158.9 368.9 160.2C368.5 161.5 368.2 162.8 368.2 164.3C368.2 165.8 368.4 167.2 368.9 168.4C369.3 169.6 370 170.6 370.9 171.3C371.8 172 373 172.4 374.3 172.4Z" fill="#77809C"/>
<path d="M396.6 143.4V176.6H390.7V143.4H396.6Z" fill="#77809C"/>
<path d="M409.4 177.1C407.8 177.1 406.4 176.8 405.1 176.2C403.8 175.6 402.8 174.8 402.1 173.7C401.4 172.6 401 171.2 401 169.6C401 168.2 401.3 167 401.8 166.1C402.3 165.2 403 164.4 403.9 163.9C404.8 163.3 405.8 162.9 406.9 162.6C408 162.3 409.2 162.1 410.4 162C411.9 161.8 413 161.7 414 161.6C415 161.5 415.6 161.3 416 161C416.4 160.7 416.6 160.3 416.6 159.8V159.7C416.6 158.5 416.2 157.5 415.5 156.9C414.8 156.2 413.7 155.9 412.4 155.9C411 155.9 409.8 156.2 409 156.8C408.2 157.4 407.6 158.2 407.3 159L401.8 158.2C402.2 156.7 402.9 155.4 403.9 154.4C404.9 153.4 406.1 152.6 407.5 152.1C408.9 151.6 410.5 151.3 412.3 151.3C413.5 151.3 414.7 151.4 415.9 151.7C417.1 152 418.2 152.4 419.2 153.1C420.2 153.8 421 154.6 421.6 155.7C422.2 156.8 422.5 158.2 422.5 159.8V176.5H416.9V173.1H416.7C416.3 173.8 415.8 174.4 415.2 175C414.6 175.6 413.8 176.1 412.8 176.4C411.8 176.9 410.7 177.1 409.4 177.1ZM410.9 172.8C412.1 172.8 413.1 172.6 414 172.1C414.9 171.6 415.5 171 416 170.2C416.5 169.4 416.7 168.6 416.7 167.7V164.8C416.5 165 416.2 165.1 415.8 165.2C415.4 165.3 414.9 165.4 414.3 165.5C413.8 165.6 413.2 165.7 412.7 165.8C412.2 165.9 411.7 165.9 411.3 166C410.4 166.1 409.6 166.3 408.9 166.6C408.2 166.9 407.7 167.2 407.3 167.7C406.9 168.2 406.7 168.8 406.7 169.6C406.7 170.7 407.1 171.5 407.9 172C408.6 172.5 409.7 172.8 410.9 172.8Z" fill="#77809C"/>
<path d="M428 176.6V151.7H433.7V155.9H434C434.5 154.5 435.2 153.4 436.3 152.6C437.4 151.8 438.7 151.4 440.1 151.4C440.4 151.4 440.8 151.4 441.2 151.4C441.6 151.4 441.9 151.5 442.2 151.5V156.9C442 156.8 441.6 156.7 441 156.7C440.4 156.7 439.9 156.6 439.5 156.6C438.4 156.6 437.5 156.8 436.6 157.3C435.7 157.8 435.1 158.4 434.6 159.2C434.1 160 433.9 160.9 433.9 162V176.6H428Z" fill="#77809C"/>
<path d="M456.5 185.9V151.6H462.3V155.7H462.6C462.9 155.1 463.3 154.4 463.9 153.8C464.5 153.1 465.2 152.5 466.1 152C467 151.5 468.2 151.3 469.7 151.3C471.6 151.3 473.4 151.8 474.9 152.8C476.4 153.8 477.7 155.2 478.6 157.1C479.5 159 480 161.3 480 164.1C480 166.8 479.6 169.2 478.7 171.1C477.8 173 476.6 174.5 475 175.5C473.4 176.5 471.7 177 469.7 177C468.3 177 467.1 176.8 466.1 176.3C465.2 175.8 464.4 175.2 463.8 174.6C463.2 173.9 462.8 173.3 462.5 172.7H462.3V186H456.5V185.9ZM462.3 164.1C462.3 165.7 462.5 167.1 463 168.3C463.5 169.5 464.1 170.5 465 171.1C465.9 171.7 466.9 172.1 468.2 172.1C469.5 172.1 470.6 171.8 471.5 171.1C472.4 170.4 473 169.4 473.5 168.2C473.9 167 474.2 165.6 474.2 164C474.2 162.5 474 161.1 473.5 159.9C473.1 158.7 472.4 157.8 471.5 157.1C470.6 156.4 469.5 156.1 468.2 156.1C466.9 156.1 465.9 156.4 465 157.1C464.1 157.8 463.5 158.7 463 159.9C462.5 161.1 462.3 162.5 462.3 164.1Z" fill="#77809C"/>
<path d="M495.5 177.1C493.1 177.1 491 176.6 489.2 175.5C487.4 174.4 486 172.9 485.1 171C484.1 169.1 483.6 166.8 483.6 164.3C483.6 161.7 484.1 159.5 485.1 157.5C486.1 155.6 487.5 154.1 489.2 153C491 151.9 493.1 151.4 495.5 151.4C497.9 151.4 500 151.9 501.8 153C503.6 154.1 505 155.6 505.9 157.5C506.9 159.4 507.4 161.7 507.4 164.3C507.4 166.9 506.9 169.1 505.9 171C504.9 172.9 503.5 174.4 501.8 175.5C500 176.6 497.9 177.1 495.5 177.1ZM495.5 172.4C496.8 172.4 497.9 172 498.8 171.3C499.7 170.6 500.3 169.6 500.8 168.4C501.2 167.2 501.5 165.8 501.5 164.3C501.5 162.8 501.3 161.4 500.8 160.2C500.3 159 499.7 158 498.8 157.2C497.9 156.5 496.8 156.1 495.5 156.1C494.1 156.1 493 156.5 492.1 157.2C491.2 157.9 490.5 158.9 490.1 160.2C489.7 161.5 489.4 162.8 489.4 164.3C489.4 165.8 489.6 167.2 490.1 168.4C490.5 169.6 491.2 170.6 492.1 171.3C493 172 494.1 172.4 495.5 172.4Z" fill="#77809C"/>
<path d="M517 176.6L510 151.7H516L520.4 169.2H520.6L525.1 151.7H531L535.5 169.1H535.7L540 151.7H546L538.9 176.6H532.8L528.1 159.8H527.8L523.1 176.6H517Z" fill="#77809C"/>
<path d="M560.7 177.1C558.2 177.1 556 176.6 554.2 175.5C552.4 174.5 551 173 550 171.1C549 169.2 548.5 166.9 548.5 164.3C548.5 161.7 549 159.5 550 157.5C551 155.6 552.3 154 554.1 153C555.9 152 557.9 151.4 560.3 151.4C561.8 151.4 563.3 151.6 564.7 152.1C566.1 152.6 567.3 153.4 568.3 154.4C569.4 155.4 570.2 156.7 570.8 158.3C571.4 159.9 571.7 161.8 571.7 164V165.8H551.3V161.8H566.1C566.1 160.7 565.8 159.7 565.4 158.8C564.9 157.9 564.3 157.2 563.4 156.7C562.6 156.2 561.6 155.9 560.4 155.9C559.2 155.9 558.1 156.2 557.2 156.8C556.3 157.4 555.6 158.1 555.1 159.1C554.6 160.1 554.3 161.1 554.3 162.2V165.7C554.3 167.1 554.6 168.4 555.1 169.4C555.6 170.4 556.4 171.2 557.3 171.8C558.3 172.3 559.4 172.6 560.6 172.6C561.5 172.6 562.2 172.5 562.9 172.2C563.6 172 564.2 171.6 564.7 171.1C565.2 170.6 565.6 170 565.9 169.3L571.4 169.9C571.1 171.3 570.4 172.6 569.4 173.7C568.4 174.8 567.2 175.6 565.7 176.2C564.4 176.8 562.7 177.1 560.7 177.1Z" fill="#77809C"/>
<path d="M576.3 176.6V151.7H582V155.9H582.3C582.8 154.5 583.5 153.4 584.6 152.6C585.7 151.8 587 151.4 588.4 151.4C588.7 151.4 589.1 151.4 589.5 151.4C589.9 151.4 590.2 151.5 590.5 151.5V156.9C590.3 156.8 589.9 156.7 589.3 156.7C588.7 156.7 588.2 156.6 587.8 156.6C586.7 156.6 585.8 156.8 584.9 157.3C584 157.8 583.4 158.4 582.9 159.2C582.4 160 582.2 160.9 582.2 162V176.6H576.3Z" fill="#77809C"/>
<path d="M604.9 185.9V151.6H610.7V155.7H611C611.3 155.1 611.7 154.4 612.3 153.8C612.9 153.1 613.6 152.5 614.5 152C615.4 151.5 616.6 151.3 618.1 151.3C620 151.3 621.8 151.8 623.3 152.8C624.8 153.8 626.1 155.2 627 157.1C627.9 159 628.4 161.3 628.4 164.1C628.4 166.8 628 169.2 627.1 171.1C626.2 173 625 174.5 623.4 175.5C621.8 176.5 620.1 177 618.1 177C616.7 177 615.5 176.8 614.5 176.3C613.6 175.8 612.8 175.2 612.2 174.6C611.6 173.9 611.2 173.3 610.9 172.7H610.7V186H604.9V185.9ZM610.6 164.1C610.6 165.7 610.8 167.1 611.3 168.3C611.8 169.5 612.4 170.5 613.3 171.1C614.2 171.7 615.2 172.1 616.5 172.1C617.8 172.1 618.9 171.8 619.8 171.1C620.7 170.4 621.3 169.4 621.8 168.2C622.2 167 622.5 165.6 622.5 164C622.5 162.5 622.3 161.1 621.8 159.9C621.4 158.7 620.7 157.8 619.8 157.1C618.9 156.4 617.8 156.1 616.5 156.1C615.2 156.1 614.2 156.4 613.3 157.1C612.4 157.8 611.8 158.7 611.3 159.9C610.8 161.1 610.6 162.5 610.6 164.1Z" fill="#77809C"/>
<path d="M632.9 176.6V151.7H638.6V155.9H638.9C639.4 154.5 640.1 153.4 641.2 152.6C642.3 151.8 643.6 151.4 645 151.4C645.3 151.4 645.7 151.4 646.1 151.4C646.5 151.4 646.8 151.5 647.1 151.5V156.9C646.9 156.8 646.5 156.7 645.9 156.7C645.3 156.7 644.8 156.6 644.4 156.6C643.3 156.6 642.4 156.8 641.5 157.3C640.6 157.8 640 158.4 639.5 159.2C639 160 638.8 160.9 638.8 162V176.6H632.9Z" fill="#77809C"/>
<path d="M661.5 177.1C659.1 177.1 657 176.6 655.2 175.5C653.4 174.4 652 172.9 651.1 171C650.1 169.1 649.6 166.8 649.6 164.3C649.6 161.7 650.1 159.5 651.1 157.5C652.1 155.6 653.5 154.1 655.2 153C657 151.9 659.1 151.4 661.5 151.4C663.9 151.4 666 151.9 667.8 153C669.6 154.1 671 155.6 671.9 157.5C672.9 159.4 673.4 161.7 673.4 164.3C673.4 166.9 672.9 169.1 671.9 171C670.9 172.9 669.5 174.4 667.8 175.5C666 176.6 663.9 177.1 661.5 177.1ZM661.5 172.4C662.8 172.4 663.9 172 664.8 171.3C665.7 170.6 666.3 169.6 666.8 168.4C667.2 167.2 667.5 165.8 667.5 164.3C667.5 162.8 667.3 161.4 666.8 160.2C666.3 159 665.7 158 664.8 157.2C663.9 156.5 662.8 156.1 661.5 156.1C660.1 156.1 659 156.5 658.1 157.2C657.2 157.9 656.5 158.9 656.1 160.2C655.7 161.5 655.4 162.8 655.4 164.3C655.4 165.8 655.6 167.2 656.1 168.4C656.5 169.6 657.2 170.6 658.1 171.3C659 172 660.1 172.4 661.5 172.4Z" fill="#77809C"/>
<path d="M677.9 151.7H683.8V178C683.8 179.8 683.5 181.3 682.8 182.4C682.1 183.6 681.1 184.4 679.8 185C678.5 185.6 677 185.9 675.1 185.9C674.9 185.9 674.7 185.9 674.5 185.9C674.3 185.9 674.1 185.9 673.9 185.9V181.1C674.1 181.1 674.2 181.1 674.3 181.1C674.4 181.1 674.6 181.1 674.7 181.1C675.8 181.1 676.6 180.8 677.1 180.3C677.6 179.8 677.8 179 677.8 177.9V151.7H677.9ZM680.8 148.1C679.9 148.1 679.1 147.8 678.4 147.2C677.7 146.6 677.4 145.8 677.4 145C677.4 144.1 677.7 143.4 678.4 142.7C679.1 142 679.9 141.8 680.8 141.8C681.7 141.8 682.5 142.1 683.2 142.7C683.9 143.3 684.2 144.1 684.2 145C684.2 145.9 683.9 146.6 683.2 147.2C682.6 147.8 681.8 148.1 680.8 148.1Z" fill="#77809C"/>
<path d="M700.4 177.1C697.9 177.1 695.7 176.6 693.9 175.5C692.1 174.5 690.7 173 689.7 171.1C688.7 169.2 688.2 166.9 688.2 164.3C688.2 161.7 688.7 159.5 689.7 157.5C690.7 155.6 692 154 693.8 153C695.6 152 697.6 151.4 700 151.4C701.5 151.4 703 151.6 704.4 152.1C705.8 152.6 707 153.4 708 154.4C709.1 155.4 709.9 156.7 710.5 158.3C711.1 159.9 711.4 161.8 711.4 164V165.8H691V161.8H705.8C705.8 160.7 705.5 159.7 705.1 158.8C704.6 157.9 704 157.2 703.1 156.7C702.3 156.2 701.3 155.9 700.1 155.9C698.9 155.9 697.8 156.2 696.9 156.8C696 157.4 695.3 158.1 694.8 159.1C694.3 160.1 694 161.1 694 162.2V165.7C694 167.1 694.3 168.4 694.8 169.4C695.3 170.4 696.1 171.2 697 171.8C698 172.3 699.1 172.6 700.3 172.6C701.2 172.6 701.9 172.5 702.6 172.2C703.3 172 703.9 171.6 704.4 171.1C704.9 170.6 705.3 170 705.6 169.3L711.1 169.9C710.8 171.3 710.1 172.6 709.1 173.7C708.1 174.8 706.9 175.6 705.4 176.2C704 176.8 702.3 177.1 700.4 177.1Z" fill="#77809C"/>
<path d="M726.8 177.1C724.3 177.1 722.2 176.6 720.4 175.5C718.6 174.4 717.3 172.9 716.3 171C715.3 169.1 714.9 166.8 714.9 164.3C714.9 161.8 715.4 159.5 716.4 157.6C717.4 155.7 718.7 154.1 720.5 153.1C722.3 152.1 724.4 151.5 726.8 151.5C728.8 151.5 730.6 151.9 732.2 152.6C733.8 153.3 735 154.4 735.9 155.7C736.8 157 737.4 158.6 737.5 160.4H731.9C731.7 159.2 731.1 158.2 730.3 157.4C729.5 156.6 728.3 156.2 726.9 156.2C725.7 156.2 724.6 156.5 723.7 157.2C722.8 157.8 722.1 158.8 721.6 160C721.1 161.2 720.8 162.6 720.8 164.3C720.8 166 721 167.5 721.5 168.7C722 169.9 722.7 170.9 723.6 171.5C724.5 172.1 725.6 172.5 726.8 172.5C727.7 172.5 728.4 172.3 729.1 172C729.8 171.7 730.4 171.2 730.8 170.6C731.3 170 731.6 169.2 731.8 168.3H737.4C737.3 170.1 736.7 171.6 735.8 173C734.9 174.4 733.7 175.4 732.1 176.2C730.8 176.7 728.9 177.1 726.8 177.1Z" fill="#77809C"/>
<path d="M754.3 151.7V156.2H740V151.7H754.3ZM743.6 145.7H749.5V169.1C749.5 169.9 749.6 170.5 749.9 170.9C750.1 171.3 750.5 171.6 750.9 171.8C751.3 172 751.7 172 752.2 172C752.6 172 752.9 172 753.2 171.9C753.5 171.8 753.7 171.8 753.9 171.8L754.9 176.4C754.6 176.5 754.1 176.6 753.6 176.8C753 176.9 752.3 177 751.5 177C750 177 748.7 176.8 747.5 176.3C746.3 175.8 745.4 175 744.7 174C744 173 743.7 171.7 743.7 170.1V145.7H743.6Z" fill="#77809C"/>
<path d="M778.5 158.3L773.1 158.9C772.9 158.4 772.7 157.9 772.3 157.4C771.9 156.9 771.4 156.5 770.8 156.2C770.2 155.9 769.4 155.8 768.5 155.8C767.3 155.8 766.3 156.1 765.4 156.6C764.6 157.1 764.2 157.8 764.2 158.7C764.2 159.4 764.5 160 765 160.5C765.5 161 766.5 161.3 767.7 161.6L771.9 162.5C774.3 163 776 163.8 777.2 164.9C778.4 166 778.9 167.4 778.9 169.2C778.9 170.8 778.4 172.2 777.5 173.3C776.6 174.5 775.3 175.4 773.7 176.1C772.1 176.8 770.3 177.1 768.2 177.1C765.2 177.1 762.7 176.5 760.8 175.2C758.9 173.9 757.8 172.1 757.5 169.8L763.2 169.2C763.5 170.3 764 171.2 764.9 171.7C765.8 172.2 766.8 172.6 768.2 172.6C769.6 172.6 770.7 172.3 771.6 171.7C772.4 171.1 772.9 170.4 772.9 169.6C772.9 168.9 772.6 168.3 772.1 167.8C771.6 167.3 770.7 167 769.6 166.7L765.3 165.8C762.9 165.3 761.1 164.5 760 163.3C758.9 162.1 758.3 160.6 758.3 158.8C758.3 157.3 758.7 155.9 759.6 154.8C760.5 153.7 761.6 152.8 763.2 152.2C764.7 151.6 766.5 151.3 768.5 151.3C771.4 151.3 773.7 151.9 775.4 153.2C777.1 154.5 778.1 156.1 778.5 158.3Z" fill="#77809C"/>
<path d="M787 177C786 177 785.2 176.7 784.5 176C783.8 175.3 783.5 174.5 783.5 173.5C783.5 172.5 783.8 171.7 784.5 171C785.2 170.3 786 170 787 170C788 170 788.8 170.3 789.5 171C790.2 171.7 790.6 172.5 790.6 173.5C790.6 174.2 790.4 174.8 790.1 175.3C789.8 175.8 789.3 176.3 788.8 176.6C788.3 176.8 787.7 177 787 177Z" fill="#77809C"/>
</g>
<mask id="mask7_4_1166" style="mask-type:luminance" maskUnits="userSpaceOnUse" x="0" y="0" width="1521" height="255">
<path d="M1521 0H0V255H1521V0Z" fill="white"/>
</mask>
<g mask="url(#mask7_4_1166)">
<path d="M1468 59C1480.15 59 1490 49.1503 1490 37C1490 24.8497 1480.15 15 1468 15C1455.85 15 1446 24.8497 1446 37C1446 49.1503 1455.85 59 1468 59Z" fill="#D4F6FF"/>
</g>
<mask id="mask8_4_1166" style="mask-type:luminance" maskUnits="userSpaceOnUse" x="0" y="0" width="1521" height="255">
<path d="M1521 0H0V255H1521V0Z" fill="white"/>
</mask>
<g mask="url(#mask8_4_1166)">
<path d="M1448 266C1446.6 268.2 1444.5 268.7 1442 268.7C1363.2 268.7 1284.4 268.7 1205.6 268.7C1201.5 268.7 1199.4 267.3 1199.5 264.5C1199.6 261.8 1201.6 260.4 1205.5 260.4C1219.7 260.4 1233.8 260.4 1248 260.4C1249.7 260.4 1250.5 259.9 1251.1 258.2C1252.5 253.4 1254.2 248.7 1255.9 243.8C1254.6 243.8 1253.7 243.8 1252.7 243.8C1236.9 243.8 1221.2 243.8 1205.4 243.8C1200.5 243.8 1199 242 1200 237.2C1203.9 218.8 1207.9 200.4 1211.8 182C1212.5 178.6 1213.7 177.7 1217.2 177.7C1252.4 177.7 1287.6 177.7 1322.8 177.7C1326.2 177.7 1327.4 178.7 1328.2 182.1C1332.2 200.8 1336.2 219.5 1340.2 238.2C1341 241.9 1339.3 243.9 1335.4 243.9C1319.4 243.9 1303.4 243.9 1287.4 243.9C1286.4 243.9 1285.5 243.9 1284.1 243.9C1285.6 248.5 1287.2 252.9 1288.5 257.4C1289.2 259.8 1290.2 260.6 1292.8 260.6C1311.5 260.5 1330.2 260.5 1348.9 260.5C1349.9 260.5 1350.8 260.5 1352.1 260.5C1356.4 222.4 1360.7 184.5 1365 146C1363.9 146.5 1363.1 146.9 1362.4 147.2C1351.4 152.1 1340.5 157.2 1329.5 161.9C1324.6 164 1319.4 165.3 1313.9 164.9C1308.1 164.5 1305.8 160.6 1308.8 155.5C1310.7 152.2 1313.3 149.1 1316 146.5C1326.2 136.6 1338.1 128.9 1350 121.2C1351.2 120.5 1352.3 119.6 1353.5 119.1C1357.7 117.3 1360.1 113.8 1362.4 110.2C1362.8 109.5 1362.9 108.5 1363 107.7C1363.8 96 1364.3 84.3 1365.3 72.6C1366 64.4 1367.3 56.2 1370.5 48.5C1371.2 46.8 1372.2 45.2 1373.3 43.7C1376 40.3 1379.5 40.3 1382.3 43.6C1385.3 47.2 1386.5 51.6 1387.5 56C1391.2 72 1392.1 88.3 1392.4 104.7C1392.5 110.5 1395.2 114.4 1399.8 117.6C1410.5 124.9 1421.2 132.2 1431.7 139.7C1435.4 142.4 1438.7 145.7 1442 148.9C1444.9 151.7 1447.2 155 1448.3 159C1448.3 159.5 1448.3 160 1448.3 160.5C1446.5 164.2 1444.2 165.7 1439.7 165C1434.9 164.3 1429.8 163.6 1425.4 161.7C1414.5 157.2 1403.9 152.2 1393.1 147.3C1392.3 147 1391.6 146.6 1390.4 146C1394 184.5 1397.6 222.5 1401.2 260.6C1402.6 260.6 1403.5 260.6 1404.5 260.6C1417 260.6 1429.6 260.6 1442.1 260.6C1444.7 260.6 1446.9 261.1 1448.3 263.4C1448 264.1 1448 265 1448 266ZM1392.5 260.2C1388.9 221.4 1385.2 182.8 1381.6 144.3C1378.6 144.3 1376 144.3 1373.3 144.3C1368.9 183 1364.6 221.5 1360.3 260.2C1371.1 260.2 1381.6 260.2 1392.5 260.2ZM1289.6 235.4C1289.7 235.1 1289.8 235 1289.8 234.9C1289 228.7 1288.1 222.4 1287.2 216.2C1287.1 215.7 1286.1 215 1285.6 215C1275.2 214.9 1264.8 214.9 1254.4 215C1253.8 215 1252.8 215.7 1252.7 216.2C1251.7 222.6 1250.8 228.9 1249.9 235.5C1263.3 235.4 1276.5 235.4 1289.6 235.4ZM1208.8 235.3C1219.8 235.3 1230.6 235.3 1241.5 235.3C1242.5 228.5 1243.4 221.8 1244.4 214.8C1234.1 214.8 1224.1 214.8 1214.1 214.9C1213.7 214.9 1213.1 215.7 1213 216.1C1211.5 222.5 1210.2 228.9 1208.8 235.3ZM1295.4 214.8C1296.4 221.9 1297.4 228.6 1298.3 235.3C1309.3 235.3 1320.1 235.3 1330.9 235.3C1329.6 228.9 1328.2 222.8 1327 216.6C1326.7 215.1 1325.9 214.8 1324.5 214.8C1316.2 214.9 1307.9 214.8 1299.5 214.8C1298.3 214.8 1297.1 214.8 1295.4 214.8ZM1245.6 206.4C1246.6 199.6 1247.5 192.9 1248.5 186C1238.6 186 1229.1 186 1219.4 186C1217.9 192.8 1216.5 199.5 1215 206.4C1225.2 206.4 1235.2 206.4 1245.6 206.4ZM1291.3 185.9C1292.3 193 1293.3 199.7 1294.3 206.4C1304.6 206.4 1314.6 206.4 1324.9 206.4C1323.5 199.9 1322.2 193.6 1320.8 187.3C1320.7 186.7 1319.5 186 1318.8 186C1314.2 185.9 1309.6 185.9 1305 185.9C1300.4 185.9 1296 185.9 1291.3 185.9ZM1254 206.3C1264.7 206.3 1275.2 206.3 1285.8 206.3C1284.8 199.4 1283.8 192.7 1282.9 186C1274.1 186 1265.6 186 1256.9 186C1255.9 192.8 1255 199.5 1254 206.3ZM1389.9 123.8C1390 117 1384.5 111.4 1377.7 111.3C1370.9 111.2 1365.1 117 1365.1 123.8C1365.1 130.6 1370.7 136.1 1377.5 136.1C1384.4 136.1 1389.9 130.6 1389.9 123.8ZM1377.8 51.6C1373.9 58.8 1370.6 97.1 1371.5 103.5C1375.6 103.5 1379.7 103.5 1384 103.5C1383.1 86.5 1382.3 69.1 1377.8 51.6ZM1393.3 138C1407.4 145 1421.6 152.5 1437.4 156.1C1425.8 144.2 1412 135.2 1398.6 126.4C1396.8 130.3 1395.1 134 1393.3 138ZM1317.8 156.1C1333.6 152.4 1347.8 144.9 1361.8 137.9C1360 134 1358.3 130.3 1356.6 126.4C1343.1 135.3 1329.4 144.2 1317.8 156.1ZM1280.6 260.2C1279.6 257.3 1278.8 254.5 1277.8 251.8C1276.9 249.1 1276.6 245.4 1274.7 244.2C1272.7 242.8 1269.1 243.8 1266.2 243.8C1266 243.8 1265.7 243.7 1265.5 243.8C1265.1 244.1 1264.5 244.3 1264.3 244.7C1262.5 249.8 1260.8 254.9 1259.1 260.2C1266.4 260.2 1273.4 260.2 1280.6 260.2Z" fill="#15BEE6"/>
<path d="M1253.1 115.4C1234.5 115 1219.9 99.9999 1220.3 81.5999C1220.7 63.2999 1235.9 48.6999 1253.9 49.0999C1272.5 49.4999 1286.8 64.6999 1286.4 83.3999C1286 101.1 1270.7 115.8 1253.1 115.4ZM1228.6 82.2999C1228.6 95.8999 1239.9 107.2 1253.5 107.1C1267 107 1278.2 95.7999 1278.2 82.3999C1278.2 68.7999 1267 57.4999 1253.5 57.3999C1239.9 57.3999 1228.5 68.6999 1228.6 82.2999Z" fill="#15BEE6"/>
<path d="M1218.6 121.5C1215.2 121.5 1212.9 118.2 1214.6 115.8C1216.7 112.9 1219.4 110.4 1222.2 108.1C1223.7 106.9 1225.6 107.4 1227 108.9C1228.4 110.4 1228.7 112.3 1227.4 113.8C1225.2 116.3 1222.7 118.7 1220.2 121C1219.8 121.3 1218.9 121.4 1218.6 121.5Z" fill="#15BEE6"/>
<path d="M1207.8 78.2C1209.2 78.2 1210.6 78.1 1211.9 78.2C1214.3 78.4 1215.9 80.1 1215.9 82.2C1215.9 84.4 1214.3 86.2 1212 86.3C1209.1 86.4 1206.2 86.5 1203.3 86.3C1201 86.2 1199.4 84.2 1199.5 82.1C1199.6 80 1201.2 78.4 1203.4 78.2C1204.9 78.1 1206.4 78.2 1207.8 78.2Z" fill="#15BEE6"/>
<path d="M1223.8 57.1C1223.4 57 1222.5 56.9 1222.1 56.5C1219.6 54.1 1217 51.8 1214.8 49.2C1213.5 47.7 1214 45.8 1215.4 44.4C1216.8 43 1218.8 42.5 1220.2 43.8C1222.9 46.1 1225.5 48.5 1227.6 51.3C1229.4 53.6 1227.1 57 1223.8 57.1Z" fill="#15BEE6"/>
<path d="M1298.7 86.4C1297.4 86.4 1296.1 86.5 1294.8 86.4C1292.3 86.2 1290.7 84.5 1290.7 82.2C1290.8 80 1292.3 78.3 1294.8 78.2C1297.5 78.1 1300.3 78.1 1303 78.2C1305.4 78.3 1307.1 80 1307.1 82.2C1307.2 84.4 1305.4 86.2 1303 86.4C1301.6 86.5 1300.1 86.4 1298.7 86.4Z" fill="#15BEE6"/>
<path d="M1292.6 117.3C1292.5 120.6 1288.9 122.7 1286.4 120.8C1283.7 118.7 1281.3 116.1 1279.1 113.5C1277.9 112.1 1278.3 110.2 1279.6 108.8C1280.9 107.4 1282.8 106.8 1284.2 107.9C1287.1 110.3 1289.6 113.2 1292.2 115.9C1292.6 116.3 1292.5 117 1292.6 117.3Z" fill="#15BEE6"/>
<path d="M1257.3 128C1257.3 129.5 1257.4 130.9 1257.3 132.4C1257.1 134.6 1255.7 135.9 1253.5 136C1251.4 136.1 1249.6 134.9 1249.4 132.7C1249.2 129.5 1249.2 126.3 1249.4 123.1C1249.5 120.8 1251.2 119.8 1253.4 119.7C1255.4 119.6 1257.1 121.1 1257.3 123.3C1257.5 124.8 1257.3 126.4 1257.3 128Z" fill="#15BEE6"/>
<path d="M1257.5 36.7C1257.4 38.3 1257.5 39.9 1257.2 41.5C1256.9 43.7 1255.4 44.8 1253.4 44.8C1251.4 44.8 1249.6 43.8 1249.4 41.7C1249.2 38.3 1249.1 34.9 1249.4 31.6C1249.6 29.5 1251.3 28.5 1253.4 28.5C1255.5 28.6 1256.9 29.7 1257.2 31.8C1257.5 33.5 1257.5 35.1 1257.5 36.7Z" fill="#15BEE6"/>
<path d="M1282 57.2C1281.2 56.6 1279.7 55.9 1279.2 54.8C1278.7 53.7 1278.7 51.7 1279.4 50.8C1281.5 48.2 1283.9 45.9 1286.4 43.8C1287.8 42.6 1289.8 42.7 1291 44.1C1291.9 45.2 1292.8 47.6 1292.3 48.2C1289.8 51.3 1286.9 54 1284 56.8C1283.7 57.1 1283 57 1282 57.2Z" fill="#15BEE6"/>
</g>
<mask id="mask9_4_1166" style="mask-type:luminance" maskUnits="userSpaceOnUse" x="0" y="0" width="1521" height="255">
<path d="M1521 0H0V255H1521V0Z" fill="white"/>
</mask>
<g mask="url(#mask9_4_1166)">
<path d="M59.5 203.7C59.5 202.4 59.7 201.2 60 200.1C60.3 199 60.8 198 61.4 197.1H62.5C62.3 197.4 62 197.9 61.8 198.3C61.6 198.7 61.4 199.3 61.2 199.9C61 200.5 60.9 201.1 60.8 201.7C60.7 202.3 60.7 202.9 60.7 203.6C60.7 204.4 60.8 205.2 60.9 206.1C61.1 206.9 61.3 207.7 61.5 208.4C61.7 209.1 62.1 209.7 62.4 210.2H61.3C60.7 209.3 60.2 208.3 59.9 207.2C59.7 206.2 59.5 205 59.5 203.7Z" fill="#D3D3D3"/>
<path d="M71.4 197.7H72.7V204.6C72.7 205.3 72.5 206 72.2 206.5C71.9 207.1 71.4 207.5 70.8 207.8C70.2 208.1 69.5 208.3 68.7 208.3C67.9 208.3 67.2 208.1 66.6 207.8C66 207.5 65.5 207 65.2 206.5C64.9 205.9 64.7 205.3 64.7 204.6V197.7H66V204.5C66 205 66.1 205.5 66.3 205.9C66.5 206.3 66.8 206.6 67.3 206.8C67.7 207 68.2 207.1 68.8 207.1C69.4 207.1 69.9 207 70.3 206.8C70.7 206.6 71 206.3 71.3 205.9C71.5 205.5 71.6 205 71.6 204.5V197.7H71.4Z" fill="#D3D3D3"/>
<path d="M83.5 197.7V208.2H82.3L76.6 200H76.5V208.2H75.2V197.7H76.4L82.1 205.9H82.2V197.7H83.5Z" fill="#D3D3D3"/>
<path d="M94.5 201H93.2C93.1 200.6 93 200.3 92.8 200C92.6 199.7 92.4 199.5 92.1 199.3C91.8 199.1 91.5 199 91.2 198.9C90.9 198.8 90.5 198.8 90.2 198.8C89.6 198.8 89 199 88.5 199.3C88 199.6 87.6 200.1 87.3 200.7C87 201.3 86.8 202.1 86.8 203C86.8 203.9 87 204.7 87.3 205.3C87.6 205.9 88 206.4 88.5 206.7C89 207 89.6 207.2 90.2 207.2C90.5 207.2 90.9 207.2 91.2 207.1C91.5 207 91.8 206.9 92.1 206.7C92.4 206.5 92.6 206.3 92.8 206C93 205.7 93.1 205.4 93.2 205H94.5C94.4 205.5 94.2 206 94 206.4C93.8 206.8 93.4 207.2 93.1 207.5C92.7 207.8 92.3 208 91.8 208.2C91.3 208.4 90.8 208.4 90.3 208.4C89.4 208.4 88.6 208.2 87.9 207.7C87.2 207.3 86.7 206.6 86.3 205.8C85.9 205 85.7 204 85.7 202.9C85.7 201.8 85.9 200.8 86.3 200C86.7 199.2 87.2 198.6 87.9 198.1C88.6 197.7 89.4 197.4 90.3 197.4C90.8 197.4 91.3 197.5 91.8 197.6C92.3 197.8 92.7 198 93.1 198.3C93.5 198.6 93.8 199 94 199.4C94.2 199.8 94.4 200.4 94.5 201Z" fill="#D3D3D3"/>
<path d="M95.8999 198.8V197.7H103.8V198.8H100.5V208.2H99.1999V198.8H95.8999Z" fill="#D3D3D3"/>
<path d="M106.2 208.2H104.9L108.7 197.7H110L113.8 208.2H112.5L109.4 199.4H109.3L106.2 208.2ZM106.7 204.1H112.1V205.2H106.7V204.1Z" fill="#D3D3D3"/>
<path d="M118.7 208.2H115.5V197.7H118.9C119.9 197.7 120.8 197.9 121.5 198.3C122.2 198.7 122.8 199.3 123.2 200.1C123.6 200.9 123.8 201.8 123.8 202.9C123.8 204 123.6 204.9 123.2 205.7C122.8 206.5 122.2 207.1 121.5 207.5C120.7 208 119.8 208.2 118.7 208.2ZM116.8 207H118.7C119.6 207 120.3 206.8 120.9 206.5C121.5 206.2 121.9 205.7 122.2 205.1C122.5 204.5 122.6 203.7 122.6 202.9C122.6 202.1 122.5 201.3 122.2 200.7C121.9 200.1 121.5 199.6 121 199.3C120.5 199 119.8 198.8 118.9 198.8H116.9V207H116.8Z" fill="#D3D3D3"/>
<path d="M129.7 208.2V207.3L133.2 203.5C133.6 203.1 133.9 202.7 134.2 202.3C134.5 202 134.7 201.7 134.8 201.4C134.9 201.1 135 200.8 135 200.5C135 200.1 134.9 199.8 134.7 199.5C134.5 199.2 134.3 199 134 198.9C133.7 198.8 133.4 198.7 133 198.7C132.6 198.7 132.2 198.8 131.9 198.9C131.6 199.1 131.4 199.3 131.2 199.6C131 199.9 131 200.2 131 200.6H129.8C129.8 200 129.9 199.4 130.2 199C130.5 198.5 130.9 198.2 131.4 197.9C131.9 197.6 132.4 197.5 133.1 197.5C133.7 197.5 134.3 197.6 134.7 197.9C135.2 198.2 135.5 198.5 135.8 198.9C136.1 199.3 136.2 199.8 136.2 200.4C136.2 200.8 136.1 201.2 136 201.5C135.9 201.9 135.6 202.3 135.3 202.7C135 203.1 134.5 203.7 133.9 204.3L131.5 206.8V206.9H136.4V208H129.7V208.2Z" fill="#D3D3D3"/>
<path d="M141.9 208.3C141.1 208.3 140.5 208.1 139.9 207.7C139.4 207.3 138.9 206.7 138.7 205.9C138.4 205.1 138.3 204.1 138.3 203C138.3 201.9 138.4 200.9 138.7 200.1C139 199.3 139.4 198.7 139.9 198.3C140.4 197.9 141.1 197.7 141.9 197.7C142.7 197.7 143.3 197.9 143.9 198.3C144.4 198.7 144.9 199.3 145.1 200.1C145.4 200.9 145.5 201.9 145.5 203C145.5 204.1 145.4 205.1 145.1 205.9C144.8 206.7 144.4 207.3 143.9 207.7C143.3 208.1 142.6 208.3 141.9 208.3ZM141.9 207.2C142.7 207.2 143.3 206.8 143.7 206.1C144.1 205.4 144.3 204.3 144.3 202.9C144.3 202 144.2 201.2 144 200.6C143.8 200 143.5 199.5 143.2 199.1C142.8 198.8 142.4 198.6 141.9 198.6C141.1 198.6 140.6 199 140.1 199.7C139.7 200.4 139.5 201.5 139.5 202.9C139.5 203.8 139.6 204.6 139.8 205.2C140 205.8 140.3 206.3 140.6 206.6C140.9 207 141.4 207.2 141.9 207.2Z" fill="#D3D3D3"/>
<path d="M147.5 208.2V207.3L151 203.5C151.4 203.1 151.7 202.7 152 202.3C152.3 202 152.5 201.7 152.6 201.4C152.7 201.1 152.8 200.8 152.8 200.5C152.8 200.1 152.7 199.8 152.5 199.5C152.3 199.2 152.1 199 151.8 198.9C151.5 198.8 151.2 198.7 150.8 198.7C150.4 198.7 150 198.8 149.7 198.9C149.4 199.1 149.2 199.3 149 199.6C148.8 199.9 148.8 200.2 148.8 200.6H147.6C147.6 200 147.7 199.4 148 199C148.3 198.5 148.7 198.2 149.2 197.9C149.7 197.6 150.2 197.5 150.9 197.5C151.5 197.5 152.1 197.6 152.5 197.9C153 198.2 153.3 198.5 153.6 198.9C153.9 199.3 154 199.8 154 200.4C154 200.8 153.9 201.2 153.8 201.5C153.7 201.9 153.4 202.3 153.1 202.7C152.8 203.1 152.3 203.7 151.7 204.3L149.3 206.8V206.9H154.2V208H147.5V208.2Z" fill="#D3D3D3"/>
<path d="M155.9 206V205L160.5 197.7H161.3V199.3H160.8L157.3 204.8V204.9H163.5V206H155.9ZM160.9 208.2V205.7V205.2V197.7H162.1V208.2H160.9Z" fill="#D3D3D3"/>
<path d="M168 203.7C168 205 167.8 206.2 167.5 207.3C167.2 208.4 166.7 209.4 166.1 210.3H165C165.2 210 165.5 209.5 165.7 209.1C165.9 208.7 166.1 208.1 166.3 207.5C166.5 206.9 166.6 206.3 166.7 205.7C166.8 205.1 166.8 204.5 166.8 203.8C166.8 203 166.7 202.2 166.6 201.3C166.4 200.5 166.2 199.7 166 199C165.7 198.3 165.4 197.7 165.1 197.2H166.2C166.8 198.1 167.3 199.1 167.6 200.2C167.9 201.3 168 202.5 168 203.7Z" fill="#D3D3D3"/>
</g>
<mask id="mask10_4_1166" style="mask-type:luminance" maskUnits="userSpaceOnUse" x="0" y="0" width="1521" height="255">
<path d="M1521 0H0V255H1521V0Z" fill="white"/>
</mask>
<g mask="url(#mask10_4_1166)">
<path d="M63.9 60.9H57V39.4H64.2C66.3 39.4 68.1 39.8 69.6 40.7C71.1 41.6 72.3 42.8 73.1 44.4C73.9 46 74.3 47.9 74.3 50.1C74.3 52.3 73.9 54.3 73.1 55.9C72.3 57.5 71.1 58.7 69.6 59.6C67.9 60.5 66.1 60.9 63.9 60.9ZM60.2 58.1H63.7C65.3 58.1 66.7 57.8 67.8 57.2C68.9 56.6 69.7 55.7 70.2 54.5C70.7 53.3 71 51.9 71 50.2C71 48.5 70.7 47.1 70.2 45.9C69.7 44.7 68.9 43.8 67.8 43.2C66.7 42.6 65.4 42.3 63.9 42.3H60.2V58.1Z" fill="#242438"/>
<path d="M79.6001 42.3C79.1001 42.3 78.6001 42.1 78.2001 41.7C77.8001 41.3 77.6001 40.9 77.6001 40.4C77.6001 39.9 77.8001 39.4 78.2001 39.1C78.6001 38.7 79.1001 38.5 79.6001 38.5C80.1001 38.5 80.6001 38.7 81.0001 39.1C81.4001 39.5 81.6001 39.9 81.6001 40.4C81.6001 40.9 81.4001 41.4 81.0001 41.7C80.6001 42.1 80.1001 42.3 79.6001 42.3ZM78.0001 60.9V44.8H81.1001V60.9H78.0001Z" fill="#242438"/>
<path d="M91.3 61.2C90 61.2 88.8 60.9 87.8 60.2C86.8 59.5 86 58.6 85.4 57.3C84.8 56.1 84.5 54.6 84.5 52.8C84.5 51.1 84.8 49.6 85.4 48.3C86 47.1 86.8 46.1 87.8 45.5C88.8 44.8 90 44.5 91.3 44.5C92.3 44.5 93.1 44.7 93.7 45C94.3 45.3 94.8 45.7 95.1 46.2C95.4 46.6 95.7 47 95.9 47.4H96.1V39.4H99.2V60.9H96.1V58.4H96C95.8 58.7 95.5 59.1 95.2 59.6C94.8 60 94.4 60.4 93.7 60.8C93.1 61 92.3 61.2 91.3 61.2ZM92 58.5C92.9 58.5 93.7 58.3 94.3 57.8C94.9 57.3 95.4 56.7 95.7 55.8C96 54.9 96.2 54 96.2 52.8C96.2 51.7 96 50.7 95.7 49.9C95.4 49.1 94.9 48.4 94.3 47.9C93.7 47.4 92.9 47.2 92 47.2C91.1 47.2 90.3 47.4 89.6 47.9C88.9 48.4 88.5 49.1 88.2 49.9C87.9 50.7 87.7 51.7 87.7 52.8C87.7 53.9 87.9 54.8 88.2 55.7C88.5 56.6 89 57.2 89.6 57.7C90.2 58.2 91.1 58.5 92 58.5Z" fill="#242438"/>
<path d="M113.6 66.9001C113.1 66.9001 112.7 66.9001 112.3 66.8001C111.9 66.7001 111.6 66.6 111.4 66.6L112.2 64C112.8 64.2001 113.3 64.2 113.7 64.2C114.1 64.2 114.5 64 114.9 63.7001C115.3 63.4001 115.6 62.9001 115.8 62.2001L116.2 61.1L110.3 44.8H113.7L117.8 57.3H118L122.1 44.8H125.5L118.7 63C118.4 63.8 118 64.5 117.5 65.1C117 65.7 116.5 66.1001 115.8 66.4001C115.2 66.8001 114.5 66.9001 113.6 66.9001Z" fill="#242438"/>
<path d="M135.1 61.2C133.6 61.2 132.3 60.9 131.1 60.2C130 59.5 129.1 58.5 128.5 57.3C127.9 56.1 127.6 54.6 127.6 52.9C127.6 51.2 127.9 49.8 128.5 48.5C129.1 47.2 130 46.3 131.1 45.6C132.2 44.9 133.5 44.6 135.1 44.6C136.7 44.6 137.9 44.9 139.1 45.6C140.2 46.3 141.1 47.3 141.7 48.5C142.3 49.7 142.6 51.2 142.6 52.9C142.6 54.6 142.3 56 141.7 57.3C141.1 58.5 140.2 59.5 139.1 60.2C137.9 60.9 136.6 61.2 135.1 61.2ZM135.1 58.6C136.1 58.6 136.9 58.3 137.5 57.8C138.1 57.3 138.6 56.6 138.9 55.7C139.2 54.8 139.4 53.9 139.4 52.9C139.4 51.9 139.2 50.9 138.9 50.1C138.6 49.2 138.1 48.5 137.5 48C136.9 47.5 136 47.2 135.1 47.2C134.1 47.2 133.3 47.5 132.7 48C132.1 48.5 131.6 49.2 131.3 50.1C131 51 130.8 51.9 130.8 52.9C130.8 53.9 131 54.9 131.3 55.7C131.6 56.6 132.1 57.2 132.7 57.8C133.3 58.3 134.1 58.6 135.1 58.6Z" fill="#242438"/>
<path d="M156.3 54.2001V44.8H159.4V60.9001H156.3V58.1H156.1C155.7 59 155.1 59.7001 154.3 60.2001C153.5 60.8001 152.5 61.1 151.3 61.1C150.3 61.1 149.4 60.9001 148.6 60.4001C147.8 59.9001 147.2 59.3001 146.7 58.4001C146.2 57.5001 146 56.4 146 55.1V44.8H149.1V54.7001C149.1 55.8001 149.4 56.7 150 57.3C150.6 58 151.4 58.3 152.4 58.3C153 58.3 153.6 58.2001 154.2 57.9001C154.8 57.6001 155.3 57.2 155.7 56.6C156.1 56 156.3 55.1 156.3 54.2001Z" fill="#242438"/>
<path d="M171.5 60.9V39.4H174.6V60.9H171.5ZM174.4 55.4V51.6H174.9L181.3 44.8H185.1L177.8 52.6H177.3L174.4 55.4ZM181.6 60.9L175.8 53.2L178 51L185.5 60.8H181.6V60.9Z" fill="#15BEE6"/>
<path d="M191 51.3V60.9H187.9V44.8H190.9V47.4H191.1C191.5 46.5 192.1 45.9 192.8 45.3C193.6 44.8 194.6 44.5 195.8 44.5C196.9 44.5 197.9 44.7 198.7 45.2C199.5 45.7 200.2 46.3 200.6 47.2C201.1 48.1 201.3 49.2 201.3 50.5V60.7H198.2V51C198.2 49.8 197.9 48.9 197.3 48.3C196.7 47.6 195.9 47.3 194.8 47.3C194.1 47.3 193.4 47.5 192.9 47.8C192.4 48.1 191.9 48.6 191.6 49.2C191.2 49.7 191 50.5 191 51.3Z" fill="#15BEE6"/>
<path d="M212.3 61.2C210.8 61.2 209.5 60.9 208.3 60.2C207.2 59.5 206.3 58.5 205.7 57.3C205.1 56.1 204.8 54.6 204.8 52.9C204.8 51.2 205.1 49.8 205.7 48.5C206.3 47.2 207.2 46.3 208.3 45.6C209.4 44.9 210.7 44.6 212.3 44.6C213.9 44.6 215.1 44.9 216.3 45.6C217.4 46.3 218.3 47.3 218.9 48.5C219.5 49.7 219.8 51.2 219.8 52.9C219.8 54.6 219.5 56 218.9 57.3C218.3 58.5 217.4 59.5 216.3 60.2C215.1 60.9 213.8 61.2 212.3 61.2ZM212.3 58.6C213.3 58.6 214.1 58.3 214.7 57.8C215.3 57.3 215.8 56.6 216.1 55.7C216.4 54.8 216.6 53.9 216.6 52.9C216.6 51.9 216.4 50.9 216.1 50.1C215.8 49.2 215.3 48.5 214.7 48C214.1 47.5 213.2 47.2 212.3 47.2C211.3 47.2 210.5 47.5 209.9 48C209.3 48.5 208.8 49.2 208.5 50.1C208.2 51 208 51.9 208 52.9C208 53.9 208.2 54.9 208.5 55.7C208.8 56.6 209.3 57.2 209.9 57.8C210.5 58.3 211.3 58.6 212.3 58.6Z" fill="#15BEE6"/>
<path d="M226.8 60.9001L222.1 44.8H225.3L228.5 56.6H228.7L231.9 44.8H235.1L238.2 56.6H238.4L241.5 44.8H244.7L240 60.9001H236.8L233.5 49.3H233.3L230 60.9001H226.8Z" fill="#15BEE6"/>
<path d="M251.1 54.5C251.1 53.2 251.2 52.2 251.5 51.4C251.8 50.6 252.1 50 252.6 49.5C253.1 49 253.6 48.6 254.3 48.2C254.7 47.9 255.1 47.6 255.4 47.3C255.7 47 256 46.6 256.2 46.2C256.4 45.8 256.5 45.3 256.5 44.8C256.5 44.2 256.4 43.6 256.1 43.2C255.8 42.7 255.4 42.4 254.9 42.1C254.4 41.8 253.9 41.7 253.3 41.7C252.8 41.7 252.2 41.8 251.8 42C251.4 42.2 250.9 42.6 250.6 43C250.3 43.4 250.1 44.1 250 44.8H246.8C246.8 43.5 247.2 42.5 247.8 41.6C248.4 40.7 249.2 40.1 250.1 39.6C251 39.1 252.1 38.9 253.3 38.9C254.6 38.9 255.7 39.1 256.7 39.6C257.7 40.1 258.4 40.7 258.9 41.6C259.4 42.5 259.7 43.5 259.7 44.6C259.7 45.4 259.6 46.1 259.3 46.7C259.1 47.3 258.7 47.9 258.3 48.4C257.8 48.9 257.3 49.3 256.7 49.7C256.1 50.1 255.6 50.5 255.3 50.9C254.9 51.3 254.7 51.8 254.5 52.3C254.3 52.8 254.2 53.5 254.2 54.3V54.5H251.1ZM252.7 61.1C252.1 61.1 251.6 60.9 251.2 60.5C250.8 60.1 250.6 59.6 250.6 59C250.6 58.4 250.8 57.9 251.2 57.5C251.6 57.1 252.1 56.9 252.7 56.9C253.3 56.9 253.8 57.1 254.2 57.5C254.6 57.9 254.8 58.4 254.8 59C254.8 59.4 254.7 59.7 254.5 60.1C254.3 60.4 254.1 60.7 253.7 60.9C253.4 61 253 61.1 252.7 61.1Z" fill="#15BEE6"/>
<path d="M257 65.6H170.9V68.2H257V65.6Z" fill="#D9F4F9"/>
</g>
</g>
<defs>
<clipPath id="clip0_4_1166">
<rect width="1521" height="255" fill="white"/>
</clipPath>
</defs>
</svg>
