<svg width="1521" height="255" viewBox="0 0 1521 255" fill="none" xmlns="http://www.w3.org/2000/svg">
<g clip-path="url(#clip0_1_133)">
<path d="M1521 0H0V255H1521V0Z" fill="white"/>
<mask id="mask0_1_133" style="mask-type:luminance" maskUnits="userSpaceOnUse" x="0" y="0" width="1521" height="255">
<path d="M1521 0H0V255H1521V0Z" fill="white"/>
</mask>
<g mask="url(#mask0_1_133)">
<path d="M81.7 114.9H77C76.9 114.1 76.6 113.4 76.3 112.8C75.9 112.2 75.5 111.7 74.9 111.3C74.4 110.9 73.7 110.6 73.1 110.3C72.4 110.1 71.7 110 70.9 110C69.5 110 68.2 110.4 67.1 111.1C66 111.8 65.2 112.8 64.5 114.2C63.8 115.6 63.6 117.2 63.6 119.2C63.6 121.2 63.9 122.9 64.5 124.2C65.1 125.5 66 126.6 67.1 127.3C68.2 128 69.4 128.3 70.8 128.3C71.6 128.3 72.3 128.2 73 128C73.7 127.8 74.3 127.5 74.8 127.1C75.3 126.7 75.8 126.2 76.2 125.6C76.6 125 76.8 124.3 77 123.6H81.7C81.5 124.8 81.1 126 80.6 127.1C80 128.2 79.2 129.1 78.3 130C77.4 130.8 76.2 131.5 75 131.9C73.7 132.4 72.3 132.6 70.8 132.6C68.5 132.6 66.5 132.1 64.7 131C62.9 129.9 61.5 128.4 60.5 126.4C59.5 124.4 59 122 59 119.2C59 116.4 59.5 114 60.6 112C61.6 110 63.1 108.5 64.8 107.4C66.6 106.3 68.6 105.8 70.9 105.8C72.3 105.8 73.7 106 74.9 106.4C76.1 106.8 77.2 107.4 78.2 108.2C79.2 109 80 109.9 80.6 111.1C81.1 112.2 81.5 113.5 81.7 114.9Z" fill="#77809C"/>
<path d="M91 132.5C89.8 132.5 88.7 132.3 87.7 131.8C86.7 131.3 85.9 130.7 85.4 129.8C84.9 128.9 84.5 127.9 84.5 126.6C84.5 125.5 84.7 124.6 85.1 123.9C85.5 123.2 86.1 122.6 86.8 122.2C87.5 121.8 88.3 121.4 89.2 121.2C90.1 121 91 120.8 91.9 120.7C93 120.6 94 120.5 94.7 120.4C95.4 120.3 95.9 120.2 96.3 119.9C96.7 119.6 96.8 119.4 96.8 118.9V118.8C96.8 117.8 96.5 117.1 96 116.6C95.4 116.1 94.6 115.8 93.6 115.8C92.5 115.8 91.6 116 90.9 116.5C90.2 117 89.8 117.6 89.6 118.2L85.3 117.6C85.6 116.4 86.2 115.4 87 114.6C87.8 113.8 88.7 113.2 89.9 112.8C91 112.4 92.3 112.2 93.6 112.2C94.5 112.2 95.5 112.3 96.4 112.5C97.3 112.7 98.2 113.1 98.9 113.6C99.7 114.1 100.3 114.8 100.8 115.6C101.3 116.5 101.5 117.5 101.5 118.8V131.8H97.1V129.1H96.9C96.6 129.6 96.2 130.1 95.7 130.6C95.2 131.1 94.6 131.4 93.8 131.7C92.9 132.4 92.1 132.5 91 132.5ZM92.2 129.2C93.1 129.2 93.9 129 94.6 128.6C95.3 128.2 95.8 127.7 96.2 127.1C96.6 126.5 96.8 125.8 96.8 125.1V122.8C96.7 122.9 96.4 123 96.1 123.1C95.8 123.2 95.4 123.3 95 123.4C94.6 123.5 94.2 123.5 93.7 123.6C93.3 123.7 92.9 123.7 92.6 123.8C91.9 123.9 91.3 124 90.8 124.3C90.3 124.5 89.8 124.8 89.5 125.2C89.2 125.6 89 126.1 89 126.7C89 127.5 89.3 128.2 89.9 128.6C90.5 129 91.3 129.2 92.2 129.2Z" fill="#77809C"/>
<path d="M105.6 139.4V112.6H110.1V115.8H110.4C110.6 115.3 111 114.8 111.4 114.3C111.8 113.8 112.4 113.3 113.1 112.9C113.8 112.5 114.8 112.3 115.9 112.3C117.4 112.3 118.8 112.7 120 113.4C121.2 114.1 122.2 115.3 122.9 116.8C123.6 118.3 124 120.1 124 122.3C124 124.4 123.6 126.3 122.9 127.8C122.2 129.3 121.2 130.4 120 131.2C118.8 132 117.4 132.4 115.9 132.4C114.8 132.4 113.9 132.2 113.1 131.8C112.4 131.4 111.8 131 111.3 130.5C110.9 130 110.5 129.5 110.3 129H110.1V139.4H105.6ZM110.1 122.4C110.1 123.7 110.3 124.8 110.6 125.7C111 126.6 111.5 127.4 112.2 127.9C112.9 128.4 113.7 128.7 114.7 128.7C115.7 128.7 116.6 128.4 117.2 127.9C117.9 127.4 118.4 126.6 118.8 125.7C119.2 124.7 119.3 123.7 119.3 122.4C119.3 121.2 119.1 120.1 118.8 119.2C118.5 118.3 117.9 117.5 117.3 117C116.6 116.5 115.8 116.2 114.7 116.2C113.7 116.2 112.9 116.5 112.2 117C111.5 117.5 111 118.2 110.6 119.2C110.3 120.1 110.1 121.2 110.1 122.4Z" fill="#77809C"/>
<path d="M129.8 109.9C129.1 109.9 128.4 109.7 127.9 109.2C127.4 108.7 127.1 108.1 127.1 107.4C127.1 106.7 127.4 106.1 127.9 105.6C128.4 105.1 129 104.9 129.8 104.9C130.5 104.9 131.2 105.1 131.7 105.6C132.2 106.1 132.5 106.7 132.5 107.4C132.5 108.1 132.2 108.7 131.7 109.2C131.2 109.7 130.6 109.9 129.8 109.9ZM127.5 132.1V112.6H132.1V132.1H127.5Z" fill="#77809C"/>
<path d="M146.2 112.7V116.2H135V112.7H146.2ZM137.8 108H142.4V126.3C142.4 126.9 142.5 127.4 142.7 127.7C142.9 128 143.1 128.2 143.5 128.4C143.8 128.5 144.2 128.6 144.5 128.6C144.8 128.6 145.1 128.6 145.3 128.5C145.5 128.4 145.7 128.4 145.9 128.4L146.7 132C146.5 132.1 146.1 132.2 145.7 132.3C145.3 132.4 144.7 132.5 144 132.5C142.9 132.5 141.8 132.4 140.9 132C140 131.6 139.3 131 138.7 130.2C138.2 129.4 137.9 128.4 137.9 127.2V108H137.8Z" fill="#77809C"/>
<path d="M155.3 132.5C154.1 132.5 153 132.3 152 131.8C151 131.3 150.2 130.7 149.7 129.8C149.2 128.9 148.8 127.9 148.8 126.6C148.8 125.5 149 124.6 149.4 123.9C149.8 123.2 150.4 122.6 151.1 122.2C151.8 121.8 152.6 121.4 153.5 121.2C154.4 121 155.3 120.8 156.2 120.7C157.3 120.6 158.3 120.5 159 120.4C159.7 120.3 160.2 120.2 160.6 119.9C161 119.6 161.1 119.4 161.1 118.9V118.8C161.1 117.8 160.8 117.1 160.3 116.6C159.7 116.1 158.9 115.8 157.9 115.8C156.8 115.8 155.9 116 155.2 116.5C154.5 117 154.1 117.6 153.9 118.2L149.6 117.6C149.9 116.4 150.5 115.4 151.3 114.6C152.1 113.8 153 113.2 154.2 112.8C155.3 112.4 156.6 112.2 157.9 112.2C158.8 112.2 159.8 112.3 160.7 112.5C161.6 112.7 162.5 113.1 163.2 113.6C164 114.1 164.6 114.8 165.1 115.6C165.6 116.5 165.8 117.5 165.8 118.8V131.8H161.4V129.1H161C160.7 129.6 160.3 130.1 159.8 130.6C159.3 131.1 158.7 131.4 157.9 131.7C157.2 132.4 156.3 132.5 155.3 132.5ZM156.5 129.2C157.4 129.2 158.2 129 158.9 128.6C159.6 128.2 160.1 127.7 160.5 127.1C160.9 126.5 161.1 125.8 161.1 125.1V122.8C161 122.9 160.7 123 160.4 123.1C160.1 123.2 159.7 123.3 159.3 123.4C158.9 123.5 158.5 123.5 158 123.6C157.6 123.7 157.2 123.7 156.9 123.8C156.2 123.9 155.6 124 155.1 124.3C154.6 124.5 154.1 124.8 153.8 125.2C153.5 125.6 153.3 126.1 153.3 126.7C153.3 127.5 153.6 128.2 154.2 128.6C154.7 129 155.5 129.2 156.5 129.2Z" fill="#77809C"/>
<path d="M174.4 106.2V132.2H169.8V106.2H174.4Z" fill="#77809C"/>
<path d="M195.8 132.5C193.9 132.5 192.3 132.1 190.9 131.2C189.5 130.4 188.4 129.2 187.7 127.7C187 126.2 186.6 124.4 186.6 122.4C186.6 120.4 187 118.6 187.7 117.1C188.5 115.6 189.5 114.4 190.9 113.6C192.3 112.8 193.9 112.3 195.8 112.3C197.7 112.3 199.3 112.7 200.7 113.6C202.1 114.4 203.2 115.6 203.9 117.1C204.7 118.6 205 120.4 205 122.4C205 124.4 204.6 126.2 203.9 127.7C203.2 129.2 202.1 130.4 200.7 131.2C199.3 132.1 197.7 132.5 195.8 132.5ZM195.8 128.9C196.8 128.9 197.7 128.6 198.4 128C199.1 127.4 199.6 126.7 200 125.7C200.4 124.7 200.5 123.7 200.5 122.5C200.5 121.3 200.3 120.2 200 119.3C199.7 118.3 199.1 117.6 198.4 117C197.7 116.4 196.8 116.1 195.8 116.1C194.7 116.1 193.9 116.4 193.2 117C192.5 117.6 192 118.3 191.6 119.3C191.3 120.3 191.1 121.3 191.1 122.5C191.1 123.7 191.3 124.8 191.6 125.7C191.9 126.6 192.5 127.4 193.2 128C193.9 128.6 194.7 128.9 195.8 128.9Z" fill="#77809C"/>
<path d="M218.5 112.7V116.2H207V112.7H218.5ZM209.8 132.1V110.8C209.8 109.5 210.1 108.4 210.6 107.5C211.1 106.6 211.9 106 212.8 105.5C213.7 105.1 214.7 104.9 215.9 104.9C216.7 104.9 217.4 105 218 105.1C218.6 105.2 219.1 105.3 219.4 105.4L218.5 108.9C218.3 108.8 218.1 108.8 217.8 108.7C217.5 108.6 217.2 108.6 216.8 108.6C215.9 108.6 215.3 108.8 215 109.2C214.6 109.6 214.5 110.2 214.5 111V132H209.8V132.1Z" fill="#77809C"/>
<path d="M234.8 106.2V132.2H230.2V106.2H234.8Z" fill="#77809C"/>
<path d="M244.8 132.5C243.6 132.5 242.5 132.3 241.5 131.8C240.5 131.3 239.7 130.7 239.2 129.8C238.7 128.9 238.3 127.9 238.3 126.6C238.3 125.5 238.5 124.6 238.9 123.9C239.3 123.2 239.9 122.6 240.6 122.2C241.3 121.8 242.1 121.4 243 121.2C243.9 121 244.8 120.8 245.7 120.7C246.8 120.6 247.8 120.5 248.5 120.4C249.2 120.3 249.7 120.2 250.1 119.9C250.5 119.6 250.6 119.4 250.6 118.9V118.8C250.6 117.8 250.3 117.1 249.8 116.6C249.2 116.1 248.4 115.8 247.4 115.8C246.3 115.8 245.4 116 244.7 116.5C244 117 243.6 117.6 243.4 118.2L239.1 117.6C239.4 116.4 240 115.4 240.8 114.6C241.6 113.8 242.5 113.2 243.7 112.8C244.8 112.4 246.1 112.2 247.4 112.2C248.3 112.2 249.3 112.3 250.2 112.5C251.1 112.7 252 113.1 252.7 113.6C253.5 114.1 254.1 114.8 254.6 115.6C255.1 116.5 255.3 117.5 255.3 118.8V131.8H250.9V129.1H250.7C250.4 129.6 250 130.1 249.5 130.6C249 131.1 248.4 131.4 247.6 131.7C246.7 132.4 245.8 132.5 244.8 132.5ZM246 129.2C246.9 129.2 247.7 129 248.4 128.6C249.1 128.2 249.6 127.7 250 127.1C250.4 126.5 250.6 125.8 250.6 125.1V122.8C250.5 122.9 250.2 123 249.9 123.1C249.6 123.2 249.2 123.3 248.8 123.4C248.4 123.5 248 123.5 247.5 123.6C247.1 123.7 246.7 123.7 246.4 123.8C245.7 123.9 245.1 124 244.6 124.3C244.1 124.5 243.6 124.8 243.3 125.2C243 125.6 242.8 126.1 242.8 126.7C242.8 127.5 243.1 128.2 243.7 128.6C244.2 129 245 129.2 246 129.2Z" fill="#77809C"/>
<path d="M259.3 132.1V112.6H263.7V115.8H263.9C264.3 114.7 264.9 113.8 265.7 113.2C266.6 112.6 267.6 112.3 268.7 112.3C269 112.3 269.2 112.3 269.6 112.3C270 112.3 270.2 112.4 270.4 112.4V116.6C270.2 116.5 269.9 116.5 269.5 116.4C269.1 116.3 268.7 116.3 268.3 116.3C267.5 116.3 266.7 116.5 266.1 116.8C265.4 117.2 264.9 117.7 264.5 118.3C264.1 118.9 263.9 119.7 263.9 120.5V131.9H259.3V132.1Z" fill="#77809C"/>
<path d="M281.6 139.9C280 139.9 278.5 139.7 277.4 139.2C276.2 138.8 275.3 138.2 274.5 137.4C273.8 136.7 273.3 135.8 273 134.9L277.1 133.9C277.3 134.3 277.6 134.7 277.9 135C278.3 135.4 278.7 135.7 279.3 135.9C279.9 136.1 280.7 136.3 281.6 136.3C282.9 136.3 284 136 284.8 135.4C285.7 134.8 286.1 133.7 286.1 132.3V128.6H285.9C285.7 129.1 285.3 129.6 284.9 130.1C284.4 130.6 283.9 131 283.1 131.4C282.4 131.7 281.4 131.9 280.3 131.9C278.8 131.9 277.5 131.5 276.2 130.8C275 130.1 274 129 273.3 127.6C272.6 126.2 272.2 124.4 272.2 122.3C272.2 120.2 272.6 118.4 273.3 116.9C274 115.4 275 114.3 276.2 113.5C277.4 112.7 278.8 112.4 280.3 112.4C281.4 112.4 282.4 112.6 283.1 113C283.8 113.4 284.4 113.8 284.9 114.4C285.3 114.9 285.7 115.4 285.9 115.9H286.2V112.7H290.7V132.5C290.7 134.2 290.3 135.5 289.5 136.6C288.7 137.7 287.6 138.5 286.2 139C284.8 139.5 283.3 139.9 281.6 139.9ZM281.6 128.3C282.6 128.3 283.4 128.1 284.1 127.6C284.8 127.1 285.3 126.4 285.7 125.6C286.1 124.7 286.2 123.6 286.2 122.4C286.2 121.2 286 120.1 285.7 119.2C285.4 118.3 284.8 117.6 284.2 117.1C283.5 116.6 282.7 116.3 281.7 116.3C280.7 116.3 279.8 116.6 279.1 117.1C278.4 117.6 277.9 118.4 277.6 119.3C277.3 120.2 277.1 121.3 277.1 122.5C277.1 123.7 277.3 124.7 277.6 125.6C277.9 126.5 278.5 127.2 279.2 127.7C279.8 128 280.6 128.3 281.6 128.3Z" fill="#77809C"/>
<path d="M303.7 132.5C301.7 132.5 300.1 132.1 298.6 131.3C297.2 130.5 296.1 129.3 295.3 127.8C294.5 126.3 294.2 124.5 294.2 122.5C294.2 120.5 294.6 118.7 295.3 117.2C296 115.7 297.1 114.5 298.5 113.7C299.9 112.9 301.5 112.4 303.4 112.4C304.6 112.4 305.7 112.6 306.8 113C307.9 113.4 308.8 114 309.6 114.8C310.4 115.6 311.1 116.6 311.5 117.9C312 119.1 312.2 120.6 312.2 122.3V123.7H296.2V120.6H307.8C307.8 119.7 307.6 118.9 307.2 118.2C306.8 117.5 306.3 117 305.6 116.6C304.9 116.2 304.2 116 303.3 116C302.4 116 301.5 116.2 300.8 116.7C300.1 117.2 299.5 117.7 299.1 118.5C298.7 119.2 298.5 120 298.5 120.9V123.6C298.5 124.7 298.7 125.7 299.1 126.5C299.5 127.3 300.1 127.9 300.8 128.4C301.5 128.9 302.4 129 303.4 129C304.1 129 304.7 128.9 305.2 128.7C305.7 128.5 306.2 128.2 306.6 127.9C307 127.5 307.3 127.1 307.5 126.5L311.8 127C311.5 128.1 311 129.1 310.3 130C309.6 130.9 308.6 131.5 307.4 132C306.5 132.3 305.2 132.5 303.7 132.5Z" fill="#77809C"/>
<path d="M330 132.5C328.8 132.5 327.7 132.3 326.7 131.8C325.7 131.3 324.9 130.7 324.4 129.8C323.9 128.9 323.5 127.9 323.5 126.6C323.5 125.5 323.7 124.6 324.1 123.9C324.5 123.2 325.1 122.6 325.8 122.2C326.5 121.8 327.3 121.4 328.2 121.2C329.1 121 330 120.8 330.9 120.7C332 120.6 333 120.5 333.7 120.4C334.4 120.3 334.9 120.2 335.3 119.9C335.7 119.6 335.8 119.4 335.8 118.9V118.8C335.8 117.8 335.5 117.1 335 116.6C334.4 116.1 333.6 115.8 332.6 115.8C331.5 115.8 330.6 116 329.9 116.5C329.2 117 328.8 117.6 328.6 118.2L324.3 117.6C324.6 116.4 325.2 115.4 326 114.6C326.8 113.8 327.7 113.2 328.9 112.8C330 112.4 331.3 112.2 332.6 112.2C333.5 112.2 334.5 112.3 335.4 112.5C336.3 112.7 337.2 113.1 337.9 113.6C338.7 114.1 339.3 114.8 339.8 115.6C340.3 116.5 340.5 117.5 340.5 118.8V131.8H336.1V129.1H335.9C335.6 129.6 335.2 130.1 334.7 130.6C334.2 131.1 333.6 131.4 332.8 131.7C331.9 132.4 331 132.5 330 132.5ZM331.2 129.2C332.1 129.2 332.9 129 333.6 128.6C334.3 128.2 334.8 127.7 335.2 127.1C335.6 126.5 335.8 125.8 335.8 125.1V122.8C335.7 122.9 335.4 123 335.1 123.1C334.8 123.2 334.4 123.3 334 123.4C333.6 123.5 333.2 123.5 332.7 123.6C332.3 123.7 331.9 123.7 331.6 123.8C330.9 123.9 330.3 124 329.8 124.3C329.3 124.5 328.8 124.8 328.5 125.2C328.2 125.6 328 126.1 328 126.7C328 127.5 328.3 128.2 328.9 128.6C329.4 129 330.2 129.2 331.2 129.2Z" fill="#77809C"/>
<path d="M344.5 132.1V112.6H348.9V115.9H349.1C349.5 114.8 350.2 113.9 351.1 113.3C352 112.7 353.2 112.4 354.5 112.4C355.8 112.4 356.9 112.7 357.8 113.4C358.7 114 359.3 114.9 359.7 116H359.9C360.3 114.9 361.1 114.1 362.1 113.4C363.1 112.8 364.3 112.4 365.8 112.4C367.6 112.4 369.1 113 370.2 114.1C371.3 115.2 371.9 116.9 371.9 119.1V132.2H367.3V119.8C367.3 118.6 367 117.7 366.3 117.1C365.6 116.5 364.9 116.3 363.9 116.3C362.8 116.3 361.9 116.6 361.3 117.3C360.7 118 360.4 118.9 360.4 120V132.1H356V119.6C356 118.6 355.7 117.8 355.1 117.2C354.5 116.6 353.7 116.3 352.7 116.3C352 116.3 351.4 116.5 350.9 116.8C350.4 117.1 349.9 117.6 349.6 118.2C349.3 118.8 349.1 119.5 349.1 120.3V132.1H344.5Z" fill="#77809C"/>
<path d="M384.7 132.5C382.8 132.5 381.2 132.1 379.8 131.2C378.4 130.4 377.3 129.2 376.6 127.7C375.9 126.2 375.5 124.4 375.5 122.4C375.5 120.4 375.9 118.6 376.6 117.1C377.4 115.6 378.4 114.4 379.8 113.6C381.2 112.8 382.8 112.3 384.7 112.3C386.6 112.3 388.2 112.7 389.6 113.6C391 114.4 392.1 115.6 392.8 117.1C393.6 118.6 393.9 120.4 393.9 122.4C393.9 124.4 393.5 126.2 392.8 127.7C392.1 129.2 391 130.4 389.6 131.2C388.2 132.1 386.6 132.5 384.7 132.5ZM384.7 128.9C385.7 128.9 386.6 128.6 387.3 128C388 127.4 388.5 126.7 388.9 125.7C389.3 124.7 389.4 123.7 389.4 122.5C389.4 121.3 389.2 120.2 388.9 119.3C388.6 118.3 388 117.6 387.3 117C386.6 116.4 385.7 116.1 384.7 116.1C383.6 116.1 382.8 116.4 382.1 117C381.4 117.6 380.9 118.3 380.5 119.3C380.2 120.3 380 121.3 380 122.5C380 123.7 380.2 124.8 380.5 125.7C380.8 126.6 381.4 127.4 382.1 128C382.8 128.6 383.7 128.9 384.7 128.9Z" fill="#77809C"/>
<path d="M410 124V112.7H414.6V132.2H410.2V128.7H410C409.6 129.8 408.8 130.7 407.8 131.4C406.8 132.1 405.6 132.4 404.1 132.4C402.8 132.4 401.7 132.1 400.7 131.5C399.7 130.9 399 130.1 398.4 129C397.8 127.9 397.6 126.6 397.6 125V112.6H402.2V124.3C402.2 125.5 402.5 126.5 403.2 127.2C403.9 127.9 404.8 128.3 405.9 128.3C406.6 128.3 407.2 128.1 407.9 127.8C408.5 127.5 409.1 127 409.5 126.3C409.7 125.8 410 124.9 410 124Z" fill="#77809C"/>
<path d="M423.5 120.7V132.1H418.9V112.6H423.3V115.9H423.5C423.9 114.8 424.7 113.9 425.6 113.3C426.5 112.7 427.8 112.3 429.3 112.3C430.6 112.3 431.8 112.6 432.8 113.2C433.8 113.8 434.6 114.6 435.1 115.7C435.7 116.8 435.9 118.1 435.9 119.7V132.1H431.3V120.4C431.3 119.1 431 118.1 430.3 117.3C429.6 116.5 428.7 116.2 427.5 116.2C426.7 116.2 426 116.4 425.4 116.7C424.8 117.1 424.3 117.6 423.9 118.2C423.7 119 423.5 119.8 423.5 120.7Z" fill="#77809C"/>
<path d="M450 112.7V116.2H438.8V112.7H450ZM441.6 108H446.2V126.3C446.2 126.9 446.3 127.4 446.5 127.7C446.7 128 446.9 128.2 447.3 128.4C447.6 128.5 448 128.6 448.3 128.6C448.6 128.6 448.9 128.6 449.1 128.5C449.3 128.4 449.5 128.4 449.7 128.4L450.5 132C450.3 132.1 449.9 132.2 449.5 132.3C449.1 132.4 448.5 132.5 447.8 132.5C446.7 132.5 445.6 132.4 444.7 132C443.8 131.6 443.1 131 442.5 130.2C442 129.4 441.7 128.4 441.7 127.2V108H441.6Z" fill="#77809C"/>
<path d="M468.9 117.8L464.7 118.3C464.6 117.9 464.4 117.5 464.1 117.1C463.8 116.7 463.4 116.4 462.9 116.2C462.4 116 461.8 115.9 461.1 115.9C460.1 115.9 459.3 116.1 458.7 116.5C458.1 116.9 457.7 117.5 457.7 118.1C457.7 118.7 457.9 119.1 458.3 119.5C458.7 119.9 459.4 120.1 460.4 120.4L463.7 121.1C465.5 121.5 466.9 122.1 467.8 123C468.7 123.9 469.2 125 469.2 126.4C469.2 127.6 468.8 128.7 468.1 129.6C467.4 130.5 466.4 131.3 465.2 131.8C463.9 132.3 462.5 132.6 460.9 132.6C458.5 132.6 456.6 132.1 455.1 131.1C453.6 130.1 452.8 128.7 452.5 126.9L457 126.5C457.2 127.4 457.6 128 458.3 128.5C459 128.9 459.8 129.2 460.9 129.2C462 129.2 462.9 129 463.5 128.5C464.2 128.1 464.5 127.5 464.5 126.8C464.5 126.2 464.3 125.8 463.9 125.4C463.5 125 462.8 124.8 461.9 124.6L458.6 123.9C456.7 123.5 455.4 122.9 454.5 121.9C453.6 121 453.2 119.8 453.2 118.4C453.2 117.2 453.5 116.2 454.2 115.3C454.9 114.4 455.8 113.7 457 113.2C458.2 112.7 459.6 112.5 461.1 112.5C463.4 112.5 465.2 113 466.5 114C467.8 115 468.6 116.2 468.9 117.8Z" fill="#77809C"/>
<path d="M483.6 109.9C482.9 109.9 482.2 109.7 481.7 109.2C481.2 108.7 480.9 108.1 480.9 107.4C480.9 106.7 481.2 106.1 481.7 105.6C482.2 105.1 482.8 104.9 483.6 104.9C484.3 104.9 485 105.1 485.5 105.6C486 106.1 486.3 106.7 486.3 107.4C486.3 108.1 486 108.7 485.5 109.2C484.9 109.7 484.3 109.9 483.6 109.9ZM481.2 132.1V112.6H485.8V132.1H481.2Z" fill="#77809C"/>
<path d="M505.6 117.8L501.4 118.3C501.3 117.9 501.1 117.5 500.8 117.1C500.5 116.7 500.1 116.4 499.6 116.2C499.1 116 498.5 115.9 497.8 115.9C496.8 115.9 496 116.1 495.4 116.5C494.8 116.9 494.4 117.5 494.4 118.1C494.4 118.7 494.6 119.1 495 119.5C495.4 119.9 496.1 120.1 497.1 120.4L500.4 121.1C502.2 121.5 503.6 122.1 504.5 123C505.4 123.9 505.9 125 505.9 126.4C505.9 127.6 505.5 128.7 504.8 129.6C504.1 130.5 503.1 131.3 501.9 131.8C500.6 132.3 499.2 132.6 497.6 132.6C495.2 132.6 493.3 132.1 491.8 131.1C490.3 130.1 489.5 128.7 489.2 126.9L493.7 126.5C493.9 127.4 494.3 128 495 128.5C495.7 128.9 496.5 129.2 497.6 129.2C498.7 129.2 499.6 129 500.2 128.5C500.9 128.1 501.2 127.5 501.2 126.8C501.2 126.2 501 125.8 500.6 125.4C500.2 125 499.5 124.8 498.6 124.6L495.3 123.9C493.4 123.5 492.1 122.9 491.2 121.9C490.3 121 489.9 119.8 489.9 118.4C489.9 117.2 490.2 116.2 490.9 115.3C491.6 114.4 492.5 113.7 493.7 113.2C494.9 112.7 496.3 112.5 497.8 112.5C500.1 112.5 501.9 113 503.2 114C504.5 115 505.3 116.2 505.6 117.8Z" fill="#77809C"/>
<path d="M522.5 106.2V132.2H517.9V106.2H522.5Z" fill="#77809C"/>
<path d="M535.4 132.5C533.5 132.5 531.9 132.1 530.5 131.2C529.1 130.4 528 129.2 527.3 127.7C526.6 126.2 526.2 124.4 526.2 122.4C526.2 120.4 526.6 118.6 527.3 117.1C528.1 115.6 529.1 114.4 530.5 113.6C531.9 112.8 533.5 112.3 535.4 112.3C537.3 112.3 538.9 112.7 540.3 113.6C541.7 114.4 542.8 115.6 543.5 117.1C544.3 118.6 544.6 120.4 544.6 122.4C544.6 124.4 544.2 126.2 543.5 127.7C542.8 129.2 541.7 130.4 540.3 131.2C538.9 132.1 537.3 132.5 535.4 132.5ZM535.4 128.9C536.4 128.9 537.3 128.6 538 128C538.7 127.4 539.2 126.7 539.6 125.7C540 124.7 540.1 123.7 540.1 122.5C540.1 121.3 539.9 120.2 539.6 119.3C539.3 118.3 538.7 117.6 538 117C537.3 116.4 536.4 116.1 535.4 116.1C534.3 116.1 533.5 116.4 532.8 117C532.1 117.6 531.6 118.3 531.2 119.3C530.9 120.3 530.7 121.3 530.7 122.5C530.7 123.7 530.9 124.8 531.2 125.7C531.5 126.6 532.1 127.4 532.8 128C533.5 128.6 534.3 128.9 535.4 128.9Z" fill="#77809C"/>
<path d="M556.7 132.5C554.8 132.5 553.2 132.1 551.8 131.2C550.4 130.4 549.3 129.2 548.6 127.7C547.9 126.2 547.5 124.4 547.5 122.4C547.5 120.4 547.9 118.6 548.6 117.1C549.4 115.6 550.4 114.4 551.8 113.6C553.2 112.8 554.8 112.3 556.7 112.3C558.6 112.3 560.2 112.7 561.6 113.6C563 114.4 564.1 115.6 564.8 117.1C565.6 118.6 565.9 120.4 565.9 122.4C565.9 124.4 565.5 126.2 564.8 127.7C564.1 129.2 563 130.4 561.6 131.2C560.3 132.1 558.6 132.5 556.7 132.5ZM556.7 128.9C557.7 128.9 558.6 128.6 559.3 128C560 127.4 560.5 126.7 560.9 125.7C561.3 124.7 561.4 123.7 561.4 122.5C561.4 121.3 561.2 120.2 560.9 119.3C560.6 118.3 560 117.6 559.3 117C558.6 116.4 557.7 116.1 556.7 116.1C555.6 116.1 554.8 116.4 554.1 117C553.4 117.6 552.9 118.3 552.5 119.3C552.2 120.3 552 121.3 552 122.5C552 123.7 552.2 124.8 552.5 125.7C552.8 126.6 553.4 127.4 554.1 128C554.8 128.6 555.7 128.9 556.7 128.9Z" fill="#77809C"/>
<path d="M569.6 132.1V106.1H574.2V132.1H569.6ZM573.7 126V120.5H574.4L581.4 112.7H586.8L578.2 122.3H577.2L573.7 126ZM581.8 132.1L575.5 123.2L578.6 120L587.3 132.1H581.8Z" fill="#77809C"/>
<path d="M591.8 109.9C591.1 109.9 590.4 109.7 589.9 109.2C589.4 108.7 589.1 108.1 589.1 107.4C589.1 106.7 589.4 106.1 589.9 105.6C590.4 105.1 591 104.9 591.8 104.9C592.5 104.9 593.2 105.1 593.7 105.6C594.2 106.1 594.5 106.7 594.5 107.4C594.5 108.1 594.2 108.7 593.7 109.2C593.2 109.7 592.5 109.9 591.8 109.9ZM589.5 132.1V112.6H594.1V132.1H589.5Z" fill="#77809C"/>
<path d="M603 120.7V132.1H598.4V112.6H602.8V115.9H603C603.4 114.8 604.2 113.9 605.1 113.3C606 112.7 607.3 112.3 608.8 112.3C610.1 112.3 611.3 112.6 612.3 113.2C613.3 113.8 614.1 114.6 614.6 115.7C615.2 116.8 615.4 118.1 615.4 119.7V132.1H610.8V120.4C610.8 119.1 610.5 118.1 609.8 117.3C609.1 116.5 608.2 116.2 607 116.2C606.2 116.2 605.5 116.4 604.9 116.7C604.3 117.1 603.8 117.6 603.4 118.2C603.2 119 603 119.8 603 120.7Z" fill="#77809C"/>
<path d="M628.3 139.9C626.7 139.9 625.2 139.7 624.1 139.2C622.9 138.8 622 138.2 621.2 137.4C620.5 136.7 620 135.8 619.7 134.9L623.8 133.9C624 134.3 624.3 134.7 624.6 135C625 135.4 625.4 135.7 626 135.9C626.6 136.1 627.4 136.3 628.3 136.3C629.6 136.3 630.7 136 631.5 135.4C632.4 134.8 632.8 133.7 632.8 132.3V128.6H632.6C632.4 129.1 632 129.6 631.6 130.1C631.1 130.6 630.6 131 629.8 131.4C629.1 131.7 628.1 131.9 627 131.9C625.5 131.9 624.2 131.5 622.9 130.8C621.7 130.1 620.7 129 620 127.6C619.3 126.2 618.9 124.4 618.9 122.3C618.9 120.2 619.3 118.4 620 116.9C620.7 115.4 621.7 114.3 622.9 113.5C624.1 112.7 625.5 112.4 627 112.4C628.1 112.4 629.1 112.6 629.8 113C630.5 113.4 631.1 113.8 631.6 114.4C632 114.9 632.4 115.4 632.6 115.9H632.9V112.7H637.4V132.5C637.4 134.2 637 135.5 636.2 136.6C635.4 137.7 634.3 138.5 632.9 139C631.5 139.5 630.1 139.9 628.3 139.9ZM628.4 128.3C629.4 128.3 630.2 128.1 630.9 127.6C631.6 127.1 632.1 126.4 632.5 125.6C632.9 124.7 633 123.6 633 122.4C633 121.2 632.8 120.1 632.5 119.2C632.2 118.3 631.6 117.6 631 117.1C630.3 116.6 629.5 116.3 628.5 116.3C627.5 116.3 626.6 116.6 625.9 117.1C625.2 117.6 624.7 118.4 624.4 119.3C624.1 120.2 623.9 121.3 623.9 122.5C623.9 123.7 624.1 124.7 624.4 125.6C624.7 126.5 625.3 127.2 626 127.7C626.5 128 627.4 128.3 628.4 128.3Z" fill="#77809C"/>
<path d="M660.2 112.7V116.2H648.7V112.7H660.2ZM651.6 132.1V110.8C651.6 109.5 651.9 108.4 652.4 107.5C652.9 106.6 653.7 106 654.6 105.5C655.5 105.1 656.5 104.9 657.7 104.9C658.5 104.9 659.2 105 659.8 105.1C660.4 105.2 660.9 105.3 661.2 105.4L660.3 108.9C660.1 108.8 659.9 108.8 659.6 108.7C659.3 108.6 659 108.6 658.6 108.6C657.7 108.6 657.1 108.8 656.8 109.2C656.4 109.6 656.3 110.2 656.3 111V132H651.6V132.1Z" fill="#77809C"/>
<path d="M671.9 132.5C670 132.5 668.4 132.1 667 131.2C665.6 130.4 664.5 129.2 663.8 127.7C663.1 126.2 662.7 124.4 662.7 122.4C662.7 120.4 663.1 118.6 663.8 117.1C664.6 115.6 665.6 114.4 667 113.6C668.4 112.8 670 112.3 671.9 112.3C673.8 112.3 675.4 112.7 676.8 113.6C678.2 114.4 679.3 115.6 680 117.1C680.8 118.6 681.1 120.4 681.1 122.4C681.1 124.4 680.7 126.2 680 127.7C679.3 129.2 678.2 130.4 676.8 131.2C675.5 132.1 673.8 132.5 671.9 132.5ZM671.9 128.9C672.9 128.9 673.8 128.6 674.5 128C675.2 127.4 675.7 126.7 676.1 125.7C676.5 124.7 676.6 123.7 676.6 122.5C676.6 121.3 676.4 120.2 676.1 119.3C675.8 118.3 675.2 117.6 674.5 117C673.8 116.4 672.9 116.1 671.9 116.1C670.8 116.1 670 116.4 669.3 117C668.6 117.6 668.1 118.3 667.7 119.3C667.4 120.3 667.2 121.3 667.2 122.5C667.2 123.7 667.4 124.8 667.7 125.7C668 126.6 668.6 127.4 669.3 128C670 128.6 670.9 128.9 671.9 128.9Z" fill="#77809C"/>
<path d="M684.8 132.1V112.6H689.2V115.8H689.4C689.8 114.7 690.4 113.8 691.2 113.2C692.1 112.6 693.1 112.3 694.2 112.3C694.5 112.3 694.7 112.3 695.1 112.3C695.5 112.3 695.7 112.4 695.9 112.4V116.6C695.7 116.5 695.4 116.5 695 116.4C694.6 116.3 694.2 116.3 693.8 116.3C693 116.3 692.2 116.5 691.6 116.8C690.9 117.2 690.4 117.7 690 118.3C689.6 118.9 689.4 119.7 689.4 120.5V131.9H684.8V132.1Z" fill="#77809C"/>
<path d="M707.1 139.4V112.6H711.6V115.8H711.9C712.1 115.3 712.5 114.8 712.9 114.3C713.3 113.8 713.9 113.3 714.6 112.9C715.3 112.5 716.3 112.3 717.4 112.3C718.9 112.3 720.3 112.7 721.5 113.4C722.7 114.1 723.7 115.3 724.4 116.8C725.1 118.3 725.5 120.1 725.5 122.3C725.5 124.4 725.1 126.3 724.4 127.8C723.7 129.3 722.7 130.4 721.5 131.2C720.3 132 718.9 132.4 717.4 132.4C716.3 132.4 715.4 132.2 714.6 131.8C713.9 131.4 713.3 131 712.8 130.5C712.4 130 712 129.5 711.8 129H711.6V139.4H707.1ZM711.6 122.4C711.6 123.7 711.8 124.8 712.1 125.7C712.5 126.6 713 127.4 713.7 127.9C714.4 128.4 715.2 128.7 716.2 128.7C717.2 128.7 718.1 128.4 718.7 127.9C719.4 127.4 719.9 126.6 720.3 125.7C720.7 124.7 720.8 123.7 720.8 122.4C720.8 121.2 720.6 120.1 720.3 119.2C720 118.3 719.4 117.5 718.8 117C718.1 116.5 717.3 116.2 716.2 116.2C715.2 116.2 714.4 116.5 713.7 117C713 117.5 712.5 118.2 712.1 119.2C711.7 120.1 711.6 121.2 711.6 122.4Z" fill="#77809C"/>
<path d="M729 132.1V112.6H733.4V115.8H733.6C734 114.7 734.6 113.8 735.4 113.2C736.3 112.6 737.3 112.3 738.4 112.3C738.7 112.3 738.9 112.3 739.3 112.3C739.7 112.3 739.9 112.4 740.1 112.4V116.6C739.9 116.5 739.6 116.5 739.2 116.4C738.8 116.3 738.4 116.3 738 116.3C737.2 116.3 736.4 116.5 735.8 116.8C735.1 117.2 734.6 117.7 734.2 118.3C733.8 118.9 733.6 119.7 733.6 120.5V131.9H729V132.1Z" fill="#77809C"/>
<path d="M751.3 132.5C749.4 132.5 747.8 132.1 746.4 131.2C745 130.4 743.9 129.2 743.2 127.7C742.5 126.2 742.1 124.4 742.1 122.4C742.1 120.4 742.5 118.6 743.2 117.1C744 115.6 745 114.4 746.4 113.6C747.8 112.8 749.4 112.3 751.3 112.3C753.2 112.3 754.8 112.7 756.2 113.6C757.6 114.4 758.7 115.6 759.4 117.1C760.2 118.6 760.5 120.4 760.5 122.4C760.5 124.4 760.1 126.2 759.4 127.7C758.7 129.2 757.6 130.4 756.2 131.2C754.8 132.1 753.2 132.5 751.3 132.5ZM751.3 128.9C752.3 128.9 753.2 128.6 753.9 128C754.6 127.4 755.1 126.7 755.5 125.7C755.9 124.7 756 123.7 756 122.5C756 121.3 755.8 120.2 755.5 119.3C755.2 118.3 754.6 117.6 753.9 117C753.2 116.4 752.3 116.1 751.3 116.1C750.2 116.1 749.4 116.4 748.7 117C748 117.6 747.5 118.3 747.1 119.3C746.8 120.3 746.6 121.3 746.6 122.5C746.6 123.7 746.8 124.8 747.1 125.7C747.4 126.6 748 127.4 748.7 128C749.4 128.6 750.3 128.9 751.3 128.9Z" fill="#77809C"/>
<path d="M764.1 112.7H768.7V133.3C768.7 134.7 768.4 135.9 767.9 136.8C767.4 137.7 766.6 138.4 765.6 138.8C764.6 139.2 763.4 139.5 761.9 139.5C761.7 139.5 761.6 139.5 761.4 139.5C761.2 139.5 761.1 139.5 760.9 139.5V135.8C761 135.8 761.1 135.8 761.2 135.8C761.3 135.8 761.4 135.8 761.5 135.8C762.4 135.8 763 135.6 763.4 135.2C763.8 134.8 764 134.1 764 133.3V112.7H764.1ZM766.4 109.9C765.7 109.9 765 109.7 764.5 109.2C764 108.7 763.7 108.1 763.7 107.4C763.7 106.7 764 106.1 764.5 105.6C765 105.1 765.6 104.9 766.4 104.9C767.1 104.9 767.8 105.1 768.3 105.6C768.8 106.1 769.1 106.7 769.1 107.4C769.1 108.1 768.8 108.7 768.3 109.2C767.8 109.7 767.2 109.9 766.4 109.9Z" fill="#77809C"/>
<path d="M781.7 132.5C779.7 132.5 778.1 132.1 776.6 131.3C775.2 130.5 774.1 129.3 773.3 127.8C772.5 126.3 772.2 124.5 772.2 122.5C772.2 120.5 772.6 118.7 773.3 117.2C774 115.7 775.1 114.5 776.5 113.7C777.9 112.9 779.5 112.4 781.4 112.4C782.6 112.4 783.7 112.6 784.8 113C785.9 113.4 786.8 114 787.6 114.8C788.4 115.6 789.1 116.6 789.5 117.9C790 119.1 790.2 120.6 790.2 122.3V123.7H774.2V120.6H786C786 119.7 785.8 118.9 785.4 118.2C785 117.5 784.5 117 783.8 116.6C783.1 116.2 782.4 116 781.5 116C780.6 116 779.7 116.2 779 116.7C778.3 117.2 777.7 117.7 777.3 118.5C776.9 119.2 776.7 120 776.7 120.9V123.6C776.7 124.7 776.9 125.7 777.3 126.5C777.7 127.3 778.3 127.9 779 128.4C779.7 128.9 780.6 129 781.6 129C782.3 129 782.9 128.9 783.4 128.7C783.9 128.5 784.4 128.2 784.8 127.9C785.2 127.5 785.5 127.1 785.7 126.5L790 127C789.7 128.1 789.2 129.1 788.5 130C787.8 130.9 786.8 131.5 785.6 132C784.6 132.3 783.2 132.5 781.7 132.5Z" fill="#77809C"/>
<path d="M802.4 132.5C800.5 132.5 798.8 132.1 797.4 131.2C796 130.3 794.9 129.2 794.2 127.7C793.5 126.2 793.1 124.5 793.1 122.5C793.1 120.5 793.5 118.8 794.2 117.3C794.9 115.8 796 114.6 797.4 113.8C798.8 113 800.4 112.5 802.3 112.5C803.9 112.5 805.3 112.8 806.5 113.4C807.7 114 808.7 114.8 809.4 115.8C810.1 116.9 810.5 118.1 810.6 119.5H806.2C806 118.6 805.6 117.8 804.9 117.1C804.2 116.5 803.4 116.2 802.2 116.2C801.3 116.2 800.4 116.5 799.7 117C799 117.5 798.4 118.2 798 119.2C797.6 120.1 797.4 121.3 797.4 122.6C797.4 123.9 797.6 125.1 798 126C798.4 127 798.9 127.7 799.6 128.2C800.3 128.7 801.1 129 802.1 129C802.8 129 803.4 128.9 803.9 128.6C804.4 128.3 804.9 128 805.2 127.5C805.5 127 805.8 126.4 805.9 125.7H810.3C810.2 127.1 809.8 128.3 809.1 129.4C808.4 130.5 807.4 131.3 806.2 131.9C805.4 132.2 804 132.5 802.4 132.5Z" fill="#77809C"/>
<path d="M823.9 112.7V116.2H812.7V112.7H823.9ZM815.4 108H820V126.3C820 126.9 820.1 127.4 820.3 127.7C820.5 128 820.7 128.2 821.1 128.4C821.4 128.5 821.8 128.6 822.1 128.6C822.4 128.6 822.7 128.6 822.9 128.5C823.1 128.4 823.3 128.4 823.5 128.4L824.3 132C824.1 132.1 823.7 132.2 823.3 132.3C822.9 132.4 822.3 132.5 821.6 132.5C820.5 132.5 819.4 132.4 818.5 132C817.6 131.6 816.9 131 816.3 130.2C815.8 129.4 815.5 128.4 815.5 127.2V108H815.4Z" fill="#77809C"/>
<path d="M842.7 117.8L838.5 118.3C838.4 117.9 838.2 117.5 837.9 117.1C837.6 116.7 837.2 116.4 836.7 116.2C836.2 116 835.6 115.9 834.9 115.9C833.9 115.9 833.1 116.1 832.5 116.5C831.9 116.9 831.5 117.5 831.5 118.1C831.5 118.7 831.7 119.1 832.1 119.5C832.5 119.9 833.2 120.1 834.2 120.4L837.5 121.1C839.3 121.5 840.7 122.1 841.6 123C842.5 123.9 843 125 843 126.4C843 127.6 842.6 128.7 841.9 129.6C841.2 130.5 840.2 131.3 839 131.8C837.7 132.3 836.3 132.6 834.7 132.6C832.3 132.6 830.4 132.1 828.9 131.1C827.4 130.1 826.6 128.7 826.3 126.9L830.8 126.5C831 127.4 831.4 128 832.1 128.5C832.8 128.9 833.6 129.2 834.7 129.2C835.8 129.2 836.7 129 837.3 128.5C838 128.1 838.3 127.5 838.3 126.8C838.3 126.2 838.1 125.8 837.7 125.4C837.3 125 836.6 124.8 835.7 124.6L832.4 123.9C830.5 123.5 829.2 122.9 828.3 121.9C827.4 121 827 119.8 827 118.4C827 117.2 827.3 116.2 828 115.3C828.7 114.4 829.6 113.7 830.8 113.2C832 112.7 833.4 112.5 834.9 112.5C837.2 112.5 839 113 840.3 114C841.6 115 842.4 116.2 842.7 117.8Z" fill="#77809C"/>
<path d="M857.4 109.9C856.7 109.9 856 109.7 855.5 109.2C855 108.7 854.7 108.1 854.7 107.4C854.7 106.7 855 106.1 855.5 105.6C856 105.1 856.6 104.9 857.4 104.9C858.1 104.9 858.8 105.1 859.3 105.6C859.8 106.1 860.1 106.7 860.1 107.4C860.1 108.1 859.8 108.7 859.3 109.2C858.8 109.7 858.1 109.9 857.4 109.9ZM855.1 132.1V112.6H859.7V132.1H855.1Z" fill="#77809C"/>
<path d="M868.6 120.7V132.1H864V112.6H868.4V115.9H868.6C869 114.8 869.8 113.9 870.7 113.3C871.6 112.7 872.9 112.3 874.4 112.3C875.7 112.3 876.9 112.6 877.9 113.2C878.9 113.8 879.7 114.6 880.2 115.7C880.8 116.8 881 118.1 881 119.7V132.1H876.4V120.4C876.4 119.1 876.1 118.1 875.4 117.3C874.7 116.5 873.8 116.2 872.6 116.2C871.8 116.2 871.1 116.4 870.5 116.7C869.9 117.1 869.4 117.6 869 118.2C868.8 119 868.6 119.8 868.6 120.7Z" fill="#77809C"/>
<path d="M896.2 109.9C895.5 109.9 894.8 109.7 894.3 109.2C893.8 108.7 893.5 108.1 893.5 107.4C893.5 106.7 893.8 106.1 894.3 105.6C894.8 105.1 895.4 104.9 896.2 104.9C896.9 104.9 897.6 105.1 898.1 105.6C898.6 106.1 898.9 106.7 898.9 107.4C898.9 108.1 898.6 108.7 898.1 109.2C897.6 109.7 897 109.9 896.2 109.9ZM893.9 132.1V112.6H898.5V132.1H893.9Z" fill="#242438"/>
<path d="M907.5 120.7V132.1H902.9V112.6H907.3V115.9H907.5C907.9 114.8 908.7 113.9 909.6 113.3C910.5 112.7 911.8 112.3 913.3 112.3C914.6 112.3 915.8 112.6 916.8 113.2C917.8 113.8 918.6 114.6 919.1 115.7C919.7 116.8 919.9 118.1 919.9 119.7V132.1H915.3V120.4C915.3 119.1 915 118.1 914.3 117.3C913.6 116.5 912.7 116.2 911.5 116.2C910.7 116.2 910 116.4 909.4 116.7C908.8 117.1 908.3 117.6 907.9 118.2C907.6 119 907.5 119.8 907.5 120.7Z" fill="#242438"/>
<path d="M934.1 112.7V116.2H922.6V112.7H934.1ZM925.5 132.1V110.8C925.5 109.5 925.8 108.4 926.3 107.5C926.8 106.6 927.6 106 928.5 105.5C929.4 105.1 930.4 104.9 931.6 104.9C932.4 104.9 933.1 105 933.7 105.1C934.3 105.2 934.8 105.3 935.1 105.4L934.2 108.9C934 108.8 933.8 108.8 933.5 108.7C933.2 108.6 932.9 108.6 932.5 108.6C931.6 108.6 931 108.8 930.7 109.2C930.3 109.6 930.2 110.2 930.2 111V132H925.5V132.1Z" fill="#242438"/>
<path d="M937.4 132.1V112.6H941.8V115.8H942C942.4 114.7 943 113.8 943.8 113.2C944.7 112.6 945.7 112.3 946.8 112.3C947.1 112.3 947.3 112.3 947.7 112.3C948.1 112.3 948.3 112.4 948.5 112.4V116.6C948.3 116.5 948 116.5 947.6 116.4C947.2 116.3 946.8 116.3 946.4 116.3C945.6 116.3 944.8 116.5 944.2 116.8C943.5 117.2 943 117.7 942.6 118.3C942.2 118.9 942 119.7 942 120.5V131.9H937.4V132.1Z" fill="#242438"/>
<path d="M956.8 132.5C955.6 132.5 954.5 132.3 953.5 131.8C952.5 131.3 951.7 130.7 951.2 129.8C950.7 128.9 950.3 127.9 950.3 126.6C950.3 125.5 950.5 124.6 950.9 123.9C951.3 123.2 951.9 122.6 952.6 122.2C953.3 121.8 954.1 121.4 955 121.2C955.9 121 956.8 120.8 957.7 120.7C958.8 120.6 959.8 120.5 960.5 120.4C961.2 120.3 961.7 120.2 962.1 119.9C962.5 119.6 962.6 119.4 962.6 118.9V118.8C962.6 117.8 962.3 117.1 961.8 116.6C961.2 116.1 960.4 115.8 959.4 115.8C958.3 115.8 957.4 116 956.7 116.5C956 117 955.6 117.6 955.4 118.2L951.1 117.6C951.4 116.4 952 115.4 952.8 114.6C953.6 113.8 954.5 113.2 955.7 112.8C956.8 112.4 958.1 112.2 959.4 112.2C960.3 112.2 961.3 112.3 962.2 112.5C963.1 112.7 964 113.1 964.7 113.6C965.5 114.1 966.1 114.8 966.6 115.6C967.1 116.5 967.3 117.5 967.3 118.8V131.8H962.9V129.1H962.7C962.4 129.6 962 130.1 961.5 130.6C961 131.1 960.4 131.4 959.6 131.7C958.7 132.4 957.8 132.5 956.8 132.5ZM958 129.2C958.9 129.2 959.7 129 960.4 128.6C961.1 128.2 961.6 127.7 962 127.1C962.4 126.5 962.6 125.8 962.6 125.1V122.8C962.5 122.9 962.2 123 961.9 123.1C961.6 123.2 961.2 123.3 960.8 123.4C960.4 123.5 960 123.5 959.5 123.6C959.1 123.7 958.7 123.7 958.4 123.8C957.7 123.9 957.1 124 956.6 124.3C956.1 124.5 955.6 124.8 955.3 125.2C955 125.6 954.8 126.1 954.8 126.7C954.8 127.5 955.1 128.2 955.7 128.6C956.2 129 957 129.2 958 129.2Z" fill="#242438"/>
<path d="M986.7 117.8L982.5 118.3C982.4 117.9 982.2 117.5 981.9 117.1C981.6 116.7 981.2 116.4 980.7 116.2C980.2 116 979.6 115.9 978.9 115.9C977.9 115.9 977.1 116.1 976.5 116.5C975.9 116.9 975.5 117.5 975.5 118.1C975.5 118.7 975.7 119.1 976.1 119.5C976.5 119.9 977.2 120.1 978.2 120.4L981.5 121.1C983.3 121.5 984.7 122.1 985.6 123C986.5 123.9 987 125 987 126.4C987 127.6 986.6 128.7 985.9 129.6C985.2 130.5 984.2 131.3 983 131.8C981.7 132.3 980.3 132.6 978.7 132.6C976.3 132.6 974.4 132.1 972.9 131.1C971.4 130.1 970.6 128.7 970.3 126.9L974.8 126.5C975 127.4 975.4 128 976.1 128.5C976.8 128.9 977.6 129.2 978.7 129.2C979.8 129.2 980.7 129 981.3 128.5C982 128.1 982.3 127.5 982.3 126.8C982.3 126.2 982.1 125.8 981.7 125.4C981.3 125 980.6 124.8 979.7 124.6L976.4 123.9C974.5 123.5 973.2 122.9 972.3 121.9C971.4 121 971 119.8 971 118.4C971 117.2 971.3 116.2 972 115.3C972.7 114.4 973.6 113.7 974.8 113.2C976 112.7 977.4 112.5 978.9 112.5C981.2 112.5 983 113 984.3 114C985.6 115 986.4 116.2 986.7 117.8Z" fill="#242438"/>
<path d="M1000.3 112.7V116.2H989.1V112.7H1000.3ZM991.9 108H996.5V126.3C996.5 126.9 996.6 127.4 996.8 127.7C997 128 997.2 128.2 997.6 128.4C997.9 128.5 998.3 128.6 998.6 128.6C998.9 128.6 999.2 128.6 999.4 128.5C999.6 128.4 999.8 128.4 1000 128.4L1000.8 132C1000.6 132.1 1000.2 132.2 999.8 132.3C999.4 132.4 998.8 132.5 998.1 132.5C997 132.5 995.9 132.4 995 132C994.1 131.6 993.4 131 992.8 130.2C992.3 129.4 992 128.4 992 127.2V108H991.9Z" fill="#242438"/>
<path d="M1003.8 132.1V112.6H1008.2V115.8H1008.4C1008.8 114.7 1009.4 113.8 1010.2 113.2C1011.1 112.6 1012.1 112.3 1013.2 112.3C1013.5 112.3 1013.7 112.3 1014.1 112.3C1014.5 112.3 1014.7 112.4 1014.9 112.4V116.6C1014.7 116.5 1014.4 116.5 1014 116.4C1013.6 116.3 1013.2 116.3 1012.8 116.3C1012 116.3 1011.2 116.5 1010.6 116.8C1009.9 117.2 1009.4 117.7 1009 118.3C1008.6 118.9 1008.4 119.7 1008.4 120.5V131.9H1003.8V132.1Z" fill="#242438"/>
<path d="M1030 124V112.7H1034.6V132.2H1030.2V128.7H1030C1029.6 129.8 1028.8 130.7 1027.8 131.4C1026.8 132.1 1025.6 132.4 1024.1 132.4C1022.8 132.4 1021.7 132.1 1020.7 131.5C1019.7 130.9 1019 130.1 1018.4 129C1017.8 127.9 1017.6 126.6 1017.6 125V112.6H1022.2V124.3C1022.2 125.5 1022.5 126.5 1023.2 127.2C1023.9 127.9 1024.8 128.3 1025.9 128.3C1026.6 128.3 1027.2 128.1 1027.9 127.8C1028.5 127.5 1029.1 127 1029.5 126.3C1029.8 125.8 1030 124.9 1030 124Z" fill="#242438"/>
<path d="M1047.4 132.5C1045.5 132.5 1043.8 132.1 1042.4 131.2C1041 130.3 1039.9 129.2 1039.2 127.7C1038.5 126.2 1038.1 124.5 1038.1 122.5C1038.1 120.5 1038.5 118.8 1039.2 117.3C1039.9 115.8 1041 114.6 1042.4 113.8C1043.8 113 1045.4 112.5 1047.3 112.5C1048.9 112.5 1050.3 112.8 1051.5 113.4C1052.7 114 1053.7 114.8 1054.4 115.8C1055.1 116.9 1055.5 118.1 1055.6 119.5H1051.2C1051 118.6 1050.6 117.8 1049.9 117.1C1049.2 116.5 1048.4 116.2 1047.2 116.2C1046.3 116.2 1045.4 116.5 1044.7 117C1044 117.5 1043.4 118.2 1043 119.2C1042.6 120.1 1042.4 121.3 1042.4 122.6C1042.4 123.9 1042.6 125.1 1043 126C1043.4 127 1043.9 127.7 1044.6 128.2C1045.3 128.7 1046.1 129 1047.1 129C1047.8 129 1048.4 128.9 1048.9 128.6C1049.4 128.3 1049.9 128 1050.2 127.5C1050.5 127 1050.8 126.4 1050.9 125.7H1055.3C1055.2 127.1 1054.8 128.3 1054.1 129.4C1053.4 130.5 1052.4 131.3 1051.2 131.9C1050.5 132.2 1049.1 132.5 1047.4 132.5Z" fill="#242438"/>
<path d="M1068.9 112.7V116.2H1057.7V112.7H1068.9ZM1060.5 108H1065.1V126.3C1065.1 126.9 1065.2 127.4 1065.4 127.7C1065.6 128 1065.8 128.2 1066.2 128.4C1066.5 128.5 1066.9 128.6 1067.2 128.6C1067.5 128.6 1067.8 128.6 1068 128.5C1068.2 128.4 1068.4 128.4 1068.6 128.4L1069.4 132C1069.2 132.1 1068.8 132.2 1068.4 132.3C1068 132.4 1067.4 132.5 1066.7 132.5C1065.6 132.5 1064.5 132.4 1063.6 132C1062.7 131.6 1062 131 1061.4 130.2C1060.9 129.4 1060.6 128.4 1060.6 127.2V108H1060.5Z" fill="#242438"/>
<path d="M1084.8 124V112.7H1089.4V132.2H1085V128.7H1084.8C1084.4 129.8 1083.6 130.7 1082.6 131.4C1081.6 132.1 1080.4 132.4 1078.9 132.4C1077.6 132.4 1076.5 132.1 1075.5 131.5C1074.5 130.9 1073.8 130.1 1073.2 129C1072.6 127.9 1072.4 126.6 1072.4 125V112.6H1077V124.3C1077 125.5 1077.3 126.5 1078 127.2C1078.7 127.9 1079.6 128.3 1080.7 128.3C1081.4 128.3 1082 128.1 1082.7 127.8C1083.3 127.5 1083.9 127 1084.3 126.3C1084.6 125.8 1084.8 124.9 1084.8 124Z" fill="#242438"/>
<path d="M1093.7 132.1V112.6H1098.1V115.8H1098.3C1098.7 114.7 1099.3 113.8 1100.1 113.2C1101 112.6 1102 112.3 1103.1 112.3C1103.4 112.3 1103.6 112.3 1104 112.3C1104.4 112.3 1104.6 112.4 1104.8 112.4V116.6C1104.6 116.5 1104.3 116.5 1103.9 116.4C1103.5 116.3 1103.1 116.3 1102.7 116.3C1101.9 116.3 1101.1 116.5 1100.5 116.8C1099.8 117.2 1099.3 117.7 1098.9 118.3C1098.5 118.9 1098.3 119.7 1098.3 120.5V131.9H1093.7V132.1Z" fill="#242438"/>
<path d="M1116.2 132.5C1114.2 132.5 1112.6 132.1 1111.1 131.3C1109.7 130.5 1108.6 129.3 1107.8 127.8C1107 126.3 1106.7 124.5 1106.7 122.5C1106.7 120.5 1107.1 118.7 1107.8 117.2C1108.5 115.7 1109.6 114.5 1111 113.7C1112.4 112.9 1114 112.4 1115.9 112.4C1117.1 112.4 1118.2 112.6 1119.3 113C1120.4 113.4 1121.3 114 1122.1 114.8C1122.9 115.6 1123.6 116.6 1124 117.9C1124.5 119.1 1124.7 120.6 1124.7 122.3V123.7H1108.7V120.6H1120.3C1120.3 119.7 1120.1 118.9 1119.7 118.2C1119.3 117.5 1118.8 117 1118.1 116.6C1117.4 116.2 1116.7 116 1115.8 116C1114.9 116 1114 116.2 1113.3 116.7C1112.6 117.2 1112 117.7 1111.6 118.5C1111.2 119.2 1111 120 1111 120.9V123.6C1111 124.7 1111.2 125.7 1111.6 126.5C1112 127.3 1112.6 127.9 1113.3 128.4C1114 128.9 1114.9 129 1115.9 129C1116.6 129 1117.2 128.9 1117.7 128.7C1118.2 128.5 1118.7 128.2 1119.1 127.9C1119.5 127.5 1119.8 127.1 1120 126.5L1124.3 127C1124 128.1 1123.5 129.1 1122.8 130C1122.1 130.9 1121.1 131.5 1119.9 132C1119 132.3 1117.7 132.5 1116.2 132.5Z" fill="#242438"/>
<path d="M1133.7 128.6L1133.5 130C1133.4 131.1 1133.2 132.1 1132.9 133.3C1132.6 134.5 1132.3 135.4 1132 136.3C1131.7 137.2 1131.4 138 1131.2 138.5H1128.1C1128.2 138 1128.4 137.3 1128.6 136.4C1128.8 135.5 1129 134.5 1129.2 133.4C1129.4 132.3 1129.5 131.2 1129.6 130L1129.7 128.6H1133.7Z" fill="#77809C"/>
<path d="M59.3 176.2V156.7H63.7001V159.9H63.9001C64.3001 158.8 64.9 157.9 65.7 157.3C66.6 156.7 67.6 156.4 68.7 156.4C69 156.4 69.2 156.4 69.6 156.4C69.9 156.4 70.2001 156.5 70.4001 156.5V160.7C70.2001 160.6 69.9 160.6 69.5 160.5C69.1 160.4 68.7001 160.4 68.3001 160.4C67.5001 160.4 66.7 160.6 66.1 160.9C65.4 161.3 64.9 161.8 64.5 162.4C64.1 163 63.9001 163.8 63.9001 164.6V176H59.3V176.2Z" fill="#242438"/>
<path d="M81.7 176.5C79.7 176.5 78.1 176.1 76.6 175.3C75.2 174.5 74.1 173.3 73.3 171.8C72.5 170.3 72.2 168.5 72.2 166.5C72.2 164.5 72.6 162.7 73.3 161.2C74 159.7 75.1 158.5 76.5 157.7C77.9 156.9 79.5 156.4 81.4 156.4C82.6 156.4 83.7 156.6 84.8 157C85.9 157.4 86.8 158 87.6 158.8C88.4 159.6 89.1 160.6 89.5 161.9C90 163.1 90.2 164.6 90.2 166.3V167.7H74.2V164.6H85.8C85.8 163.7 85.6 162.9 85.2 162.2C84.8 161.5 84.3 161 83.6 160.6C82.9 160.2 82.2 160 81.3 160C80.4 160 79.5 160.2 78.8 160.7C78.1 161.2 77.5 161.7 77.1 162.5C76.7 163.2 76.5 164 76.5 164.9V167.6C76.5 168.7 76.7 169.7 77.1 170.5C77.5 171.3 78.1 171.9 78.8 172.4C79.5 172.9 80.4 173 81.4 173C82.1 173 82.7 172.9 83.2 172.7C83.7 172.5 84.2 172.2 84.6 171.9C85 171.5 85.3 171.1 85.5 170.5L89.8 171C89.5 172.1 89 173.1 88.3 174C87.5 174.8 86.6 175.5 85.4 176C84.5 176.3 83.2 176.5 81.7 176.5Z" fill="#242438"/>
<path d="M98.4 164.8V176.2H93.8V156.7H98.2V160H98.4C98.8 158.9 99.6 158 100.5 157.4C101.4 156.8 102.7 156.4 104.2 156.4C105.5 156.4 106.7 156.7 107.7 157.3C108.7 157.9 109.5 158.7 110 159.8C110.6 160.9 110.8 162.2 110.8 163.8V176.2H106.2V164.5C106.2 163.2 105.9 162.2 105.2 161.4C104.5 160.6 103.6 160.3 102.4 160.3C101.6 160.3 100.9 160.5 100.3 160.8C99.7 161.2 99.2 161.7 98.8 162.3C98.6 163 98.4 163.8 98.4 164.8Z" fill="#242438"/>
<path d="M123.9 176.5C121.9 176.5 120.3 176.1 118.8 175.3C117.4 174.5 116.3 173.3 115.5 171.8C114.7 170.3 114.4 168.5 114.4 166.5C114.4 164.5 114.8 162.7 115.5 161.2C116.2 159.7 117.3 158.5 118.7 157.7C120.1 156.9 121.7 156.4 123.6 156.4C124.8 156.4 125.9 156.6 127 157C128.1 157.4 129 158 129.8 158.8C130.6 159.6 131.3 160.6 131.7 161.9C132.2 163.1 132.4 164.6 132.4 166.3V167.7H116.4V164.6H128C128 163.7 127.8 162.9 127.4 162.2C127 161.5 126.5 161 125.8 160.6C125.1 160.2 124.4 160 123.5 160C122.6 160 121.7 160.2 121 160.7C120.3 161.2 119.7 161.7 119.3 162.5C118.9 163.2 118.7 164 118.7 164.9V167.6C118.7 168.7 118.9 169.7 119.3 170.5C119.7 171.3 120.3 171.9 121 172.4C121.7 172.9 122.6 173 123.6 173C124.3 173 124.9 172.9 125.4 172.7C125.9 172.5 126.4 172.2 126.8 171.9C127.2 171.5 127.5 171.1 127.7 170.5L132 171C131.7 172.1 131.2 173.1 130.5 174C129.7 174.8 128.8 175.5 127.6 176C126.7 176.3 125.4 176.5 123.9 176.5Z" fill="#242438"/>
<path d="M140.1 176.2L134.6 156.7H139.3L142.7 170.4H142.9L146.4 156.7H151L154.5 170.3H154.7L158.1 156.7H162.8L157.3 176.2H152.5L148.9 163H148.6L144.9 176.2H140.1Z" fill="#242438"/>
<path d="M171.2 176.6C170 176.6 168.9 176.4 167.9 175.9C166.9 175.4 166.1 174.8 165.6 173.9C165.1 173 164.7 172 164.7 170.7C164.7 169.6 164.9 168.7 165.3 168C165.7 167.3 166.3 166.7 167 166.3C167.7 165.9 168.5 165.5 169.4 165.3C170.3 165.1 171.2 164.9 172.1 164.8C173.2 164.7 174.2 164.6 174.9 164.5C175.6 164.4 176.1 164.3 176.5 164C176.9 163.7 177 163.5 177 163C177 162 176.7 161.3 176.2 160.8C175.6 160.3 174.8 160 173.8 160C172.7 160 171.8 160.2 171.1 160.7C170.4 161.2 170 161.8 169.8 162.4L165.5 161.8C165.8 160.6 166.4 159.6 167.2 158.8C168 158 168.9 157.4 170.1 157C171.2 156.6 172.5 156.4 173.8 156.4C174.7 156.4 175.7 156.5 176.6 156.7C177.5 156.9 178.4 157.3 179.1 157.8C179.9 158.3 180.5 159 181 159.8C181.5 160.7 181.7 161.7 181.7 163V176H177V173.3H176.8C176.5 173.8 176.1 174.3 175.6 174.8C175.1 175.3 174.5 175.6 173.7 175.9C173.1 176.4 172.2 176.6 171.2 176.6ZM172.4 173.2C173.3 173.2 174.1 173 174.8 172.6C175.5 172.2 176 171.7 176.4 171.1C176.8 170.5 177 169.8 177 169.1V166.8C176.9 166.9 176.6 167 176.3 167.1C176 167.2 175.6 167.3 175.2 167.4C174.8 167.5 174.4 167.5 173.9 167.6C173.5 167.7 173.1 167.7 172.8 167.8C172.1 167.9 171.5 168 171 168.3C170.5 168.5 170 168.8 169.7 169.2C169.4 169.6 169.2 170.1 169.2 170.7C169.2 171.5 169.5 172.2 170.1 172.6C170.7 173 171.4 173.2 172.4 173.2Z" fill="#242438"/>
<path d="M185.9 176.2V150.2H190.5V159.9H190.7C190.9 159.4 191.3 158.9 191.7 158.4C192.1 157.9 192.7 157.4 193.4 157C194.1 156.6 195.1 156.4 196.2 156.4C197.7 156.4 199.1 156.8 200.3 157.5C201.5 158.2 202.5 159.4 203.2 160.9C203.9 162.4 204.3 164.2 204.3 166.4C204.3 168.5 203.9 170.4 203.2 171.8C202.5 173.3 201.5 174.4 200.3 175.2C199.1 176 197.7 176.4 196.2 176.4C195.1 176.4 194.2 176.2 193.4 175.8C192.7 175.4 192.1 175 191.6 174.5C191.2 174 190.8 173.5 190.6 173H190.3V176.1H185.9V176.2ZM190.4 166.4C190.4 167.7 190.6 168.8 190.9 169.7C191.3 170.6 191.8 171.4 192.5 171.9C193.2 172.4 194 172.7 195 172.7C196 172.7 196.9 172.4 197.5 171.9C198.2 171.4 198.7 170.6 199.1 169.7C199.5 168.7 199.6 167.7 199.6 166.5C199.6 165.3 199.4 164.2 199.1 163.3C198.8 162.4 198.2 161.6 197.6 161.1C196.9 160.6 196.1 160.3 195 160.3C194 160.3 193.2 160.6 192.5 161.1C191.8 161.6 191.3 162.3 190.9 163.3C190.5 164.3 190.4 165.2 190.4 166.4Z" fill="#242438"/>
<path d="M212.5 150.2V176.2H207.9V150.2H212.5Z" fill="#242438"/>
<path d="M225.4 176.5C223.4 176.5 221.8 176.1 220.3 175.3C218.9 174.5 217.8 173.3 217 171.8C216.2 170.3 215.9 168.5 215.9 166.5C215.9 164.5 216.3 162.7 217 161.2C217.7 159.7 218.8 158.5 220.2 157.7C221.6 156.9 223.2 156.4 225.1 156.4C226.3 156.4 227.4 156.6 228.5 157C229.6 157.4 230.5 158 231.3 158.8C232.1 159.6 232.8 160.6 233.2 161.9C233.7 163.1 233.9 164.6 233.9 166.3V167.7H217.9V164.6H229.5C229.5 163.7 229.3 162.9 228.9 162.2C228.5 161.5 228 161 227.3 160.6C226.6 160.2 225.9 160 225 160C224.1 160 223.2 160.2 222.5 160.7C221.8 161.2 221.2 161.7 220.8 162.5C220.4 163.2 220.2 164 220.2 164.9V167.6C220.2 168.7 220.4 169.7 220.8 170.5C221.2 171.3 221.8 171.9 222.5 172.4C223.2 172.9 224.1 173 225.1 173C225.8 173 226.4 172.9 226.9 172.7C227.4 172.5 227.9 172.2 228.3 171.9C228.7 171.5 229 171.1 229.2 170.5L233.5 171C233.2 172.1 232.7 173.1 232 174C231.2 174.8 230.3 175.5 229.1 176C228.3 176.3 226.9 176.5 225.4 176.5Z" fill="#242438"/>
<path d="M254.7 176.5C252.7 176.5 251.1 176.1 249.6 175.3C248.2 174.5 247.1 173.3 246.3 171.8C245.5 170.3 245.2 168.5 245.2 166.5C245.2 164.5 245.6 162.7 246.3 161.2C247 159.7 248.1 158.5 249.5 157.7C250.9 156.9 252.5 156.4 254.4 156.4C255.6 156.4 256.7 156.6 257.8 157C258.9 157.4 259.8 158 260.6 158.8C261.4 159.6 262.1 160.6 262.5 161.9C263 163.1 263.2 164.6 263.2 166.3V167.7H247.2V164.6H259C259 163.7 258.8 162.9 258.4 162.2C258 161.5 257.5 161 256.8 160.6C256.1 160.2 255.4 160 254.5 160C253.6 160 252.7 160.2 252 160.7C251.3 161.2 250.7 161.7 250.3 162.5C249.9 163.2 249.7 164 249.7 164.9V167.6C249.7 168.7 249.9 169.7 250.3 170.5C250.7 171.3 251.3 171.9 252 172.4C252.7 172.9 253.6 173 254.6 173C255.3 173 255.9 172.9 256.4 172.7C256.9 172.5 257.4 172.2 257.8 171.9C258.2 171.5 258.5 171.1 258.7 170.5L263 171C262.7 172.1 262.2 173.1 261.5 174C260.7 174.8 259.8 175.5 258.6 176C257.6 176.3 256.2 176.5 254.7 176.5Z" fill="#242438"/>
<path d="M271.5 164.8V176.2H266.9V156.7H271.3V160H271.5C271.9 158.9 272.7 158 273.6 157.4C274.5 156.8 275.8 156.4 277.3 156.4C278.6 156.4 279.8 156.7 280.8 157.3C281.8 157.9 282.6 158.7 283.1 159.8C283.7 160.9 283.9 162.2 283.9 163.8V176.2H279.3V164.5C279.3 163.2 279 162.2 278.3 161.4C277.6 160.6 276.7 160.3 275.5 160.3C274.7 160.3 274 160.5 273.4 160.8C272.8 161.2 272.3 161.7 271.9 162.3C271.7 163 271.5 163.8 271.5 164.8Z" fill="#242438"/>
<path d="M296.9 176.5C294.9 176.5 293.3 176.1 291.8 175.3C290.4 174.5 289.3 173.3 288.5 171.8C287.7 170.3 287.4 168.5 287.4 166.5C287.4 164.5 287.8 162.7 288.5 161.2C289.2 159.7 290.3 158.5 291.7 157.7C293.1 156.9 294.7 156.4 296.6 156.4C297.8 156.4 298.9 156.6 300 157C301.1 157.4 302 158 302.8 158.8C303.6 159.6 304.3 160.6 304.7 161.9C305.2 163.1 305.4 164.6 305.4 166.3V167.7H289.4V164.6H301C301 163.7 300.8 162.9 300.4 162.2C300 161.5 299.5 161 298.8 160.6C298.1 160.2 297.4 160 296.5 160C295.6 160 294.7 160.2 294 160.7C293.3 161.2 292.7 161.7 292.3 162.5C291.9 163.2 291.7 164 291.7 164.9V167.6C291.7 168.7 291.9 169.7 292.3 170.5C292.7 171.3 293.3 171.9 294 172.4C294.7 172.9 295.6 173 296.6 173C297.3 173 297.9 172.9 298.4 172.7C298.9 172.5 299.4 172.2 299.8 171.9C300.2 171.5 300.5 171.1 300.7 170.5L305 171C304.7 172.1 304.2 173.1 303.5 174C302.7 174.8 301.8 175.5 300.6 176C299.8 176.3 298.4 176.5 296.9 176.5Z" fill="#242438"/>
<path d="M309.1 176.2V156.7H313.5V159.9H313.7C314.1 158.8 314.7 157.9 315.5 157.3C316.4 156.7 317.4 156.4 318.5 156.4C318.8 156.4 319 156.4 319.4 156.4C319.7 156.4 320 156.5 320.2 156.5V160.7C320 160.6 319.7 160.6 319.3 160.5C318.9 160.4 318.5 160.4 318.1 160.4C317.3 160.4 316.5 160.6 315.9 160.9C315.2 161.3 314.7 161.8 314.3 162.4C313.9 163 313.7 163.8 313.7 164.6V176H309.1V176.2Z" fill="#242438"/>
<path d="M331.4 183.9C329.8 183.9 328.3 183.7 327.2 183.2C326 182.8 325.1 182.2 324.3 181.4C323.5 180.6 323.1 179.8 322.8 178.9L326.9 177.9C327.1 178.3 327.4 178.7 327.7 179C328.1 179.4 328.5 179.7 329.1 179.9C329.7 180.1 330.5 180.3 331.4 180.3C332.7 180.3 333.8 180 334.6 179.4C335.5 178.8 335.9 177.7 335.9 176.3V172.6H335.7C335.5 173.1 335.1 173.6 334.7 174.1C334.2 174.6 333.7 175 332.9 175.4C332.1 175.8 331.2 175.9 330.1 175.9C328.6 175.9 327.3 175.5 326 174.8C324.7 174.1 323.8 173 323.1 171.6C322.4 170.2 322 168.4 322 166.3C322 164.2 322.4 162.4 323.1 160.9C323.8 159.4 324.8 158.3 326 157.5C327.2 156.7 328.6 156.4 330.1 156.4C331.2 156.4 332.2 156.6 332.9 157C333.6 157.4 334.2 157.8 334.7 158.4C335.1 158.9 335.5 159.4 335.7 159.9H336V156.7H340.5V176.5C340.5 178.2 340.1 179.5 339.3 180.6C338.5 181.7 337.4 182.5 336 183C334.7 183.6 333.1 183.9 331.4 183.9ZM331.4 172.3C332.4 172.3 333.2 172.1 333.9 171.6C334.6 171.1 335.1 170.4 335.5 169.6C335.9 168.7 336 167.6 336 166.4C336 165.2 335.8 164.1 335.5 163.2C335.2 162.3 334.6 161.6 334 161.1C333.3 160.6 332.5 160.3 331.5 160.3C330.5 160.3 329.6 160.6 328.9 161.1C328.2 161.6 327.7 162.4 327.4 163.3C327.1 164.2 326.9 165.3 326.9 166.4C326.9 167.6 327.1 168.6 327.4 169.5C327.7 170.4 328.3 171.1 329 171.6C329.6 172 330.4 172.3 331.4 172.3Z" fill="#242438"/>
<path d="M347.7 183.5C347.1 183.5 346.5 183.5 346 183.4C345.5 183.3 345.1 183.2 344.7 183.1L345.8 179.5C346.5 179.7 347.1 179.8 347.6 179.8C348.1 179.8 348.6 179.6 349 179.3C349.4 179 349.7 178.5 350 177.7L350.4 176.6L343.3 156.7H348.2L352.7 171.4H352.9L357.4 156.7H362.3L354.5 178.5C354.1 179.5 353.7 180.4 353.1 181.2C352.5 182 351.8 182.5 350.9 182.9C350 183.3 348.9 183.5 347.7 183.5Z" fill="#242438"/>
<path d="M370.5 172.6L370.3 174C370.2 175.1 370 176.1 369.7 177.3C369.4 178.4 369.1 179.4 368.8 180.3C368.5 181.2 368.2 182 368 182.5H364.9C365 182 365.2 181.3 365.4 180.4C365.6 179.5 365.8 178.5 366 177.4C366.2 176.3 366.3 175.2 366.4 174L366.5 172.6H370.5Z" fill="#77809C"/>
<path d="M389.4 176.6C388.2 176.6 387.1 176.4 386.1 175.9C385.1 175.4 384.3 174.8 383.8 173.9C383.3 173 382.9 172 382.9 170.7C382.9 169.6 383.1 168.7 383.5 168C383.9 167.3 384.5 166.7 385.2 166.3C385.9 165.9 386.7 165.5 387.6 165.3C388.5 165.1 389.4 164.9 390.3 164.8C391.4 164.7 392.4 164.6 393.1 164.5C393.8 164.4 394.3 164.3 394.7 164C395.1 163.7 395.2 163.5 395.2 163C395.2 162 394.9 161.3 394.4 160.8C393.8 160.3 393 160 392 160C390.9 160 390 160.2 389.3 160.7C388.6 161.2 388.2 161.8 388 162.4L383.7 161.8C384 160.6 384.6 159.6 385.4 158.8C386.2 158 387.1 157.4 388.3 157C389.4 156.6 390.7 156.4 392 156.4C392.9 156.4 393.9 156.5 394.8 156.7C395.7 156.9 396.6 157.3 397.3 157.8C398.1 158.3 398.7 159 399.2 159.8C399.7 160.7 399.9 161.7 399.9 163V176H395.5V173.3H395.3C395 173.8 394.6 174.3 394.1 174.8C393.6 175.3 393 175.6 392.2 175.9C391.2 176.4 390.4 176.6 389.4 176.6ZM390.5 173.2C391.4 173.2 392.2 173 392.9 172.6C393.6 172.2 394.1 171.7 394.5 171.1C394.9 170.5 395.1 169.8 395.1 169.1V166.8C395 166.9 394.7 167 394.4 167.1C394.1 167.2 393.7 167.3 393.3 167.4C392.9 167.5 392.5 167.5 392 167.6C391.6 167.7 391.2 167.7 390.9 167.8C390.2 167.9 389.6 168 389.1 168.3C388.6 168.5 388.1 168.8 387.8 169.2C387.5 169.6 387.3 170.1 387.3 170.7C387.3 171.5 387.6 172.2 388.2 172.6C388.8 173 389.6 173.2 390.5 173.2Z" fill="#242438"/>
<path d="M412.4 183.9C410.8 183.9 409.3 183.7 408.2 183.2C407 182.8 406.1 182.2 405.3 181.4C404.5 180.6 404.1 179.8 403.8 178.9L407.9 177.9C408.1 178.3 408.4 178.7 408.7 179C409.1 179.4 409.5 179.7 410.1 179.9C410.7 180.1 411.5 180.3 412.4 180.3C413.7 180.3 414.8 180 415.6 179.4C416.5 178.8 416.9 177.7 416.9 176.3V172.6H416.7C416.5 173.1 416.1 173.6 415.7 174.1C415.2 174.6 414.7 175 413.9 175.4C413.1 175.8 412.2 175.9 411.1 175.9C409.6 175.9 408.3 175.5 407 174.8C405.7 174.1 404.8 173 404.1 171.6C403.4 170.2 403 168.4 403 166.3C403 164.2 403.4 162.4 404.1 160.9C404.8 159.4 405.8 158.3 407 157.5C408.2 156.7 409.6 156.4 411.1 156.4C412.2 156.4 413.2 156.6 413.9 157C414.6 157.4 415.2 157.8 415.7 158.4C416.1 158.9 416.5 159.4 416.7 159.9H417V156.7H421.5V176.5C421.5 178.2 421.1 179.5 420.3 180.6C419.5 181.7 418.4 182.5 417 183C415.7 183.6 414.1 183.9 412.4 183.9ZM412.4 172.3C413.4 172.3 414.2 172.1 414.9 171.6C415.6 171.1 416.1 170.4 416.5 169.6C416.9 168.7 417 167.6 417 166.4C417 165.2 416.8 164.1 416.5 163.2C416.2 162.3 415.6 161.6 415 161.1C414.3 160.6 413.5 160.3 412.5 160.3C411.5 160.3 410.6 160.6 409.9 161.1C409.2 161.6 408.7 162.4 408.4 163.3C408.1 164.2 407.9 165.3 407.9 166.4C407.9 167.6 408.1 168.6 408.4 169.5C408.7 170.4 409.3 171.1 410 171.6C410.6 172 411.4 172.3 412.4 172.3Z" fill="#242438"/>
<path d="M425.9 176.2V156.7H430.3V159.9H430.5C430.9 158.8 431.5 157.9 432.3 157.3C433.2 156.7 434.2 156.4 435.3 156.4C435.6 156.4 435.8 156.4 436.2 156.4C436.5 156.4 436.8 156.5 437 156.5V160.7C436.8 160.6 436.5 160.6 436.1 160.5C435.7 160.4 435.3 160.4 434.9 160.4C434.1 160.4 433.3 160.6 432.7 160.9C432 161.3 431.5 161.8 431.1 162.4C430.7 163 430.5 163.8 430.5 164.6V176H425.9V176.2Z" fill="#242438"/>
<path d="M442 153.9C441.3 153.9 440.6 153.7 440.1 153.2C439.6 152.7 439.3 152.1 439.3 151.4C439.3 150.7 439.6 150.1 440.1 149.6C440.6 149.1 441.2 148.9 442 148.9C442.7 148.9 443.4 149.1 443.9 149.6C444.4 150.1 444.7 150.7 444.7 151.4C444.7 152.1 444.4 152.7 443.9 153.2C443.3 153.7 442.7 153.9 442 153.9ZM439.7 176.2V156.7H444.3V176.2H439.7Z" fill="#242438"/>
<path d="M457.1 176.5C455.2 176.5 453.5 176.1 452.1 175.2C450.7 174.3 449.6 173.2 448.9 171.7C448.2 170.2 447.8 168.5 447.8 166.5C447.8 164.5 448.2 162.8 448.9 161.3C449.6 159.8 450.7 158.6 452.1 157.8C453.5 157 455.1 156.5 457 156.5C458.6 156.5 460 156.8 461.2 157.4C462.4 158 463.4 158.8 464.1 159.8C464.8 160.9 465.2 162.1 465.3 163.5H460.9C460.7 162.6 460.3 161.8 459.6 161.1C458.9 160.5 458.1 160.2 456.9 160.2C456 160.2 455.1 160.5 454.4 161C453.7 161.5 453.1 162.2 452.7 163.2C452.3 164.1 452.1 165.3 452.1 166.6C452.1 167.9 452.3 169.1 452.7 170C453.1 171 453.6 171.7 454.3 172.2C455 172.7 455.8 173 456.8 173C457.5 173 458.1 172.9 458.6 172.6C459.1 172.3 459.6 172 459.9 171.5C460.3 171 460.5 170.4 460.6 169.7H465C464.9 171.1 464.5 172.3 463.8 173.4C463.1 174.5 462.1 175.3 460.9 175.9C460.1 176.2 458.7 176.5 457.1 176.5Z" fill="#242438"/>
<path d="M481.3 168V156.7H485.9V176.2H481.5V172.7H481.3C480.9 173.8 480.1 174.7 479.1 175.4C478.1 176.1 476.9 176.4 475.4 176.4C474.1 176.4 473 176.1 472 175.5C471 174.9 470.3 174.1 469.7 173C469.2 171.9 468.9 170.6 468.9 169V156.6H473.5V168.3C473.5 169.5 473.8 170.5 474.5 171.2C475.2 171.9 476.1 172.3 477.2 172.3C477.9 172.3 478.5 172.1 479.2 171.8C479.8 171.5 480.4 171 480.8 170.3C481.1 169.8 481.3 169 481.3 168Z" fill="#242438"/>
<path d="M494.8 150.2V176.2H490.2V150.2H494.8Z" fill="#242438"/>
<path d="M508.9 156.7V160.2H497.7V156.7H508.9ZM500.5 152H505.1V170.3C505.1 170.9 505.2 171.4 505.4 171.7C505.6 172 505.8 172.2 506.2 172.4C506.5 172.5 506.9 172.6 507.2 172.6C507.5 172.6 507.8 172.6 508 172.5C508.2 172.5 508.4 172.4 508.6 172.4L509.4 176C509.2 176.1 508.8 176.2 508.4 176.3C508 176.4 507.4 176.5 506.7 176.5C505.6 176.5 504.5 176.4 503.6 176C502.7 175.6 502 175 501.4 174.2C500.9 173.4 500.6 172.4 500.6 171.2V152H500.5Z" fill="#242438"/>
<path d="M524.8 168V156.7H529.4V176.2H525V172.7H524.8C524.4 173.8 523.6 174.7 522.6 175.4C521.6 176.1 520.4 176.4 518.9 176.4C517.6 176.4 516.5 176.1 515.5 175.5C514.5 174.9 513.8 174.1 513.2 173C512.7 171.9 512.4 170.6 512.4 169V156.6H517V168.3C517 169.5 517.3 170.5 518 171.2C518.7 171.9 519.6 172.3 520.7 172.3C521.4 172.3 522 172.1 522.7 171.8C523.3 171.5 523.9 171 524.3 170.3C524.6 169.8 524.8 169 524.8 168Z" fill="#242438"/>
<path d="M533.7 176.2V156.7H538.1V159.9H538.3C538.7 158.8 539.3 157.9 540.1 157.3C541 156.7 542 156.4 543.1 156.4C543.4 156.4 543.6 156.4 544 156.4C544.3 156.4 544.6 156.5 544.8 156.5V160.7C544.6 160.6 544.3 160.6 543.9 160.5C543.5 160.4 543.1 160.4 542.7 160.4C541.9 160.4 541.1 160.6 540.5 160.9C539.8 161.3 539.3 161.8 538.9 162.4C538.5 163 538.3 163.8 538.3 164.6V176H533.7V176.2Z" fill="#242438"/>
<path d="M556.1 176.5C554.1 176.5 552.5 176.1 551 175.3C549.6 174.5 548.5 173.3 547.7 171.8C546.9 170.3 546.6 168.5 546.6 166.5C546.6 164.5 547 162.7 547.7 161.2C548.4 159.7 549.5 158.5 550.9 157.7C552.3 156.9 553.9 156.4 555.8 156.4C557 156.4 558.1 156.6 559.2 157C560.3 157.4 561.2 158 562 158.8C562.8 159.6 563.5 160.6 563.9 161.9C564.4 163.1 564.6 164.6 564.6 166.3V167.7H548.6V164.6H560.2C560.2 163.7 560 162.9 559.6 162.2C559.2 161.5 558.7 161 558 160.6C557.3 160.2 556.6 160 555.7 160C554.8 160 553.9 160.2 553.2 160.7C552.5 161.2 551.9 161.7 551.5 162.5C551.1 163.2 550.9 164 550.9 164.9V167.6C550.9 168.7 551.1 169.7 551.5 170.5C551.9 171.3 552.5 171.9 553.2 172.4C553.9 172.9 554.8 173 555.8 173C556.5 173 557.1 172.9 557.6 172.7C558.1 172.5 558.6 172.2 559 171.9C559.4 171.5 559.7 171.1 559.9 170.5L564.2 171C563.9 172.1 563.4 173.1 562.7 174C561.9 174.8 561 175.5 559.8 176C559 176.3 557.6 176.5 556.1 176.5Z" fill="#242438"/>
<path d="M582.4 176.6C581.2 176.6 580.1 176.4 579.1 175.9C578.1 175.4 577.3 174.8 576.8 173.9C576.3 173 575.9 172 575.9 170.7C575.9 169.6 576.1 168.7 576.5 168C576.9 167.3 577.5 166.7 578.2 166.3C578.9 165.9 579.7 165.5 580.6 165.3C581.5 165.1 582.4 164.9 583.3 164.8C584.4 164.7 585.4 164.6 586.1 164.5C586.8 164.4 587.3 164.3 587.7 164C588.1 163.7 588.2 163.5 588.2 163C588.2 162 587.9 161.3 587.4 160.8C586.8 160.3 586 160 585 160C583.9 160 583 160.2 582.3 160.7C581.6 161.2 581.2 161.8 581 162.4L576.7 161.8C577 160.6 577.6 159.6 578.4 158.8C579.2 158 580.1 157.4 581.3 157C582.4 156.6 583.7 156.4 585 156.4C585.9 156.4 586.9 156.5 587.8 156.7C588.7 156.9 589.6 157.3 590.3 157.8C591.1 158.3 591.7 159 592.2 159.8C592.7 160.7 592.9 161.7 592.9 163V176H588.5V173.3H588.3C588 173.8 587.6 174.3 587.1 174.8C586.6 175.3 586 175.6 585.2 175.9C584.3 176.4 583.4 176.6 582.4 176.6ZM583.6 173.2C584.5 173.2 585.3 173 586 172.6C586.7 172.2 587.2 171.7 587.6 171.1C588 170.5 588.2 169.8 588.2 169.1V166.8C588.1 166.9 587.8 167 587.5 167.1C587.2 167.2 586.8 167.3 586.4 167.4C586 167.5 585.6 167.5 585.1 167.6C584.7 167.7 584.3 167.7 584 167.8C583.3 167.9 582.7 168 582.2 168.3C581.7 168.5 581.2 168.8 580.9 169.2C580.6 169.6 580.4 170.1 580.4 170.7C580.4 171.5 580.7 172.2 581.3 172.6C581.9 173 582.7 173.2 583.6 173.2Z" fill="#77809C"/>
<path d="M601.6 164.8V176.2H597V156.7H601.4V160H601.6C602 158.9 602.8 158 603.7 157.4C604.6 156.8 605.9 156.4 607.4 156.4C608.7 156.4 609.9 156.7 610.9 157.3C611.9 157.9 612.7 158.7 613.2 159.8C613.8 160.9 614 162.2 614 163.8V176.2H609.4V164.5C609.4 163.2 609.1 162.2 608.4 161.4C607.7 160.6 606.8 160.3 605.6 160.3C604.8 160.3 604.1 160.5 603.5 160.8C602.9 161.2 602.4 161.7 602 162.3C601.7 163 601.6 163.8 601.6 164.8Z" fill="#77809C"/>
<path d="M625.6 176.5C624.1 176.5 622.7 176.1 621.5 175.3C620.3 174.5 619.3 173.4 618.6 171.9C617.9 170.4 617.5 168.6 617.5 166.5C617.5 164.3 617.9 162.5 618.6 161C619.3 159.5 620.3 158.4 621.5 157.6C622.7 156.8 624.1 156.5 625.6 156.5C626.7 156.5 627.7 156.7 628.4 157.1C629.1 157.5 629.7 157.9 630.1 158.5C630.5 159 630.9 159.5 631.1 160H631.3V150.3H635.9V176.3H631.4V173.2H631.1C630.9 173.7 630.5 174.2 630.1 174.7C629.7 175.2 629.1 175.7 628.3 176C627.6 176.3 626.7 176.5 625.6 176.5ZM626.9 172.7C627.9 172.7 628.7 172.4 629.4 171.9C630.1 171.4 630.6 170.6 631 169.7C631.4 168.8 631.5 167.7 631.5 166.4C631.5 165.1 631.3 164 631 163.1C630.7 162.2 630.1 161.4 629.5 160.9C628.8 160.4 628 160.1 627 160.1C626 160.1 625.1 160.4 624.4 160.9C623.7 161.4 623.2 162.2 622.9 163.1C622.6 164 622.4 165.1 622.4 166.3C622.4 167.5 622.6 168.6 622.9 169.5C623.3 170.5 623.8 171.2 624.5 171.7C625 172.5 625.9 172.7 626.9 172.7Z" fill="#77809C"/>
<path d="M653.6 164.8V176.2H649V150.2H653.5V160H653.7C654.2 158.9 654.9 158 655.8 157.4C656.8 156.8 658 156.4 659.5 156.4C660.9 156.4 662 156.7 663 157.2C664 157.7 664.8 158.6 665.3 159.7C665.8 160.8 666.1 162.1 666.1 163.7V176.1H661.5V164.4C661.5 163.1 661.2 162.1 660.5 161.3C659.8 160.6 658.9 160.2 657.7 160.2C656.9 160.2 656.2 160.4 655.5 160.7C654.9 161.1 654.4 161.6 654 162.2C653.8 163 653.6 163.8 653.6 164.8Z" fill="#242438"/>
<path d="M679.1 176.5C677.1 176.5 675.5 176.1 674 175.3C672.6 174.5 671.5 173.3 670.7 171.8C669.9 170.3 669.6 168.5 669.6 166.5C669.6 164.5 670 162.7 670.7 161.2C671.4 159.7 672.5 158.5 673.9 157.7C675.3 156.9 676.9 156.4 678.8 156.4C680 156.4 681.1 156.6 682.2 157C683.3 157.4 684.2 158 685 158.8C685.8 159.6 686.5 160.6 686.9 161.9C687.4 163.1 687.6 164.6 687.6 166.3V167.7H671.6V164.6H683.2C683.2 163.7 683 162.9 682.6 162.2C682.2 161.5 681.7 161 681 160.6C680.3 160.2 679.6 160 678.7 160C677.8 160 676.9 160.2 676.2 160.7C675.5 161.2 674.9 161.7 674.5 162.5C674.1 163.2 673.9 164 673.9 164.9V167.6C673.9 168.7 674.1 169.7 674.5 170.5C674.9 171.3 675.5 171.9 676.2 172.4C676.9 172.9 677.8 173 678.8 173C679.5 173 680.1 172.9 680.6 172.7C681.1 172.5 681.6 172.2 682 171.9C682.4 171.5 682.7 171.1 682.9 170.5L687.2 171C686.9 172.1 686.4 173.1 685.7 174C684.9 174.8 684 175.5 682.8 176C682 176.3 680.7 176.5 679.1 176.5Z" fill="#242438"/>
<path d="M696.9 176.6C695.7 176.6 694.6 176.4 693.6 175.9C692.6 175.4 691.8 174.8 691.3 173.9C690.8 173 690.4 172 690.4 170.7C690.4 169.6 690.6 168.7 691 168C691.4 167.3 692 166.7 692.7 166.3C693.4 165.9 694.2 165.5 695.1 165.3C696 165.1 696.9 164.9 697.8 164.8C698.9 164.7 699.9 164.6 700.6 164.5C701.3 164.4 701.8 164.3 702.2 164C702.6 163.7 702.7 163.5 702.7 163C702.7 162 702.4 161.3 701.9 160.8C701.3 160.3 700.5 160 699.5 160C698.4 160 697.5 160.2 696.8 160.7C696.1 161.2 695.7 161.8 695.5 162.4L691.2 161.8C691.5 160.6 692.1 159.6 692.9 158.8C693.7 158 694.6 157.4 695.8 157C696.9 156.6 698.2 156.4 699.5 156.4C700.4 156.4 701.4 156.5 702.3 156.7C703.2 156.9 704.1 157.3 704.8 157.8C705.6 158.3 706.2 159 706.7 159.8C707.2 160.7 707.4 161.7 707.4 163V176H703V173.3H702.8C702.5 173.8 702.1 174.3 701.6 174.8C701.1 175.3 700.5 175.6 699.7 175.9C698.8 176.4 697.9 176.6 696.9 176.6ZM698.1 173.2C699 173.2 699.8 173 700.5 172.6C701.2 172.2 701.7 171.7 702.1 171.1C702.5 170.5 702.7 169.8 702.7 169.1V166.8C702.6 166.9 702.3 167 702 167.1C701.7 167.2 701.3 167.3 700.9 167.4C700.5 167.5 700.1 167.5 699.6 167.6C699.2 167.7 698.8 167.7 698.5 167.8C697.8 167.9 697.2 168 696.7 168.3C696.2 168.5 695.7 168.8 695.4 169.2C695.1 169.6 694.9 170.1 694.9 170.7C694.9 171.5 695.2 172.2 695.8 172.6C696.4 173 697.2 173.2 698.1 173.2Z" fill="#242438"/>
<path d="M716.1 150.2V176.2H711.5V150.2H716.1Z" fill="#242438"/>
<path d="M730.1 156.7V160.2H719V156.7H730.1ZM721.7 152H726.3V170.3C726.3 170.9 726.4 171.4 726.6 171.7C726.8 172 727 172.2 727.4 172.4C727.7 172.5 728.1 172.6 728.4 172.6C728.7 172.6 729 172.6 729.2 172.5C729.4 172.5 729.6 172.4 729.8 172.4L730.6 176C730.4 176.1 730 176.2 729.6 176.3C729.2 176.4 728.6 176.5 727.9 176.5C726.8 176.5 725.7 176.4 724.8 176C723.9 175.6 723.2 175 722.6 174.2C722.1 173.4 721.8 172.4 721.8 171.2V152H721.7Z" fill="#242438"/>
<path d="M738.2 164.8V176.2H733.6V150.2H738.1V160H738.3C738.8 158.9 739.5 158 740.4 157.4C741.4 156.8 742.6 156.4 744.1 156.4C745.5 156.4 746.6 156.7 747.6 157.2C748.6 157.7 749.4 158.6 749.9 159.7C750.4 160.8 750.7 162.1 750.7 163.7V176.1H746.1V164.4C746.1 163.1 745.8 162.1 745.1 161.3C744.4 160.6 743.5 160.2 742.3 160.2C741.5 160.2 740.8 160.4 740.1 160.7C739.5 161.1 739 161.6 738.6 162.2C738.4 163 738.2 163.8 738.2 164.8Z" fill="#242438"/>
<path d="M763.6 176.5C761.7 176.5 760 176.1 758.6 175.2C757.2 174.3 756.1 173.2 755.4 171.7C754.7 170.2 754.3 168.5 754.3 166.5C754.3 164.5 754.7 162.8 755.4 161.3C756.1 159.8 757.2 158.6 758.6 157.8C760 157 761.6 156.5 763.5 156.5C765.1 156.5 766.5 156.8 767.7 157.4C768.9 158 769.9 158.8 770.6 159.8C771.3 160.9 771.7 162.1 771.8 163.5H767.4C767.2 162.6 766.8 161.8 766.1 161.1C765.4 160.5 764.6 160.2 763.4 160.2C762.5 160.2 761.6 160.5 760.9 161C760.2 161.5 759.6 162.2 759.2 163.2C758.8 164.1 758.6 165.3 758.6 166.6C758.6 167.9 758.8 169.1 759.2 170C759.6 171 760.1 171.7 760.8 172.2C761.5 172.7 762.3 173 763.3 173C764 173 764.6 172.9 765.1 172.6C765.6 172.3 766.1 172 766.4 171.5C766.8 171 767 170.4 767.1 169.7H771.5C771.4 171.1 771 172.3 770.3 173.4C769.6 174.5 768.6 175.3 767.4 175.9C766.7 176.2 765.3 176.5 763.6 176.5Z" fill="#242438"/>
<path d="M781 176.6C779.8 176.6 778.7 176.4 777.7 175.9C776.7 175.4 775.9 174.8 775.4 173.9C774.9 173 774.5 172 774.5 170.7C774.5 169.6 774.7 168.7 775.1 168C775.5 167.3 776.1 166.7 776.8 166.3C777.5 165.9 778.3 165.5 779.2 165.3C780.1 165.1 781 164.9 781.9 164.8C783 164.7 784 164.6 784.7 164.5C785.4 164.4 785.9 164.3 786.3 164C786.7 163.7 786.8 163.5 786.8 163C786.8 162 786.5 161.3 786 160.8C785.4 160.3 784.6 160 783.6 160C782.5 160 781.6 160.2 780.9 160.7C780.2 161.2 779.8 161.8 779.6 162.4L775.3 161.8C775.6 160.6 776.2 159.6 777 158.8C777.8 158 778.7 157.4 779.9 157C781 156.6 782.3 156.4 783.6 156.4C784.5 156.4 785.5 156.5 786.4 156.7C787.3 156.9 788.2 157.3 788.9 157.8C789.7 158.3 790.3 159 790.8 159.8C791.3 160.7 791.5 161.7 791.5 163V176H787.1V173.3H786.9C786.6 173.8 786.2 174.3 785.7 174.8C785.2 175.3 784.6 175.6 783.8 175.9C782.9 176.4 782 176.6 781 176.6ZM782.2 173.2C783.1 173.2 783.9 173 784.6 172.6C785.3 172.2 785.8 171.7 786.2 171.1C786.6 170.5 786.8 169.8 786.8 169.1V166.8C786.7 166.9 786.4 167 786.1 167.1C785.8 167.2 785.4 167.3 785 167.4C784.6 167.5 784.2 167.5 783.7 167.6C783.3 167.7 782.9 167.7 782.6 167.8C781.9 167.9 781.3 168 780.8 168.3C780.3 168.5 779.8 168.8 779.5 169.2C779.2 169.6 779 170.1 779 170.7C779 171.5 779.3 172.2 779.9 172.6C780.5 173 781.2 173.2 782.2 173.2Z" fill="#242438"/>
<path d="M795.5 176.2V156.7H799.9V159.9H800.1C800.5 158.8 801.1 157.9 801.9 157.3C802.8 156.7 803.8 156.4 804.9 156.4C805.2 156.4 805.4 156.4 805.8 156.4C806.1 156.4 806.4 156.5 806.6 156.5V160.7C806.4 160.6 806.1 160.6 805.7 160.5C805.3 160.4 804.9 160.4 804.5 160.4C803.7 160.4 802.9 160.6 802.3 160.9C801.6 161.3 801.1 161.8 800.7 162.4C800.3 163 800.1 163.8 800.1 164.6V176H795.5V176.2Z" fill="#242438"/>
<path d="M818 176.5C816 176.5 814.4 176.1 812.9 175.3C811.5 174.5 810.4 173.3 809.6 171.8C808.8 170.3 808.5 168.5 808.5 166.5C808.5 164.5 808.9 162.7 809.6 161.2C810.3 159.7 811.4 158.5 812.8 157.7C814.2 156.9 815.8 156.4 817.7 156.4C818.9 156.4 820 156.6 821.1 157C822.2 157.4 823.1 158 823.9 158.8C824.7 159.6 825.4 160.6 825.8 161.9C826.3 163.1 826.5 164.6 826.5 166.3V167.7H810.5V164.6H822.1C822.1 163.7 821.9 162.9 821.5 162.2C821.1 161.5 820.6 161 819.9 160.6C819.2 160.2 818.5 160 817.6 160C816.7 160 815.8 160.2 815.1 160.7C814.4 161.2 813.8 161.7 813.4 162.5C813 163.2 812.8 164 812.8 164.9V167.6C812.8 168.7 813 169.7 813.4 170.5C813.8 171.3 814.4 171.9 815.1 172.4C815.8 172.9 816.7 173 817.7 173C818.4 173 819 172.9 819.5 172.7C820 172.5 820.5 172.2 820.9 171.9C821.3 171.5 821.6 171.1 821.8 170.5L826.1 171C825.8 172.1 825.3 173.1 824.6 174C823.8 174.8 822.9 175.5 821.7 176C820.8 176.3 819.5 176.5 818 176.5Z" fill="#242438"/>
<path d="M833 176.4C832.2 176.4 831.6 176.1 831 175.6C830.4 175.1 830.2 174.4 830.2 173.6C830.2 172.8 830.5 172.2 831 171.6C831.5 171.1 832.2 170.8 833 170.8C833.7 170.8 834.4 171.1 834.9 171.6C835.5 172.1 835.7 172.8 835.7 173.6C835.7 174.1 835.6 174.6 835.3 175C835 175.4 834.7 175.8 834.3 176C833.9 176.3 833.5 176.4 833 176.4Z" fill="#77809C"/>
</g>
<mask id="mask1_1_133" style="mask-type:luminance" maskUnits="userSpaceOnUse" x="0" y="0" width="1521" height="255">
<path d="M1521 0H0V255H1521V0Z" fill="white"/>
</mask>
<g mask="url(#mask1_1_133)">
<path d="M589.8 68C625.7 68 654.8 38.9 654.8 3H524.8C524.8 38.9 553.9 68 589.8 68Z" fill="#F2FCFF"/>
</g>
<mask id="mask2_1_133" style="mask-type:luminance" maskUnits="userSpaceOnUse" x="0" y="0" width="1521" height="255">
<path d="M1521 0H0V255H1521V0Z" fill="white"/>
</mask>
<g mask="url(#mask2_1_133)">
<path d="M1163.8 217.2C1141.3 217.2 1123 235.5 1123 258H1204.6C1204.6 235.5 1186.3 217.2 1163.8 217.2Z" fill="#F2FCFF"/>
</g>
<mask id="mask3_1_133" style="mask-type:luminance" maskUnits="userSpaceOnUse" x="0" y="0" width="1521" height="255">
<path d="M1521 0H0V255H1521V0Z" fill="white"/>
</mask>
<g mask="url(#mask3_1_133)">
<path d="M57 67.7C65.0634 67.7 71.6 61.1634 71.6 53.1C71.6 45.0366 65.0634 38.5 57 38.5C48.9367 38.5 42.4 45.0366 42.4 53.1C42.4 61.1634 48.9367 67.7 57 67.7Z" fill="#F9FEFA"/>
</g>
<mask id="mask4_1_133" style="mask-type:luminance" maskUnits="userSpaceOnUse" x="0" y="0" width="1521" height="255">
<path d="M1521 0H0V255H1521V0Z" fill="white"/>
</mask>
<g mask="url(#mask4_1_133)">
<path d="M1211 84.9L1204.6 80.1L1209.3 73.7L1206.1 71.4L1201.4 77.8L1195.1 73.2L1192.8 76.4L1199 81L1194.4 87.2L1197.6 89.6L1202.2 83.4L1208.6 88.1L1211 84.9Z" fill="#D4F6FF"/>
</g>
<mask id="mask5_1_133" style="mask-type:luminance" maskUnits="userSpaceOnUse" x="0" y="0" width="1521" height="255">
<path d="M1521 0H0V255H1521V0Z" fill="white"/>
</mask>
<g mask="url(#mask5_1_133)">
<path d="M1521 195C1526.52 195 1531 190.523 1531 185C1531 179.477 1526.52 175 1521 175C1515.48 175 1511 179.477 1511 185C1511 190.523 1515.48 195 1521 195Z" fill="#F2FCFF"/>
</g>
<mask id="mask6_1_133" style="mask-type:luminance" maskUnits="userSpaceOnUse" x="0" y="0" width="1521" height="255">
<path d="M1521 0H0V255H1521V0Z" fill="white"/>
</mask>
<g mask="url(#mask6_1_133)">
<path d="M1266.8 59C1307.8 59 1348.8 59 1389.8 59C1390.8 59.9 1391.8 60.7 1392.8 61.6C1407.8 76.6 1422.8 91.6 1437.8 106.5C1439.5 108.2 1440.3 110 1440.3 112.4C1440.2 166.9 1440.3 221.4 1440.2 275.9C1440.2 278.1 1440.1 280.4 1439.5 282.6C1437 292 1429.3 297.5 1419 297.5C1369.6 297.5 1320.2 297.5 1270.9 297.5C1257.9 297.5 1249.6 289.2 1249.5 276.1C1249.5 267.2 1249.4 258.4 1249.6 249.5C1249.7 246.8 1248.7 245.6 1246.4 244.5C1223.4 232.7 1209.5 214 1205.4 188.5C1200.1 155.5 1217.1 123.8 1247.2 109.2C1248.9 108.4 1249.5 107.4 1249.5 105.5C1249.4 96.2 1249.4 86.9 1249.6 77.6C1249.7 72 1252.3 67.4 1256.6 63.7C1259.6 61.1 1263.2 60 1266.8 59ZM1257.5 104.9C1258.4 104.7 1259.1 104.5 1259.8 104.4C1269 101.9 1278.3 101 1287.7 102C1304.2 103.7 1318.7 110.2 1331.1 121.5C1356.3 144.4 1363 182.2 1346.9 212.2C1345.8 214.2 1346.1 215.2 1347.6 216.7C1359 228 1370.5 239.3 1381.7 250.8C1391.4 260.8 1388 277 1375.3 282.7C1368 285.9 1359.4 284.5 1353.5 278.7C1342 267.4 1330.6 255.9 1319.2 244.5C1318 243.3 1317.1 243 1315.5 243.8C1300.4 251.9 1284.4 254.4 1267.5 251.6C1264.2 251 1260.9 250.2 1257.4 249.5C1257.4 250.5 1257.4 251.2 1257.4 252C1257.4 260.1 1257.4 268.1 1257.4 276.2C1257.4 285 1262.1 289.7 1270.9 289.7C1320.1 289.7 1369.3 289.6 1418.6 289.8C1426.4 289.8 1432.4 284.8 1432.3 276.1C1432.1 223.2 1432.2 170.4 1432.2 117.5C1432.2 116.7 1432.2 115.8 1432.2 114.8C1431 114.8 1430.1 114.8 1429.2 114.8C1418.8 114.8 1408.4 114.8 1398 114.8C1389.3 114.8 1384.6 110.1 1384.6 101.4C1384.6 90.8 1384.6 80.3 1384.6 69.7C1384.6 68.9 1384.6 68 1384.6 67C1383.5 67 1382.6 67 1381.8 67C1344.8 67 1307.9 67 1270.9 67C1270 67 1269 67 1268.1 67.1C1262.4 67.8 1257.7 72.1 1257.5 77.5C1257.3 86.5 1257.5 95.5 1257.5 104.9ZM1279.9 244.7C1316.7 245.1 1347.6 214.6 1347.6 177.4C1347.6 139.8 1317.9 109.8 1280.4 109.6C1244 109.4 1212.8 138.3 1212.6 177C1212.4 214.6 1242.8 244.5 1279.9 244.7ZM1324.9 238.7C1325 238.8 1325.4 239.2 1325.7 239.6C1336.4 250.2 1347 260.9 1357.7 271.5C1358.4 272.2 1359.1 272.8 1359.8 273.3C1364.9 277 1372.2 276 1376.1 271.1C1380.1 266.1 1379.5 259.6 1374.4 254.6C1363.8 244 1353.2 233.4 1342.7 222.8C1342.3 222.4 1341.8 222 1341.7 221.9C1336 227.5 1330.5 233 1324.9 238.7ZM1425.4 106.6C1414.5 95.7 1403.4 84.6 1392.6 73.8C1392.6 83 1392.6 92.7 1392.6 102.4C1392.6 105 1394 106.6 1396.6 106.6C1406.3 106.7 1416.1 106.6 1425.4 106.6Z" fill="#15BEE6"/>
<path d="M1320.9 90.8C1307.1 90.8 1293.3 90.8 1279.5 90.8C1278.6 90.8 1277.8 90.8 1276.9 90.7C1274.9 90.4 1273.4 88.9 1273.4 87C1273.4 85 1274.4 83.6 1276.4 83.1C1277.2 82.9 1278.1 82.8 1278.9 82.8C1307 82.8 1335.1 82.8 1363.2 82.8C1364.2 82.8 1365.2 82.9 1366.2 83.2C1367.9 83.8 1368.8 85.2 1368.7 87C1368.6 88.9 1367.5 90.2 1365.6 90.6C1364.7 90.8 1363.7 90.7 1362.8 90.7C1348.8 90.8 1334.8 90.8 1320.9 90.8Z" fill="#15BEE6"/>
<path d="M1382.8 130.6C1392 130.6 1401.3 130.6 1410.5 130.6C1411.4 130.6 1412.4 130.6 1413.3 130.8C1415.2 131.2 1416.3 132.5 1416.3 134.4C1416.4 136.3 1415.4 137.7 1413.6 138.2C1412.6 138.5 1411.6 138.5 1410.6 138.5C1392 138.5 1373.4 138.5 1354.7 138.5C1350.8 138.5 1348.8 137.1 1348.8 134.4C1348.9 131.8 1350.7 130.5 1354.6 130.5C1364.1 130.6 1373.4 130.6 1382.8 130.6Z" fill="#15BEE6"/>
<path d="M1386.4 210C1378.5 210 1370.6 210 1362.7 210C1361.9 210 1361.1 210 1360.4 209.9C1358.4 209.6 1356.9 208.1 1356.9 206.2C1356.9 204.2 1357.9 202.8 1359.9 202.3C1360.6 202.1 1361.4 202 1362.2 202C1378.5 202 1394.8 202 1411.1 202C1411.9 202 1412.8 202.1 1413.6 202.3C1415.6 202.9 1416.6 204.3 1416.4 206.3C1416.2 208.3 1415 209.6 1413 209.8C1412.2 209.9 1411.5 209.9 1410.7 209.9C1402.6 210 1394.5 210 1386.4 210Z" fill="#15BEE6"/>
<path d="M1388.7 186.2C1381 186.2 1373.4 186.2 1365.7 186.2C1363.7 186.2 1362 185.6 1361.2 183.7C1360.1 181.1 1362 178.4 1365.1 178.3C1368.8 178.2 1372.5 178.3 1376.3 178.3C1387.7 178.3 1399.1 178.3 1410.5 178.3C1411.2 178.3 1411.9 178.3 1412.6 178.3C1414.9 178.5 1416.5 180.1 1416.5 182.2C1416.5 184.4 1414.9 186.1 1412.5 186.2C1409 186.3 1405.5 186.2 1402 186.2C1397.5 186.2 1393.1 186.2 1388.7 186.2Z" fill="#15BEE6"/>
<path d="M1388.8 154.5C1396.2 154.5 1403.5 154.5 1410.9 154.5C1411.7 154.5 1412.5 154.5 1413.2 154.6C1415.1 155 1416.2 156.2 1416.4 158.1C1416.6 160 1415.6 161.4 1413.8 162C1412.9 162.3 1412 162.4 1411.1 162.4C1396.1 162.4 1381.2 162.4 1366.2 162.4C1365.7 162.4 1365.3 162.4 1364.8 162.4C1362.4 162.1 1360.9 160.5 1360.9 158.3C1361 156.1 1362.5 154.6 1365.1 154.5C1372.9 154.4 1380.9 154.5 1388.8 154.5Z" fill="#15BEE6"/>
<path d="M1424.3 262.5C1424.3 264.8 1424.3 267.2 1424.3 269.5C1424.2 276.4 1419.6 281.3 1412.7 281.6C1407.4 281.8 1402.2 281.7 1396.9 281.6C1394.3 281.6 1392.6 279.9 1392.6 277.7C1392.6 275.4 1394.3 273.8 1397.1 273.7C1401.8 273.7 1406.4 273.7 1411.1 273.7C1415.1 273.7 1416.4 272.3 1416.4 268.4C1416.4 263.7 1416.4 259.1 1416.4 254.4C1416.4 251.6 1418 249.9 1420.3 249.9C1422.6 249.9 1424.2 251.4 1424.3 253.9C1424.4 256.8 1424.3 259.6 1424.3 262.5Z" fill="#15BEE6"/>
<path d="M1394.6 233.9C1388.8 233.9 1383 234 1377.1 233.9C1374.4 233.9 1372.8 232.3 1372.7 230C1372.7 227.8 1374.3 226.2 1377 226C1377.5 226 1378.1 226 1378.6 226C1380.9 226 1383.1 226 1385.4 226C1393.8 226 1402.2 226 1410.5 226C1411.3 226 1412.2 226 1413 226.2C1415.2 226.6 1416.2 228 1416.3 230.1C1416.4 232 1414.9 233.5 1412.9 233.9C1412.1 234 1411.4 234 1410.6 234C1405.3 233.9 1399.9 233.9 1394.6 233.9Z" fill="#15BEE6"/>
<path d="M1348.6 114.6C1343.6 114.6 1338.7 114.6 1333.7 114.6C1331.8 114.6 1330.2 114 1329.3 112.1C1328.3 109.9 1329.6 107.4 1332 106.9C1332.9 106.7 1333.8 106.6 1334.8 106.6C1344.2 106.6 1353.6 106.6 1363 106.6C1363.3 106.6 1363.6 106.6 1363.9 106.6C1366.9 106.7 1368.7 108.2 1368.7 110.6C1368.7 113 1366.9 114.5 1364 114.6C1358.8 114.7 1353.7 114.6 1348.6 114.6Z" fill="#15BEE6"/>
<path d="M1220.5 176.9C1220.9 142.1 1249.3 116.5 1282 117.5C1315 118.5 1340.5 145.9 1339.6 179.6C1338.7 211.4 1310.6 237.6 1278.8 236.7C1245.3 235.8 1220.3 208.5 1220.5 176.9ZM1280.1 228.8C1308.7 228.7 1331.8 205.7 1331.7 177.3C1331.6 148.2 1308.8 125.5 1279.8 125.6C1251.3 125.6 1228.6 149 1228.6 178.2C1228.6 205.7 1252.2 228.9 1280.1 228.8Z" fill="#15BEE6"/>
<path d="M1279.2 174.3C1288.5 174.3 1297.8 174.3 1307.1 174.3C1308.1 174.3 1309.1 174.3 1310.1 174.6C1312 175.1 1313 176.4 1313 178.3C1313 180.2 1312 181.6 1310.1 182C1309.1 182.2 1308.1 182.3 1307.1 182.3C1288.6 182.3 1270 182.3 1251.5 182.3C1247.5 182.3 1245.6 181 1245.6 178.3C1245.6 175.6 1247.6 174.3 1251.5 174.3C1260.7 174.3 1269.9 174.3 1279.2 174.3Z" fill="#15BEE6"/>
<path d="M1279.2 158.4C1274.9 158.4 1270.5 158.4 1266.2 158.4C1263.2 158.4 1261.4 156.8 1261.5 154.4C1261.5 152 1263.3 150.4 1266.3 150.4C1275 150.4 1283.7 150.4 1292.4 150.4C1295.4 150.4 1297.2 151.9 1297.2 154.3C1297.3 156.8 1295.5 158.3 1292.3 158.3C1287.9 158.4 1283.5 158.4 1279.2 158.4Z" fill="#15BEE6"/>
<path d="M1279.4 198.2C1283.7 198.2 1288.1 198.2 1292.4 198.2C1295.4 198.2 1297.1 199.8 1297.1 202.2C1297.1 204.5 1295.3 206.1 1292.5 206.1C1283.7 206.2 1274.8 206.2 1266 206.1C1263.2 206.1 1261.4 204.5 1261.4 202.2C1261.4 199.8 1263.1 198.2 1266.1 198.2C1270.5 198.1 1275 198.2 1279.4 198.2Z" fill="#15BEE6"/>
</g>
<mask id="mask7_1_133" style="mask-type:luminance" maskUnits="userSpaceOnUse" x="0" y="0" width="1521" height="255">
<path d="M1521 0H0V255H1521V0Z" fill="white"/>
</mask>
<g mask="url(#mask7_1_133)">
<path d="M1446 67C1455.94 67 1464 58.9411 1464 49C1464 39.0589 1455.94 31 1446 31C1436.06 31 1428 39.0589 1428 49C1428 58.9411 1436.06 67 1446 67Z" fill="#D4F6FF"/>
</g>
<mask id="mask8_1_133" style="mask-type:luminance" maskUnits="userSpaceOnUse" x="0" y="0" width="1521" height="255">
<path d="M1521 0H0V255H1521V0Z" fill="white"/>
</mask>
<g mask="url(#mask8_1_133)">
<path d="M63.9 74.9H57V53.4H64.2C66.3 53.4 68.1 53.8 69.6 54.7C71.1 55.6 72.3 56.8 73.1 58.4C73.9 60 74.3 61.9 74.3 64.1C74.3 66.3 73.9 68.3 73.1 69.9C72.3 71.5 71.1 72.7 69.6 73.6C67.9 74.5 66.1 74.9 63.9 74.9ZM60.2 72.1H63.7C65.3 72.1 66.7 71.8 67.8 71.2C68.9 70.6 69.7 69.7 70.2 68.5C70.7 67.3 71 65.9 71 64.2C71 62.5 70.7 61.1 70.2 59.9C69.7 58.7 68.9 57.8 67.8 57.2C66.7 56.6 65.4 56.3 63.9 56.3H60.2V72.1Z" fill="#242438"/>
<path d="M79.6 56.3C79.1 56.3 78.6 56.1 78.2 55.7C77.8 55.3 77.6 54.9 77.6 54.4C77.6 53.9 77.8 53.4 78.2 53.1C78.6 52.7 79.1 52.5 79.6 52.5C80.1 52.5 80.6 52.7 81 53.1C81.4 53.5 81.6 53.9 81.6 54.4C81.6 54.9 81.4 55.4 81 55.7C80.6 56.1 80.1 56.3 79.6 56.3ZM78 74.9V58.8H81.1V74.9H78Z" fill="#242438"/>
<path d="M91.3 75.2C90 75.2 88.8 74.9 87.8 74.2C86.8 73.5 86 72.6 85.4 71.3C84.8 70.1 84.5 68.6 84.5 66.8C84.5 65.1 84.8 63.6 85.4 62.3C86 61.1 86.8 60.1 87.8 59.5C88.8 58.8 90 58.5 91.3 58.5C92.3 58.5 93.1 58.7 93.7 59C94.3 59.3 94.8 59.7 95.1 60.2C95.4 60.6 95.7 61 95.9 61.4H96.1V53.4H99.2V74.9H96.1V72.4H96C95.8 72.7 95.5 73.1 95.2 73.6C94.8 74 94.4 74.4 93.7 74.8C93.1 75 92.3 75.2 91.3 75.2ZM92 72.5C92.9 72.5 93.7 72.3 94.3 71.8C94.9 71.3 95.4 70.7 95.7 69.8C96 68.9 96.2 68 96.2 66.8C96.2 65.7 96 64.7 95.7 63.9C95.4 63.1 94.9 62.4 94.3 61.9C93.7 61.4 92.9 61.2 92 61.2C91.1 61.2 90.3 61.4 89.6 61.9C88.9 62.4 88.5 63.1 88.2 63.9C87.9 64.7 87.7 65.7 87.7 66.8C87.7 67.9 87.9 68.8 88.2 69.7C88.5 70.6 89 71.2 89.6 71.7C90.2 72.2 91.1 72.5 92 72.5Z" fill="#242438"/>
<path d="M113.6 80.9C113.1 80.9 112.7 80.9 112.3 80.8C111.9 80.7 111.6 80.6 111.4 80.6L112.2 78C112.8 78.2 113.3 78.2 113.7 78.2C114.1 78.2 114.5 78 114.9 77.7C115.3 77.4 115.6 76.9 115.8 76.2L116.2 75.1L110.3 58.8H113.7L117.8 71.3H118L122.1 58.8H125.5L118.7 77C118.4 77.8 118 78.5 117.5 79.1C117 79.7 116.5 80.1 115.8 80.4C115.2 80.8 114.5 80.9 113.6 80.9Z" fill="#242438"/>
<path d="M135.1 75.2C133.6 75.2 132.3 74.9 131.1 74.2C130 73.5 129.1 72.5 128.5 71.3C127.9 70.1 127.6 68.6 127.6 66.9C127.6 65.2 127.9 63.8 128.5 62.5C129.1 61.2 130 60.3 131.1 59.6C132.2 58.9 133.5 58.6 135.1 58.6C136.7 58.6 137.9 58.9 139.1 59.6C140.2 60.3 141.1 61.3 141.7 62.5C142.3 63.7 142.6 65.2 142.6 66.9C142.6 68.6 142.3 70 141.7 71.3C141.1 72.5 140.2 73.5 139.1 74.2C137.9 74.9 136.6 75.2 135.1 75.2ZM135.1 72.6C136.1 72.6 136.9 72.3 137.5 71.8C138.1 71.3 138.6 70.6 138.9 69.7C139.2 68.8 139.4 67.9 139.4 66.9C139.4 65.9 139.2 64.9 138.9 64.1C138.6 63.2 138.1 62.5 137.5 62C136.9 61.5 136 61.2 135.1 61.2C134.1 61.2 133.3 61.5 132.7 62C132.1 62.5 131.6 63.2 131.3 64.1C131 65 130.8 65.9 130.8 66.9C130.8 67.9 131 68.9 131.3 69.7C131.6 70.6 132.1 71.2 132.7 71.8C133.3 72.3 134.1 72.6 135.1 72.6Z" fill="#242438"/>
<path d="M156.3 68.2V58.8H159.4V74.9H156.3V72.1H156.1C155.7 73 155.1 73.7 154.3 74.2C153.5 74.8 152.5 75.1 151.3 75.1C150.3 75.1 149.4 74.9 148.6 74.4C147.8 73.9 147.2 73.3 146.7 72.4C146.2 71.5 146 70.4 146 69.1V58.8H149.1V68.7C149.1 69.8 149.4 70.7 150 71.3C150.6 72 151.4 72.3 152.4 72.3C153 72.3 153.6 72.2 154.2 71.9C154.8 71.6 155.3 71.2 155.7 70.6C156.1 70 156.3 69.1 156.3 68.2Z" fill="#242438"/>
<path d="M171.5 74.9V53.4H174.6V74.9H171.5ZM174.4 69.4V65.6H174.9L181.3 58.8H185.1L177.8 66.6H177.3L174.4 69.4ZM181.6 74.9L175.8 67.2L178 65L185.5 74.8H181.6V74.9Z" fill="#15BEE6"/>
<path d="M191 65.3V74.9H187.9V58.8H190.9V61.4H191.1C191.5 60.5 192.1 59.9 192.8 59.3C193.6 58.8 194.6 58.5 195.8 58.5C196.9 58.5 197.9 58.7 198.7 59.2C199.5 59.7 200.2 60.3 200.6 61.2C201.1 62.1 201.3 63.2 201.3 64.5V74.7H198.2V65C198.2 63.8 197.9 62.9 197.3 62.3C196.7 61.6 195.9 61.3 194.8 61.3C194.1 61.3 193.4 61.5 192.9 61.8C192.4 62.1 191.9 62.6 191.6 63.2C191.2 63.7 191 64.5 191 65.3Z" fill="#15BEE6"/>
<path d="M212.3 75.2C210.8 75.2 209.5 74.9 208.3 74.2C207.2 73.5 206.3 72.5 205.7 71.3C205.1 70.1 204.8 68.6 204.8 66.9C204.8 65.2 205.1 63.8 205.7 62.5C206.3 61.2 207.2 60.3 208.3 59.6C209.4 58.9 210.7 58.6 212.3 58.6C213.9 58.6 215.1 58.9 216.3 59.6C217.4 60.3 218.3 61.3 218.9 62.5C219.5 63.7 219.8 65.2 219.8 66.9C219.8 68.6 219.5 70 218.9 71.3C218.3 72.5 217.4 73.5 216.3 74.2C215.1 74.9 213.8 75.2 212.3 75.2ZM212.3 72.6C213.3 72.6 214.1 72.3 214.7 71.8C215.3 71.3 215.8 70.6 216.1 69.7C216.4 68.8 216.6 67.9 216.6 66.9C216.6 65.9 216.4 64.9 216.1 64.1C215.8 63.2 215.3 62.5 214.7 62C214.1 61.5 213.2 61.2 212.3 61.2C211.3 61.2 210.5 61.5 209.9 62C209.3 62.5 208.8 63.2 208.5 64.1C208.2 65 208 65.9 208 66.9C208 67.9 208.2 68.9 208.5 69.7C208.8 70.6 209.3 71.2 209.9 71.8C210.5 72.3 211.3 72.6 212.3 72.6Z" fill="#15BEE6"/>
<path d="M226.8 74.9L222.1 58.8H225.3L228.5 70.6H228.7L231.9 58.8H235.1L238.2 70.6H238.4L241.5 58.8H244.7L240 74.9H236.8L233.5 63.3H233.3L230 74.9H226.8Z" fill="#15BEE6"/>
<path d="M251.1 68.5C251.1 67.2 251.2 66.2 251.5 65.4C251.8 64.6 252.1 64 252.6 63.5C253.1 63 253.6 62.6 254.3 62.2C254.7 61.9 255.1 61.6 255.4 61.3C255.7 61 256 60.6 256.2 60.2C256.4 59.8 256.5 59.3 256.5 58.8C256.5 58.2 256.4 57.6 256.1 57.2C255.8 56.7 255.4 56.4 254.9 56.1C254.4 55.8 253.9 55.7 253.3 55.7C252.8 55.7 252.2 55.8 251.8 56C251.4 56.2 250.9 56.6 250.6 57C250.3 57.4 250.1 58.1 250 58.8H246.8C246.8 57.5 247.2 56.5 247.8 55.6C248.4 54.7 249.2 54.1 250.1 53.6C251 53.1 252.1 52.9 253.3 52.9C254.6 52.9 255.7 53.1 256.7 53.6C257.7 54.1 258.4 54.7 258.9 55.6C259.4 56.5 259.7 57.5 259.7 58.6C259.7 59.4 259.6 60.1 259.3 60.7C259.1 61.3 258.7 61.9 258.3 62.4C257.8 62.9 257.3 63.3 256.7 63.7C256.1 64.1 255.6 64.5 255.3 64.9C254.9 65.3 254.7 65.8 254.5 66.3C254.3 66.8 254.2 67.5 254.2 68.3V68.5H251.1ZM252.7 75.1C252.1 75.1 251.6 74.9 251.2 74.5C250.8 74.1 250.6 73.6 250.6 73C250.6 72.4 250.8 71.9 251.2 71.5C251.6 71.1 252.1 70.9 252.7 70.9C253.3 70.9 253.8 71.1 254.2 71.5C254.6 71.9 254.8 72.4 254.8 73C254.8 73.4 254.7 73.7 254.5 74.1C254.3 74.4 254.1 74.7 253.7 74.9C253.4 75 253 75.1 252.7 75.1Z" fill="#15BEE6"/>
</g>
<mask id="mask9_1_133" style="mask-type:luminance" maskUnits="userSpaceOnUse" x="0" y="0" width="1521" height="255">
<path d="M1521 0H0V255H1521V0Z" fill="white"/>
</mask>
<g mask="url(#mask9_1_133)">
<path d="M257 79.6H170.9V82.2H257V79.6Z" fill="#D9F4F9"/>
</g>
<mask id="mask10_1_133" style="mask-type:luminance" maskUnits="userSpaceOnUse" x="0" y="0" width="1521" height="255">
<path d="M1521 0H0V255H1521V0Z" fill="white"/>
</mask>
<g mask="url(#mask10_1_133)">
<path d="M57.8 197.9C57.8 196.6 58 195.4 58.3 194.3C58.6 193.2 59.1001 192.2 59.7001 191.3H60.8C60.6 191.6 60.3 192.1 60.1 192.5C59.9 193 59.7 193.5 59.5 194.1C59.3 194.7 59.2 195.3 59.1 195.9C59 196.5 59 197.1 59 197.8C59 198.6 59.1001 199.4 59.2001 200.3C59.4001 201.1 59.6 201.9 59.8 202.6C60.1 203.3 60.4001 203.9 60.7001 204.4H59.6C59 203.5 58.5001 202.5 58.2001 201.4C58.0001 200.4 57.8 199.2 57.8 197.9Z" fill="#D3D3D3"/>
<path d="M69.7 191.9H71V198.8C71 199.5 70.8 200.2 70.5 200.7C70.2 201.2 69.7 201.7 69.1 202C68.5 202.3 67.8 202.5 67 202.5C66.2 202.5 65.5 202.3 64.9 202C64.3 201.7 63.8 201.2 63.5 200.7C63.2 200.1 63 199.5 63 198.8V191.9H64V198.7C64 199.2 64.1 199.7 64.3 200.1C64.5 200.5 64.8 200.8 65.3 201C65.7 201.2 66.2 201.3 66.8 201.3C67.4 201.3 67.9 201.2 68.3 201C68.7 200.8 69 200.5 69.3 200.1C69.5 199.7 69.6 199.2 69.6 198.7V191.9H69.7Z" fill="#D3D3D3"/>
<path d="M81.8 191.9V202.4H80.6L74.9 194.2H74.8V202.4H73.5V191.9H74.7L80.4 200.1H80.5V191.9H81.8Z" fill="#D3D3D3"/>
<path d="M92.7 195.1H91.4C91.3 194.7 91.2 194.4 91 194.1C90.8 193.8 90.6 193.6 90.3 193.4C90 193.2 89.7 193.1 89.4 193C89.1 192.9 88.7 192.9 88.4 192.9C87.8 192.9 87.2 193.1 86.7 193.4C86.2 193.7 85.8 194.2 85.5 194.8C85.2 195.4 85 196.2 85 197.1C85 198 85.2 198.8 85.5 199.4C85.8 200 86.2 200.5 86.7 200.8C87.2 201.1 87.8 201.3 88.4 201.3C88.7 201.3 89.1 201.3 89.4 201.2C89.7 201.1 90 201 90.3 200.8C90.6 200.6 90.8 200.4 91 200.1C91.2 199.8 91.3 199.5 91.4 199.1H92.7C92.6 199.6 92.4 200.1 92.2 200.5C91.9 200.9 91.6 201.3 91.3 201.6C90.9 201.9 90.5 202.1 90 202.3C89.5 202.5 89 202.5 88.5 202.5C87.6 202.5 86.8 202.3 86.1 201.8C85.4 201.4 84.9 200.7 84.5 199.9C84.1 199.1 83.9 198.1 83.9 197C83.9 195.9 84.1 194.9 84.5 194.1C84.9 193.3 85.4 192.7 86.1 192.2C86.8 191.8 87.6 191.5 88.5 191.5C89 191.5 89.5 191.6 90 191.7C90.5 191.9 90.9 192.1 91.3 192.4C91.7 192.7 92 193.1 92.2 193.5C92.5 194.1 92.6 194.6 92.7 195.1Z" fill="#D3D3D3"/>
<path d="M94.2001 193V191.9H102.1V193H98.8001V202.4H97.5001V193H94.2001Z" fill="#D3D3D3"/>
<path d="M104.5 202.4H103.2L107 191.9H108.3L112.1 202.4H110.8L107.7 193.6H107.6L104.5 202.4ZM105 198.3H110.4V199.4H105V198.3Z" fill="#D3D3D3"/>
<path d="M117 202.4H113.8V191.9H117.2C118.2 191.9 119.1 192.1 119.8 192.5C120.5 192.9 121.1 193.5 121.5 194.3C121.9 195.1 122.1 196 122.1 197.1C122.1 198.2 121.9 199.1 121.5 199.9C121.1 200.7 120.5 201.3 119.8 201.7C119 202.1 118.1 202.4 117 202.4ZM115.1 201.2H117C117.9 201.2 118.6 201 119.2 200.7C119.8 200.4 120.2 199.9 120.5 199.3C120.8 198.7 120.9 197.9 120.9 197.1C120.9 196.3 120.8 195.5 120.5 194.9C120.2 194.3 119.8 193.8 119.3 193.5C118.8 193.2 118.1 193 117.2 193H115.2V201.2H115.1Z" fill="#D3D3D3"/>
<path d="M128 202.4V201.5L131.5 197.7C131.9 197.3 132.2 196.9 132.5 196.5C132.8 196.1 133 195.9 133.1 195.6C133.2 195.3 133.3 195 133.3 194.7C133.3 194.3 133.2 194 133 193.7C132.8 193.4 132.6 193.2 132.3 193.1C132 193 131.7 192.9 131.3 192.9C130.9 192.9 130.5 193 130.2 193.1C129.9 193.3 129.7 193.5 129.5 193.8C129.3 194.1 129.3 194.4 129.3 194.8H128.1C128.1 194.2 128.2 193.6 128.5 193.2C128.8 192.7 129.2 192.4 129.7 192.1C130.2 191.8 130.7 191.7 131.4 191.7C132 191.7 132.6 191.8 133 192.1C133.5 192.4 133.8 192.7 134.1 193.1C134.4 193.5 134.5 194 134.5 194.6C134.5 195 134.4 195.4 134.3 195.7C134.2 196 133.9 196.5 133.6 196.9C133.3 197.3 132.8 197.9 132.2 198.5L129.8 201V201.1H134.7V202.2H128V202.4Z" fill="#D3D3D3"/>
<path d="M140.2 202.5C139.4 202.5 138.8 202.3 138.2 201.9C137.7 201.5 137.2 200.9 137 200.1C136.8 199.3 136.6 198.3 136.6 197.2C136.6 196.1 136.7 195.1 137 194.3C137.3 193.5 137.7 192.9 138.2 192.5C138.7 192.1 139.4 191.9 140.2 191.9C141 191.9 141.6 192.1 142.2 192.5C142.7 192.9 143.2 193.5 143.4 194.3C143.7 195.1 143.8 196.1 143.8 197.2C143.8 198.3 143.7 199.3 143.4 200.1C143.1 200.9 142.7 201.5 142.2 201.9C141.6 202.3 140.9 202.5 140.2 202.5ZM140.2 201.4C141 201.4 141.6 201 142 200.3C142.4 199.6 142.6 198.5 142.6 197.1C142.6 196.2 142.5 195.4 142.3 194.8C142.1 194.2 141.8 193.7 141.5 193.3C141.1 193 140.7 192.8 140.2 192.8C139.4 192.8 138.9 193.2 138.4 193.9C138 194.6 137.8 195.7 137.8 197.1C137.8 198 137.9 198.8 138.1 199.4C138.3 200 138.6 200.5 138.9 200.8C139.2 201.2 139.6 201.4 140.2 201.4Z" fill="#D3D3D3"/>
<path d="M145.7 202.4V201.5L149.2 197.7C149.6 197.3 149.9 196.9 150.2 196.5C150.5 196.1 150.7 195.9 150.8 195.6C150.9 195.3 151 195 151 194.7C151 194.3 150.9 194 150.7 193.7C150.5 193.4 150.3 193.2 150 193.1C149.7 193 149.4 192.9 149 192.9C148.6 192.9 148.2 193 147.9 193.1C147.6 193.3 147.4 193.5 147.2 193.8C147 194.1 147 194.4 147 194.8H145.8C145.8 194.2 145.9 193.6 146.2 193.2C146.5 192.7 146.9 192.4 147.4 192.1C147.9 191.8 148.4 191.7 149.1 191.7C149.7 191.7 150.3 191.8 150.7 192.1C151.2 192.4 151.5 192.7 151.8 193.1C152.1 193.5 152.2 194 152.2 194.6C152.2 195 152.1 195.4 152 195.7C151.9 196 151.6 196.5 151.3 196.9C151 197.3 150.5 197.9 149.9 198.5L147.5 201V201.1H152.4V202.2H145.7V202.4Z" fill="#D3D3D3"/>
<path d="M154.2 200.2V199.2L158.8 191.9H159.6V193.5H159.1L155.6 199V199.1H161.8V200.2H154.2ZM159.1 202.4V199.9V199.4V191.9H160.3V202.4H159.1Z" fill="#D3D3D3"/>
<path d="M166.3 197.9C166.3 199.2 166.1 200.4 165.8 201.5C165.5 202.6 165 203.6 164.4 204.5H163.3C163.5 204.2 163.8 203.7 164 203.3C164.2 202.8 164.4 202.3 164.6 201.7C164.8 201.1 164.9 200.5 165 199.9C165.1 199.3 165.1 198.7 165.1 198C165.1 197.2 165 196.4 164.9 195.5C164.7 194.7 164.5 193.9 164.3 193.2C164 192.5 163.7 191.9 163.4 191.4H164.5C165.1 192.3 165.6 193.3 165.9 194.4C166.1 195.5 166.3 196.6 166.3 197.9Z" fill="#D3D3D3"/>
</g>
</g>
<defs>
<clipPath id="clip0_1_133">
<rect width="1521" height="255" fill="white"/>
</clipPath>
</defs>
</svg>
