<svg width="1521" height="255" viewBox="0 0 1521 255" fill="none" xmlns="http://www.w3.org/2000/svg">
<g clip-path="url(#clip0_9_3)">
<path d="M1521 0H0V255H1521V0Z" fill="white"/>
<mask id="mask0_9_3" style="mask-type:luminance" maskUnits="userSpaceOnUse" x="0" y="0" width="1521" height="255">
<path d="M1521 0H0V255H1521V0Z" fill="white"/>
</mask>
<g mask="url(#mask0_9_3)">
<path d="M589.8 65C625.7 65 654.8 35.9 654.8 0H524.8C524.8 35.9 553.9 65 589.8 65Z" fill="#F2FCFF"/>
</g>
<mask id="mask1_9_3" style="mask-type:luminance" maskUnits="userSpaceOnUse" x="0" y="0" width="1521" height="255">
<path d="M1521 0H0V255H1521V0Z" fill="white"/>
</mask>
<g mask="url(#mask1_9_3)">
<path d="M1163.8 214.2C1141.3 214.2 1123 232.5 1123 255H1204.6C1204.6 232.5 1186.3 214.2 1163.8 214.2Z" fill="#F2FCFF"/>
</g>
<mask id="mask2_9_3" style="mask-type:luminance" maskUnits="userSpaceOnUse" x="0" y="0" width="1521" height="255">
<path d="M1521 0H0V255H1521V0Z" fill="white"/>
</mask>
<g mask="url(#mask2_9_3)">
<path d="M56.9999 64.7C65.0633 64.7 71.5999 58.1634 71.5999 50.1C71.5999 42.0366 65.0633 35.5 56.9999 35.5C48.9365 35.5 42.3999 42.0366 42.3999 50.1C42.3999 58.1634 48.9365 64.7 56.9999 64.7Z" fill="#F9FEFA"/>
</g>
<mask id="mask3_9_3" style="mask-type:luminance" maskUnits="userSpaceOnUse" x="0" y="0" width="1521" height="255">
<path d="M1521 0H0V255H1521V0Z" fill="white"/>
</mask>
<g mask="url(#mask3_9_3)">
<path d="M1176.7 125.6L1167.7 119L1174.3 110L1169.8 106.7L1163.2 115.7L1154.4 109.3L1151.1 113.8L1159.9 120.2L1153.4 129L1157.9 132.3L1164.4 123.5L1173.4 130.1L1176.7 125.6Z" fill="#D4F6FF"/>
</g>
<mask id="mask4_9_3" style="mask-type:luminance" maskUnits="userSpaceOnUse" x="0" y="0" width="1521" height="255">
<path d="M1521 0H0V255H1521V0Z" fill="white"/>
</mask>
<g mask="url(#mask4_9_3)">
<path d="M1456 192C1461.52 192 1466 187.523 1466 182C1466 176.477 1461.52 172 1456 172C1450.48 172 1446 176.477 1446 182C1446 187.523 1450.48 192 1456 192Z" fill="#F2FCFF"/>
</g>
<mask id="mask5_9_3" style="mask-type:luminance" maskUnits="userSpaceOnUse" x="0" y="0" width="1521" height="255">
<path d="M1521 0H0V255H1521V0Z" fill="white"/>
</mask>
<g mask="url(#mask5_9_3)">
<path d="M655 274C667.703 274 678 263.703 678 251C678 238.297 667.703 228 655 228C642.297 228 632 238.297 632 251C632 263.703 642.297 274 655 274Z" fill="#F2FCFF"/>
</g>
<mask id="mask6_9_3" style="mask-type:luminance" maskUnits="userSpaceOnUse" x="0" y="0" width="1521" height="255">
<path d="M1521 0H0V255H1521V0Z" fill="white"/>
</mask>
<g mask="url(#mask6_9_3)">
<path d="M69.7999 130.2C67.4999 130.2 65.3999 129.8 63.5999 129C61.7999 128.2 60.3999 127.1 59.2999 125.7C58.2999 124.3 57.6999 122.6 57.5999 120.8H63.6999C63.7999 121.7 64.0999 122.5 64.5999 123.1C65.0999 123.8 65.8999 124.3 66.7999 124.6C67.6999 125 68.6999 125.2 69.7999 125.2C70.9999 125.2 71.9999 125 72.9999 124.6C73.8999 124.2 74.5999 123.6 75.1999 122.9C75.7999 122.2 75.9999 121.3 75.9999 120.3C75.9999 119.3 75.7999 118.4 75.1999 117.6C74.6999 116.8 73.8999 116.2 72.8999 115.8C71.8999 115.4 70.6999 115.2 69.2999 115.2H66.3999V110.6H69.2999C70.4999 110.6 71.4999 110.4 72.2999 110C73.1999 109.6 73.8999 109 74.3999 108.3C74.8999 107.6 75.0999 106.7 75.0999 105.8C75.0999 104.9 74.8999 104 74.4999 103.3C74.0999 102.6 73.4999 102.1 72.6999 101.7C71.8999 101.3 70.9999 101.1 69.9999 101.1C68.9999 101.1 67.9999 101.3 67.1999 101.7C66.2999 102.1 65.5999 102.6 65.0999 103.3C64.5999 104 64.2999 104.8 64.2999 105.7H58.4999C58.4999 103.8 59.0999 102.2 60.0999 100.8C61.0999 99.4 62.4999 98.3 64.1999 97.5C65.8999 96.7 67.8999 96.3 69.9999 96.3C72.1999 96.3 74.0999 96.7 75.7999 97.5C77.3999 98.3 78.6999 99.4 79.5999 100.8C80.4999 102.2 80.8999 103.7 80.8999 105.4C80.8999 107.3 80.3999 108.8 79.2999 110.1C78.1999 111.4 76.6999 112.2 74.8999 112.6V112.9C77.1999 113.2 78.9999 114.1 80.2999 115.5C81.5999 116.9 82.1999 118.6 82.1999 120.7C82.1999 122.6 81.6999 124.2 80.5999 125.7C79.4999 127.2 78.0999 128.3 76.2999 129.1C74.4999 129.9 72.0999 130.2 69.7999 130.2Z" fill="#242438"/>
<path d="M98.7 130.2C96.5 130.2 94.6 129.8 92.9 129C91.2 128.2 89.8 127.1 88.8 125.6C87.8 124.2 87.3 122.5 87.2 120.7H93C93.1 122.1 93.7 123.2 94.8 124C95.9 124.9 97.2 125.3 98.7 125.3C99.9 125.3 100.9 125 101.8 124.5C102.7 124 103.4 123.2 104 122.2C104.5 121.2 104.8 120.1 104.8 118.9C104.8 117.6 104.5 116.5 104 115.6C103.5 114.6 102.7 113.9 101.8 113.3C100.9 112.7 99.8 112.5 98.6 112.5C97.6 112.5 96.6 112.7 95.7 113.1C94.7 113.5 94 114 93.4 114.6L88 113.7L89.7 96.6H109V101.6H94.6L93.6 110.4H93.8C94.4 109.7 95.3 109.1 96.4 108.6C97.5 108.1 98.8 107.9 100.1 107.9C102.1 107.9 103.9 108.4 105.5 109.3C107.1 110.2 108.3 111.5 109.2 113.2C110.1 114.9 110.6 116.7 110.6 118.9C110.6 121.1 110.1 123.1 109.1 124.8C108.1 126.5 106.7 127.9 104.9 128.8C103.1 129.7 101.1 130.2 98.7 130.2Z" fill="#242438"/>
<path d="M127.4 130.2C125 130.2 122.8 129.8 121 129C119.1 128.2 117.7 127.1 116.6 125.7C115.5 124.3 115 122.7 115 120.9C115 119.5 115.3 118.2 115.9 117.1C116.5 115.9 117.4 115 118.4 114.2C119.4 113.4 120.6 112.9 121.9 112.7V112.5C120.2 112.1 118.8 111.2 117.8 109.9C116.7 108.5 116.2 107 116.2 105.2C116.2 103.5 116.7 102 117.6 100.6C118.5 99.2 119.9 98.2 121.6 97.4C123.3 96.6 125.2 96.2 127.3 96.2C129.4 96.2 131.3 96.6 133 97.4C134.7 98.2 136 99.2 137 100.6C138 102 138.5 103.5 138.5 105.2C138.5 107 138 108.6 136.9 109.9C135.8 111.2 134.5 112.1 132.8 112.5V112.7C134.1 112.9 135.3 113.4 136.3 114.2C137.3 115 138.2 116 138.8 117.1C139.4 118.3 139.7 119.5 139.7 120.9C139.7 122.7 139.2 124.3 138.1 125.7C137 127.1 135.6 128.2 133.7 129C131.9 129.8 129.8 130.2 127.4 130.2ZM127.4 125.6C128.6 125.6 129.7 125.4 130.6 125C131.5 124.6 132.2 124 132.7 123.2C133.2 122.4 133.5 121.5 133.5 120.5C133.5 119.4 133.2 118.5 132.7 117.7C132.2 116.9 131.4 116.2 130.5 115.8C129.6 115.3 128.5 115.1 127.3 115.1C126.1 115.1 125.1 115.3 124.1 115.8C123.2 116.3 122.4 116.9 121.9 117.7C121.4 118.5 121.1 119.5 121.1 120.5C121.1 121.5 121.3 122.4 121.8 123.2C122.3 124 123 124.6 123.9 125C125.1 125.4 126.1 125.6 127.4 125.6ZM127.4 110.5C128.4 110.5 129.3 110.3 130.1 109.9C130.9 109.5 131.5 108.9 132 108.2C132.5 107.5 132.7 106.6 132.7 105.7C132.7 104.7 132.5 103.9 132 103.2C131.6 102.5 130.9 101.9 130.2 101.5C129.4 101.1 128.5 100.9 127.5 100.9C126.5 100.9 125.5 101.1 124.7 101.5C123.9 101.9 123.3 102.5 122.9 103.2C122.5 103.9 122.2 104.8 122.3 105.7C122.3 106.7 122.5 107.5 123 108.2C123.4 108.9 124.1 109.5 124.9 109.9C125.7 110.3 126.4 110.5 127.4 110.5Z" fill="#242438"/>
<path d="M184.3 107.8H178.2C178 106.8 177.7 105.9 177.2 105.1C176.7 104.3 176.2 103.7 175.5 103.1C174.8 102.6 174 102.2 173.1 101.9C172.2 101.6 171.3 101.5 170.3 101.5C168.5 101.5 166.9 102 165.5 102.9C164.1 103.8 163 105.1 162.2 106.9C161.4 108.6 161 110.8 161 113.3C161 115.8 161.4 118 162.2 119.7C163 121.4 164.1 122.7 165.5 123.6C166.9 124.5 168.5 124.9 170.3 124.9C171.3 124.9 172.2 124.8 173.1 124.5C174 124.2 174.8 123.8 175.5 123.3C176.2 122.8 176.8 122.1 177.3 121.4C177.8 120.6 178.1 119.8 178.3 118.8H184.4C184.2 120.4 183.7 121.9 182.9 123.2C182.1 124.6 181.2 125.8 180 126.9C178.8 128 177.4 128.8 175.8 129.4C174.2 130 172.4 130.3 170.4 130.3C167.5 130.3 164.9 129.6 162.6 128.3C160.3 127 158.5 125 157.2 122.4C155.9 119.8 155.2 116.8 155.2 113.2C155.2 109.6 155.9 106.6 157.2 104C158.5 101.5 160.3 99.5 162.6 98.2C164.9 96.8 167.5 96.2 170.4 96.2C172.2 96.2 174 96.5 175.6 97C177.2 97.5 178.6 98.3 179.8 99.3C181 100.3 182.1 101.5 182.9 103C183.7 104.5 184 105.9 184.3 107.8Z" fill="#77809C"/>
<path d="M200 130.3C197.6 130.3 195.5 129.8 193.7 128.7C191.9 127.6 190.5 126.1 189.6 124.2C188.6 122.3 188.1 120 188.1 117.5C188.1 114.9 188.6 112.7 189.6 110.7C190.6 108.8 192 107.3 193.7 106.2C195.5 105.1 197.6 104.6 200 104.6C202.4 104.6 204.5 105.1 206.3 106.2C208.1 107.3 209.5 108.8 210.4 110.7C211.4 112.6 211.9 114.9 211.9 117.5C211.9 120.1 211.4 122.3 210.4 124.2C209.4 126.1 208 127.6 206.3 128.7C204.5 129.7 202.4 130.3 200 130.3ZM200 125.6C201.3 125.6 202.4 125.2 203.3 124.5C204.2 123.8 204.8 122.8 205.3 121.6C205.7 120.4 206 119 206 117.5C206 116 205.8 114.6 205.3 113.4C204.8 112.2 204.2 111.2 203.3 110.4C202.4 109.7 201.3 109.3 200 109.3C198.6 109.3 197.5 109.7 196.6 110.4C195.7 111.1 195 112.1 194.6 113.4C194.2 114.7 193.9 116 193.9 117.5C193.9 119 194.1 120.4 194.6 121.6C195 122.8 195.7 123.8 196.6 124.5C197.5 125.2 198.6 125.6 200 125.6Z" fill="#77809C"/>
<path d="M222.3 115.2V129.8H216.4V104.9H222V109.1H222.3C222.9 107.7 223.8 106.6 225 105.8C226.3 105 227.8 104.6 229.7 104.6C231.4 104.6 232.9 105 234.2 105.7C235.5 106.4 236.5 107.5 237.2 108.9C237.9 110.3 238.3 112 238.2 114V129.9H232.3V114.9C232.3 113.2 231.9 111.9 231 111C230.1 110.1 229 109.6 227.4 109.6C226.4 109.6 225.5 109.8 224.7 110.3C223.9 110.7 223.3 111.4 222.8 112.2C222.3 113 222.3 114 222.3 115.2Z" fill="#77809C"/>
<path d="M263.5 111.5L258.1 112.1C257.9 111.6 257.7 111.1 257.3 110.6C256.9 110.1 256.4 109.7 255.8 109.4C255.2 109.1 254.4 109 253.5 109C252.3 109 251.3 109.3 250.4 109.8C249.6 110.3 249.2 111 249.2 111.9C249.2 112.6 249.5 113.2 250 113.7C250.5 114.2 251.5 114.5 252.7 114.8L256.9 115.7C259.3 116.2 261 117 262.2 118.1C263.4 119.2 263.9 120.6 263.9 122.4C263.9 124 263.4 125.4 262.5 126.5C261.6 127.7 260.3 128.6 258.7 129.3C257.1 130 255.3 130.3 253.2 130.3C250.2 130.3 247.7 129.7 245.8 128.4C243.9 127.1 242.8 125.3 242.5 123L248.2 122.4C248.5 123.5 249 124.4 249.9 124.9C250.8 125.4 251.8 125.8 253.2 125.8C254.6 125.8 255.7 125.5 256.6 124.9C257.4 124.3 257.9 123.6 257.9 122.8C257.9 122.1 257.6 121.5 257.1 121C256.6 120.5 255.7 120.2 254.6 119.9L250.3 119C247.9 118.5 246.1 117.7 245 116.5C243.9 115.3 243.3 113.8 243.3 112C243.3 110.5 243.7 109.1 244.6 108C245.5 106.9 246.6 106 248.2 105.4C249.7 104.8 251.5 104.5 253.5 104.5C256.4 104.5 258.7 105.1 260.4 106.4C262.1 107.7 263.1 109.3 263.5 111.5Z" fill="#77809C"/>
<path d="M280.9 104.9V109.4H266.6V104.9H280.9ZM270.1 98.9H276V122.3C276 123.1 276.1 123.7 276.4 124.1C276.6 124.5 277 124.8 277.4 125C277.8 125.2 278.2 125.2 278.7 125.2C279.1 125.2 279.4 125.2 279.7 125.1C280 125 280.2 125 280.4 125L281.4 129.6C281.1 129.7 280.6 129.8 280.1 130C279.5 130.1 278.8 130.2 278 130.2C276.5 130.2 275.2 130 274 129.5C272.8 129 271.9 128.2 271.2 127.2C270.5 126.2 270.2 124.9 270.2 123.3V98.9H270.1Z" fill="#77809C"/>
<path d="M285.3 129.8V104.9H291V109.1H291.3C291.8 107.7 292.5 106.6 293.6 105.8C294.7 105 296 104.6 297.4 104.6C297.7 104.6 298.1 104.6 298.5 104.6C298.9 104.6 299.2 104.7 299.5 104.7V110.1C299.3 110 298.9 109.9 298.3 109.9C297.7 109.9 297.2 109.8 296.8 109.8C295.7 109.8 294.8 110 293.9 110.5C293 111 292.4 111.6 291.9 112.4C291.4 113.2 291.2 114.1 291.2 115.2V129.8H285.3Z" fill="#77809C"/>
<path d="M318.9 119.3V104.9H324.8V129.8H319V125.4H318.7C318.1 126.8 317.2 127.9 315.9 128.8C314.6 129.7 313 130.1 311.2 130.1C309.6 130.1 308.1 129.7 306.9 129C305.7 128.3 304.7 127.2 304 125.8C303.3 124.4 302.9 122.7 302.9 120.7V104.8H308.8V119.8C308.8 121.4 309.2 122.6 310.1 123.6C311 124.5 312.1 125 313.5 125C314.4 125 315.2 124.8 316 124.4C316.8 124 317.5 123.3 318 122.5C318.6 121.6 318.9 120.6 318.9 119.3Z" fill="#77809C"/>
<path d="M341.2 130.3C338.7 130.3 336.6 129.8 334.8 128.7C333 127.6 331.7 126.1 330.7 124.2C329.7 122.3 329.3 120 329.3 117.5C329.3 115 329.8 112.7 330.8 110.8C331.8 108.9 333.1 107.3 334.9 106.3C336.7 105.3 338.8 104.7 341.2 104.7C343.2 104.7 345 105.1 346.6 105.8C348.2 106.5 349.4 107.6 350.3 108.9C351.2 110.2 351.8 111.8 351.9 113.6H346.3C346.1 112.4 345.5 111.4 344.7 110.6C343.9 109.8 342.7 109.4 341.3 109.4C340.1 109.4 339 109.7 338.1 110.4C337.2 111 336.5 112 336 113.2C335.5 114.4 335.2 115.8 335.2 117.5C335.2 119.2 335.4 120.7 335.9 121.9C336.4 123.1 337.1 124.1 338 124.7C338.9 125.3 340 125.7 341.2 125.7C342.1 125.7 342.8 125.5 343.5 125.2C344.2 124.9 344.8 124.4 345.2 123.8C345.7 123.2 346 122.4 346.2 121.5H351.8C351.7 123.3 351.1 124.8 350.2 126.2C349.3 127.6 348.1 128.6 346.5 129.4C345.1 129.9 343.3 130.3 341.2 130.3Z" fill="#77809C"/>
<path d="M368.7 104.9V109.4H354.4V104.9H368.7ZM357.9 98.9H363.8V122.3C363.8 123.1 363.9 123.7 364.2 124.1C364.4 124.5 364.8 124.8 365.2 125C365.6 125.2 366 125.2 366.5 125.2C366.9 125.2 367.2 125.2 367.5 125.1C367.8 125 368 125 368.2 125L369.2 129.6C368.9 129.7 368.4 129.8 367.9 130C367.3 130.1 366.6 130.2 365.8 130.2C364.3 130.2 363 130 361.8 129.5C360.6 129 359.7 128.2 359 127.2C358.3 126.2 358 124.9 358 123.3V98.9H357.9Z" fill="#77809C"/>
<path d="M376.1 101.3C375.2 101.3 374.4 101 373.7 100.4C373 99.8 372.7 99 372.7 98.1C372.7 97.2 373 96.5 373.7 95.9C374.4 95.3 375.2 95 376.1 95C377 95 377.8 95.3 378.5 95.9C379.2 96.5 379.5 97.3 379.5 98.2C379.5 99.1 379.2 99.8 378.5 100.4C377.8 101 377 101.3 376.1 101.3ZM373.1 129.8V104.9H379V129.8H373.1Z" fill="#77809C"/>
<path d="M395.5 130.3C393.1 130.3 391 129.8 389.2 128.7C387.4 127.6 386 126.1 385.1 124.2C384.1 122.3 383.6 120 383.6 117.5C383.6 114.9 384.1 112.7 385.1 110.7C386.1 108.8 387.5 107.3 389.2 106.2C391 105.1 393.1 104.6 395.5 104.6C397.9 104.6 400 105.1 401.8 106.2C403.6 107.3 405 108.8 405.9 110.7C406.9 112.6 407.4 114.9 407.4 117.5C407.4 120.1 406.9 122.3 405.9 124.2C404.9 126.1 403.5 127.6 401.8 128.7C400 129.7 397.9 130.3 395.5 130.3ZM395.5 125.6C396.8 125.6 397.9 125.2 398.8 124.5C399.7 123.8 400.3 122.8 400.8 121.6C401.2 120.4 401.5 119 401.5 117.5C401.5 116 401.3 114.6 400.8 113.4C400.3 112.2 399.7 111.2 398.8 110.4C397.9 109.7 396.8 109.3 395.5 109.3C394.1 109.3 393 109.7 392.1 110.4C391.2 111.1 390.5 112.1 390.1 113.4C389.7 114.7 389.4 116 389.4 117.5C389.4 119 389.6 120.4 390.1 121.6C390.5 122.8 391.2 123.8 392.1 124.5C393 125.2 394.1 125.6 395.5 125.6Z" fill="#77809C"/>
<path d="M417.8 115.2V129.8H411.9V104.9H417.5V109.1H417.8C418.4 107.7 419.3 106.6 420.5 105.8C421.8 105 423.3 104.6 425.2 104.6C426.9 104.6 428.4 105 429.7 105.7C431 106.4 432 107.5 432.7 108.9C433.4 110.3 433.8 112 433.7 114V129.9H427.8V114.9C427.8 113.2 427.4 111.9 426.5 111C425.6 110.1 424.5 109.6 422.9 109.6C421.9 109.6 421 109.8 420.2 110.3C419.4 110.7 418.8 111.4 418.3 112.2C417.8 113 417.8 114 417.8 115.2Z" fill="#77809C"/>
<path d="M450.2 139.1V104.8H456V108.9H456.3C456.6 108.3 457 107.6 457.6 107C458.2 106.3 458.9 105.7 459.8 105.2C460.7 104.7 461.9 104.5 463.4 104.5C465.3 104.5 467.1 105 468.6 106C470.1 107 471.4 108.4 472.3 110.3C473.2 112.2 473.7 114.5 473.7 117.3C473.7 120 473.3 122.4 472.4 124.3C471.5 126.2 470.3 127.7 468.7 128.7C467.1 129.7 465.4 130.2 463.4 130.2C462 130.2 460.8 130 459.8 129.5C458.9 129 458.1 128.4 457.5 127.8C456.9 127.1 456.5 126.5 456.2 125.9H456V139.2H450.2V139.1ZM455.9 117.3C455.9 118.9 456.1 120.3 456.6 121.5C457.1 122.7 457.7 123.7 458.6 124.3C459.5 124.9 460.5 125.3 461.8 125.3C463.1 125.3 464.2 125 465.1 124.3C466 123.6 466.6 122.6 467.1 121.4C467.5 120.2 467.8 118.8 467.8 117.2C467.8 115.7 467.6 114.3 467.1 113.1C466.7 111.9 466 111 465.1 110.3C464.2 109.6 463.1 109.3 461.8 109.3C460.5 109.3 459.5 109.6 458.6 110.3C457.7 111 457.1 111.9 456.6 113.1C456.2 114.3 455.9 115.7 455.9 117.3Z" fill="#77809C"/>
<path d="M478.3 129.8V104.9H484V109.1H484.3C484.8 107.7 485.5 106.6 486.6 105.8C487.7 105 489 104.6 490.4 104.6C490.7 104.6 491.1 104.6 491.5 104.6C491.9 104.6 492.2 104.7 492.5 104.7V110.1C492.3 110 491.9 109.9 491.3 109.9C490.7 109.9 490.2 109.8 489.8 109.8C488.7 109.8 487.8 110 486.9 110.5C486 111 485.4 111.6 484.9 112.4C484.4 113.2 484.2 114.1 484.2 115.2V129.8H478.3Z" fill="#77809C"/>
<path d="M506.8 130.3C504.4 130.3 502.3 129.8 500.5 128.7C498.7 127.6 497.3 126.1 496.4 124.2C495.4 122.3 494.9 120 494.9 117.5C494.9 114.9 495.4 112.7 496.4 110.7C497.4 108.8 498.8 107.3 500.5 106.2C502.3 105.1 504.4 104.6 506.8 104.6C509.2 104.6 511.3 105.1 513.1 106.2C514.9 107.3 516.3 108.8 517.2 110.7C518.2 112.6 518.7 114.9 518.7 117.5C518.7 120.1 518.2 122.3 517.2 124.2C516.2 126.1 514.8 127.6 513.1 128.7C511.3 129.7 509.2 130.3 506.8 130.3ZM506.8 125.6C508.1 125.6 509.2 125.2 510.1 124.5C511 123.8 511.6 122.8 512.1 121.6C512.5 120.4 512.8 119 512.8 117.5C512.8 116 512.6 114.6 512.1 113.4C511.6 112.2 511 111.2 510.1 110.4C509.2 109.7 508.1 109.3 506.8 109.3C505.4 109.3 504.3 109.7 503.4 110.4C502.5 111.1 501.8 112.1 501.4 113.4C501 114.7 500.7 116 500.7 117.5C500.7 119 500.9 120.4 501.4 121.6C501.8 122.8 502.5 123.8 503.4 124.5C504.3 125.2 505.5 125.6 506.8 125.6Z" fill="#77809C"/>
<path d="M523.2 104.9H529.1V131.2C529.1 133 528.8 134.5 528.1 135.6C527.4 136.8 526.4 137.6 525.1 138.2C523.8 138.8 522.3 139.1 520.4 139.1C520.2 139.1 520 139.1 519.8 139.1C519.6 139.1 519.4 139.1 519.2 139.1V134.3C519.4 134.3 519.5 134.3 519.6 134.3C519.7 134.3 519.9 134.3 520 134.3C521.1 134.3 521.9 134 522.4 133.5C522.9 133 523.1 132.2 523.1 131.1V104.9H523.2ZM526.2 101.3C525.3 101.3 524.5 101 523.8 100.4C523.1 99.8 522.8 99 522.8 98.2C522.8 97.3 523.1 96.6 523.8 95.9C524.5 95.2 525.3 95 526.2 95C527.1 95 527.9 95.3 528.6 95.9C529.3 96.5 529.6 97.3 529.6 98.2C529.6 99.1 529.3 99.8 528.6 100.4C527.9 101 527.1 101.3 526.2 101.3Z" fill="#77809C"/>
<path d="M545.7 130.3C543.2 130.3 541 129.8 539.2 128.7C537.4 127.7 536 126.2 535 124.3C534 122.4 533.5 120.1 533.5 117.5C533.5 114.9 534 112.7 535 110.7C536 108.8 537.3 107.2 539.1 106.2C540.9 105.2 542.9 104.6 545.3 104.6C546.8 104.6 548.3 104.8 549.7 105.3C551.1 105.8 552.3 106.6 553.3 107.6C554.4 108.6 555.2 109.9 555.8 111.5C556.4 113.1 556.7 115 556.7 117.2V119H536.3V115H551.1C551.1 113.9 550.8 112.9 550.4 112C549.9 111.1 549.3 110.4 548.4 109.9C547.6 109.4 546.6 109.1 545.4 109.1C544.2 109.1 543.1 109.4 542.2 110C541.3 110.6 540.6 111.3 540.1 112.3C539.6 113.3 539.3 114.3 539.3 115.4V118.9C539.3 120.3 539.6 121.6 540.1 122.6C540.6 123.6 541.4 124.4 542.3 125C543.3 125.5 544.4 125.8 545.6 125.8C546.5 125.8 547.2 125.7 547.9 125.4C548.6 125.2 549.2 124.8 549.7 124.3C550.2 123.8 550.6 123.2 550.9 122.5L556.4 123.1C556.1 124.5 555.4 125.8 554.4 126.9C553.4 128 552.2 128.8 550.7 129.4C549.4 130 547.6 130.3 545.7 130.3Z" fill="#77809C"/>
<path d="M572.2 130.3C569.7 130.3 567.6 129.8 565.8 128.7C564 127.6 562.7 126.1 561.7 124.2C560.7 122.3 560.3 120 560.3 117.5C560.3 115 560.8 112.7 561.8 110.8C562.8 108.9 564.1 107.3 565.9 106.3C567.7 105.3 569.8 104.7 572.2 104.7C574.2 104.7 576 105.1 577.6 105.8C579.2 106.5 580.4 107.6 581.3 108.9C582.2 110.2 582.8 111.8 582.9 113.6H577.3C577.1 112.4 576.5 111.4 575.7 110.6C574.9 109.8 573.7 109.4 572.3 109.4C571.1 109.4 570 109.7 569.1 110.4C568.2 111 567.5 112 567 113.2C566.5 114.4 566.2 115.8 566.2 117.5C566.2 119.2 566.4 120.7 566.9 121.9C567.4 123.1 568.1 124.1 569 124.7C569.9 125.3 571 125.7 572.2 125.7C573.1 125.7 573.8 125.5 574.5 125.2C575.2 124.9 575.8 124.4 576.2 123.8C576.7 123.2 577 122.4 577.2 121.5H582.8C582.7 123.3 582.1 124.8 581.2 126.2C580.3 127.6 579.1 128.6 577.5 129.4C576.1 129.9 574.3 130.3 572.2 130.3Z" fill="#77809C"/>
<path d="M599.7 104.9V109.4H585.4V104.9H599.7ZM588.9 98.9H594.8V122.3C594.8 123.1 594.9 123.7 595.2 124.1C595.4 124.5 595.8 124.8 596.2 125C596.6 125.2 597 125.2 597.5 125.2C597.9 125.2 598.2 125.2 598.5 125.1C598.8 125 599 125 599.2 125L600.2 129.6C599.9 129.7 599.4 129.8 598.9 130C598.3 130.1 597.6 130.2 596.8 130.2C595.3 130.2 594 130 592.8 129.5C591.6 129 590.7 128.2 590 127.2C589.3 126.2 589 124.9 589 123.3V98.9H588.9Z" fill="#77809C"/>
<path d="M623.8 111.5L618.4 112.1C618.2 111.6 618 111.1 617.6 110.6C617.2 110.1 616.7 109.7 616.1 109.4C615.5 109.1 614.7 109 613.8 109C612.6 109 611.6 109.3 610.7 109.8C609.9 110.3 609.5 111 609.5 111.9C609.5 112.6 609.8 113.2 610.3 113.7C610.8 114.2 611.8 114.5 613 114.8L617.2 115.7C619.6 116.2 621.3 117 622.5 118.1C623.7 119.2 624.2 120.6 624.2 122.4C624.2 124 623.7 125.4 622.8 126.5C621.9 127.7 620.6 128.6 619 129.3C617.4 130 615.6 130.3 613.5 130.3C610.5 130.3 608 129.7 606.1 128.4C604.2 127.1 603.1 125.3 602.8 123L608.5 122.4C608.8 123.5 609.3 124.4 610.2 124.9C611.1 125.4 612.1 125.8 613.5 125.8C614.9 125.8 616 125.5 616.9 124.9C617.7 124.3 618.2 123.6 618.2 122.8C618.2 122.1 617.9 121.5 617.4 121C616.9 120.5 616 120.2 614.9 119.9L610.6 119C608.2 118.5 606.4 117.7 605.3 116.5C604.2 115.3 603.6 113.8 603.6 112C603.6 110.5 604 109.1 604.9 108C605.8 106.9 606.9 106 608.5 105.4C610 104.8 611.8 104.5 613.8 104.5C616.7 104.5 619 105.1 620.7 106.4C622.4 107.7 623.4 109.3 623.8 111.5Z" fill="#77809C"/>
<path d="M644.8 129.8L637.8 104.9H643.8L648.2 122.4H648.4L652.9 104.9H658.8L663.3 122.3H663.5L667.8 104.9H673.8L666.7 129.8H660.6L655.9 113H655.6L650.9 129.8H644.8Z" fill="#77809C"/>
<path d="M688.4 130.3C685.9 130.3 683.7 129.8 681.9 128.7C680.1 127.7 678.7 126.2 677.7 124.3C676.7 122.4 676.2 120.1 676.2 117.5C676.2 114.9 676.7 112.7 677.7 110.7C678.7 108.8 680 107.2 681.8 106.2C683.6 105.2 685.6 104.6 688 104.6C689.5 104.6 691 104.8 692.4 105.3C693.8 105.8 695 106.6 696 107.6C697.1 108.6 697.9 109.9 698.5 111.5C699.1 113.1 699.4 115 699.4 117.2V119H679V115H693.8C693.8 113.9 693.5 112.9 693.1 112C692.6 111.1 692 110.4 691.1 109.9C690.3 109.4 689.3 109.1 688.1 109.1C686.9 109.1 685.8 109.4 684.9 110C684 110.6 683.3 111.3 682.8 112.3C682.3 113.3 682 114.3 682 115.4V118.9C682 120.3 682.3 121.6 682.8 122.6C683.3 123.6 684.1 124.4 685 125C686 125.5 687.1 125.8 688.3 125.8C689.2 125.8 689.9 125.7 690.6 125.4C691.3 125.2 691.9 124.8 692.4 124.3C692.9 123.8 693.3 123.2 693.6 122.5L699.1 123.1C698.8 124.5 698.1 125.8 697.1 126.9C696.1 128 694.9 128.8 693.4 129.4C692.1 130 690.4 130.3 688.4 130.3Z" fill="#77809C"/>
<path d="M704 129.8V104.9H709.7V109.1H710C710.5 107.7 711.2 106.6 712.3 105.8C713.4 105 714.7 104.6 716.1 104.6C716.4 104.6 716.8 104.6 717.2 104.6C717.6 104.6 717.9 104.7 718.2 104.7V110.1C718 110 717.6 109.9 717 109.9C716.4 109.9 715.9 109.8 715.5 109.8C714.4 109.8 713.5 110 712.6 110.5C711.7 111 711.1 111.6 710.6 112.4C710.1 113.2 709.9 114.1 709.9 115.2V129.8H704Z" fill="#77809C"/>
<path d="M732.7 130.3C730.2 130.3 728 129.8 726.2 128.7C724.4 127.7 723 126.2 722 124.3C721 122.4 720.5 120.1 720.5 117.5C720.5 114.9 721 112.7 722 110.7C723 108.8 724.3 107.2 726.1 106.2C727.9 105.2 729.9 104.6 732.3 104.6C733.8 104.6 735.3 104.8 736.7 105.3C738.1 105.8 739.3 106.6 740.3 107.6C741.4 108.6 742.2 109.9 742.8 111.5C743.4 113.1 743.7 115 743.7 117.2V119H723.3V115H738.1C738.1 113.9 737.8 112.9 737.4 112C736.9 111.1 736.3 110.4 735.4 109.9C734.6 109.4 733.6 109.1 732.4 109.1C731.2 109.1 730.1 109.4 729.2 110C728.3 110.6 727.6 111.3 727.1 112.3C726.6 113.3 726.3 114.3 726.3 115.4V118.9C726.3 120.3 726.6 121.6 727.1 122.6C727.6 123.6 728.4 124.4 729.3 125C730.3 125.5 731.4 125.8 732.6 125.8C733.5 125.8 734.2 125.7 734.9 125.4C735.6 125.2 736.2 124.8 736.7 124.3C737.2 123.8 737.6 123.2 737.9 122.5L743.4 123.1C743.1 124.5 742.4 125.8 741.4 126.9C740.4 128 739.2 128.8 737.7 129.4C736.4 130 734.7 130.3 732.7 130.3Z" fill="#77809C"/>
<path d="M80.1999 159.7L71.2999 184.6H64.7999L55.8999 159.7H62.1999L67.8999 178.2H68.1999L73.8999 159.7H80.1999Z" fill="#77809C"/>
<path d="M90.9 185.1C89.3 185.1 87.9 184.8 86.6 184.2C85.3 183.6 84.3 182.8 83.6 181.7C82.9 180.6 82.5 179.2 82.5 177.6C82.5 176.2 82.8 175 83.3 174.1C83.8 173.2 84.5 172.4 85.4 171.9C86.3 171.3 87.3 170.9 88.4 170.6C89.5 170.3 90.7 170.1 91.9 170C93.4 169.8 94.5 169.7 95.5 169.6C96.5 169.5 97.1 169.3 97.5 169C97.9 168.7 98.1 168.3 98.1 167.8V167.7C98.1 166.5 97.7 165.5 97 164.9C96.3 164.2 95.2 163.9 93.9 163.9C92.5 163.9 91.3 164.2 90.5 164.8C89.7 165.4 89.1 166.2 88.8 167L83.3 166.2C83.7 164.7 84.4 163.4 85.4 162.4C86.4 161.4 87.6 160.6 89 160.1C90.4 159.6 92 159.3 93.8 159.3C95 159.3 96.2 159.4 97.4 159.7C98.6 160 99.7 160.4 100.7 161.1C101.7 161.8 102.5 162.6 103.1 163.7C103.7 164.8 104 166.2 104 167.8V184.5H98.4V181.1H98.2C97.8 181.8 97.3 182.4 96.7 183C96.1 183.6 95.3 184.1 94.3 184.4C93.4 184.9 92.2 185.1 90.9 185.1ZM92.5 180.8C93.7 180.8 94.7 180.6 95.6 180.1C96.5 179.6 97.1 179 97.6 178.2C98.1 177.4 98.3 176.6 98.3 175.7V172.8C98.1 173 97.8 173.1 97.4 173.2C97 173.3 96.5 173.4 95.9 173.5C95.4 173.6 94.8 173.7 94.3 173.8C93.8 173.9 93.3 173.9 92.9 174C92 174.1 91.2 174.3 90.5 174.6C89.8 174.9 89.3 175.2 88.9 175.7C88.5 176.2 88.3 176.8 88.3 177.6C88.3 178.7 88.7 179.5 89.5 180C90.2 180.5 91.2 180.8 92.5 180.8Z" fill="#77809C"/>
<path d="M115.4 151.4V184.6H109.5V151.4H115.4Z" fill="#77809C"/>
<path d="M136.9 174.1V159.7H142.8V184.6H137.1V180.2H136.8C136.2 181.6 135.3 182.7 134 183.6C132.7 184.5 131.1 184.9 129.3 184.9C127.7 184.9 126.2 184.5 125 183.8C123.8 183.1 122.8 182 122.1 180.6C121.4 179.2 121 177.5 121 175.5V159.6H126.9V174.6C126.9 176.2 127.3 177.4 128.2 178.4C129.1 179.3 130.2 179.8 131.6 179.8C132.5 179.8 133.3 179.6 134.1 179.2C134.9 178.8 135.6 178.1 136.1 177.3C136.6 176.4 136.9 175.4 136.9 174.1Z" fill="#77809C"/>
<path d="M159.4 185.1C156.9 185.1 154.7 184.6 152.9 183.5C151.1 182.5 149.7 181 148.7 179.1C147.7 177.2 147.2 174.9 147.2 172.3C147.2 169.7 147.7 167.5 148.7 165.5C149.7 163.6 151 162 152.8 161C154.6 160 156.6 159.4 159 159.4C160.5 159.4 162 159.6 163.4 160.1C164.8 160.6 166 161.4 167 162.4C168.1 163.4 168.9 164.7 169.5 166.3C170.1 167.9 170.4 169.8 170.4 172V173.8H150V169.8H164.8C164.8 168.7 164.5 167.7 164.1 166.8C163.6 165.9 163 165.2 162.1 164.7C161.3 164.2 160.3 163.9 159.1 163.9C157.9 163.9 156.8 164.2 155.9 164.8C155 165.4 154.3 166.1 153.8 167.1C153.3 168.1 153 169.1 153 170.2V173.7C153 175.1 153.3 176.4 153.8 177.4C154.3 178.4 155.1 179.2 156 179.8C157 180.3 158.1 180.6 159.3 180.6C160.2 180.6 160.9 180.5 161.6 180.2C162.3 180 162.9 179.6 163.4 179.1C163.9 178.6 164.3 178 164.6 177.3L170.1 177.9C169.8 179.3 169.1 180.6 168.1 181.7C167.1 182.8 165.9 183.6 164.4 184.2C163 184.8 161.3 185.1 159.4 185.1Z" fill="#77809C"/>
<path d="M184.2 185C182.2 185 180.5 184.5 178.9 183.5C177.4 182.5 176.1 181 175.2 179.1C174.3 177.2 173.9 174.9 173.9 172.1C173.9 169.3 174.4 167 175.3 165.1C176.2 163.2 177.4 161.7 179 160.8C180.6 159.8 182.3 159.3 184.2 159.3C185.7 159.3 186.9 159.5 187.8 160C188.7 160.5 189.5 161.1 190 161.8C190.6 162.5 191 163.1 191.3 163.7H191.5V151.3H197.4V184.5H191.6V180.6H191.2C190.9 181.2 190.5 181.8 189.9 182.5C189.3 183.2 188.6 183.8 187.6 184.2C186.8 184.8 185.6 185 184.2 185ZM185.8 180.2C187 180.2 188.1 179.9 189 179.2C189.9 178.5 190.5 177.6 191 176.4C191.5 175.2 191.7 173.8 191.7 172.2C191.7 170.6 191.5 169.2 191 168C190.5 166.8 189.9 165.9 189 165.2C188.1 164.5 187.1 164.2 185.8 164.2C184.5 164.2 183.4 164.5 182.5 165.2C181.6 165.9 181 166.8 180.5 168C180 169.2 179.8 170.6 179.8 172.1C179.8 173.7 180 175 180.5 176.3C180.9 177.5 181.6 178.5 182.5 179.2C183.5 179.9 184.5 180.2 185.8 180.2Z" fill="#77809C"/>
<path d="M221.3 185.1C219.7 185.1 218.3 184.8 217 184.2C215.7 183.6 214.7 182.8 214 181.7C213.3 180.6 212.9 179.2 212.9 177.6C212.9 176.2 213.2 175 213.7 174.1C214.2 173.2 214.9 172.4 215.8 171.9C216.7 171.3 217.7 170.9 218.8 170.6C219.9 170.3 221.1 170.1 222.3 170C223.8 169.8 224.9 169.7 225.9 169.6C226.9 169.5 227.5 169.3 227.9 169C228.3 168.7 228.5 168.3 228.5 167.8V167.7C228.5 166.5 228.1 165.5 227.4 164.9C226.7 164.2 225.6 163.9 224.3 163.9C222.9 163.9 221.7 164.2 220.9 164.8C220.1 165.4 219.5 166.2 219.2 167L213.7 166.2C214.1 164.7 214.8 163.4 215.8 162.4C216.8 161.4 218 160.6 219.4 160.1C220.8 159.6 222.4 159.3 224.2 159.3C225.4 159.3 226.6 159.4 227.8 159.7C229 160 230.1 160.4 231.1 161.1C232.1 161.8 232.9 162.6 233.5 163.7C234.1 164.8 234.4 166.2 234.4 167.8V184.5H228.8V181.1H228.6C228.2 181.8 227.7 182.4 227.1 183C226.5 183.6 225.7 184.1 224.7 184.4C223.8 184.9 222.6 185.1 221.3 185.1ZM222.9 180.8C224.1 180.8 225.1 180.6 226 180.1C226.9 179.6 227.5 179 228 178.2C228.5 177.4 228.7 176.6 228.7 175.7V172.8C228.5 173 228.2 173.1 227.8 173.2C227.4 173.3 226.9 173.4 226.3 173.5C225.8 173.6 225.2 173.7 224.7 173.8C224.2 173.9 223.7 173.9 223.3 174C222.4 174.1 221.6 174.3 220.9 174.6C220.2 174.9 219.7 175.2 219.3 175.7C218.9 176.2 218.7 176.8 218.7 177.6C218.7 178.7 219.1 179.5 219.9 180C220.6 180.5 221.6 180.8 222.9 180.8Z" fill="#77809C"/>
<path d="M252.4 159.7V164.2H238.1V159.7H252.4ZM241.6 153.7H247.5V177.1C247.5 177.9 247.6 178.5 247.9 178.9C248.1 179.3 248.5 179.6 248.9 179.8C249.3 180 249.7 180 250.2 180C250.6 180 250.9 180 251.2 179.9C251.5 179.8 251.7 179.8 251.9 179.8L252.9 184.4C252.6 184.5 252.1 184.6 251.6 184.8C251 184.9 250.3 185 249.5 185C248 185 246.7 184.8 245.5 184.3C244.3 183.8 243.4 183 242.7 182C242 181 241.7 179.7 241.7 178.1V153.7H241.6Z" fill="#77809C"/>
<path d="M286.1 160.5C285.9 159.1 285.3 158 284.2 157.2C283.1 156.4 281.6 156 279.8 156C278.5 156 277.5 156.2 276.6 156.6C275.7 157 275 157.5 274.5 158.1C274 158.7 273.8 159.5 273.8 160.3C273.8 161 274 161.6 274.3 162.1C274.6 162.6 275.1 163 275.6 163.4C276.2 163.8 276.8 164 277.4 164.3C278.1 164.5 278.7 164.7 279.4 164.9L282.5 165.7C283.8 166 285 166.4 286.1 166.9C287.2 167.4 288.3 168 289.2 168.8C290.1 169.6 290.9 170.5 291.4 171.5C291.9 172.6 292.2 173.8 292.2 175.3C292.2 177.2 291.7 179 290.7 180.4C289.7 181.9 288.3 183 286.4 183.9C284.5 184.7 282.3 185.1 279.6 185.1C277 185.1 274.8 184.7 272.9 183.9C271 183.1 269.5 181.9 268.5 180.4C267.4 178.9 266.9 177 266.8 174.8H272.7C272.8 176 273.1 176.9 273.8 177.7C274.4 178.5 275.2 179 276.3 179.4C277.4 179.8 278.4 180 279.7 180C281 180 282.2 179.8 283.1 179.4C284.1 179 284.9 178.5 285.4 177.7C286 177 286.2 176.2 286.3 175.2C286.3 174.3 286 173.6 285.5 173.1C285 172.6 284.3 172.1 283.4 171.7C282.5 171.3 281.5 171 280.3 170.7L276.5 169.7C273.8 169 271.6 167.9 270 166.5C268.4 165.1 267.6 163.2 267.6 160.8C267.6 158.8 268.1 157.1 269.2 155.7C270.3 154.2 271.7 153.1 273.6 152.3C275.4 151.5 277.5 151.1 279.8 151.1C282.2 151.1 284.2 151.5 286 152.3C287.8 153.1 289.2 154.2 290.2 155.7C291.2 157.1 291.7 158.8 291.8 160.7H286.1V160.5ZM278.4 188.8V147.3H281.1V188.8H278.4Z" fill="#242438"/>
<path d="M298.1 184.6L312.2 156.6V156.4H295.8V151.4H318.4V156.5L304.3 184.6H298.1Z" fill="#242438"/>
<path d="M323.2 184.6V180.3L334.7 169C335.8 167.9 336.7 166.9 337.5 166C338.2 165.1 338.8 164.3 339.2 163.5C339.6 162.7 339.8 161.8 339.8 160.9C339.8 159.9 339.6 159 339.1 158.2C338.6 157.4 338 156.9 337.1 156.5C336.3 156.1 335.3 155.9 334.3 155.9C333.2 155.9 332.3 156.1 331.4 156.6C330.6 157 329.9 157.7 329.5 158.5C329.1 159.3 328.8 160.3 328.8 161.4H323C323 159.3 323.5 157.5 324.4 155.9C325.4 154.3 326.7 153.1 328.4 152.3C330.1 151.5 332 151 334.2 151C336.4 151 338.4 151.4 340.1 152.2C341.8 153 343.1 154.2 344 155.6C344.9 157 345.4 158.7 345.4 160.6C345.4 161.8 345.2 163.1 344.7 164.3C344.2 165.5 343.4 166.8 342.2 168.3C341 169.8 339.3 171.5 337.2 173.6L331.5 179.4V179.6H346V184.6H323.2Z" fill="#242438"/>
<path d="M351.5 184.6V151.4H364.2C366.6 151.4 368.6 151.8 370.2 152.5C371.8 153.3 373 154.3 373.8 155.6C374.6 156.9 375 158.4 375 160C375 161.4 374.7 162.5 374.2 163.5C373.7 164.5 373 165.2 372.1 165.8C371.2 166.4 370.2 166.8 369.2 167.1V167.4C370.4 167.5 371.5 167.8 372.6 168.5C373.7 169.2 374.6 170.1 375.3 171.3C376 172.5 376.3 173.9 376.3 175.6C376.3 177.3 375.9 178.9 375.1 180.2C374.3 181.6 373 182.6 371.3 183.4C369.6 184.2 367.5 184.6 365 184.6H351.5ZM357.5 165.5H363.5C364.5 165.5 365.5 165.3 366.3 164.9C367.1 164.5 367.8 164 368.3 163.3C368.8 162.6 369 161.8 369 160.8C369 159.5 368.5 158.5 367.6 157.6C366.7 156.8 365.4 156.4 363.6 156.4H357.5V165.5ZM357.5 179.6H364C366.2 179.6 367.8 179.2 368.7 178.3C369.7 177.5 370.2 176.4 370.2 175.1C370.2 174.1 370 173.2 369.5 172.4C369 171.6 368.3 171 367.4 170.5C366.5 170 365.4 169.8 364.2 169.8H357.6V179.6H357.5Z" fill="#242438"/>
<path d="M384.4 185C383.4 185 382.6 184.7 381.9 184C381.2 183.3 380.9 182.5 380.9 181.5C380.9 180.5 381.2 179.7 381.9 179C382.6 178.3 383.4 178 384.4 178C385.4 178 386.2 178.3 386.9 179C387.6 179.7 388 180.5 388 181.5C388 182.2 387.8 182.8 387.5 183.3C387.2 183.8 386.7 184.3 386.2 184.6C385.6 184.8 385 185 384.4 185Z" fill="#77809C"/>
</g>
<mask id="mask7_9_3" style="mask-type:luminance" maskUnits="userSpaceOnUse" x="0" y="0" width="1521" height="255">
<path d="M1521 0H0V255H1521V0Z" fill="white"/>
</mask>
<g mask="url(#mask7_9_3)">
<path d="M1468 59C1480.15 59 1490 49.1503 1490 37C1490 24.8497 1480.15 15 1468 15C1455.85 15 1446 24.8497 1446 37C1446 49.1503 1455.85 59 1468 59Z" fill="#D4F6FF"/>
</g>
<mask id="mask8_9_3" style="mask-type:luminance" maskUnits="userSpaceOnUse" x="0" y="0" width="1521" height="255">
<path d="M1521 0H0V255H1521V0Z" fill="white"/>
</mask>
<g mask="url(#mask8_9_3)">
<path d="M1457.5 74C1457.5 89.4 1457.5 104.8 1457.5 120.1C1456 122.3 1453.9 122.9 1451.3 122.8C1446 122.6 1440.8 122.8 1435.5 122.8C1428.1 122.8 1427.5 122.2 1427.5 114.7C1427.5 110.1 1427.5 105.5 1427.5 100.7C1423.8 101.8 1420.6 102.9 1417.3 103.7C1415.2 104.2 1414.5 105.1 1414.5 107.3C1414.6 155.8 1414.6 204.4 1414.6 252.9C1414.6 253.8 1414.6 254.8 1414.6 255.8C1417.3 255.8 1419.6 255.8 1422 255.8C1426 255.8 1427.5 257.3 1427.5 261.3C1427.5 265.1 1427.5 268.9 1427.5 273C1435.6 273 1443.5 273.1 1451.3 272.9C1453.9 272.9 1456 273.5 1457.5 275.6C1457.5 284.7 1457.5 293.8 1457.5 303C1366.9 303 1276.2 303 1185.6 303C1183.4 301.5 1182.8 299.4 1182.9 296.8C1183.1 290.6 1182.9 284.5 1183 278.3C1183 274.5 1184.5 273 1188.4 273C1190.9 273 1193.3 273 1195.9 273C1195.9 271.5 1195.9 270.4 1195.9 269.4C1195.9 238.2 1195.9 207 1195.9 175.8C1195.9 171.4 1197.3 170.1 1201.7 170C1204 170 1206.3 170 1208.8 170C1208.8 168.7 1208.8 167.8 1208.8 166.8C1208.8 153.9 1208.8 141.1 1208.8 128.2C1208.8 124.3 1210.3 122.8 1214.1 122.8C1218.9 122.8 1223.8 122.8 1228.6 122.8C1233.2 122.8 1234.5 124.1 1234.5 128.7C1234.5 141.5 1234.5 154.3 1234.5 167.1C1234.5 168 1234.5 169 1234.5 169.9C1239 169.9 1243.2 169.9 1247.4 169.9C1247.4 155.9 1247.4 142.2 1247.4 128.4C1247.4 124.4 1248.9 122.9 1252.9 122.9C1257.6 122.9 1262.4 122.9 1267.1 122.9C1271.8 122.9 1273.1 124.2 1273.1 129C1273.1 151.6 1273.1 174.2 1273.1 196.9C1273.1 197.9 1273.1 199 1273.1 200.2C1274.4 200.2 1275.3 200.2 1276.3 200.2C1296.1 200.2 1315.8 200.2 1335.6 200.2C1340.5 200.2 1341.8 201.4 1341.8 206.4C1341.8 227.6 1341.8 248.8 1341.8 270C1341.8 271 1341.8 272.1 1341.8 273.1C1347.7 273.1 1353.2 273.1 1359 273.1C1359 269.2 1359 265.3 1359 261.5C1359 257.5 1360.5 256.1 1364.5 256.1C1368.3 256.1 1372.1 256.1 1375.9 256.1C1375.9 205.9 1375.9 155.9 1375.9 106C1357.3 106 1338.9 106 1320.3 106C1320.3 109.9 1320.4 113.6 1320.3 117.3C1320.3 118.8 1320.6 119.6 1322.1 120.4C1326.6 122.8 1328.9 126.8 1328.9 132C1328.9 135.8 1327.1 138.8 1324.3 141.5C1325 142.2 1325.7 142.8 1326.4 143.3C1333.5 149.4 1340.6 155.6 1347.8 161.6C1349.7 163.2 1350.5 164.9 1350.5 167.4C1350.4 172.3 1350.5 177.2 1350.5 182.1C1350.5 185.7 1348.9 187.3 1345.2 187.3C1325.8 187.3 1306.4 187.3 1287 187.3C1283.4 187.3 1281.8 185.7 1281.8 182C1281.8 177.2 1281.9 172.3 1281.8 167.5C1281.7 164.9 1282.6 163.1 1284.5 161.5C1291.1 156 1297.6 150.4 1304.1 144.8C1305.4 143.7 1306.6 142.6 1307.9 141.5C1300.8 132.9 1301.9 125.6 1310.9 119.8C1311.3 119.5 1311.9 118.9 1311.9 118.5C1312 114.3 1311.9 110.2 1311.9 105.8C1310.6 105.8 1309.5 105.8 1308.4 105.8C1278.5 105.8 1248.5 105.8 1218.6 105.8C1216.5 105.8 1214.7 105.4 1213.7 103.3C1212.7 101.2 1213.5 99.5 1214.9 97.9C1221.6 89.9 1228.2 81.8 1235 73.8C1236 72.7 1237.5 71.7 1238.9 71.4C1247.5 69.5 1256.2 67.8 1264.8 66C1295.7 59.6 1326.7 53.2 1357.6 47C1371 44.3 1384.3 40.2 1398.3 41.4C1401.2 41.6 1404.2 41.6 1407.1 41.4C1409.6 41.2 1411.6 42 1413.6 43.4C1426.8 52.5 1440.1 61.6 1453.4 70.7C1454.7 71.5 1456.1 72.8 1457.5 74ZM1333 208.6C1331.8 208.6 1330.9 208.6 1329.9 208.6C1310.2 208.6 1290.4 208.5 1270.7 208.7C1267.5 208.7 1265.6 207.6 1264.1 204.8C1259.7 196.7 1255 188.8 1250.5 180.8C1249.6 179.2 1248.7 178.5 1246.8 178.5C1233.6 178.6 1220.3 178.6 1207.1 178.6C1206.3 178.6 1205.4 178.6 1204.6 178.6C1204.6 210.3 1204.6 241.5 1204.6 272.8C1216 272.8 1227.3 272.8 1238.8 272.8C1238.8 263.1 1238.8 253.5 1238.8 244C1238.8 240.2 1240.3 238.7 1244.2 238.7C1260.6 238.7 1277.1 238.7 1293.5 238.7C1297.3 238.7 1298.8 240.2 1298.8 244.1C1298.8 252.8 1298.8 261.4 1298.8 270.1C1298.8 271 1298.8 272 1298.8 272.9C1310.4 272.9 1321.6 272.9 1333 272.9C1333 251.5 1333 230.2 1333 208.6ZM1191.6 294.2C1277.5 294.2 1363.1 294.2 1448.7 294.2C1448.7 289.9 1448.7 285.7 1448.7 281.6C1362.9 281.6 1277.3 281.6 1191.6 281.6C1191.6 285.9 1191.6 290 1191.6 294.2ZM1247.4 272.8C1261.8 272.8 1275.9 272.8 1290 272.8C1290 264.2 1290 255.8 1290 247.4C1275.7 247.4 1261.6 247.4 1247.4 247.4C1247.4 255.9 1247.4 264.2 1247.4 272.8ZM1283.1 70.8C1283.1 70.9 1283.2 71.1 1283.2 71.2C1310 71.2 1336.8 71.2 1363.6 71.1C1364.3 71.1 1365.4 70.4 1365.8 69.7C1369 64.3 1372 58.9 1375.1 53.4C1375.3 53 1375.5 52.5 1375.9 51.6C1344.6 58.1 1313.9 64.5 1283.1 70.8ZM1405.9 80C1394.4 80 1383.1 80 1371.9 80C1371.9 85.8 1371.9 91.3 1371.9 96.8C1383.3 96.8 1394.6 96.8 1405.9 96.8C1405.9 91.2 1405.9 85.7 1405.9 80ZM1405.9 49.8C1402.1 49.8 1398.6 50.2 1395.2 49.7C1389 48.8 1385.4 51 1383 56.8C1380.9 61.7 1377.8 66.2 1375 71.1C1385.6 71.1 1395.7 71.1 1406 71.1C1405.9 64 1405.9 57 1405.9 49.8ZM1367.6 264.5C1367.6 267.4 1367.6 270.1 1367.6 272.8C1384.8 272.8 1401.8 272.8 1418.8 272.8C1418.8 270 1418.8 267.3 1418.8 264.5C1401.7 264.5 1384.8 264.5 1367.6 264.5ZM1290.3 178.4C1307.5 178.4 1324.5 178.4 1341.5 178.4C1341.5 175.6 1341.5 172.9 1341.5 170.2C1324.4 170.2 1307.4 170.2 1290.3 170.2C1290.3 172.9 1290.3 175.6 1290.3 178.4ZM1264.3 187.8C1264.3 168.5 1264.3 150 1264.3 131.6C1261.4 131.6 1258.7 131.6 1255.9 131.6C1255.9 145.2 1255.9 158.6 1255.9 172C1255.9 172.6 1256 173.3 1256.3 173.8C1258.8 178.2 1261.3 182.7 1264.3 187.8ZM1414.7 80C1414.7 85.2 1414.7 90.2 1414.7 95.5C1426.1 92.1 1437.4 88.7 1448.8 85.3C1448.8 83.4 1448.8 81.8 1448.8 80C1437.4 80 1426.1 80 1414.7 80ZM1225.6 169.8C1225.6 156.9 1225.6 144.2 1225.6 131.5C1222.7 131.5 1220 131.5 1217.3 131.5C1217.3 144.4 1217.3 157 1217.3 169.8C1220.2 169.8 1222.8 169.8 1225.6 169.8ZM1334.2 161.2C1327.9 155.8 1322 150.7 1315.9 145.5C1309.8 150.7 1303.9 155.8 1297.7 161.2C1310.1 161.2 1321.8 161.2 1334.2 161.2ZM1384.8 221.4C1384.8 231.3 1384.8 240.8 1384.8 250.6C1391.2 245.1 1397.2 240 1403.4 234.6C1397.1 230.2 1391.1 225.9 1384.8 221.4ZM1405.8 140C1405.8 130.1 1405.8 120.7 1405.8 110.9C1399.5 116.3 1393.4 121.5 1387.3 126.8C1393.5 131.2 1399.5 135.5 1405.8 140ZM1402.9 148.5C1396.6 144 1390.8 139.9 1384.7 135.5C1384.7 144.3 1384.7 152.7 1384.7 161.4C1390.9 157.1 1396.8 152.9 1402.9 148.5ZM1384.7 178.4C1384.7 187.3 1384.7 195.6 1384.7 204.4C1390.9 200 1396.8 195.8 1402.9 191.4C1396.7 187 1390.9 182.8 1384.7 178.4ZM1405.9 156.9C1399.6 161.4 1393.8 165.6 1387.7 169.9C1393.9 174.3 1399.8 178.5 1405.9 182.9C1405.9 174.1 1405.9 165.8 1405.9 156.9ZM1387.7 212.9C1393.9 217.3 1399.8 221.5 1405.8 225.8C1405.8 217 1405.8 208.6 1405.8 199.9C1399.7 204.3 1393.9 208.4 1387.7 212.9ZM1436.2 114C1440.6 114 1444.6 114 1448.8 114C1448.8 107.4 1448.8 100.9 1448.8 94.2C1444.5 95.5 1440.3 96.7 1436.2 98C1436.2 103.4 1436.2 108.7 1436.2 114ZM1439.4 71.1C1430.9 65.2 1423 59.6 1414.8 53.9C1414.8 59.9 1414.8 65.6 1414.8 71.1C1422.9 71.1 1430.8 71.1 1439.4 71.1ZM1269.5 96.9C1277.7 96.9 1285.5 96.9 1293.8 96.9C1289.6 91.9 1285.7 87.2 1281.7 82.3C1277.5 87.2 1273.6 91.9 1269.5 96.9ZM1324.5 82.3C1320.3 87.3 1316.4 92 1312.4 96.8C1320.6 96.8 1328.4 96.8 1336.6 96.8C1332.5 91.8 1328.6 87.2 1324.5 82.3ZM1238.7 82.3C1234.5 87.3 1230.6 92 1226.6 96.8C1234.8 96.8 1242.6 96.8 1250.8 96.8C1246.7 91.8 1242.8 87.2 1238.7 82.3ZM1333.8 80C1338 85 1341.9 89.7 1346 94.6C1350.1 89.7 1354 85 1358.2 80C1349.8 80 1342 80 1333.8 80ZM1303.1 94.6C1307.2 89.6 1311.1 84.9 1315.2 80.1C1306.9 80.1 1299.1 80.1 1291 80.1C1295.1 85 1299 89.7 1303.1 94.6ZM1248 80C1252.2 85 1256.1 89.8 1260.2 94.6C1264.4 89.6 1268.2 84.9 1272.4 80C1263.9 80 1256.2 80 1248 80ZM1384.7 117.7C1389.5 113.6 1393.8 109.9 1398.5 105.8C1393.5 105.8 1389.1 105.8 1384.7 105.8C1384.7 109.6 1384.7 113.3 1384.7 117.7ZM1405.8 255.7C1405.8 251.7 1405.8 248 1405.8 243.9C1401.2 247.9 1396.8 251.6 1392 255.7C1397 255.7 1401.4 255.7 1405.8 255.7ZM1320.2 131.3C1320.2 129 1318.2 127.1 1315.9 127.1C1313.6 127.1 1311.7 129.1 1311.7 131.4C1311.7 133.7 1313.7 135.6 1316 135.6C1318.3 135.6 1320.2 133.6 1320.2 131.3ZM1355.2 96.9C1358.1 96.9 1360.5 96.9 1362.9 96.9C1362.9 93.9 1362.9 91.1 1362.9 87.7C1360.2 90.9 1357.9 93.7 1355.2 96.9Z" fill="#15BEE6"/>
<path d="M1238.6 225.8C1233.2 225.8 1227.9 225.8 1222.5 225.8C1219.2 225.8 1217.2 224.1 1217.3 221.4C1217.4 218.8 1219.3 217.2 1222.5 217.2C1233.3 217.2 1244.1 217.2 1254.9 217.2C1258.2 217.2 1260.2 218.9 1260.1 221.6C1260 224.2 1258.1 225.8 1254.9 225.8C1249.5 225.8 1244 225.8 1238.6 225.8Z" fill="#15BEE6"/>
<path d="M1298.6 225.8C1293.2 225.8 1287.9 225.8 1282.5 225.8C1279.3 225.8 1277.4 224.2 1277.3 221.6C1277.2 218.9 1279.2 217.2 1282.5 217.2C1293.3 217.2 1304.1 217.2 1314.9 217.2C1318.1 217.2 1320 218.8 1320.1 221.4C1320.2 224.1 1318.2 225.8 1314.9 225.8C1309.5 225.8 1304.1 225.8 1298.6 225.8Z" fill="#15BEE6"/>
<path d="M1229.9 204.3C1227.2 204.3 1224.5 204.4 1221.9 204.3C1219.1 204.2 1217.3 202.5 1217.3 200.1C1217.2 197.6 1219.1 195.8 1222 195.7C1227.4 195.6 1232.9 195.6 1238.4 195.7C1241.2 195.7 1243 197.5 1243 199.9C1243.1 202.4 1241.2 204.2 1238.3 204.3C1235.5 204.3 1232.7 204.3 1229.9 204.3Z" fill="#15BEE6"/>
</g>
<mask id="mask9_9_3" style="mask-type:luminance" maskUnits="userSpaceOnUse" x="0" y="0" width="1521" height="255">
<path d="M1521 0H0V255H1521V0Z" fill="white"/>
</mask>
<g mask="url(#mask9_9_3)">
<path d="M57.5 208.7C57.5 207.4 57.7 206.2 58 205.1C58.3 204 58.8 203 59.4 202.1H60.5C60.3 202.4 60 202.9 59.8 203.3C59.6 203.8 59.4 204.3 59.2 204.9C59 205.5 58.9 206.1 58.8 206.7C58.7 207.3 58.7 207.9 58.7 208.6C58.7 209.4 58.8 210.2 58.9 211.1C59.1 211.9 59.3 212.7 59.5 213.4C59.8 214.1 60.1 214.7 60.4 215.2H59.3C58.7 214.3 58.2 213.3 57.9 212.2C57.6 211.1 57.5 210 57.5 208.7Z" fill="#D3D3D3"/>
<path d="M69.4 202.7H70.6999V209.6C70.6999 210.3 70.4999 211 70.1999 211.5C69.8999 212.1 69.4 212.5 68.8 212.8C68.2 213.1 67.4999 213.3 66.6999 213.3C65.8999 213.3 65.1999 213.1 64.5999 212.8C63.9999 212.5 63.5 212 63.2 211.5C62.9 210.9 62.7 210.3 62.7 209.6V202.7H64V209.5C64 210 64.1 210.5 64.3 210.9C64.5 211.3 64.8 211.6 65.3 211.8C65.7 212 66.2 212.1 66.8 212.1C67.4 212.1 67.9 212 68.3 211.8C68.7 211.6 69 211.3 69.3 210.9C69.6 210.5 69.5999 210 69.5999 209.5V202.7H69.4Z" fill="#D3D3D3"/>
<path d="M81.5 202.7V213.2H80.3L74.6 205H74.5V213.2H73.2V202.7H74.4L80.1 210.9H80.2V202.7H81.5Z" fill="#D3D3D3"/>
<path d="M92.5 206H91.2C91.1 205.6 91 205.3 90.8 205C90.6 204.7 90.4 204.5 90.1 204.3C89.8 204.1 89.5 204 89.2 203.9C88.9 203.8 88.5 203.8 88.2 203.8C87.6 203.8 87 204 86.5 204.3C86 204.6 85.6 205.1 85.3 205.7C85 206.3 84.8 207.1 84.8 208C84.8 208.9 85 209.7 85.3 210.3C85.6 210.9 86 211.4 86.5 211.7C87 212 87.6 212.2 88.2 212.2C88.5 212.2 88.9 212.2 89.2 212.1C89.5 212 89.8 211.9 90.1 211.7C90.4 211.5 90.6 211.3 90.8 211C91 210.7 91.1 210.4 91.2 210H92.5C92.4 210.5 92.2 211 92 211.4C91.7 211.8 91.4 212.2 91.1 212.5C90.7 212.8 90.3 213 89.8 213.2C89.3 213.4 88.8 213.4 88.3 213.4C87.4 213.4 86.6 213.2 85.9 212.7C85.2 212.3 84.7 211.6 84.3 210.8C83.9 210 83.7 209 83.7 207.9C83.7 206.8 83.9 205.8 84.3 205C84.7 204.2 85.2 203.6 85.9 203.1C86.6 202.7 87.4 202.4 88.3 202.4C88.8 202.4 89.3 202.5 89.8 202.6C90.3 202.7 90.7 203 91.1 203.3C91.5 203.6 91.8 204 92 204.4C92.2 204.9 92.4 205.4 92.5 206Z" fill="#D3D3D3"/>
<path d="M93.8999 203.8V202.7H101.8V203.8H98.4999V213.2H97.1999V203.8H93.8999Z" fill="#D3D3D3"/>
<path d="M104.2 213.2H102.9L106.7 202.7H108L111.8 213.2H110.5L107.4 204.4H107.3L104.2 213.2ZM104.7 209.1H110.1V210.2H104.7V209.1Z" fill="#D3D3D3"/>
<path d="M116.7 213.2H113.5V202.7H116.9C117.9 202.7 118.8 202.9 119.5 203.3C120.2 203.7 120.8 204.3 121.2 205.1C121.6 205.9 121.8 206.8 121.8 207.9C121.8 209 121.6 209.9 121.2 210.7C120.8 211.5 120.2 212.1 119.5 212.5C118.8 212.9 117.8 213.2 116.7 213.2ZM114.8 212H116.7C117.6 212 118.3 211.8 118.9 211.5C119.5 211.2 119.9 210.7 120.2 210.1C120.5 209.5 120.6 208.7 120.6 207.9C120.6 207.1 120.5 206.3 120.2 205.7C119.9 205.1 119.5 204.6 119 204.3C118.5 204 117.8 203.8 116.9 203.8H114.9V212H114.8Z" fill="#D3D3D3"/>
<path d="M127.7 213.2V212.3L131.2 208.5C131.6 208.1 131.9 207.7 132.2 207.3C132.5 207 132.7 206.7 132.8 206.4C132.9 206.1 133 205.8 133 205.5C133 205.1 132.9 204.8 132.7 204.5C132.5 204.2 132.3 204 132 203.9C131.7 203.8 131.4 203.7 131 203.7C130.6 203.7 130.2 203.8 129.9 203.9C129.6 204.1 129.4 204.3 129.2 204.6C129 204.9 129 205.2 129 205.6H127.8C127.8 205 127.9 204.4 128.2 204C128.5 203.6 128.9 203.2 129.4 202.9C129.9 202.6 130.4 202.5 131.1 202.5C131.7 202.5 132.3 202.6 132.7 202.9C133.2 203.2 133.5 203.5 133.8 203.9C134.1 204.3 134.2 204.8 134.2 205.4C134.2 205.8 134.1 206.2 134 206.5C133.9 206.9 133.6 207.3 133.3 207.7C133 208.1 132.5 208.7 131.9 209.3L129.5 211.8V211.9H134.4V213H127.7V213.2Z" fill="#D3D3D3"/>
<path d="M139.9 213.3C139.1 213.3 138.5 213.1 137.9 212.7C137.4 212.3 136.9 211.7 136.7 210.9C136.4 210.1 136.3 209.1 136.3 208C136.3 206.9 136.4 205.9 136.7 205.1C137 204.3 137.4 203.7 137.9 203.3C138.4 202.9 139.1 202.7 139.9 202.7C140.7 202.7 141.3 202.9 141.9 203.3C142.4 203.7 142.9 204.3 143.1 205.1C143.4 205.9 143.5 206.9 143.5 208C143.5 209.1 143.4 210.1 143.1 210.9C142.8 211.7 142.4 212.3 141.9 212.7C141.3 213.1 140.6 213.3 139.9 213.3ZM139.9 212.2C140.7 212.2 141.3 211.8 141.7 211.1C142.1 210.4 142.3 209.3 142.3 207.9C142.3 207 142.2 206.2 142 205.6C141.8 205 141.5 204.5 141.2 204.1C140.8 203.8 140.4 203.6 139.9 203.6C139.1 203.6 138.6 204 138.1 204.7C137.7 205.4 137.5 206.5 137.5 207.9C137.5 208.8 137.6 209.6 137.8 210.2C138 210.8 138.3 211.3 138.6 211.6C138.9 211.9 139.4 212.2 139.9 212.2Z" fill="#D3D3D3"/>
<path d="M145.5 213.2V212.3L149 208.5C149.4 208.1 149.7 207.7 150 207.3C150.3 207 150.5 206.7 150.6 206.4C150.7 206.1 150.8 205.8 150.8 205.5C150.8 205.1 150.7 204.8 150.5 204.5C150.3 204.2 150.1 204 149.8 203.9C149.5 203.8 149.2 203.7 148.8 203.7C148.4 203.7 148 203.8 147.7 203.9C147.4 204.1 147.2 204.3 147 204.6C146.8 204.9 146.8 205.2 146.8 205.6H145.6C145.6 205 145.7 204.4 146 204C146.3 203.6 146.7 203.2 147.2 202.9C147.7 202.6 148.2 202.5 148.9 202.5C149.5 202.5 150.1 202.6 150.5 202.9C151 203.2 151.3 203.5 151.6 203.9C151.9 204.3 152 204.8 152 205.4C152 205.8 151.9 206.2 151.8 206.5C151.7 206.9 151.4 207.3 151.1 207.7C150.8 208.1 150.3 208.7 149.7 209.3L147.3 211.8V211.9H152.2V213H145.5V213.2Z" fill="#D3D3D3"/>
<path d="M153.9 211V210L158.5 202.7H159.3V204.3H158.8L155.3 209.8V209.9H161.5V211H153.9ZM158.9 213.2V210.7V210.2V202.7H160.1V213.2H158.9Z" fill="#D3D3D3"/>
<path d="M166 208.7C166 210 165.8 211.2 165.5 212.3C165.2 213.4 164.7 214.4 164.1 215.3H163C163.2 215 163.5 214.5 163.7 214.1C163.9 213.6 164.1 213.1 164.3 212.5C164.5 211.9 164.6 211.3 164.7 210.7C164.8 210.1 164.8 209.5 164.8 208.8C164.8 208 164.7 207.2 164.6 206.3C164.5 205.4 164.2 204.7 164 204C163.7 203.3 163.4 202.7 163.1 202.2H164.2C164.8 203.1 165.3 204.1 165.6 205.2C165.9 206.3 166 207.5 166 208.7Z" fill="#D3D3D3"/>
</g>
<mask id="mask10_9_3" style="mask-type:luminance" maskUnits="userSpaceOnUse" x="0" y="0" width="1521" height="255">
<path d="M1521 0H0V255H1521V0Z" fill="white"/>
</mask>
<g mask="url(#mask10_9_3)">
<path d="M64.9 60.9H58V39.4H65.2C67.3 39.4 69.1 39.8 70.6 40.7C72.1 41.6 73.3 42.8 74.1 44.4C74.9 46 75.3 47.9 75.3 50.1C75.3 52.3 74.9 54.3 74.1 55.9C73.3 57.5 72.1 58.7 70.6 59.6C68.9 60.5 67.1 60.9 64.9 60.9ZM61.2 58.1H64.7C66.3 58.1 67.7 57.8 68.8 57.2C69.9 56.6 70.7 55.7 71.2 54.5C71.7 53.3 72 51.9 72 50.2C72 48.5 71.7 47.1 71.2 45.9C70.7 44.7 69.9 43.8 68.8 43.2C67.7 42.6 66.4 42.3 64.9 42.3H61.2V58.1Z" fill="#242438"/>
<path d="M80.6001 42.3C80.1001 42.3 79.6001 42.1 79.2001 41.7C78.8001 41.3 78.6001 40.9 78.6001 40.4C78.6001 39.9 78.8001 39.4 79.2001 39.1C79.6001 38.7 80.1001 38.5 80.6001 38.5C81.1001 38.5 81.6001 38.7 82.0001 39.1C82.4001 39.5 82.6001 39.9 82.6001 40.4C82.6001 40.9 82.4001 41.4 82.0001 41.7C81.6001 42.1 81.1001 42.3 80.6001 42.3ZM79.0001 60.9V44.8H82.1001V60.9H79.0001Z" fill="#242438"/>
<path d="M92.3 61.2C91 61.2 89.8 60.9 88.8 60.2C87.8 59.5 87 58.6 86.4 57.3C85.8 56.1 85.5 54.6 85.5 52.8C85.5 51.1 85.8 49.6 86.4 48.3C87 47.1 87.8 46.1 88.8 45.5C89.8 44.8 91 44.5 92.3 44.5C93.3 44.5 94.1 44.7 94.7 45C95.3 45.3 95.8 45.7 96.1 46.2C96.4 46.6 96.7 47 96.9 47.4H97.1V39.4H100.2V60.9H97.1V58.4H97C96.8 58.7 96.5 59.1 96.2 59.6C95.8 60 95.4 60.4 94.7 60.8C94.1 61 93.3 61.2 92.3 61.2ZM93 58.5C93.9 58.5 94.7 58.3 95.3 57.8C95.9 57.3 96.4 56.7 96.7 55.8C97 54.9 97.2 54 97.2 52.8C97.2 51.7 97 50.7 96.7 49.9C96.4 49.1 95.9 48.4 95.3 47.9C94.7 47.4 93.9 47.2 93 47.2C92.1 47.2 91.3 47.4 90.6 47.9C89.9 48.4 89.5 49.1 89.2 49.9C88.9 50.7 88.7 51.7 88.7 52.8C88.7 53.9 88.9 54.8 89.2 55.7C89.5 56.6 90 57.2 90.6 57.7C91.2 58.2 92.1 58.5 93 58.5Z" fill="#242438"/>
<path d="M114.6 66.9C114.1 66.9 113.7 66.9 113.3 66.8C112.9 66.7 112.6 66.6 112.4 66.6L113.2 64C113.8 64.2 114.3 64.2 114.7 64.2C115.1 64.2 115.5 64 115.9 63.7C116.3 63.4 116.6 62.9 116.8 62.2L117.2 61.1L111.3 44.8H114.7L118.8 57.3H119L123.1 44.8H126.5L119.7 63C119.4 63.8 119 64.5 118.5 65.1C118 65.7 117.5 66.1 116.8 66.4C116.2 66.8 115.5 66.9 114.6 66.9Z" fill="#242438"/>
<path d="M136.1 61.2C134.6 61.2 133.3 60.9 132.1 60.2C131 59.5 130.1 58.5 129.5 57.3C128.9 56.1 128.6 54.6 128.6 52.9C128.6 51.2 128.9 49.8 129.5 48.5C130.1 47.2 131 46.3 132.1 45.6C133.2 44.9 134.5 44.6 136.1 44.6C137.7 44.6 138.9 44.9 140.1 45.6C141.2 46.3 142.1 47.3 142.7 48.5C143.3 49.7 143.6 51.2 143.6 52.9C143.6 54.6 143.3 56 142.7 57.3C142.1 58.5 141.2 59.5 140.1 60.2C138.9 60.9 137.6 61.2 136.1 61.2ZM136.1 58.6C137.1 58.6 137.9 58.3 138.5 57.8C139.1 57.3 139.6 56.6 139.9 55.7C140.2 54.8 140.4 53.9 140.4 52.9C140.4 51.9 140.2 50.9 139.9 50.1C139.6 49.2 139.1 48.5 138.5 48C137.9 47.5 137 47.2 136.1 47.2C135.1 47.2 134.3 47.5 133.7 48C133.1 48.5 132.6 49.2 132.3 50.1C132 51 131.8 51.9 131.8 52.9C131.8 53.9 132 54.9 132.3 55.7C132.6 56.6 133.1 57.2 133.7 57.8C134.3 58.3 135.1 58.6 136.1 58.6Z" fill="#242438"/>
<path d="M157.3 54.2V44.8H160.4V60.9H157.3V58.1H157.1C156.7 59 156.1 59.7 155.3 60.2C154.5 60.8 153.5 61.1 152.3 61.1C151.3 61.1 150.4 60.9 149.6 60.4C148.8 59.9 148.2 59.3 147.7 58.4C147.2 57.5 147 56.4 147 55.1V44.8H150.1V54.7C150.1 55.8 150.4 56.7 151 57.3C151.6 58 152.4 58.3 153.4 58.3C154 58.3 154.6 58.2 155.2 57.9C155.8 57.6 156.3 57.2 156.7 56.6C157.1 56 157.3 55.1 157.3 54.2Z" fill="#242438"/>
<path d="M172.5 60.9V39.4H175.6V60.9H172.5ZM175.4 55.4V51.6H175.9L182.3 44.8H186.1L178.8 52.6H178.3L175.4 55.4ZM182.6 60.9L176.8 53.2L179 51L186.5 60.8H182.6V60.9Z" fill="#15BEE6"/>
<path d="M192 51.3V60.9H188.9V44.8H191.9V47.4H192.1C192.5 46.5 193.1 45.9 193.8 45.3C194.6 44.8 195.6 44.5 196.8 44.5C197.9 44.5 198.9 44.7 199.7 45.2C200.5 45.7 201.2 46.3 201.6 47.2C202.1 48.1 202.3 49.2 202.3 50.5V60.7H199.2V51C199.2 49.8 198.9 48.9 198.3 48.3C197.7 47.6 196.9 47.3 195.8 47.3C195.1 47.3 194.4 47.5 193.9 47.8C193.4 48.1 192.9 48.6 192.6 49.2C192.2 49.7 192 50.5 192 51.3Z" fill="#15BEE6"/>
<path d="M213.3 61.2C211.8 61.2 210.5 60.9 209.3 60.2C208.2 59.5 207.3 58.5 206.7 57.3C206.1 56.1 205.8 54.6 205.8 52.9C205.8 51.2 206.1 49.8 206.7 48.5C207.3 47.2 208.2 46.3 209.3 45.6C210.4 44.9 211.7 44.6 213.3 44.6C214.9 44.6 216.1 44.9 217.3 45.6C218.4 46.3 219.3 47.3 219.9 48.5C220.5 49.7 220.8 51.2 220.8 52.9C220.8 54.6 220.5 56 219.9 57.3C219.3 58.5 218.4 59.5 217.3 60.2C216.1 60.9 214.8 61.2 213.3 61.2ZM213.3 58.6C214.3 58.6 215.1 58.3 215.7 57.8C216.3 57.3 216.8 56.6 217.1 55.7C217.4 54.8 217.6 53.9 217.6 52.9C217.6 51.9 217.4 50.9 217.1 50.1C216.8 49.2 216.3 48.5 215.7 48C215.1 47.5 214.2 47.2 213.3 47.2C212.3 47.2 211.5 47.5 210.9 48C210.3 48.5 209.8 49.2 209.5 50.1C209.2 51 209 51.9 209 52.9C209 53.9 209.2 54.9 209.5 55.7C209.8 56.6 210.3 57.2 210.9 57.8C211.5 58.3 212.3 58.6 213.3 58.6Z" fill="#15BEE6"/>
<path d="M227.8 60.9L223.1 44.8H226.3L229.5 56.6H229.7L232.9 44.8H236.1L239.2 56.6H239.4L242.5 44.8H245.7L241 60.9H237.8L234.5 49.3H234.3L231 60.9H227.8Z" fill="#15BEE6"/>
<path d="M252.1 54.5C252.1 53.2 252.2 52.2 252.5 51.4C252.8 50.6 253.1 50 253.6 49.5C254.1 49 254.6 48.6 255.3 48.2C255.7 47.9 256.1 47.6 256.4 47.3C256.7 47 257 46.6 257.2 46.2C257.4 45.8 257.5 45.3 257.5 44.8C257.5 44.2 257.4 43.6 257.1 43.2C256.8 42.7 256.4 42.4 255.9 42.1C255.4 41.8 254.9 41.7 254.3 41.7C253.8 41.7 253.2 41.8 252.8 42C252.4 42.2 251.9 42.6 251.6 43C251.3 43.4 251.1 44.1 251 44.8H247.8C247.8 43.5 248.2 42.5 248.8 41.6C249.4 40.7 250.2 40.1 251.1 39.6C252 39.1 253.1 38.9 254.3 38.9C255.6 38.9 256.7 39.1 257.7 39.6C258.7 40.1 259.4 40.7 259.9 41.6C260.4 42.5 260.7 43.5 260.7 44.6C260.7 45.4 260.6 46.1 260.3 46.7C260.1 47.3 259.7 47.9 259.3 48.4C258.8 48.9 258.3 49.3 257.7 49.7C257.1 50.1 256.6 50.5 256.3 50.9C255.9 51.3 255.7 51.8 255.5 52.3C255.3 52.8 255.2 53.5 255.2 54.3V54.5H252.1ZM253.7 61.1C253.1 61.1 252.6 60.9 252.2 60.5C251.8 60.1 251.6 59.6 251.6 59C251.6 58.4 251.8 57.9 252.2 57.5C252.6 57.1 253.1 56.9 253.7 56.9C254.3 56.9 254.8 57.1 255.2 57.5C255.6 57.9 255.8 58.4 255.8 59C255.8 59.4 255.7 59.7 255.5 60.1C255.3 60.4 255.1 60.7 254.7 60.9C254.4 61 254 61.1 253.7 61.1Z" fill="#15BEE6"/>
<path d="M258 65.6H171.9V68.2H258V65.6Z" fill="#D9F4F9"/>
</g>
</g>
<defs>
<clipPath id="clip0_9_3">
<rect width="1521" height="255" fill="white"/>
</clipPath>
</defs>
</svg>
