<svg width="1521" height="255" viewBox="0 0 1521 255" fill="none" xmlns="http://www.w3.org/2000/svg">
<g clip-path="url(#clip0_4_1475)">
<path d="M1521 0H0V255H1521V0Z" fill="white"/>
<mask id="mask0_4_1475" style="mask-type:luminance" maskUnits="userSpaceOnUse" x="0" y="0" width="1521" height="255">
<path d="M1521 0H0V255H1521V0Z" fill="white"/>
</mask>
<g mask="url(#mask0_4_1475)">
<path d="M589.8 65C625.7 65 654.8 35.9 654.8 0H524.8C524.8 35.9 553.9 65 589.8 65Z" fill="#F2FCFF"/>
</g>
<mask id="mask1_4_1475" style="mask-type:luminance" maskUnits="userSpaceOnUse" x="0" y="0" width="1521" height="255">
<path d="M1521 0H0V255H1521V0Z" fill="white"/>
</mask>
<g mask="url(#mask1_4_1475)">
<path d="M1163.8 214.2C1141.3 214.2 1123 232.5 1123 255H1204.6C1204.6 232.5 1186.3 214.2 1163.8 214.2Z" fill="#F2FCFF"/>
</g>
<mask id="mask2_4_1475" style="mask-type:luminance" maskUnits="userSpaceOnUse" x="0" y="0" width="1521" height="255">
<path d="M1521 0H0V255H1521V0Z" fill="white"/>
</mask>
<g mask="url(#mask2_4_1475)">
<path d="M56.9999 64.7C65.0633 64.7 71.5999 58.1634 71.5999 50.1C71.5999 42.0366 65.0633 35.5 56.9999 35.5C48.9365 35.5 42.3999 42.0366 42.3999 50.1C42.3999 58.1634 48.9365 64.7 56.9999 64.7Z" fill="#F9FEFA"/>
</g>
<mask id="mask3_4_1475" style="mask-type:luminance" maskUnits="userSpaceOnUse" x="0" y="0" width="1521" height="255">
<path d="M1521 0H0V255H1521V0Z" fill="white"/>
</mask>
<g mask="url(#mask3_4_1475)">
<path d="M1176.7 125.6L1167.7 119L1174.3 110L1169.8 106.7L1163.2 115.7L1154.4 109.3L1151.1 113.8L1159.9 120.2L1153.4 129L1157.9 132.3L1164.4 123.5L1173.4 130.1L1176.7 125.6Z" fill="#D4F6FF"/>
</g>
<mask id="mask4_4_1475" style="mask-type:luminance" maskUnits="userSpaceOnUse" x="0" y="0" width="1521" height="255">
<path d="M1521 0H0V255H1521V0Z" fill="white"/>
</mask>
<g mask="url(#mask4_4_1475)">
<path d="M1456 192C1461.52 192 1466 187.523 1466 182C1466 176.477 1461.52 172 1456 172C1450.48 172 1446 176.477 1446 182C1446 187.523 1450.48 192 1456 192Z" fill="#F2FCFF"/>
</g>
<mask id="mask5_4_1475" style="mask-type:luminance" maskUnits="userSpaceOnUse" x="0" y="0" width="1521" height="255">
<path d="M1521 0H0V255H1521V0Z" fill="white"/>
</mask>
<g mask="url(#mask5_4_1475)">
<path d="M655 274C667.703 274 678 263.703 678 251C678 238.297 667.703 228 655 228C642.297 228 632 238.297 632 251C632 263.703 642.297 274 655 274Z" fill="#F2FCFF"/>
</g>
<mask id="mask6_4_1475" style="mask-type:luminance" maskUnits="userSpaceOnUse" x="0" y="0" width="1521" height="255">
<path d="M1521 0H0V255H1521V0Z" fill="white"/>
</mask>
<g mask="url(#mask6_4_1475)">
<path d="M86.6 93.8H80.5C80.3 92.8 80 91.9 79.5 91.1C79 90.3 78.5 89.7 77.8 89.1C77.1 88.6 76.3 88.2 75.4 87.9C74.5 87.6 73.6 87.5 72.6 87.5C70.8 87.5 69.2 88 67.8 88.9C66.4 89.8 65.3 91.1 64.5 92.9C63.7 94.6 63.3 96.8 63.3 99.3C63.3 101.8 63.7 104 64.5 105.7C65.3 107.4 66.4 108.7 67.8 109.6C69.2 110.5 70.8 110.9 72.6 110.9C73.6 110.9 74.5 110.8 75.4 110.5C76.3 110.2 77.1 109.8 77.8 109.3C78.5 108.8 79.1 108.1 79.6 107.4C80.1 106.6 80.4 105.8 80.6 104.8H86.7C86.5 106.4 86 107.9 85.2 109.2C84.4 110.6 83.5 111.8 82.3 112.9C81.1 114 79.7 114.8 78.1 115.4C76.5 116 74.7 116.3 72.7 116.3C69.8 116.3 67.2 115.6 64.9 114.3C62.6 113 60.8 111 59.5 108.4C58.2 105.8 57.5 102.8 57.5 99.2C57.5 95.6 58.2 92.6 59.5 90C60.8 87.5 62.6 85.5 64.9 84.2C67.2 82.8 69.8 82.2 72.7 82.2C74.5 82.2 76.3 82.5 77.9 83C79.5 83.5 80.9 84.3 82.1 85.3C83.3 86.3 84.4 87.5 85.2 89C86 90.5 86.4 91.9 86.6 93.8Z" fill="#77809C"/>
<path d="M91.3999 115.8V90.9H97.0999V95H97.3999C97.8999 93.6 98.5999 92.5 99.6999 91.7C100.8 90.9 102.1 90.5 103.5 90.5C103.8 90.5 104.2 90.5 104.6 90.5C105 90.5 105.3 90.6 105.6 90.6V96C105.4 95.9 105 95.8 104.4 95.8C103.8 95.8 103.3 95.7 102.9 95.7C101.8 95.7 100.9 95.9 99.9999 96.4C99.0999 96.9 98.4999 97.5 97.9999 98.3C97.4999 99.1 97.2999 100 97.2999 101.1V115.7H91.3999V115.8Z" fill="#77809C"/>
<path d="M120 116.3C117.6 116.3 115.5 115.8 113.7 114.7C111.9 113.6 110.5 112.1 109.6 110.2C108.6 108.3 108.1 106 108.1 103.5C108.1 100.9 108.6 98.7001 109.6 96.7001C110.6 94.8001 112 93.3001 113.7 92.2001C115.5 91.1001 117.6 90.6001 120 90.6001C122.4 90.6001 124.5 91.1001 126.3 92.2001C128.1 93.3001 129.5 94.8001 130.4 96.7001C131.4 98.6001 131.9 100.9 131.9 103.5C131.9 106.1 131.4 108.3 130.4 110.2C129.4 112.1 128 113.6 126.3 114.7C124.5 115.7 122.4 116.3 120 116.3ZM120 111.6C121.3 111.6 122.4 111.2 123.3 110.5C124.2 109.8 124.8 108.8 125.3 107.6C125.7 106.4 126 105 126 103.5C126 102 125.8 100.6 125.3 99.4001C124.8 98.2001 124.2 97.2001 123.3 96.4001C122.4 95.7001 121.3 95.3001 120 95.3001C118.6 95.3001 117.5 95.7001 116.6 96.4001C115.7 97.1001 115 98.1001 114.6 99.4001C114.2 100.7 113.9 102 113.9 103.5C113.9 105 114.1 106.4 114.6 107.6C115 108.8 115.7 109.8 116.6 110.5C117.5 111.2 118.6 111.6 120 111.6Z" fill="#77809C"/>
<path d="M156.1 97.5L150.7 98.1C150.5 97.6 150.3 97.1 149.9 96.6C149.5 96.1 149 95.7 148.4 95.4C147.8 95.1 147 95 146.1 95C144.9 95 143.9 95.3 143 95.8C142.2 96.3 141.8 97 141.8 97.9C141.8 98.6 142.1 99.2 142.6 99.7C143.1 100.2 144.1 100.5 145.3 100.8L149.5 101.7C151.9 102.2 153.6 103 154.8 104.1C156 105.2 156.5 106.6 156.5 108.4C156.5 110 156 111.4 155.1 112.5C154.2 113.7 152.9 114.6 151.3 115.3C149.7 116 147.9 116.3 145.8 116.3C142.8 116.3 140.3 115.7 138.4 114.4C136.5 113.1 135.4 111.3 135.1 109L140.8 108.4C141.1 109.5 141.6 110.4 142.5 110.9C143.4 111.4 144.4 111.8 145.8 111.8C147.2 111.8 148.3 111.5 149.2 110.9C150 110.3 150.5 109.6 150.5 108.8C150.5 108.1 150.2 107.5 149.7 107C149.2 106.5 148.3 106.2 147.2 105.9L142.9 105C140.5 104.5 138.7 103.7 137.6 102.5C136.5 101.3 135.9 99.8 135.9 98C135.9 96.5 136.3 95.1 137.2 94C138.1 92.9 139.2 92 140.8 91.4C142.3 90.8 144.1 90.5 146.1 90.5C149 90.5 151.3 91.1 153 92.4C154.7 93.7 155.7 95.3 156.1 97.5Z" fill="#77809C"/>
<path d="M180.7 97.5L175.3 98.1C175.1 97.6 174.9 97.1 174.5 96.6C174.1 96.1 173.6 95.7 173 95.4C172.4 95.1 171.6 95 170.7 95C169.5 95 168.5 95.3 167.6 95.8C166.8 96.3 166.4 97 166.4 97.9C166.4 98.6 166.7 99.2 167.2 99.7C167.7 100.2 168.7 100.5 169.9 100.8L174.1 101.7C176.5 102.2 178.2 103 179.4 104.1C180.6 105.2 181.1 106.6 181.1 108.4C181.1 110 180.6 111.4 179.7 112.5C178.8 113.7 177.5 114.6 175.9 115.3C174.3 116 172.5 116.3 170.4 116.3C167.4 116.3 164.9 115.7 163 114.4C161.1 113.1 160 111.3 159.7 109L165.4 108.4C165.7 109.5 166.2 110.4 167.1 110.9C168 111.4 169 111.8 170.4 111.8C171.8 111.8 172.9 111.5 173.8 110.9C174.6 110.3 175.1 109.6 175.1 108.8C175.1 108.1 174.8 107.5 174.3 107C173.8 106.5 172.9 106.2 171.8 105.9L167.5 105C165.1 104.5 163.3 103.7 162.2 102.5C161.1 101.3 160.5 99.8 160.5 98C160.5 96.5 160.9 95.1 161.8 94C162.7 92.9 163.8 92 165.4 91.4C166.9 90.8 168.7 90.5 170.7 90.5C173.6 90.5 175.9 91.1 177.6 92.4C179.3 93.7 180.3 95.3 180.7 97.5Z" fill="#77809C"/>
<path d="M200.7 99.5V104.3H185.7V99.5H200.7Z" fill="#77809C"/>
<path d="M206.7 115.8V82.6001H212.6V95.0001H212.8C213.1 94.4001 213.5 93.7001 214.1 93.1001C214.7 92.4001 215.4 91.8001 216.3 91.3001C217.2 90.8001 218.4 90.6001 219.9 90.6001C221.8 90.6001 223.6 91.1001 225.1 92.1001C226.6 93.1001 227.9 94.5001 228.8 96.4001C229.7 98.3001 230.2 100.6 230.2 103.4C230.2 106.1 229.8 108.5 228.9 110.4C228 112.3 226.8 113.8 225.2 114.8C223.7 115.8 221.9 116.3 219.9 116.3C218.5 116.3 217.3 116.1 216.3 115.6C215.4 115.1 214.6 114.5 214 113.9C213.4 113.3 213 112.6 212.7 112H212.4V115.9H206.7V115.8ZM212.5 103.3C212.5 104.9 212.7 106.3 213.2 107.5C213.7 108.7 214.3 109.7 215.2 110.3C216.1 111 217.1 111.3 218.4 111.3C219.7 111.3 220.8 111 221.7 110.3C222.6 109.6 223.2 108.6 223.7 107.4C224.1 106.2 224.4 104.8 224.4 103.2C224.4 101.7 224.2 100.3 223.7 99.1001C223.2 97.9001 222.6 97.0001 221.7 96.3001C220.8 95.6001 219.7 95.3001 218.4 95.3001C217.1 95.3001 216.1 95.6001 215.2 96.3001C214.3 97.0001 213.7 97.9001 213.2 99.1001C212.7 100.3 212.5 101.7 212.5 103.3Z" fill="#77809C"/>
<path d="M245.7 116.3C243.3 116.3 241.2 115.8 239.4 114.7C237.6 113.6 236.2 112.1 235.3 110.2C234.3 108.3 233.8 106 233.8 103.5C233.8 100.9 234.3 98.7001 235.3 96.7001C236.3 94.8001 237.7 93.3001 239.4 92.2001C241.2 91.1001 243.3 90.6001 245.7 90.6001C248.1 90.6001 250.2 91.1001 252 92.2001C253.8 93.3001 255.2 94.8001 256.1 96.7001C257.1 98.6001 257.6 100.9 257.6 103.5C257.6 106.1 257.1 108.3 256.1 110.2C255.1 112.1 253.7 113.6 252 114.7C250.2 115.7 248.1 116.3 245.7 116.3ZM245.7 111.6C247 111.6 248.1 111.2 249 110.5C249.9 109.8 250.5 108.8 251 107.6C251.4 106.4 251.7 105 251.7 103.5C251.7 102 251.5 100.6 251 99.4001C250.5 98.2001 249.9 97.2001 249 96.4001C248.1 95.7001 247 95.3001 245.7 95.3001C244.3 95.3001 243.2 95.7001 242.3 96.4001C241.4 97.1001 240.7 98.1001 240.3 99.4001C239.9 100.7 239.6 102 239.6 103.5C239.6 105 239.8 106.4 240.3 107.6C240.7 108.8 241.4 109.8 242.3 110.5C243.2 111.2 244.4 111.6 245.7 111.6Z" fill="#77809C"/>
<path d="M262.1 115.8V90.9H267.8V95H268.1C268.6 93.6 269.3 92.5 270.4 91.7C271.5 90.9 272.8 90.5 274.2 90.5C274.5 90.5 274.9 90.5 275.3 90.5C275.7 90.5 276 90.6 276.3 90.6V96C276.1 95.9 275.7 95.8 275.1 95.8C274.5 95.8 274 95.7 273.6 95.7C272.5 95.7 271.6 95.9 270.7 96.4C269.8 96.9 269.2 97.5 268.7 98.3C268.2 99.1 268 100 268 101.1V115.7H262.1V115.8Z" fill="#77809C"/>
<path d="M289 116.2C287 116.2 285.3 115.7 283.7 114.7C282.2 113.7 280.9 112.2 280 110.3C279.1 108.4 278.7 106.1 278.7 103.3C278.7 100.5 279.2 98.2001 280.1 96.3001C281 94.4001 282.2 92.9001 283.8 92.0001C285.4 91.0001 287.1 90.5001 289 90.5001C290.5 90.5001 291.7 90.7001 292.6 91.2001C293.5 91.7001 294.3 92.3001 294.8 93.0001C295.4 93.7001 295.8 94.3001 296.1 94.9001H296.3V82.6001H302.2V115.8H296.4V111.9H296C295.7 112.5 295.3 113.1 294.7 113.8C294.1 114.5 293.4 115.1 292.4 115.5C291.6 116 290.5 116.2 289 116.2ZM290.7 111.4C291.9 111.4 293 111.1 293.9 110.4C294.8 109.7 295.4 108.8 295.9 107.6C296.4 106.4 296.6 105 296.6 103.4C296.6 101.8 296.4 100.4 295.9 99.2001C295.4 98.0001 294.8 97.1001 293.9 96.4001C293 95.7001 292 95.4001 290.7 95.4001C289.4 95.4001 288.3 95.7001 287.4 96.4001C286.5 97.1001 285.9 98.0001 285.4 99.2001C284.9 100.4 284.7 101.8 284.7 103.3C284.7 104.9 284.9 106.2 285.4 107.5C285.8 108.7 286.5 109.7 287.4 110.4C288.3 111.1 289.4 111.4 290.7 111.4Z" fill="#77809C"/>
<path d="M319.1 116.3C316.6 116.3 314.4 115.8 312.6 114.7C310.8 113.7 309.4 112.2 308.4 110.3C307.4 108.4 306.9 106.1 306.9 103.5C306.9 100.9 307.4 98.7001 308.4 96.7001C309.4 94.8001 310.7 93.2001 312.5 92.2001C314.3 91.2001 316.3 90.6001 318.7 90.6001C320.2 90.6001 321.7 90.8001 323.1 91.3001C324.5 91.8001 325.7 92.6001 326.7 93.6001C327.8 94.6001 328.6 95.9001 329.2 97.5001C329.8 99.1001 330.1 101 330.1 103.2V105H309.7V101H324.5C324.5 99.9001 324.2 98.9001 323.8 98.0001C323.3 97.1001 322.7 96.4001 321.8 95.9001C321 95.4001 320 95.1001 318.8 95.1001C317.6 95.1001 316.5 95.4001 315.6 96.0001C314.7 96.6001 314 97.3001 313.5 98.3001C313 99.3001 312.7 100.3 312.7 101.4V104.9C312.7 106.3 313 107.6 313.5 108.6C314 109.6 314.8 110.4 315.7 111C316.7 111.5 317.8 111.8 319 111.8C319.9 111.8 320.6 111.7 321.3 111.4C322 111.2 322.6 110.8 323.1 110.3C323.6 109.8 324 109.2 324.3 108.5L329.8 109.1C329.5 110.5 328.8 111.8 327.8 112.9C326.8 114 325.6 114.8 324.1 115.4C322.8 116 321.1 116.3 319.1 116.3Z" fill="#77809C"/>
<path d="M334.7 115.8V90.9H340.4V95H340.7C341.2 93.6 341.9 92.5 343 91.7C344.1 90.9 345.4 90.5 346.8 90.5C347.1 90.5 347.5 90.5 347.9 90.5C348.3 90.5 348.6 90.6 348.9 90.6V96C348.7 95.9 348.3 95.8 347.7 95.8C347.1 95.8 346.6 95.7 346.2 95.7C345.1 95.7 344.2 95.9 343.3 96.4C342.4 96.9 341.8 97.5 341.3 98.3C340.8 99.1 340.6 100 340.6 101.1V115.7H334.7V115.8Z" fill="#77809C"/>
<path d="M363.5 82.6001H370.9L380.8 106.7H381.2L391.1 82.6001H398.5V115.8H392.7V93.0001H392.4L383.2 115.7H378.9L369.7 92.9001H369.4V115.8H363.6V82.6001H363.5Z" fill="#77809C"/>
<path d="M414.1 116.3C411.8 116.3 409.9 115.9 408.2 115.1C406.6 114.3 405.3 113.2 404.4 111.8C403.5 110.4 403.1 108.8 403.1 107.1C403.1 105.8 403.4 104.6 403.9 103.6C404.4 102.6 405.2 101.6 406.2 100.7C407.2 99.8 408.3 99 409.6 98.1L415.5 94.1C416.4 93.5 417 92.9 417.5 92.3C418 91.7 418.2 90.9 418.2 90.1C418.2 89.4 417.9 88.7 417.3 88.1C416.7 87.5 415.9 87.1 414.8 87.1C414.1 87.1 413.5 87.3 412.9 87.6C412.3 87.9 411.9 88.4 411.7 88.9C411.4 89.4 411.3 90 411.3 90.6C411.3 91.3 411.5 92.1 411.9 92.8C412.3 93.5 412.8 94.3 413.5 95.1C414.2 95.9 414.9 96.7 415.6 97.6L431.2 115.9H424.8L411.8 101C410.8 99.9 409.9 98.8 409 97.7C408.1 96.6 407.4 95.5 406.8 94.3C406.2 93.1 405.9 91.8 405.9 90.4C405.9 88.8 406.3 87.4 407 86.2C407.7 85 408.7 84 410 83.3C411.3 82.6 412.8 82.2 414.6 82.2C416.4 82.2 417.9 82.5 419.1 83.2C420.4 83.9 421.3 84.8 422 86C422.7 87.2 423 88.4 423 89.7C423 91.3 422.6 92.7 421.8 93.9C421 95.1 419.9 96.3 418.6 97.3L411.9 102.2C410.8 103 410 103.8 409.5 104.6C409 105.4 408.8 106.1 408.8 106.7C408.8 107.6 409 108.4 409.5 109.1C410 109.8 410.6 110.4 411.4 110.8C412.2 111.2 413.1 111.4 414.2 111.4C415.4 111.4 416.6 111.1 417.7 110.6C418.8 110.1 419.9 109.3 420.9 108.3C421.9 107.3 422.6 106.1 423.2 104.7C423.8 103.3 424 101.8 424 100.1H429C429 102.2 428.8 104 428.3 105.6C427.8 107.2 427.2 108.5 426.5 109.5C425.8 110.6 425 111.4 424.2 112.1C423.9 112.3 423.7 112.5 423.5 112.7C423.3 112.9 423 113.1 422.8 113.3C421.6 114.4 420.3 115.1 418.7 115.6C417.1 116.1 415.6 116.3 414.1 116.3Z" fill="#77809C"/>
<path d="M438.6 115.8H432.2L443.9 82.6001H451.3L463 115.8H456.6L447.7 89.4001H447.4L438.6 115.8ZM438.8 102.8H456.3V107.6H438.8V102.8Z" fill="#77809C"/>
<path d="M484.7 116.3C483.1 116.3 481.7 116 480.4 115.4C479.1 114.8 478.1 114 477.4 112.9C476.7 111.8 476.3 110.4 476.3 108.8C476.3 107.4 476.6 106.2 477.1 105.3C477.6 104.4 478.3 103.6 479.2 103.1C480.1 102.5 481.1 102.1 482.2 101.8C483.3 101.5 484.5 101.3 485.7 101.2C487.2 101 488.3 100.9 489.3 100.8C490.3 100.7 490.9 100.5 491.3 100.2C491.7 99.9 491.9 99.5 491.9 99V98.9C491.9 97.7 491.5 96.7 490.8 96.1C490.1 95.4 489 95.1 487.7 95.1C486.3 95.1 485.1 95.4 484.3 96C483.5 96.6 482.9 97.4 482.6 98.2L477.1 97.4C477.5 95.9 478.2 94.6 479.2 93.6C480.2 92.6 481.4 91.8 482.8 91.3C484.2 90.8 485.8 90.5 487.6 90.5C488.8 90.5 490 90.6 491.2 90.9C492.4 91.2 493.5 91.6 494.5 92.3C495.5 93 496.3 93.8 496.9 94.9C497.5 96 497.8 97.4 497.8 99V115.7H492.2V112.3H492C491.6 113 491.1 113.6 490.5 114.2C489.9 114.8 489.1 115.3 488.1 115.6C487.1 116.1 486 116.3 484.7 116.3ZM486.2 112C487.4 112 488.4 111.8 489.3 111.3C490.2 110.8 490.8 110.2 491.3 109.4C491.8 108.6 492 107.8 492 106.9V104C491.8 104.2 491.5 104.3 491.1 104.4C490.7 104.5 490.2 104.6 489.6 104.7C489.1 104.8 488.5 104.9 488 105C487.5 105.1 487 105.1 486.6 105.2C485.7 105.3 484.9 105.5 484.2 105.8C483.5 106.1 483 106.4 482.6 106.9C482.2 107.4 482 108 482 108.8C482 109.9 482.4 110.7 483.2 111.2C484 111.7 485 112 486.2 112Z" fill="#77809C"/>
<path d="M514.2 116.3C511.7 116.3 509.6 115.8 507.8 114.7C506 113.6 504.7 112.1 503.7 110.2C502.7 108.3 502.3 106 502.3 103.5C502.3 101 502.8 98.7 503.8 96.8C504.8 94.9 506.1 93.3 507.9 92.3C509.7 91.3 511.8 90.7 514.2 90.7C516.2 90.7 518 91.1 519.6 91.8C521.2 92.5 522.4 93.6 523.3 94.9C524.2 96.2 524.8 97.8 524.9 99.6H519.3C519.1 98.4 518.5 97.4 517.7 96.6C516.9 95.8 515.7 95.4 514.3 95.4C513.1 95.4 512 95.7 511.1 96.4C510.2 97 509.5 98 509 99.2C508.5 100.4 508.2 101.8 508.2 103.5C508.2 105.2 508.4 106.7 508.9 107.9C509.4 109.1 510.1 110.1 511 110.7C511.9 111.3 513 111.7 514.2 111.7C515.1 111.7 515.8 111.5 516.5 111.2C517.2 110.9 517.8 110.4 518.2 109.8C518.7 109.2 519 108.4 519.2 107.5H524.8C524.7 109.3 524.1 110.8 523.2 112.2C522.3 113.6 521.1 114.6 519.5 115.4C518.1 115.9 516.3 116.3 514.2 116.3Z" fill="#77809C"/>
<path d="M540.1 116.3C537.6 116.3 535.5 115.8 533.7 114.7C531.9 113.6 530.6 112.1 529.6 110.2C528.6 108.3 528.2 106 528.2 103.5C528.2 101 528.7 98.7 529.7 96.8C530.7 94.9 532 93.3 533.8 92.3C535.6 91.3 537.7 90.7 540.1 90.7C542.1 90.7 543.9 91.1 545.5 91.8C547.1 92.5 548.3 93.6 549.2 94.9C550.1 96.2 550.7 97.8 550.8 99.6H545.2C545 98.4 544.4 97.4 543.6 96.6C542.8 95.8 541.6 95.4 540.2 95.4C539 95.4 537.9 95.7 537 96.4C536.1 97 535.4 98 534.9 99.2C534.4 100.4 534.1 101.8 534.1 103.5C534.1 105.2 534.3 106.7 534.8 107.9C535.3 109.1 536 110.1 536.9 110.7C537.8 111.3 538.9 111.7 540.1 111.7C541 111.7 541.7 111.5 542.4 111.2C543.1 110.9 543.7 110.4 544.1 109.8C544.6 109.2 544.9 108.4 545.1 107.5H550.7C550.6 109.3 550 110.8 549.1 112.2C548.2 113.6 547 114.6 545.4 115.4C544 115.9 542.2 116.3 540.1 116.3Z" fill="#77809C"/>
<path d="M566 116.3C563.6 116.3 561.5 115.8 559.7 114.7C557.9 113.6 556.5 112.1 555.6 110.2C554.6 108.3 554.1 106 554.1 103.5C554.1 100.9 554.6 98.7001 555.6 96.7001C556.6 94.8001 558 93.3001 559.7 92.2001C561.5 91.1001 563.6 90.6001 566 90.6001C568.4 90.6001 570.5 91.1001 572.3 92.2001C574.1 93.3001 575.5 94.8001 576.4 96.7001C577.4 98.6001 577.9 100.9 577.9 103.5C577.9 106.1 577.4 108.3 576.4 110.2C575.4 112.1 574 113.6 572.3 114.7C570.5 115.7 568.4 116.3 566 116.3ZM566 111.6C567.3 111.6 568.4 111.2 569.3 110.5C570.2 109.8 570.8 108.8 571.3 107.6C571.7 106.4 572 105 572 103.5C572 102 571.8 100.6 571.3 99.4001C570.8 98.2001 570.2 97.2001 569.3 96.4001C568.4 95.7001 567.3 95.3001 566 95.3001C564.6 95.3001 563.5 95.7001 562.6 96.4001C561.7 97.1001 561 98.1001 560.6 99.4001C560.2 100.7 559.9 102 559.9 103.5C559.9 105 560.1 106.4 560.6 107.6C561 108.8 561.7 109.8 562.6 110.5C563.6 111.2 564.7 111.6 566 111.6Z" fill="#77809C"/>
<path d="M598.3 105.3V90.8999H604.2V115.8H598.5V111.4H598.2C597.6 112.8 596.7 113.9 595.4 114.8C594.1 115.7 592.5 116.1 590.7 116.1C589.1 116.1 587.6 115.7 586.4 115C585.2 114.3 584.2 113.2 583.5 111.8C582.8 110.4 582.4 108.7 582.4 106.7V90.8999H588.3V105.9C588.3 107.5 588.7 108.7 589.6 109.7C590.5 110.6 591.6 111.1 593 111.1C593.9 111.1 594.7 110.9 595.5 110.5C596.3 110.1 597 109.4 597.5 108.6C598.1 107.6 598.3 106.6 598.3 105.3Z" fill="#77809C"/>
<path d="M615.7 101.2V115.8H609.8V90.9001H615.4V95.1001H615.7C616.3 93.7001 617.2 92.6001 618.4 91.8001C619.7 91.0001 621.2 90.6001 623.1 90.6001C624.8 90.6001 626.3 91.0001 627.6 91.7001C628.9 92.4001 629.9 93.5001 630.6 94.9001C631.3 96.3001 631.7 98.0001 631.6 100V115.9H625.7V100.9C625.7 99.2001 625.3 97.9001 624.4 97.0001C623.5 96.1001 622.4 95.6001 620.8 95.6001C619.8 95.6001 618.9 95.8001 618.1 96.3001C617.3 96.7001 616.7 97.4001 616.2 98.2001C615.7 99.0001 615.7 100 615.7 101.2Z" fill="#77809C"/>
<path d="M649.6 90.8999V95.3999H635.3V90.8999H649.6ZM638.8 84.8999H644.7V108.3C644.7 109.1 644.8 109.7 645.1 110.1C645.3 110.5 645.7 110.8 646.1 111C646.5 111.2 646.9 111.2 647.4 111.2C647.8 111.2 648.1 111.2 648.4 111.1C648.7 111 648.9 111 649.1 111L650.1 115.6C649.8 115.7 649.3 115.8 648.8 116C648.2 116.1 647.5 116.2 646.7 116.2C645.2 116.2 643.9 116 642.7 115.5C641.5 115 640.6 114.2 639.9 113.2C639.2 112.2 638.9 110.9 638.9 109.3V84.8999H638.8Z" fill="#77809C"/>
<path d="M665.1 116.3C662.6 116.3 660.4 115.8 658.6 114.7C656.8 113.7 655.4 112.2 654.4 110.3C653.4 108.4 652.9 106.1 652.9 103.5C652.9 100.9 653.4 98.7001 654.4 96.7001C655.4 94.8001 656.7 93.2001 658.5 92.2001C660.3 91.2001 662.3 90.6001 664.7 90.6001C666.2 90.6001 667.7 90.8001 669.1 91.3001C670.5 91.8001 671.7 92.6001 672.7 93.6001C673.8 94.6001 674.6 95.9001 675.2 97.5001C675.8 99.1001 676.1 101 676.1 103.2V105H655.7V101H670.5C670.5 99.9001 670.2 98.9001 669.8 98.0001C669.3 97.1001 668.7 96.4001 667.8 95.9001C667 95.4001 666 95.1001 664.8 95.1001C663.6 95.1001 662.5 95.4001 661.6 96.0001C660.7 96.6001 660 97.3001 659.5 98.3001C659 99.3001 658.7 100.3 658.7 101.4V104.9C658.7 106.3 659 107.6 659.5 108.6C660 109.6 660.8 110.4 661.7 111C662.7 111.5 663.8 111.8 665 111.8C665.9 111.8 666.6 111.7 667.3 111.4C668 111.2 668.6 110.8 669.1 110.3C669.6 109.8 670 109.2 670.3 108.5L675.8 109.1C675.5 110.5 674.8 111.8 673.8 112.9C672.8 114 671.6 114.8 670.1 115.4C668.8 116 667 116.3 665.1 116.3Z" fill="#77809C"/>
<path d="M689.9 116.2C687.9 116.2 686.2 115.7 684.6 114.7C683.1 113.7 681.8 112.2 680.9 110.3C680 108.4 679.6 106.1 679.6 103.3C679.6 100.5 680.1 98.2001 681 96.3001C681.9 94.4001 683.1 92.9001 684.7 92.0001C686.3 91.0001 688 90.5001 689.9 90.5001C691.4 90.5001 692.6 90.7001 693.5 91.2001C694.4 91.7001 695.2 92.3001 695.7 93.0001C696.3 93.7001 696.7 94.3001 697 94.9001H697.2V82.6001H703.1V115.8H697.3V111.9H696.9C696.6 112.5 696.2 113.1 695.6 113.8C695 114.5 694.3 115.1 693.3 115.5C692.6 116 691.4 116.2 689.9 116.2ZM691.6 111.4C692.8 111.4 693.9 111.1 694.8 110.4C695.7 109.7 696.3 108.8 696.8 107.6C697.3 106.4 697.5 105 697.5 103.4C697.5 101.8 697.3 100.4 696.8 99.2001C696.3 98.0001 695.7 97.1001 694.8 96.4001C693.9 95.7001 692.9 95.4001 691.6 95.4001C690.3 95.4001 689.2 95.7001 688.3 96.4001C687.4 97.1001 686.8 98.0001 686.3 99.2001C685.8 100.4 685.6 101.8 685.6 103.3C685.6 104.9 685.8 106.2 686.3 107.5C686.7 108.7 687.4 109.7 688.3 110.4C689.2 111.1 690.3 111.4 691.6 111.4Z" fill="#77809C"/>
<path d="M732.5 90.9V95.4H717.8V90.9H732.5ZM721.5 115.8V88.5C721.5 86.8 721.8 85.4 722.5 84.3C723.2 83.2 724.1 82.4 725.3 81.8C726.5 81.2 727.8 81 729.2 81C730.2 81 731.1 81.1 731.9 81.2C732.7 81.4 733.3 81.5 733.7 81.6L732.5 86.1C732.3 86 731.9 85.9 731.6 85.9C731.3 85.9 730.8 85.8 730.3 85.8C729.2 85.8 728.4 86.1 728 86.6C727.6 87.1 727.3 87.9 727.3 88.8V115.7H721.5V115.8Z" fill="#77809C"/>
<path d="M747.6 116.3C745.2 116.3 743.1 115.8 741.3 114.7C739.5 113.6 738.1 112.1 737.2 110.2C736.2 108.3 735.7 106 735.7 103.5C735.7 100.9 736.2 98.7001 737.2 96.7001C738.2 94.8001 739.6 93.3001 741.3 92.2001C743.1 91.1001 745.2 90.6001 747.6 90.6001C750 90.6001 752.1 91.1001 753.9 92.2001C755.7 93.3001 757.1 94.8001 758 96.7001C759 98.6001 759.5 100.9 759.5 103.5C759.5 106.1 759 108.3 758 110.2C757 112.1 755.6 113.6 753.9 114.7C752.1 115.7 750 116.3 747.6 116.3ZM747.6 111.6C748.9 111.6 750 111.2 750.9 110.5C751.8 109.8 752.4 108.8 752.9 107.6C753.3 106.4 753.6 105 753.6 103.5C753.6 102 753.4 100.6 752.9 99.4001C752.4 98.2001 751.8 97.2001 750.9 96.4001C750 95.7001 748.9 95.3001 747.6 95.3001C746.2 95.3001 745.1 95.7001 744.2 96.4001C743.3 97.1001 742.6 98.1001 742.2 99.4001C741.8 100.7 741.5 102 741.5 103.5C741.5 105 741.7 106.4 742.2 107.6C742.6 108.8 743.3 109.8 744.2 110.5C745.1 111.2 746.2 111.6 747.6 111.6Z" fill="#77809C"/>
<path d="M764 115.8V90.9H769.7V95H770C770.5 93.6 771.2 92.5 772.3 91.7C773.4 90.9 774.7 90.5 776.1 90.5C776.4 90.5 776.8 90.5 777.2 90.5C777.6 90.5 777.9 90.6 778.2 90.6V96C778 95.9 777.6 95.8 777 95.8C776.4 95.8 775.9 95.7 775.5 95.7C774.4 95.7 773.5 95.9 772.6 96.4C771.7 96.9 771.1 97.5 770.6 98.3C770.1 99.1 769.9 100 769.9 101.1V115.7H764V115.8Z" fill="#77809C"/>
<path d="M806 82.6001V115.8H800V88.4001H799.8L792 93.4001V87.9001L800.3 82.6001H806Z" fill="#242438"/>
<path d="M825.5 116.2C823.3 116.2 821.4 115.8 819.7 115C818 114.2 816.6 113.1 815.6 111.6C814.6 110.2 814.1 108.5 814 106.7H819.8C819.9 108.1 820.5 109.2 821.6 110C822.7 110.9 824 111.3 825.5 111.3C826.7 111.3 827.7 111 828.6 110.5C829.5 110 830.2 109.2 830.8 108.2C831.3 107.2 831.6 106.1 831.6 104.9C831.6 103.6 831.3 102.5 830.8 101.6C830.3 100.6 829.5 99.9001 828.6 99.3001C827.7 98.7001 826.6 98.5001 825.4 98.5001C824.4 98.5001 823.4 98.7001 822.5 99.1001C821.5 99.5001 820.8 100 820.2 100.6L814.8 99.7001L816.5 82.6001H835.8V87.6001H821.5L820.5 96.4001H820.7C821.3 95.7001 822.2 95.1001 823.3 94.6001C824.4 94.1001 825.7 93.9001 827 93.9001C829 93.9001 830.8 94.4001 832.4 95.3001C834 96.2001 835.2 97.5001 836.1 99.2001C837 100.9 837.5 102.7 837.5 104.9C837.5 107.1 837 109.1 836 110.8C835 112.5 833.6 113.9 831.8 114.8C829.9 115.7 827.9 116.2 825.5 116.2Z" fill="#242438"/>
<path d="M843.3 90.5V88.7C843.3 87.4 843.6 86.2 844.1 85.1C844.7 84 845.5 83.2 846.5 82.5C847.5 81.8 848.8 81.5 850.3 81.5C851.8 81.5 853.1 81.8 854.2 82.5C855.2 83.2 856 84 856.6 85.1C857.1 86.2 857.4 87.4 857.4 88.7V90.5C857.4 91.8 857.1 93 856.6 94.1C856.1 95.2 855.3 96 854.2 96.7C853.2 97.3 851.9 97.7 850.4 97.7C848.9 97.7 847.6 97.4 846.5 96.7C845.4 96 844.7 95.2 844.1 94.1C843.6 93 843.3 91.8 843.3 90.5ZM845.1 115.8L868 82.6H872.1L849.3 115.8H845.1ZM847.6 88.8V90.6C847.6 91.5 847.8 92.3 848.2 93C848.6 93.7 849.3 94.1 850.4 94.1C851.4 94.1 852.2 93.7 852.5 93C852.9 92.3 853.1 91.5 853.1 90.6V88.8C853.1 87.9 852.9 87.1 852.5 86.4C852.1 85.7 851.4 85.3 850.3 85.3C849.3 85.3 848.6 85.7 848.1 86.4C847.8 87.1 847.6 87.9 847.6 88.8ZM860.2 109.6V107.8C860.2 106.5 860.5 105.3 861 104.2C861.5 103.1 862.3 102.2 863.4 101.6C864.4 100.9 865.7 100.6 867.2 100.6C868.7 100.6 870 100.9 871.1 101.6C872.2 102.3 872.9 103.1 873.5 104.2C874 105.3 874.3 106.5 874.3 107.8V109.6C874.3 110.9 874 112.1 873.5 113.2C873 114.3 872.2 115.2 871.1 115.8C870.1 116.5 868.8 116.8 867.3 116.8C865.8 116.8 864.5 116.5 863.5 115.8C862.5 115.1 861.7 114.3 861.1 113.2C860.4 112 860.2 110.8 860.2 109.6ZM864.4 107.8V109.6C864.4 110.5 864.6 111.2 865 112C865.4 112.8 866.1 113.1 867.2 113.1C868.2 113.1 869 112.7 869.4 112C869.8 111.3 870 110.5 870 109.6V107.8C870 106.9 869.8 106.1 869.4 105.4C869 104.7 868.3 104.3 867.2 104.3C866.2 104.3 865.5 104.7 865 105.4C864.6 106.1 864.4 106.9 864.4 107.8Z" fill="#242438"/>
<path d="M902.3 116.3C899.9 116.3 897.8 115.8 896 114.7C894.2 113.6 892.8 112.1 891.9 110.2C890.9 108.3 890.4 106 890.4 103.5C890.4 100.9 890.9 98.7001 891.9 96.7001C892.9 94.8001 894.3 93.3001 896 92.2001C897.8 91.1001 899.9 90.6001 902.3 90.6001C904.7 90.6001 906.8 91.1001 908.6 92.2001C910.4 93.3001 911.8 94.8001 912.7 96.7001C913.7 98.6001 914.2 100.9 914.2 103.5C914.2 106.1 913.7 108.3 912.7 110.2C911.7 112.1 910.3 113.6 908.6 114.7C906.9 115.7 904.8 116.3 902.3 116.3ZM902.3 111.6C903.6 111.6 904.7 111.2 905.6 110.5C906.5 109.8 907.1 108.8 907.6 107.6C908 106.4 908.3 105 908.3 103.5C908.3 102 908.1 100.6 907.6 99.4001C907.1 98.2001 906.5 97.2001 905.6 96.4001C904.7 95.7001 903.6 95.3001 902.3 95.3001C900.9 95.3001 899.8 95.7001 898.9 96.4001C898 97.1001 897.3 98.1001 896.9 99.4001C896.5 100.7 896.2 102 896.2 103.5C896.2 105 896.4 106.4 896.9 107.6C897.3 108.8 898 109.8 898.9 110.5C899.9 111.2 901 111.6 902.3 111.6Z" fill="#77809C"/>
<path d="M931.4 90.9V95.4H916.7V90.9H931.4ZM920.3 115.8V88.5C920.3 86.8 920.6 85.4 921.3 84.3C922 83.2 922.9 82.4 924.1 81.8C925.3 81.2 926.6 81 928 81C929 81 929.9 81.1 930.7 81.2C931.5 81.4 932.1 81.5 932.5 81.6L931.3 86.1C931.1 86 930.7 85.9 930.4 85.9C930.1 85.9 929.6 85.8 929.1 85.8C928 85.8 927.2 86.1 926.8 86.6C926.4 87.1 926.1 87.9 926.1 88.8V115.7H920.3V115.8Z" fill="#77809C"/>
<path d="M946.7 115.8V82.6001H968V87.6001H952.7V96.6001H966.5V101.6H952.7V115.7H946.7V115.8Z" fill="#77809C"/>
<path d="M984.2 115.8H973V82.6001H984.5C987.8 82.6001 990.6 83.3001 993 84.6001C995.4 85.9001 997.2 87.8001 998.5 90.3001C999.8 92.8001 1000.4 95.7001 1000.4 99.2001C1000.4 102.7 999.8 105.6 998.5 108.1C997.2 110.6 995.4 112.5 993 113.8C990.6 115.1 987.6 115.8 984.2 115.8ZM979 110.6H983.9C986.2 110.6 988.1 110.2 989.7 109.3C991.2 108.5 992.4 107.2 993.2 105.5C994 103.8 994.4 101.7 994.4 99.1001C994.4 96.6001 994 94.4001 993.2 92.8001C992.4 91.1001 991.3 89.9001 989.8 89.0001C988.3 88.2001 986.4 87.7001 984.1 87.7001H979V110.6Z" fill="#77809C"/>
<path d="M1011.6 82.6001V115.8H1005.6V82.6001H1011.6Z" fill="#77809C"/>
<path d="M60.9 142.1C60 142.1 59.2 141.8 58.5 141.2C57.8 140.6 57.5 139.8 57.5 138.9C57.5 138 57.8 137.3 58.5 136.7C59.2 136.1 60 135.8 60.9 135.8C61.8 135.8 62.6 136.1 63.3 136.7C64 137.3 64.3 138.1 64.3 139C64.3 139.9 64 140.6 63.3 141.2C62.6 141.8 61.8 142.1 60.9 142.1ZM57.9 170.6V145.7H63.8V170.6H57.9Z" fill="#77809C"/>
<path d="M75.2 156V170.6H69.3V145.7H75V149.9H75.3C75.9 148.5 76.8 147.4 78 146.6C79.3 145.8 80.8 145.4 82.7 145.4C84.4 145.4 85.9 145.8 87.2 146.5C88.5 147.2 89.5 148.3 90.2 149.7C90.9 151.1 91.3 152.8 91.2 154.8V170.7H85.3V155.7C85.3 154 84.9 152.7 84 151.8C83.1 150.9 82 150.4 80.4 150.4C79.4 150.4 78.5 150.6 77.7 151.1C76.9 151.5 76.3 152.2 75.8 153C75.3 153.8 75.2 154.8 75.2 156Z" fill="#77809C"/>
<path d="M109.4 145.7V150.2H94.6001V145.7H109.4ZM98.3001 170.6V143.3C98.3001 141.6 98.6001 140.2 99.3001 139.1C100 138 100.9 137.2 102.1 136.6C103.3 136 104.6 135.8 106 135.8C107 135.8 107.9 135.9 108.7 136C109.5 136.2 110.1 136.3 110.5 136.4L109.3 140.9C109.1 140.8 108.7 140.7 108.4 140.7C108.1 140.7 107.6 140.6 107.1 140.6C106 140.6 105.2 140.9 104.8 141.4C104.4 141.9 104.1 142.7 104.1 143.6V170.5H98.3001V170.6Z" fill="#77809C"/>
<path d="M119.4 137.4V170.6H113.5V137.4H119.4Z" fill="#77809C"/>
<path d="M135.8 171.1C133.4 171.1 131.3 170.6 129.5 169.5C127.7 168.4 126.3 166.9 125.4 165C124.4 163.1 123.9 160.8 123.9 158.3C123.9 155.7 124.4 153.5 125.4 151.5C126.4 149.6 127.8 148.1 129.5 147C131.3 145.9 133.4 145.4 135.8 145.4C138.2 145.4 140.3 145.9 142.1 147C143.9 148.1 145.3 149.6 146.2 151.5C147.2 153.4 147.7 155.7 147.7 158.3C147.7 160.9 147.2 163.1 146.2 165C145.2 166.9 143.8 168.4 142.1 169.5C140.4 170.6 138.3 171.1 135.8 171.1ZM135.9 166.4C137.2 166.4 138.3 166 139.2 165.3C140.1 164.6 140.7 163.6 141.2 162.4C141.6 161.2 141.9 159.8 141.9 158.3C141.9 156.8 141.7 155.4 141.2 154.2C140.7 153 140.1 152 139.2 151.2C138.3 150.5 137.2 150.1 135.9 150.1C134.5 150.1 133.4 150.5 132.5 151.2C131.6 151.9 130.9 152.9 130.5 154.2C130.1 155.5 129.8 156.8 129.8 158.3C129.8 159.8 130 161.2 130.5 162.4C130.9 163.6 131.6 164.6 132.5 165.3C133.4 166 134.5 166.4 135.9 166.4Z" fill="#77809C"/>
<path d="M157.4 170.6L150.4 145.7H156.4L160.8 163.2H161L165.5 145.7H171.4L175.9 163.1H176.1L180.4 145.7H186.4L179.3 170.6H173.2L168.5 153.8H168.2L163.5 170.6H157.4Z" fill="#77809C"/>
<path d="M209.8 152.3L204.4 152.9C204.2 152.4 204 151.9 203.6 151.4C203.2 150.9 202.7 150.5 202.1 150.2C201.5 149.9 200.7 149.8 199.8 149.8C198.6 149.8 197.6 150.1 196.7 150.6C195.9 151.1 195.5 151.8 195.5 152.7C195.5 153.4 195.8 154 196.3 154.5C196.8 155 197.8 155.3 199 155.6L203.2 156.5C205.6 157 207.3 157.8 208.5 158.9C209.7 160 210.2 161.4 210.2 163.2C210.2 164.8 209.7 166.2 208.8 167.3C207.9 168.5 206.6 169.4 205 170.1C203.4 170.8 201.6 171.1 199.5 171.1C196.5 171.1 194 170.5 192.1 169.2C190.2 167.9 189.1 166.1 188.8 163.8L194.5 163.2C194.8 164.3 195.3 165.2 196.2 165.7C197.1 166.2 198.1 166.6 199.5 166.6C200.9 166.6 202 166.3 202.9 165.7C203.7 165.1 204.2 164.4 204.2 163.6C204.2 162.9 203.9 162.3 203.4 161.8C202.9 161.3 202 161 200.9 160.7L196.6 159.8C194.2 159.3 192.4 158.5 191.3 157.3C190.2 156.1 189.6 154.6 189.6 152.8C189.6 151.3 190 149.9 190.9 148.8C191.8 147.7 192.9 146.8 194.5 146.2C196 145.6 197.8 145.3 199.8 145.3C202.7 145.3 205 145.9 206.7 147.2C208.3 148.5 209.4 150.1 209.8 152.3Z" fill="#77809C"/>
<path d="M238 145.7V150.2H223.7V145.7H238ZM227.2 139.7H233.1V163.1C233.1 163.9 233.2 164.5 233.5 164.9C233.7 165.3 234.1 165.6 234.5 165.8C234.9 166 235.3 166 235.8 166C236.2 166 236.5 166 236.8 165.9C237.1 165.8 237.3 165.8 237.5 165.8L238.5 170.4C238.2 170.5 237.7 170.6 237.2 170.8C236.6 170.9 235.9 171 235.1 171C233.6 171 232.3 170.8 231.1 170.3C229.9 169.8 229 169 228.3 168C227.6 167 227.3 165.7 227.3 164.1V139.7H227.2Z" fill="#77809C"/>
<path d="M253.4 171.1C251 171.1 248.9 170.6 247.1 169.5C245.3 168.4 243.9 166.9 243 165C242 163.1 241.5 160.8 241.5 158.3C241.5 155.7 242 153.5 243 151.5C244 149.6 245.4 148.1 247.1 147C248.9 145.9 251 145.4 253.4 145.4C255.8 145.4 257.9 145.9 259.7 147C261.5 148.1 262.9 149.6 263.8 151.5C264.8 153.4 265.3 155.7 265.3 158.3C265.3 160.9 264.8 163.1 263.8 165C262.8 166.9 261.4 168.4 259.7 169.5C257.9 170.6 255.8 171.1 253.4 171.1ZM253.4 166.4C254.7 166.4 255.8 166 256.7 165.3C257.6 164.6 258.2 163.6 258.7 162.4C259.1 161.2 259.4 159.8 259.4 158.3C259.4 156.8 259.2 155.4 258.7 154.2C258.2 153 257.6 152 256.7 151.2C255.8 150.5 254.7 150.1 253.4 150.1C252 150.1 250.9 150.5 250 151.2C249.1 151.9 248.4 152.9 248 154.2C247.6 155.5 247.3 156.8 247.3 158.3C247.3 159.8 247.5 161.2 248 162.4C248.4 163.6 249.1 164.6 250 165.3C250.9 166 252 166.4 253.4 166.4Z" fill="#77809C"/>
<path d="M285.2 170.6H278.8L290.5 137.4H297.9L309.6 170.6H303.2L294.3 144.2H294L285.2 170.6ZM285.4 157.6H302.9V162.4H285.4V157.6Z" fill="#77809C"/>
<path d="M325.9 145.7V150.2H311.2V145.7H325.9ZM314.9 170.6V143.3C314.9 141.6 315.2 140.2 315.9 139.1C316.6 138 317.5 137.2 318.7 136.6C319.9 136 321.2 135.8 322.6 135.8C323.6 135.8 324.5 135.9 325.3 136C326.1 136.2 326.7 136.3 327.1 136.4L325.9 140.9C325.7 140.8 325.3 140.7 325 140.7C324.7 140.7 324.2 140.6 323.7 140.6C322.6 140.6 321.8 140.9 321.4 141.4C321 141.9 320.7 142.7 320.7 143.6V170.5H314.9V170.6Z" fill="#77809C"/>
<path d="M330.1 170.6V145.7H335.8V149.9H336.1C336.6 148.5 337.3 147.4 338.4 146.6C339.5 145.8 340.8 145.4 342.2 145.4C342.5 145.4 342.9 145.4 343.3 145.4C343.7 145.4 344 145.5 344.3 145.5V150.9C344.1 150.8 343.7 150.7 343.1 150.7C342.5 150.7 342 150.6 341.6 150.6C340.5 150.6 339.6 150.8 338.7 151.3C337.8 151.8 337.2 152.4 336.7 153.2C336.2 154 336 154.9 336 156V170.6H330.1Z" fill="#77809C"/>
<path d="M350.7 142.1C349.8 142.1 349 141.8 348.3 141.2C347.6 140.6 347.3 139.8 347.3 138.9C347.3 138 347.6 137.3 348.3 136.7C349 136.1 349.8 135.8 350.7 135.8C351.6 135.8 352.4 136.1 353.1 136.7C353.8 137.3 354.1 138.1 354.1 139C354.1 139.9 353.8 140.6 353.1 141.2C352.4 141.8 351.6 142.1 350.7 142.1ZM347.7 170.6V145.7H353.6V170.6H347.7Z" fill="#77809C"/>
<path d="M370 171.1C367.5 171.1 365.4 170.6 363.6 169.5C361.8 168.4 360.5 166.9 359.5 165C358.5 163.1 358.1 160.8 358.1 158.3C358.1 155.8 358.6 153.5 359.6 151.6C360.6 149.7 361.9 148.1 363.7 147.1C365.5 146.1 367.6 145.5 370 145.5C372 145.5 373.8 145.9 375.4 146.6C377 147.3 378.2 148.4 379.1 149.7C380 151 380.6 152.6 380.7 154.4H375.1C374.9 153.2 374.3 152.2 373.5 151.4C372.7 150.6 371.5 150.2 370.1 150.2C368.9 150.2 367.8 150.5 366.9 151.2C366 151.8 365.3 152.8 364.8 154C364.3 155.2 364 156.6 364 158.3C364 160 364.2 161.5 364.7 162.7C365.2 163.9 365.9 164.9 366.8 165.5C367.7 166.1 368.8 166.5 370 166.5C370.9 166.5 371.6 166.3 372.3 166C373 165.7 373.6 165.2 374 164.6C374.5 164 374.8 163.2 375 162.3H380.6C380.5 164.1 379.9 165.6 379 167C378.1 168.4 376.9 169.4 375.3 170.2C373.9 170.7 372.1 171.1 370 171.1Z" fill="#77809C"/>
<path d="M392.3 171.1C390.7 171.1 389.3 170.8 388 170.2C386.7 169.6 385.7 168.8 385 167.7C384.3 166.6 383.9 165.2 383.9 163.6C383.9 162.2 384.2 161 384.7 160.1C385.2 159.2 385.9 158.4 386.8 157.9C387.7 157.3 388.7 156.9 389.8 156.6C390.9 156.3 392.1 156.1 393.3 156C394.8 155.8 395.9 155.7 396.9 155.6C397.9 155.5 398.5 155.3 398.9 155C399.3 154.7 399.5 154.3 399.5 153.8V153.7C399.5 152.5 399.1 151.5 398.4 150.9C397.7 150.2 396.6 149.9 395.3 149.9C393.9 149.9 392.7 150.2 391.9 150.8C391.1 151.4 390.5 152.2 390.2 153L384.7 152.2C385.1 150.7 385.8 149.4 386.8 148.4C387.8 147.4 389 146.6 390.4 146.1C391.8 145.6 393.4 145.3 395.2 145.3C396.4 145.3 397.6 145.4 398.8 145.7C400 146 401.1 146.4 402.1 147.1C403.1 147.8 403.9 148.6 404.5 149.7C405.1 150.8 405.4 152.2 405.4 153.8V170.5H399.8V167.1H399.6C399.2 167.8 398.7 168.4 398.1 169C397.5 169.6 396.7 170.1 395.7 170.4C394.7 170.9 393.6 171.1 392.3 171.1ZM393.8 166.8C395 166.8 396 166.6 396.9 166.1C397.8 165.6 398.4 165 398.9 164.2C399.4 163.4 399.6 162.6 399.6 161.7V158.8C399.4 159 399.1 159.1 398.7 159.2C398.3 159.3 397.8 159.4 397.2 159.5C396.7 159.6 396.1 159.7 395.6 159.8C395.1 159.9 394.6 159.9 394.2 160C393.3 160.1 392.5 160.3 391.8 160.6C391.1 160.9 390.6 161.2 390.2 161.7C389.8 162.2 389.6 162.8 389.6 163.6C389.6 164.7 390 165.5 390.8 166C391.6 166.5 392.6 166.8 393.8 166.8Z" fill="#77809C"/>
<path d="M417.8 166.1L417.6 167.9C417.4 169.3 417.2 170.7 416.8 172.1C416.4 173.5 416 174.8 415.6 176C415.2 177.2 414.8 178.1 414.6 178.8H410.6C410.8 178.1 411 177.2 411.2 176.1C411.4 175 411.7 173.7 412 172.3C412.2 170.9 412.4 169.4 412.5 168L412.6 166.2H417.8V166.1Z" fill="#77809C"/>
<path d="M457 145.7L448.1 170.6H441.6L432.7 145.7H439L444.7 164.2H445L450.7 145.7H457Z" fill="#77809C"/>
<path d="M467.8 171.1C466.2 171.1 464.8 170.8 463.5 170.2C462.2 169.6 461.2 168.8 460.5 167.7C459.8 166.6 459.4 165.2 459.4 163.6C459.4 162.2 459.7 161 460.2 160.1C460.7 159.2 461.4 158.4 462.3 157.9C463.2 157.3 464.2 156.9 465.3 156.6C466.4 156.3 467.6 156.1 468.8 156C470.3 155.8 471.4 155.7 472.4 155.6C473.4 155.5 474 155.3 474.4 155C474.8 154.7 475 154.3 475 153.8V153.7C475 152.5 474.6 151.5 473.9 150.9C473.2 150.2 472.1 149.9 470.8 149.9C469.4 149.9 468.2 150.2 467.4 150.8C466.6 151.4 466 152.2 465.7 153L460.2 152.2C460.6 150.7 461.3 149.4 462.3 148.4C463.3 147.4 464.5 146.6 465.9 146.1C467.3 145.6 468.9 145.3 470.7 145.3C471.9 145.3 473.1 145.4 474.3 145.7C475.5 146 476.6 146.4 477.6 147.1C478.6 147.8 479.4 148.6 480 149.7C480.6 150.8 480.9 152.2 480.9 153.8V170.5H475.3V167.1H475.1C474.7 167.8 474.2 168.4 473.6 169C473 169.6 472.2 170.1 471.2 170.4C470.2 170.9 469.1 171.1 467.8 171.1ZM469.3 166.8C470.5 166.8 471.5 166.6 472.4 166.1C473.3 165.6 473.9 165 474.4 164.2C474.9 163.4 475.1 162.6 475.1 161.7V158.8C474.9 159 474.6 159.1 474.2 159.2C473.8 159.3 473.3 159.4 472.7 159.5C472.2 159.6 471.6 159.7 471.1 159.8C470.6 159.9 470.1 159.9 469.7 160C468.8 160.1 468 160.3 467.3 160.6C466.6 160.9 466.1 161.2 465.7 161.7C465.3 162.2 465.1 162.8 465.1 163.6C465.1 164.7 465.5 165.5 466.3 166C467.1 166.5 468.1 166.8 469.3 166.8Z" fill="#77809C"/>
<path d="M492.3 137.4V170.6H486.4V137.4H492.3Z" fill="#77809C"/>
<path d="M513.8 160.1V145.7H519.7V170.6H514V166.2H513.7C513.1 167.6 512.2 168.7 510.9 169.6C509.6 170.5 508 170.9 506.2 170.9C504.6 170.9 503.1 170.5 501.9 169.8C500.7 169.1 499.7 168 499 166.6C498.3 165.2 497.9 163.5 497.9 161.5V145.6H503.8V160.6C503.8 162.2 504.2 163.4 505.1 164.4C506 165.3 507.1 165.8 508.5 165.8C509.4 165.8 510.2 165.6 511 165.2C511.8 164.8 512.5 164.1 513 163.3C513.5 162.4 513.8 161.4 513.8 160.1Z" fill="#77809C"/>
<path d="M536.2 171.1C533.7 171.1 531.5 170.6 529.7 169.5C527.9 168.5 526.5 167 525.5 165.1C524.5 163.2 524 160.9 524 158.3C524 155.7 524.5 153.5 525.5 151.5C526.5 149.6 527.8 148 529.6 147C531.4 146 533.4 145.4 535.8 145.4C537.3 145.4 538.8 145.6 540.2 146.1C541.6 146.6 542.8 147.4 543.8 148.4C544.9 149.4 545.7 150.7 546.3 152.3C546.9 153.9 547.2 155.8 547.2 158V159.8H526.8V155.8H541.6C541.6 154.7 541.3 153.7 540.9 152.8C540.4 151.9 539.8 151.2 538.9 150.7C538.1 150.2 537.1 149.9 535.9 149.9C534.7 149.9 533.6 150.2 532.7 150.8C531.8 151.4 531.1 152.1 530.6 153.1C530.1 154.1 529.8 155.1 529.8 156.2V159.7C529.8 161.1 530.1 162.4 530.6 163.4C531.1 164.4 531.9 165.2 532.8 165.8C533.8 166.3 534.9 166.6 536.1 166.6C537 166.6 537.7 166.5 538.4 166.2C539.1 166 539.7 165.6 540.2 165.1C540.7 164.6 541.1 164 541.4 163.3L546.9 163.9C546.6 165.3 545.9 166.6 544.9 167.7C543.9 168.8 542.7 169.6 541.2 170.2C539.9 170.8 538.2 171.1 536.2 171.1Z" fill="#77809C"/>
<path d="M561.1 171C559.1 171 557.4 170.5 555.8 169.5C554.3 168.5 553 167 552.1 165.1C551.2 163.2 550.8 160.9 550.8 158.1C550.8 155.3 551.3 153 552.2 151.1C553.1 149.2 554.3 147.7 555.9 146.8C557.5 145.8 559.2 145.3 561.1 145.3C562.6 145.3 563.8 145.5 564.7 146C565.6 146.5 566.4 147.1 566.9 147.8C567.5 148.5 567.9 149.1 568.2 149.7H568.4V137.3H574.3V170.5H568.5V166.6H568.1C567.8 167.2 567.4 167.8 566.8 168.5C566.2 169.2 565.5 169.8 564.5 170.2C563.7 170.8 562.5 171 561.1 171ZM562.7 166.2C563.9 166.2 565 165.9 565.9 165.2C566.8 164.5 567.4 163.6 567.9 162.4C568.4 161.2 568.6 159.8 568.6 158.2C568.6 156.6 568.4 155.2 567.9 154C567.4 152.8 566.8 151.9 565.9 151.2C565 150.5 564 150.2 562.7 150.2C561.4 150.2 560.3 150.5 559.4 151.2C558.5 151.9 557.9 152.8 557.4 154C556.9 155.2 556.7 156.6 556.7 158.1C556.7 159.7 556.9 161 557.4 162.3C557.8 163.5 558.5 164.5 559.4 165.2C560.3 165.9 561.4 166.2 562.7 166.2Z" fill="#77809C"/>
<path d="M598.2 171.1C596.6 171.1 595.2 170.8 593.9 170.2C592.6 169.6 591.6 168.8 590.9 167.7C590.2 166.6 589.8 165.2 589.8 163.6C589.8 162.2 590.1 161 590.6 160.1C591.1 159.2 591.8 158.4 592.7 157.9C593.6 157.3 594.6 156.9 595.7 156.6C596.8 156.3 598 156.1 599.2 156C600.7 155.8 601.8 155.7 602.8 155.6C603.8 155.5 604.4 155.3 604.8 155C605.2 154.7 605.4 154.3 605.4 153.8V153.7C605.4 152.5 605 151.5 604.3 150.9C603.6 150.2 602.5 149.9 601.2 149.9C599.8 149.9 598.6 150.2 597.8 150.8C597 151.4 596.4 152.2 596.1 153L590.6 152.2C591 150.7 591.7 149.4 592.7 148.4C593.7 147.4 594.9 146.6 596.3 146.1C597.7 145.6 599.3 145.3 601.1 145.3C602.3 145.3 603.5 145.4 604.7 145.7C605.9 146 607 146.4 608 147.1C609 147.8 609.8 148.6 610.4 149.7C611 150.8 611.3 152.2 611.3 153.8V170.5H605.7V167.1H605.5C605.1 167.8 604.6 168.4 604 169C603.4 169.6 602.6 170.1 601.6 170.4C600.6 170.9 599.5 171.1 598.2 171.1ZM599.7 166.8C600.9 166.8 601.9 166.6 602.8 166.1C603.7 165.6 604.3 165 604.8 164.2C605.3 163.4 605.5 162.6 605.5 161.7V158.8C605.3 159 605 159.1 604.6 159.2C604.2 159.3 603.7 159.4 603.1 159.5C602.6 159.6 602 159.7 601.5 159.8C601 159.9 600.5 159.9 600.1 160C599.2 160.1 598.4 160.3 597.7 160.6C597 160.9 596.5 161.2 596.1 161.7C595.7 162.2 595.5 162.8 595.5 163.6C595.5 164.7 595.9 165.5 596.7 166C597.5 166.5 598.5 166.8 599.7 166.8Z" fill="#77809C"/>
<path d="M629.3 145.7V150.2H615V145.7H629.3ZM618.5 139.7H624.4V163.1C624.4 163.9 624.5 164.5 624.8 164.9C625 165.3 625.4 165.6 625.8 165.8C626.2 166 626.6 166 627.1 166C627.5 166 627.8 166 628.1 165.9C628.4 165.8 628.6 165.8 628.8 165.8L629.8 170.4C629.5 170.5 629 170.6 628.5 170.8C627.9 170.9 627.2 171 626.4 171C624.9 171 623.6 170.8 622.4 170.3C621.2 169.8 620.3 169 619.6 168C618.9 167 618.6 165.7 618.6 164.1V139.7H618.5Z" fill="#77809C"/>
<path d="M662.9 146.5C662.7 145.1 662.1 144 661 143.2C659.9 142.4 658.4 142 656.6 142C655.3 142 654.3 142.2 653.4 142.6C652.5 143 651.8 143.5 651.3 144.1C650.8 144.7 650.6 145.5 650.6 146.3C650.6 147 650.8 147.6 651.1 148.1C651.4 148.6 651.9 149 652.4 149.4C653 149.8 653.6 150 654.2 150.3C654.9 150.5 655.5 150.7 656.2 150.9L659.3 151.7C660.6 152 661.8 152.4 662.9 152.9C664 153.4 665.1 154 666 154.8C666.9 155.6 667.7 156.5 668.2 157.5C668.7 158.6 669 159.8 669 161.3C669 163.2 668.5 165 667.5 166.4C666.5 167.9 665.1 169 663.2 169.9C661.3 170.7 659.1 171.1 656.4 171.1C653.8 171.1 651.6 170.7 649.7 169.9C647.8 169.1 646.3 167.9 645.3 166.4C644.2 164.9 643.7 163 643.6 160.8H649.5C649.6 162 649.9 162.9 650.6 163.7C651.2 164.5 652 165 653.1 165.4C654.2 165.8 655.2 166 656.5 166C657.8 166 659 165.8 659.9 165.4C660.9 165 661.7 164.5 662.2 163.7C662.8 163 663 162.2 663.1 161.2C663.1 160.3 662.8 159.6 662.3 159.1C661.8 158.6 661.1 158.1 660.2 157.7C659.3 157.3 658.3 157 657.1 156.7L653.3 155.7C650.6 155 648.4 153.9 646.8 152.5C645.2 151.1 644.4 149.2 644.4 146.8C644.4 144.8 644.9 143.1 646 141.7C647.1 140.2 648.5 139.1 650.4 138.3C652.2 137.5 654.3 137.1 656.6 137.1C659 137.1 661 137.5 662.8 138.3C664.6 139.1 666 140.2 667 141.7C668 143.1 668.5 144.8 668.6 146.7H662.9V146.5ZM655.2 174.8V133.3H657.9V174.8H655.2Z" fill="#242438"/>
<path d="M685.5 171.1C683.1 171.1 680.9 170.7 679.1 169.9C677.2 169.1 675.8 168 674.7 166.6C673.6 165.2 673.1 163.6 673.1 161.8C673.1 160.4 673.4 159.1 674 158C674.6 156.8 675.5 155.9 676.5 155.1C677.5 154.3 678.7 153.8 680 153.6V153.4C678.3 153 676.9 152.1 675.9 150.8C674.8 149.4 674.3 147.9 674.3 146.1C674.3 144.4 674.8 142.9 675.7 141.5C676.6 140.1 678 139.1 679.7 138.3C681.4 137.5 683.3 137.1 685.4 137.1C687.5 137.1 689.4 137.5 691.1 138.3C692.8 139.1 694.1 140.1 695.1 141.5C696.1 142.9 696.6 144.4 696.6 146.1C696.6 147.9 696.1 149.5 695 150.8C693.9 152.1 692.6 153 690.9 153.4V153.6C692.2 153.8 693.4 154.3 694.4 155.1C695.4 155.9 696.3 156.9 696.9 158C697.5 159.2 697.8 160.4 697.8 161.8C697.8 163.6 697.3 165.2 696.2 166.6C695.1 168 693.7 169.1 691.8 169.9C690.1 170.6 687.9 171.1 685.5 171.1ZM685.5 166.4C686.7 166.4 687.8 166.2 688.7 165.8C689.6 165.4 690.3 164.8 690.8 164C691.3 163.2 691.6 162.3 691.6 161.3C691.6 160.2 691.3 159.3 690.8 158.5C690.3 157.7 689.5 157 688.6 156.6C687.7 156.1 686.6 155.9 685.4 155.9C684.2 155.9 683.2 156.1 682.2 156.6C681.3 157.1 680.5 157.7 680 158.5C679.5 159.3 679.2 160.3 679.2 161.3C679.2 162.3 679.4 163.2 679.9 164C680.4 164.8 681.1 165.4 682 165.8C683.2 166.2 684.3 166.4 685.5 166.4ZM685.5 151.3C686.5 151.3 687.4 151.1 688.2 150.7C689 150.3 689.6 149.7 690.1 149C690.6 148.3 690.8 147.4 690.8 146.5C690.8 145.5 690.6 144.7 690.1 144C689.7 143.3 689 142.7 688.3 142.3C687.5 141.9 686.6 141.7 685.6 141.7C684.6 141.7 683.6 141.9 682.8 142.3C682 142.7 681.4 143.3 681 144C680.6 144.7 680.3 145.6 680.4 146.5C680.4 147.5 680.6 148.3 681.1 149C681.5 149.7 682.2 150.3 683 150.7C683.8 151.1 684.5 151.3 685.5 151.3Z" fill="#242438"/>
<path d="M706.5 171C705.5 171 704.7 170.7 704 170C703.3 169.3 703 168.5 703 167.5C703 166.5 703.3 165.7 704 165C704.7 164.3 705.5 164 706.5 164C707.5 164 708.3 164.3 709 165C709.7 165.7 710.1 166.5 710.1 167.5C710.1 168.2 709.9 168.8 709.6 169.3C709.3 169.8 708.8 170.3 708.3 170.6C707.7 170.8 707.1 171 706.5 171Z" fill="#242438"/>
<path d="M727.2 171.1C725 171.1 723.1 170.7 721.4 169.9C719.7 169.1 718.3 168 717.3 166.5C716.3 165.1 715.8 163.4 715.7 161.6H721.5C721.6 163 722.2 164.1 723.3 164.9C724.4 165.8 725.7 166.2 727.2 166.2C728.4 166.2 729.4 165.9 730.3 165.4C731.2 164.9 731.9 164.1 732.5 163.1C733 162.1 733.3 161 733.3 159.8C733.3 158.5 733 157.4 732.5 156.5C732 155.5 731.2 154.8 730.3 154.2C729.4 153.6 728.3 153.4 727.1 153.4C726.1 153.4 725.1 153.6 724.2 154C723.2 154.4 722.5 154.9 721.9 155.5L716.5 154.6L718.2 137.5H737.5V142.5H723L722 151.3H722.2C722.8 150.6 723.7 150 724.8 149.5C725.9 149 727.2 148.8 728.5 148.8C730.5 148.8 732.3 149.3 733.9 150.2C735.5 151.1 736.7 152.4 737.6 154.1C738.5 155.8 739 157.6 739 159.8C739 162 738.5 164 737.5 165.7C736.5 167.4 735.1 168.8 733.3 169.7C731.6 170.6 729.5 171.1 727.2 171.1Z" fill="#242438"/>
<path d="M744.4 170.6V137.4H757.1C759.5 137.4 761.5 137.8 763.1 138.5C764.7 139.3 765.9 140.3 766.7 141.6C767.5 142.9 767.9 144.4 767.9 146C767.9 147.4 767.6 148.5 767.1 149.5C766.6 150.5 765.9 151.2 765 151.8C764.1 152.4 763.1 152.8 762.1 153.1V153.4C763.3 153.5 764.4 153.8 765.5 154.5C766.6 155.2 767.5 156.1 768.2 157.3C768.9 158.5 769.2 159.9 769.2 161.6C769.2 163.3 768.8 164.9 768 166.2C767.2 167.6 765.9 168.6 764.2 169.4C762.5 170.2 760.4 170.6 757.9 170.6H744.4ZM750.4 151.5H756.4C757.4 151.5 758.4 151.3 759.2 150.9C760 150.5 760.7 150 761.2 149.3C761.7 148.6 761.9 147.8 761.9 146.8C761.9 145.5 761.4 144.5 760.5 143.6C759.6 142.8 758.3 142.4 756.5 142.4H750.4V151.5ZM750.4 165.6H756.9C759.1 165.6 760.7 165.2 761.6 164.3C762.6 163.5 763.1 162.4 763.1 161.1C763.1 160.1 762.9 159.2 762.4 158.4C761.9 157.6 761.2 157 760.3 156.5C759.4 156 758.3 155.8 757.1 155.8H750.5V165.6H750.4Z" fill="#242438"/>
<path d="M777.3 171C776.3 171 775.5 170.7 774.8 170C774.1 169.3 773.8 168.5 773.8 167.5C773.8 166.5 774.1 165.7 774.8 165C775.5 164.3 776.3 164 777.3 164C778.3 164 779.1 164.3 779.8 165C780.5 165.7 780.9 166.5 780.9 167.5C780.9 168.2 780.7 168.8 780.4 169.3C780.1 169.8 779.6 170.3 779.1 170.6C778.5 170.8 777.9 171 777.3 171Z" fill="#77809C"/>
</g>
<mask id="mask7_4_1475" style="mask-type:luminance" maskUnits="userSpaceOnUse" x="0" y="0" width="1521" height="255">
<path d="M1521 0H0V255H1521V0Z" fill="white"/>
</mask>
<g mask="url(#mask7_4_1475)">
<path d="M1468 59C1480.15 59 1490 49.1503 1490 37C1490 24.8497 1480.15 15 1468 15C1455.85 15 1446 24.8497 1446 37C1446 49.1503 1455.85 59 1468 59Z" fill="#D4F6FF"/>
</g>
<mask id="mask8_4_1475" style="mask-type:luminance" maskUnits="userSpaceOnUse" x="0" y="0" width="1521" height="255">
<path d="M1521 0H0V255H1521V0Z" fill="white"/>
</mask>
<g mask="url(#mask8_4_1475)">
<path d="M1314.2 243.3C1313 242.3 1311.7 241.5 1310.7 240.4C1302.9 232 1295.1 223.6 1287.3 215.2C1285.9 213.7 1284.9 212.2 1285.8 210.1C1286.7 208 1288.6 207.8 1290.6 207.8C1294.7 207.9 1298.7 207.8 1302.9 207.8C1302.9 188.2 1302.9 168.9 1302.9 149.3C1294.2 149.3 1285.5 149.3 1276.6 149.3C1271.2 165.6 1264.5 181.5 1255 196.4C1257.1 197.5 1259.2 198.6 1261.3 199.7C1262.8 200.5 1264.3 201.2 1265.8 202C1267.5 202.9 1268.5 204.2 1268.4 206.2C1268.2 208.2 1267 209.3 1265.2 210C1256.4 213.2 1247.7 216.4 1238.9 219.6C1236.3 220.6 1233.6 221.6 1231 222.5C1228 223.5 1225.8 222.4 1225 219.4C1221.7 207.7 1218.4 196 1215.2 184.3C1214.7 182.5 1214.9 180.8 1216.4 179.5C1218 178.2 1219.8 178.3 1221.5 179.2C1225.2 181.1 1229 183 1232.8 185C1240.2 173.7 1246.1 161.8 1251.1 149.4C1250.9 149.2 1250.8 149.1 1250.7 149.1C1243.1 146.7 1240.6 143.2 1240.6 135.2C1240.6 132.6 1240.6 130 1240.6 127.4C1240.6 125 1241.8 123.7 1243.7 123.7C1245.7 123.7 1246.8 125 1246.9 127.3C1247 130.6 1246.8 133.9 1247 137.2C1247.1 140.3 1249.2 142.4 1252 142.7C1253.1 142.8 1253.9 142.6 1254.2 141.4C1254.4 140.5 1254.7 139.7 1255.1 138.8C1255.8 137.1 1256.1 135.7 1254.5 134C1253.5 133 1253.3 130.9 1253.3 129.3C1253.2 105.1 1253.3 80.9 1253.3 56.8C1253.3 53.3 1253.3 49.8 1253.3 46.3C1253.4 41.9 1255.5 39.9 1259.8 39.9C1296.9 39.9 1334 39.9 1371.1 39.9C1375.5 39.9 1377.6 41.9 1377.6 46.3C1377.6 74.2 1377.6 102.1 1377.5 130C1377.5 131.6 1376.9 133.5 1375.9 134.6C1374.8 135.8 1374.9 136.7 1375.4 137.9C1375.8 138.9 1376.3 139.9 1376.4 140.9C1376.8 143 1378 143.1 1379.6 142.6C1381.9 142 1383.4 140.2 1383.7 137.8C1383.8 137.1 1383.8 136.4 1383.8 135.7C1383.8 104 1383.8 72.3 1383.7 40.6C1383.7 38.8 1383.1 36.8 1382.1 35.4C1381.3 34.3 1379.4 33.8 1377.9 33.6C1375.3 33.3 1372.6 33.5 1369.9 33.5C1367.6 33.5 1366.2 32.3 1366.2 30.4C1366.2 28.5 1367.5 27.2 1369.8 27.2C1372.7 27.2 1375.6 27.1 1378.4 27.2C1384.5 27.3 1389.4 31.9 1389.9 37.9C1390 38.7 1390 39.4 1390 40.2C1390 72.1 1390 104 1390 135.9C1390 142.2 1387.1 146.6 1381.9 148.4C1381.2 148.6 1380.4 148.8 1379.4 149.1C1380.7 152.1 1381.9 155.1 1383.2 158C1384.1 160.1 1385.2 162.2 1386.2 164.3C1387.4 166.9 1387.1 168.7 1385.2 169.6C1383.4 170.4 1381.8 169.6 1380.6 167.2C1374.1 154.7 1369.4 141.5 1365.5 128C1361.2 113 1358 97.9 1357 82.2C1354 82.2 1351 82.2 1347.7 82.2C1348.4 89 1349 95.8 1350 102.5C1353 124 1358.3 144.9 1366.7 165C1371.1 175.5 1376.1 185.7 1382.6 195.1C1384.3 197.6 1383.9 199.3 1381.1 200.7C1378.2 202.2 1375.2 203.7 1371.9 205.4C1381.5 208.9 1390.7 212.2 1400.2 215.7C1402.9 206.1 1405.5 196.7 1408.3 186.7C1405 188.4 1402.2 189.8 1399.3 191.3C1396.5 192.7 1395.4 192.5 1393.7 189.9C1391.7 186.9 1389.8 183.9 1388 180.8C1386.7 178.7 1387.1 176.8 1388.8 175.9C1390.4 175 1392.2 175.6 1393.4 177.5C1394.9 179.9 1396.4 182.4 1398 184.9C1401.8 183 1405.4 181.1 1409 179.2C1410.9 178.2 1412.7 177.8 1414.5 179.3C1416.2 180.7 1416.2 182.6 1415.6 184.5C1412.4 195.9 1409.2 207.3 1406 218.8C1405 222.3 1402.9 223.4 1399.5 222.1C1388.3 218.1 1377.2 214 1366 210C1364.1 209.3 1362.6 208.3 1362.4 206.1C1362.2 203.8 1363.6 202.5 1365.5 201.6C1368.9 199.9 1372.2 198.1 1375.7 196.3C1366.3 181.5 1359.5 165.7 1354.1 149.1C1345.4 149.1 1336.7 149.1 1327.9 149.1C1327.9 168.5 1327.9 187.9 1327.9 207.5C1328.5 207.5 1329.2 207.6 1329.9 207.6C1333.7 207.6 1337.5 207.6 1341.3 207.6C1343 207.6 1344.3 208.3 1345 209.9C1345.7 211.5 1345.4 212.9 1344.2 214.2C1335.8 223.3 1327.4 232.4 1318.9 241.4C1318.3 242.1 1317.3 242.5 1316.5 243.1C1315.9 243.3 1315 243.3 1314.2 243.3ZM1371.2 75.8C1371.2 69.5 1371.2 63.3 1371.2 57.1C1334 57.1 1296.9 57.1 1259.8 57.1C1259.8 63.4 1259.8 69.6 1259.8 75.8C1297 75.8 1334.1 75.8 1371.2 75.8ZM1309.4 82.3C1309.4 83.4 1309.4 84.4 1309.4 85.4C1309.4 126.7 1309.4 168.1 1309.4 209.4C1309.4 213.4 1308.6 214.2 1304.6 214.2C1301.6 214.2 1298.5 214.2 1295 214.2C1302.1 221.8 1308.7 229 1315.5 236.3C1322.3 228.9 1329 221.8 1336 214.2C1332.1 214.2 1328.8 214.2 1325.4 214.2C1322.8 214.2 1321.7 213.1 1321.6 210.5C1321.6 209.7 1321.6 209 1321.6 208.2C1321.6 167.2 1321.6 126.2 1321.6 85.3C1321.6 84.4 1321.6 83.4 1321.6 82.4C1317.4 82.3 1313.6 82.3 1309.4 82.3ZM1273.8 82.3C1273.7 82.8 1273.7 83.1 1273.7 83.4C1272 102.4 1268 121 1261.9 139.1C1255.8 157.1 1248.1 174.4 1237.2 190.1C1235.4 192.6 1234.3 192.9 1231.5 191.5C1228.7 190.1 1225.8 188.6 1222.5 186.9C1225.3 196.9 1227.9 206.3 1230.6 215.9C1240.1 212.5 1249.3 209.1 1258.9 205.6C1255.6 203.9 1252.7 202.4 1249.8 200.9C1247 199.4 1246.6 197.9 1248.3 195.1C1250.8 191 1253.4 187 1255.7 182.8C1266.8 162.2 1274 140.2 1278.3 117.2C1280.4 105.7 1281.8 94 1283.5 82.2C1279.9 82.3 1276.9 82.3 1273.8 82.3ZM1259.7 50.4C1297 50.4 1334.1 50.4 1371.3 50.4C1371.3 49 1371.3 47.8 1371.3 46.5C1334 46.5 1296.9 46.5 1259.7 46.5C1259.7 47.9 1259.7 49.1 1259.7 50.4ZM1288 97.4C1287.1 103.6 1286.1 109.8 1285.2 116.1C1291.2 116.1 1297 116.1 1303 116.1C1303 109.8 1303 103.7 1303 97.4C1297.9 97.4 1293.1 97.4 1288 97.4ZM1343 97.5C1337.9 97.5 1333 97.5 1328.1 97.5C1328.1 103.8 1328.1 110 1328.1 116.1C1334.1 116.1 1339.9 116.1 1345.8 116.1C1344.9 109.9 1343.9 103.8 1343 97.5ZM1302.9 130.2C1302.9 127.7 1302.9 125.3 1302.9 122.7C1296.7 122.7 1290.7 122.7 1284.7 122.7C1284.3 122.7 1283.7 123.1 1283.6 123.4C1283 125.6 1282.6 127.9 1282.1 130.2C1289.1 130.2 1296 130.2 1302.9 130.2ZM1328 130.2C1335 130.2 1341.8 130.2 1348.8 130.2C1348.7 129.7 1348.7 129.3 1348.6 128.9C1348.1 126.9 1348.2 124.2 1347 123.2C1345.7 122.2 1343 122.7 1340.9 122.7C1336.6 122.7 1332.4 122.7 1328 122.7C1328 125.2 1328 127.6 1328 130.2ZM1302.9 142.9C1302.9 140.8 1302.9 138.8 1302.9 136.7C1295.6 136.7 1288.4 136.7 1281.2 136.7C1280.8 136.7 1280.3 137.1 1280.2 137.5C1279.6 139.3 1279.2 141.1 1278.7 142.9C1286.9 142.9 1294.8 142.9 1302.9 142.9ZM1328 142.9C1336.1 142.9 1344.1 142.9 1352.2 142.9C1351.7 141 1351.3 139.2 1350.7 137.5C1350.5 137.1 1349.7 136.7 1349.1 136.7C1345.9 136.6 1342.7 136.7 1339.4 136.7C1335.6 136.7 1331.9 136.7 1328 136.7C1328 138.8 1328 140.7 1328 142.9ZM1288.6 90.8C1293.6 90.8 1298.3 90.8 1302.9 90.8C1302.9 87.9 1302.9 85.2 1302.9 82.4C1298.3 82.4 1293.9 82.4 1289.3 82.4C1289 85.2 1288.8 87.9 1288.6 90.8ZM1328.1 82.3C1328.1 85.3 1328.1 88 1328.1 90.9C1332.9 90.9 1337.6 90.9 1342.4 90.9C1342.2 88 1341.9 85.2 1341.7 82.3C1337 82.3 1332.6 82.3 1328.1 82.3ZM1371.2 97.5C1369.2 97.5 1367.4 97.5 1365.2 97.5C1366.5 103.5 1367.6 109.4 1368.9 115.2C1369 115.8 1370 116.2 1370.6 116.6C1370.8 116.4 1370.9 116.3 1371.1 116.1C1371.2 109.9 1371.2 103.8 1371.2 97.5ZM1259.7 116.1C1261.2 116.6 1261.9 116.3 1262.1 114.9C1262.3 113.6 1262.7 112.3 1263 111C1263.9 106.6 1264.7 102.1 1265.6 97.5C1263.5 97.5 1261.7 97.5 1259.7 97.5C1259.7 103.7 1259.7 109.8 1259.7 116.1ZM1267.4 82.4C1264.7 82.4 1262.2 82.4 1259.8 82.4C1259.8 85.3 1259.8 88.1 1259.8 90.9C1262.1 90.9 1264.3 90.9 1266.5 90.9C1266.8 88 1267.1 85.3 1267.4 82.4ZM1364.5 91C1366.5 91 1368.3 91.1 1370 91C1370.5 91 1371.2 90.4 1371.3 90.1C1371.4 87.5 1371.4 85 1371.4 82.4C1368.7 82.4 1366.2 82.4 1363.6 82.4C1363.9 85.2 1364.2 88 1364.5 91Z" fill="#15BEE6"/>
<path d="M1304.2 33.7001C1287.6 33.7001 1271 33.7001 1254.5 33.7001C1248.7 33.7001 1247 35.4 1247 41.3C1247 64.6 1247 87.8001 1247 111.1C1247 111.8 1247 112.5 1247 113.2C1246.8 115.3 1245.7 116.5 1243.9 116.5C1242 116.5 1240.8 115.3 1240.7 113.1C1240.7 112.7 1240.7 112.3 1240.7 111.8C1240.7 88 1240.7 64.3 1240.7 40.5C1240.7 32.1 1245.5 27.3 1253.9 27.3C1287.4 27.3 1320.9 27.3 1354.5 27.3C1357.8 27.3 1359.3 28.3 1359.3 30.4C1359.4 32.6 1357.8 33.6 1354.4 33.6C1337.6 33.7 1320.9 33.7001 1304.2 33.7001Z" fill="#15BEE6"/>
</g>
<mask id="mask9_4_1475" style="mask-type:luminance" maskUnits="userSpaceOnUse" x="0" y="0" width="1521" height="255">
<path d="M1521 0H0V255H1521V0Z" fill="white"/>
</mask>
<g mask="url(#mask9_4_1475)">
<path d="M61.5 197.7C61.5 196.4 61.7 195.2 62 194.1C62.3 193 62.8 192 63.4 191.1H64.5C64.3 191.4 64 191.9 63.8 192.3C63.6 192.8 63.4 193.3 63.2 193.9C63 194.5 62.9 195.1 62.8 195.7C62.7 196.3 62.7 196.9 62.7 197.6C62.7 198.4 62.8 199.2 62.9 200.1C63.1 200.9 63.3 201.7 63.5 202.4C63.8 203.1 64.1 203.7 64.4 204.2H63.3C62.7 203.3 62.2 202.3 61.9 201.2C61.6 200.1 61.5 199 61.5 197.7Z" fill="#D3D3D3"/>
<path d="M73.4 191.7H74.7V198.6C74.7 199.3 74.5 200 74.2 200.5C73.9 201.1 73.4 201.5 72.8 201.8C72.2 202.1 71.5 202.3 70.7 202.3C69.9 202.3 69.2 202.1 68.6 201.8C68 201.5 67.5 201 67.2 200.5C66.9 199.9 66.7 199.3 66.7 198.6V191.7H68V198.5C68 199 68.1 199.5 68.3 199.9C68.5 200.3 68.8 200.6 69.3 200.8C69.7 201 70.2 201.1 70.8 201.1C71.4 201.1 71.9 201 72.3 200.8C72.7 200.6 73 200.3 73.3 199.9C73.6 199.5 73.6 199 73.6 198.5V191.7H73.4Z" fill="#D3D3D3"/>
<path d="M85.5 191.7V202.2H84.3L78.6 194H78.5V202.2H77.2V191.7H78.4L84.1 199.9H84.2V191.7H85.5Z" fill="#D3D3D3"/>
<path d="M96.5 195H95.2C95.1 194.6 95 194.3 94.8 194C94.6 193.7 94.4 193.5 94.1 193.3C93.8 193.1 93.5 193 93.2 192.9C92.9 192.8 92.5 192.8 92.2 192.8C91.6 192.8 91 193 90.5 193.3C90 193.6 89.6 194.1 89.3 194.7C89 195.3 88.8 196.1 88.8 197C88.8 197.9 89 198.7 89.3 199.3C89.6 199.9 90 200.4 90.5 200.7C91 201 91.6 201.2 92.2 201.2C92.5 201.2 92.9 201.2 93.2 201.1C93.5 201 93.8 200.9 94.1 200.7C94.4 200.5 94.6 200.3 94.8 200C95 199.7 95.1 199.4 95.2 199H96.5C96.4 199.5 96.2 200 96 200.4C95.7 200.8 95.4 201.2 95.1 201.5C94.7 201.8 94.3 202 93.8 202.2C93.3 202.4 92.8 202.4 92.3 202.4C91.4 202.4 90.6 202.2 89.9 201.7C89.2 201.3 88.7 200.6 88.3 199.8C87.9 199 87.7 198 87.7 196.9C87.7 195.8 87.9 194.8 88.3 194C88.7 193.2 89.2 192.6 89.9 192.1C90.6 191.7 91.4 191.4 92.3 191.4C92.8 191.4 93.3 191.5 93.8 191.6C94.3 191.7 94.7 192 95.1 192.3C95.5 192.6 95.8 193 96 193.4C96.2 193.9 96.4 194.4 96.5 195Z" fill="#D3D3D3"/>
<path d="M97.8999 192.8V191.7H105.8V192.8H102.5V202.2H101.2V192.8H97.8999Z" fill="#D3D3D3"/>
<path d="M108.2 202.2H106.9L110.7 191.7H112L115.8 202.2H114.5L111.4 193.4H111.3L108.2 202.2ZM108.7 198.1H114.1V199.2H108.7V198.1Z" fill="#D3D3D3"/>
<path d="M120.7 202.2H117.5V191.7H120.9C121.9 191.7 122.8 191.9 123.5 192.3C124.2 192.7 124.8 193.3 125.2 194.1C125.6 194.9 125.8 195.8 125.8 196.9C125.8 198 125.6 198.9 125.2 199.7C124.8 200.5 124.2 201.1 123.5 201.5C122.8 201.9 121.8 202.2 120.7 202.2ZM118.8 201H120.7C121.6 201 122.3 200.8 122.9 200.5C123.5 200.2 123.9 199.7 124.2 199.1C124.5 198.5 124.6 197.7 124.6 196.9C124.6 196.1 124.5 195.3 124.2 194.7C123.9 194.1 123.5 193.6 123 193.3C122.5 193 121.8 192.8 120.9 192.8H118.9V201H118.8Z" fill="#D3D3D3"/>
<path d="M131.7 202.2V201.3L135.2 197.5C135.6 197.1 135.9 196.7 136.2 196.3C136.5 196 136.7 195.7 136.8 195.4C136.9 195.1 137 194.8 137 194.5C137 194.1 136.9 193.8 136.7 193.5C136.5 193.2 136.3 193 136 192.9C135.7 192.8 135.4 192.7 135 192.7C134.6 192.7 134.2 192.8 133.9 192.9C133.6 193.1 133.4 193.3 133.2 193.6C133 193.9 133 194.2 133 194.6H131.8C131.8 194 131.9 193.4 132.2 193C132.5 192.6 132.9 192.2 133.4 191.9C133.9 191.6 134.4 191.5 135.1 191.5C135.7 191.5 136.3 191.6 136.7 191.9C137.2 192.2 137.5 192.5 137.8 192.9C138.1 193.3 138.2 193.8 138.2 194.4C138.2 194.8 138.1 195.2 138 195.5C137.9 195.9 137.6 196.3 137.3 196.7C137 197.1 136.5 197.7 135.9 198.3L133.5 200.8V200.9H138.4V202H131.7V202.2Z" fill="#D3D3D3"/>
<path d="M143.9 202.3C143.1 202.3 142.5 202.1 141.9 201.7C141.4 201.3 140.9 200.7 140.7 199.9C140.4 199.1 140.3 198.1 140.3 197C140.3 195.9 140.4 194.9 140.7 194.1C141 193.3 141.4 192.7 141.9 192.3C142.4 191.9 143.1 191.7 143.9 191.7C144.7 191.7 145.3 191.9 145.9 192.3C146.4 192.7 146.9 193.3 147.1 194.1C147.4 194.9 147.5 195.9 147.5 197C147.5 198.1 147.4 199.1 147.1 199.9C146.8 200.7 146.4 201.3 145.9 201.7C145.3 202.1 144.6 202.3 143.9 202.3ZM143.9 201.2C144.7 201.2 145.3 200.8 145.7 200.1C146.1 199.4 146.3 198.3 146.3 196.9C146.3 196 146.2 195.2 146 194.6C145.8 194 145.5 193.5 145.2 193.1C144.8 192.8 144.4 192.6 143.9 192.6C143.1 192.6 142.6 193 142.1 193.7C141.7 194.4 141.5 195.5 141.5 196.9C141.5 197.8 141.6 198.6 141.8 199.2C142 199.8 142.3 200.3 142.6 200.6C142.9 200.9 143.4 201.2 143.9 201.2Z" fill="#D3D3D3"/>
<path d="M149.5 202.2V201.3L153 197.5C153.4 197.1 153.7 196.7 154 196.3C154.3 196 154.5 195.7 154.6 195.4C154.7 195.1 154.8 194.8 154.8 194.5C154.8 194.1 154.7 193.8 154.5 193.5C154.3 193.2 154.1 193 153.8 192.9C153.5 192.8 153.2 192.7 152.8 192.7C152.4 192.7 152 192.8 151.7 192.9C151.4 193.1 151.2 193.3 151 193.6C150.8 193.9 150.8 194.2 150.8 194.6H149.6C149.6 194 149.7 193.4 150 193C150.3 192.6 150.7 192.2 151.2 191.9C151.7 191.6 152.2 191.5 152.9 191.5C153.5 191.5 154.1 191.6 154.5 191.9C155 192.2 155.3 192.5 155.6 192.9C155.9 193.3 156 193.8 156 194.4C156 194.8 155.9 195.2 155.8 195.5C155.7 195.9 155.4 196.3 155.1 196.7C154.8 197.1 154.3 197.7 153.7 198.3L151.3 200.8V200.9H156.2V202H149.5V202.2Z" fill="#D3D3D3"/>
<path d="M157.9 200V199L162.5 191.7H163.3V193.3H162.8L159.3 198.8V198.9H165.5V200H157.9ZM162.9 202.2V199.7V199.2V191.7H164.1V202.2H162.9Z" fill="#D3D3D3"/>
<path d="M170 197.7C170 199 169.8 200.2 169.5 201.3C169.2 202.4 168.7 203.4 168.1 204.3H167C167.2 204 167.5 203.5 167.7 203.1C167.9 202.6 168.1 202.1 168.3 201.5C168.5 200.9 168.6 200.3 168.7 199.7C168.8 199.1 168.8 198.5 168.8 197.8C168.8 197 168.7 196.2 168.6 195.3C168.5 194.4 168.2 193.7 168 193C167.7 192.3 167.4 191.7 167.1 191.2H168.2C168.8 192.1 169.3 193.1 169.6 194.2C169.9 195.3 170 196.5 170 197.7Z" fill="#D3D3D3"/>
</g>
<mask id="mask10_4_1475" style="mask-type:luminance" maskUnits="userSpaceOnUse" x="0" y="0" width="1521" height="255">
<path d="M1521 0H0V255H1521V0Z" fill="white"/>
</mask>
<g mask="url(#mask10_4_1475)">
<path d="M64.9 60.8999H58V39.3999H65.2C67.3 39.3999 69.1 39.7999 70.6 40.6999C72.1 41.5999 73.3 42.7999 74.1 44.3999C74.9 45.9999 75.3 47.8999 75.3 50.0999C75.3 52.2999 74.9 54.2999 74.1 55.8999C73.3 57.4999 72.1 58.6999 70.6 59.5999C68.9 60.4999 67.1 60.8999 64.9 60.8999ZM61.2 58.0999H64.7C66.3 58.0999 67.7 57.7999 68.8 57.1999C69.9 56.5999 70.7 55.6999 71.2 54.4999C71.7 53.2999 72 51.8999 72 50.1999C72 48.4999 71.7 47.0999 71.2 45.8999C70.7 44.6999 69.9 43.7999 68.8 43.1999C67.7 42.5999 66.4 42.2999 64.9 42.2999H61.2V58.0999Z" fill="#242438"/>
<path d="M80.6001 42.3C80.1001 42.3 79.6001 42.1 79.2001 41.7C78.8001 41.3 78.6001 40.9 78.6001 40.4C78.6001 39.9 78.8001 39.4 79.2001 39.1C79.6001 38.7 80.1001 38.5 80.6001 38.5C81.1001 38.5 81.6001 38.7 82.0001 39.1C82.4001 39.5 82.6001 39.9 82.6001 40.4C82.6001 40.9 82.4001 41.4 82.0001 41.7C81.6001 42.1 81.1001 42.3 80.6001 42.3ZM79.0001 60.9V44.8H82.1001V60.9H79.0001Z" fill="#242438"/>
<path d="M92.3 61.1999C91 61.1999 89.8 60.8999 88.8 60.1999C87.8 59.4999 87 58.5999 86.4 57.2999C85.8 56.0999 85.5 54.5999 85.5 52.7999C85.5 51.0999 85.8 49.5999 86.4 48.2999C87 47.0999 87.8 46.0999 88.8 45.4999C89.8 44.7999 91 44.4999 92.3 44.4999C93.3 44.4999 94.1 44.6999 94.7 44.9999C95.3 45.2999 95.8 45.6999 96.1 46.1999C96.4 46.5999 96.7 46.9999 96.9 47.3999H97.1V39.3999H100.2V60.8999H97.1V58.3999H97C96.8 58.6999 96.5 59.0999 96.2 59.5999C95.8 59.9999 95.4 60.3999 94.7 60.7999C94.1 60.9999 93.3 61.1999 92.3 61.1999ZM93 58.4999C93.9 58.4999 94.7 58.2999 95.3 57.7999C95.9 57.2999 96.4 56.6999 96.7 55.7999C97 54.8999 97.2 53.9999 97.2 52.7999C97.2 51.6999 97 50.6999 96.7 49.8999C96.4 49.0999 95.9 48.3999 95.3 47.8999C94.7 47.3999 93.9 47.1999 93 47.1999C92.1 47.1999 91.3 47.3999 90.6 47.8999C89.9 48.3999 89.5 49.0999 89.2 49.8999C88.9 50.6999 88.7 51.6999 88.7 52.7999C88.7 53.8999 88.9 54.7999 89.2 55.6999C89.5 56.5999 90 57.1999 90.6 57.6999C91.2 58.1999 92.1 58.4999 93 58.4999Z" fill="#242438"/>
<path d="M114.6 66.9001C114.1 66.9001 113.7 66.9001 113.3 66.8001C112.9 66.7001 112.6 66.6 112.4 66.6L113.2 64C113.8 64.2001 114.3 64.2 114.7 64.2C115.1 64.2 115.5 64 115.9 63.7001C116.3 63.4001 116.6 62.9001 116.8 62.2001L117.2 61.1L111.3 44.8H114.7L118.8 57.3H119L123.1 44.8H126.5L119.7 63C119.4 63.8 119 64.5 118.5 65.1C118 65.7 117.5 66.1001 116.8 66.4001C116.2 66.8001 115.5 66.9001 114.6 66.9001Z" fill="#242438"/>
<path d="M136.1 61.2001C134.6 61.2001 133.3 60.9001 132.1 60.2001C131 59.5001 130.1 58.5001 129.5 57.3001C128.9 56.1001 128.6 54.6001 128.6 52.9001C128.6 51.2001 128.9 49.8001 129.5 48.5001C130.1 47.2001 131 46.3001 132.1 45.6001C133.2 44.9001 134.5 44.6001 136.1 44.6001C137.7 44.6001 138.9 44.9001 140.1 45.6001C141.2 46.3001 142.1 47.3001 142.7 48.5001C143.3 49.7001 143.6 51.2001 143.6 52.9001C143.6 54.6001 143.3 56.0001 142.7 57.3001C142.1 58.5001 141.2 59.5001 140.1 60.2001C138.9 60.9001 137.6 61.2001 136.1 61.2001ZM136.1 58.6001C137.1 58.6001 137.9 58.3001 138.5 57.8001C139.1 57.3001 139.6 56.6001 139.9 55.7001C140.2 54.8001 140.4 53.9001 140.4 52.9001C140.4 51.9001 140.2 50.9001 139.9 50.1001C139.6 49.2001 139.1 48.5001 138.5 48.0001C137.9 47.5001 137 47.2001 136.1 47.2001C135.1 47.2001 134.3 47.5001 133.7 48.0001C133.1 48.5001 132.6 49.2001 132.3 50.1001C132 51.0001 131.8 51.9001 131.8 52.9001C131.8 53.9001 132 54.9001 132.3 55.7001C132.6 56.6001 133.1 57.2001 133.7 57.8001C134.3 58.3001 135.1 58.6001 136.1 58.6001Z" fill="#242438"/>
<path d="M157.3 54.2001V44.8H160.4V60.9001H157.3V58.1H157.1C156.7 59 156.1 59.7001 155.3 60.2001C154.5 60.8001 153.5 61.1 152.3 61.1C151.3 61.1 150.4 60.9001 149.6 60.4001C148.8 59.9001 148.2 59.3001 147.7 58.4001C147.2 57.5001 147 56.4 147 55.1V44.8H150.1V54.7001C150.1 55.8001 150.4 56.7 151 57.3C151.6 58 152.4 58.3 153.4 58.3C154 58.3 154.6 58.2001 155.2 57.9001C155.8 57.6001 156.3 57.2 156.7 56.6C157.1 56 157.3 55.1 157.3 54.2001Z" fill="#242438"/>
<path d="M172.5 60.8999V39.3999H175.6V60.8999H172.5ZM175.4 55.3999V51.5999H175.9L182.3 44.7999H186.1L178.8 52.5999H178.3L175.4 55.3999ZM182.6 60.8999L176.8 53.1999L179 50.9999L186.5 60.7999H182.6V60.8999Z" fill="#15BEE6"/>
<path d="M192 51.3V60.9H188.9V44.8H191.9V47.4H192.1C192.5 46.5 193.1 45.9 193.8 45.3C194.6 44.8 195.6 44.5 196.8 44.5C197.9 44.5 198.9 44.7 199.7 45.2C200.5 45.7 201.2 46.3 201.6 47.2C202.1 48.1 202.3 49.2 202.3 50.5V60.7H199.2V51C199.2 49.8 198.9 48.9 198.3 48.3C197.7 47.6 196.9 47.3 195.8 47.3C195.1 47.3 194.4 47.5 193.9 47.8C193.4 48.1 192.9 48.6 192.6 49.2C192.2 49.7 192 50.5 192 51.3Z" fill="#15BEE6"/>
<path d="M213.3 61.2001C211.8 61.2001 210.5 60.9001 209.3 60.2001C208.2 59.5001 207.3 58.5001 206.7 57.3001C206.1 56.1001 205.8 54.6001 205.8 52.9001C205.8 51.2001 206.1 49.8001 206.7 48.5001C207.3 47.2001 208.2 46.3001 209.3 45.6001C210.4 44.9001 211.7 44.6001 213.3 44.6001C214.9 44.6001 216.1 44.9001 217.3 45.6001C218.4 46.3001 219.3 47.3001 219.9 48.5001C220.5 49.7001 220.8 51.2001 220.8 52.9001C220.8 54.6001 220.5 56.0001 219.9 57.3001C219.3 58.5001 218.4 59.5001 217.3 60.2001C216.1 60.9001 214.8 61.2001 213.3 61.2001ZM213.3 58.6001C214.3 58.6001 215.1 58.3001 215.7 57.8001C216.3 57.3001 216.8 56.6001 217.1 55.7001C217.4 54.8001 217.6 53.9001 217.6 52.9001C217.6 51.9001 217.4 50.9001 217.1 50.1001C216.8 49.2001 216.3 48.5001 215.7 48.0001C215.1 47.5001 214.2 47.2001 213.3 47.2001C212.3 47.2001 211.5 47.5001 210.9 48.0001C210.3 48.5001 209.8 49.2001 209.5 50.1001C209.2 51.0001 209 51.9001 209 52.9001C209 53.9001 209.2 54.9001 209.5 55.7001C209.8 56.6001 210.3 57.2001 210.9 57.8001C211.5 58.3001 212.3 58.6001 213.3 58.6001Z" fill="#15BEE6"/>
<path d="M227.8 60.9001L223.1 44.8H226.3L229.5 56.6H229.7L232.9 44.8H236.1L239.2 56.6H239.4L242.5 44.8H245.7L241 60.9001H237.8L234.5 49.3H234.3L231 60.9001H227.8Z" fill="#15BEE6"/>
<path d="M252.1 54.4999C252.1 53.1999 252.2 52.1999 252.5 51.3999C252.8 50.5999 253.1 49.9999 253.6 49.4999C254.1 48.9999 254.6 48.5999 255.3 48.1999C255.7 47.8999 256.1 47.5999 256.4 47.2999C256.7 46.9999 257 46.5999 257.2 46.1999C257.4 45.7999 257.5 45.2999 257.5 44.7999C257.5 44.1999 257.4 43.5999 257.1 43.1999C256.8 42.6999 256.4 42.3999 255.9 42.0999C255.4 41.7999 254.9 41.6999 254.3 41.6999C253.8 41.6999 253.2 41.7999 252.8 41.9999C252.4 42.1999 251.9 42.5999 251.6 42.9999C251.3 43.3999 251.1 44.0999 251 44.7999H247.8C247.8 43.4999 248.2 42.4999 248.8 41.5999C249.4 40.6999 250.2 40.0999 251.1 39.5999C252 39.0999 253.1 38.8999 254.3 38.8999C255.6 38.8999 256.7 39.0999 257.7 39.5999C258.7 40.0999 259.4 40.6999 259.9 41.5999C260.4 42.4999 260.7 43.4999 260.7 44.5999C260.7 45.3999 260.6 46.0999 260.3 46.6999C260.1 47.2999 259.7 47.8999 259.3 48.3999C258.8 48.8999 258.3 49.2999 257.7 49.6999C257.1 50.0999 256.6 50.4999 256.3 50.8999C255.9 51.2999 255.7 51.7999 255.5 52.2999C255.3 52.7999 255.2 53.4999 255.2 54.2999V54.4999H252.1ZM253.7 61.0999C253.1 61.0999 252.6 60.8999 252.2 60.4999C251.8 60.0999 251.6 59.5999 251.6 58.9999C251.6 58.3999 251.8 57.8999 252.2 57.4999C252.6 57.0999 253.1 56.8999 253.7 56.8999C254.3 56.8999 254.8 57.0999 255.2 57.4999C255.6 57.8999 255.8 58.3999 255.8 58.9999C255.8 59.3999 255.7 59.6999 255.5 60.0999C255.3 60.3999 255.1 60.6999 254.7 60.8999C254.4 60.9999 254 61.0999 253.7 61.0999Z" fill="#15BEE6"/>
<path d="M258 65.6001H171.9V68.2001H258V65.6001Z" fill="#D9F4F9"/>
</g>
</g>
<defs>
<clipPath id="clip0_4_1475">
<rect width="1521" height="255" fill="white"/>
</clipPath>
</defs>
</svg>
