<svg width="1521" height="255" viewBox="0 0 1521 255" fill="none" xmlns="http://www.w3.org/2000/svg">
<g clip-path="url(#clip0_4_1930)">
<path d="M1521 0H0V255H1521V0Z" fill="white"/>
<mask id="mask0_4_1930" style="mask-type:luminance" maskUnits="userSpaceOnUse" x="0" y="0" width="1521" height="255">
<path d="M1521 0H0V255H1521V0Z" fill="white"/>
</mask>
<g mask="url(#mask0_4_1930)">
<path d="M589.8 65C625.7 65 654.8 35.9 654.8 0H524.8C524.8 35.9 553.9 65 589.8 65Z" fill="#F2FCFF"/>
</g>
<mask id="mask1_4_1930" style="mask-type:luminance" maskUnits="userSpaceOnUse" x="0" y="0" width="1521" height="255">
<path d="M1521 0H0V255H1521V0Z" fill="white"/>
</mask>
<g mask="url(#mask1_4_1930)">
<path d="M1163.8 214.2C1141.3 214.2 1123 232.5 1123 255H1204.6C1204.6 232.5 1186.3 214.2 1163.8 214.2Z" fill="#F2FCFF"/>
</g>
<mask id="mask2_4_1930" style="mask-type:luminance" maskUnits="userSpaceOnUse" x="0" y="0" width="1521" height="255">
<path d="M1521 0H0V255H1521V0Z" fill="white"/>
</mask>
<g mask="url(#mask2_4_1930)">
<path d="M56.9999 64.7C65.0633 64.7 71.5999 58.1634 71.5999 50.1C71.5999 42.0366 65.0633 35.5 56.9999 35.5C48.9365 35.5 42.3999 42.0366 42.3999 50.1C42.3999 58.1634 48.9365 64.7 56.9999 64.7Z" fill="#F9FEFA"/>
</g>
<mask id="mask3_4_1930" style="mask-type:luminance" maskUnits="userSpaceOnUse" x="0" y="0" width="1521" height="255">
<path d="M1521 0H0V255H1521V0Z" fill="white"/>
</mask>
<g mask="url(#mask3_4_1930)">
<path d="M1176.7 125.6L1167.7 119L1174.3 110L1169.8 106.7L1163.2 115.7L1154.4 109.3L1151.1 113.8L1159.9 120.2L1153.4 129L1157.9 132.3L1164.4 123.5L1173.4 130.1L1176.7 125.6Z" fill="#D4F6FF"/>
</g>
<mask id="mask4_4_1930" style="mask-type:luminance" maskUnits="userSpaceOnUse" x="0" y="0" width="1521" height="255">
<path d="M1521 0H0V255H1521V0Z" fill="white"/>
</mask>
<g mask="url(#mask4_4_1930)">
<path d="M1456 192C1461.52 192 1466 187.523 1466 182C1466 176.477 1461.52 172 1456 172C1450.48 172 1446 176.477 1446 182C1446 187.523 1450.48 192 1456 192Z" fill="#F2FCFF"/>
</g>
<mask id="mask5_4_1930" style="mask-type:luminance" maskUnits="userSpaceOnUse" x="0" y="0" width="1521" height="255">
<path d="M1521 0H0V255H1521V0Z" fill="white"/>
</mask>
<g mask="url(#mask5_4_1930)">
<path d="M655 274C667.703 274 678 263.703 678 251C678 238.297 667.703 228 655 228C642.297 228 632 238.297 632 251C632 263.703 642.297 274 655 274Z" fill="#F2FCFF"/>
</g>
<mask id="mask6_4_1930" style="mask-type:luminance" maskUnits="userSpaceOnUse" x="0" y="0" width="1521" height="255">
<path d="M1521 0H0V255H1521V0Z" fill="white"/>
</mask>
<g mask="url(#mask6_4_1930)">
<path d="M69.7 124.2C67.3 124.2 65.1 123.8 63.3 123C61.4 122.2 60.0001 121.1 58.9001 119.7C57.8001 118.3 57.3 116.7 57.3 114.9C57.3 113.5 57.6001 112.2 58.2001 111.1C58.8001 109.9 59.7001 109 60.7001 108.2C61.7001 107.4 62.9 106.9 64.2 106.7V106.5C62.5 106.1 61.1 105.2 60.1 103.9C59 102.5 58.5 101 58.5 99.2C58.5 97.5 59.0001 96 59.9001 94.6C60.8001 93.2 62.2001 92.2 63.9001 91.4C65.6001 90.6 67.5 90.2 69.6 90.2C71.7 90.2 73.6001 90.6 75.3001 91.4C77.0001 92.2 78.3001 93.2 79.3001 94.6C80.3001 96 80.8001 97.5 80.8001 99.2C80.8001 101 80.3 102.6 79.2 103.9C78.1 105.2 76.8 106.1 75.1 106.5V106.7C76.4 106.9 77.6 107.4 78.6 108.2C79.6 109 80.5 110 81.1 111.1C81.7 112.3 82 113.5 82 114.9C82 116.7 81.5001 118.3 80.4001 119.7C79.3001 121.1 77.9 122.2 76 123C74.2001 123.8 72.1 124.2 69.7 124.2ZM69.7 119.6C70.9 119.6 72.0001 119.4 72.9001 119C73.8001 118.6 74.5 118 75 117.2C75.5 116.4 75.8001 115.5 75.8001 114.5C75.8001 113.4 75.5 112.5 75 111.7C74.5 110.9 73.7001 110.2 72.8001 109.8C71.9001 109.3 70.8 109.1 69.6 109.1C68.4 109.1 67.4001 109.3 66.4001 109.8C65.5001 110.3 64.7 110.9 64.2 111.7C63.7 112.5 63.4001 113.5 63.4001 114.5C63.4001 115.5 63.6 116.4 64.1 117.2C64.6 118 65.3 118.6 66.2 119C67.3 119.4 68.4 119.6 69.7 119.6ZM69.7 104.5C70.7 104.5 71.6001 104.3 72.4001 103.9C73.2001 103.5 73.8001 102.9 74.3001 102.2C74.8001 101.5 75 100.6 75 99.7C75 98.7 74.8001 97.9 74.3001 97.2C73.9001 96.5 73.2 95.9 72.5 95.5C71.7 95.1 70.8001 94.9 69.8001 94.9C68.8001 94.9 67.8 95.1 67 95.5C66.2 95.9 65.6 96.5 65.2 97.2C64.8 97.9 64.5 98.8 64.6 99.7C64.6 100.7 64.8001 101.5 65.3001 102.2C65.7001 102.9 66.4 103.5 67.2 103.9C68 104.3 68.6 104.5 69.7 104.5Z" fill="#242438"/>
<path d="M88.1 123.8L102.2 95.8001V95.6001H85.8V90.6001H108.4V95.7001L94.3 123.8H88.1Z" fill="#242438"/>
<path d="M124.8 90.1001C126.4 90.1001 127.9 90.4001 129.4 90.9001C130.9 91.4001 132.3 92.3001 133.5 93.6001C134.7 94.8001 135.7 96.5001 136.4 98.5001C137.1 100.6 137.5 103.1 137.5 106.1C137.5 109 137.2 111.5 136.6 113.7C136 115.9 135.1 117.8 134 119.4C132.9 120.9 131.5 122.1 129.9 122.9C128.3 123.7 126.5 124.1 124.5 124.1C122.4 124.1 120.5 123.7 118.9 122.9C117.3 122.1 116 121 115 119.5C114 118.1 113.4 116.4 113.2 114.6H119.1C119.4 115.9 120 117 121 117.7C121.9 118.5 123.1 118.9 124.5 118.9C126.8 118.9 128.6 117.9 129.8 115.9C131 113.9 131.7 111.1 131.7 107.6H131.5C131 108.6 130.3 109.4 129.4 110.1C128.6 110.8 127.6 111.3 126.5 111.7C125.4 112.1 124.3 112.3 123.1 112.3C121.2 112.3 119.4 111.8 117.9 110.9C116.3 110 115.1 108.7 114.2 107.1C113.3 105.5 112.8 103.6 112.8 101.5C112.8 99.3001 113.3 97.4001 114.3 95.7001C115.3 94.0001 116.7 92.6001 118.5 91.6001C120.3 90.6001 122.4 90.1001 124.8 90.1001ZM124.8 95.0001C123.6 95.0001 122.6 95.3001 121.6 95.9001C120.7 96.5001 119.9 97.2001 119.4 98.2001C118.9 99.2001 118.6 100.2 118.6 101.4C118.6 102.6 118.9 103.6 119.4 104.6C119.9 105.6 120.6 106.3 121.6 106.9C122.5 107.5 123.6 107.7 124.7 107.7C125.6 107.7 126.4 107.5 127.1 107.2C127.9 106.9 128.5 106.4 129.1 105.8C129.7 105.2 130.1 104.5 130.4 103.7C130.7 102.9 130.9 102.1 130.9 101.3C130.9 100.2 130.6 99.1001 130.1 98.2001C129.6 97.2001 128.8 96.5001 127.9 95.9001C127 95.3001 126 95.0001 124.8 95.0001Z" fill="#242438"/>
<path d="M153.6 123.8V90.6001H175.2V95.6001H159.6V104.6H174.1V109.6H159.6V118.7H175.3V123.7H153.6V123.8Z" fill="#77809C"/>
<path d="M186.5 109.2V123.8H180.6V98.9001H186.2V103.1H186.5C187.1 101.7 188 100.6 189.2 99.8001C190.5 99.0001 192 98.6001 193.9 98.6001C195.6 98.6001 197.1 99.0001 198.4 99.7001C199.7 100.4 200.7 101.5 201.4 102.9C202.1 104.3 202.5 106 202.4 108V123.9H196.5V108.9C196.5 107.2 196.1 105.9 195.2 105C194.3 104.1 193.2 103.6 191.6 103.6C190.6 103.6 189.7 103.8 188.9 104.3C188.1 104.7 187.5 105.4 187 106.2C186.5 107 186.5 108 186.5 109.2Z" fill="#77809C"/>
<path d="M219.1 124.3C216.6 124.3 214.4 123.8 212.6 122.7C210.8 121.7 209.4 120.2 208.4 118.3C207.4 116.4 206.9 114.1 206.9 111.5C206.9 108.9 207.4 106.7 208.4 104.7C209.4 102.8 210.7 101.2 212.5 100.2C214.3 99.2001 216.3 98.6001 218.7 98.6001C220.2 98.6001 221.7 98.8001 223.1 99.3001C224.5 99.8001 225.7 100.6 226.7 101.6C227.8 102.6 228.6 103.9 229.2 105.5C229.8 107.1 230.1 109 230.1 111.2V113H209.7V109H224.5C224.5 107.9 224.2 106.9 223.8 106C223.3 105.1 222.7 104.4 221.8 103.9C221 103.4 220 103.1 218.8 103.1C217.6 103.1 216.5 103.4 215.6 104C214.7 104.6 214 105.3 213.5 106.3C213 107.3 212.7 108.3 212.7 109.4V112.9C212.7 114.3 213 115.6 213.5 116.6C214 117.6 214.8 118.4 215.7 119C216.7 119.5 217.8 119.8 219 119.8C219.9 119.8 220.6 119.7 221.3 119.4C222 119.2 222.6 118.8 223.1 118.3C223.6 117.8 224 117.2 224.3 116.5L229.8 117.1C229.5 118.5 228.8 119.8 227.8 120.9C226.8 122 225.6 122.8 224.1 123.4C222.7 124 221 124.3 219.1 124.3Z" fill="#77809C"/>
<path d="M234.7 123.8V98.9001H240.4V103.1H240.7C241.2 101.7 241.9 100.6 243 99.8001C244.1 99.0001 245.4 98.6001 246.8 98.6001C247.1 98.6001 247.5 98.6001 247.9 98.6001C248.3 98.6001 248.6 98.7001 248.9 98.7001V104.1C248.7 104 248.3 103.9 247.7 103.9C247.1 103.9 246.6 103.8 246.2 103.8C245.1 103.8 244.2 104 243.3 104.5C242.4 105 241.8 105.6 241.3 106.4C240.8 107.2 240.6 108.1 240.6 109.2V123.8H234.7Z" fill="#77809C"/>
<path d="M263.2 133.6C261.1 133.6 259.3 133.3 257.8 132.7C256.3 132.1 255.1 131.4 254.2 130.4C253.3 129.4 252.6 128.4 252.3 127.2L257.6 125.9C257.8 126.4 258.2 126.9 258.6 127.4C259.1 127.9 259.7 128.3 260.4 128.6C261.2 128.9 262.1 129.1 263.3 129.1C265 129.1 266.3 128.7 267.4 127.9C268.5 127.1 269 125.8 269 123.9V119.2H268.7C268.4 119.8 268 120.4 267.4 121.1C266.8 121.7 266.1 122.3 265.1 122.7C264.2 123.1 263 123.3 261.5 123.3C259.6 123.3 257.9 122.8 256.3 121.9C254.7 121 253.5 119.6 252.6 117.8C251.7 116 251.2 113.7 251.2 111C251.2 108.3 251.7 106 252.6 104.1C253.5 102.2 254.7 100.8 256.3 99.8C257.9 98.8 259.6 98.3 261.5 98.3C263 98.3 264.2 98.5 265.1 99C266 99.5 266.8 100.1 267.4 100.8C268 101.5 268.4 102.1 268.7 102.7H269V98.6H274.8V123.9C274.8 126 274.3 127.8 273.3 129.2C272.3 130.6 270.9 131.6 269.1 132.3C267.3 133 265.4 133.6 263.2 133.6ZM263.2 118.8C264.4 118.8 265.5 118.5 266.4 117.9C267.3 117.3 267.9 116.4 268.4 115.3C268.9 114.2 269.1 112.8 269.1 111.2C269.1 109.6 268.9 108.3 268.4 107.1C268 105.9 267.3 105 266.4 104.4C265.5 103.8 264.5 103.4 263.2 103.4C261.9 103.4 260.8 103.7 259.9 104.4C259 105.1 258.4 106 257.9 107.2C257.5 108.4 257.2 109.7 257.2 111.2C257.2 112.7 257.4 114.1 257.9 115.2C258.3 116.3 259 117.2 259.9 117.9C260.8 118.5 261.9 118.8 263.2 118.8Z" fill="#77809C"/>
<path d="M284.1 133.1C283.3 133.1 282.6 133 281.9 132.9C281.2 132.8 280.7 132.6 280.3 132.5L281.7 127.9C282.6 128.1 283.3 128.3 284 128.3C284.7 128.3 285.3 128.1 285.8 127.7C286.3 127.3 286.7 126.6 287.1 125.7L287.6 124.4L278.6 99H284.8L290.5 117.8H290.8L296.6 99H302.8L292.8 126.9C292.3 128.2 291.7 129.4 291 130.3C290.2 131.2 289.3 132 288.2 132.5C286.9 132.9 285.6 133.1 284.1 133.1Z" fill="#77809C"/>
<path d="M324.3 124.3C322.7 124.3 321.3 124 320 123.4C318.7 122.8 317.7 122 317 120.9C316.3 119.8 315.9 118.4 315.9 116.8C315.9 115.4 316.2 114.2 316.7 113.3C317.2 112.4 317.9 111.6 318.8 111.1C319.7 110.5 320.7 110.1 321.8 109.8C322.9 109.5 324.1 109.3 325.3 109.2C326.8 109 327.9 108.9 328.9 108.8C329.9 108.7 330.5 108.5 330.9 108.2C331.3 107.9 331.5 107.5 331.5 107V106.9C331.5 105.7 331.1 104.7 330.4 104.1C329.7 103.4 328.6 103.1 327.3 103.1C325.9 103.1 324.7 103.4 323.9 104C323.1 104.6 322.5 105.4 322.2 106.2L316.7 105.4C317.1 103.9 317.8 102.6 318.8 101.6C319.8 100.6 321 99.8 322.4 99.3C323.8 98.8 325.4 98.5 327.2 98.5C328.4 98.5 329.6 98.6 330.8 98.9C332 99.2 333.1 99.6 334.1 100.3C335.1 101 335.9 101.8 336.5 102.9C337.1 104 337.4 105.4 337.4 107V123.7H331.8V120.3H331.6C331.2 121 330.7 121.6 330.1 122.2C329.5 122.8 328.7 123.3 327.7 123.6C326.8 124.1 325.6 124.3 324.3 124.3ZM325.9 120C327.1 120 328.1 119.8 329 119.3C329.9 118.8 330.5 118.2 331 117.4C331.5 116.6 331.7 115.8 331.7 114.9V112C331.5 112.2 331.2 112.3 330.8 112.4C330.4 112.5 329.9 112.6 329.3 112.7C328.8 112.8 328.2 112.9 327.7 113C327.2 113.1 326.7 113.1 326.3 113.2C325.4 113.3 324.6 113.5 323.9 113.8C323.2 114.1 322.7 114.4 322.3 114.9C321.9 115.4 321.7 116 321.7 116.8C321.7 117.9 322.1 118.7 322.9 119.2C323.6 119.7 324.6 120 325.9 120Z" fill="#77809C"/>
<path d="M348.8 109.2V123.8H343V98.9001H348.6V103.1H348.9C349.5 101.7 350.4 100.6 351.6 99.8001C352.9 99.0001 354.4 98.6001 356.3 98.6001C358 98.6001 359.5 99.0001 360.8 99.7001C362.1 100.4 363.1 101.5 363.8 102.9C364.5 104.3 364.9 106 364.8 108V123.9H358.9V108.9C358.9 107.2 358.5 105.9 357.6 105C356.7 104.1 355.6 103.6 354 103.6C353 103.6 352.1 103.8 351.3 104.3C350.5 104.7 349.9 105.4 349.4 106.2C348.9 107 348.8 108 348.8 109.2Z" fill="#77809C"/>
<path d="M379.6 124.2C377.6 124.2 375.9 123.7 374.3 122.7C372.8 121.7 371.5 120.2 370.6 118.3C369.7 116.4 369.3 114.1 369.3 111.3C369.3 108.5 369.8 106.2 370.7 104.3C371.6 102.4 372.8 100.9 374.4 100C376 99.0001 377.7 98.5001 379.6 98.5001C381.1 98.5001 382.3 98.7001 383.2 99.2001C384.1 99.7001 384.9 100.3 385.4 101C386 101.7 386.4 102.3 386.7 102.9H386.9V90.6001H392.8V123.8H387V119.9H386.6C386.3 120.5 385.9 121.1 385.3 121.8C384.7 122.5 384 123.1 383 123.5C382.2 124 381 124.2 379.6 124.2ZM381.2 119.4C382.4 119.4 383.5 119.1 384.4 118.4C385.3 117.7 385.9 116.8 386.4 115.6C386.9 114.4 387.1 113 387.1 111.4C387.1 109.8 386.9 108.4 386.4 107.2C385.9 106 385.3 105.1 384.4 104.4C383.5 103.7 382.5 103.4 381.2 103.4C379.9 103.4 378.8 103.7 377.9 104.4C377 105.1 376.4 106 375.9 107.2C375.4 108.4 375.2 109.8 375.2 111.3C375.2 112.9 375.4 114.2 375.9 115.5C376.3 116.7 377 117.7 377.9 118.4C378.9 119.1 379.9 119.4 381.2 119.4Z" fill="#77809C"/>
<path d="M432.1 101.2C431.8 100.3 431.5 99.5 431 98.8C430.5 98.1 430 97.5 429.3 97C428.6 96.5 427.9 96.1 427.1 95.9C426.3 95.7 425.3 95.5 424.3 95.5C422.5 95.5 420.9 95.9 419.5 96.8C418.1 97.7 417 99 416.2 100.8C415.4 102.5 415 104.6 415 107.1C415 109.6 415.4 111.7 416.2 113.5C417 115.2 418.1 116.6 419.5 117.5C420.9 118.4 422.5 118.9 424.4 118.9C426.1 118.9 427.5 118.6 428.8 117.9C430 117.3 431 116.3 431.7 115.1C432.4 113.9 432.7 112.5 432.7 110.9L434.1 111.1H425.1V106.4H438.6V110.4C438.6 113.2 438 115.7 436.8 117.8C435.6 119.9 433.9 121.5 431.8 122.6C429.7 123.7 427.2 124.3 424.5 124.3C421.4 124.3 418.8 123.6 416.4 122.2C414.1 120.8 412.3 118.9 411 116.3C409.7 113.8 409.1 110.7 409.1 107.2C409.1 104.5 409.5 102.1 410.2 100C411 97.9 412 96.1 413.4 94.6C414.8 93.1 416.4 92 418.2 91.2C420 90.4 422.1 90 424.2 90C426 90 427.8 90.3 429.3 90.8C430.9 91.3 432.3 92.1 433.5 93.1C434.7 94.1 435.8 95.3 436.6 96.6C437.4 97.9 437.9 99.4 438.2 101.1H432.1V101.2Z" fill="#77809C"/>
<path d="M450.8 124.3C449.2 124.3 447.8 124 446.5 123.4C445.2 122.8 444.2 122 443.5 120.9C442.8 119.8 442.4 118.4 442.4 116.8C442.4 115.4 442.7 114.2 443.2 113.3C443.7 112.4 444.4 111.6 445.3 111.1C446.2 110.5 447.2 110.1 448.3 109.8C449.4 109.5 450.6 109.3 451.8 109.2C453.3 109 454.4 108.9 455.4 108.8C456.4 108.7 457 108.5 457.4 108.2C457.8 107.9 458 107.5 458 107V106.9C458 105.7 457.6 104.7 456.9 104.1C456.2 103.4 455.1 103.1 453.8 103.1C452.4 103.1 451.2 103.4 450.4 104C449.6 104.6 449 105.4 448.7 106.2L443.2 105.4C443.6 103.9 444.3 102.6 445.3 101.6C446.3 100.6 447.5 99.8 448.9 99.3C450.3 98.8 451.9 98.5 453.7 98.5C454.9 98.5 456.1 98.6 457.3 98.9C458.5 99.2 459.6 99.6 460.6 100.3C461.6 101 462.4 101.8 463 102.9C463.6 104 463.9 105.4 463.9 107V123.7H458.3V120.3H458.1C457.7 121 457.2 121.6 456.6 122.2C456 122.8 455.2 123.3 454.2 123.6C453.2 124.1 452.1 124.3 450.8 124.3ZM452.3 120C453.5 120 454.5 119.8 455.4 119.3C456.3 118.8 456.9 118.2 457.4 117.4C457.9 116.6 458.1 115.8 458.1 114.9V112C457.9 112.2 457.6 112.3 457.2 112.4C456.8 112.5 456.3 112.6 455.7 112.7C455.2 112.8 454.6 112.9 454.1 113C453.6 113.1 453.1 113.1 452.7 113.2C451.8 113.3 451 113.5 450.3 113.8C449.6 114.1 449.1 114.4 448.7 114.9C448.3 115.4 448.1 116 448.1 116.8C448.1 117.9 448.5 118.7 449.3 119.2C450.1 119.7 451.1 120 452.3 120Z" fill="#77809C"/>
<path d="M489.1 105.5L483.7 106.1C483.5 105.6 483.3 105.1 482.9 104.6C482.5 104.1 482 103.7 481.4 103.4C480.8 103.1 480 103 479.1 103C477.9 103 476.9 103.3 476 103.8C475.2 104.3 474.8 105 474.8 105.9C474.8 106.6 475.1 107.2 475.6 107.7C476.1 108.2 477.1 108.5 478.3 108.8L482.5 109.7C484.9 110.2 486.6 111 487.8 112.1C489 113.2 489.5 114.6 489.5 116.4C489.5 118 489 119.4 488.1 120.5C487.2 121.7 485.9 122.6 484.3 123.3C482.7 124 480.9 124.3 478.8 124.3C475.8 124.3 473.3 123.7 471.4 122.4C469.5 121.1 468.4 119.3 468.1 117L473.8 116.4C474.1 117.5 474.6 118.4 475.5 118.9C476.4 119.4 477.4 119.8 478.8 119.8C480.2 119.8 481.3 119.5 482.2 118.9C483 118.3 483.5 117.6 483.5 116.8C483.5 116.1 483.2 115.5 482.7 115C482.2 114.5 481.3 114.2 480.2 113.9L475.9 113C473.5 112.5 471.7 111.7 470.6 110.5C469.5 109.3 468.9 107.8 468.9 106C468.9 104.5 469.3 103.1 470.2 102C471.1 100.9 472.2 100 473.8 99.4C475.3 98.8 477.1 98.5 479.1 98.5C482 98.5 484.3 99.1 486 100.4C487.6 101.7 488.7 103.3 489.1 105.5Z" fill="#77809C"/>
<path d="M524.6 105.5L519.2 106.1C519 105.6 518.8 105.1 518.4 104.6C518 104.1 517.5 103.7 516.9 103.4C516.3 103.1 515.5 103 514.6 103C513.4 103 512.4 103.3 511.5 103.8C510.7 104.3 510.3 105 510.3 105.9C510.3 106.6 510.6 107.2 511.1 107.7C511.6 108.2 512.6 108.5 513.8 108.8L518 109.7C520.4 110.2 522.1 111 523.3 112.1C524.5 113.2 525 114.6 525 116.4C525 118 524.5 119.4 523.6 120.5C522.7 121.7 521.4 122.6 519.8 123.3C518.2 124 516.4 124.3 514.3 124.3C511.3 124.3 508.8 123.7 506.9 122.4C505 121.1 503.9 119.3 503.6 117L509.3 116.4C509.6 117.5 510.1 118.4 511 118.9C511.9 119.4 512.9 119.8 514.3 119.8C515.7 119.8 516.8 119.5 517.7 118.9C518.5 118.3 519 117.6 519 116.8C519 116.1 518.7 115.5 518.2 115C517.7 114.5 516.8 114.2 515.7 113.9L511.4 113C509 112.5 507.2 111.7 506.1 110.5C505 109.3 504.4 107.8 504.4 106C504.4 104.5 504.8 103.1 505.7 102C506.6 100.9 507.7 100 509.3 99.4C510.8 98.8 512.6 98.5 514.6 98.5C517.5 98.5 519.8 99.1 521.5 100.4C523.1 101.7 524.2 103.3 524.6 105.5Z" fill="#77809C"/>
<path d="M545.4 113.3V98.8999H551.3V123.8H545.6V119.4H545.3C544.7 120.8 543.8 121.9 542.5 122.8C541.2 123.7 539.6 124.1 537.8 124.1C536.2 124.1 534.7 123.7 533.5 123C532.3 122.3 531.3 121.2 530.6 119.8C529.9 118.4 529.5 116.7 529.5 114.7V98.8999H535.4V113.9C535.4 115.5 535.8 116.7 536.7 117.7C537.6 118.6 538.7 119.1 540.1 119.1C541 119.1 541.8 118.9 542.6 118.5C543.4 118.1 544.1 117.4 544.6 116.6C545.1 115.6 545.4 114.6 545.4 113.3Z" fill="#77809C"/>
<path d="M556.8 133.1V98.9001H562.6V103H562.9C563.2 102.4 563.6 101.7 564.2 101.1C564.8 100.4 565.5 99.8001 566.4 99.3001C567.3 98.8001 568.5 98.6001 570 98.6001C571.9 98.6001 573.7 99.1001 575.2 100.1C576.7 101.1 578 102.5 578.9 104.4C579.8 106.3 580.3 108.6 580.3 111.4C580.3 114.1 579.9 116.5 579 118.4C578.1 120.3 576.9 121.8 575.3 122.8C573.7 123.8 572 124.3 570 124.3C568.6 124.3 567.4 124.1 566.4 123.6C565.5 123.1 564.7 122.5 564.1 121.9C563.5 121.2 563.1 120.6 562.8 120H562.6V133.3H556.8V133.1ZM562.6 111.3C562.6 112.9 562.8 114.3 563.3 115.5C563.8 116.7 564.4 117.7 565.3 118.3C566.2 118.9 567.2 119.3 568.5 119.3C569.8 119.3 570.9 119 571.8 118.3C572.7 117.6 573.3 116.6 573.8 115.4C574.2 114.2 574.5 112.8 574.5 111.2C574.5 109.7 574.3 108.3 573.8 107.1C573.4 105.9 572.7 105 571.8 104.3C570.9 103.6 569.8 103.3 568.5 103.3C567.2 103.3 566.2 103.6 565.3 104.3C564.4 105 563.8 105.9 563.3 107.1C562.8 108.3 562.6 109.7 562.6 111.3Z" fill="#77809C"/>
<path d="M584.9 133.1V98.9001H590.7V103H591C591.3 102.4 591.7 101.7 592.3 101.1C592.9 100.4 593.6 99.8001 594.5 99.3001C595.4 98.8001 596.6 98.6001 598.1 98.6001C600 98.6001 601.8 99.1001 603.3 100.1C604.8 101.1 606.1 102.5 607 104.4C607.9 106.3 608.4 108.6 608.4 111.4C608.4 114.1 608 116.5 607.1 118.4C606.2 120.3 605 121.8 603.4 122.8C601.8 123.8 600.1 124.3 598.1 124.3C596.7 124.3 595.5 124.1 594.5 123.6C593.6 123.1 592.8 122.5 592.2 121.9C591.6 121.2 591.2 120.6 590.9 120H590.7V133.3H584.9V133.1ZM590.7 111.3C590.7 112.9 590.9 114.3 591.4 115.5C591.9 116.7 592.5 117.7 593.4 118.3C594.3 118.9 595.3 119.3 596.6 119.3C597.9 119.3 599 119 599.9 118.3C600.8 117.6 601.4 116.6 601.9 115.4C602.3 114.2 602.6 112.8 602.6 111.2C602.6 109.7 602.4 108.3 601.9 107.1C601.5 105.9 600.8 105 599.9 104.3C599 103.6 597.9 103.3 596.6 103.3C595.3 103.3 594.3 103.6 593.4 104.3C592.5 105 591.9 105.9 591.4 107.1C590.9 108.3 590.7 109.7 590.7 111.3Z" fill="#77809C"/>
<path d="M618.9 90.6001V123.8H613V90.6001H618.9Z" fill="#77809C"/>
<path d="M628.1 133.1C627.3 133.1 626.6 133 625.9 132.9C625.2 132.8 624.7 132.6 624.3 132.5L625.7 127.9C626.6 128.1 627.3 128.3 628 128.3C628.7 128.3 629.3 128.1 629.8 127.7C630.3 127.3 630.7 126.6 631.1 125.7L631.6 124.4L622.6 99H628.8L634.5 117.8H634.8L640.6 99H646.8L636.8 126.9C636.3 128.2 635.7 129.4 635 130.3C634.2 131.2 633.3 132 632.2 132.5C631 132.9 629.6 133.1 628.1 133.1Z" fill="#77809C"/>
<path d="M672 133.6C669.9 133.6 668.1 133.3 666.6 132.7C665.1 132.1 663.9 131.4 663 130.4C662.1 129.4 661.4 128.4 661.1 127.2L666.4 125.9C666.6 126.4 667 126.9 667.4 127.4C667.9 127.9 668.5 128.3 669.2 128.6C670 128.9 670.9 129.1 672.1 129.1C673.8 129.1 675.1 128.7 676.2 127.9C677.3 127.1 677.8 125.8 677.8 123.9V119.2H677.5C677.2 119.8 676.8 120.4 676.2 121.1C675.6 121.7 674.9 122.3 673.9 122.7C673 123.1 671.8 123.3 670.3 123.3C668.4 123.3 666.7 122.8 665.1 121.9C663.5 121 662.3 119.6 661.4 117.8C660.5 116 660 113.7 660 111C660 108.3 660.5 106 661.4 104.1C662.3 102.2 663.5 100.8 665.1 99.8C666.7 98.8 668.4 98.3 670.3 98.3C671.8 98.3 673 98.5 673.9 99C674.8 99.5 675.6 100.1 676.2 100.8C676.8 101.5 677.2 102.1 677.5 102.7H677.8V98.6H683.6V123.9C683.6 126 683.1 127.8 682.1 129.2C681.1 130.6 679.7 131.6 677.9 132.3C676.1 133 674.3 133.6 672 133.6ZM672.1 118.8C673.3 118.8 674.4 118.5 675.3 117.9C676.2 117.3 676.8 116.4 677.3 115.3C677.8 114.2 678 112.8 678 111.2C678 109.6 677.8 108.3 677.3 107.1C676.9 105.9 676.2 105 675.3 104.4C674.4 103.8 673.4 103.4 672.1 103.4C670.8 103.4 669.7 103.7 668.8 104.4C667.9 105.1 667.3 106 666.8 107.2C666.4 108.4 666.1 109.7 666.1 111.2C666.1 112.7 666.3 114.1 666.8 115.2C667.2 116.3 667.9 117.2 668.8 117.9C669.7 118.5 670.8 118.8 672.1 118.8Z" fill="#77809C"/>
<path d="M689.3 123.8V98.9001H695V103.1H695.3C695.8 101.7 696.5 100.6 697.6 99.8001C698.7 99.0001 700 98.6001 701.4 98.6001C701.7 98.6001 702.1 98.6001 702.5 98.6001C702.9 98.6001 703.2 98.7001 703.5 98.7001V104.1C703.3 104 702.9 103.9 702.3 103.9C701.7 103.9 701.2 103.8 700.8 103.8C699.7 103.8 698.8 104 697.9 104.5C697 105 696.4 105.6 695.9 106.4C695.4 107.2 695.2 108.1 695.2 109.2V123.8H689.3Z" fill="#77809C"/>
<path d="M718 124.3C715.5 124.3 713.3 123.8 711.5 122.7C709.7 121.7 708.3 120.2 707.3 118.3C706.3 116.4 705.8 114.1 705.8 111.5C705.8 108.9 706.3 106.7 707.3 104.7C708.3 102.8 709.6 101.2 711.4 100.2C713.2 99.2001 715.2 98.6001 717.6 98.6001C719.1 98.6001 720.6 98.8001 722 99.3001C723.4 99.8001 724.6 100.6 725.6 101.6C726.7 102.6 727.5 103.9 728.1 105.5C728.7 107.1 729 109 729 111.2V113H708.6V109H723.4C723.4 107.9 723.1 106.9 722.7 106C722.2 105.1 721.6 104.4 720.7 103.9C719.9 103.4 718.9 103.1 717.7 103.1C716.5 103.1 715.4 103.4 714.5 104C713.6 104.6 712.9 105.3 712.4 106.3C711.9 107.3 711.6 108.3 711.6 109.4V112.9C711.6 114.3 711.9 115.6 712.4 116.6C712.9 117.6 713.7 118.4 714.6 119C715.6 119.5 716.7 119.8 717.9 119.8C718.8 119.8 719.5 119.7 720.2 119.4C720.9 119.2 721.5 118.8 722 118.3C722.5 117.8 722.9 117.2 723.2 116.5L728.7 117.1C728.4 118.5 727.7 119.8 726.7 120.9C725.7 122 724.5 122.8 723 123.4C721.6 124 719.9 124.3 718 124.3Z" fill="#77809C"/>
<path d="M744.6 124.3C742.1 124.3 739.9 123.8 738.1 122.7C736.3 121.7 734.9 120.2 733.9 118.3C732.9 116.4 732.4 114.1 732.4 111.5C732.4 108.9 732.9 106.7 733.9 104.7C734.9 102.8 736.2 101.2 738 100.2C739.8 99.2001 741.8 98.6001 744.2 98.6001C745.7 98.6001 747.2 98.8001 748.6 99.3001C750 99.8001 751.2 100.6 752.2 101.6C753.3 102.6 754.1 103.9 754.7 105.5C755.3 107.1 755.6 109 755.6 111.2V113H735.2V109H750C750 107.9 749.7 106.9 749.3 106C748.8 105.1 748.2 104.4 747.3 103.9C746.5 103.4 745.5 103.1 744.3 103.1C743.1 103.1 742 103.4 741.1 104C740.2 104.6 739.5 105.3 739 106.3C738.5 107.3 738.2 108.3 738.2 109.4V112.9C738.2 114.3 738.5 115.6 739 116.6C739.5 117.6 740.3 118.4 741.2 119C742.2 119.5 743.3 119.8 744.5 119.8C745.4 119.8 746.1 119.7 746.8 119.4C747.5 119.2 748.1 118.8 748.6 118.3C749.1 117.8 749.5 117.2 749.8 116.5L755.3 117.1C755 118.5 754.3 119.8 753.3 120.9C752.3 122 751.1 122.8 749.6 123.4C748.3 124 746.5 124.3 744.6 124.3Z" fill="#77809C"/>
<path d="M766.1 109.2V123.8H760.2V98.9001H765.8V103.1H766.1C766.7 101.7 767.6 100.6 768.8 99.8001C770.1 99.0001 771.6 98.6001 773.5 98.6001C775.2 98.6001 776.7 99.0001 778 99.7001C779.3 100.4 780.3 101.5 781 102.9C781.7 104.3 782.1 106 782 108V123.9H776.1V108.9C776.1 107.2 775.7 105.9 774.8 105C773.9 104.1 772.8 103.6 771.2 103.6C770.2 103.6 769.3 103.8 768.5 104.3C767.7 104.7 767.1 105.4 766.6 106.2C766.1 107 766.1 108 766.1 109.2Z" fill="#77809C"/>
<path d="M800.2 98.9V103.4H785.5V98.9H800.2ZM789.2 123.8V96.5C789.2 94.8 789.5 93.4 790.2 92.3C790.9 91.2 791.8 90.4 793 89.8C794.2 89.2 795.5 89 796.9 89C797.9 89 798.8 89.1 799.6 89.2C800.4 89.4 801 89.5 801.4 89.6L800.2 94.1C800 94 799.6 93.9 799.3 93.9C799 93.9 798.5 93.8 798 93.8C796.9 93.8 796.1 94.1 795.7 94.6C795.3 95.1 795 95.9 795 96.8V123.7H789.2V123.8Z" fill="#77809C"/>
<path d="M807.3 95.3C806.4 95.3 805.6 95 804.9 94.4C804.2 93.8 803.9 93 803.9 92.1C803.9 91.2 804.2 90.5 804.9 89.9C805.6 89.3 806.4 89 807.3 89C808.2 89 809 89.3 809.7 89.9C810.4 90.5 810.7 91.3 810.7 92.2C810.7 93.1 810.4 93.8 809.7 94.4C809 95 808.2 95.3 807.3 95.3ZM804.3 123.8V98.9H810.2V123.8H804.3Z" fill="#77809C"/>
<path d="M826.8 124.3C824.3 124.3 822.1 123.8 820.3 122.7C818.5 121.7 817.1 120.2 816.1 118.3C815.1 116.4 814.6 114.1 814.6 111.5C814.6 108.9 815.1 106.7 816.1 104.7C817.1 102.8 818.4 101.2 820.2 100.2C822 99.2001 824 98.6001 826.4 98.6001C827.9 98.6001 829.4 98.8001 830.8 99.3001C832.2 99.8001 833.4 100.6 834.4 101.6C835.5 102.6 836.3 103.9 836.9 105.5C837.5 107.1 837.8 109 837.8 111.2V113H817.4V109H832.2C832.2 107.9 831.9 106.9 831.5 106C831 105.1 830.4 104.4 829.5 103.9C828.7 103.4 827.7 103.1 826.5 103.1C825.3 103.1 824.2 103.4 823.3 104C822.4 104.6 821.7 105.3 821.2 106.3C820.7 107.3 820.4 108.3 820.4 109.4V112.9C820.4 114.3 820.7 115.6 821.2 116.6C821.7 117.6 822.5 118.4 823.4 119C824.4 119.5 825.5 119.8 826.7 119.8C827.6 119.8 828.3 119.7 829 119.4C829.7 119.2 830.3 118.8 830.8 118.3C831.3 117.8 831.7 117.2 832 116.5L837.5 117.1C837.2 118.5 836.5 119.8 835.5 120.9C834.5 122 833.3 122.8 831.8 123.4C830.5 124 828.8 124.3 826.8 124.3Z" fill="#77809C"/>
<path d="M848.3 90.6001V123.8H842.4V90.6001H848.3Z" fill="#77809C"/>
<path d="M863.1 124.2C861.1 124.2 859.4 123.7 857.8 122.7C856.3 121.7 855 120.2 854.1 118.3C853.2 116.4 852.8 114.1 852.8 111.3C852.8 108.5 853.3 106.2 854.2 104.3C855.1 102.4 856.3 100.9 857.9 100C859.5 99.0001 861.2 98.5001 863.1 98.5001C864.6 98.5001 865.8 98.7001 866.7 99.2001C867.6 99.7001 868.4 100.3 868.9 101C869.5 101.7 869.9 102.3 870.2 102.9H870.4V90.6001H876.3V123.8H870.5V119.9H870.1C869.8 120.5 869.4 121.1 868.8 121.8C868.2 122.5 867.5 123.1 866.5 123.5C865.7 124 864.5 124.2 863.1 124.2ZM864.8 119.4C866 119.4 867.1 119.1 868 118.4C868.9 117.7 869.5 116.8 870 115.6C870.5 114.4 870.7 113 870.7 111.4C870.7 109.8 870.5 108.4 870 107.2C869.5 106 868.9 105.1 868 104.4C867.1 103.7 866.1 103.4 864.8 103.4C863.5 103.4 862.4 103.7 861.5 104.4C860.6 105.1 860 106 859.5 107.2C859 108.4 858.8 109.8 858.8 111.3C858.8 112.9 859 114.2 859.5 115.5C859.9 116.7 860.6 117.7 861.5 118.4C862.4 119.1 863.5 119.4 864.8 119.4Z" fill="#77809C"/>
<path d="M57.9001 187.9V153.6H63.7001V157.7H64.0001C64.3001 157.1 64.7001 156.4 65.3001 155.8C65.9001 155.1 66.6001 154.5 67.5001 154C68.4001 153.5 69.6001 153.3 71.1001 153.3C73.0001 153.3 74.8001 153.8 76.3001 154.8C77.8001 155.8 79.1001 157.2 80.0001 159.1C80.9001 161 81.4001 163.3 81.4001 166.1C81.4001 168.8 81.0001 171.2 80.1001 173.1C79.2001 175 78.0001 176.5 76.4001 177.5C74.8001 178.5 73.1001 179 71.1001 179C69.7001 179 68.5001 178.8 67.5001 178.3C66.6001 177.8 65.8001 177.2 65.2001 176.6C64.6001 175.9 64.2001 175.3 63.9001 174.7H63.7001V188H57.9001V187.9ZM63.7001 166.1C63.7001 167.7 63.9001 169.1 64.4001 170.3C64.9001 171.5 65.5001 172.5 66.4001 173.1C67.3001 173.7 68.3001 174.1 69.6001 174.1C70.9001 174.1 72.0001 173.8 72.9001 173.1C73.8001 172.4 74.4001 171.4 74.9001 170.2C75.3001 169 75.6001 167.6 75.6001 166C75.6001 164.5 75.4001 163.1 74.9001 161.9C74.5001 160.7 73.8001 159.8 72.9001 159.1C72.0001 158.4 70.9001 158.1 69.6001 158.1C68.3001 158.1 67.3001 158.4 66.4001 159.1C65.5001 159.8 64.9001 160.7 64.4001 161.9C63.9001 163.1 63.7001 164.5 63.7001 166.1Z" fill="#77809C"/>
<path d="M86 178.6V153.7H91.7V157.9H92C92.5 156.5 93.2 155.4 94.3 154.6C95.4 153.8 96.7 153.4 98.1 153.4C98.4 153.4 98.8 153.4 99.2 153.4C99.6 153.4 99.9 153.5 100.2 153.5V158.9C100 158.8 99.6 158.7 99 158.7C98.4 158.7 97.9 158.6 97.5 158.6C96.4 158.6 95.5 158.8 94.6 159.3C93.7 159.8 93.1 160.4 92.6 161.2C92.1 162 91.9 162.9 91.9 164V178.6H86Z" fill="#77809C"/>
<path d="M114.5 179.1C112.1 179.1 110 178.6 108.2 177.5C106.4 176.4 105 174.9 104.1 173C103.1 171.1 102.6 168.8 102.6 166.3C102.6 163.7 103.1 161.5 104.1 159.5C105.1 157.6 106.5 156.1 108.2 155C110 153.9 112.1 153.4 114.5 153.4C116.9 153.4 119 153.9 120.8 155C122.6 156.1 124 157.6 124.9 159.5C125.9 161.4 126.4 163.7 126.4 166.3C126.4 168.9 125.9 171.1 124.9 173C123.9 174.9 122.5 176.4 120.8 177.5C119.1 178.6 117 179.1 114.5 179.1ZM114.6 174.4C115.9 174.4 117 174 117.9 173.3C118.8 172.6 119.4 171.6 119.9 170.4C120.3 169.2 120.6 167.8 120.6 166.3C120.6 164.8 120.4 163.4 119.9 162.2C119.4 161 118.8 160 117.9 159.2C117 158.5 115.9 158.1 114.6 158.1C113.2 158.1 112.1 158.5 111.2 159.2C110.3 159.9 109.6 160.9 109.2 162.2C108.8 163.5 108.5 164.8 108.5 166.3C108.5 167.8 108.7 169.2 109.2 170.4C109.6 171.6 110.3 172.6 111.2 173.3C112.1 174 113.2 174.4 114.6 174.4Z" fill="#77809C"/>
<path d="M131 153.7H136.9V180C136.9 181.8 136.6 183.3 135.9 184.4C135.2 185.6 134.2 186.4 132.9 187C131.6 187.6 130.1 187.9 128.2 187.9C128 187.9 127.8 187.9 127.6 187.9C127.4 187.9 127.2 187.9 127 187.9V183.1C127.2 183.1 127.3 183.1 127.4 183.1C127.5 183.1 127.7 183.1 127.8 183.1C128.9 183.1 129.7 182.8 130.2 182.3C130.7 181.8 130.9 181 130.9 179.9V153.7H131ZM133.9 150.1C133 150.1 132.2 149.8 131.5 149.2C130.8 148.6 130.5 147.8 130.5 147C130.5 146.1 130.8 145.4 131.5 144.7C132.2 144 133 143.8 133.9 143.8C134.8 143.8 135.6 144.1 136.3 144.7C137 145.3 137.3 146.1 137.3 147C137.3 147.9 137 148.6 136.3 149.2C135.6 149.8 134.8 150.1 133.9 150.1Z" fill="#77809C"/>
<path d="M153.4 179.1C150.9 179.1 148.7 178.6 146.9 177.5C145.1 176.5 143.7 175 142.7 173.1C141.7 171.2 141.2 168.9 141.2 166.3C141.2 163.7 141.7 161.5 142.7 159.5C143.7 157.6 145 156 146.8 155C148.6 154 150.6 153.4 153 153.4C154.5 153.4 156 153.6 157.4 154.1C158.8 154.6 160 155.4 161 156.4C162.1 157.4 162.9 158.7 163.5 160.3C164.1 161.9 164.4 163.8 164.4 166V167.8H144V163.8H158.8C158.8 162.7 158.5 161.7 158.1 160.8C157.6 159.9 157 159.2 156.1 158.7C155.3 158.2 154.3 157.9 153.1 157.9C151.9 157.9 150.8 158.2 149.9 158.8C149 159.4 148.3 160.1 147.8 161.1C147.3 162.1 147 163.1 147 164.2V167.7C147 169.1 147.3 170.4 147.8 171.4C148.3 172.4 149.1 173.2 150 173.8C151 174.3 152.1 174.6 153.3 174.6C154.2 174.6 154.9 174.5 155.6 174.2C156.3 174 156.9 173.6 157.4 173.1C157.9 172.6 158.3 172 158.6 171.3L164.1 171.9C163.8 173.3 163.1 174.6 162.1 175.7C161.1 176.8 159.9 177.6 158.4 178.2C157.1 178.8 155.4 179.1 153.4 179.1Z" fill="#77809C"/>
<path d="M179.9 179.1C177.4 179.1 175.3 178.6 173.5 177.5C171.7 176.4 170.4 174.9 169.4 173C168.4 171.1 168 168.8 168 166.3C168 163.8 168.5 161.5 169.5 159.6C170.5 157.7 171.8 156.1 173.6 155.1C175.4 154.1 177.5 153.5 179.9 153.5C181.9 153.5 183.7 153.9 185.3 154.6C186.9 155.3 188.1 156.4 189 157.7C189.9 159 190.5 160.6 190.6 162.4H185C184.8 161.2 184.2 160.2 183.4 159.4C182.6 158.6 181.4 158.2 180 158.2C178.8 158.2 177.7 158.5 176.8 159.2C175.9 159.8 175.2 160.8 174.7 162C174.2 163.2 173.9 164.6 173.9 166.3C173.9 168 174.1 169.5 174.6 170.7C175.1 171.9 175.8 172.9 176.7 173.5C177.6 174.1 178.7 174.5 179.9 174.5C180.8 174.5 181.5 174.3 182.2 174C182.9 173.7 183.5 173.2 183.9 172.6C184.4 172 184.7 171.2 184.9 170.3H190.5C190.4 172.1 189.8 173.6 188.9 175C188 176.4 186.8 177.4 185.2 178.2C183.8 178.7 182 179.1 179.9 179.1Z" fill="#77809C"/>
<path d="M207.4 153.7V158.2H193.1V153.7H207.4ZM196.6 147.7H202.5V171.1C202.5 171.9 202.6 172.5 202.9 172.9C203.1 173.3 203.5 173.6 203.9 173.8C204.3 174 204.7 174 205.2 174C205.6 174 205.9 174 206.2 173.9C206.5 173.8 206.7 173.8 206.9 173.8L207.9 178.4C207.6 178.5 207.1 178.6 206.6 178.8C206 178.9 205.3 179 204.5 179C203 179 201.7 178.8 200.5 178.3C199.3 177.8 198.4 177 197.7 176C197 175 196.7 173.7 196.7 172.1V147.7H196.6Z" fill="#77809C"/>
<path d="M231.5 160.3L226.1 160.9C225.9 160.4 225.7 159.9 225.3 159.4C224.9 158.9 224.4 158.5 223.8 158.2C223.2 157.9 222.4 157.8 221.5 157.8C220.3 157.8 219.3 158.1 218.4 158.6C217.6 159.1 217.2 159.8 217.2 160.7C217.2 161.4 217.5 162 218 162.5C218.5 163 219.5 163.3 220.7 163.6L224.9 164.5C227.3 165 229 165.8 230.2 166.9C231.4 168 231.9 169.4 231.9 171.2C231.9 172.8 231.4 174.2 230.5 175.3C229.6 176.5 228.3 177.4 226.7 178.1C225.1 178.8 223.3 179.1 221.2 179.1C218.2 179.1 215.7 178.5 213.8 177.2C211.9 175.9 210.8 174.1 210.5 171.8L216.2 171.2C216.5 172.3 217 173.2 217.9 173.7C218.8 174.2 219.8 174.6 221.2 174.6C222.6 174.6 223.7 174.3 224.6 173.7C225.4 173.1 225.9 172.4 225.9 171.6C225.9 170.9 225.6 170.3 225.1 169.8C224.6 169.3 223.7 169 222.6 168.7L218.3 167.8C215.9 167.3 214.1 166.5 213 165.3C211.9 164.1 211.3 162.6 211.3 160.8C211.3 159.3 211.7 157.9 212.6 156.8C213.5 155.7 214.6 154.8 216.2 154.2C217.7 153.6 219.5 153.3 221.5 153.3C224.4 153.3 226.7 153.9 228.4 155.2C230.1 156.5 231.1 158.1 231.5 160.3Z" fill="#77809C"/>
<path d="M252.5 178.6L245.5 153.7H251.5L255.9 171.2H256.1L260.6 153.7H266.5L271 171.1H271.2L275.5 153.7H281.5L274.4 178.6H268.3L263.6 161.8H263.3L258.6 178.6H252.5Z" fill="#77809C"/>
<path d="M296.2 179.1C293.7 179.1 291.5 178.6 289.7 177.5C287.9 176.5 286.5 175 285.5 173.1C284.5 171.2 284 168.9 284 166.3C284 163.7 284.5 161.5 285.5 159.5C286.5 157.6 287.8 156 289.6 155C291.4 154 293.4 153.4 295.8 153.4C297.3 153.4 298.8 153.6 300.2 154.1C301.6 154.6 302.8 155.4 303.8 156.4C304.9 157.4 305.7 158.7 306.3 160.3C306.9 161.9 307.2 163.8 307.2 166V167.8H286.8V163.8H301.6C301.6 162.7 301.3 161.7 300.9 160.8C300.4 159.9 299.8 159.2 298.9 158.7C298.1 158.2 297.1 157.9 295.9 157.9C294.7 157.9 293.6 158.2 292.7 158.8C291.8 159.4 291.1 160.1 290.6 161.1C290.1 162.1 289.8 163.1 289.8 164.2V167.7C289.8 169.1 290.1 170.4 290.6 171.4C291.1 172.4 291.9 173.2 292.8 173.8C293.8 174.3 294.9 174.6 296.1 174.6C297 174.6 297.7 174.5 298.4 174.2C299.1 174 299.7 173.6 300.2 173.1C300.7 172.6 301.1 172 301.4 171.3L306.9 171.9C306.6 173.3 305.9 174.6 304.9 175.7C303.9 176.8 302.7 177.6 301.2 178.2C299.8 178.8 298.1 179.1 296.2 179.1Z" fill="#77809C"/>
<path d="M311.8 178.6V153.7H317.5V157.9H317.8C318.3 156.5 319 155.4 320.1 154.6C321.2 153.8 322.5 153.4 323.9 153.4C324.2 153.4 324.6 153.4 325 153.4C325.4 153.4 325.7 153.5 326 153.5V158.9C325.8 158.8 325.4 158.7 324.8 158.7C324.2 158.7 323.7 158.6 323.3 158.6C322.2 158.6 321.3 158.8 320.4 159.3C319.5 159.8 318.9 160.4 318.4 161.2C317.9 162 317.7 162.9 317.7 164V178.6H311.8Z" fill="#77809C"/>
<path d="M340.5 179.1C338 179.1 335.8 178.6 334 177.5C332.2 176.5 330.8 175 329.8 173.1C328.8 171.2 328.3 168.9 328.3 166.3C328.3 163.7 328.8 161.5 329.8 159.5C330.8 157.6 332.1 156 333.9 155C335.7 154 337.7 153.4 340.1 153.4C341.6 153.4 343.1 153.6 344.5 154.1C345.9 154.6 347.1 155.4 348.1 156.4C349.2 157.4 350 158.7 350.6 160.3C351.2 161.9 351.5 163.8 351.5 166V167.8H331.1V163.8H345.9C345.9 162.7 345.6 161.7 345.2 160.8C344.7 159.9 344.1 159.2 343.2 158.7C342.4 158.2 341.4 157.9 340.2 157.9C339 157.9 337.9 158.2 337 158.8C336.1 159.4 335.4 160.1 334.9 161.1C334.4 162.1 334.1 163.1 334.1 164.2V167.7C334.1 169.1 334.4 170.4 334.9 171.4C335.4 172.4 336.2 173.2 337.1 173.8C338.1 174.3 339.2 174.6 340.4 174.6C341.3 174.6 342 174.5 342.7 174.2C343.4 174 344 173.6 344.5 173.1C345 172.6 345.4 172 345.7 171.3L351.2 171.9C350.9 173.3 350.2 174.6 349.2 175.7C348.2 176.8 347 177.6 345.5 178.2C344.1 178.8 342.4 179.1 340.5 179.1Z" fill="#77809C"/>
<path d="M389.2 153.7L380.3 178.6H373.8L364.9 153.7H371.2L376.9 172.2H377.2L382.9 153.7H389.2Z" fill="#77809C"/>
<path d="M399.9 179.1C398.3 179.1 396.9 178.8 395.6 178.2C394.3 177.6 393.3 176.8 392.6 175.7C391.9 174.6 391.5 173.2 391.5 171.6C391.5 170.2 391.8 169 392.3 168.1C392.8 167.2 393.5 166.4 394.4 165.9C395.3 165.3 396.3 164.9 397.4 164.6C398.5 164.3 399.7 164.1 400.9 164C402.4 163.8 403.5 163.7 404.5 163.6C405.5 163.5 406.1 163.3 406.5 163C406.9 162.7 407.1 162.3 407.1 161.8V161.7C407.1 160.5 406.7 159.5 406 158.9C405.3 158.2 404.2 157.9 402.9 157.9C401.5 157.9 400.3 158.2 399.5 158.8C398.7 159.4 398.1 160.2 397.8 161L392.3 160.2C392.7 158.7 393.4 157.4 394.4 156.4C395.4 155.4 396.6 154.6 398 154.1C399.4 153.6 401 153.3 402.8 153.3C404 153.3 405.2 153.4 406.4 153.7C407.6 154 408.7 154.4 409.7 155.1C410.7 155.8 411.5 156.6 412.1 157.7C412.7 158.8 413 160.2 413 161.8V178.5H407.4V175.1H407.2C406.8 175.8 406.3 176.4 405.7 177C405.1 177.6 404.3 178.1 403.3 178.4C402.4 178.9 401.2 179.1 399.9 179.1ZM401.5 174.8C402.7 174.8 403.7 174.6 404.6 174.1C405.5 173.6 406.1 173 406.6 172.2C407.1 171.4 407.3 170.6 407.3 169.7V166.8C407.1 167 406.8 167.1 406.4 167.2C406 167.3 405.5 167.4 404.9 167.5C404.4 167.6 403.8 167.7 403.3 167.8C402.8 167.9 402.3 167.9 401.9 168C401 168.1 400.2 168.3 399.5 168.6C398.8 168.9 398.3 169.2 397.9 169.7C397.5 170.2 397.3 170.8 397.3 171.6C397.3 172.7 397.7 173.5 398.5 174C399.2 174.5 400.2 174.8 401.5 174.8Z" fill="#77809C"/>
<path d="M424.4 145.4V178.6H418.5V145.4H424.4Z" fill="#77809C"/>
<path d="M445.9 168.1V153.7H451.8V178.6H446.1V174.2H445.8C445.2 175.6 444.3 176.7 443 177.6C441.7 178.5 440.1 178.9 438.3 178.9C436.7 178.9 435.2 178.5 434 177.8C432.8 177.1 431.8 176 431.1 174.6C430.4 173.2 430 171.5 430 169.5V153.6H435.9V168.6C435.9 170.2 436.3 171.4 437.2 172.4C438.1 173.3 439.2 173.8 440.6 173.8C441.5 173.8 442.3 173.6 443.1 173.2C443.9 172.8 444.6 172.1 445.1 171.3C445.6 170.4 445.9 169.4 445.9 168.1Z" fill="#77809C"/>
<path d="M468.4 179.1C465.9 179.1 463.7 178.6 461.9 177.5C460.1 176.5 458.7 175 457.7 173.1C456.7 171.2 456.2 168.9 456.2 166.3C456.2 163.7 456.7 161.5 457.7 159.5C458.7 157.6 460 156 461.8 155C463.6 154 465.6 153.4 468 153.4C469.5 153.4 471 153.6 472.4 154.1C473.8 154.6 475 155.4 476 156.4C477.1 157.4 477.9 158.7 478.5 160.3C479.1 161.9 479.4 163.8 479.4 166V167.8H459V163.8H473.8C473.8 162.7 473.5 161.7 473.1 160.8C472.6 159.9 472 159.2 471.1 158.7C470.3 158.2 469.3 157.9 468.1 157.9C466.9 157.9 465.8 158.2 464.9 158.8C464 159.4 463.3 160.1 462.8 161.1C462.3 162.1 462 163.1 462 164.2V167.7C462 169.1 462.3 170.4 462.8 171.4C463.3 172.4 464.1 173.2 465 173.8C466 174.3 467.1 174.6 468.3 174.6C469.2 174.6 469.9 174.5 470.6 174.2C471.3 174 471.9 173.6 472.4 173.1C472.9 172.6 473.3 172 473.6 171.3L479.1 171.9C478.8 173.3 478.1 174.6 477.1 175.7C476.1 176.8 474.9 177.6 473.4 178.2C472 178.8 470.3 179.1 468.4 179.1Z" fill="#77809C"/>
<path d="M493.2 179C491.2 179 489.5 178.5 487.9 177.5C486.4 176.5 485.1 175 484.2 173.1C483.3 171.2 482.9 168.9 482.9 166.1C482.9 163.3 483.4 161 484.3 159.1C485.2 157.2 486.4 155.7 488 154.8C489.6 153.8 491.3 153.3 493.2 153.3C494.7 153.3 495.9 153.5 496.8 154C497.7 154.5 498.5 155.1 499 155.8C499.6 156.5 500 157.1 500.3 157.7H500.5V145.3H506.4V178.5H500.6V174.6H500.2C499.9 175.2 499.5 175.8 498.9 176.5C498.3 177.2 497.6 177.8 496.6 178.2C495.8 178.8 494.6 179 493.2 179ZM494.8 174.2C496 174.2 497.1 173.9 498 173.2C498.9 172.5 499.5 171.6 500 170.4C500.5 169.2 500.7 167.8 500.7 166.2C500.7 164.6 500.5 163.2 500 162C499.5 160.8 498.9 159.9 498 159.2C497.1 158.5 496.1 158.2 494.8 158.2C493.5 158.2 492.4 158.5 491.5 159.2C490.6 159.9 490 160.8 489.5 162C489 163.2 488.8 164.6 488.8 166.1C488.8 167.7 489 169 489.5 170.3C489.9 171.5 490.6 172.5 491.5 173.2C492.5 173.9 493.6 174.2 494.8 174.2Z" fill="#77809C"/>
<path d="M530.4 179.1C528.8 179.1 527.4 178.8 526.1 178.2C524.8 177.6 523.8 176.8 523.1 175.7C522.4 174.6 522 173.2 522 171.6C522 170.2 522.3 169 522.8 168.1C523.3 167.2 524 166.4 524.9 165.9C525.8 165.3 526.8 164.9 527.9 164.6C529 164.3 530.2 164.1 531.4 164C532.9 163.8 534 163.7 535 163.6C536 163.5 536.6 163.3 537 163C537.4 162.7 537.6 162.3 537.6 161.8V161.7C537.6 160.5 537.2 159.5 536.5 158.9C535.8 158.2 534.7 157.9 533.4 157.9C532 157.9 530.8 158.2 530 158.8C529.2 159.4 528.6 160.2 528.3 161L522.8 160.2C523.2 158.7 523.9 157.4 524.9 156.4C525.9 155.4 527.1 154.6 528.5 154.1C529.9 153.6 531.5 153.3 533.3 153.3C534.5 153.3 535.7 153.4 536.9 153.7C538.1 154 539.2 154.4 540.2 155.1C541.2 155.8 542 156.6 542.6 157.7C543.2 158.8 543.5 160.2 543.5 161.8V178.5H537.9V175.1H537.7C537.3 175.8 536.8 176.4 536.2 177C535.6 177.6 534.8 178.1 533.8 178.4C532.8 178.9 531.6 179.1 530.4 179.1ZM531.9 174.8C533.1 174.8 534.1 174.6 535 174.1C535.9 173.6 536.5 173 537 172.2C537.5 171.4 537.7 170.6 537.7 169.7V166.8C537.5 167 537.2 167.1 536.8 167.2C536.4 167.3 535.9 167.4 535.3 167.5C534.8 167.6 534.2 167.7 533.7 167.8C533.2 167.9 532.7 167.9 532.3 168C531.4 168.1 530.6 168.3 529.9 168.6C529.2 168.9 528.7 169.2 528.3 169.7C527.9 170.2 527.7 170.8 527.7 171.6C527.7 172.7 528.1 173.5 528.9 174C529.6 174.5 530.7 174.8 531.9 174.8Z" fill="#77809C"/>
<path d="M561.4 153.7V158.2H547.1V153.7H561.4ZM550.6 147.7H556.5V171.1C556.5 171.9 556.6 172.5 556.9 172.9C557.1 173.3 557.5 173.6 557.9 173.8C558.3 174 558.7 174 559.2 174C559.6 174 559.9 174 560.2 173.9C560.5 173.8 560.7 173.8 560.9 173.8L561.9 178.4C561.6 178.5 561.1 178.6 560.6 178.8C560 178.9 559.3 179 558.5 179C557 179 555.7 178.8 554.5 178.3C553.3 177.8 552.4 177 551.7 176C551 175 550.7 173.7 550.7 172.1V147.7H550.6Z" fill="#77809C"/>
<path d="M595.1 154.5C594.9 153.1 594.3 152 593.2 151.2C592.1 150.4 590.6 150 588.8 150C587.5 150 586.5 150.2 585.6 150.6C584.7 151 584 151.5 583.5 152.1C583 152.7 582.8 153.5 582.8 154.3C582.8 155 583 155.6 583.3 156.1C583.6 156.6 584.1 157 584.6 157.4C585.2 157.8 585.8 158 586.4 158.3C587.1 158.5 587.7 158.7 588.4 158.9L591.5 159.7C592.8 160 594 160.4 595.1 160.9C596.2 161.4 597.3 162 598.2 162.8C599.1 163.6 599.9 164.5 600.4 165.5C600.9 166.6 601.2 167.8 601.2 169.3C601.2 171.2 600.7 173 599.7 174.4C598.7 175.9 597.3 177 595.4 177.9C593.5 178.7 591.3 179.1 588.6 179.1C586 179.1 583.8 178.7 581.9 177.9C580 177.1 578.5 175.9 577.5 174.4C576.4 172.9 575.9 171 575.8 168.8H581.7C581.8 170 582.1 170.9 582.8 171.7C583.4 172.5 584.2 173 585.3 173.4C586.4 173.8 587.4 174 588.7 174C590 174 591.2 173.8 592.1 173.4C593.1 173 593.9 172.5 594.4 171.7C595 171 595.2 170.2 595.3 169.2C595.3 168.3 595 167.6 594.5 167.1C594 166.6 593.3 166.1 592.4 165.7C591.5 165.3 590.5 165 589.3 164.7L585.5 163.7C582.8 163 580.6 161.9 579 160.5C577.4 159.1 576.6 157.2 576.6 154.8C576.6 152.8 577.1 151.1 578.2 149.7C579.3 148.2 580.7 147.1 582.6 146.3C584.4 145.5 586.5 145.1 588.8 145.1C591.2 145.1 593.2 145.5 595 146.3C596.8 147.1 598.2 148.2 599.2 149.7C600.2 151.1 600.7 152.8 600.8 154.7H595.1V154.5ZM587.4 182.8V141.3H590.1V182.8H587.4Z" fill="#242438"/>
<path d="M617.8 179.1C615.5 179.1 613.4 178.7 611.6 177.9C609.8 177.1 608.4 176 607.3 174.6C606.3 173.2 605.7 171.5 605.6 169.7H611.7C611.8 170.6 612.1 171.4 612.6 172C613.1 172.7 613.9 173.2 614.8 173.5C615.7 173.9 616.7 174.1 617.8 174.1C619 174.1 620 173.9 621 173.5C621.9 173.1 622.6 172.5 623.2 171.8C623.8 171.1 624 170.2 624 169.2C624 168.2 623.8 167.3 623.2 166.5C622.7 165.7 621.9 165.1 620.9 164.7C619.9 164.3 618.7 164.1 617.3 164.1H614.4V159.5H617.3C618.5 159.5 619.5 159.3 620.3 158.9C621.2 158.5 621.9 157.9 622.4 157.2C622.9 156.5 623.1 155.6 623.1 154.7C623.1 153.8 622.9 152.9 622.5 152.2C622.1 151.5 621.5 151 620.7 150.6C619.9 150.2 619 150 618 150C617 150 616 150.2 615.2 150.6C614.3 151 613.6 151.5 613.1 152.2C612.6 152.9 612.3 153.7 612.3 154.6H606.5C606.5 152.7 607.1 151.1 608.1 149.7C609.1 148.3 610.5 147.2 612.2 146.4C613.9 145.6 615.9 145.2 618 145.2C620.2 145.2 622.1 145.6 623.8 146.4C625.4 147.2 626.7 148.3 627.6 149.7C628.5 151.1 628.9 152.6 628.9 154.3C628.9 156.2 628.4 157.7 627.3 159C626.2 160.3 624.7 161.1 622.9 161.5V161.8C625.2 162.1 627 163 628.3 164.4C629.6 165.8 630.2 167.5 630.2 169.6C630.2 171.5 629.7 173.1 628.6 174.6C627.5 176.1 626.1 177.2 624.3 178C622.5 178.8 620.2 179.1 617.8 179.1Z" fill="#242438"/>
<path d="M647.4 179.1C645.8 179.1 644.3 178.8 642.7 178.3C641.2 177.8 639.8 176.9 638.6 175.6C637.4 174.4 636.4 172.7 635.7 170.7C635 168.6 634.6 166.1 634.6 163C634.6 160.2 634.9 157.6 635.5 155.4C636.1 153.2 637 151.3 638.1 149.7C639.2 148.2 640.6 147 642.2 146.2C643.8 145.4 645.6 145 647.6 145C649.7 145 651.5 145.4 653.2 146.2C654.8 147 656.1 148.1 657.1 149.6C658.1 151 658.7 152.6 658.9 154.4H653C652.7 153.1 652.1 152.1 651.1 151.3C650.1 150.5 649 150.2 647.6 150.2C645.3 150.2 643.5 151.2 642.3 153.2C641.1 155.2 640.4 157.9 640.4 161.4H640.6C641.1 160.4 641.8 159.6 642.7 159C643.5 158.3 644.5 157.8 645.6 157.4C646.7 157 647.8 156.8 649 156.8C650.9 156.8 652.7 157.3 654.2 158.2C655.8 159.1 657 160.4 657.9 162C658.8 163.6 659.3 165.5 659.2 167.6C659.2 169.8 658.7 171.7 657.7 173.5C656.7 175.2 655.3 176.6 653.5 177.6C651.8 178.6 649.7 179.1 647.4 179.1ZM647.3 174.2C648.5 174.2 649.5 173.9 650.5 173.3C651.4 172.7 652.2 172 652.7 171C653.2 170 653.5 168.9 653.5 167.7C653.5 166.5 653.3 165.4 652.7 164.5C652.2 163.5 651.5 162.8 650.5 162.2C649.5 161.6 648.5 161.4 647.4 161.4C646.5 161.4 645.7 161.6 645 161.9C644.2 162.2 643.6 162.7 643 163.3C642.4 163.9 642 164.6 641.7 165.3C641.4 166.1 641.2 166.9 641.2 167.8C641.2 169 641.5 170 642 171C642.5 172 643.3 172.8 644.2 173.3C645.1 173.9 646.1 174.2 647.3 174.2Z" fill="#242438"/>
<path d="M675.9 179.1C673.7 179.1 671.8 178.7 670.1 177.9C668.4 177.1 667 176 666 174.5C665 173.1 664.5 171.4 664.4 169.6H670.2C670.3 171 670.9 172.1 672 172.9C673.1 173.8 674.4 174.2 675.9 174.2C677.1 174.2 678.1 173.9 679 173.4C679.9 172.9 680.6 172.1 681.2 171.1C681.7 170.1 682 169 682 167.8C682 166.5 681.7 165.4 681.2 164.5C680.7 163.5 679.9 162.8 679 162.2C678.1 161.6 677 161.4 675.8 161.4C674.8 161.4 673.8 161.6 672.9 162C671.9 162.4 671.2 162.9 670.6 163.5L665.2 162.6L666.9 145.5H686.2V150.5H671.9L670.9 159.3H671.1C671.7 158.6 672.6 158 673.7 157.5C674.8 157 676.1 156.8 677.4 156.8C679.4 156.8 681.2 157.3 682.8 158.2C684.4 159.1 685.6 160.4 686.5 162.1C687.4 163.8 687.9 165.6 687.9 167.8C687.9 170 687.4 172 686.4 173.7C685.4 175.4 684 176.8 682.2 177.7C680.3 178.6 678.2 179.1 675.9 179.1Z" fill="#242438"/>
<path d="M704 178.6V145.4H716.7C719.1 145.4 721.1 145.8 722.7 146.5C724.3 147.3 725.5 148.3 726.3 149.6C727.1 150.9 727.5 152.4 727.5 154C727.5 155.4 727.2 156.5 726.7 157.5C726.2 158.5 725.5 159.2 724.6 159.8C723.7 160.4 722.7 160.8 721.7 161.1V161.4C722.9 161.5 724 161.8 725.1 162.5C726.2 163.2 727.1 164.1 727.8 165.3C728.5 166.5 728.8 167.9 728.8 169.6C728.8 171.3 728.4 172.9 727.6 174.2C726.8 175.6 725.5 176.6 723.8 177.4C722.1 178.2 720 178.6 717.5 178.6H704ZM710 159.5H716C717 159.5 718 159.3 718.8 158.9C719.6 158.5 720.3 158 720.8 157.3C721.3 156.6 721.5 155.8 721.5 154.8C721.5 153.5 721 152.5 720.1 151.6C719.2 150.8 717.9 150.4 716.1 150.4H710V159.5ZM710 173.6H716.5C718.7 173.6 720.3 173.2 721.2 172.3C722.2 171.5 722.7 170.4 722.7 169.1C722.7 168.1 722.5 167.2 722 166.4C721.5 165.6 720.8 165 719.9 164.5C719 164 717.9 163.8 716.7 163.8H710V173.6Z" fill="#242438"/>
<path d="M736.9 179C735.9 179 735.1 178.7 734.4 178C733.7 177.3 733.4 176.5 733.4 175.5C733.4 174.5 733.7 173.7 734.4 173C735.1 172.3 735.9 172 736.9 172C737.9 172 738.7 172.3 739.4 173C740.1 173.7 740.5 174.5 740.5 175.5C740.5 176.2 740.3 176.8 740 177.3C739.7 177.8 739.2 178.3 738.7 178.6C738.1 178.8 737.5 179 736.9 179Z" fill="#77809C"/>
</g>
<mask id="mask7_4_1930" style="mask-type:luminance" maskUnits="userSpaceOnUse" x="0" y="0" width="1521" height="255">
<path d="M1521 0H0V255H1521V0Z" fill="white"/>
</mask>
<g mask="url(#mask7_4_1930)">
<path d="M1468 59C1480.15 59 1490 49.1503 1490 37C1490 24.8497 1480.15 15 1468 15C1455.85 15 1446 24.8497 1446 37C1446 49.1503 1455.85 59 1468 59Z" fill="#D4F6FF"/>
</g>
<mask id="mask8_4_1930" style="mask-type:luminance" maskUnits="userSpaceOnUse" x="0" y="0" width="1521" height="255">
<path d="M1521 0H0V255H1521V0Z" fill="white"/>
</mask>
<g mask="url(#mask8_4_1930)">
<path d="M1264.3 28C1310 28 1355.7 28 1401.4 28C1411.9 30.5 1416.7 38.2 1416.6 49.4C1416.3 89.9 1416.5 130.3 1416.5 170.8C1416.5 171.8 1416.5 172.8 1416.5 173.7C1422.4 175.2 1424.2 177.6 1424.2 183.6C1424.2 184.2 1424.3 184.9 1424.2 185.5C1424.1 186.7 1424.5 187.3 1425.8 187.6C1428.4 188.3 1430.3 190 1431.4 192.5C1432.8 195.9 1434.2 199.4 1435.6 202.9C1435.9 203.6 1436.6 204.4 1437.3 204.8C1439.7 206.1 1440.3 208.1 1438.8 210.4C1438.4 211.1 1438.2 212 1438.2 212.8C1438.6 217.1 1439.2 221.3 1439.6 225.6C1439.9 228.5 1438.6 230.2 1436.3 230.3C1434 230.4 1432.8 228.9 1432.6 226C1432.2 221.2 1431.6 216.5 1431.1 211.9C1430.4 211.7 1430.1 211.6 1429.9 211.6C1414.2 211.6 1398.4 211.6 1382.7 211.6C1381.1 211.6 1381 212.5 1380.8 213.6C1377.4 229.6 1380 244.7 1386.9 259.3C1387.2 259.8 1387.8 260.6 1388.3 260.6C1393 260.7 1397.6 260.7 1402.4 260.7C1402.4 259.7 1402.4 258.9 1402.4 258.1C1402.4 257.3 1402.4 256.5 1402.4 255.8C1402.5 253.3 1403.9 251.8 1406 251.8C1408 251.9 1409.3 253.3 1409.4 255.8C1409.4 257.4 1409.4 259 1409.4 260.7C1414 260.7 1418.3 260.6 1422.6 260.7C1424 260.7 1424.8 260.3 1425.2 259C1427.2 252.9 1429.3 246.8 1431.3 240.7C1432 238.4 1433.5 237.3 1435.6 237.7C1437.6 238.1 1438.7 239.9 1438.2 242.2C1437.6 244.8 1437 247.4 1436.2 249.9C1435 253.5 1433.7 257.1 1432.4 260.8C1437 260.8 1441.5 260.9 1446.1 260.8C1448.3 260.7 1449.9 261.3 1451 263.2C1451 264 1451 264.8 1451 265.5C1449.8 267.5 1448 267.9 1445.8 267.9C1369.4 267.9 1293 267.9 1216.6 267.9C1216.2 267.9 1215.8 267.9 1215.4 267.9C1213 267.8 1211.5 266.5 1211.4 264.5C1211.3 262.4 1212.9 261 1215.4 260.9C1217.2 260.9 1218.9 260.9 1220.7 260.9C1220.7 259.9 1220.7 259.3 1220.7 258.7C1220.7 254.5 1220.7 250.3 1220.7 246.1C1220.7 243.9 1222.2 242.4 1224.1 242.4C1226.1 242.3 1227.6 243.9 1227.7 246.2C1227.7 247.1 1227.7 247.9 1227.7 248.8C1227.7 252.8 1227.7 256.9 1227.7 260.9C1238 260.9 1248 260.9 1258.1 260.9C1258.1 254.6 1258.1 248.4 1258.1 242.3C1258.1 238.4 1260.4 235.6 1264.1 235.6C1271.7 235.4 1279.2 235.4 1286.8 235.6C1290.4 235.7 1292.7 238.3 1292.8 241.8C1292.9 243.6 1292.8 245.4 1292.8 247.2C1292.8 251.8 1292.8 256.4 1292.8 261C1303.1 261 1313.1 261 1323 261C1323 245 1323 229.1 1323 213.3C1291.1 213.3 1259.5 213.3 1227.7 213.3C1227.7 219.3 1227.7 225.2 1227.7 231C1227.7 233.9 1226.4 235.5 1224.1 235.5C1221.9 235.5 1220.7 233.9 1220.7 231.1C1220.7 226 1220.7 220.8 1220.7 215.7C1220.7 214.9 1220.7 214.1 1220.7 213.3C1216.3 212.9 1215.1 212.1 1215 209.8C1214.9 207.4 1216.2 206.5 1220.7 205.9C1220.7 203.1 1220.7 200.2 1220.7 197.3C1220.6 186.3 1223.5 176.1 1229.4 166.7C1230 165.8 1230.3 164.5 1230.3 163.4C1230.3 135.7 1230.3 108 1230.3 80.4C1230.3 79.4 1229.5 78.3 1229.3 77.3C1229.1 76 1228.6 74.3 1229.2 73.4C1230.3 72 1230.3 70.6 1230.3 69.1C1230.3 67.2 1230.3 65.2 1230.3 63.3C1230.3 56.7 1233.2 53.8 1239.9 53.8C1242.9 53.8 1245.9 53.8 1249.2 53.8C1249.2 51.2 1249.1 48.9 1249.2 46.6C1249.4 39.6 1252.5 34.2 1258.7 30.8C1260.6 29.2 1262.5 28.7 1264.3 28ZM1315.5 109.1C1315.5 105.9 1315.5 102.8 1315.5 99.7C1315.5 98 1315.7 96.4 1314.4 94.9C1313.8 94.2 1314.2 92.6 1314.4 91.4C1314.6 90 1315.3 88.7 1315.5 87.3C1315.7 85.3 1315.5 83.3 1315.5 81.2C1315.5 74.7 1318.5 71.8 1325 71.8C1327.9 71.8 1330.9 71.8 1334 71.8C1334 68.9 1334 66.4 1334 63.8C1334 54.6 1339.4 49.1 1348.7 49.1C1362 49.1 1375.2 49.1 1388.5 49.1C1398 49.1 1403.4 54.5 1403.4 64.1C1403.4 99.7 1403.4 135.3 1403.4 171C1403.4 171.9 1403.4 172.8 1403.4 173.8C1405.5 173.8 1407.4 173.8 1409.5 173.8C1409.5 173 1409.6 172.3 1409.6 171.6C1409.6 129.9 1409.6 88.2 1409.6 46.5C1409.6 45.3 1409.5 44 1409.2 42.8C1407.8 37.8 1403.7 34.9 1397.9 34.9C1354.8 34.9 1311.7 34.9 1268.6 34.9C1268 34.9 1267.4 34.9 1266.7 34.9C1262.2 35.2 1258 38.3 1257.2 42.6C1256.5 45.9 1256.7 49.3 1256.5 53C1260.3 53 1263.5 52.9 1266.8 53C1271.3 53.2 1274.4 56.2 1274.5 60.7C1274.6 63.4 1274.4 66.2 1274.6 68.9C1274.7 70 1275.4 71.1 1275.6 72.3C1275.8 73.7 1275.8 75.1 1275.6 76.4C1275.5 77.6 1274.6 78.7 1274.6 79.8C1274.6 88.8 1274.7 97.7 1274.7 106.7C1274.7 107.4 1274.8 108.2 1274.8 109C1288.3 109.1 1301.8 109.1 1315.5 109.1ZM1396.3 173.8C1396.3 172.9 1396.3 172.1 1396.3 171.3C1396.3 135.5 1396.3 99.7 1396.3 63.9C1396.3 58.4 1394 56.1 1388.5 56.1C1379.8 56.1 1371 56.1 1362.3 56.1C1357.5 56.1 1352.6 56 1347.8 56.1C1344.2 56.2 1341.4 58.3 1341.2 61.4C1341 64.7 1341.1 68.1 1341.1 71.7C1344.6 71.7 1348.1 71.6 1351.5 71.7C1356.2 71.8 1359.3 75.1 1359.4 79.8C1359.4 82.5 1359.3 85.3 1359.5 88C1359.5 89 1359.9 90.1 1360.5 90.9C1361.4 92.4 1361.5 93.7 1360.6 95.3C1360.1 96.2 1359.6 97.4 1359.6 98.4C1359.5 137.5 1359.6 176.5 1359.6 215.6C1359.6 216.4 1359.7 217.2 1359.7 218.1C1364.3 218.1 1368.6 218.1 1373 218.1C1373.2 216.9 1373.3 215.8 1373.6 214.8C1374 212.9 1374.5 211.2 1372.9 209.4C1371.7 208 1372.7 205.6 1374.5 205C1375.9 204.5 1376.3 203.6 1376.8 202.4C1378.1 199.1 1379.4 195.7 1380.8 192.5C1381.8 190.2 1383.6 188.4 1386 187.8C1387.6 187.4 1388.2 186.7 1388 185.1C1387.9 184.4 1388 183.7 1388 183C1387.8 177.2 1390.3 174.4 1396.3 173.8ZM1228.1 205.3C1259.8 205.3 1291.5 205.3 1322.9 205.3C1322.9 199.8 1323.6 194.3 1322.8 189.1C1319.6 169 1308 155.5 1288.6 150C1269.1 144.5 1252.2 150.1 1238.9 165.4C1229 176.8 1226.8 190.5 1228.1 205.3ZM1267.1 89.6C1267.1 85.5 1267.1 81.8 1267.1 78.1C1257.2 78.1 1247.5 78.1 1237.7 78.1C1237.7 81.9 1237.7 85.6 1237.7 89.6C1240.2 89.6 1242.5 89.5 1244.8 89.7C1245.9 89.8 1247.3 90.1 1247.9 90.8C1248.6 91.7 1249 93.5 1248.5 94.3C1247.9 95.4 1246.3 96.3 1245.1 96.5C1242.7 96.8 1240.2 96.6 1237.7 96.6C1237.7 105.1 1237.7 113.3 1237.7 121.5C1247.6 121.5 1257.4 121.5 1267.2 121.5C1267.2 113.2 1267.2 105 1267.2 96.6C1264.7 96.6 1262.3 96.7 1259.9 96.6C1257.5 96.5 1256 95.1 1256 93.1C1256 91 1257.5 89.6 1260 89.6C1262.3 89.6 1264.6 89.6 1267.1 89.6ZM1352.2 193.2C1352.2 182.4 1352.2 171.7 1352.2 161.1C1342.3 161.1 1332.5 161.1 1322.6 161.1C1322.4 164.5 1322.4 167.5 1324.2 170.6C1328.1 177.5 1329.9 185.1 1330.4 193.2C1337.7 193.2 1344.8 193.2 1352.2 193.2ZM1322.5 153.7C1332.6 153.7 1342.4 153.7 1352.2 153.7C1352.2 145.3 1352.2 137.1 1352.2 128.7C1342.6 128.7 1333.2 128.7 1323.8 128.8C1323.4 128.8 1322.6 129.6 1322.6 130C1322.5 137.9 1322.5 145.7 1322.5 153.7ZM1352.2 121.6C1352.2 113.2 1352.2 105.1 1352.2 96.9C1342.3 96.9 1332.5 96.9 1322.6 96.9C1322.6 105.2 1322.6 113.3 1322.6 121.6C1332.5 121.6 1342.3 121.6 1352.2 121.6ZM1315.3 128.3C1301.5 128.3 1288 128.3 1274.4 128.3C1274.4 132.5 1274.4 136.6 1274.4 141C1290.3 140.9 1303.8 146.6 1315.3 157.9C1315.3 147.7 1315.3 138.1 1315.3 128.3ZM1237.6 156.3C1246.2 148.2 1256 143.5 1267.1 141.5C1267.1 137.2 1267.1 133.1 1267.1 128.8C1257.2 128.8 1247.5 128.8 1237.6 128.8C1237.6 138 1237.6 146.9 1237.6 156.3ZM1330.5 237.2C1330.5 245 1330.5 252.6 1330.5 260.3C1337.8 260.3 1345 260.3 1352.1 260.3C1352.1 252.5 1352.1 244.9 1352.1 237.2C1344.9 237.2 1337.9 237.2 1330.5 237.2ZM1428.8 204.4C1427.4 201.2 1426.3 198.3 1425 195.5C1424.7 194.8 1423.4 194.2 1422.6 194.2C1411.5 194.1 1400.5 194.1 1389.4 194.2C1388.6 194.2 1387.5 194.6 1387.2 195.1C1385.8 198 1384.5 201.1 1383.1 204.4C1398.6 204.4 1413.4 204.4 1428.8 204.4ZM1265.4 242C1265.4 248.2 1265.4 254.3 1265.4 260.4C1272.3 260.4 1279 260.4 1285.8 260.4C1285.8 254.2 1285.8 248.2 1285.8 242C1279 242 1272.3 242 1265.4 242ZM1359.4 260.4C1366.2 260.4 1372.7 260.4 1379.1 260.4C1376.9 252.7 1374.6 245.1 1372.4 237.3C1368.3 237.3 1363.9 237.3 1359.5 237.3C1359.4 245.1 1359.4 252.6 1359.4 260.4ZM1330.5 218.2C1337.9 218.2 1344.9 218.2 1352.1 218.2C1352.1 212.3 1352.1 206.5 1352.1 200.6C1344.8 200.6 1337.6 200.6 1330.4 200.6C1330.4 202.3 1330.4 203.7 1330.4 205.2C1334.7 205.9 1336.2 206.8 1336.1 208.9C1336 212.5 1333.1 212.5 1330.4 212.6C1330.5 214.5 1330.5 216.2 1330.5 218.2ZM1322.5 89.6C1332.7 89.6 1342.4 89.6 1352.3 89.6C1352.3 86.5 1352.4 83.5 1352.2 80.6C1352.2 80 1351.2 79 1350.7 79C1341.8 78.9 1332.9 78.9 1324.1 79C1323.6 79 1322.6 79.9 1322.6 80.5C1322.4 83.4 1322.5 86.4 1322.5 89.6ZM1267.3 70.9C1267.3 67.7 1267.4 64.8 1267.2 61.8C1267.2 61.2 1266.2 60.2 1265.6 60.2C1256.8 60.1 1248 60.1 1239.2 60.2C1238.6 60.2 1237.6 61.1 1237.6 61.6C1237.5 64.7 1237.5 67.8 1237.5 71C1247.5 70.9 1257.2 70.9 1267.3 70.9ZM1372.3 225.5C1358.3 225.5 1344.5 225.5 1330.6 225.5C1330.6 227.1 1330.6 228.5 1330.6 230C1344.6 230 1358.4 230 1372.3 230C1372.3 228.5 1372.3 227.1 1372.3 225.5ZM1315.4 116.5C1301.7 116.5 1288.2 116.5 1274.7 116.5C1274.7 118.1 1274.7 119.5 1274.7 121C1288.4 121 1301.9 121 1315.4 121C1315.4 119.4 1315.4 118 1315.4 116.5ZM1417.2 187C1417.2 185.6 1417.1 184.4 1417.2 183.2C1417.3 181.5 1416.7 180.9 1414.9 181C1409.9 181.1 1404.9 181 1399.9 181C1394.5 181 1394.5 181 1394.8 186.5C1394.8 186.6 1394.9 186.8 1395.1 187C1402.4 187 1409.6 187 1417.2 187Z" fill="#15BEE6"/>
<path d="M1264.2 180.8C1264.5 176.7 1266.1 172.3 1269.3 168.6C1273.1 164.2 1278.3 164.2 1281.9 168.6C1285.5 172.9 1287.6 177.9 1286.8 183.7C1286 189.9 1280.5 193.9 1274.3 193.3C1268.5 192.7 1264.1 187.7 1264.2 180.8ZM1270.7 181.1C1271.1 184.3 1272.9 186.3 1275.6 186.3C1278.2 186.3 1280.5 184.2 1280 181.6C1279.4 178.8 1278.1 176.1 1276.9 173.4C1276.3 172.1 1275.1 172.1 1274.4 173.4C1273.1 175.9 1271.9 178.5 1270.7 181.1Z" fill="#15BEE6"/>
</g>
<mask id="mask9_4_1930" style="mask-type:luminance" maskUnits="userSpaceOnUse" x="0" y="0" width="1521" height="255">
<path d="M1521 0H0V255H1521V0Z" fill="white"/>
</mask>
<g mask="url(#mask9_4_1930)">
<path d="M57.5 210.7C57.5 209.4 57.7 208.2 58 207.1C58.3 206 58.8 205 59.4 204.1H60.5C60.3 204.4 60 204.9 59.8 205.3C59.6 205.8 59.4 206.3 59.2 206.9C59 207.5 58.9 208.1 58.8 208.7C58.7 209.3 58.7 209.9 58.7 210.6C58.7 211.4 58.8 212.2 58.9 213.1C59.1 213.9 59.3 214.7 59.5 215.4C59.8 216.1 60.1 216.7 60.4 217.2H59.3C58.7 216.3 58.2 215.3 57.9 214.2C57.6 213.1 57.5 212 57.5 210.7Z" fill="#D3D3D3"/>
<path d="M69.4 204.7H70.6999V211.6C70.6999 212.3 70.4999 213 70.1999 213.5C69.8999 214.1 69.4 214.5 68.8 214.8C68.2 215.1 67.4999 215.3 66.6999 215.3C65.8999 215.3 65.1999 215.1 64.5999 214.8C63.9999 214.5 63.5 214 63.2 213.5C62.9 212.9 62.7 212.3 62.7 211.6V204.7H64V211.5C64 212 64.1 212.5 64.3 212.9C64.5 213.3 64.8 213.6 65.3 213.8C65.7 214 66.2 214.1 66.8 214.1C67.4 214.1 67.9 214 68.3 213.8C68.7 213.6 69 213.3 69.3 212.9C69.6 212.5 69.5999 212 69.5999 211.5V204.7H69.4Z" fill="#D3D3D3"/>
<path d="M81.5 204.7V215.2H80.3L74.6 207H74.5V215.2H73.2V204.7H74.4L80.1 212.9H80.2V204.7H81.5Z" fill="#D3D3D3"/>
<path d="M92.5 208H91.2C91.1 207.6 91 207.3 90.8 207C90.6 206.7 90.4 206.5 90.1 206.3C89.8 206.1 89.5 206 89.2 205.9C88.9 205.8 88.5 205.8 88.2 205.8C87.6 205.8 87 206 86.5 206.3C86 206.6 85.6 207.1 85.3 207.7C85 208.3 84.8 209.1 84.8 210C84.8 210.9 85 211.7 85.3 212.3C85.6 212.9 86 213.4 86.5 213.7C87 214 87.6 214.2 88.2 214.2C88.5 214.2 88.9 214.2 89.2 214.1C89.5 214 89.8 213.9 90.1 213.7C90.4 213.5 90.6 213.3 90.8 213C91 212.7 91.1 212.4 91.2 212H92.5C92.4 212.5 92.2 213 92 213.4C91.7 213.8 91.4 214.2 91.1 214.5C90.7 214.8 90.3 215 89.8 215.2C89.3 215.4 88.8 215.4 88.3 215.4C87.4 215.4 86.6 215.2 85.9 214.7C85.2 214.3 84.7 213.6 84.3 212.8C83.9 212 83.7 211 83.7 209.9C83.7 208.8 83.9 207.8 84.3 207C84.7 206.2 85.2 205.6 85.9 205.1C86.6 204.7 87.4 204.4 88.3 204.4C88.8 204.4 89.3 204.5 89.8 204.6C90.3 204.7 90.7 205 91.1 205.3C91.5 205.6 91.8 206 92 206.4C92.2 206.9 92.4 207.4 92.5 208Z" fill="#D3D3D3"/>
<path d="M93.8999 205.8V204.7H101.8V205.8H98.4999V215.2H97.1999V205.8H93.8999Z" fill="#D3D3D3"/>
<path d="M104.2 215.2H102.9L106.7 204.7H108L111.8 215.2H110.5L107.4 206.4H107.3L104.2 215.2ZM104.7 211.1H110.1V212.2H104.7V211.1Z" fill="#D3D3D3"/>
<path d="M116.7 215.2H113.5V204.7H116.9C117.9 204.7 118.8 204.9 119.5 205.3C120.2 205.7 120.8 206.3 121.2 207.1C121.6 207.9 121.8 208.8 121.8 209.9C121.8 211 121.6 211.9 121.2 212.7C120.8 213.5 120.2 214.1 119.5 214.5C118.8 214.9 117.8 215.2 116.7 215.2ZM114.8 214H116.7C117.6 214 118.3 213.8 118.9 213.5C119.5 213.2 119.9 212.7 120.2 212.1C120.5 211.5 120.6 210.7 120.6 209.9C120.6 209.1 120.5 208.3 120.2 207.7C119.9 207.1 119.5 206.6 119 206.3C118.5 206 117.8 205.8 116.9 205.8H114.9V214H114.8Z" fill="#D3D3D3"/>
<path d="M127.7 215.2V214.3L131.2 210.5C131.6 210.1 131.9 209.7 132.2 209.3C132.5 209 132.7 208.7 132.8 208.4C132.9 208.1 133 207.8 133 207.5C133 207.1 132.9 206.8 132.7 206.5C132.5 206.2 132.3 206 132 205.9C131.7 205.8 131.4 205.7 131 205.7C130.6 205.7 130.2 205.8 129.9 205.9C129.6 206.1 129.4 206.3 129.2 206.6C129 206.9 129 207.2 129 207.6H127.8C127.8 207 127.9 206.4 128.2 206C128.5 205.6 128.9 205.2 129.4 204.9C129.9 204.6 130.4 204.5 131.1 204.5C131.7 204.5 132.3 204.6 132.7 204.9C133.2 205.2 133.5 205.5 133.8 205.9C134.1 206.3 134.2 206.8 134.2 207.4C134.2 207.8 134.1 208.2 134 208.5C133.9 208.9 133.6 209.3 133.3 209.7C133 210.1 132.5 210.7 131.9 211.3L129.5 213.8V213.9H134.4V215H127.7V215.2Z" fill="#D3D3D3"/>
<path d="M139.9 215.3C139.1 215.3 138.5 215.1 137.9 214.7C137.4 214.3 136.9 213.7 136.7 212.9C136.4 212.1 136.3 211.1 136.3 210C136.3 208.9 136.4 207.9 136.7 207.1C137 206.3 137.4 205.7 137.9 205.3C138.4 204.9 139.1 204.7 139.9 204.7C140.7 204.7 141.3 204.9 141.9 205.3C142.4 205.7 142.9 206.3 143.1 207.1C143.4 207.9 143.5 208.9 143.5 210C143.5 211.1 143.4 212.1 143.1 212.9C142.8 213.7 142.4 214.3 141.9 214.7C141.3 215.1 140.6 215.3 139.9 215.3ZM139.9 214.2C140.7 214.2 141.3 213.8 141.7 213.1C142.1 212.4 142.3 211.3 142.3 209.9C142.3 209 142.2 208.2 142 207.6C141.8 207 141.5 206.5 141.2 206.1C140.8 205.8 140.4 205.6 139.9 205.6C139.1 205.6 138.6 206 138.1 206.7C137.7 207.4 137.5 208.5 137.5 209.9C137.5 210.8 137.6 211.6 137.8 212.2C138 212.8 138.3 213.3 138.6 213.6C138.9 213.9 139.4 214.2 139.9 214.2Z" fill="#D3D3D3"/>
<path d="M145.5 215.2V214.3L149 210.5C149.4 210.1 149.7 209.7 150 209.3C150.3 209 150.5 208.7 150.6 208.4C150.7 208.1 150.8 207.8 150.8 207.5C150.8 207.1 150.7 206.8 150.5 206.5C150.3 206.2 150.1 206 149.8 205.9C149.5 205.8 149.2 205.7 148.8 205.7C148.4 205.7 148 205.8 147.7 205.9C147.4 206.1 147.2 206.3 147 206.6C146.8 206.9 146.8 207.2 146.8 207.6H145.6C145.6 207 145.7 206.4 146 206C146.3 205.6 146.7 205.2 147.2 204.9C147.7 204.6 148.2 204.5 148.9 204.5C149.5 204.5 150.1 204.6 150.5 204.9C151 205.2 151.3 205.5 151.6 205.9C151.9 206.3 152 206.8 152 207.4C152 207.8 151.9 208.2 151.8 208.5C151.7 208.9 151.4 209.3 151.1 209.7C150.8 210.1 150.3 210.7 149.7 211.3L147.3 213.8V213.9H152.2V215H145.5V215.2Z" fill="#D3D3D3"/>
<path d="M153.9 213V212L158.5 204.7H159.3V206.3H158.8L155.3 211.8V211.9H161.5V213H153.9ZM158.9 215.2V212.7V212.2V204.7H160.1V215.2H158.9Z" fill="#D3D3D3"/>
<path d="M166 210.7C166 212 165.8 213.2 165.5 214.3C165.2 215.4 164.7 216.4 164.1 217.3H163C163.2 217 163.5 216.5 163.7 216.1C163.9 215.6 164.1 215.1 164.3 214.5C164.5 213.9 164.6 213.3 164.7 212.7C164.8 212.1 164.8 211.5 164.8 210.8C164.8 210 164.7 209.2 164.6 208.3C164.5 207.4 164.2 206.7 164 206C163.7 205.3 163.4 204.7 163.1 204.2H164.2C164.8 205.1 165.3 206.1 165.6 207.2C165.9 208.3 166 209.5 166 210.7Z" fill="#D3D3D3"/>
</g>
<mask id="mask10_4_1930" style="mask-type:luminance" maskUnits="userSpaceOnUse" x="0" y="0" width="1521" height="255">
<path d="M1521 0H0V255H1521V0Z" fill="white"/>
</mask>
<g mask="url(#mask10_4_1930)">
<path d="M64.9 60.8999H58V39.3999H65.2C67.3 39.3999 69.1 39.7999 70.6 40.6999C72.1 41.5999 73.3 42.7999 74.1 44.3999C74.9 45.9999 75.3 47.8999 75.3 50.0999C75.3 52.2999 74.9 54.2999 74.1 55.8999C73.3 57.4999 72.1 58.6999 70.6 59.5999C68.9 60.4999 67.1 60.8999 64.9 60.8999ZM61.2 58.0999H64.7C66.3 58.0999 67.7 57.7999 68.8 57.1999C69.9 56.5999 70.7 55.6999 71.2 54.4999C71.7 53.2999 72 51.8999 72 50.1999C72 48.4999 71.7 47.0999 71.2 45.8999C70.7 44.6999 69.9 43.7999 68.8 43.1999C67.7 42.5999 66.4 42.2999 64.9 42.2999H61.2V58.0999Z" fill="#242438"/>
<path d="M80.6001 42.3C80.1001 42.3 79.6001 42.1 79.2001 41.7C78.8001 41.3 78.6001 40.9 78.6001 40.4C78.6001 39.9 78.8001 39.4 79.2001 39.1C79.6001 38.7 80.1001 38.5 80.6001 38.5C81.1001 38.5 81.6001 38.7 82.0001 39.1C82.4001 39.5 82.6001 39.9 82.6001 40.4C82.6001 40.9 82.4001 41.4 82.0001 41.7C81.6001 42.1 81.1001 42.3 80.6001 42.3ZM79.0001 60.9V44.8H82.1001V60.9H79.0001Z" fill="#242438"/>
<path d="M92.3 61.1999C91 61.1999 89.8 60.8999 88.8 60.1999C87.8 59.4999 87 58.5999 86.4 57.2999C85.8 56.0999 85.5 54.5999 85.5 52.7999C85.5 51.0999 85.8 49.5999 86.4 48.2999C87 47.0999 87.8 46.0999 88.8 45.4999C89.8 44.7999 91 44.4999 92.3 44.4999C93.3 44.4999 94.1 44.6999 94.7 44.9999C95.3 45.2999 95.8 45.6999 96.1 46.1999C96.4 46.5999 96.7 46.9999 96.9 47.3999H97.1V39.3999H100.2V60.8999H97.1V58.3999H97C96.8 58.6999 96.5 59.0999 96.2 59.5999C95.8 59.9999 95.4 60.3999 94.7 60.7999C94.1 60.9999 93.3 61.1999 92.3 61.1999ZM93 58.4999C93.9 58.4999 94.7 58.2999 95.3 57.7999C95.9 57.2999 96.4 56.6999 96.7 55.7999C97 54.8999 97.2 53.9999 97.2 52.7999C97.2 51.6999 97 50.6999 96.7 49.8999C96.4 49.0999 95.9 48.3999 95.3 47.8999C94.7 47.3999 93.9 47.1999 93 47.1999C92.1 47.1999 91.3 47.3999 90.6 47.8999C89.9 48.3999 89.5 49.0999 89.2 49.8999C88.9 50.6999 88.7 51.6999 88.7 52.7999C88.7 53.8999 88.9 54.7999 89.2 55.6999C89.5 56.5999 90 57.1999 90.6 57.6999C91.2 58.1999 92.1 58.4999 93 58.4999Z" fill="#242438"/>
<path d="M114.6 66.9001C114.1 66.9001 113.7 66.9001 113.3 66.8001C112.9 66.7001 112.6 66.6 112.4 66.6L113.2 64C113.8 64.2001 114.3 64.2 114.7 64.2C115.1 64.2 115.5 64 115.9 63.7001C116.3 63.4001 116.6 62.9001 116.8 62.2001L117.2 61.1L111.3 44.8H114.7L118.8 57.3H119L123.1 44.8H126.5L119.7 63C119.4 63.8 119 64.5 118.5 65.1C118 65.7 117.5 66.1001 116.8 66.4001C116.2 66.8001 115.5 66.9001 114.6 66.9001Z" fill="#242438"/>
<path d="M136.1 61.2001C134.6 61.2001 133.3 60.9001 132.1 60.2001C131 59.5001 130.1 58.5001 129.5 57.3001C128.9 56.1001 128.6 54.6001 128.6 52.9001C128.6 51.2001 128.9 49.8001 129.5 48.5001C130.1 47.2001 131 46.3001 132.1 45.6001C133.2 44.9001 134.5 44.6001 136.1 44.6001C137.7 44.6001 138.9 44.9001 140.1 45.6001C141.2 46.3001 142.1 47.3001 142.7 48.5001C143.3 49.7001 143.6 51.2001 143.6 52.9001C143.6 54.6001 143.3 56.0001 142.7 57.3001C142.1 58.5001 141.2 59.5001 140.1 60.2001C138.9 60.9001 137.6 61.2001 136.1 61.2001ZM136.1 58.6001C137.1 58.6001 137.9 58.3001 138.5 57.8001C139.1 57.3001 139.6 56.6001 139.9 55.7001C140.2 54.8001 140.4 53.9001 140.4 52.9001C140.4 51.9001 140.2 50.9001 139.9 50.1001C139.6 49.2001 139.1 48.5001 138.5 48.0001C137.9 47.5001 137 47.2001 136.1 47.2001C135.1 47.2001 134.3 47.5001 133.7 48.0001C133.1 48.5001 132.6 49.2001 132.3 50.1001C132 51.0001 131.8 51.9001 131.8 52.9001C131.8 53.9001 132 54.9001 132.3 55.7001C132.6 56.6001 133.1 57.2001 133.7 57.8001C134.3 58.3001 135.1 58.6001 136.1 58.6001Z" fill="#242438"/>
<path d="M157.3 54.2001V44.8H160.4V60.9001H157.3V58.1H157.1C156.7 59 156.1 59.7001 155.3 60.2001C154.5 60.8001 153.5 61.1 152.3 61.1C151.3 61.1 150.4 60.9001 149.6 60.4001C148.8 59.9001 148.2 59.3001 147.7 58.4001C147.2 57.5001 147 56.4 147 55.1V44.8H150.1V54.7001C150.1 55.8001 150.4 56.7 151 57.3C151.6 58 152.4 58.3 153.4 58.3C154 58.3 154.6 58.2001 155.2 57.9001C155.8 57.6001 156.3 57.2 156.7 56.6C157.1 56 157.3 55.1 157.3 54.2001Z" fill="#242438"/>
<path d="M172.5 60.8999V39.3999H175.6V60.8999H172.5ZM175.4 55.3999V51.5999H175.9L182.3 44.7999H186.1L178.8 52.5999H178.3L175.4 55.3999ZM182.6 60.8999L176.8 53.1999L179 50.9999L186.5 60.7999H182.6V60.8999Z" fill="#15BEE6"/>
<path d="M192 51.3V60.9H188.9V44.8H191.9V47.4H192.1C192.5 46.5 193.1 45.9 193.8 45.3C194.6 44.8 195.6 44.5 196.8 44.5C197.9 44.5 198.9 44.7 199.7 45.2C200.5 45.7 201.2 46.3 201.6 47.2C202.1 48.1 202.3 49.2 202.3 50.5V60.7H199.2V51C199.2 49.8 198.9 48.9 198.3 48.3C197.7 47.6 196.9 47.3 195.8 47.3C195.1 47.3 194.4 47.5 193.9 47.8C193.4 48.1 192.9 48.6 192.6 49.2C192.2 49.7 192 50.5 192 51.3Z" fill="#15BEE6"/>
<path d="M213.3 61.2001C211.8 61.2001 210.5 60.9001 209.3 60.2001C208.2 59.5001 207.3 58.5001 206.7 57.3001C206.1 56.1001 205.8 54.6001 205.8 52.9001C205.8 51.2001 206.1 49.8001 206.7 48.5001C207.3 47.2001 208.2 46.3001 209.3 45.6001C210.4 44.9001 211.7 44.6001 213.3 44.6001C214.9 44.6001 216.1 44.9001 217.3 45.6001C218.4 46.3001 219.3 47.3001 219.9 48.5001C220.5 49.7001 220.8 51.2001 220.8 52.9001C220.8 54.6001 220.5 56.0001 219.9 57.3001C219.3 58.5001 218.4 59.5001 217.3 60.2001C216.1 60.9001 214.8 61.2001 213.3 61.2001ZM213.3 58.6001C214.3 58.6001 215.1 58.3001 215.7 57.8001C216.3 57.3001 216.8 56.6001 217.1 55.7001C217.4 54.8001 217.6 53.9001 217.6 52.9001C217.6 51.9001 217.4 50.9001 217.1 50.1001C216.8 49.2001 216.3 48.5001 215.7 48.0001C215.1 47.5001 214.2 47.2001 213.3 47.2001C212.3 47.2001 211.5 47.5001 210.9 48.0001C210.3 48.5001 209.8 49.2001 209.5 50.1001C209.2 51.0001 209 51.9001 209 52.9001C209 53.9001 209.2 54.9001 209.5 55.7001C209.8 56.6001 210.3 57.2001 210.9 57.8001C211.5 58.3001 212.3 58.6001 213.3 58.6001Z" fill="#15BEE6"/>
<path d="M227.8 60.9001L223.1 44.8H226.3L229.5 56.6H229.7L232.9 44.8H236.1L239.2 56.6H239.4L242.5 44.8H245.7L241 60.9001H237.8L234.5 49.3H234.3L231 60.9001H227.8Z" fill="#15BEE6"/>
<path d="M252.1 54.4999C252.1 53.1999 252.2 52.1999 252.5 51.3999C252.8 50.5999 253.1 49.9999 253.6 49.4999C254.1 48.9999 254.6 48.5999 255.3 48.1999C255.7 47.8999 256.1 47.5999 256.4 47.2999C256.7 46.9999 257 46.5999 257.2 46.1999C257.4 45.7999 257.5 45.2999 257.5 44.7999C257.5 44.1999 257.4 43.5999 257.1 43.1999C256.8 42.6999 256.4 42.3999 255.9 42.0999C255.4 41.7999 254.9 41.6999 254.3 41.6999C253.8 41.6999 253.2 41.7999 252.8 41.9999C252.4 42.1999 251.9 42.5999 251.6 42.9999C251.3 43.3999 251.1 44.0999 251 44.7999H247.8C247.8 43.4999 248.2 42.4999 248.8 41.5999C249.4 40.6999 250.2 40.0999 251.1 39.5999C252 39.0999 253.1 38.8999 254.3 38.8999C255.6 38.8999 256.7 39.0999 257.7 39.5999C258.7 40.0999 259.4 40.6999 259.9 41.5999C260.4 42.4999 260.7 43.4999 260.7 44.5999C260.7 45.3999 260.6 46.0999 260.3 46.6999C260.1 47.2999 259.7 47.8999 259.3 48.3999C258.8 48.8999 258.3 49.2999 257.7 49.6999C257.1 50.0999 256.6 50.4999 256.3 50.8999C255.9 51.2999 255.7 51.7999 255.5 52.2999C255.3 52.7999 255.2 53.4999 255.2 54.2999V54.4999H252.1ZM253.7 61.0999C253.1 61.0999 252.6 60.8999 252.2 60.4999C251.8 60.0999 251.6 59.5999 251.6 58.9999C251.6 58.3999 251.8 57.8999 252.2 57.4999C252.6 57.0999 253.1 56.8999 253.7 56.8999C254.3 56.8999 254.8 57.0999 255.2 57.4999C255.6 57.8999 255.8 58.3999 255.8 58.9999C255.8 59.3999 255.7 59.6999 255.5 60.0999C255.3 60.3999 255.1 60.6999 254.7 60.8999C254.4 60.9999 254 61.0999 253.7 61.0999Z" fill="#15BEE6"/>
<path d="M258 65.6001H171.9V68.2001H258V65.6001Z" fill="#D9F4F9"/>
</g>
</g>
<defs>
<clipPath id="clip0_4_1930">
<rect width="1521" height="255" fill="white"/>
</clipPath>
</defs>
</svg>
