<svg width="1521" height="255" viewBox="0 0 1521 255" fill="none" xmlns="http://www.w3.org/2000/svg">
<g clip-path="url(#clip0_4_463)">
<path d="M1521 0H0V255H1521V0Z" fill="white"/>
<mask id="mask0_4_463" style="mask-type:luminance" maskUnits="userSpaceOnUse" x="0" y="0" width="1521" height="255">
<path d="M1521 0H0V255H1521V0Z" fill="white"/>
</mask>
<g mask="url(#mask0_4_463)">
<path d="M655 274C667.703 274 678 263.703 678 251C678 238.297 667.703 228 655 228C642.297 228 632 238.297 632 251C632 263.703 642.297 274 655 274Z" fill="#F2FCFF"/>
</g>
<mask id="mask1_4_463" style="mask-type:luminance" maskUnits="userSpaceOnUse" x="0" y="0" width="1521" height="255">
<path d="M1521 0H0V255H1521V0Z" fill="white"/>
</mask>
<g mask="url(#mask1_4_463)">
<path d="M60.2 150.3V117.1H81.5V122.1H66.1999V131.1H80V136.1H66.1999V150.2H60.2V150.3Z" fill="#77809C"/>
<path d="M97.7 150.3H86.5V117.1H98C101.3 117.1 104.1 117.8 106.5 119.1C108.9 120.4 110.7 122.3 112 124.8C113.3 127.3 113.9 130.2 113.9 133.7C113.9 137.2 113.3 140.1 112 142.6C110.7 145.1 108.9 147 106.5 148.3C104 149.7 101.1 150.3 97.7 150.3ZM92.5 145.1H97.4C99.7 145.1 101.6 144.7 103.2 143.8C104.7 143 105.9 141.7 106.7 140C107.5 138.3 107.9 136.2 107.9 133.6C107.9 131.1 107.5 128.9 106.7 127.3C105.9 125.6 104.8 124.4 103.3 123.5C101.8 122.7 99.9 122.2 97.6 122.2H92.5V145.1Z" fill="#77809C"/>
<path d="M125.1 117.1V150.3H119.1V117.1H125.1Z" fill="#77809C"/>
<path d="M154.3 125.4V129.9H140V125.4H154.3ZM143.5 119.5H149.4V142.9C149.4 143.7 149.5 144.3 149.8 144.7C150 145.1 150.4 145.4 150.8 145.6C151.2 145.8 151.6 145.8 152.1 145.8C152.5 145.8 152.8 145.8 153.1 145.7C153.4 145.6 153.6 145.6 153.8 145.6L154.8 150.2C154.5 150.3 154 150.4 153.5 150.6C152.9 150.7 152.2 150.8 151.4 150.8C149.9 150.8 148.6 150.6 147.4 150.1C146.2 149.6 145.3 148.8 144.6 147.8C143.9 146.8 143.6 145.5 143.6 143.9V119.5H143.5Z" fill="#77809C"/>
<path d="M169.6 150.8C167.2 150.8 165.1 150.3 163.3 149.2C161.5 148.1 160.1 146.6 159.2 144.7C158.2 142.8 157.7 140.5 157.7 138C157.7 135.5 158.2 133.2 159.2 131.2C160.2 129.3 161.6 127.8 163.3 126.7C165.1 125.6 167.2 125.1 169.6 125.1C172 125.1 174.1 125.6 175.9 126.7C177.7 127.8 179.1 129.3 180 131.2C181 133.1 181.5 135.4 181.5 138C181.5 140.6 181 142.8 180 144.7C179 146.6 177.6 148.1 175.9 149.2C174.1 150.3 172 150.8 169.6 150.8ZM169.6 146.1C170.9 146.1 172 145.7 172.9 145C173.8 144.3 174.4 143.3 174.9 142.1C175.3 140.9 175.6 139.5 175.6 138C175.6 136.5 175.4 135.1 174.9 133.9C174.4 132.7 173.8 131.7 172.9 130.9C172 130.1 170.9 129.8 169.6 129.8C168.2 129.8 167.1 130.2 166.2 130.9C165.3 131.6 164.6 132.6 164.2 133.9C163.8 135.2 163.5 136.5 163.5 138C163.5 139.5 163.7 140.9 164.2 142.1C164.6 143.3 165.3 144.3 166.2 145C167.1 145.8 168.3 146.1 169.6 146.1Z" fill="#77809C"/>
<path d="M201.4 150.3H195L206.7 117.1H214.1L225.8 150.3H219.4L210.5 123.9H210.2L201.4 150.3ZM201.7 137.3H219.2V142.1H201.7V137.3Z" fill="#77809C"/>
<path d="M242.1 125.4V129.9H227.4V125.4H242.1ZM231.1 150.3V123C231.1 121.3 231.4 119.9 232.1 118.8C232.8 117.7 233.7 116.9 234.9 116.3C236.1 115.7 237.4 115.5 238.8 115.5C239.8 115.5 240.7 115.6 241.5 115.7C242.3 115.8 242.9 116 243.3 116.1L242.1 120.6C241.9 120.5 241.5 120.4 241.2 120.4C240.8 120.3 240.4 120.3 239.9 120.3C238.8 120.3 238 120.6 237.6 121.1C237.2 121.6 236.9 122.4 236.9 123.3V150.2H231.1V150.3Z" fill="#77809C"/>
<path d="M246.3 150.3V125.4H252V129.6H252.3C252.8 128.2 253.5 127.1 254.6 126.3C255.7 125.5 257 125.1 258.4 125.1C258.7 125.1 259.1 125.1 259.5 125.1C259.9 125.1 260.2 125.2 260.5 125.2V130.6C260.3 130.5 259.9 130.4 259.3 130.4C258.7 130.4 258.2 130.3 257.8 130.3C256.7 130.3 255.8 130.5 254.9 131C254.1 131.5 253.4 132.1 252.9 132.9C252.4 133.7 252.2 134.6 252.2 135.7V150.3H246.3Z" fill="#77809C"/>
<path d="M266.9 121.9C266 121.9 265.2 121.6 264.5 121C263.8 120.4 263.5 119.6 263.5 118.7C263.5 117.8 263.8 117.1 264.5 116.5C265.2 115.9 266 115.6 266.9 115.6C267.8 115.6 268.6 115.9 269.3 116.5C270 117.1 270.3 117.9 270.3 118.8C270.3 119.7 270 120.4 269.3 121C268.6 121.6 267.8 121.9 266.9 121.9ZM263.9 150.3V125.4H269.8V150.3H263.9Z" fill="#77809C"/>
<path d="M286.3 150.8C283.8 150.8 281.7 150.3 279.9 149.2C278.1 148.1 276.8 146.6 275.8 144.7C274.8 142.8 274.4 140.5 274.4 138C274.4 135.5 274.9 133.2 275.9 131.3C276.9 129.4 278.2 127.8 280 126.8C281.8 125.7 283.9 125.2 286.3 125.2C288.3 125.2 290.1 125.6 291.7 126.3C293.3 127 294.5 128.1 295.4 129.4C296.3 130.7 296.9 132.3 297 134.1H291.4C291.2 132.9 290.6 131.9 289.8 131.1C289 130.3 287.8 129.9 286.4 129.9C285.2 129.9 284.1 130.2 283.2 130.9C282.3 131.5 281.6 132.5 281.1 133.7C280.6 134.9 280.3 136.3 280.3 138C280.3 139.7 280.5 141.2 281 142.4C281.5 143.6 282.2 144.6 283.1 145.2C284 145.9 285.1 146.2 286.3 146.2C287.2 146.2 287.9 146 288.6 145.7C289.3 145.4 289.9 144.9 290.3 144.3C290.8 143.7 291.1 142.9 291.3 142H296.9C296.8 143.8 296.2 145.3 295.3 146.7C294.4 148.1 293.2 149.1 291.6 149.9C290 150.7 288.4 150.8 286.3 150.8Z" fill="#77809C"/>
<path d="M308.5 150.8C306.9 150.8 305.5 150.5 304.2 149.9C302.9 149.3 301.9 148.5 301.2 147.4C300.5 146.3 300.1 144.9 300.1 143.3C300.1 141.9 300.4 140.7 300.9 139.8C301.4 138.9 302.1 138.1 303 137.6C303.9 137 304.9 136.6 306 136.3C307.1 136 308.3 135.8 309.5 135.7C311 135.5 312.1 135.4 313.1 135.3C314 135.2 314.7 135 315.1 134.7C315.5 134.4 315.7 134 315.7 133.5V133.4C315.7 132.2 315.3 131.2 314.6 130.6C313.9 129.9 312.8 129.6 311.5 129.6C310.1 129.6 308.9 129.9 308.1 130.5C307.3 131.1 306.7 131.9 306.4 132.7L301 132C301.4 130.5 302.1 129.2 303.1 128.2C304.1 127.2 305.3 126.4 306.7 125.9C308.1 125.4 309.7 125.1 311.5 125.1C312.7 125.1 313.9 125.2 315.1 125.5C316.3 125.8 317.4 126.2 318.4 126.9C319.4 127.6 320.2 128.4 320.8 129.5C321.4 130.6 321.7 132 321.7 133.6V150.3H316V146.9H315.8C315.4 147.6 314.9 148.2 314.3 148.8C313.7 149.4 312.9 149.9 311.9 150.2C310.9 150.5 309.8 150.8 308.5 150.8ZM310 146.5C311.2 146.5 312.2 146.3 313.1 145.8C314 145.3 314.6 144.7 315.1 143.9C315.6 143.1 315.8 142.3 315.8 141.4V138.5C315.6 138.7 315.3 138.8 314.9 138.9C314.5 139 314 139.1 313.4 139.2C312.9 139.3 312.3 139.4 311.8 139.5C311.3 139.6 310.8 139.6 310.4 139.7C309.5 139.8 308.7 140 308 140.3C307.3 140.6 306.8 140.9 306.4 141.4C306 141.9 305.8 142.5 305.8 143.3C305.8 144.4 306.2 145.2 307 145.8C307.8 146.3 308.8 146.5 310 146.5Z" fill="#77809C"/>
<path d="M343.1 150.3L336.1 125.4H342.1L346.5 142.9H346.7L351.2 125.4H357.1L361.6 142.8H361.8L366.1 125.4H372.1L365 150.3H358.9L354.2 133.5H353.9L349.2 150.3H343.1Z" fill="#77809C"/>
<path d="M383 150.8C381.4 150.8 380 150.5 378.7 149.9C377.4 149.3 376.4 148.5 375.7 147.4C375 146.3 374.6 144.9 374.6 143.3C374.6 141.9 374.9 140.7 375.4 139.8C375.9 138.9 376.6 138.1 377.5 137.6C378.4 137 379.4 136.6 380.5 136.3C381.6 136 382.8 135.8 384 135.7C385.5 135.5 386.6 135.4 387.6 135.3C388.5 135.2 389.2 135 389.6 134.7C390 134.4 390.2 134 390.2 133.5V133.4C390.2 132.2 389.8 131.2 389.1 130.6C388.4 129.9 387.3 129.6 386 129.6C384.6 129.6 383.4 129.9 382.6 130.5C381.8 131.1 381.2 131.9 380.9 132.7L375.4 131.9C375.8 130.4 376.5 129.1 377.5 128.1C378.5 127.1 379.7 126.3 381.1 125.8C382.5 125.3 384.1 125 385.9 125C387.1 125 388.3 125.1 389.5 125.4C390.7 125.7 391.8 126.1 392.8 126.8C393.8 127.5 394.6 128.3 395.2 129.4C395.8 130.5 396.1 131.9 396.1 133.5V150.2H390.5V146.8H390.3C389.9 147.5 389.4 148.1 388.8 148.7C388.2 149.3 387.4 149.8 386.4 150.1C385.4 150.4 384.2 150.8 383 150.8ZM384.5 146.5C385.7 146.5 386.7 146.3 387.6 145.8C388.5 145.3 389.1 144.7 389.6 143.9C390.1 143.1 390.3 142.3 390.3 141.4V138.5C390.1 138.7 389.8 138.8 389.4 138.9C389 139 388.5 139.1 387.9 139.2C387.4 139.3 386.8 139.4 386.3 139.5C385.8 139.6 385.3 139.6 384.9 139.7C384 139.8 383.2 140 382.5 140.3C381.8 140.6 381.3 140.9 380.9 141.4C380.5 141.9 380.3 142.5 380.3 143.3C380.3 144.4 380.7 145.2 381.5 145.8C382.2 146.3 383.3 146.5 384.5 146.5Z" fill="#77809C"/>
<path d="M421.3 132L415.9 132.6C415.7 132.1 415.5 131.6 415.1 131.1C414.7 130.6 414.2 130.2 413.6 129.9C413 129.6 412.2 129.5 411.3 129.5C410.1 129.5 409.1 129.8 408.2 130.3C407.3 130.8 407 131.5 407 132.4C407 133.1 407.3 133.7 407.8 134.2C408.3 134.7 409.3 135 410.5 135.3L414.7 136.2C417.1 136.7 418.8 137.5 420 138.6C421.2 139.7 421.7 141.1 421.7 142.9C421.7 144.5 421.2 145.9 420.3 147C419.4 148.2 418.1 149.1 416.5 149.8C414.9 150.5 413.1 150.8 411 150.8C408 150.8 405.5 150.2 403.6 148.9C401.7 147.6 400.6 145.8 400.3 143.5L406 142.9C406.3 144 406.8 144.9 407.7 145.4C408.5 146 409.6 146.3 411 146.3C412.4 146.3 413.5 146 414.4 145.4C415.2 144.8 415.7 144.1 415.7 143.3C415.7 142.6 415.4 142 414.9 141.5C414.4 141 413.5 140.7 412.4 140.4L408.1 139.5C405.7 139 403.9 138.2 402.8 137C401.7 135.8 401.1 134.3 401.1 132.5C401.1 131 401.5 129.6 402.4 128.5C403.3 127.4 404.4 126.5 406 125.9C407.5 125.3 409.3 125 411.3 125C414.2 125 416.5 125.6 418.2 126.9C419.8 128.2 420.9 129.9 421.3 132Z" fill="#77809C"/>
<path d="M455.4 126.3C455.2 124.9 454.6 123.8 453.5 123C452.4 122.2 450.9 121.8 449.1 121.8C447.8 121.8 446.8 122 445.9 122.4C445 122.8 444.3 123.3 443.8 123.9C443.3 124.5 443.1 125.3 443.1 126.1C443.1 126.8 443.3 127.4 443.6 127.9C443.9 128.4 444.4 128.8 444.9 129.2C445.5 129.6 446.1 129.8 446.7 130.1C447.3 130.4 448 130.5 448.7 130.7L451.8 131.5C453.1 131.8 454.3 132.2 455.4 132.7C456.6 133.2 457.6 133.8 458.5 134.6C459.4 135.4 460.2 136.3 460.7 137.3C461.2 138.4 461.5 139.6 461.5 141.1C461.5 143 461 144.8 460 146.2C459 147.7 457.6 148.8 455.7 149.7C453.8 150.5 451.6 150.9 448.9 150.9C446.3 150.9 444.1 150.5 442.2 149.7C440.3 148.9 438.8 147.7 437.8 146.2C436.7 144.7 436.2 142.8 436.1 140.6H442C442.1 141.8 442.4 142.7 443.1 143.5C443.7 144.3 444.5 144.8 445.6 145.2C446.6 145.6 447.7 145.8 449 145.8C450.3 145.8 451.5 145.6 452.4 145.2C453.4 144.8 454.2 144.3 454.7 143.5C455.3 142.8 455.5 142 455.6 141C455.6 140.1 455.3 139.4 454.8 138.9C454.3 138.3 453.6 137.9 452.7 137.5C451.8 137.1 450.8 136.8 449.6 136.5L445.8 135.5C443.1 134.8 440.9 133.7 439.3 132.3C437.7 130.9 436.9 129 436.9 126.6C436.9 124.6 437.4 122.9 438.5 121.5C439.6 120 441 118.9 442.9 118.1C444.7 117.3 446.8 116.9 449.1 116.9C451.5 116.9 453.5 117.3 455.3 118.1C457.1 118.9 458.5 120 459.5 121.5C460.5 122.9 461 124.6 461.1 126.5H455.4V126.3ZM447.7 154.5V113H450.4V154.5H447.7Z" fill="#242438"/>
<path d="M477.8 150.8C475.6 150.8 473.7 150.4 472 149.6C470.3 148.8 468.9 147.7 467.9 146.2C466.9 144.8 466.4 143.1 466.3 141.3H472.1C472.2 142.7 472.8 143.8 473.9 144.6C475 145.5 476.3 145.9 477.8 145.9C479 145.9 480 145.6 480.9 145.1C481.8 144.6 482.5 143.8 483.1 142.8C483.6 141.8 483.9 140.7 483.9 139.5C483.9 138.2 483.6 137.1 483.1 136.2C482.6 135.2 481.8 134.5 480.9 133.9C480 133.3 478.9 133.1 477.7 133.1C476.7 133.1 475.7 133.3 474.8 133.7C473.8 134.1 473.1 134.6 472.5 135.2L467.1 134.3L468.8 117.2H488.1V122.2H473.8L472.8 131H473C473.6 130.3 474.5 129.7 475.6 129.2C476.7 128.7 478 128.5 479.3 128.5C481.3 128.5 483.1 129 484.7 129.9C486.3 130.8 487.5 132.1 488.4 133.8C489.3 135.5 489.8 137.3 489.8 139.5C489.8 141.7 489.3 143.7 488.3 145.4C487.3 147.1 485.9 148.5 484.1 149.4C482.2 150.3 480.1 150.8 477.8 150.8Z" fill="#242438"/>
<path d="M506.6 150.8C504.3 150.8 502.2 150.4 500.4 149.6C498.6 148.8 497.2 147.7 496.1 146.3C495.1 144.9 494.5 143.2 494.4 141.4H500.5C500.6 142.3 500.9 143.1 501.4 143.7C501.9 144.4 502.7 144.9 503.6 145.2C504.5 145.6 505.5 145.8 506.6 145.8C507.8 145.8 508.8 145.6 509.8 145.2C510.7 144.8 511.4 144.2 512 143.5C512.6 142.8 512.8 141.9 512.8 140.9C512.8 139.9 512.6 139 512 138.2C511.5 137.4 510.7 136.8 509.7 136.4C508.7 136 507.5 135.8 506.1 135.8H503V131.2H505.9C507.1 131.2 508.1 131 508.9 130.6C509.8 130.2 510.5 129.6 511 128.9C511.5 128.2 511.7 127.3 511.7 126.4C511.7 125.5 511.5 124.6 511.1 123.9C510.7 123.2 510.1 122.7 509.3 122.3C508.5 121.9 507.6 121.7 506.6 121.7C505.6 121.7 504.6 121.9 503.8 122.3C502.9 122.7 502.2 123.2 501.7 123.9C501.2 124.6 500.9 125.4 500.9 126.3H495.1C495.1 124.4 495.7 122.8 496.7 121.4C497.7 120 499.1 118.9 500.8 118.1C502.5 117.3 504.5 116.9 506.6 116.9C508.8 116.9 510.7 117.3 512.4 118.1C514 118.9 515.3 120 516.2 121.4C517.1 122.8 517.5 124.3 517.5 126C517.5 127.9 517 129.4 515.9 130.7C514.8 132 513.3 132.8 511.5 133.2V133.5C513.8 133.8 515.6 134.7 516.9 136.1C518.2 137.5 518.8 139.2 518.8 141.3C518.8 143.2 518.3 144.8 517.2 146.3C516.1 147.8 514.7 148.9 512.9 149.7C511.1 150.4 508.9 150.8 506.6 150.8Z" fill="#242438"/>
<path d="M535.2 150.3V117.1H547.9C550.3 117.1 552.3 117.5 553.9 118.2C555.5 119 556.7 120 557.5 121.3C558.3 122.6 558.7 124.1 558.7 125.7C558.7 127.1 558.4 128.2 557.9 129.2C557.4 130.2 556.7 130.9 555.8 131.5C554.9 132.1 553.9 132.5 552.9 132.8V133.1C554.1 133.2 555.2 133.5 556.3 134.2C557.4 134.9 558.3 135.8 559 137C559.7 138.2 560 139.6 560 141.3C560 143 559.6 144.6 558.8 145.9C558 147.3 556.7 148.3 555 149.1C553.3 149.9 551.2 150.3 548.7 150.3H535.2ZM541.2 131.2H547.2C548.2 131.2 549.2 131 550 130.6C550.8 130.2 551.5 129.7 552 129C552.5 128.3 552.7 127.5 552.7 126.5C552.7 125.2 552.2 124.2 551.3 123.3C550.4 122.5 549.1 122.1 547.3 122.1H541.2V131.2ZM541.2 145.3H547.7C549.9 145.3 551.5 144.9 552.4 144C553.4 143.2 553.9 142.1 553.9 140.8C553.9 139.8 553.7 138.9 553.2 138.1C552.7 137.3 552 136.7 551.1 136.2C550.2 135.7 549.1 135.5 547.9 135.5H541.3V145.3H541.2Z" fill="#242438"/>
<path d="M567.4 121.9C566.5 121.9 565.7 121.6 565 121C564.3 120.4 564 119.6 564 118.7C564 117.8 564.3 117.1 565 116.5C565.7 115.9 566.5 115.6 567.4 115.6C568.3 115.6 569.1 115.9 569.8 116.5C570.5 117.1 570.8 117.9 570.8 118.8C570.8 119.7 570.5 120.4 569.8 121C569.1 121.6 568.4 121.9 567.4 121.9ZM564.5 150.3V125.4H570.4V150.3H564.5Z" fill="#242438"/>
<path d="M581.8 117.1V150.3H575.9V117.1H581.8Z" fill="#242438"/>
<path d="M593.2 117.1V150.3H587.3V117.1H593.2Z" fill="#242438"/>
<path d="M601.8 121.9C600.9 121.9 600.1 121.6 599.4 121C598.7 120.4 598.4 119.6 598.4 118.7C598.4 117.8 598.7 117.1 599.4 116.5C600.1 115.9 600.9 115.6 601.8 115.6C602.7 115.6 603.5 115.9 604.2 116.5C604.9 117.1 605.2 117.9 605.2 118.8C605.2 119.7 604.9 120.4 604.2 121C603.5 121.6 602.7 121.9 601.8 121.9ZM598.8 150.3V125.4H604.7V150.3H598.8Z" fill="#242438"/>
<path d="M621.1 150.8C618.7 150.8 616.6 150.3 614.8 149.2C613 148.1 611.6 146.6 610.7 144.7C609.7 142.8 609.2 140.5 609.2 138C609.2 135.5 609.7 133.2 610.7 131.2C611.7 129.3 613.1 127.8 614.8 126.7C616.6 125.6 618.7 125.1 621.1 125.1C623.5 125.1 625.6 125.6 627.4 126.7C629.2 127.8 630.6 129.3 631.5 131.2C632.5 133.1 633 135.4 633 138C633 140.6 632.5 142.8 631.5 144.7C630.5 146.6 629.1 148.1 627.4 149.2C625.7 150.3 623.6 150.8 621.1 150.8ZM621.2 146.1C622.5 146.1 623.6 145.7 624.5 145C625.4 144.3 626 143.3 626.5 142.1C626.9 140.9 627.2 139.5 627.2 138C627.2 136.5 627 135.1 626.5 133.9C626 132.7 625.4 131.7 624.5 130.9C623.6 130.1 622.5 129.8 621.2 129.8C619.8 129.8 618.7 130.2 617.8 130.9C616.9 131.6 616.2 132.6 615.8 133.9C615.4 135.2 615.1 136.5 615.1 138C615.1 139.5 615.3 140.9 615.8 142.1C616.2 143.3 616.9 144.3 617.8 145C618.7 145.8 619.8 146.1 621.2 146.1Z" fill="#242438"/>
<path d="M643.4 135.7V150.3H637.5V125.4H643.1V129.6H643.4C644 128.2 644.9 127.1 646.1 126.3C647.4 125.5 648.9 125.1 650.8 125.1C652.5 125.1 654 125.5 655.3 126.2C656.6 126.9 657.6 128 658.3 129.4C659 130.8 659.4 132.5 659.3 134.5V150.4H653.4V135.4C653.4 133.7 653 132.4 652.1 131.5C651.2 130.6 650.1 130.1 648.5 130.1C647.5 130.1 646.6 130.3 645.8 130.8C645 131.2 644.4 131.9 643.9 132.7C643.4 133.5 643.4 134.5 643.4 135.7Z" fill="#242438"/>
<path d="M678.8 121.9C677.9 121.9 677.1 121.6 676.4 121C675.7 120.4 675.4 119.6 675.4 118.7C675.4 117.8 675.7 117.1 676.4 116.5C677.1 115.9 677.9 115.6 678.8 115.6C679.7 115.6 680.5 115.9 681.2 116.5C681.9 117.1 682.2 117.9 682.2 118.8C682.2 119.7 681.9 120.4 681.2 121C680.5 121.6 679.7 121.9 678.8 121.9ZM675.9 150.3V125.4H681.8V150.3H675.9Z" fill="#77809C"/>
<path d="M693.2 135.7V150.3H687.3V125.4H692.9V129.6H693.2C693.8 128.2 694.7 127.1 695.9 126.3C697.2 125.5 698.7 125.1 700.6 125.1C702.3 125.1 703.8 125.5 705.1 126.2C706.4 126.9 707.4 128 708.1 129.4C708.8 130.8 709.2 132.5 709.1 134.5V150.4H703.2V135.4C703.2 133.7 702.8 132.4 701.9 131.5C701 130.6 699.9 130.1 698.3 130.1C697.3 130.1 696.4 130.3 695.6 130.8C694.8 131.2 694.2 131.9 693.7 132.7C693.2 133.5 693.2 134.5 693.2 135.7Z" fill="#77809C"/>
<path d="M725.5 150.3V146L737 134.7C738.1 133.6 739 132.6 739.8 131.7C740.5 130.8 741.1 130 741.5 129.2C741.9 128.4 742.1 127.5 742.1 126.6C742.1 125.6 741.9 124.7 741.4 123.9C740.9 123.1 740.3 122.6 739.4 122.2C738.6 121.8 737.6 121.6 736.6 121.6C735.5 121.6 734.6 121.8 733.7 122.3C732.9 122.7 732.2 123.4 731.8 124.2C731.4 125 731.1 126 731.1 127.1H725.4C725.4 125 725.9 123.2 726.8 121.6C727.8 120 729.1 118.8 730.8 118C732.5 117.1 734.4 116.7 736.6 116.7C738.8 116.7 740.8 117.1 742.5 117.9C744.2 118.7 745.5 119.9 746.4 121.3C747.3 122.7 747.8 124.4 747.8 126.3C747.8 127.5 747.6 128.8 747.1 130C746.6 131.2 745.8 132.5 744.6 134C743.4 135.5 741.7 137.2 739.6 139.3L733.9 145.1V145.3H748.4V150.3H725.5Z" fill="#77809C"/>
<path d="M765.7 151C763 151 760.7 150.3 758.8 149C756.9 147.6 755.4 145.7 754.4 143.1C753.4 140.5 752.9 137.4 752.9 133.8C752.9 130.2 753.4 127.1 754.4 124.5C755.4 122 756.9 120 758.8 118.7C760.7 117.4 763 116.7 765.7 116.7C768.4 116.7 770.6 117.4 772.6 118.7C774.6 120 776 122 777 124.5C778 127 778.5 130.1 778.5 133.7C778.5 137.3 778 140.4 777 143C776 145.6 774.5 147.5 772.6 148.9C770.7 150.3 768.4 151 765.7 151ZM765.7 145.9C767.8 145.9 769.4 144.9 770.6 142.8C771.8 140.8 772.4 137.7 772.4 133.7C772.4 131.1 772.1 128.8 771.6 127C771 125.2 770.3 123.9 769.3 122.9C768.3 121.9 767.1 121.5 765.7 121.5C763.6 121.5 762 122.5 760.8 124.6C759.6 126.6 759 129.7 759 133.6C759 136.2 759.3 138.5 759.8 140.3C760.3 142.1 761.1 143.5 762.1 144.4C763.1 145.4 764.3 145.9 765.7 145.9Z" fill="#77809C"/>
<path d="M783.5 150.3V146L795 134.7C796.1 133.6 797 132.6 797.8 131.7C798.5 130.8 799.1 130 799.5 129.2C799.9 128.4 800.1 127.5 800.1 126.6C800.1 125.6 799.9 124.7 799.4 123.9C798.9 123.1 798.3 122.6 797.4 122.2C796.6 121.8 795.6 121.6 794.6 121.6C793.5 121.6 792.6 121.8 791.7 122.3C790.9 122.7 790.2 123.4 789.8 124.2C789.4 125 789.1 126 789.1 127.1H783.4C783.4 125 783.9 123.2 784.8 121.6C785.8 120 787.1 118.8 788.8 118C790.5 117.1 792.4 116.7 794.6 116.7C796.8 116.7 798.8 117.1 800.5 117.9C802.2 118.7 803.5 119.9 804.4 121.3C805.3 122.7 805.8 124.4 805.8 126.3C805.8 127.5 805.6 128.8 805.1 130C804.6 131.2 803.8 132.5 802.6 134C801.4 135.5 799.7 137.2 797.6 139.3L791.9 145.1V145.3H806.4V150.3H783.5Z" fill="#77809C"/>
<path d="M823.3 150.8C821 150.8 818.9 150.4 817.1 149.6C815.3 148.8 813.9 147.7 812.8 146.3C811.8 144.9 811.2 143.2 811.1 141.4H817.2C817.3 142.3 817.6 143.1 818.1 143.7C818.6 144.4 819.4 144.9 820.3 145.2C821.2 145.6 822.2 145.8 823.3 145.8C824.5 145.8 825.5 145.6 826.5 145.2C827.4 144.8 828.1 144.2 828.7 143.5C829.3 142.8 829.5 141.9 829.5 140.9C829.5 139.9 829.3 139 828.7 138.2C828.2 137.4 827.4 136.8 826.4 136.4C825.4 136 824.2 135.8 822.8 135.8H819.9V131.2H822.8C824 131.2 825 131 825.8 130.6C826.7 130.2 827.4 129.6 827.9 128.9C828.4 128.2 828.6 127.3 828.6 126.4C828.6 125.5 828.4 124.6 828 123.9C827.6 123.2 827 122.7 826.2 122.3C825.4 121.9 824.5 121.7 823.5 121.7C822.5 121.7 821.5 121.9 820.7 122.3C819.8 122.7 819.1 123.2 818.6 123.9C818.1 124.6 817.8 125.4 817.8 126.3H812C812 124.4 812.6 122.8 813.6 121.4C814.6 120 816 118.9 817.7 118.1C819.4 117.3 821.4 116.9 823.5 116.9C825.7 116.9 827.6 117.3 829.3 118.1C830.9 118.9 832.2 120 833.1 121.4C834 122.8 834.4 124.3 834.4 126C834.4 127.9 833.9 129.4 832.8 130.7C831.7 132 830.2 132.8 828.4 133.2V133.5C830.7 133.8 832.5 134.7 833.8 136.1C835.1 137.5 835.7 139.2 835.7 141.3C835.7 143.2 835.2 144.8 834.1 146.3C833 147.8 831.6 148.9 829.8 149.7C827.8 150.4 825.7 150.8 823.3 150.8Z" fill="#77809C"/>
<path d="M844.4 150.7C843.4 150.7 842.6 150.4 841.9 149.7C841.2 149 840.9 148.2 840.9 147.2C840.9 146.2 841.2 145.4 841.9 144.7C842.6 144 843.4 143.7 844.4 143.7C845.4 143.7 846.2 144 846.9 144.7C847.6 145.4 848 146.2 848 147.2C848 147.9 847.8 148.5 847.5 149C847.2 149.5 846.7 150 846.2 150.3C845.6 150.5 845 150.7 844.4 150.7Z" fill="#77809C"/>
</g>
<mask id="mask2_4_463" style="mask-type:luminance" maskUnits="userSpaceOnUse" x="0" y="0" width="1521" height="255">
<path d="M1521 0H0V255H1521V0Z" fill="white"/>
</mask>
<g mask="url(#mask2_4_463)">
<path d="M589.8 65C625.7 65 654.8 35.9 654.8 0H524.8C524.8 35.9 553.9 65 589.8 65Z" fill="#F2FCFF"/>
</g>
<mask id="mask3_4_463" style="mask-type:luminance" maskUnits="userSpaceOnUse" x="0" y="0" width="1521" height="255">
<path d="M1521 0H0V255H1521V0Z" fill="white"/>
</mask>
<g mask="url(#mask3_4_463)">
<path d="M1163.8 214.2C1141.3 214.2 1123 232.5 1123 255H1204.6C1204.6 232.5 1186.3 214.2 1163.8 214.2Z" fill="#F2FCFF"/>
</g>
<mask id="mask4_4_463" style="mask-type:luminance" maskUnits="userSpaceOnUse" x="0" y="0" width="1521" height="255">
<path d="M1521 0H0V255H1521V0Z" fill="white"/>
</mask>
<g mask="url(#mask4_4_463)">
<path d="M56.9999 64.7C65.0633 64.7 71.5999 58.1634 71.5999 50.1C71.5999 42.0366 65.0633 35.5 56.9999 35.5C48.9365 35.5 42.3999 42.0366 42.3999 50.1C42.3999 58.1634 48.9365 64.7 56.9999 64.7Z" fill="#F9FEFA"/>
</g>
<mask id="mask5_4_463" style="mask-type:luminance" maskUnits="userSpaceOnUse" x="0" y="0" width="1521" height="255">
<path d="M1521 0H0V255H1521V0Z" fill="white"/>
</mask>
<g mask="url(#mask5_4_463)">
<path d="M1324.7 44.6L1315.7 38L1322.3 29L1317.8 25.7L1311.2 34.7L1302.4 28.3L1299.1 32.8L1307.9 39.2L1301.4 48L1305.9 51.3L1312.4 42.5L1321.4 49.1L1324.7 44.6Z" fill="#D4F6FF"/>
</g>
<mask id="mask6_4_463" style="mask-type:luminance" maskUnits="userSpaceOnUse" x="0" y="0" width="1521" height="255">
<path d="M1521 0H0V255H1521V0Z" fill="white"/>
</mask>
<g mask="url(#mask6_4_463)">
<path d="M1456 192C1461.52 192 1466 187.523 1466 182C1466 176.477 1461.52 172 1456 172C1450.48 172 1446 176.477 1446 182C1446 187.523 1450.48 192 1456 192Z" fill="#F2FCFF"/>
</g>
<mask id="mask7_4_463" style="mask-type:luminance" maskUnits="userSpaceOnUse" x="0" y="0" width="1521" height="255">
<path d="M1521 0H0V255H1521V0Z" fill="white"/>
</mask>
<g mask="url(#mask7_4_463)">
<path d="M1445 84C1456.6 84 1466 74.598 1466 63C1466 51.402 1456.6 42 1445 42C1433.4 42 1424 51.402 1424 63C1424 74.598 1433.4 84 1445 84Z" fill="#D4F6FF"/>
</g>
<mask id="mask8_4_463" style="mask-type:luminance" maskUnits="userSpaceOnUse" x="0" y="0" width="1521" height="255">
<path d="M1521 0H0V255H1521V0Z" fill="white"/>
</mask>
<g mask="url(#mask8_4_463)">
<path d="M1265.1 52C1270.5 54 1274.6 57.4 1275.6 63.4C1276 65.5 1275.5 67.8 1275.8 70C1275.9 70.9 1276.6 72.1 1277.4 72.6C1280.8 74.8 1284.5 76.6 1287.7 79C1296.7 85.9 1301.2 85.7 1309.3 77.8C1314.2 73 1318.3 72.3 1324.1 75.1C1326.9 76.4 1328 78.7 1327.1 81.2C1326.1 83.9 1323.6 85.1 1320.7 83.8C1318.3 82.7 1316.9 83.5 1315.3 85.2C1309.3 91.2 1302.2 95 1293.5 92.8C1289.9 91.9 1286.6 89.4 1283.3 87.5C1279.6 85.4 1276.1 83 1272.4 81C1268.7 79 1266.9 76 1266.5 72C1266.3 70.2 1266.4 68.4 1266.4 66.7C1266.4 62.7 1264.2 61 1260.3 62C1253.5 63.9 1246.9 66.1 1240 67.6C1233.9 68.9 1227.5 69.4 1221.3 70.4C1215.4 71.3 1210.7 74.3 1207.8 79.7C1203.6 87.4 1197.2 92.7 1189.5 96.9C1166.6 109.4 1151.2 139.9 1169 170.2C1170.8 173.2 1172.7 176.1 1174.8 178.8C1185.7 193.1 1200 198 1217.4 193.5C1223.9 191.8 1230.3 189.6 1236.8 188.1C1246.5 185.9 1255.1 188.4 1262.6 194.8C1264.4 196.3 1266 197.9 1267.7 199.5C1271.3 203 1272.8 207.1 1271.6 212C1270 218.6 1271.3 224.9 1274.3 230.9C1276.5 235.1 1279 239.1 1281 243.3C1286.9 255.5 1287.1 267.7 1281 279.9C1278.6 284.6 1278.9 288.8 1282.1 293.1C1287.7 300.6 1291.2 308.8 1290.3 318.5C1289.9 323.2 1292.5 326.9 1295.5 330.3C1301 336.6 1306 343.2 1308.2 351.4C1309.1 354.9 1309.7 358.6 1310.2 362.2C1310.5 364.5 1311.6 365.2 1313.5 364.9C1315.7 364.6 1317.9 364.2 1319.9 363.4C1326.9 360.9 1333.8 358.2 1340.8 355.7C1344.3 354.4 1346.8 352.1 1348.2 348.8C1350.1 344.1 1351.7 339.2 1353.3 334.3C1355 329 1357.2 324.2 1361.3 320.3C1366.6 315.1 1367.4 308.5 1366.4 301.6C1365.7 296.7 1367.1 292.9 1370.5 289.7C1373 287.3 1375.8 285.2 1378.3 282.9C1380.9 280.6 1383.5 278.3 1385.8 275.7C1389.3 271.6 1390.1 266.7 1387.7 261.9C1379.8 246.5 1384.1 233.1 1394.7 221.2C1400.2 215.1 1406.6 209.6 1413 204.4C1422.7 196.5 1426.7 185.8 1430.1 174C1420.8 175.3 1412.3 180.4 1402.9 177C1398.5 185.7 1392.5 192.9 1384.6 198.3C1384.4 198.4 1384.3 198.6 1384.1 198.7C1377.3 201.3 1374 207.1 1370.9 213.1C1367.8 219 1364.4 224.8 1361 230.6C1357.1 237.4 1350.1 237.5 1346.2 230.7C1341.5 222.4 1336.9 214.1 1332 205.8C1331 204.1 1329.4 202.5 1327.7 201.5C1306.7 190 1295.8 167.4 1299.9 143.4C1303.7 121 1322.3 102.9 1345.6 99.6C1350.6 98.9 1355.8 99.5 1360.8 99.5C1361.1 98.9 1361.3 98.7 1361.4 98.4C1363 88.8 1361.8 87.7 1352.5 89.9C1350.3 90.4 1348 90.8 1345.7 91C1342.5 91.2 1340.4 89.4 1340.2 86.7C1340 83.9 1341.8 82.1 1345 81.6C1348.5 81 1352 80.2 1355.5 79.5C1364.4 77.8 1370.7 82.5 1371.2 91.5C1371.4 94.7 1371.2 98 1371.2 101.7C1371.4 101.8 1372.2 102.1 1373 102.5C1387.2 108.2 1397.5 118 1403.8 132C1405.6 136.1 1405 138.9 1402.2 140.1C1399.3 141.3 1397 139.9 1395.2 135.8C1383.8 109.4 1350.7 100.1 1327.5 116.7C1300.4 136 1302.8 177 1332 193C1336 195.2 1338.8 198 1341 201.9C1345 209.3 1349.3 216.7 1353.7 224.5C1354.6 223.1 1355.2 222.1 1355.8 221.1C1359.7 214.2 1363.5 207.1 1367.7 200.4C1369.2 197.9 1371.5 195.5 1374 194.1C1388 186.3 1396.4 174.8 1398.6 158.9C1398.7 158.4 1398.8 157.9 1398.9 157.4C1399.6 154.5 1401.6 153 1404.4 153.5C1406.9 153.9 1408.5 156 1408.2 158.8C1407.9 161.8 1407.3 164.8 1406.7 168.4C1409 168.4 1411.3 168.8 1413.5 168.3C1419.5 167.1 1425.3 165.3 1431.3 164.2C1437.7 163 1441.3 166.3 1440.1 172.7C1437.1 188.5 1431.3 202.8 1417.8 213C1410.4 218.6 1403.5 224.7 1398.3 232.5C1393 240.4 1391.8 248.5 1396.3 257.4C1400.8 266.2 1399.6 274.9 1393 282.2C1389 286.6 1384.3 290.4 1379.8 294.3C1377.2 296.5 1375.7 298.7 1376.2 302.6C1377.5 312.5 1374.5 321.1 1367.4 328.4C1365.1 330.8 1363.9 334.5 1362.6 337.8C1360.9 342.1 1359.8 346.6 1358.2 350.9C1355.3 358.4 1350 363.3 1342.2 365.7C1335.6 367.7 1329.3 370.7 1322.7 372.8C1319.3 373.9 1315.5 374.6 1311.9 374.5C1305.8 374.4 1301.9 371.1 1301.5 365.2C1300.8 353.6 1295.6 344.2 1288 335.8C1283.2 330.5 1280.6 324.1 1281.2 316.8C1281.8 309.6 1278.4 303.9 1274.4 298.4C1270.4 292.9 1269.2 286.8 1271.1 280.2C1271.4 279 1272 277.8 1272.6 276.7C1278.2 265.9 1277.4 255.3 1271.5 244.9C1269.2 240.8 1266.8 236.7 1264.9 232.4C1261.8 225.5 1260.9 218.4 1262.5 210.9C1262.8 209.5 1262.1 207.4 1261.1 206.2C1253.5 197.3 1244.3 194.9 1233.1 198.8C1226.3 201.1 1219.2 202.9 1212.1 204C1196.2 206.5 1182.7 201.1 1171.8 189.5C1161.3 178.2 1154.1 165.1 1152.5 149.4C1150.6 131.2 1156.7 115.6 1168.6 102.1C1173.6 96.5 1179.4 91.8 1186.1 88.3C1191 85.7 1195.7 82.5 1198.2 77.6C1204.9 64.7 1216.2 60.7 1229.7 59.9C1240.1 59.2 1250 56 1259.8 52.4C1261.3 52 1263.2 52 1265.1 52Z" fill="#15BEE6"/>
<path d="M1353.5 120.4C1371.7 120.3 1386.7 135.1 1386.7 153.2C1386.8 171.3 1372 186.2 1353.7 186.3C1335.5 186.4 1320.6 171.6 1320.5 153.4C1320.5 135.2 1335.1 120.5 1353.5 120.4ZM1330 153.3C1330 166.3 1340.5 176.9 1353.5 176.9C1366.5 176.9 1377.2 166.3 1377.2 153.4C1377.2 140.4 1366.6 129.8 1353.6 129.8C1340.5 129.8 1330 140.2 1330 153.3Z" fill="#15BEE6"/>
</g>
<mask id="mask9_4_463" style="mask-type:luminance" maskUnits="userSpaceOnUse" x="0" y="0" width="1521" height="255">
<path d="M1521 0H0V255H1521V0Z" fill="white"/>
</mask>
<g mask="url(#mask9_4_463)">
<path d="M58.5 171.7C58.5 170.4 58.7 169.2 59 168.1C59.3 167 59.8 166 60.4 165.1H61.5C61.3 165.4 61 165.9 60.8 166.3C60.6 166.8 60.4 167.3 60.2 167.9C60 168.5 59.9 169.1 59.8 169.7C59.7 170.3 59.7 170.9 59.7 171.6C59.7 172.4 59.8 173.2 59.9 174.1C60.1 174.9 60.3 175.7 60.5 176.4C60.8 177.1 61.1 177.7 61.4 178.2H60.3C59.7 177.3 59.2 176.3 58.9 175.2C58.6 174.1 58.5 173 58.5 171.7Z" fill="#D3D3D3"/>
<path d="M70.4 165.7H71.6999V172.6C71.6999 173.3 71.4999 174 71.1999 174.5C70.8999 175.1 70.4 175.5 69.8 175.8C69.2 176.1 68.4999 176.3 67.6999 176.3C66.8999 176.3 66.1999 176.1 65.5999 175.8C64.9999 175.5 64.4999 175 64.1999 174.5C63.8999 173.9 63.7 173.3 63.7 172.6V165.7H65V172.5C65 173 65.1 173.5 65.3 173.9C65.5 174.3 65.8 174.6 66.3 174.8C66.7 175 67.2 175.1 67.8 175.1C68.4 175.1 68.9 175 69.3 174.8C69.7 174.6 70 174.3 70.3 173.9C70.6 173.5 70.5999 173 70.5999 172.5V165.7H70.4Z" fill="#D3D3D3"/>
<path d="M82.5 165.7V176.2H81.3L75.6 168H75.5V176.2H74.2V165.7H75.4L81.1 173.9H81.2V165.7H82.5Z" fill="#D3D3D3"/>
<path d="M93.5 169H92.2C92.1 168.6 92 168.3 91.8 168C91.6 167.7 91.4 167.5 91.1 167.3C90.8 167.1 90.5 167 90.2 166.9C89.9 166.8 89.5 166.8 89.2 166.8C88.6 166.8 88 167 87.5 167.3C87 167.6 86.6 168.1 86.3 168.7C86 169.3 85.8 170.1 85.8 171C85.8 171.9 86 172.7 86.3 173.3C86.6 173.9 87 174.4 87.5 174.7C88 175 88.6 175.2 89.2 175.2C89.5 175.2 89.9 175.2 90.2 175.1C90.5 175 90.8 174.9 91.1 174.7C91.4 174.5 91.6 174.3 91.8 174C92 173.7 92.1 173.4 92.2 173H93.5C93.4 173.5 93.2 174 93 174.4C92.7 174.8 92.4 175.2 92.1 175.5C91.7 175.8 91.3 176 90.8 176.2C90.3 176.4 89.8 176.4 89.3 176.4C88.4 176.4 87.6 176.2 86.9 175.7C86.2 175.3 85.7 174.6 85.3 173.8C84.9 173 84.7 172 84.7 170.9C84.7 169.8 84.9 168.8 85.3 168C85.7 167.2 86.2 166.6 86.9 166.1C87.6 165.7 88.4 165.4 89.3 165.4C89.8 165.4 90.3 165.5 90.8 165.6C91.3 165.7 91.7 166 92.1 166.3C92.5 166.6 92.8 167 93 167.4C93.2 167.9 93.4 168.4 93.5 169Z" fill="#D3D3D3"/>
<path d="M94.8999 166.8V165.7H102.8V166.8H99.4999V176.2H98.1999V166.8H94.8999Z" fill="#D3D3D3"/>
<path d="M105.2 176.2H103.9L107.7 165.7H109L112.8 176.2H111.5L108.4 167.4H108.3L105.2 176.2ZM105.7 172.1H111.1V173.2H105.7V172.1Z" fill="#D3D3D3"/>
<path d="M117.7 176.2H114.5V165.7H117.9C118.9 165.7 119.8 165.9 120.5 166.3C121.2 166.7 121.8 167.3 122.2 168.1C122.6 168.9 122.8 169.8 122.8 170.9C122.8 172 122.6 172.9 122.2 173.7C121.8 174.5 121.2 175.1 120.5 175.5C119.8 175.9 118.8 176.2 117.7 176.2ZM115.8 175H117.7C118.6 175 119.3 174.8 119.9 174.5C120.5 174.2 120.9 173.7 121.2 173.1C121.5 172.5 121.6 171.7 121.6 170.9C121.6 170.1 121.5 169.3 121.2 168.7C120.9 168.1 120.5 167.6 120 167.3C119.5 167 118.8 166.8 117.9 166.8H115.9V175H115.8Z" fill="#D3D3D3"/>
<path d="M128.7 176.2V175.3L132.2 171.5C132.6 171.1 132.9 170.7 133.2 170.3C133.5 170 133.7 169.7 133.8 169.4C133.9 169.1 134 168.8 134 168.5C134 168.1 133.9 167.8 133.7 167.5C133.5 167.2 133.3 167 133 166.9C132.7 166.8 132.4 166.7 132 166.7C131.6 166.7 131.2 166.8 130.9 166.9C130.6 167.1 130.4 167.3 130.2 167.6C130 167.9 130 168.2 130 168.6H128.8C128.8 168 128.9 167.4 129.2 167C129.5 166.6 129.9 166.2 130.4 165.9C130.9 165.6 131.4 165.5 132.1 165.5C132.7 165.5 133.3 165.6 133.7 165.9C134.2 166.2 134.5 166.5 134.8 166.9C135.1 167.3 135.2 167.8 135.2 168.4C135.2 168.8 135.1 169.2 135 169.5C134.9 169.9 134.6 170.3 134.3 170.7C134 171.1 133.5 171.7 132.9 172.3L130.5 174.8V174.9H135.4V176H128.7V176.2Z" fill="#D3D3D3"/>
<path d="M140.9 176.3C140.1 176.3 139.5 176.1 138.9 175.7C138.4 175.3 137.9 174.7 137.7 173.9C137.4 173.1 137.3 172.1 137.3 171C137.3 169.9 137.4 168.9 137.7 168.1C138 167.3 138.4 166.7 138.9 166.3C139.4 165.9 140.1 165.7 140.9 165.7C141.7 165.7 142.3 165.9 142.9 166.3C143.4 166.7 143.9 167.3 144.1 168.1C144.4 168.9 144.5 169.9 144.5 171C144.5 172.1 144.4 173.1 144.1 173.9C143.8 174.7 143.4 175.3 142.9 175.7C142.3 176.1 141.6 176.3 140.9 176.3ZM140.9 175.2C141.7 175.2 142.3 174.8 142.7 174.1C143.1 173.4 143.3 172.3 143.3 170.9C143.3 170 143.2 169.2 143 168.6C142.8 168 142.5 167.5 142.2 167.1C141.8 166.8 141.4 166.6 140.9 166.6C140.1 166.6 139.6 167 139.1 167.7C138.7 168.4 138.5 169.5 138.5 170.9C138.5 171.8 138.6 172.6 138.8 173.2C139 173.8 139.3 174.3 139.6 174.6C139.9 174.9 140.4 175.2 140.9 175.2Z" fill="#D3D3D3"/>
<path d="M146.5 176.2V175.3L150 171.5C150.4 171.1 150.7 170.7 151 170.3C151.3 170 151.5 169.7 151.6 169.4C151.7 169.1 151.8 168.8 151.8 168.5C151.8 168.1 151.7 167.8 151.5 167.5C151.3 167.2 151.1 167 150.8 166.9C150.5 166.8 150.2 166.7 149.8 166.7C149.4 166.7 149 166.8 148.7 166.9C148.4 167.1 148.2 167.3 148 167.6C147.8 167.9 147.8 168.2 147.8 168.6H146.6C146.6 168 146.7 167.4 147 167C147.3 166.6 147.7 166.2 148.2 165.9C148.7 165.6 149.2 165.5 149.9 165.5C150.5 165.5 151.1 165.6 151.5 165.9C152 166.2 152.3 166.5 152.6 166.9C152.9 167.3 153 167.8 153 168.4C153 168.8 152.9 169.2 152.8 169.5C152.7 169.9 152.4 170.3 152.1 170.7C151.8 171.1 151.3 171.7 150.7 172.3L148.3 174.8V174.9H153.2V176H146.5V176.2Z" fill="#D3D3D3"/>
<path d="M154.9 174V173L159.5 165.7H160.3V167.3H159.8L156.3 172.8V172.9H162.5V174H154.9ZM159.9 176.2V173.7V173.2V165.7H161.1V176.2H159.9Z" fill="#D3D3D3"/>
<path d="M167 171.7C167 173 166.8 174.2 166.5 175.3C166.2 176.4 165.7 177.4 165.1 178.3H164C164.2 178 164.5 177.5 164.7 177.1C164.9 176.6 165.1 176.1 165.3 175.5C165.5 174.9 165.6 174.3 165.7 173.7C165.8 173.1 165.8 172.5 165.8 171.8C165.8 171 165.7 170.2 165.6 169.3C165.5 168.4 165.2 167.7 165 167C164.7 166.3 164.4 165.7 164.1 165.2H165.2C165.8 166.1 166.3 167.1 166.6 168.2C166.9 169.3 167 170.5 167 171.7Z" fill="#D3D3D3"/>
</g>
<mask id="mask10_4_463" style="mask-type:luminance" maskUnits="userSpaceOnUse" x="0" y="0" width="1521" height="255">
<path d="M1521 0H0V255H1521V0Z" fill="white"/>
</mask>
<g mask="url(#mask10_4_463)">
<path d="M63.9 59.9H57V38.4H64.2C66.3 38.4 68.1 38.8 69.6 39.7C71.1 40.6 72.3 41.8 73.1 43.4C73.9 45 74.3 46.9 74.3 49.1C74.3 51.3 73.9 53.3 73.1 54.9C72.3 56.5 71.1 57.7 69.6 58.6C67.9 59.5 66.1 59.9 63.9 59.9ZM60.2 57.1H63.7C65.3 57.1 66.7 56.8 67.8 56.2C68.9 55.6 69.7 54.7 70.2 53.5C70.7 52.3 71 50.9 71 49.2C71 47.5 70.7 46.1 70.2 44.9C69.7 43.7 68.9 42.8 67.8 42.2C66.7 41.6 65.4 41.3 63.9 41.3H60.2V57.1Z" fill="#242438"/>
<path d="M79.6001 41.3C79.1001 41.3 78.6001 41.1 78.2001 40.7C77.8001 40.3 77.6001 39.9 77.6001 39.4C77.6001 38.9 77.8001 38.4 78.2001 38.1C78.6001 37.7 79.1001 37.5 79.6001 37.5C80.1001 37.5 80.6001 37.7 81.0001 38.1C81.4001 38.5 81.6001 38.9 81.6001 39.4C81.6001 39.9 81.4001 40.4 81.0001 40.7C80.6001 41.1 80.1001 41.3 79.6001 41.3ZM78.0001 59.9V43.8H81.1001V59.9H78.0001Z" fill="#242438"/>
<path d="M91.3 60.2C90 60.2 88.8 59.9 87.8 59.2C86.8 58.5 86 57.6 85.4 56.3C84.8 55.1 84.5 53.6 84.5 51.8C84.5 50.1 84.8 48.6 85.4 47.3C86 46.1 86.8 45.1 87.8 44.5C88.8 43.8 90 43.5 91.3 43.5C92.3 43.5 93.1 43.7 93.7 44C94.3 44.3 94.8 44.7 95.1 45.2C95.4 45.6 95.7 46 95.9 46.4H96.1V38.4H99.2V59.9H96.1V57.4H96C95.8 57.7 95.5 58.1 95.2 58.6C94.8 59 94.4 59.4 93.7 59.8C93.1 60 92.3 60.2 91.3 60.2ZM92 57.5C92.9 57.5 93.7 57.3 94.3 56.8C94.9 56.3 95.4 55.7 95.7 54.8C96 53.9 96.2 53 96.2 51.8C96.2 50.7 96 49.7 95.7 48.9C95.4 48.1 94.9 47.4 94.3 46.9C93.7 46.4 92.9 46.2 92 46.2C91.1 46.2 90.3 46.4 89.6 46.9C88.9 47.4 88.5 48.1 88.2 48.9C87.9 49.7 87.7 50.7 87.7 51.8C87.7 52.9 87.9 53.8 88.2 54.7C88.5 55.6 89 56.2 89.6 56.7C90.2 57.2 91.1 57.5 92 57.5Z" fill="#242438"/>
<path d="M113.6 65.9C113.1 65.9 112.7 65.9 112.3 65.8C111.9 65.7 111.6 65.6 111.4 65.6L112.2 63C112.8 63.2 113.3 63.2 113.7 63.2C114.1 63.2 114.5 63 114.9 62.7C115.3 62.4 115.6 61.9 115.8 61.2L116.2 60.1L110.3 43.8H113.7L117.8 56.3H118L122.1 43.8H125.5L118.7 62C118.4 62.8 118 63.5 117.5 64.1C117 64.7 116.5 65.1 115.8 65.4C115.2 65.8 114.5 65.9 113.6 65.9Z" fill="#242438"/>
<path d="M135.1 60.2C133.6 60.2 132.3 59.9 131.1 59.2C130 58.5 129.1 57.5 128.5 56.3C127.9 55.1 127.6 53.6 127.6 51.9C127.6 50.2 127.9 48.8 128.5 47.5C129.1 46.2 130 45.3 131.1 44.6C132.2 43.9 133.5 43.6 135.1 43.6C136.7 43.6 137.9 43.9 139.1 44.6C140.2 45.3 141.1 46.3 141.7 47.5C142.3 48.7 142.6 50.2 142.6 51.9C142.6 53.6 142.3 55 141.7 56.3C141.1 57.5 140.2 58.5 139.1 59.2C137.9 59.9 136.6 60.2 135.1 60.2ZM135.1 57.6C136.1 57.6 136.9 57.3 137.5 56.8C138.1 56.3 138.6 55.6 138.9 54.7C139.2 53.8 139.4 52.9 139.4 51.9C139.4 50.9 139.2 49.9 138.9 49.1C138.6 48.2 138.1 47.5 137.5 47C136.9 46.5 136 46.2 135.1 46.2C134.1 46.2 133.3 46.5 132.7 47C132.1 47.5 131.6 48.2 131.3 49.1C131 50 130.8 50.9 130.8 51.9C130.8 52.9 131 53.9 131.3 54.7C131.6 55.6 132.1 56.2 132.7 56.8C133.3 57.3 134.1 57.6 135.1 57.6Z" fill="#242438"/>
<path d="M156.3 53.2V43.8H159.4V59.9H156.3V57.1H156.1C155.7 58 155.1 58.7 154.3 59.2C153.5 59.8 152.5 60.1 151.3 60.1C150.3 60.1 149.4 59.9 148.6 59.4C147.8 58.9 147.2 58.3 146.7 57.4C146.2 56.5 146 55.4 146 54.1V43.8H149.1V53.7C149.1 54.8 149.4 55.7 150 56.3C150.6 57 151.4 57.3 152.4 57.3C153 57.3 153.6 57.2 154.2 56.9C154.8 56.6 155.3 56.2 155.7 55.6C156.1 55 156.3 54.1 156.3 53.2Z" fill="#242438"/>
<path d="M171.5 59.9V38.4H174.6V59.9H171.5ZM174.4 54.4V50.6H174.9L181.3 43.8H185.1L177.8 51.6H177.3L174.4 54.4ZM181.6 59.9L175.8 52.2L178 50L185.5 59.8H181.6V59.9Z" fill="#15BEE6"/>
<path d="M191 50.3V59.9H187.9V43.8H190.9V46.4H191.1C191.5 45.5 192.1 44.9 192.8 44.3C193.6 43.8 194.6 43.5 195.8 43.5C196.9 43.5 197.9 43.7 198.7 44.2C199.5 44.7 200.2 45.3 200.6 46.2C201.1 47.1 201.3 48.2 201.3 49.5V59.7H198.2V50C198.2 48.8 197.9 47.9 197.3 47.3C196.7 46.6 195.9 46.3 194.8 46.3C194.1 46.3 193.4 46.5 192.9 46.8C192.4 47.1 191.9 47.6 191.6 48.2C191.2 48.7 191 49.5 191 50.3Z" fill="#15BEE6"/>
<path d="M212.3 60.2C210.8 60.2 209.5 59.9 208.3 59.2C207.2 58.5 206.3 57.5 205.7 56.3C205.1 55.1 204.8 53.6 204.8 51.9C204.8 50.2 205.1 48.8 205.7 47.5C206.3 46.2 207.2 45.3 208.3 44.6C209.4 43.9 210.7 43.6 212.3 43.6C213.9 43.6 215.1 43.9 216.3 44.6C217.4 45.3 218.3 46.3 218.9 47.5C219.5 48.7 219.8 50.2 219.8 51.9C219.8 53.6 219.5 55 218.9 56.3C218.3 57.5 217.4 58.5 216.3 59.2C215.1 59.9 213.8 60.2 212.3 60.2ZM212.3 57.6C213.3 57.6 214.1 57.3 214.7 56.8C215.3 56.3 215.8 55.6 216.1 54.7C216.4 53.8 216.6 52.9 216.6 51.9C216.6 50.9 216.4 49.9 216.1 49.1C215.8 48.2 215.3 47.5 214.7 47C214.1 46.5 213.2 46.2 212.3 46.2C211.3 46.2 210.5 46.5 209.9 47C209.3 47.5 208.8 48.2 208.5 49.1C208.2 50 208 50.9 208 51.9C208 52.9 208.2 53.9 208.5 54.7C208.8 55.6 209.3 56.2 209.9 56.8C210.5 57.3 211.3 57.6 212.3 57.6Z" fill="#15BEE6"/>
<path d="M226.8 59.9L222.1 43.8H225.3L228.5 55.6H228.7L231.9 43.8H235.1L238.2 55.6H238.4L241.5 43.8H244.7L240 59.9H236.8L233.5 48.3H233.3L230 59.9H226.8Z" fill="#15BEE6"/>
<path d="M251.1 53.5C251.1 52.2 251.2 51.2 251.5 50.4C251.8 49.6 252.1 49 252.6 48.5C253.1 48 253.6 47.6 254.3 47.2C254.7 46.9 255.1 46.6 255.4 46.3C255.7 46 256 45.6 256.2 45.2C256.4 44.8 256.5 44.3 256.5 43.8C256.5 43.2 256.4 42.6 256.1 42.2C255.8 41.7 255.4 41.4 254.9 41.1C254.4 40.8 253.9 40.7 253.3 40.7C252.8 40.7 252.2 40.8 251.8 41C251.4 41.2 250.9 41.6 250.6 42C250.3 42.4 250.1 43.1 250 43.8H246.8C246.8 42.5 247.2 41.5 247.8 40.6C248.4 39.7 249.2 39.1 250.1 38.6C251 38.1 252.1 37.9 253.3 37.9C254.6 37.9 255.7 38.1 256.7 38.6C257.7 39.1 258.4 39.7 258.9 40.6C259.4 41.5 259.7 42.5 259.7 43.6C259.7 44.4 259.6 45.1 259.3 45.7C259.1 46.3 258.7 46.9 258.3 47.4C257.8 47.9 257.3 48.3 256.7 48.7C256.1 49.1 255.6 49.5 255.3 49.9C254.9 50.3 254.7 50.8 254.5 51.3C254.3 51.8 254.2 52.5 254.2 53.3V53.5H251.1ZM252.7 60.1C252.1 60.1 251.6 59.9 251.2 59.5C250.8 59.1 250.6 58.6 250.6 58C250.6 57.4 250.8 56.9 251.2 56.5C251.6 56.1 252.1 55.9 252.7 55.9C253.3 55.9 253.8 56.1 254.2 56.5C254.6 56.9 254.8 57.4 254.8 58C254.8 58.4 254.7 58.7 254.5 59.1C254.3 59.4 254.1 59.7 253.7 59.9C253.4 60 253 60.1 252.7 60.1Z" fill="#15BEE6"/>
<path d="M257 64.6H170.9V67.2H257V64.6Z" fill="#D9F4F9"/>
</g>
</g>
<defs>
<clipPath id="clip0_4_463">
<rect width="1521" height="255" fill="white"/>
</clipPath>
</defs>
</svg>
