<svg width="1521" height="255" viewBox="0 0 1521 255" fill="none" xmlns="http://www.w3.org/2000/svg">
<g clip-path="url(#clip0_4_2806)">
<path d="M1521 0H0V255H1521V0Z" fill="white"/>
<mask id="mask0_4_2806" style="mask-type:luminance" maskUnits="userSpaceOnUse" x="0" y="0" width="1521" height="255">
<path d="M1521 0H0V255H1521V0Z" fill="white"/>
</mask>
<g mask="url(#mask0_4_2806)">
<path d="M589.8 65C625.7 65 654.8 35.9 654.8 0H524.8C524.8 35.9 553.9 65 589.8 65Z" fill="#F2FCFF"/>
</g>
<mask id="mask1_4_2806" style="mask-type:luminance" maskUnits="userSpaceOnUse" x="0" y="0" width="1521" height="255">
<path d="M1521 0H0V255H1521V0Z" fill="white"/>
</mask>
<g mask="url(#mask1_4_2806)">
<path d="M1163.8 214.2C1141.3 214.2 1123 232.5 1123 255H1204.6C1204.6 232.5 1186.3 214.2 1163.8 214.2Z" fill="#F2FCFF"/>
</g>
<mask id="mask2_4_2806" style="mask-type:luminance" maskUnits="userSpaceOnUse" x="0" y="0" width="1521" height="255">
<path d="M1521 0H0V255H1521V0Z" fill="white"/>
</mask>
<g mask="url(#mask2_4_2806)">
<path d="M56.9999 64.7C65.0633 64.7 71.5999 58.1634 71.5999 50.1C71.5999 42.0366 65.0633 35.5 56.9999 35.5C48.9365 35.5 42.3999 42.0366 42.3999 50.1C42.3999 58.1634 48.9365 64.7 56.9999 64.7Z" fill="#F9FEFA"/>
</g>
<mask id="mask3_4_2806" style="mask-type:luminance" maskUnits="userSpaceOnUse" x="0" y="0" width="1521" height="255">
<path d="M1521 0H0V255H1521V0Z" fill="white"/>
</mask>
<g mask="url(#mask3_4_2806)">
<path d="M1242.7 70.6002L1233.7 64.0002L1240.3 55.0002L1235.8 51.7002L1229.2 60.7002L1220.4 54.3002L1217.1 58.8002L1225.9 65.2002L1219.4 74.0002L1223.9 77.3002L1230.4 68.5002L1239.4 75.1002L1242.7 70.6002Z" fill="#D4F6FF"/>
</g>
<mask id="mask4_4_2806" style="mask-type:luminance" maskUnits="userSpaceOnUse" x="0" y="0" width="1521" height="255">
<path d="M1521 0H0V255H1521V0Z" fill="white"/>
</mask>
<g mask="url(#mask4_4_2806)">
<path d="M80.3999 100.2C80.0999 99.3 79.7999 98.5 79.2999 97.8C78.7999 97.1 78.2999 96.5 77.5999 96C76.8999 95.5 76.1999 95.1 75.3999 94.9C74.5999 94.7 73.5999 94.5 72.5999 94.5C70.7999 94.5 69.1999 94.9 67.7999 95.8C66.3999 96.7 65.2999 98 64.4999 99.8C63.6999 101.5 63.2999 103.6 63.2999 106.1C63.2999 108.6 63.6999 110.7 64.4999 112.5C65.2999 114.2 66.3999 115.6 67.7999 116.5C69.1999 117.4 70.7999 117.9 72.6999 117.9C74.3999 117.9 75.7999 117.6 77.0999 116.9C78.2999 116.3 79.2999 115.3 79.9999 114.1C80.6999 112.9 80.9999 111.5 80.9999 109.9L82.3999 110.1H73.3999V105.4H86.8999V109.4C86.8999 112.2 86.2999 114.7 85.0999 116.8C83.8999 118.9 82.1999 120.5 80.0999 121.6C77.9999 122.7 75.4999 123.3 72.7999 123.3C69.6999 123.3 67.0999 122.6 64.6999 121.2C62.3999 119.8 60.5999 117.9 59.2999 115.3C57.9999 112.8 57.3999 109.7 57.3999 106.2C57.3999 103.5 57.7999 101.1 58.4999 99C59.2999 96.9 60.2999 95.1 61.6999 93.6C63.0999 92.1 64.6999 91 66.4999 90.2C68.2999 89.4 70.3999 89 72.4999 89C74.2999 89 76.0999 89.3 77.5999 89.8C79.1999 90.3 80.5999 91.1 81.7999 92.1C82.9999 93.1 84.0999 94.3 84.8999 95.6C85.6999 96.9 86.1999 98.4 86.4999 100.1H80.3999V100.2Z" fill="#77809C"/>
<path d="M97.7999 89.6001V122.8H91.8999V89.6001H97.7999Z" fill="#77809C"/>
<path d="M114.3 123.3C111.9 123.3 109.8 122.8 108 121.7C106.2 120.6 104.8 119.1 103.9 117.2C102.9 115.3 102.4 113 102.4 110.5C102.4 107.9 102.9 105.7 103.9 103.7C104.9 101.8 106.3 100.3 108 99.2001C109.8 98.1001 111.9 97.6001 114.3 97.6001C116.7 97.6001 118.8 98.1001 120.6 99.2001C122.4 100.3 123.8 101.8 124.7 103.7C125.7 105.6 126.2 107.9 126.2 110.5C126.2 113.1 125.7 115.3 124.7 117.2C123.7 119.1 122.3 120.6 120.6 121.7C118.8 122.7 116.7 123.3 114.3 123.3ZM114.3 118.6C115.6 118.6 116.7 118.2 117.6 117.5C118.5 116.8 119.1 115.8 119.6 114.6C120 113.4 120.3 112 120.3 110.5C120.3 109 120.1 107.6 119.6 106.4C119.1 105.2 118.5 104.2 117.6 103.4C116.7 102.7 115.6 102.3 114.3 102.3C112.9 102.3 111.8 102.7 110.9 103.4C110 104.1 109.3 105.1 108.9 106.4C108.5 107.7 108.2 109 108.2 110.5C108.2 112 108.4 113.4 108.9 114.6C109.3 115.8 110 116.8 110.9 117.5C111.8 118.2 112.9 118.6 114.3 118.6Z" fill="#77809C"/>
<path d="M131 122.8V89.6001H136.9V102H137.1C137.4 101.4 137.8 100.7 138.4 100.1C139 99.4001 139.7 98.8001 140.6 98.3001C141.5 97.8001 142.7 97.6001 144.2 97.6001C146.1 97.6001 147.9 98.1001 149.4 99.1001C150.9 100.1 152.2 101.5 153.1 103.4C154 105.3 154.5 107.6 154.5 110.4C154.5 113.1 154.1 115.5 153.2 117.4C152.3 119.3 151.1 120.8 149.5 121.8C148 122.8 146.2 123.3 144.2 123.3C142.8 123.3 141.6 123.1 140.6 122.6C139.7 122.1 138.9 121.5 138.3 120.9C137.7 120.3 137.3 119.6 137 119H136.7V122.9H131V122.8ZM136.7 110.3C136.7 111.9 136.9 113.3 137.4 114.5C137.9 115.7 138.5 116.7 139.4 117.3C140.3 118 141.3 118.3 142.6 118.3C143.9 118.3 145 118 145.9 117.3C146.8 116.6 147.4 115.6 147.9 114.4C148.3 113.2 148.6 111.8 148.6 110.2C148.6 108.7 148.4 107.3 147.9 106.1C147.4 104.9 146.8 104 145.9 103.3C145 102.6 143.9 102.3 142.6 102.3C141.3 102.3 140.3 102.6 139.4 103.3C138.5 104 137.9 104.9 137.4 106.1C136.9 107.3 136.7 108.7 136.7 110.3Z" fill="#77809C"/>
<path d="M166.2 123.3C164.6 123.3 163.2 123 161.9 122.4C160.6 121.8 159.6 121 158.9 119.9C158.2 118.8 157.8 117.4 157.8 115.8C157.8 114.4 158.1 113.2 158.6 112.3C159.1 111.4 159.8 110.6 160.7 110.1C161.6 109.5 162.6 109.1 163.7 108.8C164.8 108.5 166 108.3 167.2 108.2C168.7 108 169.8 107.9 170.8 107.8C171.8 107.7 172.4 107.5 172.8 107.2C173.2 106.9 173.4 106.5 173.4 106V105.9C173.4 104.7 173 103.7 172.3 103.1C171.6 102.4 170.5 102.1 169.2 102.1C167.8 102.1 166.6 102.4 165.8 103C165 103.6 164.4 104.4 164.1 105.2L158.6 104.4C159 102.9 159.7 101.6 160.7 100.6C161.7 99.6 162.9 98.8 164.3 98.3C165.7 97.8 167.3 97.5 169.1 97.5C170.3 97.5 171.5 97.6 172.7 97.9C173.9 98.2 175 98.6 176 99.3C177 100 177.8 100.8 178.4 101.9C179 103 179.3 104.4 179.3 106V122.7H173.7V119.3H173.5C173.1 120 172.6 120.6 172 121.2C171.4 121.8 170.6 122.3 169.6 122.6C168.6 123.1 167.5 123.3 166.2 123.3ZM167.7 119C168.9 119 169.9 118.8 170.8 118.3C171.7 117.8 172.3 117.2 172.8 116.4C173.3 115.6 173.5 114.8 173.5 113.9V111C173.3 111.2 173 111.3 172.6 111.4C172.2 111.5 171.7 111.6 171.1 111.7C170.6 111.8 170 111.9 169.5 112C169 112.1 168.5 112.1 168.1 112.2C167.2 112.3 166.4 112.5 165.7 112.8C165 113.1 164.5 113.4 164.1 113.9C163.7 114.4 163.5 115 163.5 115.8C163.5 116.9 163.9 117.7 164.7 118.2C165.5 118.7 166.5 119 167.7 119Z" fill="#77809C"/>
<path d="M190.7 89.6001V122.8H184.8V89.6001H190.7Z" fill="#77809C"/>
<path d="M207.4 122.8V89.6001H228.7V94.6001H213.4V103.6H227.2V108.6H213.4V122.7H207.4V122.8Z" fill="#77809C"/>
<path d="M244.3 123.3C241.9 123.3 239.8 122.8 238 121.7C236.2 120.6 234.8 119.1 233.9 117.2C232.9 115.3 232.4 113 232.4 110.5C232.4 107.9 232.9 105.7 233.9 103.7C234.9 101.8 236.3 100.3 238 99.2001C239.8 98.1001 241.9 97.6001 244.3 97.6001C246.7 97.6001 248.8 98.1001 250.6 99.2001C252.4 100.3 253.8 101.8 254.7 103.7C255.7 105.6 256.2 107.9 256.2 110.5C256.2 113.1 255.7 115.3 254.7 117.2C253.7 119.1 252.3 120.6 250.6 121.7C248.9 122.7 246.8 123.3 244.3 123.3ZM244.4 118.6C245.7 118.6 246.8 118.2 247.7 117.5C248.6 116.8 249.2 115.8 249.7 114.6C250.1 113.4 250.4 112 250.4 110.5C250.4 109 250.2 107.6 249.7 106.4C249.2 105.2 248.6 104.2 247.7 103.4C246.8 102.7 245.7 102.3 244.4 102.3C243 102.3 241.9 102.7 241 103.4C240.1 104.1 239.4 105.1 239 106.4C238.6 107.7 238.3 109 238.3 110.5C238.3 112 238.5 113.4 239 114.6C239.4 115.8 240.1 116.8 241 117.5C241.9 118.2 243 118.6 244.4 118.6Z" fill="#77809C"/>
<path d="M260.8 122.8V97.9001H266.5V102.1H266.8C267.3 100.7 268 99.6001 269.1 98.8001C270.2 98.0001 271.5 97.6001 272.9 97.6001C273.2 97.6001 273.6 97.6001 274 97.6001C274.4 97.6001 274.7 97.7001 275 97.7001V103.1C274.8 103 274.4 102.9 273.8 102.9C273.2 102.9 272.7 102.8 272.3 102.8C271.2 102.8 270.3 103 269.4 103.5C268.5 104 267.9 104.6 267.4 105.4C266.9 106.2 266.7 107.1 266.7 108.2V122.8H260.8Z" fill="#77809C"/>
<path d="M289.5 123.3C287 123.3 284.8 122.8 283 121.7C281.2 120.7 279.8 119.2 278.8 117.3C277.8 115.4 277.3 113.1 277.3 110.5C277.3 107.9 277.8 105.7 278.8 103.7C279.8 101.8 281.1 100.2 282.9 99.2001C284.7 98.2001 286.7 97.6001 289.1 97.6001C290.6 97.6001 292.1 97.8001 293.5 98.3001C294.9 98.8001 296.1 99.6001 297.1 100.6C298.2 101.6 299 102.9 299.6 104.5C300.2 106.1 300.5 108 300.5 110.2V112H280.1V108H294.9C294.9 106.9 294.6 105.9 294.2 105C293.7 104.1 293.1 103.4 292.2 102.9C291.4 102.4 290.4 102.1 289.2 102.1C288 102.1 286.9 102.4 286 103C285.1 103.6 284.4 104.3 283.9 105.3C283.4 106.3 283.1 107.3 283.1 108.4V111.9C283.1 113.3 283.4 114.6 283.9 115.6C284.4 116.6 285.2 117.4 286.1 118C287.1 118.5 288.2 118.8 289.4 118.8C290.3 118.8 291 118.7 291.7 118.4C292.4 118.2 293 117.8 293.5 117.3C294 116.8 294.4 116.2 294.7 115.5L300.2 116.1C299.9 117.5 299.2 118.8 298.2 119.9C297.2 121 296 121.8 294.5 122.4C293.1 123 291.4 123.3 289.5 123.3Z" fill="#77809C"/>
<path d="M308 94.3C307.1 94.3 306.3 94 305.6 93.4C304.9 92.8 304.6 92 304.6 91.1C304.6 90.2 304.9 89.5 305.6 88.9C306.3 88.3 307.1 88 308 88C308.9 88 309.7 88.3 310.4 88.9C311.1 89.5 311.4 90.3 311.4 91.2C311.4 92.1 311.1 92.8 310.4 93.4C309.7 94 308.9 94.3 308 94.3ZM305 122.8V97.9H310.9V122.8H305Z" fill="#77809C"/>
<path d="M327.3 132.6C325.2 132.6 323.4 132.3 321.9 131.7C320.4 131.1 319.2 130.4 318.3 129.4C317.4 128.4 316.7 127.4 316.4 126.2L321.7 124.9C321.9 125.4 322.3 125.9 322.7 126.4C323.2 126.9 323.8 127.3 324.5 127.6C325.3 127.9 326.2 128.1 327.4 128.1C329.1 128.1 330.4 127.7 331.5 126.9C332.6 126.1 333.1 124.8 333.1 122.9V118.2H332.8C332.5 118.8 332.1 119.4 331.5 120.1C330.9 120.7 330.2 121.3 329.2 121.7C328.3 122.1 327.1 122.3 325.6 122.3C323.7 122.3 322 121.8 320.4 120.9C318.8 120 317.6 118.6 316.7 116.8C315.8 115 315.3 112.7 315.3 110C315.3 107.3 315.8 105 316.7 103.1C317.6 101.2 318.8 99.7998 320.4 98.7998C322 97.7998 323.7 97.2998 325.6 97.2998C327.1 97.2998 328.3 97.4998 329.2 97.9998C330.1 98.4998 330.9 99.0998 331.5 99.7998C332.1 100.5 332.5 101.1 332.8 101.7H333.1V97.5998H338.9V122.9C338.9 125 338.4 126.8 337.4 128.2C336.4 129.6 335 130.6 333.2 131.3C331.4 132 329.6 132.6 327.3 132.6ZM327.4 117.8C328.6 117.8 329.7 117.5 330.6 116.9C331.5 116.3 332.1 115.4 332.6 114.3C333.1 113.2 333.3 111.8 333.3 110.2C333.3 108.6 333.1 107.3 332.6 106.1C332.2 104.9 331.5 104 330.6 103.4C329.7 102.8 328.7 102.4 327.4 102.4C326.1 102.4 325 102.7 324.1 103.4C323.2 104.1 322.6 105 322.1 106.2C321.7 107.4 321.4 108.7 321.4 110.2C321.4 111.7 321.6 113.1 322.1 114.2C322.5 115.3 323.2 116.2 324.1 116.9C325 117.5 326.1 117.8 327.4 117.8Z" fill="#77809C"/>
<path d="M350.5 108.2V122.8H344.6V97.9001H350.2V102.1H350.5C351.1 100.7 352 99.6001 353.2 98.8001C354.5 98.0001 356 97.6001 357.9 97.6001C359.6 97.6001 361.1 98.0001 362.4 98.7001C363.7 99.4001 364.7 100.5 365.4 101.9C366.1 103.3 366.5 105 366.4 107V122.9H360.5V107.9C360.5 106.2 360.1 104.9 359.2 104C358.3 103.1 357.2 102.6 355.6 102.6C354.6 102.6 353.7 102.8 352.9 103.3C352.1 103.7 351.5 104.4 351 105.2C350.5 106 350.5 107 350.5 108.2Z" fill="#77809C"/>
<path d="M394.4 122.8H383.1V89.6001H394.6C397.9 89.6001 400.7 90.3001 403.1 91.6001C405.5 92.9001 407.3 94.8001 408.6 97.3001C409.9 99.8001 410.5 102.7 410.5 106.2C410.5 109.7 409.9 112.6 408.6 115.1C407.3 117.6 405.5 119.5 403.1 120.8C400.7 122.1 397.8 122.8 394.4 122.8ZM389.2 117.6H394.1C396.4 117.6 398.3 117.2 399.9 116.3C401.4 115.5 402.6 114.2 403.4 112.5C404.2 110.8 404.6 108.7 404.6 106.1C404.6 103.6 404.2 101.4 403.4 99.8001C402.6 98.1001 401.5 96.9001 400 96.0001C398.5 95.2001 396.6 94.7001 394.3 94.7001H389.2V117.6Z" fill="#77809C"/>
<path d="M418.5 94.3C417.6 94.3 416.8 94 416.1 93.4C415.4 92.8 415.1 92 415.1 91.1C415.1 90.2 415.4 89.5 416.1 88.9C416.8 88.3 417.6 88 418.5 88C419.4 88 420.2 88.3 420.9 88.9C421.6 89.5 421.9 90.3 421.9 91.2C421.9 92.1 421.6 92.8 420.9 93.4C420.2 94 419.4 94.3 418.5 94.3ZM415.5 122.8V97.9H421.4V122.8H415.5Z" fill="#77809C"/>
<path d="M427 122.8V97.9001H432.7V102.1H433C433.5 100.7 434.2 99.6001 435.3 98.8001C436.4 98.0001 437.7 97.6001 439.1 97.6001C439.4 97.6001 439.8 97.6001 440.2 97.6001C440.6 97.6001 440.9 97.7001 441.2 97.7001V103.1C441 103 440.6 102.9 440 102.9C439.4 102.9 438.9 102.8 438.5 102.8C437.4 102.8 436.5 103 435.6 103.5C434.7 104 434.1 104.6 433.6 105.4C433.1 106.2 432.9 107.1 432.9 108.2V122.8H427Z" fill="#77809C"/>
<path d="M455.7 123.3C453.2 123.3 451 122.8 449.2 121.7C447.4 120.7 446 119.2 445 117.3C444 115.4 443.5 113.1 443.5 110.5C443.5 107.9 444 105.7 445 103.7C446 101.8 447.3 100.2 449.1 99.2001C450.9 98.2001 452.9 97.6001 455.3 97.6001C456.8 97.6001 458.3 97.8001 459.7 98.3001C461.1 98.8001 462.3 99.6001 463.3 100.6C464.4 101.6 465.2 102.9 465.8 104.5C466.4 106.1 466.7 108 466.7 110.2V112H446.3V108H461.1C461.1 106.9 460.8 105.9 460.4 105C459.9 104.1 459.3 103.4 458.4 102.9C457.6 102.4 456.6 102.1 455.4 102.1C454.2 102.1 453.1 102.4 452.2 103C451.3 103.6 450.6 104.3 450.1 105.3C449.6 106.3 449.3 107.3 449.3 108.4V111.9C449.3 113.3 449.6 114.6 450.1 115.6C450.6 116.6 451.4 117.4 452.3 118C453.3 118.5 454.4 118.8 455.6 118.8C456.5 118.8 457.2 118.7 457.9 118.4C458.6 118.2 459.2 117.8 459.7 117.3C460.2 116.8 460.6 116.2 460.9 115.5L466.4 116.1C466.1 117.5 465.4 118.8 464.4 119.9C463.4 121 462.2 121.8 460.7 122.4C459.3 123 457.6 123.3 455.7 123.3Z" fill="#77809C"/>
<path d="M482.1 123.3C479.6 123.3 477.5 122.8 475.7 121.7C473.9 120.6 472.6 119.1 471.6 117.2C470.6 115.3 470.2 113 470.2 110.5C470.2 108 470.7 105.7 471.7 103.8C472.7 101.9 474 100.3 475.8 99.3002C477.6 98.3002 479.7 97.7002 482.1 97.7002C484.1 97.7002 485.9 98.1002 487.5 98.8002C489.1 99.5002 490.3 100.6 491.2 101.9C492.1 103.2 492.7 104.8 492.8 106.6H487.2C487 105.4 486.4 104.4 485.6 103.6C484.8 102.8 483.6 102.4 482.2 102.4C481 102.4 479.9 102.7 479 103.4C478.1 104 477.4 105 476.9 106.2C476.4 107.4 476.1 108.8 476.1 110.5C476.1 112.2 476.3 113.7 476.8 114.9C477.3 116.1 478 117.1 478.9 117.7C479.8 118.3 480.9 118.7 482.1 118.7C483 118.7 483.7 118.5 484.4 118.2C485.1 117.9 485.7 117.4 486.1 116.8C486.6 116.2 486.9 115.4 487.1 114.5H492.7C492.6 116.3 492 117.8 491.1 119.2C490.2 120.6 489 121.6 487.4 122.4C486 122.9 484.2 123.3 482.1 123.3Z" fill="#77809C"/>
<path d="M509.6 97.8999V102.4H495.3V97.8999H509.6ZM498.8 91.8999H504.7V115.3C504.7 116.1 504.8 116.7 505.1 117.1C505.3 117.5 505.7 117.8 506.1 118C506.5 118.2 506.9 118.2 507.4 118.2C507.8 118.2 508.1 118.2 508.4 118.1C508.7 118 508.9 118 509.1 118L510.1 122.6C509.8 122.7 509.3 122.8 508.8 123C508.2 123.1 507.5 123.2 506.7 123.2C505.2 123.2 503.9 123 502.7 122.5C501.5 122 500.6 121.2 499.9 120.2C499.2 119.2 498.9 117.9 498.9 116.3V91.8999H498.8Z" fill="#77809C"/>
<path d="M531.2 89.6001V122.8H525.2V89.6001H531.2Z" fill="#77809C"/>
<path d="M542.9 108.2V122.8H537V97.9001H542.6V102.1H542.9C543.5 100.7 544.4 99.6001 545.6 98.8001C546.9 98.0001 548.4 97.6001 550.3 97.6001C552 97.6001 553.5 98.0001 554.8 98.7001C556.1 99.4001 557.1 100.5 557.8 101.9C558.5 103.3 558.9 105 558.8 107V122.9H553V107.9C553 106.2 552.6 104.9 551.7 104C550.8 103.1 549.7 102.6 548.1 102.6C547.1 102.6 546.2 102.8 545.4 103.3C544.6 103.7 544 104.4 543.5 105.2C543 106 542.9 107 542.9 108.2Z" fill="#77809C"/>
<path d="M586.7 97.8999L577.8 122.8H571.3L562.4 97.8999H568.7L574.4 116.4H574.7L580.4 97.8999H586.7Z" fill="#77809C"/>
<path d="M601.3 123.3C598.8 123.3 596.6 122.8 594.8 121.7C593 120.7 591.6 119.2 590.6 117.3C589.6 115.4 589.1 113.1 589.1 110.5C589.1 107.9 589.6 105.7 590.6 103.7C591.6 101.8 592.9 100.2 594.7 99.2001C596.5 98.2001 598.5 97.6001 600.9 97.6001C602.4 97.6001 603.9 97.8001 605.3 98.3001C606.7 98.8001 607.9 99.6001 608.9 100.6C610 101.6 610.8 102.9 611.4 104.5C612 106.1 612.3 108 612.3 110.2V112H592V108H606.8C606.8 106.9 606.5 105.9 606.1 105C605.6 104.1 605 103.4 604.1 102.9C603.3 102.4 602.3 102.1 601.1 102.1C599.9 102.1 598.8 102.4 597.9 103C597 103.6 596.3 104.3 595.8 105.3C595.3 106.3 595 107.3 595 108.4V111.9C595 113.3 595.3 114.6 595.8 115.6C596.3 116.6 597.1 117.4 598 118C599 118.5 600.1 118.8 601.3 118.8C602.2 118.8 602.9 118.7 603.6 118.4C604.3 118.2 604.9 117.8 605.4 117.3C605.9 116.8 606.3 116.2 606.6 115.5L612.1 116.1C611.8 117.5 611.1 118.8 610.1 119.9C609.1 121 607.9 121.8 606.4 122.4C605 123 603.3 123.3 601.3 123.3Z" fill="#77809C"/>
<path d="M636.6 104.5L631.2 105.1C631 104.6 630.8 104.1 630.4 103.6C630 103.1 629.5 102.7 628.9 102.4C628.3 102.1 627.5 102 626.6 102C625.4 102 624.4 102.3 623.5 102.8C622.7 103.3 622.3 104 622.3 104.9C622.3 105.6 622.6 106.2 623.1 106.7C623.6 107.2 624.6 107.5 625.8 107.8L630 108.7C632.4 109.2 634.1 110 635.3 111.1C636.5 112.2 637 113.6 637 115.4C637 117 636.5 118.4 635.6 119.5C634.7 120.7 633.4 121.6 631.8 122.3C630.2 123 628.4 123.3 626.3 123.3C623.3 123.3 620.8 122.7 618.9 121.4C617 120.1 615.9 118.3 615.6 116L621.3 115.4C621.6 116.5 622.1 117.4 623 117.9C623.9 118.4 624.9 118.8 626.3 118.8C627.7 118.8 628.8 118.5 629.7 117.9C630.5 117.3 631 116.6 631 115.8C631 115.1 630.7 114.5 630.2 114C629.7 113.5 628.8 113.2 627.7 112.9L623.4 112C621 111.5 619.2 110.7 618.1 109.5C617 108.3 616.4 106.8 616.4 105C616.4 103.5 616.8 102.1 617.7 101C618.6 99.9 619.7 99 621.3 98.4C622.8 97.8 624.6 97.5 626.6 97.5C629.5 97.5 631.8 98.1 633.5 99.4C635.2 100.7 636.2 102.3 636.6 104.5Z" fill="#77809C"/>
<path d="M654 97.8999V102.4H639.7V97.8999H654ZM643.2 91.8999H649.1V115.3C649.1 116.1 649.2 116.7 649.5 117.1C649.7 117.5 650.1 117.8 650.5 118C650.9 118.2 651.3 118.2 651.8 118.2C652.2 118.2 652.5 118.2 652.8 118.1C653.1 118 653.3 118 653.5 118L654.5 122.6C654.2 122.7 653.7 122.8 653.2 123C652.6 123.1 651.9 123.2 651.1 123.2C649.6 123.2 648.3 123 647.1 122.5C645.9 122 645 121.2 644.3 120.2C643.6 119.2 643.3 117.9 643.3 116.3V91.8999H643.2Z" fill="#77809C"/>
<path d="M658.4 122.8V97.9001H664V102.1H664.3C664.8 100.7 665.7 99.6001 666.9 98.8001C668.1 98.0001 669.5 97.6001 671.2 97.6001C672.9 97.6001 674.3 98.0001 675.5 98.8001C676.7 99.6001 677.5 100.7 678 102.1H678.3C678.9 100.7 679.8 99.6001 681.1 98.8001C682.4 98.0001 684 97.6001 685.8 97.6001C688.1 97.6001 690 98.3001 691.4 99.8001C692.8 101.2 693.6 103.4 693.6 106.1V122.8H687.7V107C687.7 105.5 687.3 104.3 686.5 103.6C685.7 102.9 684.7 102.5 683.5 102.5C682.1 102.5 681 102.9 680.2 103.8C679.4 104.7 679 105.8 679 107.2V122.7H673.2V106.6C673.2 105.3 672.8 104.3 672 103.5C671.2 102.7 670.2 102.3 669 102.3C668.2 102.3 667.4 102.5 666.7 102.9C666 103.3 665.5 103.9 665 104.7C664.6 105.5 664.4 106.4 664.4 107.4V122.6H658.4V122.8Z" fill="#77809C"/>
<path d="M710 123.3C707.5 123.3 705.3 122.8 703.5 121.7C701.7 120.7 700.3 119.2 699.3 117.3C698.3 115.4 697.8 113.1 697.8 110.5C697.8 107.9 698.3 105.7 699.3 103.7C700.3 101.8 701.6 100.2 703.4 99.2001C705.2 98.2001 707.2 97.6001 709.6 97.6001C711.1 97.6001 712.6 97.8001 714 98.3001C715.4 98.8001 716.6 99.6001 717.6 100.6C718.7 101.6 719.5 102.9 720.1 104.5C720.7 106.1 721 108 721 110.2V112H700.6V108H715.4C715.4 106.9 715.1 105.9 714.7 105C714.2 104.1 713.6 103.4 712.7 102.9C711.9 102.4 710.9 102.1 709.7 102.1C708.5 102.1 707.4 102.4 706.5 103C705.6 103.6 704.9 104.3 704.4 105.3C703.9 106.3 703.6 107.3 703.6 108.4V111.9C703.6 113.3 703.9 114.6 704.4 115.6C704.9 116.6 705.7 117.4 706.6 118C707.6 118.5 708.7 118.8 709.9 118.8C710.8 118.8 711.5 118.7 712.2 118.4C712.9 118.2 713.5 117.8 714 117.3C714.5 116.8 714.9 116.2 715.2 115.5L720.7 116.1C720.4 117.5 719.7 118.8 718.7 119.9C717.7 121 716.5 121.8 715 122.4C713.7 123 711.9 123.3 710 123.3Z" fill="#77809C"/>
<path d="M731.5 108.2V122.8H725.6V97.9001H731.2V102.1H731.5C732.1 100.7 733 99.6001 734.2 98.8001C735.5 98.0001 737 97.6001 738.9 97.6001C740.6 97.6001 742.1 98.0001 743.4 98.7001C744.7 99.4001 745.7 100.5 746.4 101.9C747.1 103.3 747.5 105 747.4 107V122.9H741.5V107.9C741.5 106.2 741.1 104.9 740.2 104C739.3 103.1 738.2 102.6 736.6 102.6C735.6 102.6 734.7 102.8 733.9 103.3C733.1 103.7 732.5 104.4 732 105.2C731.5 106 731.5 107 731.5 108.2Z" fill="#77809C"/>
<path d="M765.4 97.8999V102.4H751.1V97.8999H765.4ZM754.6 91.8999H760.5V115.3C760.5 116.1 760.6 116.7 760.9 117.1C761.1 117.5 761.5 117.8 761.9 118C762.3 118.2 762.7 118.2 763.2 118.2C763.6 118.2 763.9 118.2 764.2 118.1C764.5 118 764.7 118 764.9 118L765.9 122.6C765.6 122.7 765.1 122.8 764.6 123C764 123.1 763.3 123.2 762.5 123.2C761 123.2 759.7 123 758.5 122.5C757.3 122 756.4 121.2 755.7 120.2C755 119.2 754.7 117.9 754.7 116.3V91.8999H754.6Z" fill="#77809C"/>
<path d="M782.2 109.2C782.2 105.1 782.7 101.4 783.8 98.0001C784.9 94.6001 786.5 91.5001 788.6 88.6001H794.1C793.3 89.7001 792.5 91.0001 791.8 92.5001C791.1 94.0001 790.5 95.7001 789.9 97.6001C789.3 99.5001 789 101.4 788.7 103.3C788.4 105.3 788.3 107.2 788.3 109.2C788.3 111.8 788.6 114.4 789.1 117C789.6 119.6 790.3 122.1 791.2 124.3C792.1 126.5 793.1 128.4 794.2 129.8H788.7C786.6 126.9 785 123.8 783.9 120.4C782.8 117 782.2 113.3 782.2 109.2Z" fill="#77809C"/>
<path d="M798.6 122.8V89.6001H819.9V94.6001H804.6V103.6H818.4V108.6H804.6V122.7H798.6V122.8Z" fill="#77809C"/>
<path d="M836.1 122.8H824.8V89.6001H836.3C839.6 89.6001 842.4 90.3001 844.8 91.6001C847.2 92.9001 849 94.8001 850.3 97.3001C851.6 99.8001 852.2 102.7 852.2 106.2C852.2 109.7 851.6 112.6 850.3 115.1C849 117.6 847.2 119.5 844.8 120.8C842.4 122.1 839.5 122.8 836.1 122.8ZM830.9 117.6H835.8C838.1 117.6 840 117.2 841.6 116.3C843.1 115.5 844.3 114.2 845.1 112.5C845.9 110.8 846.3 108.7 846.3 106.1C846.3 103.6 845.9 101.4 845.1 99.8001C844.3 98.1001 843.2 96.9001 841.7 96.0001C840.2 95.2001 838.3 94.7001 836 94.7001H830.9V117.6Z" fill="#77809C"/>
<path d="M863.5 89.6001V122.8H857.5V89.6001H863.5Z" fill="#77809C"/>
<path d="M879.8 109.2C879.8 113.2 879.3 117 878.2 120.4C877.1 123.8 875.5 126.9 873.4 129.8H867.9C868.7 128.7 869.5 127.4 870.2 125.9C870.9 124.4 871.5 122.7 872 120.8C872.5 118.9 872.9 117 873.2 115.1C873.5 113.1 873.6 111.2 873.6 109.3C873.6 106.7 873.3 104.1 872.8 101.5C872.3 98.9002 871.6 96.4002 870.7 94.2002C869.8 92.0002 868.8 90.1002 867.7 88.7002H873.2C875.3 91.6002 876.9 94.7002 878 98.1002C879.3 101.5 879.8 105.2 879.8 109.2Z" fill="#77809C"/>
<path d="M902.9 122.8L895.9 97.8999H901.9L906.3 115.4H906.5L911 97.8999H916.9L921.4 115.3H921.6L925.9 97.8999H931.9L924.8 122.8H918.7L914 106H913.7L909 122.8H902.9Z" fill="#77809C"/>
<path d="M942.7 123.3C941.1 123.3 939.7 123 938.4 122.4C937.1 121.8 936.1 121 935.4 119.9C934.7 118.8 934.3 117.4 934.3 115.8C934.3 114.4 934.6 113.2 935.1 112.3C935.6 111.4 936.3 110.6 937.2 110.1C938.1 109.5 939.1 109.1 940.2 108.8C941.3 108.5 942.5 108.3 943.7 108.2C945.2 108 946.3 107.9 947.3 107.8C948.3 107.7 948.9 107.5 949.3 107.2C949.7 106.9 949.9 106.5 949.9 106V105.9C949.9 104.7 949.5 103.7 948.8 103.1C948.1 102.4 947 102.1 945.7 102.1C944.3 102.1 943.1 102.4 942.3 103C941.5 103.6 940.9 104.4 940.6 105.2L935.1 104.4C935.5 102.9 936.2 101.6 937.2 100.6C938.2 99.6 939.4 98.8 940.8 98.3C942.2 97.8 943.8 97.5 945.6 97.5C946.8 97.5 948 97.6 949.2 97.9C950.4 98.2 951.5 98.6 952.5 99.3C953.5 100 954.3 100.8 954.9 101.9C955.5 103 955.8 104.4 955.8 106V122.7H950.2V119.3H950C949.6 120 949.1 120.6 948.5 121.2C947.9 121.8 947.1 122.3 946.1 122.6C945.1 123.1 944 123.3 942.7 123.3ZM944.2 119C945.4 119 946.4 118.8 947.3 118.3C948.2 117.8 948.8 117.2 949.3 116.4C949.8 115.6 950 114.8 950 113.9V111C949.8 111.2 949.5 111.3 949.1 111.4C948.7 111.5 948.2 111.6 947.6 111.7C947.1 111.8 946.5 111.9 946 112C945.5 112.1 945 112.1 944.6 112.2C943.7 112.3 942.9 112.5 942.2 112.8C941.5 113.1 941 113.4 940.6 113.9C940.2 114.4 940 115 940 115.8C940 116.9 940.4 117.7 941.2 118.2C942 118.7 943 119 944.2 119Z" fill="#77809C"/>
<path d="M981 104.5L975.6 105.1C975.4 104.6 975.2 104.1 974.8 103.6C974.4 103.1 973.9 102.7 973.3 102.4C972.7 102.1 971.9 102 971 102C969.8 102 968.8 102.3 967.9 102.8C967.1 103.3 966.7 104 966.7 104.9C966.7 105.6 967 106.2 967.5 106.7C968 107.2 969 107.5 970.2 107.8L974.4 108.7C976.8 109.2 978.5 110 979.7 111.1C980.9 112.2 981.4 113.6 981.4 115.4C981.4 117 980.9 118.4 980 119.5C979.1 120.7 977.8 121.6 976.2 122.3C974.6 123 972.8 123.3 970.7 123.3C967.7 123.3 965.2 122.7 963.3 121.4C961.4 120.1 960.3 118.3 960 116L965.7 115.4C966 116.5 966.5 117.4 967.4 117.9C968.3 118.4 969.3 118.8 970.7 118.8C972.1 118.8 973.2 118.5 974.1 117.9C974.9 117.3 975.4 116.6 975.4 115.8C975.4 115.1 975.1 114.5 974.6 114C974.1 113.5 973.2 113.2 972.1 112.9L967.9 112C965.5 111.5 963.7 110.7 962.6 109.5C961.5 108.3 960.9 106.8 960.9 105C960.9 103.5 961.3 102.1 962.2 101C963.1 99.9 964.2 99 965.8 98.4C967.3 97.8 969.1 97.5 971.1 97.5C974 97.5 976.3 98.1 978 99.4C979.6 100.7 980.6 102.3 981 104.5Z" fill="#77809C"/>
<path d="M76.1999 153.5C75.9999 152.1 75.3999 151 74.2999 150.2C73.1999 149.4 71.6999 149 69.8999 149C68.5999 149 67.5999 149.2 66.6999 149.6C65.7999 150 65.0999 150.5 64.5999 151.1C64.0999 151.7 63.8999 152.5 63.8999 153.3C63.8999 154 64.0999 154.6 64.3999 155.1C64.6999 155.6 65.1999 156 65.6999 156.4C66.2999 156.8 66.8999 157 67.4999 157.3C68.1999 157.5 68.7999 157.7 69.4999 157.9L72.5999 158.7C73.8999 159 75.0999 159.4 76.1999 159.9C77.2999 160.4 78.3999 161 79.2999 161.8C80.1999 162.6 80.9999 163.5 81.4999 164.5C81.9999 165.6 82.2999 166.8 82.2999 168.3C82.2999 170.2 81.7999 172 80.7999 173.4C79.7999 174.9 78.3999 176 76.4999 176.9C74.5999 177.7 72.3999 178.1 69.6999 178.1C67.0999 178.1 64.8999 177.7 62.9999 176.9C61.0999 176.1 59.5999 174.9 58.5999 173.4C57.4999 171.9 56.9999 170 56.8999 167.8H62.7999C62.8999 169 63.1999 169.9 63.8999 170.7C64.4999 171.5 65.2999 172 66.3999 172.4C67.4999 172.8 68.4999 173 69.7999 173C71.0999 173 72.2999 172.8 73.1999 172.4C74.1999 172 74.9999 171.5 75.4999 170.7C76.0999 170 76.2999 169.2 76.3999 168.2C76.3999 167.3 76.0999 166.6 75.5999 166.1C75.0999 165.6 74.3999 165.1 73.4999 164.7C72.5999 164.3 71.5999 164 70.3999 163.7L66.5999 162.7C63.8999 162 61.6999 160.9 60.0999 159.5C58.4999 158.1 57.6999 156.2 57.6999 153.8C57.6999 151.8 58.1999 150.1 59.2999 148.7C60.3999 147.2 61.7999 146.1 63.6999 145.3C65.4999 144.5 67.5999 144.1 69.8999 144.1C72.2999 144.1 74.2999 144.5 76.0999 145.3C77.8999 146.1 79.2999 147.2 80.2999 148.7C81.2999 150.1 81.7999 151.8 81.8999 153.7H76.1999V153.5ZM68.5999 181.8V140.3H71.2999V181.8H68.5999Z" fill="#242438"/>
<path d="M100.6 144.4V177.6H94.6001V150.2H94.4001L86.6001 155.2V149.7L94.9001 144.4H100.6Z" fill="#242438"/>
<path d="M112.2 178C111.2 178 110.4 177.7 109.7 177C109 176.3 108.7 175.5 108.7 174.5C108.7 173.5 109 172.7 109.7 172C110.4 171.3 111.2 171 112.2 171C113.2 171 114 171.3 114.7 172C115.4 172.7 115.8 173.5 115.8 174.5C115.8 175.2 115.6 175.8 115.3 176.3C115 176.8 114.5 177.3 114 177.6C113.5 177.8 112.9 178 112.2 178Z" fill="#242438"/>
<path d="M133.3 178.1C131 178.1 128.9 177.7 127.1 176.9C125.3 176.1 123.9 175 122.8 173.6C121.8 172.2 121.2 170.5 121.1 168.7H127.2C127.3 169.6 127.6 170.4 128.1 171C128.6 171.7 129.4 172.2 130.3 172.5C131.2 172.9 132.2 173.1 133.3 173.1C134.5 173.1 135.5 172.9 136.5 172.5C137.4 172.1 138.1 171.5 138.7 170.8C139.3 170.1 139.5 169.2 139.5 168.2C139.5 167.2 139.3 166.3 138.7 165.5C138.2 164.7 137.4 164.1 136.4 163.7C135.4 163.3 134.2 163.1 132.8 163.1H129.9V158.5H132.8C134 158.5 135 158.3 135.8 157.9C136.7 157.5 137.4 156.9 137.9 156.2C138.4 155.5 138.6 154.6 138.6 153.7C138.6 152.8 138.4 151.9 138 151.2C137.6 150.5 137 150 136.2 149.6C135.4 149.2 134.5 149 133.5 149C132.5 149 131.5 149.2 130.7 149.6C129.8 150 129.1 150.5 128.6 151.2C128.1 151.9 127.8 152.7 127.8 153.6H122C122 151.7 122.6 150.1 123.6 148.7C124.6 147.3 126 146.2 127.7 145.4C129.4 144.6 131.4 144.2 133.5 144.2C135.7 144.2 137.6 144.6 139.3 145.4C140.9 146.2 142.2 147.3 143.1 148.7C144 150.1 144.4 151.6 144.4 153.3C144.4 155.2 143.9 156.7 142.8 158C141.7 159.3 140.2 160.1 138.4 160.5V160.8C140.7 161.1 142.5 162 143.8 163.4C145.1 164.8 145.7 166.5 145.7 168.6C145.7 170.5 145.2 172.1 144.1 173.6C143 175.1 141.6 176.2 139.8 177C138 177.8 135.7 178.1 133.3 178.1Z" fill="#242438"/>
<path d="M162.6 178.1C160.3 178.1 158.2 177.7 156.4 176.9C154.6 176.1 153.2 175 152.1 173.6C151.1 172.2 150.5 170.5 150.4 168.7H156.5C156.6 169.6 156.9 170.4 157.4 171C157.9 171.7 158.7 172.2 159.6 172.5C160.5 172.9 161.5 173.1 162.6 173.1C163.8 173.1 164.8 172.9 165.8 172.5C166.7 172.1 167.4 171.5 168 170.8C168.6 170.1 168.8 169.2 168.8 168.2C168.8 167.2 168.6 166.3 168 165.5C167.5 164.7 166.7 164.1 165.7 163.7C164.7 163.3 163.5 163.1 162.1 163.1H159V158.5H161.9C163.1 158.5 164.1 158.3 164.9 157.9C165.8 157.5 166.5 156.9 167 156.2C167.5 155.5 167.7 154.6 167.7 153.7C167.7 152.8 167.5 151.9 167.1 151.2C166.7 150.5 166.1 150 165.3 149.6C164.5 149.2 163.6 149 162.6 149C161.6 149 160.6 149.2 159.8 149.6C158.9 150 158.2 150.5 157.7 151.2C157.2 151.9 156.9 152.7 156.9 153.6H151.1C151.1 151.7 151.7 150.1 152.7 148.7C153.7 147.3 155.1 146.2 156.8 145.4C158.5 144.6 160.5 144.2 162.6 144.2C164.8 144.2 166.7 144.6 168.4 145.4C170 146.2 171.3 147.3 172.2 148.7C173.1 150.1 173.5 151.6 173.5 153.3C173.5 155.2 173 156.7 171.9 158C170.8 159.3 169.3 160.1 167.5 160.5V160.8C169.8 161.1 171.6 162 172.9 163.4C174.2 164.8 174.8 166.5 174.8 168.6C174.8 170.5 174.3 172.1 173.2 173.6C172.1 175.1 170.7 176.2 168.9 177C167.1 177.8 165 178.1 162.6 178.1Z" fill="#242438"/>
<path d="M203.4 152.7V157.2H189V152.7H203.4ZM192.6 146.7H198.5V170.1C198.5 170.9 198.6 171.5 198.9 171.9C199.1 172.3 199.5 172.6 199.9 172.8C200.3 173 200.7 173 201.2 173C201.6 173 201.9 173 202.2 172.9C202.5 172.8 202.7 172.8 202.9 172.8L203.9 177.4C203.6 177.5 203.1 177.6 202.6 177.8C202 177.9 201.3 178 200.5 178C199 178 197.7 177.8 196.5 177.3C195.3 176.8 194.4 176 193.7 175C193 174 192.7 172.7 192.7 171.1V146.7H192.6Z" fill="#242438"/>
<path d="M207.8 177.6V152.7H213.5V156.9H213.8C214.3 155.5 215 154.4 216.1 153.6C217.2 152.8 218.5 152.4 219.9 152.4C220.2 152.4 220.6 152.4 221 152.4C221.4 152.4 221.7 152.5 222 152.5V157.9C221.8 157.8 221.4 157.7 220.8 157.7C220.2 157.7 219.7 157.6 219.3 157.6C218.2 157.6 217.3 157.8 216.4 158.3C215.5 158.8 214.9 159.4 214.4 160.2C213.9 161 213.7 161.9 213.7 163V177.6H207.8Z" fill="#242438"/>
<path d="M228.4 149.1C227.5 149.1 226.7 148.8 226 148.2C225.3 147.6 225 146.8 225 145.9C225 145 225.3 144.3 226 143.7C226.7 143.1 227.5 142.8 228.4 142.8C229.3 142.8 230.1 143.1 230.8 143.7C231.5 144.3 231.8 145.1 231.8 146C231.8 146.9 231.5 147.6 230.8 148.2C230.2 148.8 229.4 149.1 228.4 149.1ZM225.5 177.6V152.7H231.4V177.6H225.5Z" fill="#242438"/>
<path d="M242.8 144.4V177.6H236.9V144.4H242.8Z" fill="#242438"/>
<path d="M254.3 144.4V177.6H248.4V144.4H254.3Z" fill="#242438"/>
<path d="M262.8 149.1C261.9 149.1 261.1 148.8 260.4 148.2C259.7 147.6 259.4 146.8 259.4 145.9C259.4 145 259.7 144.3 260.4 143.7C261.1 143.1 261.9 142.8 262.8 142.8C263.7 142.8 264.5 143.1 265.2 143.7C265.9 144.3 266.2 145.1 266.2 146C266.2 146.9 265.9 147.6 265.2 148.2C264.5 148.8 263.7 149.1 262.8 149.1ZM259.8 177.6V152.7H265.7V177.6H259.8Z" fill="#242438"/>
<path d="M282.2 178.1C279.8 178.1 277.7 177.6 275.9 176.5C274.1 175.4 272.7 173.9 271.8 172C270.8 170.1 270.3 167.8 270.3 165.3C270.3 162.7 270.8 160.5 271.8 158.5C272.8 156.6 274.2 155.1 275.9 154C277.7 152.9 279.8 152.4 282.2 152.4C284.6 152.4 286.7 152.9 288.5 154C290.3 155.1 291.7 156.6 292.6 158.5C293.6 160.4 294.1 162.7 294.1 165.3C294.1 167.9 293.6 170.1 292.6 172C291.6 173.9 290.2 175.4 288.5 176.5C286.7 177.6 284.6 178.1 282.2 178.1ZM282.2 173.4C283.5 173.4 284.6 173 285.5 172.3C286.4 171.6 287 170.6 287.5 169.4C287.9 168.2 288.2 166.8 288.2 165.3C288.2 163.8 288 162.4 287.5 161.2C287 160 286.4 159 285.5 158.2C284.6 157.5 283.5 157.1 282.2 157.1C280.8 157.1 279.7 157.5 278.8 158.2C277.9 158.9 277.2 159.9 276.8 161.2C276.4 162.5 276.1 163.8 276.1 165.3C276.1 166.8 276.3 168.2 276.8 169.4C277.2 170.6 277.9 171.6 278.8 172.3C279.7 173 280.8 173.4 282.2 173.4Z" fill="#242438"/>
<path d="M304.5 163V177.6H298.6V152.7H304.2V156.9H304.5C305.1 155.5 306 154.4 307.2 153.6C308.5 152.8 310 152.4 311.9 152.4C313.6 152.4 315.1 152.8 316.4 153.5C317.7 154.2 318.7 155.3 319.4 156.7C320.1 158.1 320.5 159.8 320.4 161.8V177.7H314.5V162.7C314.5 161 314.1 159.7 313.2 158.8C312.3 157.9 311.2 157.4 309.6 157.4C308.6 157.4 307.7 157.6 306.9 158.1C306.1 158.5 305.5 159.2 305 160C304.5 160.8 304.5 161.8 304.5 163Z" fill="#242438"/>
<path d="M339.8 149.1C338.9 149.1 338.1 148.8 337.4 148.2C336.7 147.6 336.4 146.8 336.4 145.9C336.4 145 336.7 144.3 337.4 143.7C338.1 143.1 338.9 142.8 339.8 142.8C340.7 142.8 341.5 143.1 342.2 143.7C342.9 144.3 343.2 145.1 343.2 146C343.2 146.9 342.9 147.6 342.2 148.2C341.6 148.8 340.8 149.1 339.8 149.1ZM336.9 177.6V152.7H342.8V177.6H336.9Z" fill="#77809C"/>
<path d="M354.2 163V177.6H348.3V152.7H353.9V156.9H354.2C354.8 155.5 355.7 154.4 356.9 153.6C358.2 152.8 359.7 152.4 361.6 152.4C363.3 152.4 364.8 152.8 366.1 153.5C367.4 154.2 368.4 155.3 369.1 156.7C369.8 158.1 370.2 159.8 370.1 161.8V177.7H364.2V162.7C364.2 161 363.8 159.7 362.9 158.8C362 157.9 360.9 157.4 359.3 157.4C358.3 157.4 357.4 157.6 356.6 158.1C355.8 158.5 355.2 159.2 354.7 160C354.2 160.8 354.2 161.8 354.2 163Z" fill="#77809C"/>
<path d="M386.5 177.6V173.3L398 162C399.1 160.9 400 159.9 400.8 159C401.5 158.1 402.1 157.3 402.5 156.5C402.9 155.7 403.1 154.8 403.1 153.9C403.1 152.9 402.9 152 402.4 151.2C401.9 150.4 401.3 149.9 400.4 149.5C399.6 149.1 398.6 148.9 397.6 148.9C396.5 148.9 395.6 149.1 394.7 149.6C393.9 150 393.2 150.7 392.8 151.5C392.4 152.3 392.1 153.3 392.1 154.4H386.4C386.4 152.3 386.9 150.5 387.8 148.9C388.8 147.3 390.1 146.1 391.8 145.3C393.5 144.5 395.4 144 397.6 144C399.8 144 401.8 144.4 403.5 145.2C405.2 146 406.5 147.2 407.4 148.6C408.3 150 408.8 151.7 408.8 153.6C408.8 154.8 408.6 156.1 408.1 157.3C407.6 158.5 406.8 159.8 405.6 161.3C404.4 162.8 402.7 164.5 400.6 166.6L394.9 172.4V172.6H409.4V177.6H386.5Z" fill="#77809C"/>
<path d="M426.8 178.2C424.1 178.2 421.8 177.5 419.9 176.2C418 174.8 416.5 172.9 415.5 170.3C414.5 167.7 414 164.6 414 161C414 157.4 414.5 154.3 415.5 151.7C416.5 149.1 418 147.2 419.9 145.9C421.8 144.6 424.1 143.9 426.8 143.9C429.5 143.9 431.7 144.6 433.7 145.9C435.7 147.2 437.1 149.2 438.1 151.7C439.1 154.3 439.6 157.3 439.6 160.9C439.6 164.5 439.1 167.6 438.1 170.2C437.1 172.8 435.6 174.7 433.7 176.1C431.7 177.6 429.4 178.2 426.8 178.2ZM426.8 173.2C428.9 173.2 430.5 172.2 431.7 170.1C432.9 168.1 433.5 165 433.5 161C433.5 158.4 433.2 156.1 432.7 154.3C432.1 152.5 431.4 151.2 430.4 150.2C429.4 149.3 428.2 148.8 426.8 148.8C424.7 148.8 423.1 149.8 421.9 151.9C420.7 153.9 420.1 157 420.1 160.9C420.1 163.5 420.4 165.8 420.9 167.6C421.4 169.4 422.2 170.8 423.2 171.7C424.2 172.6 425.4 173.2 426.8 173.2Z" fill="#77809C"/>
<path d="M444.5 177.6V173.3L456 162C457.1 160.9 458 159.9 458.8 159C459.5 158.1 460.1 157.3 460.5 156.5C460.9 155.7 461.1 154.8 461.1 153.9C461.1 152.9 460.9 152 460.4 151.2C459.9 150.4 459.3 149.9 458.4 149.5C457.6 149.1 456.6 148.9 455.6 148.9C454.5 148.9 453.6 149.1 452.7 149.6C451.9 150 451.2 150.7 450.8 151.5C450.4 152.3 450.1 153.3 450.1 154.4H444.4C444.4 152.3 444.9 150.5 445.8 148.9C446.8 147.3 448.1 146.1 449.8 145.3C451.5 144.5 453.4 144 455.6 144C457.8 144 459.8 144.4 461.5 145.2C463.2 146 464.5 147.2 465.4 148.6C466.3 150 466.8 151.7 466.8 153.6C466.8 154.8 466.6 156.1 466.1 157.3C465.6 158.5 464.8 159.8 463.6 161.3C462.4 162.8 460.7 164.5 458.6 166.6L452.9 172.4V172.6H467.4V177.6H444.5Z" fill="#77809C"/>
<path d="M484.3 178.1C482 178.1 479.9 177.7 478.1 176.9C476.3 176.1 474.9 175 473.8 173.6C472.8 172.2 472.2 170.5 472.1 168.7H478.2C478.3 169.6 478.6 170.4 479.1 171C479.6 171.7 480.4 172.2 481.3 172.5C482.2 172.9 483.2 173.1 484.3 173.1C485.5 173.1 486.5 172.9 487.5 172.5C488.4 172.1 489.1 171.5 489.7 170.8C490.3 170.1 490.5 169.2 490.5 168.2C490.5 167.2 490.3 166.3 489.7 165.5C489.2 164.7 488.4 164.1 487.4 163.7C486.4 163.3 485.2 163.1 483.8 163.1H480.9V158.5H483.8C485 158.5 486 158.3 486.8 157.9C487.7 157.5 488.4 156.9 488.9 156.2C489.4 155.5 489.6 154.6 489.6 153.7C489.6 152.8 489.4 151.9 489 151.2C488.6 150.5 488 150 487.2 149.6C486.4 149.2 485.5 149 484.5 149C483.5 149 482.5 149.2 481.7 149.6C480.8 150 480.1 150.5 479.6 151.2C479.1 151.9 478.8 152.7 478.8 153.6H473C473 151.7 473.6 150.1 474.6 148.7C475.6 147.3 477 146.2 478.7 145.4C480.4 144.6 482.4 144.2 484.5 144.2C486.7 144.2 488.6 144.6 490.3 145.4C491.9 146.2 493.2 147.3 494.1 148.7C495 150.1 495.4 151.6 495.4 153.3C495.4 155.2 494.9 156.7 493.8 158C492.7 159.3 491.2 160.1 489.4 160.5V160.8C491.7 161.1 493.5 162 494.8 163.4C496.1 164.8 496.7 166.5 496.7 168.6C496.7 170.5 496.2 172.1 495.1 173.6C494 175.1 492.6 176.2 490.8 177C489 177.8 486.7 178.1 484.3 178.1Z" fill="#77809C"/>
<path d="M505.4 178C504.4 178 503.6 177.7 502.9 177C502.2 176.3 501.9 175.5 501.9 174.5C501.9 173.5 502.2 172.7 502.9 172C503.6 171.3 504.4 171 505.4 171C506.4 171 507.2 171.3 507.9 172C508.6 172.7 509 173.5 509 174.5C509 175.2 508.8 175.8 508.5 176.3C508.2 176.8 507.7 177.3 507.2 177.6C506.6 177.8 506 178 505.4 178Z" fill="#77809C"/>
</g>
<mask id="mask5_4_2806" style="mask-type:luminance" maskUnits="userSpaceOnUse" x="0" y="0" width="1521" height="255">
<path d="M1521 0H0V255H1521V0Z" fill="white"/>
</mask>
<g mask="url(#mask5_4_2806)">
<path d="M1456 192C1461.52 192 1466 187.523 1466 182C1466 176.477 1461.52 172 1456 172C1450.48 172 1446 176.477 1446 182C1446 187.523 1450.48 192 1456 192Z" fill="#F2FCFF"/>
</g>
<mask id="mask6_4_2806" style="mask-type:luminance" maskUnits="userSpaceOnUse" x="0" y="0" width="1521" height="255">
<path d="M1521 0H0V255H1521V0Z" fill="white"/>
</mask>
<g mask="url(#mask6_4_2806)">
<path d="M655 274C667.703 274 678 263.703 678 251C678 238.297 667.703 228 655 228C642.297 228 632 238.297 632 251C632 263.703 642.297 274 655 274Z" fill="#F2FCFF"/>
</g>
<mask id="mask7_4_2806" style="mask-type:luminance" maskUnits="userSpaceOnUse" x="0" y="0" width="1521" height="255">
<path d="M1521 0H0V255H1521V0Z" fill="white"/>
</mask>
<g mask="url(#mask7_4_2806)">
<path d="M1379.2 267.3C1385.7 267.3 1391.7 267.3 1398.2 267.3C1398.2 266.2 1398.2 265.1 1398.2 264.1C1398.2 222.6 1398.2 181 1398.2 139.5C1398.2 133.1 1401.2 128.7 1406.7 127.3C1407.9 127 1409.2 126.9 1410.5 126.9C1416.8 126.9 1423.2 126.9 1429.5 126.9C1437.2 126.9 1441.9 131.7 1441.9 139.5C1441.9 181 1441.9 222.6 1441.9 264.1C1441.9 265.1 1441.9 266.1 1441.9 267.5C1444.3 267.5 1446.5 267.5 1448.7 267.5C1451.4 267.6 1453 269 1453 271.3C1453 273.5 1451.4 275.1 1448.8 275.3C1448 275.3 1447.3 275.3 1446.5 275.3C1365.9 275.3 1285.2 275.3 1204.6 275.3C1203.6 275.3 1202.5 275.4 1201.5 275.2C1199.4 274.8 1198.1 273.4 1198.2 271.3C1198.3 269.2 1199.6 267.8 1201.8 267.6C1204.2 267.5 1206.6 267.6 1209.3 267.6C1209.3 266.5 1209.3 265.6 1209.3 264.7C1209.3 254 1209.3 243.2 1209.3 232.5C1209.3 224.4 1214 219.7 1222 219.7C1228.3 219.7 1234.5 219.7 1240.8 219.7C1248.4 219.7 1253.1 224.4 1253.2 232.1C1253.3 242.9 1253.2 253.7 1253.2 264.5C1253.2 265.4 1253.2 266.3 1253.2 267.4C1259.6 267.4 1265.7 267.4 1272.2 267.4C1272.2 266.3 1272.2 265.2 1272.2 264.1C1272.2 231.8 1272.2 199.6 1272.2 167.3C1272.2 164.1 1272.6 161.1 1274.6 158.6C1277.1 155.4 1280.5 154 1284.5 154C1290.7 154 1296.9 154 1303 154C1311.4 154 1316.1 158.7 1316.1 167C1316.1 198.8 1316.1 230.7 1316.1 262.5C1316.1 264 1316.1 265.6 1316.1 267.3C1322.4 267.3 1328.5 267.3 1335.1 267.3C1335.1 266.3 1335.1 265.3 1335.1 264.2C1335.1 242.2 1335.3 220.3 1335 198.3C1334.9 189.6 1340.7 184.4 1348.7 184.7C1354.4 185 1360.2 184.7 1365.9 184.8C1374.1 184.8 1378.9 189.5 1378.9 197.7C1378.9 219.8 1378.9 242 1378.9 264.1C1379.2 265 1379.2 266.1 1379.2 267.3ZM1434.1 267.3C1434.2 266.8 1434.3 266.5 1434.3 266.2C1434.3 223.8 1434.3 181.4 1434.3 139C1434.3 136 1432.9 134.6 1429.9 134.6C1423.8 134.6 1417.7 134.6 1411.6 134.6C1406.9 134.6 1405.9 135.6 1405.9 140.3C1405.9 181.7 1405.9 223 1405.9 264.4C1405.9 265.3 1405.9 266.2 1405.9 267.3C1415.4 267.3 1424.6 267.3 1434.1 267.3ZM1308.3 267.3C1308.4 266.4 1308.4 265.7 1308.4 264.9C1308.4 232.2 1308.4 199.5 1308.4 166.8C1308.4 162.7 1307.1 161.5 1302.9 161.5C1297.2 161.5 1291.4 161.5 1285.7 161.5C1281.1 161.5 1280 162.7 1280 167.3C1280 199.6 1280 232 1280 264.3C1280 265.2 1280 266.1 1280 267.2C1289.6 267.3 1298.9 267.3 1308.3 267.3ZM1371.3 267.3C1371.4 266.6 1371.4 266.3 1371.4 266C1371.4 243.1 1371.4 220.2 1371.4 197.3C1371.4 193.9 1369.9 192.5 1366.5 192.5C1360.6 192.5 1354.7 192.5 1348.7 192.5C1344 192.5 1342.9 193.6 1342.9 198.3C1342.9 220.4 1342.9 242.6 1342.9 264.7C1342.9 265.6 1343 266.5 1343.1 267.4C1352.7 267.3 1361.9 267.3 1371.3 267.3ZM1245.3 267.3C1245.4 266.8 1245.5 266.5 1245.5 266.2C1245.5 254.6 1245.5 243 1245.5 231.5C1245.5 228.7 1244.1 227.3 1241.1 227.3C1234.8 227.3 1228.6 227.3 1222.3 227.3C1218.3 227.3 1217.1 228.5 1217.1 232.5C1217.1 243.3 1217.1 254.1 1217.1 264.9C1217.1 265.7 1217.2 266.5 1217.2 267.3C1226.8 267.3 1236 267.3 1245.3 267.3Z" fill="#15BEE6"/>
<path d="M1242.3 140.7C1254 129.1 1265.5 117.7 1277.2 106.2C1274.1 101.2 1272.9 95.7998 1274.3 89.9998C1275.4 85.4998 1277.7 81.7998 1281.3 78.8998C1288.3 73.0998 1298.4 72.6998 1305.9 77.8998C1314 83.4998 1316.5 92.5998 1312.8 103.7C1322.9 111.2 1333.1 118.7 1343.2 126.2C1352.2 119.8 1358.5 119.2 1367.8 123.8C1381.7 108.5 1395.6 93.1998 1409.9 77.3998C1404.1 78.1998 1399 78.8998 1393.8 79.5998C1390.7 79.9998 1388.9 78.8998 1388.5 76.4998C1388.1 74.1998 1389.7 72.3998 1392.7 71.9998C1401.4 70.6998 1410.2 69.4998 1418.9 68.2998C1422 67.8998 1424.2 69.9998 1423.8 72.9998C1422.6 81.8998 1421.3 90.7998 1420 99.6998C1419.6 102.4 1417.7 103.9 1415.5 103.5C1413.2 103 1412.1 101.1 1412.5 98.3998C1413.1 93.8998 1413.7 89.3998 1413.9 84.6998C1400.5 99.3998 1387.1 114.2 1373.6 129C1377 134 1378.5 139.4 1377.3 145.4C1376.4 149.8 1374.3 153.6 1370.9 156.6C1364 162.8 1353.9 163.6 1346.1 158.6C1337.6 153.1 1334.9 144.1 1338.6 132.3C1328.6 124.8 1318.5 117.4 1308.2 109.8C1307.7 110.1 1307.3 110.4 1306.9 110.7C1299.7 116 1292.1 116.7 1284.2 112.5C1282.8 111.8 1282.2 112 1281.2 113C1270.7 123.6 1260.2 134.2 1249.6 144.7C1248.5 145.8 1248.4 146.6 1249.1 148C1253.3 155.9 1252.8 163.6 1247.3 170.6C1242 177.4 1234.8 179.8 1226.4 177.8C1217.8 175.7 1212.6 170 1211.1 161.3C1209.7 153.3 1212.5 146.5 1219 141.6C1225.5 136.7 1232.7 136.2 1240.1 139.5C1241 139.9 1241.7 140.4 1242.3 140.7ZM1370 141.3C1370 134.3 1364.2 128.5 1357.2 128.5C1350.2 128.5 1344.4 134.3 1344.4 141.3C1344.4 148.4 1350.3 154.3 1357.4 154.2C1364.3 154.1 1370 148.3 1370 141.3ZM1294.3 107.4C1301.3 107.4 1307.1 101.6 1307.1 94.5998C1307.1 87.5998 1301.3 81.7998 1294.3 81.7998C1287.2 81.7998 1281.4 87.5998 1281.5 94.7998C1281.5 101.8 1287.2 107.5 1294.3 107.4ZM1231.5 145.3C1224.4 145.2 1218.7 150.8 1218.6 157.9C1218.5 165 1224 170.7 1231.1 170.8C1238.3 170.9 1244.1 165.3 1244.2 158.1C1244.2 151.1 1238.5 145.4 1231.5 145.3Z" fill="#15BEE6"/>
</g>
<mask id="mask8_4_2806" style="mask-type:luminance" maskUnits="userSpaceOnUse" x="0" y="0" width="1521" height="255">
<path d="M1521 0H0V255H1521V0Z" fill="white"/>
</mask>
<g mask="url(#mask8_4_2806)">
<path d="M1473 95C1482.94 95 1491 86.9411 1491 77C1491 67.0589 1482.94 59 1473 59C1463.06 59 1455 67.0589 1455 77C1455 86.9411 1463.06 95 1473 95Z" fill="#D4F6FF"/>
</g>
<mask id="mask9_4_2806" style="mask-type:luminance" maskUnits="userSpaceOnUse" x="0" y="0" width="1521" height="255">
<path d="M1521 0H0V255H1521V0Z" fill="white"/>
</mask>
<g mask="url(#mask9_4_2806)">
<path d="M63.9 60.8999H57V39.3999H64.2C66.3 39.3999 68.1 39.7999 69.6 40.6999C71.1 41.5999 72.3 42.7999 73.1 44.3999C73.9 45.9999 74.3 47.8999 74.3 50.0999C74.3 52.2999 73.9 54.2999 73.1 55.8999C72.3 57.4999 71.1 58.6999 69.6 59.5999C67.9 60.4999 66.1 60.8999 63.9 60.8999ZM60.2 58.0999H63.7C65.3 58.0999 66.7 57.7999 67.8 57.1999C68.9 56.5999 69.7 55.6999 70.2 54.4999C70.7 53.2999 71 51.8999 71 50.1999C71 48.4999 70.7 47.0999 70.2 45.8999C69.7 44.6999 68.9 43.7999 67.8 43.1999C66.7 42.5999 65.4 42.2999 63.9 42.2999H60.2V58.0999Z" fill="#242438"/>
<path d="M79.6001 42.3C79.1001 42.3 78.6001 42.1 78.2001 41.7C77.8001 41.3 77.6001 40.9 77.6001 40.4C77.6001 39.9 77.8001 39.4 78.2001 39.1C78.6001 38.7 79.1001 38.5 79.6001 38.5C80.1001 38.5 80.6001 38.7 81.0001 39.1C81.4001 39.5 81.6001 39.9 81.6001 40.4C81.6001 40.9 81.4001 41.4 81.0001 41.7C80.6001 42.1 80.1001 42.3 79.6001 42.3ZM78.0001 60.9V44.8H81.1001V60.9H78.0001Z" fill="#242438"/>
<path d="M91.3 61.1999C90 61.1999 88.8 60.8999 87.8 60.1999C86.8 59.4999 86 58.5999 85.4 57.2999C84.8 56.0999 84.5 54.5999 84.5 52.7999C84.5 51.0999 84.8 49.5999 85.4 48.2999C86 47.0999 86.8 46.0999 87.8 45.4999C88.8 44.7999 90 44.4999 91.3 44.4999C92.3 44.4999 93.1 44.6999 93.7 44.9999C94.3 45.2999 94.8 45.6999 95.1 46.1999C95.4 46.5999 95.7 46.9999 95.9 47.3999H96.1V39.3999H99.2V60.8999H96.1V58.3999H96C95.8 58.6999 95.5 59.0999 95.2 59.5999C94.8 59.9999 94.4 60.3999 93.7 60.7999C93.1 60.9999 92.3 61.1999 91.3 61.1999ZM92 58.4999C92.9 58.4999 93.7 58.2999 94.3 57.7999C94.9 57.2999 95.4 56.6999 95.7 55.7999C96 54.8999 96.2 53.9999 96.2 52.7999C96.2 51.6999 96 50.6999 95.7 49.8999C95.4 49.0999 94.9 48.3999 94.3 47.8999C93.7 47.3999 92.9 47.1999 92 47.1999C91.1 47.1999 90.3 47.3999 89.6 47.8999C88.9 48.3999 88.5 49.0999 88.2 49.8999C87.9 50.6999 87.7 51.6999 87.7 52.7999C87.7 53.8999 87.9 54.7999 88.2 55.6999C88.5 56.5999 89 57.1999 89.6 57.6999C90.2 58.1999 91.1 58.4999 92 58.4999Z" fill="#242438"/>
<path d="M113.6 66.8998C113.1 66.8998 112.7 66.8998 112.3 66.7998C111.9 66.6998 111.6 66.5998 111.4 66.5998L112.2 63.9998C112.8 64.1998 113.3 64.1998 113.7 64.1998C114.1 64.1998 114.5 63.9998 114.9 63.6998C115.3 63.3998 115.6 62.8998 115.8 62.1998L116.2 61.0998L110.3 44.7998H113.7L117.8 57.2998H118L122.1 44.7998H125.5L118.7 62.9998C118.4 63.7998 118 64.4998 117.5 65.0998C117 65.6998 116.5 66.0998 115.8 66.3998C115.2 66.7998 114.5 66.8998 113.6 66.8998Z" fill="#242438"/>
<path d="M135.1 61.2001C133.6 61.2001 132.3 60.9001 131.1 60.2001C130 59.5001 129.1 58.5001 128.5 57.3001C127.9 56.1001 127.6 54.6001 127.6 52.9001C127.6 51.2001 127.9 49.8001 128.5 48.5001C129.1 47.2001 130 46.3001 131.1 45.6001C132.2 44.9001 133.5 44.6001 135.1 44.6001C136.7 44.6001 137.9 44.9001 139.1 45.6001C140.2 46.3001 141.1 47.3001 141.7 48.5001C142.3 49.7001 142.6 51.2001 142.6 52.9001C142.6 54.6001 142.3 56.0001 141.7 57.3001C141.1 58.5001 140.2 59.5001 139.1 60.2001C137.9 60.9001 136.6 61.2001 135.1 61.2001ZM135.1 58.6001C136.1 58.6001 136.9 58.3001 137.5 57.8001C138.1 57.3001 138.6 56.6001 138.9 55.7001C139.2 54.8001 139.4 53.9001 139.4 52.9001C139.4 51.9001 139.2 50.9001 138.9 50.1001C138.6 49.2001 138.1 48.5001 137.5 48.0001C136.9 47.5001 136 47.2001 135.1 47.2001C134.1 47.2001 133.3 47.5001 132.7 48.0001C132.1 48.5001 131.6 49.2001 131.3 50.1001C131 51.0001 130.8 51.9001 130.8 52.9001C130.8 53.9001 131 54.9001 131.3 55.7001C131.6 56.6001 132.1 57.2001 132.7 57.8001C133.3 58.3001 134.1 58.6001 135.1 58.6001Z" fill="#242438"/>
<path d="M156.3 54.1998V44.7998H159.4V60.8998H156.3V58.0998H156.1C155.7 58.9998 155.1 59.6998 154.3 60.1998C153.5 60.7998 152.5 61.0998 151.3 61.0998C150.3 61.0998 149.4 60.8998 148.6 60.3998C147.8 59.8998 147.2 59.2998 146.7 58.3998C146.2 57.4998 146 56.3998 146 55.0998V44.7998H149.1V54.6998C149.1 55.7998 149.4 56.6998 150 57.2998C150.6 57.9998 151.4 58.2998 152.4 58.2998C153 58.2998 153.6 58.1998 154.2 57.8998C154.8 57.5998 155.3 57.1998 155.7 56.5998C156.1 55.9998 156.3 55.0998 156.3 54.1998Z" fill="#242438"/>
<path d="M171.5 60.8999V39.3999H174.6V60.8999H171.5ZM174.4 55.3999V51.5999H174.9L181.3 44.7999H185.1L177.8 52.5999H177.3L174.4 55.3999ZM181.6 60.8999L175.8 53.1999L178 50.9999L185.5 60.7999H181.6V60.8999Z" fill="#15BEE6"/>
<path d="M191 51.3V60.9H187.9V44.8H190.9V47.4H191.1C191.5 46.5 192.1 45.9 192.8 45.3C193.6 44.8 194.6 44.5 195.8 44.5C196.9 44.5 197.9 44.7 198.7 45.2C199.5 45.7 200.2 46.3 200.6 47.2C201.1 48.1 201.3 49.2 201.3 50.5V60.7H198.2V51C198.2 49.8 197.9 48.9 197.3 48.3C196.7 47.6 195.9 47.3 194.8 47.3C194.1 47.3 193.4 47.5 192.9 47.8C192.4 48.1 191.9 48.6 191.6 49.2C191.2 49.7 191 50.5 191 51.3Z" fill="#15BEE6"/>
<path d="M212.3 61.2001C210.8 61.2001 209.5 60.9001 208.3 60.2001C207.2 59.5001 206.3 58.5001 205.7 57.3001C205.1 56.1001 204.8 54.6001 204.8 52.9001C204.8 51.2001 205.1 49.8001 205.7 48.5001C206.3 47.2001 207.2 46.3001 208.3 45.6001C209.4 44.9001 210.7 44.6001 212.3 44.6001C213.9 44.6001 215.1 44.9001 216.3 45.6001C217.4 46.3001 218.3 47.3001 218.9 48.5001C219.5 49.7001 219.8 51.2001 219.8 52.9001C219.8 54.6001 219.5 56.0001 218.9 57.3001C218.3 58.5001 217.4 59.5001 216.3 60.2001C215.1 60.9001 213.8 61.2001 212.3 61.2001ZM212.3 58.6001C213.3 58.6001 214.1 58.3001 214.7 57.8001C215.3 57.3001 215.8 56.6001 216.1 55.7001C216.4 54.8001 216.6 53.9001 216.6 52.9001C216.6 51.9001 216.4 50.9001 216.1 50.1001C215.8 49.2001 215.3 48.5001 214.7 48.0001C214.1 47.5001 213.2 47.2001 212.3 47.2001C211.3 47.2001 210.5 47.5001 209.9 48.0001C209.3 48.5001 208.8 49.2001 208.5 50.1001C208.2 51.0001 208 51.9001 208 52.9001C208 53.9001 208.2 54.9001 208.5 55.7001C208.8 56.6001 209.3 57.2001 209.9 57.8001C210.5 58.3001 211.3 58.6001 212.3 58.6001Z" fill="#15BEE6"/>
<path d="M226.8 60.8998L222.1 44.7998H225.3L228.5 56.5998H228.7L231.9 44.7998H235.1L238.2 56.5998H238.4L241.5 44.7998H244.7L240 60.8998H236.8L233.5 49.2998H233.3L230 60.8998H226.8Z" fill="#15BEE6"/>
<path d="M251.1 54.4999C251.1 53.1999 251.2 52.1999 251.5 51.3999C251.8 50.5999 252.1 49.9999 252.6 49.4999C253.1 48.9999 253.6 48.5999 254.3 48.1999C254.7 47.8999 255.1 47.5999 255.4 47.2999C255.7 46.9999 256 46.5999 256.2 46.1999C256.4 45.7999 256.5 45.2999 256.5 44.7999C256.5 44.1999 256.4 43.5999 256.1 43.1999C255.8 42.6999 255.4 42.3999 254.9 42.0999C254.4 41.7999 253.9 41.6999 253.3 41.6999C252.8 41.6999 252.2 41.7999 251.8 41.9999C251.4 42.1999 250.9 42.5999 250.6 42.9999C250.3 43.3999 250.1 44.0999 250 44.7999H246.8C246.8 43.4999 247.2 42.4999 247.8 41.5999C248.4 40.6999 249.2 40.0999 250.1 39.5999C251 39.0999 252.1 38.8999 253.3 38.8999C254.6 38.8999 255.7 39.0999 256.7 39.5999C257.7 40.0999 258.4 40.6999 258.9 41.5999C259.4 42.4999 259.7 43.4999 259.7 44.5999C259.7 45.3999 259.6 46.0999 259.3 46.6999C259.1 47.2999 258.7 47.8999 258.3 48.3999C257.8 48.8999 257.3 49.2999 256.7 49.6999C256.1 50.0999 255.6 50.4999 255.3 50.8999C254.9 51.2999 254.7 51.7999 254.5 52.2999C254.3 52.7999 254.2 53.4999 254.2 54.2999V54.4999H251.1ZM252.7 61.0999C252.1 61.0999 251.6 60.8999 251.2 60.4999C250.8 60.0999 250.6 59.5999 250.6 58.9999C250.6 58.3999 250.8 57.8999 251.2 57.4999C251.6 57.0999 252.1 56.8999 252.7 56.8999C253.3 56.8999 253.8 57.0999 254.2 57.4999C254.6 57.8999 254.8 58.3999 254.8 58.9999C254.8 59.3999 254.7 59.6999 254.5 60.0999C254.3 60.3999 254.1 60.6999 253.7 60.8999C253.4 60.9999 253 61.0999 252.7 61.0999Z" fill="#15BEE6"/>
</g>
<mask id="mask10_4_2806" style="mask-type:luminance" maskUnits="userSpaceOnUse" x="0" y="0" width="1521" height="255">
<path d="M1521 0H0V255H1521V0Z" fill="white"/>
</mask>
<g mask="url(#mask10_4_2806)">
<path d="M257 65.6001H170.9V68.2001H257V65.6001Z" fill="#D9F4F9"/>
</g>
<mask id="mask11_4_2806" style="mask-type:luminance" maskUnits="userSpaceOnUse" x="0" y="0" width="1521" height="255">
<path d="M1521 0H0V255H1521V0Z" fill="white"/>
</mask>
<g mask="url(#mask11_4_2806)">
<path d="M59.5 203.7C59.5 202.4 59.7 201.2 60 200.1C60.3 199 60.8 198 61.4 197.1H62.5C62.3 197.4 62 197.9 61.8 198.3C61.6 198.7 61.4 199.3 61.2 199.9C61 200.5 60.9 201.1 60.8 201.7C60.7 202.3 60.7 202.9 60.7 203.6C60.7 204.4 60.8 205.2 60.9 206.1C61.1 206.9 61.3 207.7 61.5 208.4C61.7 209.1 62.1 209.7 62.4 210.2H61.3C60.7 209.3 60.2 208.3 59.9 207.2C59.7 206.2 59.5 205 59.5 203.7Z" fill="#D3D3D3"/>
<path d="M71.4002 197.7H72.7002V204.6C72.7002 205.3 72.5002 206 72.2002 206.5C71.9002 207.1 71.4002 207.5 70.8002 207.8C70.2002 208.1 69.5002 208.3 68.7002 208.3C67.9002 208.3 67.2002 208.1 66.6002 207.8C66.0002 207.5 65.5002 207 65.2002 206.5C64.9002 205.9 64.7002 205.3 64.7002 204.6V197.7H66.0002V204.5C66.0002 205 66.1002 205.5 66.3002 205.9C66.5002 206.3 66.8002 206.6 67.3002 206.8C67.7002 207 68.2002 207.1 68.8002 207.1C69.4002 207.1 69.9002 207 70.3002 206.8C70.7002 206.6 71.0002 206.3 71.3002 205.9C71.5002 205.5 71.6002 205 71.6002 204.5V197.7H71.4002Z" fill="#D3D3D3"/>
<path d="M83.5002 197.7V208.2H82.3002L76.6002 200H76.5002V208.2H75.2002V197.7H76.4002L82.1002 205.9H82.2002V197.7H83.5002Z" fill="#D3D3D3"/>
<path d="M94.5002 201H93.2002C93.1002 200.6 93.0002 200.3 92.8002 200C92.6002 199.7 92.4002 199.5 92.1002 199.3C91.8002 199.1 91.5002 199 91.2002 198.9C90.9002 198.8 90.5002 198.8 90.2002 198.8C89.6002 198.8 89.0002 199 88.5002 199.3C88.0002 199.6 87.6002 200.1 87.3002 200.7C87.0002 201.3 86.8002 202.1 86.8002 203C86.8002 203.9 87.0002 204.7 87.3002 205.3C87.6002 205.9 88.0002 206.4 88.5002 206.7C89.0002 207 89.6002 207.2 90.2002 207.2C90.5002 207.2 90.9002 207.2 91.2002 207.1C91.5002 207 91.8002 206.9 92.1002 206.7C92.4002 206.5 92.6002 206.3 92.8002 206C93.0002 205.7 93.1002 205.4 93.2002 205H94.5002C94.4002 205.5 94.2002 206 94.0002 206.4C93.8002 206.8 93.4002 207.2 93.1002 207.5C92.7002 207.8 92.3002 208 91.8002 208.2C91.3002 208.4 90.8002 208.4 90.3002 208.4C89.4002 208.4 88.6002 208.2 87.9002 207.7C87.2002 207.3 86.7002 206.6 86.3002 205.8C85.9002 205 85.7002 204 85.7002 202.9C85.7002 201.8 85.9002 200.8 86.3002 200C86.7002 199.2 87.2002 198.6 87.9002 198.1C88.6002 197.7 89.4002 197.4 90.3002 197.4C90.8002 197.4 91.3002 197.5 91.8002 197.6C92.3002 197.8 92.7002 198 93.1002 198.3C93.5002 198.6 93.8002 199 94.0002 199.4C94.2002 199.8 94.4002 200.4 94.5002 201Z" fill="#D3D3D3"/>
<path d="M95.8999 198.8V197.7H103.8V198.8H100.5V208.2H99.1999V198.8H95.8999Z" fill="#D3D3D3"/>
<path d="M106.2 208.2H104.9L108.7 197.7H110L113.8 208.2H112.5L109.4 199.4H109.3L106.2 208.2ZM106.7 204.1H112.1V205.2H106.7V204.1Z" fill="#D3D3D3"/>
<path d="M118.7 208.2H115.5V197.7H118.9C119.9 197.7 120.8 197.9 121.5 198.3C122.2 198.7 122.8 199.3 123.2 200.1C123.6 200.9 123.8 201.8 123.8 202.9C123.8 204 123.6 204.9 123.2 205.7C122.8 206.5 122.2 207.1 121.5 207.5C120.7 208 119.8 208.2 118.7 208.2ZM116.8 207H118.7C119.6 207 120.3 206.8 120.9 206.5C121.5 206.2 121.9 205.7 122.2 205.1C122.5 204.5 122.6 203.7 122.6 202.9C122.6 202.1 122.5 201.3 122.2 200.7C121.9 200.1 121.5 199.6 121 199.3C120.5 199 119.8 198.8 118.9 198.8H116.9V207H116.8Z" fill="#D3D3D3"/>
<path d="M129.7 208.2V207.3L133.2 203.5C133.6 203.1 133.9 202.7 134.2 202.3C134.5 202 134.7 201.7 134.8 201.4C134.9 201.1 135 200.8 135 200.5C135 200.1 134.9 199.8 134.7 199.5C134.5 199.2 134.3 199 134 198.9C133.7 198.8 133.4 198.7 133 198.7C132.6 198.7 132.2 198.8 131.9 198.9C131.6 199.1 131.4 199.3 131.2 199.6C131 199.9 131 200.2 131 200.6H129.8C129.8 200 129.9 199.4 130.2 199C130.5 198.5 130.9 198.2 131.4 197.9C131.9 197.6 132.4 197.5 133.1 197.5C133.7 197.5 134.3 197.6 134.7 197.9C135.2 198.2 135.5 198.5 135.8 198.9C136.1 199.3 136.2 199.8 136.2 200.4C136.2 200.8 136.1 201.2 136 201.5C135.9 201.9 135.6 202.3 135.3 202.7C135 203.1 134.5 203.7 133.9 204.3L131.5 206.8V206.9H136.4V208H129.7V208.2Z" fill="#D3D3D3"/>
<path d="M141.9 208.3C141.1 208.3 140.5 208.1 139.9 207.7C139.4 207.3 138.9 206.7 138.7 205.9C138.4 205.1 138.3 204.1 138.3 203C138.3 201.9 138.4 200.9 138.7 200.1C139 199.3 139.4 198.7 139.9 198.3C140.4 197.9 141.1 197.7 141.9 197.7C142.7 197.7 143.3 197.9 143.9 198.3C144.4 198.7 144.9 199.3 145.1 200.1C145.4 200.9 145.5 201.9 145.5 203C145.5 204.1 145.4 205.1 145.1 205.9C144.8 206.7 144.4 207.3 143.9 207.7C143.3 208.1 142.6 208.3 141.9 208.3ZM141.9 207.2C142.7 207.2 143.3 206.8 143.7 206.1C144.1 205.4 144.3 204.3 144.3 202.9C144.3 202 144.2 201.2 144 200.6C143.8 200 143.5 199.5 143.2 199.1C142.8 198.8 142.4 198.6 141.9 198.6C141.1 198.6 140.6 199 140.1 199.7C139.7 200.4 139.5 201.5 139.5 202.9C139.5 203.8 139.6 204.6 139.8 205.2C140 205.8 140.3 206.3 140.6 206.6C140.9 207 141.4 207.2 141.9 207.2Z" fill="#D3D3D3"/>
<path d="M147.5 208.2V207.3L151 203.5C151.4 203.1 151.7 202.7 152 202.3C152.3 202 152.5 201.7 152.6 201.4C152.7 201.1 152.8 200.8 152.8 200.5C152.8 200.1 152.7 199.8 152.5 199.5C152.3 199.2 152.1 199 151.8 198.9C151.5 198.8 151.2 198.7 150.8 198.7C150.4 198.7 150 198.8 149.7 198.9C149.4 199.1 149.2 199.3 149 199.6C148.8 199.9 148.8 200.2 148.8 200.6H147.6C147.6 200 147.7 199.4 148 199C148.3 198.5 148.7 198.2 149.2 197.9C149.7 197.6 150.2 197.5 150.9 197.5C151.5 197.5 152.1 197.6 152.5 197.9C153 198.2 153.3 198.5 153.6 198.9C153.9 199.3 154 199.8 154 200.4C154 200.8 153.9 201.2 153.8 201.5C153.7 201.9 153.4 202.3 153.1 202.7C152.8 203.1 152.3 203.7 151.7 204.3L149.3 206.8V206.9H154.2V208H147.5V208.2Z" fill="#D3D3D3"/>
<path d="M155.9 206V205L160.5 197.7H161.3V199.3H160.8L157.3 204.8V204.9H163.5V206H155.9ZM160.9 208.2V205.7V205.2V197.7H162.1V208.2H160.9Z" fill="#D3D3D3"/>
<path d="M168 203.7C168 205 167.8 206.2 167.5 207.3C167.2 208.4 166.7 209.4 166.1 210.3H165C165.2 210 165.5 209.5 165.7 209.1C165.9 208.7 166.1 208.1 166.3 207.5C166.5 206.9 166.6 206.3 166.7 205.7C166.8 205.1 166.8 204.5 166.8 203.8C166.8 203 166.7 202.2 166.6 201.3C166.4 200.5 166.2 199.7 166 199C165.7 198.3 165.4 197.7 165.1 197.2H166.2C166.8 198.1 167.3 199.1 167.6 200.2C167.9 201.3 168 202.5 168 203.7Z" fill="#D3D3D3"/>
</g>
</g>
<defs>
<clipPath id="clip0_4_2806">
<rect width="1521" height="255" fill="white"/>
</clipPath>
</defs>
</svg>
