<svg width="1521" height="255" viewBox="0 0 1521 255" fill="none" xmlns="http://www.w3.org/2000/svg">
<g clip-path="url(#clip0_4_575)">
<path d="M1521 0H0V255H1521V0Z" fill="white"/>
<mask id="mask0_4_575" style="mask-type:luminance" maskUnits="userSpaceOnUse" x="0" y="0" width="1521" height="255">
<path d="M1521 0H0V255H1521V0Z" fill="white"/>
</mask>
<g mask="url(#mask0_4_575)">
<path d="M589.8 65C625.7 65 654.8 35.9 654.8 0H524.8C524.8 35.9 553.9 65 589.8 65Z" fill="#F2FCFF"/>
</g>
<mask id="mask1_4_575" style="mask-type:luminance" maskUnits="userSpaceOnUse" x="0" y="0" width="1521" height="255">
<path d="M1521 0H0V255H1521V0Z" fill="white"/>
</mask>
<g mask="url(#mask1_4_575)">
<path d="M1163.8 214.2C1141.3 214.2 1123 232.5 1123 255H1204.6C1204.6 232.5 1186.3 214.2 1163.8 214.2Z" fill="#F2FCFF"/>
</g>
<mask id="mask2_4_575" style="mask-type:luminance" maskUnits="userSpaceOnUse" x="0" y="0" width="1521" height="255">
<path d="M1521 0H0V255H1521V0Z" fill="white"/>
</mask>
<g mask="url(#mask2_4_575)">
<path d="M56.9999 64.7C65.0633 64.7 71.5999 58.1634 71.5999 50.1C71.5999 42.0366 65.0633 35.5 56.9999 35.5C48.9365 35.5 42.3999 42.0366 42.3999 50.1C42.3999 58.1634 48.9365 64.7 56.9999 64.7Z" fill="#F9FEFA"/>
</g>
<mask id="mask3_4_575" style="mask-type:luminance" maskUnits="userSpaceOnUse" x="0" y="0" width="1521" height="255">
<path d="M1521 0H0V255H1521V0Z" fill="white"/>
</mask>
<g mask="url(#mask3_4_575)">
<path d="M1242.7 70.6L1233.7 64L1240.3 55L1235.8 51.7L1229.2 60.7L1220.4 54.3L1217.1 58.8L1225.9 65.2L1219.4 74L1223.9 77.3L1230.4 68.5L1239.4 75.1L1242.7 70.6Z" fill="#D4F6FF"/>
</g>
<mask id="mask4_4_575" style="mask-type:luminance" maskUnits="userSpaceOnUse" x="0" y="0" width="1521" height="255">
<path d="M1521 0H0V255H1521V0Z" fill="white"/>
</mask>
<g mask="url(#mask4_4_575)">
<path d="M80.3999 99.2C80.0999 98.3 79.7999 97.5 79.2999 96.8C78.7999 96.1 78.2999 95.5 77.5999 95C76.8999 94.5 76.1999 94.1 75.3999 93.9C74.5999 93.7 73.5999 93.5 72.5999 93.5C70.7999 93.5 69.1999 93.9 67.7999 94.8C66.3999 95.7 65.2999 97 64.4999 98.8C63.6999 100.5 63.2999 102.6 63.2999 105.1C63.2999 107.6 63.6999 109.7 64.4999 111.5C65.2999 113.2 66.3999 114.6 67.7999 115.5C69.1999 116.4 70.7999 116.9 72.6999 116.9C74.3999 116.9 75.7999 116.6 77.0999 115.9C78.2999 115.3 79.2999 114.3 79.9999 113.1C80.6999 111.9 80.9999 110.5 80.9999 108.9L82.3999 109.1H73.3999V104.4H86.8999V108.4C86.8999 111.2 86.2999 113.7 85.0999 115.8C83.8999 117.9 82.1999 119.5 80.0999 120.6C77.9999 121.7 75.4999 122.3 72.7999 122.3C69.6999 122.3 67.0999 121.6 64.6999 120.2C62.3999 118.8 60.5999 116.9 59.2999 114.3C57.9999 111.8 57.3999 108.7 57.3999 105.2C57.3999 102.5 57.7999 100.1 58.4999 98C59.2999 95.9 60.2999 94.1 61.6999 92.6C63.0999 91.1 64.6999 90 66.4999 89.2C68.2999 88.4 70.3999 88 72.4999 88C74.2999 88 76.0999 88.3 77.5999 88.8C79.1999 89.3 80.5999 90.1 81.7999 91.1C82.9999 92.1 84.0999 93.3 84.8999 94.6C85.6999 95.9 86.1999 97.4 86.4999 99.1H80.3999V99.2Z" fill="#77809C"/>
<path d="M91.8999 121.8V96.9H97.5999V101.1H97.8999C98.3999 99.7 99.0999 98.6 100.2 97.8C101.3 97 102.6 96.6 104 96.6C104.3 96.6 104.7 96.6 105.1 96.6C105.5 96.6 105.8 96.7 106.1 96.7V102.1C105.9 102 105.5 101.9 104.9 101.9C104.3 101.9 103.8 101.8 103.4 101.8C102.3 101.8 101.4 102 100.5 102.5C99.5999 103 98.9999 103.6 98.4999 104.4C97.9999 105.2 97.7999 106.1 97.7999 107.2V121.8H91.8999Z" fill="#77809C"/>
<path d="M120.6 122.3C118.1 122.3 115.9 121.8 114.1 120.7C112.3 119.7 110.9 118.2 109.9 116.3C108.9 114.4 108.4 112.1 108.4 109.5C108.4 106.9 108.9 104.7 109.9 102.7C110.9 100.8 112.2 99.2 114 98.2C115.8 97.2 117.8 96.6 120.2 96.6C121.7 96.6 123.2 96.8 124.6 97.3C126 97.8 127.2 98.6 128.2 99.6C129.3 100.6 130.1 101.9 130.7 103.5C131.3 105.1 131.6 107 131.6 109.2V111H111.2V107H126C126 105.9 125.7 104.9 125.3 104C124.8 103.1 124.2 102.4 123.3 101.9C122.5 101.4 121.5 101.1 120.3 101.1C119.1 101.1 118 101.4 117.1 102C116.2 102.6 115.5 103.3 115 104.3C114.5 105.3 114.2 106.3 114.2 107.4V110.9C114.2 112.3 114.5 113.6 115 114.6C115.5 115.6 116.3 116.4 117.2 117C118.2 117.5 119.3 117.8 120.5 117.8C121.4 117.8 122.1 117.7 122.8 117.4C123.5 117.2 124.1 116.8 124.6 116.3C125.1 115.8 125.5 115.2 125.8 114.5L131.3 115.1C131 116.5 130.3 117.8 129.3 118.9C128.3 120 127.1 120.8 125.6 121.4C124.3 122 122.6 122.3 120.6 122.3Z" fill="#77809C"/>
<path d="M147.3 122.3C144.8 122.3 142.6 121.8 140.8 120.7C139 119.7 137.6 118.2 136.6 116.3C135.6 114.4 135.1 112.1 135.1 109.5C135.1 106.9 135.6 104.7 136.6 102.7C137.6 100.8 138.9 99.2 140.7 98.2C142.5 97.2 144.5 96.6 146.9 96.6C148.4 96.6 149.9 96.8 151.3 97.3C152.7 97.8 153.9 98.6 154.9 99.6C156 100.6 156.8 101.9 157.4 103.5C158 105.1 158.3 107 158.3 109.2V111H137.9V107H152.7C152.7 105.9 152.4 104.9 152 104C151.5 103.1 150.9 102.4 150 101.9C149.2 101.4 148.2 101.1 147 101.1C145.8 101.1 144.7 101.4 143.8 102C142.9 102.6 142.2 103.3 141.7 104.3C141.2 105.3 140.9 106.3 140.9 107.4V110.9C140.9 112.3 141.2 113.6 141.7 114.6C142.2 115.6 143 116.4 143.9 117C144.9 117.5 146 117.8 147.2 117.8C148.1 117.8 148.8 117.7 149.5 117.4C150.2 117.2 150.8 116.8 151.3 116.3C151.8 115.8 152.2 115.2 152.5 114.5L158 115.1C157.7 116.5 157 117.8 156 118.9C155 120 153.8 120.8 152.3 121.4C150.9 122 149.2 122.3 147.3 122.3Z" fill="#77809C"/>
<path d="M168.7 107.2V121.8H162.8V96.9H168.4V101.1H168.7C169.3 99.7 170.2 98.6 171.4 97.8C172.7 97 174.2 96.6 176.1 96.6C177.8 96.6 179.3 97 180.6 97.7C181.9 98.4 182.9 99.5 183.6 100.9C184.3 102.3 184.7 104 184.6 106V121.9H178.7V106.9C178.7 105.2 178.3 103.9 177.4 103C176.5 102.1 175.4 101.6 173.8 101.6C172.8 101.6 171.9 101.8 171.1 102.3C170.3 102.7 169.7 103.4 169.2 104.2C168.7 105 168.7 106 168.7 107.2Z" fill="#77809C"/>
<path d="M202.9 96.9V101.4H188.2V96.9H202.9ZM191.8 121.8V94.5C191.8 92.8 192.1 91.4 192.8 90.3C193.5 89.2 194.4 88.4 195.6 87.8C196.8 87.2 198.1 87 199.5 87C200.5 87 201.4 87.1 202.2 87.2C203 87.4 203.6 87.5 204 87.6L202.8 92.1C202.6 92 202.2 91.9 201.9 91.9C201.6 91.9 201.1 91.8 200.6 91.8C199.5 91.8 198.7 92.1 198.3 92.6C197.9 93.1 197.6 93.9 197.6 94.8V121.7H191.8V121.8Z" fill="#77809C"/>
<path d="M210 93.3C209.1 93.3 208.3 93 207.6 92.4C206.9 91.8 206.6 91 206.6 90.1C206.6 89.2 206.9 88.5 207.6 87.9C208.3 87.3 209.1 87 210 87C210.9 87 211.7 87.3 212.4 87.9C213.1 88.5 213.4 89.3 213.4 90.2C213.4 91.1 213.1 91.8 212.4 92.4C211.7 93 210.9 93.3 210 93.3ZM207 121.8V96.9H212.9V121.8H207Z" fill="#77809C"/>
<path d="M229.5 122.3C227 122.3 224.8 121.8 223 120.7C221.2 119.7 219.8 118.2 218.8 116.3C217.8 114.4 217.3 112.1 217.3 109.5C217.3 106.9 217.8 104.7 218.8 102.7C219.8 100.8 221.1 99.2 222.9 98.2C224.7 97.2 226.7 96.6 229.1 96.6C230.6 96.6 232.1 96.8 233.5 97.3C234.9 97.8 236.1 98.6 237.1 99.6C238.2 100.6 239 101.9 239.6 103.5C240.2 105.1 240.5 107 240.5 109.2V111H220.1V107H234.9C234.9 105.9 234.6 104.9 234.2 104C233.7 103.1 233.1 102.4 232.2 101.9C231.4 101.4 230.4 101.1 229.2 101.1C228 101.1 226.9 101.4 226 102C225.1 102.6 224.4 103.3 223.9 104.3C223.4 105.3 223.1 106.3 223.1 107.4V110.9C223.1 112.3 223.4 113.6 223.9 114.6C224.4 115.6 225.2 116.4 226.1 117C227.1 117.5 228.2 117.8 229.4 117.8C230.3 117.8 231 117.7 231.7 117.4C232.4 117.2 233 116.8 233.5 116.3C234 115.8 234.4 115.2 234.7 114.5L240.2 115.1C239.9 116.5 239.2 117.8 238.2 118.9C237.2 120 236 120.8 234.5 121.4C233.1 122 231.4 122.3 229.5 122.3Z" fill="#77809C"/>
<path d="M250.9 88.6V121.8H245V88.6H250.9Z" fill="#77809C"/>
<path d="M265.8 122.2C263.8 122.2 262.1 121.7 260.5 120.7C259 119.7 257.7 118.2 256.8 116.3C255.9 114.4 255.5 112.1 255.5 109.3C255.5 106.5 256 104.2 256.9 102.3C257.8 100.4 259 98.9 260.6 98C262.2 97 263.9 96.5 265.8 96.5C267.3 96.5 268.5 96.7 269.4 97.2C270.3 97.7 271.1 98.3 271.6 99C272.2 99.7 272.6 100.3 272.9 100.9H273.1V88.6H279V121.8H273.2V117.9H272.8C272.5 118.5 272.1 119.1 271.5 119.8C270.9 120.5 270.2 121.1 269.2 121.5C268.4 122 267.2 122.2 265.8 122.2ZM267.4 117.4C268.6 117.4 269.7 117.1 270.6 116.4C271.5 115.7 272.1 114.8 272.6 113.6C273.1 112.4 273.3 111 273.3 109.4C273.3 107.8 273.1 106.4 272.6 105.2C272.1 104 271.5 103.1 270.6 102.4C269.7 101.7 268.7 101.4 267.4 101.4C266.1 101.4 265 101.7 264.1 102.4C263.2 103.1 262.6 104 262.1 105.2C261.6 106.4 261.4 107.8 261.4 109.3C261.4 110.9 261.6 112.2 262.1 113.5C262.5 114.7 263.2 115.7 264.1 116.4C265 117.1 266.1 117.4 267.4 117.4Z" fill="#77809C"/>
<path d="M298.7 93.3C297.8 93.3 297 93 296.3 92.4C295.6 91.8 295.3 91 295.3 90.1C295.3 89.2 295.6 88.5 296.3 87.9C297 87.3 297.8 87 298.7 87C299.6 87 300.4 87.3 301.1 87.9C301.8 88.5 302.1 89.3 302.1 90.2C302.1 91.1 301.8 91.8 301.1 92.4C300.4 93 299.6 93.3 298.7 93.3ZM295.7 121.8V96.9H301.6V121.8H295.7Z" fill="#77809C"/>
<path d="M313.1 107.2V121.8H307.2V96.9H312.8V101.1H313.1C313.7 99.7 314.6 98.6 315.8 97.8C317.1 97 318.6 96.6 320.5 96.6C322.2 96.6 323.7 97 325 97.7C326.3 98.4 327.3 99.5 328 100.9C328.7 102.3 329.1 104 329 106V121.9H323.1V106.9C323.1 105.2 322.7 103.9 321.8 103C320.9 102.1 319.8 101.6 318.2 101.6C317.2 101.6 316.3 101.8 315.5 102.3C314.7 102.7 314.1 103.4 313.6 104.2C313.1 105 313.1 106 313.1 107.2Z" fill="#77809C"/>
<path d="M356.8 96.9L347.9 121.8H341.4L332.5 96.9H338.8L344.5 115.4H344.8L350.5 96.9H356.8Z" fill="#77809C"/>
<path d="M371.5 122.3C369 122.3 366.8 121.8 365 120.7C363.2 119.7 361.8 118.2 360.8 116.3C359.8 114.4 359.3 112.1 359.3 109.5C359.3 106.9 359.8 104.7 360.8 102.7C361.8 100.8 363.1 99.2 364.9 98.2C366.7 97.2 368.7 96.6 371.1 96.6C372.6 96.6 374.1 96.8 375.5 97.3C376.9 97.8 378.1 98.6 379.1 99.6C380.2 100.6 381 101.9 381.6 103.5C382.2 105.1 382.5 107 382.5 109.2V111H362.1V107H376.9C376.9 105.9 376.6 104.9 376.2 104C375.7 103.1 375.1 102.4 374.2 101.9C373.4 101.4 372.4 101.1 371.2 101.1C370 101.1 368.9 101.4 368 102C367.1 102.6 366.4 103.3 365.9 104.3C365.4 105.3 365.1 106.3 365.1 107.4V110.9C365.1 112.3 365.4 113.6 365.9 114.6C366.4 115.6 367.2 116.4 368.1 117C369.1 117.5 370.2 117.8 371.4 117.8C372.3 117.8 373 117.7 373.7 117.4C374.4 117.2 375 116.8 375.5 116.3C376 115.8 376.4 115.2 376.7 114.5L382.2 115.1C381.9 116.5 381.2 117.8 380.2 118.9C379.2 120 378 120.8 376.5 121.4C375.1 122 373.4 122.3 371.5 122.3Z" fill="#77809C"/>
<path d="M406.7 103.5L401.3 104.1C401.1 103.6 400.9 103.1 400.5 102.6C400.1 102.1 399.6 101.7 399 101.4C398.4 101.1 397.6 101 396.7 101C395.5 101 394.5 101.3 393.6 101.8C392.8 102.3 392.4 103 392.4 103.9C392.4 104.6 392.7 105.2 393.2 105.7C393.7 106.2 394.7 106.5 395.9 106.8L400.1 107.7C402.5 108.2 404.2 109 405.4 110.1C406.6 111.2 407.1 112.6 407.1 114.4C407.1 116 406.6 117.4 405.7 118.5C404.8 119.7 403.5 120.6 401.9 121.3C400.3 122 398.5 122.3 396.4 122.3C393.4 122.3 390.9 121.7 389 120.4C387.1 119.1 386 117.3 385.7 115L391.4 114.4C391.7 115.5 392.2 116.4 393.1 116.9C394 117.4 395 117.8 396.4 117.8C397.8 117.8 398.9 117.5 399.8 116.9C400.6 116.3 401.1 115.6 401.1 114.8C401.1 114.1 400.8 113.5 400.3 113C399.8 112.5 398.9 112.2 397.8 111.9L393.5 111C391.1 110.5 389.3 109.7 388.2 108.5C387.1 107.3 386.5 105.8 386.5 104C386.5 102.5 386.9 101.1 387.8 100C388.7 98.9 389.8 98 391.4 97.4C392.9 96.8 394.7 96.5 396.7 96.5C399.6 96.5 401.9 97.1 403.6 98.4C405.3 99.7 406.3 101.3 406.7 103.5Z" fill="#77809C"/>
<path d="M424.1 96.9V101.4H409.8V96.9H424.1ZM413.3 90.9H419.2V114.3C419.2 115.1 419.3 115.7 419.6 116.1C419.8 116.5 420.2 116.8 420.6 117C421 117.2 421.4 117.2 421.9 117.2C422.3 117.2 422.6 117.2 422.9 117.1C423.2 117 423.4 117 423.6 117L424.6 121.6C424.3 121.7 423.8 121.8 423.3 122C422.7 122.1 422 122.2 421.2 122.2C419.7 122.2 418.4 122 417.2 121.5C416 121 415.1 120.2 414.4 119.2C413.7 118.2 413.4 116.9 413.4 115.3V90.9H413.3Z" fill="#77809C"/>
<path d="M428.6 121.8V96.9H434.2V101.1H434.5C435 99.7 435.9 98.6 437.1 97.8C438.3 97 439.7 96.6 441.4 96.6C443.1 96.6 444.5 97 445.7 97.8C446.9 98.6 447.7 99.7 448.2 101.1H448.5C449.1 99.7 450 98.6 451.3 97.8C452.6 97 454.2 96.6 456 96.6C458.3 96.6 460.2 97.3 461.6 98.8C463 100.2 463.8 102.4 463.8 105.1V121.8H457.9V106C457.9 104.5 457.5 103.3 456.7 102.6C455.9 101.9 454.9 101.5 453.7 101.5C452.3 101.5 451.2 101.9 450.4 102.8C449.6 103.7 449.2 104.8 449.2 106.2V121.7H443.4V105.6C443.4 104.3 443 103.3 442.2 102.5C441.4 101.7 440.4 101.3 439.2 101.3C438.4 101.3 437.6 101.5 436.9 101.9C436.2 102.3 435.7 102.9 435.2 103.7C434.8 104.5 434.6 105.4 434.6 106.4V121.6H428.6V121.8Z" fill="#77809C"/>
<path d="M480.2 122.3C477.7 122.3 475.5 121.8 473.7 120.7C471.9 119.7 470.5 118.2 469.5 116.3C468.5 114.4 468 112.1 468 109.5C468 106.9 468.5 104.7 469.5 102.7C470.5 100.8 471.8 99.2 473.6 98.2C475.4 97.2 477.4 96.6 479.8 96.6C481.3 96.6 482.8 96.8 484.2 97.3C485.6 97.8 486.8 98.6 487.8 99.6C488.9 100.6 489.7 101.9 490.3 103.5C490.9 105.1 491.2 107 491.2 109.2V111H470.8V107H485.6C485.6 105.9 485.3 104.9 484.9 104C484.4 103.1 483.8 102.4 482.9 101.9C482.1 101.4 481.1 101.1 479.9 101.1C478.7 101.1 477.6 101.4 476.7 102C475.8 102.6 475.1 103.3 474.6 104.3C474.1 105.3 473.8 106.3 473.8 107.4V110.9C473.8 112.3 474.1 113.6 474.6 114.6C475.1 115.6 475.9 116.4 476.8 117C477.8 117.5 478.9 117.8 480.1 117.8C481 117.8 481.7 117.7 482.4 117.4C483.1 117.2 483.7 116.8 484.2 116.3C484.7 115.8 485.1 115.2 485.4 114.5L490.9 115.1C490.6 116.5 489.9 117.8 488.9 118.9C487.9 120 486.7 120.8 485.2 121.4C483.8 122 482.1 122.3 480.2 122.3Z" fill="#77809C"/>
<path d="M501.6 107.2V121.8H495.7V96.9H501.3V101.1H501.6C502.2 99.7 503.1 98.6 504.3 97.8C505.6 97 507.1 96.6 509 96.6C510.7 96.6 512.2 97 513.5 97.7C514.8 98.4 515.8 99.5 516.5 100.9C517.2 102.3 517.6 104 517.5 106V121.9H511.6V106.9C511.6 105.2 511.2 103.9 510.3 103C509.4 102.1 508.3 101.6 506.7 101.6C505.7 101.6 504.8 101.8 504 102.3C503.2 102.7 502.6 103.4 502.1 104.2C501.6 105 501.6 106 501.6 107.2Z" fill="#77809C"/>
<path d="M535.6 96.9V101.4H521.3V96.9H535.6ZM524.8 90.9H530.7V114.3C530.7 115.1 530.8 115.7 531.1 116.1C531.3 116.5 531.7 116.8 532.1 117C532.5 117.2 532.9 117.2 533.4 117.2C533.8 117.2 534.1 117.2 534.4 117.1C534.7 117 534.9 117 535.1 117L536.1 121.6C535.8 121.7 535.3 121.8 534.8 122C534.2 122.1 533.5 122.2 532.7 122.2C531.2 122.2 529.9 122 528.7 121.5C527.5 121 526.6 120.2 525.9 119.2C525.2 118.2 524.9 116.9 524.9 115.3V90.9H524.8Z" fill="#77809C"/>
<path d="M550.9 131.1V96.9H556.7V101H557C557.3 100.4 557.7 99.7 558.3 99.1C558.9 98.4 559.6 97.8 560.5 97.3C561.4 96.8 562.6 96.6 564.1 96.6C566 96.6 567.8 97.1 569.3 98.1C570.8 99.1 572.1 100.5 573 102.4C573.9 104.3 574.4 106.6 574.4 109.4C574.4 112.1 574 114.5 573.1 116.4C572.2 118.3 571 119.8 569.4 120.8C567.8 121.8 566.1 122.3 564.1 122.3C562.7 122.3 561.5 122.1 560.5 121.6C559.6 121.1 558.8 120.5 558.2 119.9C557.6 119.2 557.2 118.6 556.9 118H556.7V131.3H550.9V131.1ZM556.7 109.3C556.7 110.9 556.9 112.3 557.4 113.5C557.9 114.7 558.5 115.7 559.4 116.3C560.3 116.9 561.3 117.3 562.6 117.3C563.9 117.3 565 117 565.9 116.3C566.8 115.6 567.4 114.6 567.9 113.4C568.3 112.2 568.6 110.8 568.6 109.2C568.6 107.7 568.4 106.3 567.9 105.1C567.5 103.9 566.8 103 565.9 102.3C565 101.6 563.9 101.3 562.6 101.3C561.3 101.3 560.3 101.6 559.4 102.3C558.5 103 557.9 103.9 557.4 105.1C556.9 106.3 556.7 107.7 556.7 109.3Z" fill="#77809C"/>
<path d="M579 121.8V96.9H584.7V101.1H585C585.5 99.7 586.2 98.6 587.3 97.8C588.4 97 589.7 96.6 591.1 96.6C591.4 96.6 591.8 96.6 592.2 96.6C592.6 96.6 592.9 96.7 593.2 96.7V102.1C593 102 592.6 101.9 592 101.9C591.4 101.9 590.9 101.8 590.5 101.8C589.4 101.8 588.5 102 587.6 102.5C586.7 103 586.1 103.6 585.6 104.4C585.1 105.2 584.9 106.1 584.9 107.2V121.8H579Z" fill="#77809C"/>
<path d="M607.5 122.3C605.1 122.3 603 121.8 601.2 120.7C599.4 119.6 598 118.1 597.1 116.2C596.1 114.3 595.6 112 595.6 109.5C595.6 106.9 596.1 104.7 597.1 102.7C598.1 100.8 599.5 99.3 601.2 98.2C603 97.1 605.1 96.6 607.5 96.6C609.9 96.6 612 97.1 613.8 98.2C615.6 99.3 617 100.8 617.9 102.7C618.9 104.6 619.4 106.9 619.4 109.5C619.4 112.1 618.9 114.3 617.9 116.2C616.9 118.1 615.5 119.6 613.8 120.7C612.1 121.7 610 122.3 607.5 122.3ZM607.6 117.6C608.9 117.6 610 117.2 610.9 116.5C611.8 115.8 612.4 114.8 612.9 113.6C613.3 112.4 613.6 111 613.6 109.5C613.6 108 613.4 106.6 612.9 105.4C612.4 104.2 611.8 103.2 610.9 102.4C610 101.7 608.9 101.3 607.6 101.3C606.2 101.3 605.1 101.7 604.2 102.4C603.3 103.1 602.6 104.1 602.2 105.4C601.8 106.7 601.5 108 601.5 109.5C601.5 111 601.7 112.4 602.2 113.6C602.6 114.8 603.3 115.8 604.2 116.5C605.1 117.2 606.2 117.6 607.6 117.6Z" fill="#77809C"/>
<path d="M624 96.9H629.9V123.2C629.9 125 629.6 126.5 628.9 127.6C628.2 128.8 627.2 129.6 625.9 130.2C624.6 130.8 623.1 131.1 621.2 131.1C621 131.1 620.8 131.1 620.6 131.1C620.4 131.1 620.2 131.1 620 131.1V126.3C620.2 126.3 620.3 126.3 620.4 126.3C620.5 126.3 620.7 126.3 620.8 126.3C621.9 126.3 622.7 126 623.2 125.5C623.7 125 623.9 124.2 623.9 123.1V96.9H624ZM626.9 93.3C626 93.3 625.2 93 624.5 92.4C623.8 91.8 623.5 91 623.5 90.2C623.5 89.3 623.8 88.6 624.5 87.9C625.2 87.2 626 87 626.9 87C627.8 87 628.6 87.3 629.3 87.9C630 88.5 630.3 89.3 630.3 90.2C630.3 91.1 630 91.8 629.3 92.4C628.6 93 627.8 93.3 626.9 93.3Z" fill="#77809C"/>
<path d="M646.5 122.3C644 122.3 641.8 121.8 640 120.7C638.2 119.7 636.8 118.2 635.8 116.3C634.8 114.4 634.3 112.1 634.3 109.5C634.3 106.9 634.8 104.7 635.8 102.7C636.8 100.8 638.1 99.2 639.9 98.2C641.7 97.2 643.7 96.6 646.1 96.6C647.6 96.6 649.1 96.8 650.5 97.3C651.9 97.8 653.1 98.6 654.1 99.6C655.2 100.6 656 101.9 656.6 103.5C657.2 105.1 657.5 107 657.5 109.2V111H637.1V107H651.9C651.9 105.9 651.6 104.9 651.2 104C650.7 103.1 650.1 102.4 649.2 101.9C648.4 101.4 647.4 101.1 646.2 101.1C645 101.1 643.9 101.4 643 102C642.1 102.6 641.4 103.3 640.9 104.3C640.4 105.3 640.1 106.3 640.1 107.4V110.9C640.1 112.3 640.4 113.6 640.9 114.6C641.4 115.6 642.2 116.4 643.1 117C644.1 117.5 645.2 117.8 646.4 117.8C647.3 117.8 648 117.7 648.7 117.4C649.4 117.2 650 116.8 650.5 116.3C651 115.8 651.4 115.2 651.7 114.5L657.2 115.1C656.9 116.5 656.2 117.8 655.2 118.9C654.2 120 653 120.8 651.5 121.4C650.1 122 648.4 122.3 646.5 122.3Z" fill="#77809C"/>
<path d="M672.9 122.3C670.4 122.3 668.3 121.8 666.5 120.7C664.7 119.6 663.4 118.1 662.4 116.2C661.4 114.3 661 112 661 109.5C661 107 661.5 104.7 662.5 102.8C663.5 100.9 664.8 99.3 666.6 98.3C668.4 97.3 670.5 96.7 672.9 96.7C674.9 96.7 676.7 97.1 678.3 97.8C679.9 98.5 681.1 99.6 682 100.9C682.9 102.2 683.5 103.8 683.6 105.6H678C677.8 104.4 677.2 103.4 676.4 102.6C675.6 101.8 674.4 101.4 673 101.4C671.8 101.4 670.7 101.7 669.8 102.4C668.9 103 668.2 104 667.7 105.2C667.2 106.4 666.9 107.8 666.9 109.5C666.9 111.2 667.1 112.7 667.6 113.9C668.1 115.1 668.8 116.1 669.7 116.7C670.6 117.3 671.7 117.7 672.9 117.7C673.8 117.7 674.5 117.5 675.2 117.2C675.9 116.9 676.5 116.4 676.9 115.8C677.4 115.2 677.7 114.4 677.9 113.5H683.5C683.4 115.3 682.8 116.8 681.9 118.2C681 119.6 679.8 120.6 678.2 121.4C676.8 121.9 675 122.3 672.9 122.3Z" fill="#77809C"/>
<path d="M700.4 96.9V101.4H686.1V96.9H700.4ZM689.6 90.9H695.5V114.3C695.5 115.1 695.6 115.7 695.9 116.1C696.1 116.5 696.5 116.8 696.9 117C697.3 117.2 697.7 117.2 698.2 117.2C698.6 117.2 698.9 117.2 699.2 117.1C699.5 117 699.7 117 699.9 117L700.9 121.6C700.6 121.7 700.1 121.8 699.6 122C699 122.1 698.3 122.2 697.5 122.2C696 122.2 694.7 122 693.5 121.5C692.3 121 691.4 120.2 690.7 119.2C690 118.2 689.7 116.9 689.7 115.3V90.9H689.6Z" fill="#77809C"/>
<path d="M724.5 103.5L719.1 104.1C718.9 103.6 718.7 103.1 718.3 102.6C717.9 102.1 717.4 101.7 716.8 101.4C716.2 101.1 715.4 101 714.5 101C713.3 101 712.3 101.3 711.4 101.8C710.6 102.3 710.2 103 710.2 103.9C710.2 104.6 710.5 105.2 711 105.7C711.5 106.2 712.5 106.5 713.7 106.8L717.9 107.7C720.3 108.2 722 109 723.2 110.1C724.4 111.2 724.9 112.6 724.9 114.4C724.9 116 724.4 117.4 723.5 118.5C722.6 119.7 721.3 120.6 719.7 121.3C718.1 122 716.3 122.3 714.2 122.3C711.2 122.3 708.7 121.7 706.8 120.4C704.9 119.1 703.8 117.3 703.5 115L709.2 114.4C709.5 115.5 710 116.4 710.9 116.9C711.8 117.4 712.8 117.8 714.2 117.8C715.6 117.8 716.7 117.5 717.6 116.9C718.4 116.3 718.9 115.6 718.9 114.8C718.9 114.1 718.6 113.5 718.1 113C717.6 112.5 716.7 112.2 715.6 111.9L711.3 111C708.9 110.5 707.1 109.7 706 108.5C704.9 107.3 704.3 105.8 704.3 104C704.3 102.5 704.7 101.1 705.6 100C706.5 98.9 707.6 98 709.2 97.4C710.7 96.8 712.5 96.5 714.5 96.5C717.4 96.5 719.7 97.1 721.4 98.4C723.1 99.7 724.1 101.3 724.5 103.5Z" fill="#77809C"/>
<path d="M745.5 121.8L738.5 96.9H744.5L748.9 114.4H749.1L753.6 96.9H759.5L764 114.3H764.2L768.5 96.9H774.5L767.4 121.8H761.3L756.6 105H756.3L751.6 121.8H745.5Z" fill="#77809C"/>
<path d="M789.2 122.3C786.7 122.3 784.5 121.8 782.7 120.7C780.9 119.7 779.5 118.2 778.5 116.3C777.5 114.4 777 112.1 777 109.5C777 106.9 777.5 104.7 778.5 102.7C779.5 100.8 780.8 99.2 782.6 98.2C784.4 97.2 786.4 96.6 788.8 96.6C790.3 96.6 791.8 96.8 793.2 97.3C794.6 97.8 795.8 98.6 796.8 99.6C797.9 100.6 798.7 101.9 799.3 103.5C799.9 105.1 800.2 107 800.2 109.2V111H779.8V107H794.6C794.6 105.9 794.3 104.9 793.9 104C793.4 103.1 792.8 102.4 791.9 101.9C791.1 101.4 790.1 101.1 788.9 101.1C787.7 101.1 786.6 101.4 785.7 102C784.8 102.6 784.1 103.3 783.6 104.3C783.1 105.3 782.8 106.3 782.8 107.4V110.9C782.8 112.3 783.1 113.6 783.6 114.6C784.1 115.6 784.9 116.4 785.8 117C786.8 117.5 787.9 117.8 789.1 117.8C790 117.8 790.7 117.7 791.4 117.4C792.1 117.2 792.7 116.8 793.2 116.3C793.7 115.8 794.1 115.2 794.4 114.5L799.9 115.1C799.6 116.5 798.9 117.8 797.9 118.9C796.9 120 795.7 120.8 794.2 121.4C792.8 122 791.1 122.3 789.2 122.3Z" fill="#77809C"/>
<path d="M804.8 121.8V96.9H810.5V101.1H810.8C811.3 99.7 812 98.6 813.1 97.8C814.2 97 815.5 96.6 816.9 96.6C817.2 96.6 817.6 96.6 818 96.6C818.4 96.6 818.7 96.7 819 96.7V102.1C818.8 102 818.4 101.9 817.8 101.9C817.2 101.9 816.7 101.8 816.3 101.8C815.2 101.8 814.3 102 813.4 102.5C812.5 103 811.9 103.6 811.4 104.4C810.9 105.2 810.7 106.1 810.7 107.2V121.8H804.8Z" fill="#77809C"/>
<path d="M833.5 122.3C831 122.3 828.8 121.8 827 120.7C825.2 119.7 823.8 118.2 822.8 116.3C821.8 114.4 821.3 112.1 821.3 109.5C821.3 106.9 821.8 104.7 822.8 102.7C823.8 100.8 825.1 99.2 826.9 98.2C828.7 97.2 830.7 96.6 833.1 96.6C834.6 96.6 836.1 96.8 837.5 97.3C838.9 97.8 840.1 98.6 841.1 99.6C842.2 100.6 843 101.9 843.6 103.5C844.2 105.1 844.5 107 844.5 109.2V111H824.1V107H838.9C838.9 105.9 838.6 104.9 838.2 104C837.7 103.1 837.1 102.4 836.2 101.9C835.4 101.4 834.4 101.1 833.2 101.1C832 101.1 830.9 101.4 830 102C829.1 102.6 828.4 103.3 827.9 104.3C827.4 105.3 827.1 106.3 827.1 107.4V110.9C827.1 112.3 827.4 113.6 827.9 114.6C828.4 115.6 829.2 116.4 830.1 117C831.1 117.5 832.2 117.8 833.4 117.8C834.3 117.8 835 117.7 835.7 117.4C836.4 117.2 837 116.8 837.5 116.3C838 115.8 838.4 115.2 838.7 114.5L844.2 115.1C843.9 116.5 843.2 117.8 842.2 118.9C841.2 120 840 120.8 838.5 121.4C837.1 122 835.4 122.3 833.5 122.3Z" fill="#77809C"/>
<path d="M882.2 96.9L873.3 121.8H866.8L857.9 96.9H864.2L869.9 115.4H870.2L875.9 96.9H882.2Z" fill="#77809C"/>
<path d="M893 122.3C891.4 122.3 890 122 888.7 121.4C887.4 120.8 886.4 120 885.7 118.9C885 117.8 884.6 116.4 884.6 114.8C884.6 113.4 884.9 112.2 885.4 111.3C885.9 110.4 886.6 109.6 887.5 109.1C888.4 108.5 889.4 108.1 890.5 107.8C891.6 107.5 892.8 107.3 894 107.2C895.5 107 896.6 106.9 897.6 106.8C898.6 106.7 899.2 106.5 899.6 106.2C900 105.9 900.2 105.5 900.2 105V104.9C900.2 103.7 899.8 102.7 899.1 102.1C898.4 101.4 897.3 101.1 896 101.1C894.6 101.1 893.4 101.4 892.6 102C891.8 102.6 891.2 103.4 890.9 104.2L885.4 103.4C885.8 101.9 886.5 100.6 887.5 99.6C888.5 98.6 889.7 97.8 891.1 97.3C892.5 96.8 894.1 96.5 895.9 96.5C897.1 96.5 898.3 96.6 899.5 96.9C900.7 97.2 901.8 97.6 902.8 98.3C903.8 99 904.6 99.8 905.2 100.9C905.8 102 906.1 103.4 906.1 105V121.7H900.5V118.3H900.3C899.9 119 899.4 119.6 898.8 120.2C898.2 120.8 897.4 121.3 896.4 121.6C895.4 122.1 894.3 122.3 893 122.3ZM894.5 118C895.7 118 896.7 117.8 897.6 117.3C898.5 116.8 899.1 116.2 899.6 115.4C900.1 114.6 900.3 113.8 900.3 112.9V110C900.1 110.2 899.8 110.3 899.4 110.4C899 110.5 898.5 110.6 897.9 110.7C897.4 110.8 896.8 110.9 896.3 111C895.8 111.1 895.3 111.1 894.9 111.2C894 111.3 893.2 111.5 892.5 111.8C891.8 112.1 891.3 112.4 890.9 112.9C890.5 113.4 890.3 114 890.3 114.8C890.3 115.9 890.7 116.7 891.5 117.2C892.2 117.7 893.3 118 894.5 118Z" fill="#77809C"/>
<path d="M917.4 88.6V121.8H911.5V88.6H917.4Z" fill="#77809C"/>
<path d="M938.9 111.3V96.9H944.8V121.8H939.1V117.4H938.8C938.2 118.8 937.3 119.9 936 120.8C934.7 121.7 933.1 122.1 931.3 122.1C929.7 122.1 928.2 121.7 927 121C925.8 120.3 924.8 119.2 924.1 117.8C923.4 116.4 923 114.7 923 112.7V96.9H928.9V111.9C928.9 113.5 929.3 114.7 930.2 115.7C931.1 116.6 932.2 117.1 933.6 117.1C934.5 117.1 935.3 116.9 936.1 116.5C936.9 116.1 937.6 115.4 938.1 114.6C938.6 113.6 938.9 112.6 938.9 111.3Z" fill="#77809C"/>
<path d="M961.4 122.3C958.9 122.3 956.7 121.8 954.9 120.7C953.1 119.7 951.7 118.2 950.7 116.3C949.7 114.4 949.2 112.1 949.2 109.5C949.2 106.9 949.7 104.7 950.7 102.7C951.7 100.8 953 99.2 954.8 98.2C956.6 97.2 958.6 96.6 961 96.6C962.5 96.6 964 96.8 965.4 97.3C966.8 97.8 968 98.6 969 99.6C970.1 100.6 970.9 101.9 971.5 103.5C972.1 105.1 972.4 107 972.4 109.2V111H952V107H966.8C966.8 105.9 966.5 104.9 966.1 104C965.6 103.1 965 102.4 964.1 101.9C963.3 101.4 962.3 101.1 961.1 101.1C959.9 101.1 958.8 101.4 957.9 102C957 102.6 956.3 103.3 955.8 104.3C955.3 105.3 955 106.3 955 107.4V110.9C955 112.3 955.3 113.6 955.8 114.6C956.3 115.6 957.1 116.4 958 117C959 117.5 960.1 117.8 961.3 117.8C962.2 117.8 962.9 117.7 963.6 117.4C964.3 117.2 964.9 116.8 965.4 116.3C965.9 115.8 966.3 115.2 966.6 114.5L972.1 115.1C971.8 116.5 971.1 117.8 970.1 118.9C969.1 120 967.9 120.8 966.4 121.4C965 122 963.3 122.3 961.4 122.3Z" fill="#77809C"/>
<path d="M986.2 122.2C984.2 122.2 982.5 121.7 980.9 120.7C979.4 119.7 978.1 118.2 977.2 116.3C976.3 114.4 975.9 112.1 975.9 109.3C975.9 106.5 976.4 104.2 977.3 102.3C978.2 100.4 979.4 98.9 981 98C982.6 97 984.3 96.5 986.2 96.5C987.7 96.5 988.9 96.7 989.8 97.2C990.7 97.7 991.5 98.3 992 99C992.6 99.7 993 100.3 993.3 100.9H993.5V88.6H999.4V121.8H993.6V117.9H993.2C992.9 118.5 992.5 119.1 991.9 119.8C991.3 120.5 990.6 121.1 989.6 121.5C988.8 122 987.6 122.2 986.2 122.2ZM987.9 117.4C989.1 117.4 990.2 117.1 991.1 116.4C992 115.7 992.6 114.8 993.1 113.6C993.6 112.4 993.8 111 993.8 109.4C993.8 107.8 993.6 106.4 993.1 105.2C992.7 104 992 103.1 991.1 102.4C990.2 101.7 989.2 101.4 987.9 101.4C986.6 101.4 985.5 101.7 984.6 102.4C983.7 103.1 983.1 104 982.6 105.2C982.2 106.4 981.9 107.8 981.9 109.3C981.9 110.9 982.1 112.2 982.6 113.5C983 114.7 983.7 115.7 984.6 116.4C985.5 117.1 986.6 117.4 987.9 117.4Z" fill="#77809C"/>
<path d="M65.0999 177.1C63.4999 177.1 62.0999 176.8 60.7999 176.2C59.4999 175.6 58.4999 174.8 57.7999 173.7C57.0999 172.6 56.7 171.2 56.7 169.6C56.7 168.2 57 167 57.5 166.1C58 165.2 58.6999 164.4 59.5999 163.9C60.4999 163.3 61.4999 162.9 62.5999 162.6C63.6999 162.3 64.8999 162.1 66.0999 162C67.5999 161.8 68.6999 161.7 69.6999 161.6C70.6999 161.5 71.2999 161.3 71.6999 161C72.0999 160.7 72.3 160.3 72.3 159.8V159.7C72.3 158.5 71.8999 157.5 71.1999 156.9C70.4999 156.2 69.3999 155.9 68.0999 155.9C66.6999 155.9 65.4999 156.2 64.6999 156.8C63.8999 157.4 63.3 158.2 63 159L57.5 158.2C57.9 156.7 58.5999 155.4 59.5999 154.4C60.5999 153.4 61.8 152.6 63.2 152.1C64.6 151.6 66.2 151.3 68 151.3C69.2 151.3 70.3999 151.4 71.5999 151.7C72.7999 152 73.9 152.4 74.9 153.1C75.9 153.8 76.7 154.6 77.3 155.7C77.9 156.8 78.1999 158.2 78.1999 159.8V176.5H72.5999V173.1H72.4C72 173.8 71.5 174.4 70.9 175C70.3 175.6 69.5 176.1 68.5 176.4C67.5 176.9 66.3999 177.1 65.0999 177.1ZM66.5999 172.8C67.7999 172.8 68.7999 172.6 69.6999 172.1C70.5999 171.6 71.1999 171 71.6999 170.2C72.1999 169.4 72.4 168.6 72.4 167.7V164.8C72.2 165 71.9 165.1 71.5 165.2C71.1 165.3 70.6 165.4 70 165.5C69.5 165.6 68.9 165.7 68.4 165.8C67.9 165.9 67.4 165.9 67 166C66.1 166.1 65.2999 166.3 64.5999 166.6C63.8999 166.9 63.4 167.2 63 167.7C62.6 168.2 62.4 168.8 62.4 169.6C62.4 170.7 62.7999 171.5 63.5999 172C64.3999 172.5 65.3999 172.8 66.5999 172.8Z" fill="#77809C"/>
<path d="M96.1 151.7V156.2H81.8V151.7H96.1ZM85.4 145.7H91.3V169.1C91.3 169.9 91.4 170.5 91.7 170.9C91.9 171.3 92.3 171.6 92.7 171.8C93.1 172 93.5 172 94 172C94.4 172 94.7 172 95 171.9C95.3 171.8 95.5 171.8 95.7 171.8L96.7 176.4C96.4 176.5 95.9 176.6 95.4 176.8C94.8 176.9 94.1 177 93.3 177C91.8 177 90.5 176.8 89.3 176.3C88.1 175.8 87.2 175 86.5 174C85.8 173 85.5 171.7 85.5 170.1V145.7H85.4Z" fill="#77809C"/>
<path d="M129.8 152.5C129.6 151.1 129 150 127.9 149.2C126.8 148.4 125.3 148 123.5 148C122.2 148 121.2 148.2 120.3 148.6C119.4 149 118.7 149.5 118.2 150.1C117.7 150.7 117.5 151.5 117.5 152.3C117.5 153 117.7 153.6 118 154.1C118.3 154.6 118.8 155 119.3 155.4C119.9 155.8 120.5 156 121.1 156.3C121.8 156.5 122.4 156.7 123.1 156.9L126.2 157.7C127.5 158 128.7 158.4 129.8 158.9C130.9 159.4 132 160 132.9 160.8C133.8 161.6 134.6 162.5 135.1 163.5C135.6 164.6 135.9 165.8 135.9 167.3C135.9 169.2 135.4 171 134.4 172.4C133.4 173.9 132 175 130.1 175.9C128.2 176.7 126 177.1 123.3 177.1C120.7 177.1 118.5 176.7 116.6 175.9C114.7 175.1 113.2 173.9 112.2 172.4C111.1 170.9 110.6 169 110.5 166.8H116.4C116.5 168 116.8 168.9 117.5 169.7C118.1 170.5 118.9 171 120 171.4C121.1 171.8 122.1 172 123.4 172C124.7 172 125.9 171.8 126.8 171.4C127.8 171 128.6 170.5 129.1 169.7C129.7 169 129.9 168.2 130 167.2C130 166.3 129.7 165.6 129.2 165.1C128.7 164.6 128 164.1 127.1 163.7C126.2 163.3 125.2 163 124 162.7L120.2 161.7C117.5 161 115.3 159.9 113.7 158.5C112.1 157.1 111.3 155.2 111.3 152.8C111.3 150.8 111.8 149.1 112.9 147.7C114 146.2 115.4 145.1 117.3 144.3C119.1 143.5 121.2 143.1 123.5 143.1C125.9 143.1 127.9 143.5 129.7 144.3C131.5 145.1 132.9 146.2 133.9 147.7C134.9 149.1 135.4 150.8 135.5 152.7H129.8V152.5ZM122.1 180.8V139.3H124.8V180.8H122.1Z" fill="#242438"/>
<path d="M152.8 177.1C151.2 177.1 149.7 176.8 148.1 176.3C146.6 175.8 145.2 174.9 144 173.6C142.8 172.4 141.8 170.7 141.1 168.7C140.4 166.6 140 164.1 140 161C140 158.2 140.3 155.6 140.9 153.4C141.5 151.2 142.4 149.3 143.5 147.7C144.6 146.2 146 145 147.6 144.2C149.2 143.4 151 143 153 143C155.1 143 156.9 143.4 158.6 144.2C160.2 145 161.5 146.1 162.5 147.6C163.5 149 164.1 150.6 164.3 152.4H158.4C158.1 151.1 157.5 150.1 156.5 149.3C155.5 148.5 154.4 148.2 153 148.2C150.7 148.2 148.9 149.2 147.7 151.2C146.5 153.2 145.8 155.9 145.8 159.4H146C146.5 158.4 147.2 157.6 148.1 157C148.9 156.3 149.9 155.8 151 155.4C152.1 155 153.2 154.8 154.4 154.8C156.3 154.8 158.1 155.3 159.6 156.2C161.2 157.1 162.4 158.4 163.3 160C164.2 161.6 164.7 163.5 164.6 165.6C164.6 167.8 164.1 169.7 163.1 171.5C162.1 173.2 160.7 174.6 158.9 175.6C157.3 176.6 155.2 177.1 152.8 177.1ZM152.7 172.2C153.9 172.2 154.9 171.9 155.9 171.3C156.8 170.7 157.6 170 158.1 169C158.6 168 158.9 166.9 158.9 165.7C158.9 164.5 158.7 163.4 158.1 162.5C157.6 161.5 156.9 160.8 155.9 160.2C154.9 159.6 153.9 159.4 152.8 159.4C151.9 159.4 151.1 159.6 150.4 159.9C149.6 160.2 149 160.7 148.4 161.3C147.8 161.9 147.4 162.6 147.1 163.3C146.8 164.1 146.6 164.9 146.6 165.8C146.6 167 146.9 168 147.4 169C147.9 170 148.7 170.8 149.6 171.3C150.5 171.9 151.6 172.2 152.7 172.2Z" fill="#242438"/>
<path d="M181.3 177.1C179.1 177.1 177.2 176.7 175.5 175.9C173.8 175.1 172.4 174 171.4 172.5C170.4 171.1 169.9 169.4 169.8 167.6H175.6C175.7 169 176.3 170.1 177.4 170.9C178.5 171.8 179.8 172.2 181.3 172.2C182.5 172.2 183.5 171.9 184.4 171.4C185.3 170.9 186 170.1 186.6 169.1C187.1 168.1 187.4 167 187.4 165.8C187.4 164.5 187.1 163.4 186.6 162.5C186.1 161.5 185.3 160.8 184.4 160.2C183.5 159.6 182.4 159.4 181.2 159.4C180.2 159.4 179.2 159.6 178.3 160C177.3 160.4 176.6 160.9 176 161.5L170.6 160.6L172.3 143.5H191.6V148.5H177.3L176.3 157.3H176.5C177.1 156.6 178 156 179.1 155.5C180.2 155 181.5 154.8 182.8 154.8C184.8 154.8 186.6 155.3 188.2 156.2C189.8 157.1 191 158.4 191.9 160.1C192.8 161.8 193.3 163.6 193.3 165.8C193.3 168 192.8 170 191.8 171.7C190.8 173.4 189.4 174.8 187.6 175.7C185.7 176.6 183.7 177.1 181.3 177.1Z" fill="#242438"/>
<path d="M209.7 142.9C211.3 142.9 212.8 143.2 214.3 143.7C215.8 144.2 217.2 145.1 218.4 146.4C219.6 147.6 220.6 149.3 221.3 151.3C222 153.4 222.4 155.9 222.4 158.9C222.4 161.8 222.1 164.3 221.5 166.5C220.9 168.7 220 170.6 218.9 172.2C217.8 173.7 216.4 174.9 214.8 175.7C213.2 176.5 211.4 176.9 209.4 176.9C207.3 176.9 205.4 176.5 203.8 175.7C202.2 174.9 200.9 173.8 199.9 172.3C198.9 170.9 198.3 169.2 198.1 167.4H204C204.3 168.7 204.9 169.8 205.9 170.5C206.8 171.3 208 171.7 209.4 171.7C211.7 171.7 213.5 170.7 214.7 168.7C215.9 166.7 216.6 163.9 216.6 160.4H216.4C215.9 161.4 215.2 162.2 214.3 162.9C213.5 163.6 212.5 164.1 211.4 164.5C210.3 164.9 209.2 165.1 208 165.1C206.1 165.1 204.3 164.6 202.8 163.7C201.2 162.8 200 161.5 199.1 159.9C198.2 158.3 197.7 156.4 197.7 154.3C197.7 152.1 198.2 150.2 199.2 148.5C200.2 146.8 201.6 145.4 203.4 144.4C205.2 143.4 207.3 142.9 209.7 142.9ZM209.7 147.8C208.5 147.8 207.5 148.1 206.5 148.7C205.6 149.3 204.8 150 204.3 151C203.8 152 203.5 153 203.5 154.2C203.5 155.4 203.8 156.4 204.3 157.4C204.8 158.4 205.5 159.1 206.5 159.7C207.4 160.3 208.5 160.5 209.6 160.5C210.5 160.5 211.3 160.3 212 160C212.8 159.7 213.4 159.2 214 158.6C214.6 158 215 157.3 215.3 156.5C215.6 155.7 215.8 154.9 215.8 154.1C215.8 153 215.5 151.9 215 151C214.5 150 213.7 149.3 212.8 148.7C211.9 148.1 210.9 147.8 209.7 147.8Z" fill="#242438"/>
<path d="M227.7 176.6V143.4H240.4C242.8 143.4 244.8 143.8 246.4 144.5C248 145.3 249.2 146.3 250 147.6C250.8 148.9 251.2 150.4 251.2 152C251.2 153.4 250.9 154.5 250.4 155.5C249.9 156.5 249.2 157.2 248.3 157.8C247.4 158.4 246.4 158.8 245.4 159.1V159.4C246.6 159.5 247.7 159.8 248.8 160.5C249.9 161.2 250.8 162.1 251.5 163.3C252.2 164.5 252.5 165.9 252.5 167.6C252.5 169.3 252.1 170.9 251.3 172.2C250.5 173.6 249.2 174.6 247.5 175.4C245.8 176.2 243.7 176.6 241.2 176.6H227.7ZM233.7 157.5H239.7C240.7 157.5 241.7 157.3 242.5 156.9C243.3 156.5 244 156 244.5 155.3C245 154.6 245.2 153.8 245.2 152.8C245.2 151.5 244.7 150.5 243.8 149.6C242.9 148.8 241.6 148.4 239.8 148.4H233.7V157.5ZM233.7 171.6H240.2C242.4 171.6 244 171.2 244.9 170.3C245.9 169.5 246.4 168.4 246.4 167.1C246.4 166.1 246.2 165.2 245.7 164.4C245.2 163.6 244.5 163 243.6 162.5C242.7 162 241.6 161.8 240.4 161.8H233.8V171.6H233.7Z" fill="#242438"/>
<path d="M275 177.1C273.4 177.1 272 176.8 270.7 176.2C269.4 175.6 268.4 174.8 267.7 173.7C267 172.6 266.6 171.2 266.6 169.6C266.6 168.2 266.9 167 267.4 166.1C267.9 165.2 268.6 164.4 269.5 163.9C270.4 163.3 271.4 162.9 272.5 162.6C273.6 162.3 274.8 162.1 276 162C277.5 161.8 278.6 161.7 279.6 161.6C280.6 161.5 281.2 161.3 281.6 161C282 160.7 282.2 160.3 282.2 159.8V159.7C282.2 158.5 281.8 157.5 281.1 156.9C280.4 156.2 279.3 155.9 278 155.9C276.6 155.9 275.4 156.2 274.6 156.8C273.8 157.4 273.2 158.2 272.9 159L267.4 158.2C267.8 156.7 268.5 155.4 269.5 154.4C270.5 153.4 271.7 152.6 273.1 152.1C274.5 151.6 276.1 151.3 277.9 151.3C279.1 151.3 280.3 151.4 281.5 151.7C282.7 152 283.8 152.4 284.8 153.1C285.8 153.8 286.6 154.6 287.2 155.7C287.8 156.8 288.1 158.2 288.1 159.8V176.5H282.5V173.1H282.3C281.9 173.8 281.4 174.4 280.8 175C280.2 175.6 279.4 176.1 278.4 176.4C277.5 176.9 276.3 177.1 275 177.1ZM276.6 172.8C277.8 172.8 278.8 172.6 279.7 172.1C280.6 171.6 281.2 171 281.7 170.2C282.2 169.4 282.4 168.6 282.4 167.7V164.8C282.2 165 281.9 165.1 281.5 165.2C281.1 165.3 280.6 165.4 280 165.5C279.5 165.6 278.9 165.7 278.4 165.8C277.9 165.9 277.4 165.9 277 166C276.1 166.1 275.3 166.3 274.6 166.6C273.9 166.9 273.4 167.2 273 167.7C272.6 168.2 272.4 168.8 272.4 169.6C272.4 170.7 272.8 171.5 273.6 172C274.3 172.5 275.3 172.8 276.6 172.8Z" fill="#77809C"/>
<path d="M304.5 177.1C302 177.1 299.9 176.6 298.1 175.5C296.3 174.4 295 172.9 294 171C293 169.1 292.6 166.8 292.6 164.3C292.6 161.8 293.1 159.5 294.1 157.6C295.1 155.7 296.4 154.1 298.2 153.1C300 152.1 302.1 151.5 304.5 151.5C306.5 151.5 308.3 151.9 309.9 152.6C311.5 153.3 312.7 154.4 313.6 155.7C314.5 157 315.1 158.6 315.2 160.4H309.6C309.4 159.2 308.8 158.2 308 157.4C307.2 156.6 306 156.2 304.6 156.2C303.4 156.2 302.3 156.5 301.4 157.2C300.5 157.8 299.8 158.8 299.3 160C298.8 161.2 298.5 162.6 298.5 164.3C298.5 166 298.7 167.5 299.2 168.7C299.7 169.9 300.4 170.9 301.3 171.5C302.2 172.1 303.3 172.5 304.5 172.5C305.4 172.5 306.1 172.3 306.8 172C307.5 171.7 308.1 171.2 308.5 170.6C309 170 309.3 169.2 309.5 168.3H315.1C315 170.1 314.4 171.6 313.5 173C312.6 174.4 311.4 175.4 309.8 176.2C308.4 176.7 306.6 177.1 304.5 177.1Z" fill="#77809C"/>
<path d="M319.6 176.6V151.7H325.3V155.9H325.6C326.1 154.5 326.8 153.4 327.9 152.6C329 151.8 330.3 151.4 331.7 151.4C332 151.4 332.4 151.4 332.8 151.4C333.2 151.4 333.5 151.5 333.8 151.5V156.9C333.6 156.8 333.2 156.7 332.6 156.7C332 156.7 331.5 156.6 331.1 156.6C330 156.6 329.1 156.8 328.2 157.3C327.3 157.8 326.7 158.4 326.2 159.2C325.7 160 325.5 160.9 325.5 162V176.6H319.6Z" fill="#77809C"/>
<path d="M348.1 177.1C345.7 177.1 343.6 176.6 341.8 175.5C340 174.4 338.6 172.9 337.7 171C336.7 169.1 336.2 166.8 336.2 164.3C336.2 161.7 336.7 159.5 337.7 157.5C338.7 155.6 340.1 154.1 341.8 153C343.6 151.9 345.7 151.4 348.1 151.4C350.5 151.4 352.6 151.9 354.4 153C356.2 154.1 357.6 155.6 358.5 157.5C359.5 159.4 360 161.7 360 164.3C360 166.9 359.5 169.1 358.5 171C357.5 172.9 356.1 174.4 354.4 175.5C352.6 176.6 350.5 177.1 348.1 177.1ZM348.1 172.4C349.4 172.4 350.5 172 351.4 171.3C352.3 170.6 352.9 169.6 353.4 168.4C353.8 167.2 354.1 165.8 354.1 164.3C354.1 162.8 353.9 161.4 353.4 160.2C352.9 159 352.3 158 351.4 157.2C350.5 156.5 349.4 156.1 348.1 156.1C346.7 156.1 345.6 156.5 344.7 157.2C343.8 157.9 343.1 158.9 342.7 160.2C342.3 161.5 342 162.8 342 164.3C342 165.8 342.2 167.2 342.7 168.4C343.1 169.6 343.8 170.6 344.7 171.3C345.7 172 346.8 172.4 348.1 172.4Z" fill="#77809C"/>
<path d="M384.2 158.3L378.8 158.9C378.6 158.4 378.4 157.9 378 157.4C377.6 156.9 377.1 156.5 376.5 156.2C375.9 155.9 375.1 155.8 374.2 155.8C373 155.8 372 156.1 371.1 156.6C370.3 157.1 369.9 157.8 369.9 158.7C369.9 159.4 370.2 160 370.7 160.5C371.2 161 372.2 161.3 373.4 161.6L377.6 162.5C380 163 381.7 163.8 382.9 164.9C384.1 166 384.6 167.4 384.6 169.2C384.6 170.8 384.1 172.2 383.2 173.3C382.3 174.5 381 175.4 379.4 176.1C377.8 176.8 376 177.1 373.9 177.1C370.9 177.1 368.4 176.5 366.5 175.2C364.6 173.9 363.5 172.1 363.2 169.8L368.9 169.2C369.2 170.3 369.7 171.2 370.6 171.7C371.5 172.2 372.5 172.6 373.9 172.6C375.3 172.6 376.4 172.3 377.3 171.7C378.1 171.1 378.6 170.4 378.6 169.6C378.6 168.9 378.3 168.3 377.8 167.8C377.3 167.3 376.4 167 375.3 166.7L371 165.8C368.6 165.3 366.8 164.5 365.7 163.3C364.6 162.1 364 160.6 364 158.8C364 157.3 364.4 155.9 365.3 154.8C366.2 153.7 367.3 152.8 368.9 152.2C370.4 151.6 372.2 151.3 374.2 151.3C377.1 151.3 379.4 151.9 381.1 153.2C382.8 154.5 383.8 156.1 384.2 158.3Z" fill="#77809C"/>
<path d="M408.9 158.3L403.5 158.9C403.3 158.4 403.1 157.9 402.7 157.4C402.3 156.9 401.8 156.5 401.2 156.2C400.6 155.9 399.8 155.8 398.9 155.8C397.7 155.8 396.7 156.1 395.8 156.6C395 157.1 394.6 157.8 394.6 158.7C394.6 159.4 394.9 160 395.4 160.5C395.9 161 396.9 161.3 398.1 161.6L402.3 162.5C404.7 163 406.4 163.8 407.6 164.9C408.8 166 409.3 167.4 409.3 169.2C409.3 170.8 408.8 172.2 407.9 173.3C407 174.5 405.7 175.4 404.1 176.1C402.5 176.8 400.7 177.1 398.6 177.1C395.6 177.1 393.1 176.5 391.2 175.2C389.3 173.9 388.2 172.1 387.9 169.8L393.6 169.2C393.9 170.3 394.4 171.2 395.3 171.7C396.2 172.2 397.2 172.6 398.6 172.6C400 172.6 401.1 172.3 402 171.7C402.8 171.1 403.3 170.4 403.3 169.6C403.3 168.9 403 168.3 402.5 167.8C402 167.3 401.1 167 400 166.7L395.7 165.8C393.3 165.3 391.5 164.5 390.4 163.3C389.3 162.1 388.7 160.6 388.7 158.8C388.7 157.3 389.1 155.9 390 154.8C390.9 153.7 392 152.8 393.6 152.2C395.1 151.6 396.9 151.3 398.9 151.3C401.8 151.3 404.1 151.9 405.8 153.2C407.4 154.5 408.5 156.1 408.9 158.3Z" fill="#77809C"/>
<path d="M438.1 143.4V176.6H432.1V149.2H431.9L424.1 154.2V148.7L432.4 143.4H438.1Z" fill="#242438"/>
<path d="M457.9 177.1C455.5 177.1 453.3 176.7 451.5 175.9C449.6 175.1 448.2 174 447.1 172.6C446 171.2 445.5 169.6 445.5 167.8C445.5 166.4 445.8 165.1 446.4 164C447 162.8 447.9 161.9 448.9 161.1C449.9 160.3 451.1 159.8 452.4 159.6V159.4C450.7 159 449.3 158.1 448.3 156.8C447.2 155.4 446.7 153.9 446.7 152.1C446.7 150.4 447.2 148.9 448.1 147.5C449 146.1 450.4 145.1 452.1 144.3C453.8 143.5 455.7 143.1 457.8 143.1C459.9 143.1 461.8 143.5 463.5 144.3C465.2 145.1 466.5 146.1 467.5 147.5C468.5 148.9 469 150.4 469 152.1C469 153.9 468.5 155.5 467.4 156.8C466.3 158.1 465 159 463.3 159.4V159.6C464.6 159.8 465.8 160.3 466.8 161.1C467.8 161.9 468.7 162.9 469.3 164C469.9 165.2 470.2 166.4 470.2 167.8C470.2 169.6 469.7 171.2 468.6 172.6C467.5 174 466.1 175.1 464.2 175.9C462.4 176.6 460.3 177.1 457.9 177.1ZM457.9 172.4C459.1 172.4 460.2 172.2 461.1 171.8C462 171.4 462.7 170.8 463.2 170C463.7 169.2 464 168.3 464 167.3C464 166.2 463.7 165.3 463.2 164.5C462.7 163.7 461.9 163 461 162.6C460.1 162.1 459 161.9 457.8 161.9C456.6 161.9 455.6 162.1 454.6 162.6C453.7 163.1 452.9 163.7 452.4 164.5C451.9 165.3 451.6 166.3 451.6 167.3C451.6 168.3 451.8 169.2 452.3 170C452.8 170.8 453.5 171.4 454.4 171.8C455.6 172.2 456.7 172.4 457.9 172.4ZM457.9 157.3C458.9 157.3 459.8 157.1 460.6 156.7C461.4 156.3 462 155.7 462.5 155C463 154.3 463.2 153.4 463.2 152.5C463.2 151.5 463 150.7 462.5 150C462.1 149.3 461.4 148.7 460.7 148.3C459.9 147.9 459 147.7 458 147.7C457 147.7 456 147.9 455.2 148.3C454.4 148.7 453.8 149.3 453.4 150C453 150.7 452.7 151.6 452.8 152.5C452.8 153.5 453 154.3 453.5 155C453.9 155.7 454.6 156.3 455.4 156.7C456.2 157.1 456.9 157.3 457.9 157.3Z" fill="#242438"/>
<path d="M482.1 172.1L481.9 173.9C481.7 175.3 481.5 176.7 481.1 178.1C480.7 179.5 480.3 180.8 479.9 182C479.5 183.2 479.1 184.1 478.9 184.8H474.9C475.1 184.1 475.3 183.2 475.5 182.1C475.7 181 476 179.7 476.3 178.3C476.5 176.9 476.7 175.4 476.8 174L476.9 172.2H482.1V172.1Z" fill="#242438"/>
<path d="M487.6 170.4V165.6L501.7 143.3H505.7V150.1H503.3L493.8 165.1V165.4H513.5V170.3H487.6V170.4ZM503.4 176.6V169L503.5 166.9V143.4H509.2V176.6H503.4Z" fill="#242438"/>
<path d="M517.5 170.4V165.6L531.6 143.3H535.6V150.1H533.2L523.7 165.1V165.4H543.4V170.3H517.5V170.4ZM533.4 176.6V169L533.5 166.9V143.4H539.2V176.6H533.4Z" fill="#242438"/>
<path d="M548.1 176.6V172.3L559.6 161C560.7 159.9 561.6 158.9 562.4 158C563.1 157.1 563.7 156.3 564.1 155.5C564.5 154.7 564.7 153.8 564.7 152.9C564.7 151.9 564.5 151 564 150.2C563.5 149.4 562.9 148.9 562 148.5C561.2 148.1 560.2 147.9 559.2 147.9C558.1 147.9 557.2 148.1 556.3 148.6C555.5 149 554.8 149.7 554.4 150.5C554 151.3 553.7 152.3 553.7 153.4H548C548 151.3 548.5 149.5 549.4 147.9C550.4 146.3 551.7 145.1 553.4 144.3C555.1 143.5 557 143 559.2 143C561.4 143 563.4 143.4 565.1 144.2C566.8 145 568.1 146.2 569 147.6C569.9 149 570.4 150.7 570.4 152.6C570.4 153.8 570.2 155.1 569.7 156.3C569.2 157.5 568.4 158.8 567.2 160.3C566 161.8 564.3 163.5 562.2 165.6L556.5 171.4V171.6H571V176.6H548.1Z" fill="#242438"/>
<path d="M587.2 176.6V143.4H599.7C602.3 143.4 604.4 143.9 606.1 144.8C607.8 145.8 609.1 147.1 610 148.7C610.9 150.4 611.3 152.2 611.3 154.4C611.3 156.5 610.9 158.4 610 160.1C609.1 161.8 607.8 163.1 606 164C604.2 164.9 602.1 165.4 599.5 165.4H591.2V160.5H598.6C600.1 160.5 601.3 160.2 602.3 159.7C603.3 159.2 604 158.5 604.4 157.6C604.8 156.7 605.1 155.6 605.1 154.5C605.1 153.4 604.9 152.3 604.4 151.4C603.9 150.5 603.2 149.8 602.3 149.3C601.4 148.8 600.1 148.5 598.6 148.5H593.1V176.7H587.2V176.6Z" fill="#77809C"/>
<path d="M615.9 176.6V151.7H621.6V155.9H621.9C622.4 154.5 623.1 153.4 624.2 152.6C625.3 151.8 626.6 151.4 628 151.4C628.3 151.4 628.7 151.4 629.1 151.4C629.5 151.4 629.8 151.5 630.1 151.5V156.9C629.9 156.8 629.5 156.7 628.9 156.7C628.3 156.7 627.8 156.6 627.4 156.6C626.3 156.6 625.4 156.8 624.5 157.3C623.6 157.8 623 158.4 622.5 159.2C622 160 621.8 160.9 621.8 162V176.6H615.9Z" fill="#77809C"/>
<path d="M644.4 177.1C642 177.1 639.9 176.6 638.1 175.5C636.3 174.4 634.9 172.9 634 171C633 169.1 632.5 166.8 632.5 164.3C632.5 161.7 633 159.5 634 157.5C635 155.6 636.4 154.1 638.1 153C639.9 151.9 642 151.4 644.4 151.4C646.8 151.4 648.9 151.9 650.7 153C652.5 154.1 653.9 155.6 654.8 157.5C655.8 159.4 656.3 161.7 656.3 164.3C656.3 166.9 655.8 169.1 654.8 171C653.8 172.9 652.4 174.4 650.7 175.5C649 176.6 646.9 177.1 644.4 177.1ZM644.5 172.4C645.8 172.4 646.9 172 647.8 171.3C648.7 170.6 649.3 169.6 649.8 168.4C650.2 167.2 650.5 165.8 650.5 164.3C650.5 162.8 650.3 161.4 649.8 160.2C649.3 159 648.7 158 647.8 157.2C646.9 156.5 645.8 156.1 644.5 156.1C643.1 156.1 642 156.5 641.1 157.2C640.2 157.9 639.5 158.9 639.1 160.2C638.7 161.5 638.4 162.8 638.4 164.3C638.4 165.8 638.6 167.2 639.1 168.4C639.5 169.6 640.2 170.6 641.1 171.3C642 172 643.1 172.4 644.5 172.4Z" fill="#77809C"/>
<path d="M660.9 151.7H666.8V178C666.8 179.8 666.5 181.3 665.8 182.4C665.1 183.6 664.1 184.4 662.8 185C661.5 185.6 660 185.9 658.1 185.9C657.9 185.9 657.7 185.9 657.5 185.9C657.3 185.9 657.1 185.9 656.9 185.9V181.1C657.1 181.1 657.2 181.1 657.3 181.1C657.4 181.1 657.6 181.1 657.7 181.1C658.8 181.1 659.6 180.8 660.1 180.3C660.6 179.8 660.8 179 660.8 177.9V151.7H660.9ZM663.8 148.1C662.9 148.1 662.1 147.8 661.4 147.2C660.7 146.6 660.4 145.8 660.4 145C660.4 144.1 660.7 143.4 661.4 142.7C662.1 142 662.9 141.8 663.8 141.8C664.7 141.8 665.5 142.1 666.2 142.7C666.9 143.3 667.2 144.1 667.2 145C667.2 145.9 666.9 146.6 666.2 147.2C665.5 147.8 664.7 148.1 663.8 148.1Z" fill="#77809C"/>
<path d="M683.4 177.1C680.9 177.1 678.7 176.6 676.9 175.5C675.1 174.5 673.7 173 672.7 171.1C671.7 169.2 671.2 166.9 671.2 164.3C671.2 161.7 671.7 159.5 672.7 157.5C673.7 155.6 675 154 676.8 153C678.6 152 680.6 151.4 683 151.4C684.5 151.4 686 151.6 687.4 152.1C688.8 152.6 690 153.4 691 154.4C692.1 155.4 692.9 156.7 693.5 158.3C694.1 159.9 694.4 161.8 694.4 164V165.8H674V161.8H688.8C688.8 160.7 688.5 159.7 688.1 158.8C687.6 157.9 687 157.2 686.1 156.7C685.3 156.2 684.3 155.9 683.1 155.9C681.9 155.9 680.8 156.2 679.9 156.8C679 157.4 678.3 158.1 677.8 159.1C677.3 160.1 677 161.1 677 162.2V165.7C677 167.1 677.3 168.4 677.8 169.4C678.3 170.4 679.1 171.2 680 171.8C681 172.3 682.1 172.6 683.3 172.6C684.2 172.6 684.9 172.5 685.6 172.2C686.3 172 686.9 171.6 687.4 171.1C687.9 170.6 688.3 170 688.6 169.3L694.1 169.9C693.8 171.3 693.1 172.6 692.1 173.7C691.1 174.8 689.9 175.6 688.4 176.2C687 176.8 685.3 177.1 683.4 177.1Z" fill="#77809C"/>
<path d="M709.8 177.1C707.3 177.1 705.2 176.6 703.4 175.5C701.6 174.4 700.3 172.9 699.3 171C698.3 169.1 697.9 166.8 697.9 164.3C697.9 161.8 698.4 159.5 699.4 157.6C700.4 155.7 701.7 154.1 703.5 153.1C705.3 152.1 707.4 151.5 709.8 151.5C711.8 151.5 713.6 151.9 715.2 152.6C716.8 153.3 718 154.4 718.9 155.7C719.8 157 720.4 158.6 720.5 160.4H714.9C714.7 159.2 714.1 158.2 713.3 157.4C712.5 156.6 711.3 156.2 709.9 156.2C708.7 156.2 707.6 156.5 706.7 157.2C705.8 157.8 705.1 158.8 704.6 160C704.1 161.2 703.8 162.6 703.8 164.3C703.8 166 704 167.5 704.5 168.7C705 169.9 705.7 170.9 706.6 171.5C707.5 172.1 708.6 172.5 709.8 172.5C710.7 172.5 711.4 172.3 712.1 172C712.8 171.7 713.4 171.2 713.8 170.6C714.3 170 714.6 169.2 714.8 168.3H720.4C720.3 170.1 719.7 171.6 718.8 173C717.9 174.4 716.7 175.4 715.1 176.2C713.7 176.7 711.9 177.1 709.8 177.1Z" fill="#77809C"/>
<path d="M737.3 151.7V156.2H723V151.7H737.3ZM726.5 145.7H732.4V169.1C732.4 169.9 732.5 170.5 732.8 170.9C733 171.3 733.4 171.6 733.8 171.8C734.2 172 734.6 172 735.1 172C735.5 172 735.8 172 736.1 171.9C736.4 171.8 736.6 171.8 736.8 171.8L737.8 176.4C737.5 176.5 737 176.6 736.5 176.8C735.9 176.9 735.2 177 734.4 177C732.9 177 731.6 176.8 730.4 176.3C729.2 175.8 728.3 175 727.6 174C726.9 173 726.6 171.7 726.6 170.1V145.7H726.5Z" fill="#77809C"/>
<path d="M761.5 158.3L756.1 158.9C755.9 158.4 755.7 157.9 755.3 157.4C754.9 156.9 754.4 156.5 753.8 156.2C753.2 155.9 752.4 155.8 751.5 155.8C750.3 155.8 749.3 156.1 748.4 156.6C747.6 157.1 747.2 157.8 747.2 158.7C747.2 159.4 747.5 160 748 160.5C748.5 161 749.5 161.3 750.7 161.6L754.9 162.5C757.3 163 759 163.8 760.2 164.9C761.4 166 761.9 167.4 761.9 169.2C761.9 170.8 761.4 172.2 760.5 173.3C759.6 174.5 758.3 175.4 756.7 176.1C755.1 176.8 753.3 177.1 751.2 177.1C748.2 177.1 745.7 176.5 743.8 175.2C741.9 173.9 740.8 172.1 740.5 169.8L746.2 169.2C746.5 170.3 747 171.2 747.9 171.7C748.8 172.2 749.8 172.6 751.2 172.6C752.6 172.6 753.7 172.3 754.6 171.7C755.4 171.1 755.9 170.4 755.9 169.6C755.9 168.9 755.6 168.3 755.1 167.8C754.6 167.3 753.7 167 752.6 166.7L748.3 165.8C745.9 165.3 744.1 164.5 743 163.3C741.9 162.1 741.3 160.6 741.3 158.8C741.3 157.3 741.7 155.9 742.6 154.8C743.5 153.7 744.6 152.8 746.2 152.2C747.7 151.6 749.5 151.3 751.5 151.3C754.4 151.3 756.7 151.9 758.4 153.2C760 154.5 761.1 156.1 761.5 158.3Z" fill="#77809C"/>
<path d="M770 177C769 177 768.2 176.7 767.5 176C766.8 175.3 766.5 174.5 766.5 173.5C766.5 172.5 766.8 171.7 767.5 171C768.2 170.3 769 170 770 170C771 170 771.8 170.3 772.5 171C773.2 171.7 773.6 172.5 773.6 173.5C773.6 174.2 773.4 174.8 773.1 175.3C772.8 175.8 772.3 176.3 771.8 176.6C771.2 176.8 770.6 177 770 177Z" fill="#77809C"/>
</g>
<mask id="mask5_4_575" style="mask-type:luminance" maskUnits="userSpaceOnUse" x="0" y="0" width="1521" height="255">
<path d="M1521 0H0V255H1521V0Z" fill="white"/>
</mask>
<g mask="url(#mask5_4_575)">
<path d="M1456 192C1461.52 192 1466 187.523 1466 182C1466 176.477 1461.52 172 1456 172C1450.48 172 1446 176.477 1446 182C1446 187.523 1450.48 192 1456 192Z" fill="#F2FCFF"/>
</g>
<mask id="mask6_4_575" style="mask-type:luminance" maskUnits="userSpaceOnUse" x="0" y="0" width="1521" height="255">
<path d="M1521 0H0V255H1521V0Z" fill="white"/>
</mask>
<g mask="url(#mask6_4_575)">
<path d="M655 274C667.703 274 678 263.703 678 251C678 238.297 667.703 228 655 228C642.297 228 632 238.297 632 251C632 263.703 642.297 274 655 274Z" fill="#F2FCFF"/>
</g>
<mask id="mask7_4_575" style="mask-type:luminance" maskUnits="userSpaceOnUse" x="0" y="0" width="1521" height="255">
<path d="M1521 0H0V255H1521V0Z" fill="white"/>
</mask>
<g mask="url(#mask7_4_575)">
<path d="M1435 66C1446.6 66 1456 56.598 1456 45C1456 33.402 1446.6 24 1435 24C1423.4 24 1414 33.402 1414 45C1414 56.598 1423.4 66 1435 66Z" fill="#D4F6FF"/>
</g>
<mask id="mask8_4_575" style="mask-type:luminance" maskUnits="userSpaceOnUse" x="0" y="0" width="1521" height="255">
<path d="M1521 0H0V255H1521V0Z" fill="white"/>
</mask>
<g mask="url(#mask8_4_575)">
<path d="M1245.5 274C1242.9 272.3 1242.1 270 1242.4 266.9C1243.9 247.9 1263.5 235.7 1281.1 242.9C1282.8 243.6 1283.8 243.2 1285.2 242.2C1289.8 238.7 1294.6 235.4 1299.4 232C1299 231.8 1298.4 231.5 1297.8 231.3C1271.1 221.2 1256 192.1 1262.9 164.4C1263.6 161.6 1265.3 160.1 1268.1 159.6C1292.1 154.9 1311.8 161.9 1327.1 181C1327.4 181.4 1327.8 181.9 1328.4 182.6C1328.4 171.8 1328.4 161.4 1328.4 151C1324.2 150.1 1319.8 149.4 1315.6 148.3C1287.1 140.5 1267.3 112.4 1269.5 82.9C1271.8 51.9 1293.8 28 1324.4 23.3C1335.8 21.6 1346.9 23 1357.6 27.4C1361.3 28.9 1362.8 31.4 1361.6 34.3C1360.4 37.2 1357.7 38 1354 36.5C1322.9 24.1 1289 41.4 1280.8 73.7C1272.9 104.9 1294.1 136.3 1326.1 140.6C1359.2 145.1 1388.5 119.1 1387.9 85.9C1387.8 78.8 1386.2 72 1383.5 65.4C1382.7 63.4 1382.6 61.3 1384.3 60C1385.6 59 1387.7 58.3 1389.1 58.7C1390.6 59.2 1392.1 60.9 1392.8 62.5C1399.3 78.4 1399.7 94.6 1393.1 110.5C1383.6 133.4 1366.2 146.7 1341.6 150.4C1341 150.5 1340.5 150.6 1339.9 150.7C1339.5 150.8 1339.1 150.8 1338.6 150.9C1338.6 161.4 1338.6 171.8 1338.6 182.7C1339.2 182 1339.6 181.5 1340.1 181C1355.4 162.1 1374.9 155.1 1398.7 159.7C1401.9 160.3 1403.6 162 1404.3 165.3C1410.6 193.5 1396 221.1 1369.1 231.6C1368.6 231.8 1368.1 232 1367.2 232.4C1368.7 233.3 1370.1 234 1371.3 234.9C1375 237.5 1378.7 240 1382.2 242.8C1383.4 243.8 1384.3 243.8 1385.7 243.3C1403.7 236.1 1422.8 247.9 1424.6 267.2C1424.9 270.3 1424.1 272.6 1421.5 274.3C1362.7 274 1304.1 274 1245.5 274ZM1413.9 264.1C1411 252.6 1397.4 247.2 1387.1 253.2C1382.9 255.7 1381.7 255.5 1378.1 252.1C1353.4 228.3 1313.5 228.3 1288.9 252.1C1285.4 255.5 1284.2 255.7 1279.9 253.2C1270.4 247.7 1258.3 251.6 1253.8 261.6C1253.5 262.4 1253.2 263.2 1252.9 264.1C1306.7 264.1 1360.2 264.1 1413.9 264.1ZM1339 217.8C1342.3 214.5 1345.7 211.1 1349 207.8C1352.5 204.3 1356 200.7 1359.6 197.2C1361.8 195.1 1364.7 195.2 1366.6 197.1C1368.4 199 1368.4 201.8 1366.6 204C1366.1 204.6 1365.6 205.1 1365.1 205.6C1359.3 211.4 1353.4 217.3 1347.6 223.1C1347 223.7 1346.5 224.2 1345.8 225.1C1346.5 225.2 1346.8 225.3 1347.1 225.3C1377.6 226.1 1399.9 199.6 1395.4 170.6C1395.2 169.2 1394.5 168.7 1393.2 168.5C1377.6 166.4 1364 170.5 1352.7 181.5C1342.4 191.3 1338.1 203.5 1339 217.8ZM1327.4 218.3C1327.7 218 1328 217.7 1328.3 217.5C1328.3 217.3 1328.4 217.2 1328.4 217C1329.9 187.5 1302.7 163.4 1273.7 168.4C1272.2 168.7 1271.7 169.5 1271.5 170.8C1267.8 194.7 1282.6 217.4 1306 223.6C1310.8 224.9 1315.7 225.6 1321.1 225C1320.2 224.1 1319.7 223.5 1319.2 222.9C1313.2 216.9 1307.2 210.9 1301.2 204.8C1300.4 203.9 1299.5 203 1299.1 201.9C1298.3 199.8 1299.2 197.5 1301 196.3C1303 195 1305.4 195.2 1307.5 197.2C1313.7 203.3 1319.8 209.4 1325.9 215.6C1326.6 216.5 1326.9 217.5 1327.4 218.3Z" fill="#15BEE6"/>
<path d="M1328.5 122C1323.3 121.7 1318.9 120 1314.8 117.3C1312 115.4 1311.2 112.7 1312.8 110.2C1314.3 107.8 1317.1 107.3 1319.9 109C1322.5 110.5 1325.1 112.1 1328.5 112.1C1328.5 105.3 1328.3 98.6 1328.6 91.9C1328.8 88.4 1327.6 86.8 1324.5 85.3C1317.3 82.1 1313.1 76.5 1313.9 68.3C1314.8 59.5 1319.7 53.8 1327.7 51.7C1328.6 48.8 1329.3 46.3 1330.4 44C1330.8 43.2 1332.5 42.9 1333.7 42.8C1337 42.7 1338 44.6 1338.5 51.2C1341.5 52.5 1344.4 53.7 1347.2 55.2C1350.5 57 1351.4 59.9 1349.8 62.5C1348.3 65 1345.4 65.4 1342.3 63.6C1341.2 63 1340 62.4 1338.4 61.6C1338.4 66.1 1338.7 70.3 1338.3 74.4C1337.9 78.8 1338.9 81.2 1343.5 83C1351.1 85.9 1355.1 92.3 1354.8 100.6C1354.5 109.8 1349.9 116.5 1341.5 120.4C1340.5 120.8 1339.5 121.1 1338.3 121.6C1338.3 123.1 1338.4 124.6 1338.3 126.1C1338.2 128.9 1336.1 131 1333.5 131C1330.8 131 1328.7 128.9 1328.5 126C1328.5 124.7 1328.5 123.5 1328.5 122ZM1338.5 110.6C1342.8 109.3 1345.4 103.2 1345 99.5C1344.5 95.3 1342 92.2 1338.5 91.6C1338.5 97.9 1338.5 104.3 1338.5 110.6ZM1328.5 62C1325.2 63.6 1323.5 66.7 1323.7 70.2C1323.9 73.1 1325.3 74.8 1328.5 75.9C1328.5 71.4 1328.5 66.8 1328.5 62Z" fill="#15BEE6"/>
<path d="M1380.2 44.8C1380.2 47.5 1378.2 49.7 1375.5 49.7C1372.7 49.8 1370.4 47.6 1370.4 44.8C1370.4 42.2 1372.6 40 1375.3 39.9C1377.9 40 1380.1 42.1 1380.2 44.8Z" fill="#15BEE6"/>
</g>
<mask id="mask9_4_575" style="mask-type:luminance" maskUnits="userSpaceOnUse" x="0" y="0" width="1521" height="255">
<path d="M1521 0H0V255H1521V0Z" fill="white"/>
</mask>
<g mask="url(#mask9_4_575)">
<path d="M61.5 202.7C61.5 201.4 61.7 200.2 62 199.1C62.3 198 62.8 197 63.4 196.1H64.5C64.3 196.4 64 196.9 63.8 197.3C63.6 197.7 63.4 198.3 63.2 198.9C63 199.5 62.9 200.1 62.8 200.7C62.7 201.3 62.7 201.9 62.7 202.6C62.7 203.4 62.8 204.2 62.9 205.1C63.1 205.9 63.3 206.7 63.5 207.4C63.7 208.1 64.1 208.7 64.4 209.2H63.3C62.7 208.3 62.2 207.3 61.9 206.2C61.7 205.2 61.5 204 61.5 202.7Z" fill="#D3D3D3"/>
<path d="M73.4 196.7H74.7V203.6C74.7 204.3 74.5 205 74.2 205.5C73.9 206.1 73.4 206.5 72.8 206.8C72.2 207.1 71.5 207.3 70.7 207.3C69.9 207.3 69.2 207.1 68.6 206.8C68 206.5 67.5 206 67.2 205.5C66.9 204.9 66.7 204.3 66.7 203.6V196.7H68V203.5C68 204 68.1 204.5 68.3 204.9C68.5 205.3 68.8 205.6 69.3 205.8C69.7 206 70.2 206.1 70.8 206.1C71.4 206.1 71.9 206 72.3 205.8C72.7 205.6 73 205.3 73.3 204.9C73.5 204.5 73.6 204 73.6 203.5V196.7H73.4Z" fill="#D3D3D3"/>
<path d="M85.5 196.7V207.2H84.3L78.6 199H78.5V207.2H77.2V196.7H78.4L84.1 204.9H84.2V196.7H85.5Z" fill="#D3D3D3"/>
<path d="M96.5 200H95.2C95.1 199.6 95 199.3 94.8 199C94.6 198.7 94.4 198.5 94.1 198.3C93.8 198.1 93.5 198 93.2 197.9C92.9 197.8 92.5 197.8 92.2 197.8C91.6 197.8 91 198 90.5 198.3C90 198.6 89.6 199.1 89.3 199.7C89 200.3 88.8 201.1 88.8 202C88.8 202.9 89 203.7 89.3 204.3C89.6 204.9 90 205.4 90.5 205.7C91 206 91.6 206.2 92.2 206.2C92.5 206.2 92.9 206.2 93.2 206.1C93.5 206 93.8 205.9 94.1 205.7C94.4 205.5 94.6 205.3 94.8 205C95 204.7 95.1 204.4 95.2 204H96.5C96.4 204.5 96.2 205 96 205.4C95.8 205.8 95.4 206.2 95.1 206.5C94.7 206.8 94.3 207 93.8 207.2C93.3 207.4 92.8 207.4 92.3 207.4C91.4 207.4 90.6 207.2 89.9 206.7C89.2 206.3 88.7 205.6 88.3 204.8C87.9 204 87.7 203 87.7 201.9C87.7 200.8 87.9 199.8 88.3 199C88.7 198.2 89.2 197.6 89.9 197.1C90.6 196.7 91.4 196.4 92.3 196.4C92.8 196.4 93.3 196.5 93.8 196.6C94.3 196.8 94.7 197 95.1 197.3C95.5 197.6 95.8 198 96 198.4C96.2 198.8 96.4 199.4 96.5 200Z" fill="#D3D3D3"/>
<path d="M97.8999 197.8V196.7H105.8V197.8H102.5V207.2H101.2V197.8H97.8999Z" fill="#D3D3D3"/>
<path d="M108.2 207.2H106.9L110.7 196.7H112L115.8 207.2H114.5L111.4 198.4H111.3L108.2 207.2ZM108.7 203.1H114.1V204.2H108.7V203.1Z" fill="#D3D3D3"/>
<path d="M120.7 207.2H117.5V196.7H120.9C121.9 196.7 122.8 196.9 123.5 197.3C124.2 197.7 124.8 198.3 125.2 199.1C125.6 199.9 125.8 200.8 125.8 201.9C125.8 203 125.6 203.9 125.2 204.7C124.8 205.5 124.2 206.1 123.5 206.5C122.7 207 121.8 207.2 120.7 207.2ZM118.8 206H120.7C121.6 206 122.3 205.8 122.9 205.5C123.5 205.2 123.9 204.7 124.2 204.1C124.5 203.5 124.6 202.7 124.6 201.9C124.6 201.1 124.5 200.3 124.2 199.7C123.9 199.1 123.5 198.6 123 198.3C122.5 198 121.8 197.8 120.9 197.8H118.9V206H118.8Z" fill="#D3D3D3"/>
<path d="M131.7 207.2V206.3L135.2 202.5C135.6 202.1 135.9 201.7 136.2 201.3C136.5 201 136.7 200.7 136.8 200.4C136.9 200.1 137 199.8 137 199.5C137 199.1 136.9 198.8 136.7 198.5C136.5 198.2 136.3 198 136 197.9C135.7 197.8 135.4 197.7 135 197.7C134.6 197.7 134.2 197.8 133.9 197.9C133.6 198.1 133.4 198.3 133.2 198.6C133 198.9 133 199.2 133 199.6H131.8C131.8 199 131.9 198.4 132.2 198C132.5 197.5 132.9 197.2 133.4 196.9C133.9 196.6 134.4 196.5 135.1 196.5C135.7 196.5 136.3 196.6 136.7 196.9C137.2 197.2 137.5 197.5 137.8 197.9C138.1 198.3 138.2 198.8 138.2 199.4C138.2 199.8 138.1 200.2 138 200.5C137.9 200.9 137.6 201.3 137.3 201.7C137 202.1 136.5 202.7 135.9 203.3L133.5 205.8V205.9H138.4V207H131.7V207.2Z" fill="#D3D3D3"/>
<path d="M143.9 207.3C143.1 207.3 142.5 207.1 141.9 206.7C141.4 206.3 140.9 205.7 140.7 204.9C140.4 204.1 140.3 203.1 140.3 202C140.3 200.9 140.4 199.9 140.7 199.1C141 198.3 141.4 197.7 141.9 197.3C142.4 196.9 143.1 196.7 143.9 196.7C144.7 196.7 145.3 196.9 145.9 197.3C146.4 197.7 146.9 198.3 147.1 199.1C147.4 199.9 147.5 200.9 147.5 202C147.5 203.1 147.4 204.1 147.1 204.9C146.8 205.7 146.4 206.3 145.9 206.7C145.3 207.1 144.6 207.3 143.9 207.3ZM143.9 206.2C144.7 206.2 145.3 205.8 145.7 205.1C146.1 204.4 146.3 203.3 146.3 201.9C146.3 201 146.2 200.2 146 199.6C145.8 199 145.5 198.5 145.2 198.1C144.8 197.8 144.4 197.6 143.9 197.6C143.1 197.6 142.6 198 142.1 198.7C141.7 199.4 141.5 200.5 141.5 201.9C141.5 202.8 141.6 203.6 141.8 204.2C142 204.8 142.3 205.3 142.6 205.6C142.9 206 143.4 206.2 143.9 206.2Z" fill="#D3D3D3"/>
<path d="M149.5 207.2V206.3L153 202.5C153.4 202.1 153.7 201.7 154 201.3C154.3 201 154.5 200.7 154.6 200.4C154.7 200.1 154.8 199.8 154.8 199.5C154.8 199.1 154.7 198.8 154.5 198.5C154.3 198.2 154.1 198 153.8 197.9C153.5 197.8 153.2 197.7 152.8 197.7C152.4 197.7 152 197.8 151.7 197.9C151.4 198.1 151.2 198.3 151 198.6C150.8 198.9 150.8 199.2 150.8 199.6H149.6C149.6 199 149.7 198.4 150 198C150.3 197.5 150.7 197.2 151.2 196.9C151.7 196.6 152.2 196.5 152.9 196.5C153.5 196.5 154.1 196.6 154.5 196.9C155 197.2 155.3 197.5 155.6 197.9C155.9 198.3 156 198.8 156 199.4C156 199.8 155.9 200.2 155.8 200.5C155.7 200.9 155.4 201.3 155.1 201.7C154.8 202.1 154.3 202.7 153.7 203.3L151.3 205.8V205.9H156.2V207H149.5V207.2Z" fill="#D3D3D3"/>
<path d="M157.9 205V204L162.5 196.7H163.3V198.3H162.8L159.3 203.8V203.9H165.5V205H157.9ZM162.9 207.2V204.7V204.2V196.7H164.1V207.2H162.9Z" fill="#D3D3D3"/>
<path d="M170 202.7C170 204 169.8 205.2 169.5 206.3C169.2 207.4 168.7 208.4 168.1 209.3H167C167.2 209 167.5 208.5 167.7 208.1C167.9 207.7 168.1 207.1 168.3 206.5C168.5 205.9 168.6 205.3 168.7 204.7C168.8 204.1 168.8 203.5 168.8 202.8C168.8 202 168.7 201.2 168.6 200.3C168.4 199.5 168.2 198.7 168 198C167.7 197.3 167.4 196.7 167.1 196.2H168.2C168.8 197.1 169.3 198.1 169.6 199.2C169.9 200.3 170 201.5 170 202.7Z" fill="#D3D3D3"/>
</g>
<mask id="mask10_4_575" style="mask-type:luminance" maskUnits="userSpaceOnUse" x="0" y="0" width="1521" height="255">
<path d="M1521 0H0V255H1521V0Z" fill="white"/>
</mask>
<g mask="url(#mask10_4_575)">
<path d="M63.9 60.9H57V39.4H64.2C66.3 39.4 68.1 39.8 69.6 40.7C71.1 41.6 72.3 42.8 73.1 44.4C73.9 46 74.3 47.9 74.3 50.1C74.3 52.3 73.9 54.3 73.1 55.9C72.3 57.5 71.1 58.7 69.6 59.6C67.9 60.5 66.1 60.9 63.9 60.9ZM60.2 58.1H63.7C65.3 58.1 66.7 57.8 67.8 57.2C68.9 56.6 69.7 55.7 70.2 54.5C70.7 53.3 71 51.9 71 50.2C71 48.5 70.7 47.1 70.2 45.9C69.7 44.7 68.9 43.8 67.8 43.2C66.7 42.6 65.4 42.3 63.9 42.3H60.2V58.1Z" fill="#242438"/>
<path d="M79.6001 42.3C79.1001 42.3 78.6001 42.1 78.2001 41.7C77.8001 41.3 77.6001 40.9 77.6001 40.4C77.6001 39.9 77.8001 39.4 78.2001 39.1C78.6001 38.7 79.1001 38.5 79.6001 38.5C80.1001 38.5 80.6001 38.7 81.0001 39.1C81.4001 39.5 81.6001 39.9 81.6001 40.4C81.6001 40.9 81.4001 41.4 81.0001 41.7C80.6001 42.1 80.1001 42.3 79.6001 42.3ZM78.0001 60.9V44.8H81.1001V60.9H78.0001Z" fill="#242438"/>
<path d="M91.3 61.2C90 61.2 88.8 60.9 87.8 60.2C86.8 59.5 86 58.6 85.4 57.3C84.8 56.1 84.5 54.6 84.5 52.8C84.5 51.1 84.8 49.6 85.4 48.3C86 47.1 86.8 46.1 87.8 45.5C88.8 44.8 90 44.5 91.3 44.5C92.3 44.5 93.1 44.7 93.7 45C94.3 45.3 94.8 45.7 95.1 46.2C95.4 46.6 95.7 47 95.9 47.4H96.1V39.4H99.2V60.9H96.1V58.4H96C95.8 58.7 95.5 59.1 95.2 59.6C94.8 60 94.4 60.4 93.7 60.8C93.1 61 92.3 61.2 91.3 61.2ZM92 58.5C92.9 58.5 93.7 58.3 94.3 57.8C94.9 57.3 95.4 56.7 95.7 55.8C96 54.9 96.2 54 96.2 52.8C96.2 51.7 96 50.7 95.7 49.9C95.4 49.1 94.9 48.4 94.3 47.9C93.7 47.4 92.9 47.2 92 47.2C91.1 47.2 90.3 47.4 89.6 47.9C88.9 48.4 88.5 49.1 88.2 49.9C87.9 50.7 87.7 51.7 87.7 52.8C87.7 53.9 87.9 54.8 88.2 55.7C88.5 56.6 89 57.2 89.6 57.7C90.2 58.2 91.1 58.5 92 58.5Z" fill="#242438"/>
<path d="M113.6 66.9C113.1 66.9 112.7 66.9 112.3 66.8C111.9 66.7 111.6 66.6 111.4 66.6L112.2 64C112.8 64.2 113.3 64.2 113.7 64.2C114.1 64.2 114.5 64 114.9 63.7C115.3 63.4 115.6 62.9 115.8 62.2L116.2 61.1L110.3 44.8H113.7L117.8 57.3H118L122.1 44.8H125.5L118.7 63C118.4 63.8 118 64.5 117.5 65.1C117 65.7 116.5 66.1 115.8 66.4C115.2 66.8 114.5 66.9 113.6 66.9Z" fill="#242438"/>
<path d="M135.1 61.2C133.6 61.2 132.3 60.9 131.1 60.2C130 59.5 129.1 58.5 128.5 57.3C127.9 56.1 127.6 54.6 127.6 52.9C127.6 51.2 127.9 49.8 128.5 48.5C129.1 47.2 130 46.3 131.1 45.6C132.2 44.9 133.5 44.6 135.1 44.6C136.7 44.6 137.9 44.9 139.1 45.6C140.2 46.3 141.1 47.3 141.7 48.5C142.3 49.7 142.6 51.2 142.6 52.9C142.6 54.6 142.3 56 141.7 57.3C141.1 58.5 140.2 59.5 139.1 60.2C137.9 60.9 136.6 61.2 135.1 61.2ZM135.1 58.6C136.1 58.6 136.9 58.3 137.5 57.8C138.1 57.3 138.6 56.6 138.9 55.7C139.2 54.8 139.4 53.9 139.4 52.9C139.4 51.9 139.2 50.9 138.9 50.1C138.6 49.2 138.1 48.5 137.5 48C136.9 47.5 136 47.2 135.1 47.2C134.1 47.2 133.3 47.5 132.7 48C132.1 48.5 131.6 49.2 131.3 50.1C131 51 130.8 51.9 130.8 52.9C130.8 53.9 131 54.9 131.3 55.7C131.6 56.6 132.1 57.2 132.7 57.8C133.3 58.3 134.1 58.6 135.1 58.6Z" fill="#242438"/>
<path d="M156.3 54.2V44.8H159.4V60.9H156.3V58.1H156.1C155.7 59 155.1 59.7 154.3 60.2C153.5 60.8 152.5 61.1 151.3 61.1C150.3 61.1 149.4 60.9 148.6 60.4C147.8 59.9 147.2 59.3 146.7 58.4C146.2 57.5 146 56.4 146 55.1V44.8H149.1V54.7C149.1 55.8 149.4 56.7 150 57.3C150.6 58 151.4 58.3 152.4 58.3C153 58.3 153.6 58.2 154.2 57.9C154.8 57.6 155.3 57.2 155.7 56.6C156.1 56 156.3 55.1 156.3 54.2Z" fill="#242438"/>
<path d="M171.5 60.9V39.4H174.6V60.9H171.5ZM174.4 55.4V51.6H174.9L181.3 44.8H185.1L177.8 52.6H177.3L174.4 55.4ZM181.6 60.9L175.8 53.2L178 51L185.5 60.8H181.6V60.9Z" fill="#15BEE6"/>
<path d="M191 51.3V60.9H187.9V44.8H190.9V47.4H191.1C191.5 46.5 192.1 45.9 192.8 45.3C193.6 44.8 194.6 44.5 195.8 44.5C196.9 44.5 197.9 44.7 198.7 45.2C199.5 45.7 200.2 46.3 200.6 47.2C201.1 48.1 201.3 49.2 201.3 50.5V60.7H198.2V51C198.2 49.8 197.9 48.9 197.3 48.3C196.7 47.6 195.9 47.3 194.8 47.3C194.1 47.3 193.4 47.5 192.9 47.8C192.4 48.1 191.9 48.6 191.6 49.2C191.2 49.7 191 50.5 191 51.3Z" fill="#15BEE6"/>
<path d="M212.3 61.2C210.8 61.2 209.5 60.9 208.3 60.2C207.2 59.5 206.3 58.5 205.7 57.3C205.1 56.1 204.8 54.6 204.8 52.9C204.8 51.2 205.1 49.8 205.7 48.5C206.3 47.2 207.2 46.3 208.3 45.6C209.4 44.9 210.7 44.6 212.3 44.6C213.9 44.6 215.1 44.9 216.3 45.6C217.4 46.3 218.3 47.3 218.9 48.5C219.5 49.7 219.8 51.2 219.8 52.9C219.8 54.6 219.5 56 218.9 57.3C218.3 58.5 217.4 59.5 216.3 60.2C215.1 60.9 213.8 61.2 212.3 61.2ZM212.3 58.6C213.3 58.6 214.1 58.3 214.7 57.8C215.3 57.3 215.8 56.6 216.1 55.7C216.4 54.8 216.6 53.9 216.6 52.9C216.6 51.9 216.4 50.9 216.1 50.1C215.8 49.2 215.3 48.5 214.7 48C214.1 47.5 213.2 47.2 212.3 47.2C211.3 47.2 210.5 47.5 209.9 48C209.3 48.5 208.8 49.2 208.5 50.1C208.2 51 208 51.9 208 52.9C208 53.9 208.2 54.9 208.5 55.7C208.8 56.6 209.3 57.2 209.9 57.8C210.5 58.3 211.3 58.6 212.3 58.6Z" fill="#15BEE6"/>
<path d="M226.8 60.9L222.1 44.8H225.3L228.5 56.6H228.7L231.9 44.8H235.1L238.2 56.6H238.4L241.5 44.8H244.7L240 60.9H236.8L233.5 49.3H233.3L230 60.9H226.8Z" fill="#15BEE6"/>
<path d="M251.1 54.5C251.1 53.2 251.2 52.2 251.5 51.4C251.8 50.6 252.1 50 252.6 49.5C253.1 49 253.6 48.6 254.3 48.2C254.7 47.9 255.1 47.6 255.4 47.3C255.7 47 256 46.6 256.2 46.2C256.4 45.8 256.5 45.3 256.5 44.8C256.5 44.2 256.4 43.6 256.1 43.2C255.8 42.7 255.4 42.4 254.9 42.1C254.4 41.8 253.9 41.7 253.3 41.7C252.8 41.7 252.2 41.8 251.8 42C251.4 42.2 250.9 42.6 250.6 43C250.3 43.4 250.1 44.1 250 44.8H246.8C246.8 43.5 247.2 42.5 247.8 41.6C248.4 40.7 249.2 40.1 250.1 39.6C251 39.1 252.1 38.9 253.3 38.9C254.6 38.9 255.7 39.1 256.7 39.6C257.7 40.1 258.4 40.7 258.9 41.6C259.4 42.5 259.7 43.5 259.7 44.6C259.7 45.4 259.6 46.1 259.3 46.7C259.1 47.3 258.7 47.9 258.3 48.4C257.8 48.9 257.3 49.3 256.7 49.7C256.1 50.1 255.6 50.5 255.3 50.9C254.9 51.3 254.7 51.8 254.5 52.3C254.3 52.8 254.2 53.5 254.2 54.3V54.5H251.1ZM252.7 61.1C252.1 61.1 251.6 60.9 251.2 60.5C250.8 60.1 250.6 59.6 250.6 59C250.6 58.4 250.8 57.9 251.2 57.5C251.6 57.1 252.1 56.9 252.7 56.9C253.3 56.9 253.8 57.1 254.2 57.5C254.6 57.9 254.8 58.4 254.8 59C254.8 59.4 254.7 59.7 254.5 60.1C254.3 60.4 254.1 60.7 253.7 60.9C253.4 61 253 61.1 252.7 61.1Z" fill="#15BEE6"/>
<path d="M257 65.6H170.9V68.2H257V65.6Z" fill="#D9F4F9"/>
</g>
</g>
<defs>
<clipPath id="clip0_4_575">
<rect width="1521" height="255" fill="white"/>
</clipPath>
</defs>
</svg>
