<svg width="1521" height="255" viewBox="0 0 1521 255" fill="none" xmlns="http://www.w3.org/2000/svg">
<g clip-path="url(#clip0_4_2374)">
<path d="M1521 0H0V255H1521V0Z" fill="white"/>
<mask id="mask0_4_2374" style="mask-type:luminance" maskUnits="userSpaceOnUse" x="0" y="0" width="1521" height="255">
<path d="M1521 0H0V255H1521V0Z" fill="white"/>
</mask>
<g mask="url(#mask0_4_2374)">
<path d="M1379.9 240.9C1374.2 233.7 1374.2 220.8 1379.9 213.4C1375.9 209.8 1375.9 204.9 1375.9 200C1375.9 195 1375.8 190.1 1379.9 186.4C1374.1 179.6 1375.4 171.8 1376.8 164.2C1377.8 159 1383 155.7 1388.3 155.7C1405.1 155.7 1421.9 155.6 1438.7 155.7C1445.3 155.7 1450.7 161.1 1451 167.7C1451.1 170.9 1451.1 174.2 1451 177.4C1450.9 180.8 1449.5 183.6 1447.2 186C1452.7 194.7 1452.7 205.6 1447.3 213.5C1452.8 221.3 1452.8 233.4 1447.2 240.8C1452.9 246.6 1451.3 254 1450.8 260.9C1450.3 267.1 1444.8 271.3 1438.6 271.3C1422 271.4 1405.3 271.4 1388.7 271.3C1381.9 271.3 1376.7 266.3 1376.2 259.5C1376 256.1 1376.1 252.7 1376.2 249.3C1376.1 246.2 1377.5 243.4 1379.9 240.9ZM1413.4 264.8C1421.5 264.8 1429.6 264.8 1437.7 264.8C1441.9 264.8 1444.3 262.4 1444.3 258.2C1444.3 255.8 1444.3 253.3 1444.3 250.9C1444.3 246.7 1442.1 244.3 1438 244.3C1421.6 244.2 1405.2 244.2 1388.8 244.3C1384.9 244.3 1382.7 246.6 1382.6 250.5C1382.5 253 1382.5 255.6 1382.6 258.1C1382.7 262.6 1385 264.9 1389.5 264.9C1397.5 264.8 1405.4 264.8 1413.4 264.8ZM1413.3 210.3C1421.2 210.3 1429.1 210.3 1436.9 210.3C1442.1 210.3 1444.3 208.1 1444.3 203C1444.3 201.1 1444.3 199.2 1444.3 197.3C1444.3 191.7 1442.2 189.6 1436.6 189.6C1427.7 189.6 1418.8 189.6 1409.9 189.6C1403.2 189.6 1396.5 189.6 1389.8 189.6C1384.7 189.6 1382.6 191.8 1382.5 196.8C1382.5 198.9 1382.5 201.1 1382.5 203.2C1382.6 208.1 1384.8 210.3 1389.6 210.3C1397.5 210.3 1405.4 210.3 1413.3 210.3ZM1413.4 183C1421.5 183 1429.6 183 1437.7 183C1442 183 1444.2 180.6 1444.3 176.4C1444.3 173.9 1444.3 171.3 1444.3 168.8C1444.2 164.9 1441.9 162.5 1437.9 162.5C1421.6 162.5 1405.3 162.5 1389 162.5C1385 162.5 1382.7 164.8 1382.6 168.8C1382.5 171.2 1382.5 173.7 1382.6 176.1C1382.7 180.9 1384.8 183 1389.6 183C1397.5 183 1405.5 183 1413.4 183ZM1413.3 216.9C1405.2 216.9 1397.1 216.9 1389 216.9C1385.1 216.9 1382.8 219.1 1382.6 223C1382.5 225 1382.6 227.1 1382.6 229.2C1382.6 235.8 1384.4 237.5 1390.8 237.6C1400.9 237.6 1411 237.6 1421.1 237.6C1426.7 237.6 1432.3 237.7 1437.9 237.6C1442.1 237.5 1444.3 235.2 1444.4 231.1C1444.4 228.7 1444.4 226.4 1444.4 224C1444.4 219.3 1442.1 217 1437.5 217C1429.4 216.9 1421.3 216.9 1413.3 216.9Z" fill="#15BEE6"/>
<path d="M1405.6 105C1401 104.5 1396.9 104 1392.8 103.6C1392.2 103.5 1391.5 103.5 1390.9 103.4C1388.7 103 1387.6 101.6 1387.9 99.6C1388.2 97.5 1389.7 96.7 1391.7 96.9C1395.2 97.2 1398.8 97.6 1402.3 98C1406.3 98.4 1410.3 98.9 1414.3 99.4C1416.7 99.7 1417.7 100.9 1417.4 103.3C1416.4 111.4 1415.4 119.4 1414.3 127.5C1414 129.7 1412.4 130.9 1410.5 130.5C1408.4 130.1 1407.6 128.7 1407.8 126.7C1408.3 122.2 1408.9 117.6 1409.5 113.1C1409.6 112.4 1409.7 111.7 1409.8 110.4C1408.5 111.4 1407.6 112.1 1406.8 112.7C1388.4 127 1370.1 141.3 1351.8 155.7C1348 158.7 1343.7 160.2 1339 158.7C1336.4 157.9 1333.8 156.3 1331.8 154.4C1326 148.8 1320.5 142.9 1314.9 137.1C1311 133.1 1307.5 132.8 1303 136.1C1276.9 154.8 1250.8 173.5 1224.7 192.2C1224.2 192.6 1223.7 192.9 1223.2 193.3C1221 194.8 1219 194.7 1217.8 193C1216.6 191.3 1217.1 189.5 1219.3 188C1226 183.2 1232.6 178.4 1239.3 173.7C1259.4 159.3 1279.5 144.9 1299.5 130.6C1306.4 125.7 1313.6 126.3 1319.5 132.4C1324.9 138 1330.4 143.6 1335.8 149.2C1340 153.5 1343.5 153.8 1348.2 150.1C1366.6 135.7 1385 121.3 1403.4 107C1404 106.3 1404.5 105.8 1405.6 105Z" fill="#15BEE6"/>
<path d="M1315.6 224.5C1315.6 238.6 1315.6 252.6 1315.6 266.7C1315.6 270.5 1314.6 271.5 1310.9 271.5C1302.6 271.5 1294.3 271.5 1286.1 271.5C1282.4 271.5 1281.4 270.5 1281.4 266.9C1281.4 238.5 1281.4 210 1281.4 181.6C1281.4 179.6 1282 178.2 1283.6 177C1287.7 174 1291.8 170.8 1295.8 167.6C1297.7 166.1 1299.4 166.1 1301.3 167.6C1305.3 170.7 1309.2 173.8 1313.3 176.8C1315.1 178.1 1315.7 179.7 1315.7 181.8C1315.6 196.1 1315.6 210.3 1315.6 224.5ZM1308.8 264.7C1308.9 264.3 1309 264 1309 263.8C1309 236.9 1309 210.1 1309 183.2C1309 182.5 1308.5 181.6 1307.9 181.1C1305.3 178.9 1302.5 177 1299.9 174.8C1298.9 174 1298.2 174 1297.2 174.8C1294.8 176.8 1292.3 178.7 1289.7 180.6C1288.4 181.5 1288 182.6 1288 184.2C1288 210.3 1288 236.3 1288 262.4C1288 263.2 1288.1 263.9 1288.1 264.7C1295.1 264.7 1301.9 264.7 1308.8 264.7Z" fill="#15BEE6"/>
<path d="M1338.6 121.3C1316.4 121.3 1298.5 103.3 1298.5 81C1298.5 58.9 1316.6 40.9 1338.7 41C1360.8 41.1 1378.7 59 1378.6 81.2C1378.6 103.4 1360.7 121.3 1338.6 121.3ZM1338.6 114.7C1356.8 114.8 1371.8 100 1372 81.6C1372.2 63.1 1357.4 47.9 1339 47.7C1320.4 47.5 1305.2 62.4 1305.1 80.9C1305 99.6 1319.8 114.5 1338.6 114.7Z" fill="#15BEE6"/>
<path d="M1327.9 229.9C1327.9 217.7 1327.9 205.6 1327.9 193.4C1327.9 191.1 1328.6 189.5 1330.4 188.2C1334.4 185.3 1338.3 182.2 1342.2 179.1C1344.2 177.5 1345.9 177.5 1347.9 179.1C1351.9 182.3 1356 185.4 1360.1 188.5C1361.6 189.6 1362.3 191 1362.3 192.9C1362.3 217.6 1362.3 242.3 1362.3 267.1C1362.3 270.4 1361.2 271.5 1357.9 271.5C1349.4 271.5 1340.9 271.5 1332.4 271.5C1329 271.5 1327.9 270.4 1327.9 266.9C1327.9 254.5 1327.9 242.2 1327.9 229.9ZM1355.5 264.7C1355.6 264.3 1355.7 264.1 1355.7 263.9C1355.7 240.8 1355.7 217.8 1355.7 194.7C1355.7 194.1 1355.4 193.2 1354.9 192.9C1351.7 190.3 1348.4 187.9 1345.1 185.3C1342.1 187.6 1339.3 189.9 1336.4 192C1335.1 193 1334.5 194 1334.5 195.7C1334.6 217.9 1334.5 240.1 1334.5 262.3C1334.5 263.1 1334.5 263.8 1334.5 264.7C1341.6 264.7 1348.5 264.7 1355.5 264.7Z" fill="#15BEE6"/>
<path d="M1234.6 242.1C1234.6 233.8 1234.6 225.5 1234.6 217.2C1234.6 215.2 1235.2 213.8 1236.8 212.6C1241 209.5 1245.1 206.3 1249.2 203.1C1250.9 201.7 1252.6 201.7 1254.3 203.1C1258.5 206.4 1262.9 209.5 1267 213C1268 213.8 1268.9 215.5 1268.9 216.8C1269 233.7 1269 250.6 1269 267.5C1269 270.5 1267.8 271.6 1264.7 271.6C1256.1 271.6 1247.5 271.6 1238.9 271.6C1235.8 271.6 1234.6 270.5 1234.6 267.3C1234.6 258.8 1234.6 250.5 1234.6 242.1ZM1251.8 209.5C1248.8 211.8 1245.9 214.1 1242.9 216.3C1241.7 217.2 1241.2 218.1 1241.2 219.6C1241.3 233.9 1241.2 248.2 1241.2 262.5C1241.2 263.3 1241.2 264 1241.2 264.7C1248.4 264.7 1255.2 264.7 1262.1 264.7C1262.2 264.3 1262.3 264 1262.3 263.7C1262.3 248.8 1262.3 233.9 1262.3 218.9C1262.3 218.2 1261.9 217.3 1261.4 216.9C1258.3 214.4 1255.1 212 1251.8 209.5Z" fill="#15BEE6"/>
<path d="M1342.1 101.9C1342.1 102.8 1342.1 103.8 1342.1 104.7C1342 106.7 1340.6 108.1 1338.9 108.1C1337 108 1335.5 106.9 1335.6 105.1C1335.9 102.1 1334.5 101.2 1332 100.3C1327.9 98.8 1325.3 95.7 1323.9 91.6C1323.1 89.2 1323.8 87.3 1325.7 86.7C1327.7 86 1329.3 87 1330.1 89.4C1332.1 94.9 1340.3 97.3 1345 93.7C1347.3 92 1347.7 89.3 1345.6 87.4C1344.1 86.1 1342 85.4 1340 84.7C1337.6 83.9 1335 83.8 1332.7 82.8C1328.1 80.9 1325.1 77.6 1325.2 72.4C1325.3 67.2 1328.2 63.6 1333 61.9C1335 61.1 1335.6 60.2 1335.5 58.2C1335.4 55.8 1336.7 54.4 1338.7 54.3C1340.8 54.3 1342 55.7 1342.1 58.2C1342.1 59 1342.1 59.8 1342.1 60.7C1342.7 60.9 1343.2 61.2 1343.8 61.4C1348.3 63.1 1351.3 66.2 1353.1 70.6C1353.9 72.5 1353.4 74 1351.6 75C1350 75.9 1348.1 75.1 1347.1 73.2C1346.6 72.2 1346.1 71.2 1345.5 70.3C1342.8 66.8 1337.8 66 1334.3 68.5C1331.1 70.7 1331.2 74.4 1334.6 76.1C1336.5 77.1 1338.8 77.4 1340.9 77.8C1344.2 78.4 1347.3 79.3 1349.9 81.7C1356 87.5 1354.6 96.5 1347 100.1C1345.5 100.9 1343.9 101.3 1342.1 101.9Z" fill="#15BEE6"/>
</g>
<mask id="mask1_4_2374" style="mask-type:luminance" maskUnits="userSpaceOnUse" x="0" y="0" width="1521" height="255">
<path d="M1521 0H0V255H1521V0Z" fill="white"/>
</mask>
<g mask="url(#mask1_4_2374)">
<path d="M589.8 65C625.7 65 654.8 35.9 654.8 0H524.8C524.8 35.9 553.9 65 589.8 65Z" fill="#F2FCFF"/>
</g>
<mask id="mask2_4_2374" style="mask-type:luminance" maskUnits="userSpaceOnUse" x="0" y="0" width="1521" height="255">
<path d="M1521 0H0V255H1521V0Z" fill="white"/>
</mask>
<g mask="url(#mask2_4_2374)">
<path d="M1163.8 214.2C1141.3 214.2 1123 232.5 1123 255H1204.6C1204.6 232.5 1186.3 214.2 1163.8 214.2Z" fill="#F2FCFF"/>
</g>
<mask id="mask3_4_2374" style="mask-type:luminance" maskUnits="userSpaceOnUse" x="0" y="0" width="1521" height="255">
<path d="M1521 0H0V255H1521V0Z" fill="white"/>
</mask>
<g mask="url(#mask3_4_2374)">
<path d="M56.9999 64.7C65.0633 64.7 71.5999 58.1634 71.5999 50.1C71.5999 42.0366 65.0633 35.5 56.9999 35.5C48.9365 35.5 42.3999 42.0366 42.3999 50.1C42.3999 58.1634 48.9365 64.7 56.9999 64.7Z" fill="#F9FEFA"/>
</g>
<mask id="mask4_4_2374" style="mask-type:luminance" maskUnits="userSpaceOnUse" x="0" y="0" width="1521" height="255">
<path d="M1521 0H0V255H1521V0Z" fill="white"/>
</mask>
<g mask="url(#mask4_4_2374)">
<path d="M1242.7 70.6L1233.7 64L1240.3 55L1235.8 51.7L1229.2 60.7L1220.4 54.3L1217.1 58.8L1225.9 65.2L1219.4 74L1223.9 77.3L1230.4 68.5L1239.4 75.1L1242.7 70.6Z" fill="#D4F6FF"/>
</g>
<mask id="mask5_4_2374" style="mask-type:luminance" maskUnits="userSpaceOnUse" x="0" y="0" width="1521" height="255">
<path d="M1521 0H0V255H1521V0Z" fill="white"/>
</mask>
<g mask="url(#mask5_4_2374)">
<path d="M80.3999 99.2C80.0999 98.3 79.7999 97.5 79.2999 96.8C78.7999 96.1 78.2999 95.5 77.5999 95C76.8999 94.5 76.1999 94.1 75.3999 93.9C74.5999 93.7 73.5999 93.5 72.5999 93.5C70.7999 93.5 69.1999 93.9 67.7999 94.8C66.3999 95.7 65.2999 97 64.4999 98.8C63.6999 100.5 63.2999 102.6 63.2999 105.1C63.2999 107.6 63.6999 109.7 64.4999 111.5C65.2999 113.2 66.3999 114.6 67.7999 115.5C69.1999 116.4 70.7999 116.9 72.6999 116.9C74.3999 116.9 75.7999 116.6 77.0999 115.9C78.2999 115.3 79.2999 114.3 79.9999 113.1C80.6999 111.9 80.9999 110.5 80.9999 108.9L82.3999 109.1H73.3999V104.4H86.8999V108.4C86.8999 111.2 86.2999 113.7 85.0999 115.8C83.8999 117.9 82.1999 119.5 80.0999 120.6C77.9999 121.7 75.4999 122.3 72.7999 122.3C69.6999 122.3 67.0999 121.6 64.6999 120.2C62.3999 118.8 60.5999 116.9 59.2999 114.3C57.9999 111.8 57.3999 108.7 57.3999 105.2C57.3999 102.5 57.7999 100.1 58.4999 98C59.2999 95.9 60.2999 94.1 61.6999 92.6C63.0999 91.1 64.6999 90 66.4999 89.2C68.2999 88.4 70.3999 88 72.4999 88C74.2999 88 76.0999 88.3 77.5999 88.8C79.1999 89.3 80.5999 90.1 81.7999 91.1C82.9999 92.1 84.0999 93.3 84.8999 94.6C85.6999 95.9 86.1999 97.4 86.4999 99.1H80.3999V99.2Z" fill="#77809C"/>
<path d="M91.8999 121.8V96.9H97.5999V101.1H97.8999C98.3999 99.7 99.0999 98.6 100.2 97.8C101.3 97 102.6 96.6 104 96.6C104.3 96.6 104.7 96.6 105.1 96.6C105.5 96.6 105.8 96.7 106.1 96.7V102.1C105.9 102 105.5 101.9 104.9 101.9C104.3 101.9 103.8 101.8 103.4 101.8C102.3 101.8 101.4 102 100.5 102.5C99.5999 103 98.9999 103.6 98.4999 104.4C97.9999 105.2 97.7999 106.1 97.7999 107.2V121.8H91.8999Z" fill="#77809C"/>
<path d="M120.6 122.3C118.1 122.3 115.9 121.8 114.1 120.7C112.3 119.7 110.9 118.2 109.9 116.3C108.9 114.4 108.4 112.1 108.4 109.5C108.4 106.9 108.9 104.7 109.9 102.7C110.9 100.8 112.2 99.2 114 98.2C115.8 97.2 117.8 96.6 120.2 96.6C121.7 96.6 123.2 96.8 124.6 97.3C126 97.8 127.2 98.6 128.2 99.6C129.3 100.6 130.1 101.9 130.7 103.5C131.3 105.1 131.6 107 131.6 109.2V111H111.2V107H126C126 105.9 125.7 104.9 125.3 104C124.8 103.1 124.2 102.4 123.3 101.9C122.5 101.4 121.5 101.1 120.3 101.1C119.1 101.1 118 101.4 117.1 102C116.2 102.6 115.5 103.3 115 104.3C114.5 105.3 114.2 106.3 114.2 107.4V110.9C114.2 112.3 114.5 113.6 115 114.6C115.5 115.6 116.3 116.4 117.2 117C118.2 117.5 119.3 117.8 120.5 117.8C121.4 117.8 122.1 117.7 122.8 117.4C123.5 117.2 124.1 116.8 124.6 116.3C125.1 115.8 125.5 115.2 125.8 114.5L131.3 115.1C131 116.5 130.3 117.8 129.3 118.9C128.3 120 127.1 120.8 125.6 121.4C124.3 122 122.6 122.3 120.6 122.3Z" fill="#77809C"/>
<path d="M147.3 122.3C144.8 122.3 142.6 121.8 140.8 120.7C139 119.7 137.6 118.2 136.6 116.3C135.6 114.4 135.1 112.1 135.1 109.5C135.1 106.9 135.6 104.7 136.6 102.7C137.6 100.8 138.9 99.2 140.7 98.2C142.5 97.2 144.5 96.6 146.9 96.6C148.4 96.6 149.9 96.8 151.3 97.3C152.7 97.8 153.9 98.6 154.9 99.6C156 100.6 156.8 101.9 157.4 103.5C158 105.1 158.3 107 158.3 109.2V111H137.9V107H152.7C152.7 105.9 152.4 104.9 152 104C151.5 103.1 150.9 102.4 150 101.9C149.2 101.4 148.2 101.1 147 101.1C145.8 101.1 144.7 101.4 143.8 102C142.9 102.6 142.2 103.3 141.7 104.3C141.2 105.3 140.9 106.3 140.9 107.4V110.9C140.9 112.3 141.2 113.6 141.7 114.6C142.2 115.6 143 116.4 143.9 117C144.9 117.5 146 117.8 147.2 117.8C148.1 117.8 148.8 117.7 149.5 117.4C150.2 117.2 150.8 116.8 151.3 116.3C151.8 115.8 152.2 115.2 152.5 114.5L158 115.1C157.7 116.5 157 117.8 156 118.9C155 120 153.8 120.8 152.3 121.4C150.9 122 149.2 122.3 147.3 122.3Z" fill="#77809C"/>
<path d="M168.7 107.2V121.8H162.8V96.9H168.4V101.1H168.7C169.3 99.7 170.2 98.6 171.4 97.8C172.7 97 174.2 96.6 176.1 96.6C177.8 96.6 179.3 97 180.6 97.7C181.9 98.4 182.9 99.5 183.6 100.9C184.3 102.3 184.7 104 184.6 106V121.9H178.7V106.9C178.7 105.2 178.3 103.9 177.4 103C176.5 102.1 175.4 101.6 173.8 101.6C172.8 101.6 171.9 101.8 171.1 102.3C170.3 102.7 169.7 103.4 169.2 104.2C168.7 105 168.7 106 168.7 107.2Z" fill="#77809C"/>
<path d="M213.7 96.9V101.4H199V96.9H213.7ZM202.7 121.8V94.5C202.7 92.8 203 91.4 203.7 90.3C204.4 89.2 205.3 88.4 206.5 87.8C207.7 87.2 209 87 210.4 87C211.4 87 212.3 87.1 213.1 87.2C213.9 87.4 214.5 87.5 214.9 87.6L213.7 92.1C213.5 92 213.1 91.9 212.8 91.9C212.5 91.9 212 91.8 211.5 91.8C210.4 91.8 209.6 92.1 209.2 92.6C208.8 93.1 208.5 93.9 208.5 94.8V121.7H202.7V121.8Z" fill="#77809C"/>
<path d="M220.8 93.3C219.9 93.3 219.1 93 218.4 92.4C217.7 91.8 217.4 91 217.4 90.1C217.4 89.2 217.7 88.5 218.4 87.9C219.1 87.3 219.9 87 220.8 87C221.7 87 222.5 87.3 223.2 87.9C223.9 88.5 224.2 89.3 224.2 90.2C224.2 91.1 223.9 91.8 223.2 92.4C222.6 93 221.8 93.3 220.8 93.3ZM217.9 121.8V96.9H223.8V121.8H217.9Z" fill="#77809C"/>
<path d="M240.4 122.3C237.9 122.3 235.7 121.8 233.9 120.7C232.1 119.7 230.7 118.2 229.7 116.3C228.7 114.4 228.2 112.1 228.2 109.5C228.2 106.9 228.7 104.7 229.7 102.7C230.7 100.8 232 99.2 233.8 98.2C235.6 97.2 237.6 96.6 240 96.6C241.5 96.6 243 96.8 244.4 97.3C245.8 97.8 247 98.6 248 99.6C249.1 100.6 249.9 101.9 250.5 103.5C251.1 105.1 251.4 107 251.4 109.2V111H231V107H245.8C245.8 105.9 245.5 104.9 245.1 104C244.6 103.1 244 102.4 243.1 101.9C242.3 101.4 241.3 101.1 240.1 101.1C238.9 101.1 237.8 101.4 236.9 102C236 102.6 235.3 103.3 234.8 104.3C234.3 105.3 234 106.3 234 107.4V110.9C234 112.3 234.3 113.6 234.8 114.6C235.3 115.6 236.1 116.4 237 117C238 117.5 239.1 117.8 240.3 117.8C241.2 117.8 241.9 117.7 242.6 117.4C243.3 117.2 243.9 116.8 244.4 116.3C244.9 115.8 245.3 115.2 245.6 114.5L251.1 115.1C250.8 116.5 250.1 117.8 249.1 118.9C248.1 120 246.9 120.8 245.4 121.4C244 122 242.3 122.3 240.4 122.3Z" fill="#77809C"/>
<path d="M261.8 88.6V121.8H256V88.6H261.8Z" fill="#77809C"/>
<path d="M276.6 122.2C274.6 122.2 272.9 121.7 271.3 120.7C269.8 119.7 268.5 118.2 267.6 116.3C266.7 114.4 266.3 112.1 266.3 109.3C266.3 106.5 266.8 104.2 267.7 102.3C268.6 100.4 269.8 98.9 271.4 98C273 97 274.7 96.5 276.6 96.5C278.1 96.5 279.3 96.7 280.2 97.2C281.1 97.7 281.9 98.3 282.4 99C283 99.7 283.4 100.3 283.7 100.9H283.9V88.6H289.8V121.8H284V117.9H283.6C283.3 118.5 282.9 119.1 282.3 119.8C281.7 120.5 281 121.1 280 121.5C279.3 122 278.1 122.2 276.6 122.2ZM278.3 117.4C279.5 117.4 280.6 117.1 281.5 116.4C282.4 115.7 283 114.8 283.5 113.6C284 112.4 284.2 111 284.2 109.4C284.2 107.8 284 106.4 283.5 105.2C283 104 282.4 103.1 281.5 102.4C280.6 101.7 279.6 101.4 278.3 101.4C277 101.4 275.9 101.7 275 102.4C274.1 103.1 273.5 104 273 105.2C272.5 106.4 272.3 107.8 272.3 109.3C272.3 110.9 272.5 112.2 273 113.5C273.4 114.7 274.1 115.7 275 116.4C275.9 117.1 277 117.4 278.3 117.4Z" fill="#77809C"/>
<path d="M306.6 131.1V96.9H312.4V101H312.7C313 100.4 313.4 99.7 314 99.1C314.6 98.4 315.3 97.8 316.2 97.3C317.1 96.8 318.3 96.6 319.8 96.6C321.7 96.6 323.5 97.1 325 98.1C326.5 99.1 327.8 100.5 328.7 102.4C329.6 104.3 330.1 106.6 330.1 109.4C330.1 112.1 329.7 114.5 328.8 116.4C327.9 118.3 326.7 119.8 325.1 120.8C323.5 121.8 321.8 122.3 319.8 122.3C318.4 122.3 317.2 122.1 316.2 121.6C315.3 121.1 314.5 120.5 313.9 119.9C313.3 119.2 312.9 118.6 312.6 118H312.4V131.3H306.6V131.1ZM312.4 109.3C312.4 110.9 312.6 112.3 313.1 113.5C313.6 114.7 314.2 115.7 315.1 116.3C316 116.9 317 117.3 318.3 117.3C319.6 117.3 320.7 117 321.6 116.3C322.5 115.6 323.1 114.6 323.6 113.4C324 112.2 324.3 110.8 324.3 109.2C324.3 107.7 324.1 106.3 323.6 105.1C323.2 103.9 322.5 103 321.6 102.3C320.7 101.6 319.6 101.3 318.3 101.3C317 101.3 316 101.6 315.1 102.3C314.2 103 313.6 103.9 313.1 105.1C312.6 106.3 312.4 107.7 312.4 109.3Z" fill="#77809C"/>
<path d="M334.7 121.8V96.9H340.4V101.1H340.7C341.2 99.7 341.9 98.6 343 97.8C344.1 97 345.4 96.6 346.8 96.6C347.1 96.6 347.5 96.6 347.9 96.6C348.3 96.6 348.6 96.7 348.9 96.7V102.1C348.7 102 348.3 101.9 347.7 101.9C347.1 101.9 346.6 101.8 346.2 101.8C345.1 101.8 344.2 102 343.3 102.5C342.4 103 341.8 103.6 341.3 104.4C340.8 105.2 340.6 106.1 340.6 107.2V121.8H334.7Z" fill="#77809C"/>
<path d="M363.2 122.3C360.8 122.3 358.7 121.8 356.9 120.7C355.1 119.6 353.7 118.1 352.8 116.2C351.8 114.3 351.3 112 351.3 109.5C351.3 106.9 351.8 104.7 352.8 102.7C353.8 100.8 355.2 99.3 356.9 98.2C358.7 97.1 360.8 96.6 363.2 96.6C365.6 96.6 367.7 97.1 369.5 98.2C371.3 99.3 372.7 100.8 373.6 102.7C374.6 104.6 375.1 106.9 375.1 109.5C375.1 112.1 374.6 114.3 373.6 116.2C372.6 118.1 371.2 119.6 369.5 120.7C367.8 121.7 365.7 122.3 363.2 122.3ZM363.3 117.6C364.6 117.6 365.7 117.2 366.6 116.5C367.5 115.8 368.1 114.8 368.6 113.6C369 112.4 369.3 111 369.3 109.5C369.3 108 369.1 106.6 368.6 105.4C368.1 104.2 367.5 103.2 366.6 102.4C365.7 101.7 364.6 101.3 363.3 101.3C361.9 101.3 360.8 101.7 359.9 102.4C359 103.1 358.3 104.1 357.9 105.4C357.5 106.7 357.2 108 357.2 109.5C357.2 111 357.4 112.4 357.9 113.6C358.3 114.8 359 115.8 359.9 116.5C360.8 117.2 361.9 117.6 363.3 117.6Z" fill="#77809C"/>
<path d="M379.7 96.9H385.6V123.2C385.6 125 385.3 126.5 384.6 127.6C383.9 128.8 382.9 129.6 381.6 130.2C380.3 130.8 378.8 131.1 376.9 131.1C376.7 131.1 376.5 131.1 376.3 131.1C376.1 131.1 375.9 131.1 375.7 131.1V126.3C375.9 126.3 376 126.3 376.1 126.3C376.2 126.3 376.4 126.3 376.5 126.3C377.6 126.3 378.4 126 378.9 125.5C379.4 125 379.6 124.2 379.6 123.1V96.9H379.7ZM382.6 93.3C381.7 93.3 380.9 93 380.2 92.4C379.5 91.8 379.2 91 379.2 90.2C379.2 89.3 379.5 88.6 380.2 87.9C380.9 87.2 381.7 87 382.6 87C383.5 87 384.3 87.3 385 87.9C385.7 88.5 386 89.3 386 90.2C386 91.1 385.7 91.8 385 92.4C384.3 93 383.5 93.3 382.6 93.3Z" fill="#77809C"/>
<path d="M402.2 122.3C399.7 122.3 397.5 121.8 395.7 120.7C393.9 119.7 392.5 118.2 391.5 116.3C390.5 114.4 390 112.1 390 109.5C390 106.9 390.5 104.7 391.5 102.7C392.5 100.8 393.8 99.2 395.6 98.2C397.4 97.2 399.4 96.6 401.8 96.6C403.3 96.6 404.8 96.8 406.2 97.3C407.6 97.8 408.8 98.6 409.8 99.6C410.9 100.6 411.7 101.9 412.3 103.5C412.9 105.1 413.2 107 413.2 109.2V111H392.8V107H407.6C407.6 105.9 407.3 104.9 406.9 104C406.4 103.1 405.8 102.4 404.9 101.9C404.1 101.4 403.1 101.1 401.9 101.1C400.7 101.1 399.6 101.4 398.7 102C397.8 102.6 397.1 103.3 396.6 104.3C396.1 105.3 395.8 106.3 395.8 107.4V110.9C395.8 112.3 396.1 113.6 396.6 114.6C397.1 115.6 397.9 116.4 398.8 117C399.8 117.5 400.9 117.8 402.1 117.8C403 117.8 403.7 117.7 404.4 117.4C405.1 117.2 405.7 116.8 406.2 116.3C406.7 115.8 407.1 115.2 407.4 114.5L412.9 115.1C412.6 116.5 411.9 117.8 410.9 118.9C409.9 120 408.7 120.8 407.2 121.4C405.8 122 404.1 122.3 402.2 122.3Z" fill="#77809C"/>
<path d="M428.6 122.3C426.1 122.3 424 121.8 422.2 120.7C420.4 119.6 419.1 118.1 418.1 116.2C417.1 114.3 416.7 112 416.7 109.5C416.7 107 417.2 104.7 418.2 102.8C419.2 100.9 420.5 99.3 422.3 98.3C424.1 97.3 426.2 96.7 428.6 96.7C430.6 96.7 432.4 97.1 434 97.8C435.6 98.5 436.8 99.6 437.7 100.9C438.6 102.2 439.2 103.8 439.3 105.6H433.7C433.5 104.4 432.9 103.4 432.1 102.6C431.3 101.8 430.1 101.4 428.7 101.4C427.5 101.4 426.4 101.7 425.5 102.4C424.6 103 423.9 104 423.4 105.2C422.9 106.4 422.6 107.8 422.6 109.5C422.6 111.2 422.8 112.7 423.3 113.9C423.8 115.1 424.5 116.1 425.4 116.7C426.3 117.3 427.4 117.7 428.6 117.7C429.5 117.7 430.2 117.5 430.9 117.2C431.6 116.9 432.2 116.4 432.6 115.8C433.1 115.2 433.4 114.4 433.6 113.5H439.2C439.1 115.3 438.5 116.8 437.6 118.2C436.7 119.6 435.5 120.6 433.9 121.4C432.5 121.9 430.7 122.3 428.6 122.3Z" fill="#77809C"/>
<path d="M456.1 96.9V101.4H441.8V96.9H456.1ZM445.3 90.9H451.2V114.3C451.2 115.1 451.3 115.7 451.6 116.1C451.8 116.5 452.2 116.8 452.6 117C453 117.2 453.4 117.2 453.9 117.2C454.3 117.2 454.6 117.2 454.9 117.1C455.2 117 455.4 117 455.6 117L456.6 121.6C456.3 121.7 455.8 121.8 455.3 122C454.7 122.1 454 122.2 453.2 122.2C451.7 122.2 450.4 122 449.2 121.5C448 121 447.1 120.2 446.4 119.2C445.7 118.2 445.4 116.9 445.4 115.3V90.9H445.3Z" fill="#77809C"/>
<path d="M480.2 103.5L474.8 104.1C474.6 103.6 474.4 103.1 474 102.6C473.6 102.1 473.1 101.7 472.5 101.4C471.9 101.1 471.1 101 470.2 101C469 101 468 101.3 467.1 101.8C466.3 102.3 465.9 103 465.9 103.9C465.9 104.6 466.2 105.2 466.7 105.7C467.2 106.2 468.2 106.5 469.4 106.8L473.6 107.7C476 108.2 477.7 109 478.9 110.1C480.1 111.2 480.6 112.6 480.6 114.4C480.6 116 480.1 117.4 479.2 118.5C478.3 119.7 477 120.6 475.4 121.3C473.8 122 472 122.3 469.9 122.3C466.9 122.3 464.4 121.7 462.5 120.4C460.6 119.1 459.5 117.3 459.2 115L464.9 114.4C465.2 115.5 465.7 116.4 466.6 116.9C467.5 117.4 468.5 117.8 469.9 117.8C471.3 117.8 472.4 117.5 473.3 116.9C474.1 116.3 474.6 115.6 474.6 114.8C474.6 114.1 474.3 113.5 473.8 113C473.3 112.5 472.4 112.2 471.3 111.9L467 111C464.6 110.5 462.8 109.7 461.7 108.5C460.6 107.3 460 105.8 460 104C460 102.5 460.4 101.1 461.3 100C462.2 98.9 463.3 98 464.9 97.4C466.4 96.8 468.2 96.5 470.2 96.5C473.1 96.5 475.4 97.1 477.1 98.4C478.8 99.7 479.8 101.3 480.2 103.5Z" fill="#77809C"/>
<path d="M503.2 122.3C501.6 122.3 500.2 122 498.9 121.4C497.6 120.8 496.6 120 495.9 118.9C495.2 117.8 494.8 116.4 494.8 114.8C494.8 113.4 495.1 112.2 495.6 111.3C496.1 110.4 496.8 109.6 497.7 109.1C498.6 108.5 499.6 108.1 500.7 107.8C501.8 107.5 503 107.3 504.2 107.2C505.7 107 506.8 106.9 507.8 106.8C508.8 106.7 509.4 106.5 509.8 106.2C510.2 105.9 510.4 105.5 510.4 105V104.9C510.4 103.7 510 102.7 509.3 102.1C508.6 101.4 507.5 101.1 506.2 101.1C504.8 101.1 503.6 101.4 502.8 102C502 102.6 501.4 103.4 501.1 104.2L495.6 103.4C496 101.9 496.7 100.6 497.7 99.6C498.7 98.6 499.9 97.8 501.3 97.3C502.7 96.8 504.3 96.5 506.1 96.5C507.3 96.5 508.5 96.6 509.7 96.9C510.9 97.2 512 97.6 513 98.3C514 99 514.8 99.8 515.4 100.9C516 102 516.3 103.4 516.3 105V121.7H510.7V118.3H510.5C510.1 119 509.6 119.6 509 120.2C508.4 120.8 507.6 121.3 506.6 121.6C505.7 122.1 504.5 122.3 503.2 122.3ZM504.8 118C506 118 507 117.8 507.9 117.3C508.8 116.8 509.4 116.2 509.9 115.4C510.4 114.6 510.6 113.8 510.6 112.9V110C510.4 110.2 510.1 110.3 509.7 110.4C509.3 110.5 508.8 110.6 508.2 110.7C507.7 110.8 507.1 110.9 506.6 111C506.1 111.1 505.6 111.1 505.2 111.2C504.3 111.3 503.5 111.5 502.8 111.8C502.1 112.1 501.6 112.4 501.2 112.9C500.8 113.4 500.6 114 500.6 114.8C500.6 115.9 501 116.7 501.8 117.2C502.5 117.7 503.5 118 504.8 118Z" fill="#77809C"/>
<path d="M527.7 107.2V121.8H521.8V96.9H527.4V101.1H527.7C528.3 99.7 529.2 98.6 530.4 97.8C531.7 97 533.2 96.6 535.1 96.6C536.8 96.6 538.3 97 539.6 97.7C540.9 98.4 541.9 99.5 542.6 100.9C543.3 102.3 543.7 104 543.6 106V121.9H537.7V106.9C537.7 105.2 537.3 103.9 536.4 103C535.5 102.1 534.4 101.6 532.8 101.6C531.8 101.6 530.9 101.8 530.1 102.3C529.3 102.7 528.7 103.4 528.2 104.2C527.7 105 527.7 106 527.7 107.2Z" fill="#77809C"/>
<path d="M555.1 107.2V121.8H549.2V96.9H554.8V101.1H555.1C555.7 99.7 556.6 98.6 557.8 97.8C559.1 97 560.6 96.6 562.5 96.6C564.2 96.6 565.7 97 567 97.7C568.3 98.4 569.3 99.5 570 100.9C570.7 102.3 571.1 104 571 106V121.9H565.1V106.9C565.1 105.2 564.7 103.9 563.8 103C562.9 102.1 561.8 101.6 560.2 101.6C559.2 101.6 558.3 101.8 557.5 102.3C556.7 102.7 556.1 103.4 555.6 104.2C555.1 105 555.1 106 555.1 107.2Z" fill="#77809C"/>
<path d="M587.5 122.3C585.1 122.3 583 121.8 581.2 120.7C579.4 119.6 578 118.1 577.1 116.2C576.1 114.3 575.6 112 575.6 109.5C575.6 106.9 576.1 104.7 577.1 102.7C578.1 100.8 579.5 99.3 581.2 98.2C583 97.1 585.1 96.6 587.5 96.6C589.9 96.6 592 97.1 593.8 98.2C595.6 99.3 597 100.8 597.9 102.7C598.9 104.6 599.4 106.9 599.4 109.5C599.4 112.1 598.9 114.3 597.9 116.2C596.9 118.1 595.5 119.6 593.8 120.7C592 121.7 589.9 122.3 587.5 122.3ZM587.5 117.6C588.8 117.6 589.9 117.2 590.8 116.5C591.7 115.8 592.3 114.8 592.8 113.6C593.2 112.4 593.5 111 593.5 109.5C593.5 108 593.3 106.6 592.8 105.4C592.3 104.2 591.7 103.2 590.8 102.4C589.9 101.7 588.8 101.3 587.5 101.3C586.1 101.3 585 101.7 584.1 102.4C583.2 103.1 582.5 104.1 582.1 105.4C581.7 106.7 581.4 108 581.4 109.5C581.4 111 581.6 112.4 582.1 113.6C582.5 114.8 583.2 115.8 584.1 116.5C585.1 117.2 586.2 117.6 587.5 117.6Z" fill="#77809C"/>
<path d="M619.8 111.3V96.9H625.7V121.8H620V117.4H619.7C619.1 118.8 618.2 119.9 616.9 120.8C615.6 121.7 614 122.1 612.2 122.1C610.6 122.1 609.1 121.7 607.9 121C606.7 120.3 605.7 119.2 605 117.8C604.3 116.4 603.9 114.7 603.9 112.7V96.9H609.8V111.9C609.8 113.5 610.2 114.7 611.1 115.7C612 116.6 613.1 117.1 614.5 117.1C615.4 117.1 616.2 116.9 617 116.5C617.8 116.1 618.5 115.4 619 114.6C619.6 113.6 619.8 112.6 619.8 111.3Z" fill="#77809C"/>
<path d="M637.2 107.2V121.8H631.3V96.9H636.9V101.1H637.2C637.8 99.7 638.7 98.6 639.9 97.8C641.2 97 642.7 96.6 644.6 96.6C646.3 96.6 647.8 97 649.1 97.7C650.4 98.4 651.4 99.5 652.1 100.9C652.8 102.3 653.2 104 653.1 106V121.9H647.2V106.9C647.2 105.2 646.8 103.9 645.9 103C645 102.1 643.9 101.6 642.3 101.6C641.3 101.6 640.4 101.8 639.6 102.3C638.8 102.7 638.2 103.4 637.7 104.2C637.2 105 637.2 106 637.2 107.2Z" fill="#77809C"/>
<path d="M669.5 122.3C667 122.3 664.9 121.8 663.1 120.7C661.3 119.6 660 118.1 659 116.2C658 114.3 657.6 112 657.6 109.5C657.6 107 658.1 104.7 659.1 102.8C660.1 100.9 661.4 99.3 663.2 98.3C665 97.3 667.1 96.7 669.5 96.7C671.5 96.7 673.3 97.1 674.9 97.8C676.5 98.5 677.7 99.6 678.6 100.9C679.5 102.2 680.1 103.8 680.2 105.6H674.6C674.4 104.4 673.8 103.4 673 102.6C672.2 101.8 671 101.4 669.6 101.4C668.4 101.4 667.3 101.7 666.4 102.4C665.5 103 664.8 104 664.3 105.2C663.8 106.4 663.5 107.8 663.5 109.5C663.5 111.2 663.7 112.7 664.2 113.9C664.7 115.1 665.4 116.1 666.3 116.7C667.2 117.3 668.3 117.7 669.5 117.7C670.4 117.7 671.1 117.5 671.8 117.2C672.5 116.9 673.1 116.4 673.5 115.8C674 115.2 674.3 114.4 674.5 113.5H680.1C680 115.3 679.4 116.8 678.5 118.2C677.6 119.6 676.4 120.6 674.8 121.4C673.5 121.9 671.6 122.3 669.5 122.3Z" fill="#77809C"/>
<path d="M695.6 122.3C693.1 122.3 690.9 121.8 689.1 120.7C687.3 119.7 685.9 118.2 684.9 116.3C683.9 114.4 683.4 112.1 683.4 109.5C683.4 106.9 683.9 104.7 684.9 102.7C685.9 100.8 687.2 99.2 689 98.2C690.8 97.2 692.8 96.6 695.2 96.6C696.7 96.6 698.2 96.8 699.6 97.3C701 97.8 702.2 98.6 703.2 99.6C704.3 100.6 705.1 101.9 705.7 103.5C706.3 105.1 706.6 107 706.6 109.2V111H686.2V107H701C701 105.9 700.7 104.9 700.3 104C699.8 103.1 699.2 102.4 698.3 101.9C697.5 101.4 696.5 101.1 695.3 101.1C694.1 101.1 693 101.4 692.1 102C691.2 102.6 690.5 103.3 690 104.3C689.5 105.3 689.2 106.3 689.2 107.4V110.9C689.2 112.3 689.5 113.6 690 114.6C690.5 115.6 691.3 116.4 692.2 117C693.2 117.5 694.3 117.8 695.5 117.8C696.4 117.8 697.1 117.7 697.8 117.4C698.5 117.2 699.1 116.8 699.6 116.3C700.1 115.8 700.5 115.2 700.8 114.5L706.3 115.1C706 116.5 705.3 117.8 704.3 118.9C703.3 120 702.1 120.8 700.6 121.4C699.3 122 697.6 122.3 695.6 122.3Z" fill="#77809C"/>
<path d="M711.2 121.8V96.9H716.8V101.1H717.1C717.6 99.7 718.5 98.6 719.7 97.8C720.9 97 722.3 96.6 724 96.6C725.7 96.6 727.1 97 728.3 97.8C729.5 98.6 730.3 99.7 730.8 101.1H731.1C731.7 99.7 732.6 98.6 733.9 97.8C735.2 97 736.8 96.6 738.6 96.6C740.9 96.6 742.8 97.3 744.2 98.8C745.6 100.2 746.4 102.4 746.4 105.1V121.8H740.5V106C740.5 104.5 740.1 103.3 739.3 102.6C738.5 101.9 737.5 101.5 736.3 101.5C734.9 101.5 733.8 101.9 733 102.8C732.2 103.7 731.8 104.8 731.8 106.2V121.7H726V105.6C726 104.3 725.6 103.3 724.8 102.5C724 101.7 723 101.3 721.8 101.3C721 101.3 720.2 101.5 719.5 101.9C718.8 102.3 718.3 102.9 717.8 103.7C717.4 104.5 717.2 105.4 717.2 106.4V121.6H711.2V121.8Z" fill="#77809C"/>
<path d="M762.8 122.3C760.3 122.3 758.1 121.8 756.3 120.7C754.5 119.7 753.1 118.2 752.1 116.3C751.1 114.4 750.6 112.1 750.6 109.5C750.6 106.9 751.1 104.7 752.1 102.7C753.1 100.8 754.4 99.2 756.2 98.2C758 97.2 760 96.6 762.4 96.6C763.9 96.6 765.4 96.8 766.8 97.3C768.2 97.8 769.4 98.6 770.4 99.6C771.5 100.6 772.3 101.9 772.9 103.5C773.5 105.1 773.8 107 773.8 109.2V111H753.4V107H768.2C768.2 105.9 767.9 104.9 767.5 104C767 103.1 766.4 102.4 765.5 101.9C764.7 101.4 763.7 101.1 762.5 101.1C761.3 101.1 760.2 101.4 759.3 102C758.4 102.6 757.7 103.3 757.2 104.3C756.7 105.3 756.4 106.3 756.4 107.4V110.9C756.4 112.3 756.7 113.6 757.2 114.6C757.7 115.6 758.5 116.4 759.4 117C760.4 117.5 761.5 117.8 762.7 117.8C763.6 117.8 764.3 117.7 765 117.4C765.7 117.2 766.3 116.8 766.8 116.3C767.3 115.8 767.7 115.2 768 114.5L773.5 115.1C773.2 116.5 772.5 117.8 771.5 118.9C770.5 120 769.3 120.8 767.8 121.4C766.5 122 764.7 122.3 762.8 122.3Z" fill="#77809C"/>
<path d="M784.3 107.2V121.8H778.4V96.9H784V101.1H784.3C784.9 99.7 785.8 98.6 787 97.8C788.3 97 789.8 96.6 791.7 96.6C793.4 96.6 794.9 97 796.2 97.7C797.5 98.4 798.5 99.5 799.2 100.9C799.9 102.3 800.3 104 800.2 106V121.9H794.3V106.9C794.3 105.2 793.9 103.9 793 103C792.1 102.1 791 101.6 789.4 101.6C788.4 101.6 787.5 101.8 786.7 102.3C785.9 102.7 785.3 103.4 784.8 104.2C784.3 105 784.3 106 784.3 107.2Z" fill="#77809C"/>
<path d="M818.2 96.9V101.4H803.9V96.9H818.2ZM807.4 90.9H813.3V114.3C813.3 115.1 813.4 115.7 813.7 116.1C813.9 116.5 814.3 116.8 814.7 117C815.1 117.2 815.5 117.2 816 117.2C816.4 117.2 816.7 117.2 817 117.1C817.3 117 817.5 117 817.7 117L818.7 121.6C818.4 121.7 817.9 121.8 817.4 122C816.8 122.1 816.1 122.2 815.3 122.2C813.8 122.2 812.5 122 811.3 121.5C810.1 121 809.2 120.2 808.5 119.2C807.8 118.2 807.5 116.9 807.5 115.3V90.9H807.4Z" fill="#77809C"/>
<path d="M842.4 103.5L837 104C836.8 103.5 836.6 103 836.2 102.5C835.8 102 835.3 101.6 834.7 101.3C834.1 101 833.3 100.9 832.4 100.9C831.2 100.9 830.2 101.2 829.3 101.7C828.5 102.2 828.1 102.9 828.1 103.8C828.1 104.5 828.4 105.1 828.9 105.6C829.4 106.1 830.4 106.4 831.6 106.7L835.8 107.6C838.2 108.1 839.9 108.9 841.1 110C842.3 111.1 842.8 112.5 842.8 114.3C842.8 115.9 842.3 117.3 841.4 118.4C840.5 119.6 839.2 120.5 837.6 121.2C836 121.9 834.2 122.2 832.1 122.2C829.1 122.2 826.6 121.6 824.7 120.3C822.8 119 821.7 117.2 821.4 114.9L827.1 114.3C827.4 115.4 827.9 116.3 828.8 116.8C829.7 117.3 830.7 117.7 832.1 117.7C833.5 117.7 834.6 117.4 835.5 116.8C836.3 116.2 836.8 115.5 836.8 114.7C836.8 114 836.5 113.4 836 112.9C835.5 112.4 834.6 112.1 833.5 111.8L829.2 110.9C826.8 110.4 825 109.6 823.9 108.4C822.8 107.2 822.2 105.7 822.2 103.9C822.2 102.4 822.6 101 823.5 99.9C824.4 98.8 825.5 97.9 827.1 97.3C828.6 96.7 830.4 96.4 832.4 96.4C835.3 96.4 837.6 97 839.3 98.3C840.9 99.7 842 101.3 842.4 103.5Z" fill="#77809C"/>
<path d="M861.1 93.3C860.2 93.3 859.4 93 858.7 92.4C858 91.8 857.7 91 857.7 90.1C857.7 89.2 858 88.5 858.7 87.9C859.4 87.3 860.2 87 861.1 87C862 87 862.8 87.3 863.5 87.9C864.2 88.5 864.5 89.3 864.5 90.2C864.5 91.1 864.2 91.8 863.5 92.4C862.9 93 862.1 93.3 861.1 93.3ZM858.2 121.8V96.9H864.1V121.8H858.2Z" fill="#77809C"/>
<path d="M875.5 107.2V121.8H869.6V96.9H875.2V101.1H875.5C876.1 99.7 877 98.6 878.2 97.8C879.5 97 881 96.6 882.9 96.6C884.6 96.6 886.1 97 887.4 97.7C888.7 98.4 889.7 99.5 890.4 100.9C891.1 102.3 891.5 104 891.4 106V121.9H885.5V106.9C885.5 105.2 885.1 103.9 884.2 103C883.3 102.1 882.2 101.6 880.6 101.6C879.6 101.6 878.7 101.8 877.9 102.3C877.1 102.7 876.5 103.4 876 104.2C875.5 105 875.5 106 875.5 107.2Z" fill="#77809C"/>
<path d="M912.4 121.8H906L917.7 88.6H925.1L936.8 121.8H930.4L921.5 95.4H921.2L912.4 121.8ZM912.6 108.8H930.1V113.6H912.6V108.8Z" fill="#77809C"/>
<path d="M953.1 96.9V101.4H938.4V96.9H953.1ZM942.1 121.8V94.5C942.1 92.8 942.4 91.4 943.1 90.3C943.8 89.2 944.7 88.4 945.9 87.8C947.1 87.2 948.4 87 949.8 87C950.8 87 951.7 87.1 952.5 87.2C953.3 87.4 953.9 87.5 954.3 87.6L953.1 92.1C952.9 92 952.5 91.9 952.2 91.9C951.9 91.9 951.4 91.8 950.9 91.8C949.8 91.8 949 92.1 948.6 92.6C948.2 93.1 947.9 93.9 947.9 94.8V121.7H942.1V121.8Z" fill="#77809C"/>
<path d="M957.3 121.8V96.9H963V101.1H963.3C963.8 99.7 964.5 98.6 965.6 97.8C966.7 97 968 96.6 969.4 96.6C969.7 96.6 970.1 96.6 970.5 96.6C970.9 96.6 971.2 96.7 971.5 96.7V102.1C971.3 102 970.9 101.9 970.3 101.9C969.7 101.9 969.2 101.8 968.8 101.8C967.7 101.8 966.8 102 965.9 102.5C965 103 964.4 103.6 963.9 104.4C963.4 105.2 963.2 106.1 963.2 107.2V121.8H957.3Z" fill="#77809C"/>
<path d="M977.9 93.3C977 93.3 976.2 93 975.5 92.4C974.8 91.8 974.5 91 974.5 90.1C974.5 89.2 974.8 88.5 975.5 87.9C976.2 87.3 977 87 977.9 87C978.8 87 979.6 87.3 980.3 87.9C981 88.5 981.3 89.3 981.3 90.2C981.3 91.1 981 91.8 980.3 92.4C979.6 93 978.8 93.3 977.9 93.3ZM974.9 121.8V96.9H980.8V121.8H974.9Z" fill="#77809C"/>
<path d="M997.3 122.3C994.8 122.3 992.7 121.8 990.9 120.7C989.1 119.6 987.8 118.1 986.8 116.2C985.8 114.3 985.4 112 985.4 109.5C985.4 107 985.9 104.7 986.9 102.8C987.9 100.9 989.2 99.3 991 98.3C992.8 97.2 994.9 96.7 997.3 96.7C999.3 96.7 1001.1 97.1 1002.7 97.8C1004.3 98.5 1005.5 99.6 1006.4 100.9C1007.3 102.2 1007.9 103.8 1008 105.6H1002.4C1002.2 104.4 1001.6 103.4 1000.8 102.6C1000 101.8 998.8 101.4 997.4 101.4C996.2 101.4 995.1 101.7 994.2 102.4C993.3 103 992.6 104 992.1 105.2C991.6 106.4 991.3 107.8 991.3 109.5C991.3 111.2 991.5 112.7 992 113.9C992.5 115.1 993.2 116.1 994.1 116.7C995 117.4 996.1 117.7 997.3 117.7C998.2 117.7 998.9 117.5 999.6 117.2C1000.3 116.9 1000.9 116.4 1001.3 115.8C1001.8 115.2 1002.1 114.4 1002.3 113.5H1007.9C1007.8 115.3 1007.2 116.8 1006.3 118.2C1005.4 119.6 1004.2 120.6 1002.6 121.4C1001.2 121.9 999.3 122.3 997.3 122.3Z" fill="#77809C"/>
<path d="M1019.5 122.3C1017.9 122.3 1016.5 122 1015.2 121.4C1013.9 120.8 1012.9 120 1012.2 118.9C1011.5 117.8 1011.1 116.4 1011.1 114.8C1011.1 113.4 1011.4 112.2 1011.9 111.3C1012.4 110.4 1013.1 109.6 1014 109.1C1014.9 108.5 1015.9 108.1 1017 107.8C1018.1 107.5 1019.3 107.3 1020.5 107.2C1022 107 1023.1 106.9 1024.1 106.8C1025 106.7 1025.7 106.5 1026.1 106.2C1026.5 105.9 1026.7 105.5 1026.7 105V104.9C1026.7 103.7 1026.3 102.7 1025.6 102.1C1024.9 101.4 1023.8 101.1 1022.5 101.1C1021.1 101.1 1019.9 101.4 1019.1 102C1018.3 102.6 1017.7 103.4 1017.4 104.2L1011.9 103.4C1012.3 101.9 1013 100.6 1014 99.6C1015 98.6 1016.2 97.8 1017.6 97.3C1019 96.8 1020.6 96.5 1022.4 96.5C1023.6 96.5 1024.8 96.6 1026 96.9C1027.2 97.2 1028.3 97.6 1029.3 98.3C1030.3 98.9 1031.1 99.8 1031.7 100.9C1032.3 102 1032.6 103.4 1032.6 105V121.7H1027V118.3H1026.8C1026.4 119 1025.9 119.6 1025.3 120.2C1024.7 120.8 1023.9 121.3 1022.9 121.6C1021.9 122.1 1020.8 122.3 1019.5 122.3ZM1021 118C1022.2 118 1023.2 117.8 1024.1 117.3C1025 116.8 1025.6 116.2 1026.1 115.4C1026.6 114.6 1026.8 113.8 1026.8 112.9V110C1026.6 110.2 1026.3 110.3 1025.9 110.4C1025.5 110.5 1025 110.6 1024.4 110.7C1023.9 110.8 1023.3 110.9 1022.8 111C1022.3 111.1 1021.8 111.1 1021.4 111.2C1020.5 111.3 1019.7 111.5 1019 111.8C1018.3 112.1 1017.8 112.4 1017.4 112.9C1017 113.4 1016.8 114 1016.8 114.8C1016.8 115.9 1017.2 116.7 1018 117.2C1018.8 117.7 1019.8 118 1021 118Z" fill="#77809C"/>
<path d="M60.9 148.1C60 148.1 59.2 147.8 58.5 147.2C57.8 146.6 57.5 145.8 57.5 144.9C57.5 144 57.8 143.3 58.5 142.7C59.2 142.1 60 141.8 60.9 141.8C61.8 141.8 62.6 142.1 63.3 142.7C64 143.3 64.3 144.1 64.3 145C64.3 145.9 64 146.6 63.3 147.2C62.6 147.8 61.8 148.1 60.9 148.1ZM57.9 176.6V151.7H63.8V176.6H57.9Z" fill="#77809C"/>
<path d="M75.1998 162V176.6H69.2998V151.7H74.9998V155.9H75.2998C75.8998 154.5 76.7998 153.4 77.9998 152.6C79.2998 151.8 80.7998 151.4 82.6998 151.4C84.3998 151.4 85.8998 151.8 87.1998 152.5C88.4998 153.2 89.4998 154.3 90.1998 155.7C90.8998 157.1 91.2998 158.8 91.1998 160.8V176.7H85.2998V161.7C85.2998 160 84.8998 158.7 83.9998 157.8C83.0998 156.9 81.9998 156.4 80.3998 156.4C79.3998 156.4 78.4998 156.6 77.6998 157.1C76.8998 157.5 76.2998 158.2 75.7998 159C75.2998 159.8 75.1998 160.8 75.1998 162Z" fill="#77809C"/>
<path d="M107.6 177.1C105.1 177.1 103 176.6 101.2 175.5C99.4 174.4 98.1 172.9 97.1 171C96.1 169.1 95.7 166.8 95.7 164.3C95.7 161.8 96.2 159.5 97.2 157.6C98.2 155.7 99.5 154.1 101.3 153.1C103.1 152.1 105.2 151.5 107.6 151.5C109.6 151.5 111.4 151.9 113 152.6C114.6 153.3 115.8 154.4 116.7 155.7C117.6 157 118.2 158.6 118.3 160.4H112.7C112.5 159.2 111.9 158.2 111.1 157.4C110.3 156.6 109.1 156.2 107.7 156.2C106.5 156.2 105.4 156.5 104.5 157.2C103.6 157.8 102.9 158.8 102.4 160C101.9 161.2 101.6 162.6 101.6 164.3C101.6 166 101.8 167.5 102.3 168.7C102.8 169.9 103.5 170.9 104.4 171.5C105.3 172.1 106.4 172.5 107.6 172.5C108.5 172.5 109.2 172.3 109.9 172C110.6 171.7 111.2 171.2 111.6 170.6C112.1 170 112.4 169.2 112.6 168.3H118.2C118.1 170.1 117.5 171.6 116.6 173C115.7 174.4 114.5 175.4 112.9 176.2C111.5 176.7 109.7 177.1 107.6 177.1Z" fill="#77809C"/>
<path d="M122.7 176.6V151.7H128.4V155.9H128.7C129.2 154.5 129.9 153.4 131 152.6C132.1 151.8 133.4 151.4 134.8 151.4C135.1 151.4 135.5 151.4 135.9 151.4C136.3 151.4 136.6 151.5 136.9 151.5V156.9C136.7 156.8 136.3 156.7 135.7 156.7C135.1 156.7 134.6 156.6 134.2 156.6C133.1 156.6 132.2 156.8 131.3 157.3C130.4 157.8 129.8 158.4 129.3 159.2C128.8 160 128.6 160.9 128.6 162V176.6H122.7Z" fill="#77809C"/>
<path d="M151.4 177.1C148.9 177.1 146.7 176.6 144.9 175.5C143.1 174.5 141.7 173 140.7 171.1C139.7 169.2 139.2 166.9 139.2 164.3C139.2 161.7 139.7 159.5 140.7 157.5C141.7 155.6 143 154 144.8 153C146.6 152 148.6 151.4 151 151.4C152.5 151.4 154 151.6 155.4 152.1C156.8 152.6 158 153.4 159 154.4C160.1 155.4 160.9 156.7 161.5 158.3C162.1 159.9 162.4 161.8 162.4 164V165.8H142V161.8H156.8C156.8 160.7 156.5 159.7 156.1 158.8C155.6 157.9 155 157.2 154.1 156.7C153.3 156.2 152.3 155.9 151.1 155.9C149.9 155.9 148.8 156.2 147.9 156.8C147 157.4 146.3 158.1 145.8 159.1C145.3 160.1 145 161.1 145 162.2V165.7C145 167.1 145.3 168.4 145.8 169.4C146.3 170.4 147.1 171.2 148 171.8C149 172.3 150.1 172.6 151.3 172.6C152.2 172.6 152.9 172.5 153.6 172.2C154.3 172 154.9 171.6 155.4 171.1C155.9 170.6 156.3 170 156.6 169.3L162.1 169.9C161.8 171.3 161.1 172.6 160.1 173.7C159.1 174.8 157.9 175.6 156.4 176.2C155 176.8 153.3 177.1 151.4 177.1Z" fill="#77809C"/>
<path d="M174.1 177.1C172.5 177.1 171.1 176.8 169.8 176.2C168.5 175.6 167.5 174.8 166.8 173.7C166.1 172.6 165.7 171.2 165.7 169.6C165.7 168.2 166 167 166.5 166.1C167 165.2 167.7 164.4 168.6 163.9C169.5 163.3 170.5 162.9 171.6 162.6C172.7 162.3 173.9 162.1 175.1 162C176.6 161.8 177.7 161.7 178.7 161.6C179.7 161.5 180.3 161.3 180.7 161C181.1 160.7 181.3 160.3 181.3 159.8V159.7C181.3 158.5 180.9 157.5 180.2 156.9C179.5 156.2 178.4 155.9 177.1 155.9C175.7 155.9 174.5 156.2 173.7 156.8C172.9 157.4 172.3 158.2 172 159L166.5 158.2C166.9 156.7 167.6 155.4 168.6 154.4C169.6 153.4 170.8 152.6 172.2 152.1C173.6 151.6 175.2 151.3 177 151.3C178.2 151.3 179.4 151.4 180.6 151.7C181.8 152 182.9 152.4 183.9 153.1C184.9 153.8 185.7 154.6 186.3 155.7C186.9 156.8 187.2 158.2 187.2 159.8V176.5H181.6V173.1H181.4C181 173.8 180.5 174.4 179.9 175C179.3 175.6 178.5 176.1 177.5 176.4C176.6 176.9 175.4 177.1 174.1 177.1ZM175.6 172.8C176.8 172.8 177.8 172.6 178.7 172.1C179.6 171.6 180.2 171 180.7 170.2C181.2 169.4 181.4 168.6 181.4 167.7V164.8C181.2 165 180.9 165.1 180.5 165.2C180.1 165.3 179.6 165.4 179 165.5C178.5 165.6 177.9 165.7 177.4 165.8C176.9 165.9 176.4 165.9 176 166C175.1 166.1 174.3 166.3 173.6 166.6C172.9 166.9 172.4 167.2 172 167.7C171.6 168.2 171.4 168.8 171.4 169.6C171.4 170.7 171.8 171.5 172.6 172C173.4 172.5 174.4 172.8 175.6 172.8Z" fill="#77809C"/>
<path d="M212.4 158.3L207 158.9C206.8 158.4 206.6 157.9 206.2 157.4C205.8 156.9 205.3 156.5 204.7 156.2C204.1 155.9 203.3 155.8 202.4 155.8C201.2 155.8 200.2 156.1 199.3 156.6C198.5 157.1 198.1 157.8 198.1 158.7C198.1 159.4 198.4 160 198.9 160.5C199.4 161 200.4 161.3 201.6 161.6L205.8 162.5C208.2 163 209.9 163.8 211.1 164.9C212.3 166 212.8 167.4 212.8 169.2C212.8 170.8 212.3 172.2 211.4 173.3C210.5 174.5 209.2 175.4 207.6 176.1C206 176.8 204.2 177.1 202.1 177.1C199.1 177.1 196.6 176.5 194.7 175.2C192.8 173.9 191.7 172.1 191.4 169.8L197.1 169.2C197.4 170.3 197.9 171.2 198.8 171.7C199.7 172.2 200.7 172.6 202.1 172.6C203.5 172.6 204.6 172.3 205.5 171.7C206.3 171.1 206.8 170.4 206.8 169.6C206.8 168.9 206.5 168.3 206 167.8C205.5 167.3 204.6 167 203.5 166.7L199.2 165.8C196.8 165.3 195 164.5 193.9 163.3C192.8 162.1 192.2 160.6 192.2 158.8C192.2 157.3 192.6 155.9 193.5 154.8C194.4 153.7 195.5 152.8 197.1 152.2C198.6 151.6 200.4 151.3 202.4 151.3C205.3 151.3 207.6 151.9 209.3 153.2C211 154.5 212 156.1 212.4 158.3Z" fill="#77809C"/>
<path d="M228.4 177.1C225.9 177.1 223.7 176.6 221.9 175.5C220.1 174.5 218.7 173 217.7 171.1C216.7 169.2 216.2 166.9 216.2 164.3C216.2 161.7 216.7 159.5 217.7 157.5C218.7 155.6 220 154 221.8 153C223.6 152 225.6 151.4 228 151.4C229.5 151.4 231 151.6 232.4 152.1C233.8 152.6 235 153.4 236 154.4C237.1 155.4 237.9 156.7 238.5 158.3C239.1 159.9 239.4 161.8 239.4 164V165.8H219V161.8H233.8C233.8 160.7 233.5 159.7 233.1 158.8C232.6 157.9 232 157.2 231.1 156.7C230.3 156.2 229.3 155.9 228.1 155.9C226.9 155.9 225.8 156.2 224.9 156.8C224 157.4 223.3 158.1 222.8 159.1C222.3 160.1 222 161.1 222 162.2V165.7C222 167.1 222.3 168.4 222.8 169.4C223.3 170.4 224.1 171.2 225 171.8C226 172.3 227.1 172.6 228.3 172.6C229.2 172.6 229.9 172.5 230.6 172.2C231.3 172 231.9 171.6 232.4 171.1C232.9 170.6 233.3 170 233.6 169.3L239.1 169.9C238.8 171.3 238.1 172.6 237.1 173.7C236.1 174.8 234.9 175.6 233.4 176.2C232.1 176.8 230.3 177.1 228.4 177.1Z" fill="#77809C"/>
<path d="M253.2 177C251.2 177 249.5 176.5 247.9 175.5C246.4 174.5 245.1 173 244.2 171.1C243.3 169.2 242.9 166.9 242.9 164.1C242.9 161.3 243.4 159 244.3 157.1C245.2 155.2 246.4 153.7 248 152.8C249.6 151.8 251.3 151.3 253.2 151.3C254.7 151.3 255.9 151.5 256.8 152C257.7 152.5 258.5 153.1 259 153.8C259.6 154.5 260 155.1 260.3 155.7H260.5V143.3H266.4V176.5H260.6V172.6H260.2C259.9 173.2 259.5 173.8 258.9 174.5C258.3 175.2 257.6 175.8 256.6 176.2C255.8 176.8 254.7 177 253.2 177ZM254.9 172.2C256.1 172.2 257.2 171.9 258.1 171.2C259 170.5 259.6 169.6 260.1 168.4C260.6 167.2 260.8 165.8 260.8 164.2C260.8 162.6 260.6 161.2 260.1 160C259.6 158.8 259 157.9 258.1 157.2C257.2 156.5 256.2 156.2 254.9 156.2C253.6 156.2 252.5 156.5 251.6 157.2C250.7 157.9 250.1 158.8 249.6 160C249.1 161.2 248.9 162.6 248.9 164.1C248.9 165.7 249.1 167 249.6 168.3C250 169.5 250.7 170.5 251.6 171.2C252.5 171.9 253.6 172.2 254.9 172.2Z" fill="#77809C"/>
<path d="M283.5 176.6V143.4H289.4V155.8H289.6C289.9 155.2 290.3 154.5 290.9 153.9C291.5 153.2 292.2 152.6 293.1 152.1C294 151.6 295.2 151.4 296.7 151.4C298.6 151.4 300.4 151.9 301.9 152.9C303.4 153.9 304.7 155.3 305.6 157.2C306.5 159.1 307 161.4 307 164.2C307 166.9 306.6 169.3 305.7 171.2C304.8 173.1 303.6 174.6 302 175.6C300.5 176.6 298.7 177.1 296.7 177.1C295.3 177.1 294.1 176.9 293.1 176.4C292.2 175.9 291.4 175.3 290.8 174.7C290.2 174.1 289.8 173.4 289.5 172.8H289.2V176.7H283.5V176.6ZM289.2 164.1C289.2 165.7 289.4 167.1 289.9 168.3C290.4 169.5 291 170.5 291.9 171.1C292.8 171.8 293.8 172.1 295.1 172.1C296.4 172.1 297.5 171.8 298.4 171.1C299.3 170.4 299.9 169.4 300.4 168.2C300.8 167 301.1 165.6 301.1 164C301.1 162.5 300.9 161.1 300.4 159.9C299.9 158.7 299.3 157.8 298.4 157.1C297.5 156.4 296.4 156.1 295.1 156.1C293.8 156.1 292.8 156.4 291.9 157.1C291 157.8 290.4 158.7 289.9 159.9C289.4 161.1 289.2 162.5 289.2 164.1Z" fill="#77809C"/>
<path d="M315.2 185.9C314.4 185.9 313.7 185.8 313 185.7C312.3 185.6 311.8 185.4 311.4 185.3L312.8 180.7C313.7 180.9 314.4 181.1 315.1 181.1C315.8 181.1 316.4 180.9 316.9 180.5C317.4 180.1 317.8 179.4 318.2 178.5L318.7 177.2L309.7 151.8H315.9L321.6 170.6H321.9L327.7 151.8H333.9L323.9 179.7C323.4 181 322.8 182.2 322.1 183.1C321.3 184 320.4 184.8 319.3 185.3C318 185.7 316.7 185.9 315.2 185.9Z" fill="#77809C"/>
<path d="M349.4 176.6L363.5 148.6V148.4H347.1V143.4H369.7V148.5L355.6 176.6H349.4Z" fill="#242438"/>
<path d="M375.4 151.4V149.6C375.4 148.3 375.7 147.1 376.2 146C376.8 144.9 377.6 144.1 378.6 143.4C379.6 142.7 380.9 142.4 382.4 142.4C383.9 142.4 385.2 142.7 386.3 143.4C387.3 144.1 388.1 144.9 388.7 146C389.2 147.1 389.5 148.3 389.5 149.6V151.4C389.5 152.7 389.2 153.9 388.7 155C388.2 156.1 387.4 156.9 386.3 157.6C385.3 158.2 384 158.6 382.5 158.6C381 158.6 379.7 158.3 378.6 157.6C377.5 156.9 376.8 156.1 376.2 155C375.7 153.8 375.4 152.6 375.4 151.4ZM377.3 176.6L400.1 143.4H404.2L381.4 176.6H377.3ZM379.7 149.6V151.4C379.7 152.3 379.9 153.1 380.3 153.8C380.7 154.5 381.4 154.9 382.5 154.9C383.5 154.9 384.3 154.5 384.6 153.8C385 153.1 385.2 152.3 385.2 151.4V149.6C385.2 148.7 385 147.9 384.6 147.2C384.2 146.5 383.5 146.1 382.4 146.1C381.4 146.1 380.7 146.5 380.2 147.2C379.9 148 379.7 148.8 379.7 149.6ZM392.3 170.4V168.6C392.3 167.3 392.6 166.1 393.1 165C393.6 163.9 394.4 163 395.5 162.4C396.5 161.7 397.8 161.4 399.3 161.4C400.8 161.4 402.1 161.7 403.2 162.4C404.3 163.1 405 163.9 405.6 165C406.1 166.1 406.4 167.3 406.4 168.6V170.4C406.4 171.7 406.1 172.9 405.6 174C405.1 175.1 404.3 176 403.2 176.6C402.2 177.3 400.9 177.6 399.4 177.6C397.9 177.6 396.6 177.3 395.6 176.6C394.6 175.9 393.8 175.1 393.2 174C392.6 172.8 392.3 171.7 392.3 170.4ZM396.6 168.6V170.4C396.6 171.3 396.8 172 397.2 172.8C397.6 173.6 398.3 173.9 399.4 173.9C400.4 173.9 401.2 173.5 401.6 172.8C402 172.1 402.2 171.3 402.2 170.4V168.6C402.2 167.7 402 166.9 401.6 166.2C401.2 165.5 400.5 165.1 399.4 165.1C398.4 165.1 397.7 165.5 397.2 166.2C396.8 167 396.6 167.8 396.6 168.6Z" fill="#242438"/>
<path d="M436 151.7V156.2H421.7V151.7H436ZM425.3 145.7H431.2V169.1C431.2 169.9 431.3 170.5 431.6 170.9C431.8 171.3 432.2 171.6 432.6 171.8C433 172 433.4 172 433.9 172C434.3 172 434.6 172 434.9 171.9C435.2 171.8 435.4 171.8 435.6 171.8L436.6 176.4C436.3 176.5 435.8 176.6 435.3 176.8C434.7 176.9 434 177 433.2 177C431.7 177 430.4 176.8 429.2 176.3C428 175.8 427.1 175 426.4 174C425.7 173 425.4 171.7 425.4 170.1V145.7H425.3Z" fill="#77809C"/>
<path d="M451.4 177.1C449 177.1 446.9 176.6 445.1 175.5C443.3 174.4 441.9 172.9 441 171C440 169.1 439.5 166.8 439.5 164.3C439.5 161.7 440 159.5 441 157.5C442 155.6 443.4 154.1 445.1 153C446.9 151.9 449 151.4 451.4 151.4C453.8 151.4 455.9 151.9 457.7 153C459.5 154.1 460.9 155.6 461.8 157.5C462.8 159.4 463.3 161.7 463.3 164.3C463.3 166.9 462.8 169.1 461.8 171C460.8 172.9 459.4 174.4 457.7 175.5C455.9 176.6 453.8 177.1 451.4 177.1ZM451.4 172.4C452.7 172.4 453.8 172 454.7 171.3C455.6 170.6 456.2 169.6 456.7 168.4C457.1 167.2 457.4 165.8 457.4 164.3C457.4 162.8 457.2 161.4 456.7 160.2C456.2 159 455.6 158 454.7 157.2C453.8 156.5 452.7 156.1 451.4 156.1C450 156.1 448.9 156.5 448 157.2C447.1 157.9 446.4 158.9 446 160.2C445.6 161.5 445.3 162.8 445.3 164.3C445.3 165.8 445.5 167.2 446 168.4C446.4 169.6 447.1 170.6 448 171.3C448.9 172 450 172.4 451.4 172.4Z" fill="#77809C"/>
<path d="M490.4 177.1C488 177.1 485.8 176.7 484 175.9C482.1 175.1 480.7 174 479.6 172.6C478.5 171.2 478 169.6 478 167.8C478 166.4 478.3 165.1 478.9 164C479.5 162.8 480.4 161.9 481.4 161.1C482.4 160.3 483.6 159.8 484.9 159.6V159.4C483.2 159 481.8 158.1 480.8 156.8C479.7 155.4 479.2 153.9 479.2 152.1C479.2 150.4 479.7 148.9 480.6 147.5C481.5 146.1 482.9 145.1 484.6 144.3C486.3 143.5 488.2 143.1 490.3 143.1C492.4 143.1 494.3 143.5 496 144.3C497.7 145.1 499 146.1 500 147.5C501 148.9 501.5 150.4 501.5 152.1C501.5 153.9 501 155.5 499.9 156.8C498.8 158.1 497.5 159 495.8 159.4V159.6C497.1 159.8 498.3 160.3 499.3 161.1C500.3 161.9 501.2 162.9 501.8 164C502.4 165.2 502.7 166.4 502.7 167.8C502.7 169.6 502.2 171.2 501.1 172.6C500 174 498.6 175.1 496.7 175.9C495 176.6 492.8 177.1 490.4 177.1ZM490.4 172.4C491.6 172.4 492.7 172.2 493.6 171.8C494.5 171.4 495.2 170.8 495.7 170C496.2 169.2 496.5 168.3 496.5 167.3C496.5 166.2 496.2 165.3 495.7 164.5C495.2 163.7 494.4 163 493.5 162.6C492.6 162.1 491.5 161.9 490.3 161.9C489.1 161.9 488.1 162.1 487.1 162.6C486.2 163.1 485.4 163.7 484.9 164.5C484.4 165.3 484.1 166.3 484.1 167.3C484.1 168.3 484.3 169.2 484.8 170C485.3 170.8 486 171.4 486.9 171.8C488.1 172.2 489.2 172.4 490.4 172.4ZM490.4 157.3C491.4 157.3 492.3 157.1 493.1 156.7C493.9 156.3 494.5 155.7 495 155C495.5 154.3 495.7 153.4 495.7 152.5C495.7 151.5 495.5 150.7 495 150C494.6 149.3 493.9 148.7 493.2 148.3C492.4 147.9 491.5 147.7 490.5 147.7C489.5 147.7 488.5 147.9 487.7 148.3C486.9 148.7 486.3 149.3 485.9 150C485.5 150.7 485.2 151.6 485.3 152.5C485.3 153.5 485.5 154.3 486 155C486.4 155.7 487.1 156.3 487.9 156.7C488.7 157.1 489.4 157.3 490.4 157.3Z" fill="#242438"/>
<path d="M519.6 177.1C517.3 177.1 515.2 176.7 513.4 175.9C511.6 175.1 510.2 174 509.1 172.6C508.1 171.2 507.5 169.5 507.4 167.7H513.5C513.6 168.6 513.9 169.4 514.4 170C514.9 170.7 515.7 171.2 516.6 171.5C517.5 171.9 518.5 172.1 519.6 172.1C520.8 172.1 521.8 171.9 522.8 171.5C523.7 171.1 524.4 170.5 525 169.8C525.6 169.1 525.8 168.2 525.8 167.2C525.8 166.2 525.6 165.3 525 164.5C524.5 163.7 523.7 163.1 522.7 162.7C521.7 162.3 520.5 162.1 519.1 162.1H516V157.5H518.9C520.1 157.5 521.1 157.3 521.9 156.9C522.8 156.5 523.5 155.9 524 155.2C524.5 154.5 524.7 153.6 524.7 152.7C524.7 151.8 524.5 150.9 524.1 150.2C523.7 149.5 523.1 149 522.3 148.6C521.5 148.2 520.6 148 519.6 148C518.6 148 517.6 148.2 516.8 148.6C515.9 149 515.2 149.5 514.7 150.2C514.2 150.9 513.9 151.7 513.9 152.6H508.1C508.1 150.7 508.7 149.1 509.7 147.7C510.7 146.3 512.1 145.2 513.8 144.4C515.5 143.6 517.5 143.2 519.6 143.2C521.8 143.2 523.7 143.6 525.4 144.4C527 145.2 528.3 146.3 529.2 147.7C530.1 149.1 530.5 150.6 530.5 152.3C530.5 154.2 530 155.7 528.9 157C527.8 158.3 526.3 159.1 524.5 159.5V159.8C526.8 160.1 528.6 161 529.9 162.4C531.2 163.8 531.8 165.5 531.8 167.6C531.8 169.5 531.3 171.1 530.2 172.6C529.1 174.1 527.7 175.2 525.9 176C524.1 176.8 522 177.1 519.6 177.1Z" fill="#242438"/>
<path d="M549.3 177.2C546.6 177.2 544.3 176.5 542.4 175.2C540.5 173.8 539 171.9 538 169.3C537 166.7 536.5 163.6 536.5 160C536.5 156.4 537 153.3 538 150.7C539 148.1 540.5 146.2 542.4 144.9C544.3 143.6 546.6 142.9 549.3 142.9C552 142.9 554.2 143.6 556.2 144.9C558.2 146.2 559.6 148.2 560.6 150.7C561.6 153.3 562.1 156.3 562.1 159.9C562.1 163.5 561.6 166.6 560.6 169.2C559.6 171.8 558.1 173.7 556.2 175.1C554.2 176.6 551.9 177.2 549.3 177.2ZM549.3 172.2C551.4 172.2 553 171.2 554.2 169.1C555.4 167.1 556 164 556 160C556 157.4 555.7 155.1 555.2 153.3C554.6 151.5 553.9 150.2 552.9 149.2C551.9 148.3 550.7 147.8 549.3 147.8C547.2 147.8 545.6 148.8 544.4 150.9C543.2 152.9 542.6 156 542.6 159.9C542.6 162.5 542.9 164.8 543.4 166.6C543.9 168.4 544.7 169.8 545.7 170.7C546.7 171.6 547.9 172.2 549.3 172.2Z" fill="#242438"/>
<path d="M577.9 185.9V151.6H583.7V155.7H584C584.3 155.1 584.7 154.4 585.3 153.8C585.9 153.1 586.6 152.5 587.5 152C588.4 151.5 589.6 151.3 591.1 151.3C593 151.3 594.8 151.8 596.3 152.8C597.8 153.8 599.1 155.2 600 157.1C600.9 159 601.4 161.3 601.4 164.1C601.4 166.8 601 169.2 600.1 171.1C599.2 173 598 174.5 596.4 175.5C594.8 176.5 593.1 177 591.1 177C589.7 177 588.5 176.8 587.5 176.3C586.6 175.8 585.8 175.2 585.2 174.6C584.6 173.9 584.2 173.3 583.9 172.7H583.7V186H577.9V185.9ZM583.7 164.1C583.7 165.7 583.9 167.1 584.4 168.3C584.9 169.5 585.5 170.5 586.4 171.1C587.3 171.7 588.3 172.1 589.6 172.1C590.9 172.1 592 171.8 592.9 171.1C593.8 170.4 594.4 169.4 594.9 168.2C595.3 167 595.6 165.6 595.6 164C595.6 162.5 595.4 161.1 594.9 159.9C594.5 158.7 593.8 157.8 592.9 157.1C592 156.4 590.9 156.1 589.6 156.1C588.3 156.1 587.3 156.4 586.4 157.1C585.5 157.8 584.9 158.7 584.4 159.9C583.9 161.1 583.7 162.5 583.7 164.1Z" fill="#77809C"/>
<path d="M606 176.6V151.7H611.7V155.9H612C612.5 154.5 613.2 153.4 614.3 152.6C615.4 151.8 616.7 151.4 618.1 151.4C618.4 151.4 618.8 151.4 619.2 151.4C619.6 151.4 619.9 151.5 620.2 151.5V156.9C620 156.8 619.6 156.7 619 156.7C618.4 156.7 617.9 156.6 617.5 156.6C616.4 156.6 615.5 156.8 614.6 157.3C613.7 157.8 613.1 158.4 612.6 159.2C612.1 160 611.9 160.9 611.9 162V176.6H606Z" fill="#77809C"/>
<path d="M634.5 177.1C632.1 177.1 630 176.6 628.2 175.5C626.4 174.4 625 172.9 624.1 171C623.1 169.1 622.6 166.8 622.6 164.3C622.6 161.7 623.1 159.5 624.1 157.5C625.1 155.6 626.5 154.1 628.2 153C630 151.9 632.1 151.4 634.5 151.4C636.9 151.4 639 151.9 640.8 153C642.6 154.1 644 155.6 644.9 157.5C645.9 159.4 646.4 161.7 646.4 164.3C646.4 166.9 645.9 169.1 644.9 171C643.9 172.9 642.5 174.4 640.8 175.5C639.1 176.6 637 177.1 634.5 177.1ZM634.6 172.4C635.9 172.4 637 172 637.9 171.3C638.8 170.6 639.4 169.6 639.9 168.4C640.3 167.2 640.6 165.8 640.6 164.3C640.6 162.8 640.4 161.4 639.9 160.2C639.4 159 638.8 158 637.9 157.2C637 156.5 635.9 156.1 634.6 156.1C633.2 156.1 632.1 156.5 631.2 157.2C630.3 157.9 629.6 158.9 629.2 160.2C628.8 161.5 628.5 162.8 628.5 164.3C628.5 165.8 628.7 167.2 629.2 168.4C629.6 169.6 630.3 170.6 631.2 171.3C632.1 172 633.2 172.4 634.6 172.4Z" fill="#77809C"/>
<path d="M651 151.7H656.9V178C656.9 179.8 656.6 181.3 655.9 182.4C655.2 183.6 654.2 184.4 652.9 185C651.6 185.6 650.1 185.9 648.2 185.9C648 185.9 647.8 185.9 647.6 185.9C647.4 185.9 647.2 185.9 647 185.9V181.1C647.2 181.1 647.3 181.1 647.4 181.1C647.5 181.1 647.7 181.1 647.8 181.1C648.9 181.1 649.7 180.8 650.2 180.3C650.7 179.8 650.9 179 650.9 177.9V151.7H651ZM653.9 148.1C653 148.1 652.2 147.8 651.5 147.2C650.8 146.6 650.5 145.8 650.5 145C650.5 144.1 650.8 143.4 651.5 142.7C652.2 142 653 141.8 653.9 141.8C654.8 141.8 655.6 142.1 656.3 142.7C657 143.3 657.3 144.1 657.3 145C657.3 145.9 657 146.6 656.3 147.2C655.6 147.8 654.8 148.1 653.9 148.1Z" fill="#77809C"/>
<path d="M673.5 177.1C671 177.1 668.8 176.6 667 175.5C665.2 174.5 663.8 173 662.8 171.1C661.8 169.2 661.3 166.9 661.3 164.3C661.3 161.7 661.8 159.5 662.8 157.5C663.8 155.6 665.1 154 666.9 153C668.7 152 670.7 151.4 673.1 151.4C674.6 151.4 676.1 151.6 677.5 152.1C678.9 152.6 680.1 153.4 681.1 154.4C682.2 155.4 683 156.7 683.6 158.3C684.2 159.9 684.5 161.8 684.5 164V165.8H664.1V161.8H678.9C678.9 160.7 678.6 159.7 678.2 158.8C677.7 157.9 677.1 157.2 676.2 156.7C675.4 156.2 674.4 155.9 673.2 155.9C672 155.9 670.9 156.2 670 156.8C669.1 157.4 668.4 158.1 667.9 159.1C667.4 160.1 667.1 161.1 667.1 162.2V165.7C667.1 167.1 667.4 168.4 667.9 169.4C668.4 170.4 669.2 171.2 670.1 171.8C671.1 172.3 672.2 172.6 673.4 172.6C674.3 172.6 675 172.5 675.7 172.2C676.4 172 677 171.6 677.5 171.1C678 170.6 678.4 170 678.7 169.3L684.2 169.9C683.9 171.3 683.2 172.6 682.2 173.7C681.2 174.8 680 175.6 678.5 176.2C677.1 176.8 675.4 177.1 673.5 177.1Z" fill="#77809C"/>
<path d="M699.9 177.1C697.4 177.1 695.3 176.6 693.5 175.5C691.7 174.4 690.4 172.9 689.4 171C688.4 169.1 688 166.8 688 164.3C688 161.8 688.5 159.5 689.5 157.6C690.5 155.7 691.8 154.1 693.6 153.1C695.4 152.1 697.5 151.5 699.9 151.5C701.9 151.5 703.7 151.9 705.3 152.6C706.9 153.3 708.1 154.4 709 155.7C709.9 157 710.5 158.6 710.6 160.4H705C704.8 159.2 704.2 158.2 703.4 157.4C702.6 156.6 701.4 156.2 700 156.2C698.8 156.2 697.7 156.5 696.8 157.2C695.9 157.8 695.2 158.8 694.7 160C694.2 161.2 693.9 162.6 693.9 164.3C693.9 166 694.1 167.5 694.6 168.7C695.1 169.9 695.8 170.9 696.7 171.5C697.6 172.1 698.7 172.5 699.9 172.5C700.8 172.5 701.5 172.3 702.2 172C702.9 171.7 703.5 171.2 703.9 170.6C704.4 170 704.7 169.2 704.9 168.3H710.5C710.4 170.1 709.8 171.6 708.9 173C708 174.4 706.8 175.4 705.2 176.2C703.8 176.7 702 177.1 699.9 177.1Z" fill="#77809C"/>
<path d="M727.4 151.7V156.2H713.1V151.7H727.4ZM716.6 145.7H722.5V169.1C722.5 169.9 722.6 170.5 722.9 170.9C723.1 171.3 723.5 171.6 723.9 171.8C724.3 172 724.7 172 725.2 172C725.6 172 725.9 172 726.2 171.9C726.5 171.8 726.7 171.8 726.9 171.8L727.9 176.4C727.6 176.5 727.1 176.6 726.6 176.8C726 176.9 725.3 177 724.5 177C723 177 721.7 176.8 720.5 176.3C719.3 175.8 718.4 175 717.7 174C717 173 716.7 171.7 716.7 170.1V145.7H716.6Z" fill="#77809C"/>
<path d="M751.6 158.3L746.2 158.9C746 158.4 745.8 157.9 745.4 157.4C745 156.9 744.5 156.5 743.9 156.2C743.3 155.9 742.5 155.8 741.6 155.8C740.4 155.8 739.4 156.1 738.5 156.6C737.7 157.1 737.3 157.8 737.3 158.7C737.3 159.4 737.6 160 738.1 160.5C738.6 161 739.6 161.3 740.8 161.6L745 162.5C747.4 163 749.1 163.8 750.3 164.9C751.5 166 752 167.4 752 169.2C752 170.8 751.5 172.2 750.6 173.3C749.7 174.5 748.4 175.4 746.8 176.1C745.2 176.8 743.4 177.1 741.3 177.1C738.3 177.1 735.8 176.5 733.9 175.2C732 173.9 730.9 172.1 730.6 169.8L736.3 169.2C736.6 170.3 737.1 171.2 738 171.7C738.9 172.2 739.9 172.6 741.3 172.6C742.7 172.6 743.8 172.3 744.7 171.7C745.5 171.1 746 170.4 746 169.6C746 168.9 745.7 168.3 745.2 167.8C744.7 167.3 743.8 167 742.7 166.7L738.4 165.8C736 165.3 734.2 164.5 733.1 163.3C732 162.1 731.4 160.6 731.4 158.8C731.4 157.3 731.8 155.9 732.7 154.8C733.6 153.7 734.7 152.8 736.3 152.2C737.8 151.6 739.6 151.3 741.6 151.3C744.5 151.3 746.8 151.9 748.5 153.2C750.1 154.5 751.2 156.1 751.6 158.3Z" fill="#77809C"/>
<path d="M760.1 177C759.1 177 758.3 176.7 757.6 176C756.9 175.3 756.6 174.5 756.6 173.5C756.6 172.5 756.9 171.7 757.6 171C758.3 170.3 759.1 170 760.1 170C761.1 170 761.9 170.3 762.6 171C763.3 171.7 763.7 172.5 763.7 173.5C763.7 174.2 763.5 174.8 763.2 175.3C762.9 175.8 762.4 176.3 761.9 176.6C761.3 176.8 760.8 177 760.1 177Z" fill="#77809C"/>
</g>
<mask id="mask6_4_2374" style="mask-type:luminance" maskUnits="userSpaceOnUse" x="0" y="0" width="1521" height="255">
<path d="M1521 0H0V255H1521V0Z" fill="white"/>
</mask>
<g mask="url(#mask6_4_2374)">
<path d="M1451 77C1463.15 77 1473 67.1503 1473 55C1473 42.8497 1463.15 33 1451 33C1438.85 33 1429 42.8497 1429 55C1429 67.1503 1438.85 77 1451 77Z" fill="#D4F6FF"/>
</g>
<mask id="mask7_4_2374" style="mask-type:luminance" maskUnits="userSpaceOnUse" x="0" y="0" width="1521" height="255">
<path d="M1521 0H0V255H1521V0Z" fill="white"/>
</mask>
<g mask="url(#mask7_4_2374)">
<path d="M655 274C667.703 274 678 263.703 678 251C678 238.297 667.703 228 655 228C642.297 228 632 238.297 632 251C632 263.703 642.297 274 655 274Z" fill="#F2FCFF"/>
</g>
<mask id="mask8_4_2374" style="mask-type:luminance" maskUnits="userSpaceOnUse" x="0" y="0" width="1521" height="255">
<path d="M1521 0H0V255H1521V0Z" fill="white"/>
</mask>
<g mask="url(#mask8_4_2374)">
<path d="M1489 235C1494.52 235 1499 230.523 1499 225C1499 219.477 1494.52 215 1489 215C1483.48 215 1479 219.477 1479 225C1479 230.523 1483.48 235 1489 235Z" fill="#F2FCFF"/>
</g>
<mask id="mask9_4_2374" style="mask-type:luminance" maskUnits="userSpaceOnUse" x="0" y="0" width="1521" height="255">
<path d="M1521 0H0V255H1521V0Z" fill="white"/>
</mask>
<g mask="url(#mask9_4_2374)">
<path d="M59.5 198.7C59.5 197.4 59.7 196.2 60 195.1C60.3 194 60.8 193 61.4 192.1H62.5C62.3 192.4 62 192.9 61.8 193.3C61.6 193.7 61.4 194.3 61.2 194.9C61 195.5 60.9 196.1 60.8 196.7C60.7 197.3 60.7 197.9 60.7 198.6C60.7 199.4 60.8 200.2 60.9 201.1C61.1 201.9 61.3 202.7 61.5 203.4C61.7 204.1 62.1 204.7 62.4 205.2H61.3C60.7 204.3 60.2 203.3 59.9 202.2C59.7 201.2 59.5 200 59.5 198.7Z" fill="#D3D3D3"/>
<path d="M71.4 192.7H72.7V199.6C72.7 200.3 72.5 201 72.2 201.5C71.9 202.1 71.4 202.5 70.8 202.8C70.2 203.1 69.5 203.3 68.7 203.3C67.9 203.3 67.2 203.1 66.6 202.8C66 202.5 65.5 202 65.2 201.5C64.9 200.9 64.7 200.3 64.7 199.6V192.7H66V199.5C66 200 66.1 200.5 66.3 200.9C66.5 201.3 66.8 201.6 67.3 201.8C67.7 202 68.2 202.1 68.8 202.1C69.4 202.1 69.9 202 70.3 201.8C70.7 201.6 71 201.3 71.3 200.9C71.5 200.5 71.6 200 71.6 199.5V192.7H71.4Z" fill="#D3D3D3"/>
<path d="M83.5 192.7V203.2H82.3L76.6 195H76.5V203.2H75.2V192.7H76.4L82.1 200.9H82.2V192.7H83.5Z" fill="#D3D3D3"/>
<path d="M94.5 196H93.2C93.1 195.6 93 195.3 92.8 195C92.6 194.7 92.4 194.5 92.1 194.3C91.8 194.1 91.5 194 91.2 193.9C90.9 193.8 90.5 193.8 90.2 193.8C89.6 193.8 89 194 88.5 194.3C88 194.6 87.6 195.1 87.3 195.7C87 196.3 86.8 197.1 86.8 198C86.8 198.9 87 199.7 87.3 200.3C87.6 200.9 88 201.4 88.5 201.7C89 202 89.6 202.2 90.2 202.2C90.5 202.2 90.9 202.2 91.2 202.1C91.5 202 91.8 201.9 92.1 201.7C92.4 201.5 92.6 201.3 92.8 201C93 200.7 93.1 200.4 93.2 200H94.5C94.4 200.5 94.2 201 94 201.4C93.8 201.8 93.4 202.2 93.1 202.5C92.7 202.8 92.3 203 91.8 203.2C91.3 203.4 90.8 203.4 90.3 203.4C89.4 203.4 88.6 203.2 87.9 202.7C87.2 202.3 86.7 201.6 86.3 200.8C85.9 200 85.7 199 85.7 197.9C85.7 196.8 85.9 195.8 86.3 195C86.7 194.2 87.2 193.6 87.9 193.1C88.6 192.7 89.4 192.4 90.3 192.4C90.8 192.4 91.3 192.5 91.8 192.6C92.3 192.8 92.7 193 93.1 193.3C93.5 193.6 93.8 194 94 194.4C94.2 194.8 94.4 195.4 94.5 196Z" fill="#D3D3D3"/>
<path d="M95.8999 193.8V192.7H103.8V193.8H100.5V203.2H99.1999V193.8H95.8999Z" fill="#D3D3D3"/>
<path d="M106.2 203.2H104.9L108.7 192.7H110L113.8 203.2H112.5L109.4 194.4H109.3L106.2 203.2ZM106.7 199.1H112.1V200.2H106.7V199.1Z" fill="#D3D3D3"/>
<path d="M118.7 203.2H115.5V192.7H118.9C119.9 192.7 120.8 192.9 121.5 193.3C122.2 193.7 122.8 194.3 123.2 195.1C123.6 195.9 123.8 196.8 123.8 197.9C123.8 199 123.6 199.9 123.2 200.7C122.8 201.5 122.2 202.1 121.5 202.5C120.7 203 119.8 203.2 118.7 203.2ZM116.8 202H118.7C119.6 202 120.3 201.8 120.9 201.5C121.5 201.2 121.9 200.7 122.2 200.1C122.5 199.5 122.6 198.7 122.6 197.9C122.6 197.1 122.5 196.3 122.2 195.7C121.9 195.1 121.5 194.6 121 194.3C120.5 194 119.8 193.8 118.9 193.8H116.9V202H116.8Z" fill="#D3D3D3"/>
<path d="M129.7 203.2V202.3L133.2 198.5C133.6 198.1 133.9 197.7 134.2 197.3C134.5 197 134.7 196.7 134.8 196.4C134.9 196.1 135 195.8 135 195.5C135 195.1 134.9 194.8 134.7 194.5C134.5 194.2 134.3 194 134 193.9C133.7 193.8 133.4 193.7 133 193.7C132.6 193.7 132.2 193.8 131.9 193.9C131.6 194.1 131.4 194.3 131.2 194.6C131 194.9 131 195.2 131 195.6H129.8C129.8 195 129.9 194.4 130.2 194C130.5 193.5 130.9 193.2 131.4 192.9C131.9 192.6 132.4 192.5 133.1 192.5C133.7 192.5 134.3 192.6 134.7 192.9C135.2 193.2 135.5 193.5 135.8 193.9C136.1 194.3 136.2 194.8 136.2 195.4C136.2 195.8 136.1 196.2 136 196.5C135.9 196.9 135.6 197.3 135.3 197.7C135 198.1 134.5 198.7 133.9 199.3L131.5 201.8V201.9H136.4V203H129.7V203.2Z" fill="#D3D3D3"/>
<path d="M141.9 203.3C141.1 203.3 140.5 203.1 139.9 202.7C139.4 202.3 138.9 201.7 138.7 200.9C138.4 200.1 138.3 199.1 138.3 198C138.3 196.9 138.4 195.9 138.7 195.1C139 194.3 139.4 193.7 139.9 193.3C140.4 192.9 141.1 192.7 141.9 192.7C142.7 192.7 143.3 192.9 143.9 193.3C144.4 193.7 144.9 194.3 145.1 195.1C145.4 195.9 145.5 196.9 145.5 198C145.5 199.1 145.4 200.1 145.1 200.9C144.8 201.7 144.4 202.3 143.9 202.7C143.3 203.1 142.6 203.3 141.9 203.3ZM141.9 202.2C142.7 202.2 143.3 201.8 143.7 201.1C144.1 200.4 144.3 199.3 144.3 197.9C144.3 197 144.2 196.2 144 195.6C143.8 195 143.5 194.5 143.2 194.1C142.8 193.8 142.4 193.6 141.9 193.6C141.1 193.6 140.6 194 140.1 194.7C139.7 195.4 139.5 196.5 139.5 197.9C139.5 198.8 139.6 199.6 139.8 200.2C140 200.8 140.3 201.3 140.6 201.6C140.9 202 141.4 202.2 141.9 202.2Z" fill="#D3D3D3"/>
<path d="M147.5 203.2V202.3L151 198.5C151.4 198.1 151.7 197.7 152 197.3C152.3 197 152.5 196.7 152.6 196.4C152.7 196.1 152.8 195.8 152.8 195.5C152.8 195.1 152.7 194.8 152.5 194.5C152.3 194.2 152.1 194 151.8 193.9C151.5 193.8 151.2 193.7 150.8 193.7C150.4 193.7 150 193.8 149.7 193.9C149.4 194.1 149.2 194.3 149 194.6C148.8 194.9 148.8 195.2 148.8 195.6H147.6C147.6 195 147.7 194.4 148 194C148.3 193.5 148.7 193.2 149.2 192.9C149.7 192.6 150.2 192.5 150.9 192.5C151.5 192.5 152.1 192.6 152.5 192.9C153 193.2 153.3 193.5 153.6 193.9C153.9 194.3 154 194.8 154 195.4C154 195.8 153.9 196.2 153.8 196.5C153.7 196.9 153.4 197.3 153.1 197.7C152.8 198.1 152.3 198.7 151.7 199.3L149.3 201.8V201.9H154.2V203H147.5V203.2Z" fill="#D3D3D3"/>
<path d="M155.9 201V200L160.5 192.7H161.3V194.3H160.8L157.3 199.8V199.9H163.5V201H155.9ZM160.9 203.2V200.7V200.2V192.7H162.1V203.2H160.9Z" fill="#D3D3D3"/>
<path d="M168 198.7C168 200 167.8 201.2 167.5 202.3C167.2 203.4 166.7 204.4 166.1 205.3H165C165.2 205 165.5 204.5 165.7 204.1C165.9 203.7 166.1 203.1 166.3 202.5C166.5 201.9 166.6 201.3 166.7 200.7C166.8 200.1 166.8 199.5 166.8 198.8C166.8 198 166.7 197.2 166.6 196.3C166.4 195.5 166.2 194.7 166 194C165.7 193.3 165.4 192.7 165.1 192.2H166.2C166.8 193.1 167.3 194.1 167.6 195.2C167.9 196.3 168 197.5 168 198.7Z" fill="#D3D3D3"/>
</g>
<mask id="mask10_4_2374" style="mask-type:luminance" maskUnits="userSpaceOnUse" x="0" y="0" width="1521" height="255">
<path d="M1521 0H0V255H1521V0Z" fill="white"/>
</mask>
<g mask="url(#mask10_4_2374)">
<path d="M63.9 59.9H57V38.4H64.2C66.3 38.4 68.1 38.8 69.6 39.7C71.1 40.6 72.3 41.8 73.1 43.4C73.9 45 74.3 46.9 74.3 49.1C74.3 51.3 73.9 53.3 73.1 54.9C72.3 56.5 71.1 57.7 69.6 58.6C67.9 59.5 66.1 59.9 63.9 59.9ZM60.2 57.1H63.7C65.3 57.1 66.7 56.8 67.8 56.2C68.9 55.6 69.7 54.7 70.2 53.5C70.7 52.3 71 50.9 71 49.2C71 47.5 70.7 46.1 70.2 44.9C69.7 43.7 68.9 42.8 67.8 42.2C66.7 41.6 65.4 41.3 63.9 41.3H60.2V57.1Z" fill="#242438"/>
<path d="M79.6001 41.3C79.1001 41.3 78.6001 41.1 78.2001 40.7C77.8001 40.3 77.6001 39.9 77.6001 39.4C77.6001 38.9 77.8001 38.4 78.2001 38.1C78.6001 37.7 79.1001 37.5 79.6001 37.5C80.1001 37.5 80.6001 37.7 81.0001 38.1C81.4001 38.5 81.6001 38.9 81.6001 39.4C81.6001 39.9 81.4001 40.4 81.0001 40.7C80.6001 41.1 80.1001 41.3 79.6001 41.3ZM78.0001 59.9V43.8H81.1001V59.9H78.0001Z" fill="#242438"/>
<path d="M91.3 60.2C90 60.2 88.8 59.9 87.8 59.2C86.8 58.5 86 57.6 85.4 56.3C84.8 55.1 84.5 53.6 84.5 51.8C84.5 50.1 84.8 48.6 85.4 47.3C86 46.1 86.8 45.1 87.8 44.5C88.8 43.8 90 43.5 91.3 43.5C92.3 43.5 93.1 43.7 93.7 44C94.3 44.3 94.8 44.7 95.1 45.2C95.4 45.6 95.7 46 95.9 46.4H96.1V38.4H99.2V59.9H96.1V57.4H96C95.8 57.7 95.5 58.1 95.2 58.6C94.8 59 94.4 59.4 93.7 59.8C93.1 60 92.3 60.2 91.3 60.2ZM92 57.5C92.9 57.5 93.7 57.3 94.3 56.8C94.9 56.3 95.4 55.7 95.7 54.8C96 53.9 96.2 53 96.2 51.8C96.2 50.7 96 49.7 95.7 48.9C95.4 48.1 94.9 47.4 94.3 46.9C93.7 46.4 92.9 46.2 92 46.2C91.1 46.2 90.3 46.4 89.6 46.9C88.9 47.4 88.5 48.1 88.2 48.9C87.9 49.7 87.7 50.7 87.7 51.8C87.7 52.9 87.9 53.8 88.2 54.7C88.5 55.6 89 56.2 89.6 56.7C90.2 57.2 91.1 57.5 92 57.5Z" fill="#242438"/>
<path d="M113.6 65.9C113.1 65.9 112.7 65.9 112.3 65.8C111.9 65.7 111.6 65.6 111.4 65.6L112.2 63C112.8 63.2 113.3 63.2 113.7 63.2C114.1 63.2 114.5 63 114.9 62.7C115.3 62.4 115.6 61.9 115.8 61.2L116.2 60.1L110.3 43.8H113.7L117.8 56.3H118L122.1 43.8H125.5L118.7 62C118.4 62.8 118 63.5 117.5 64.1C117 64.7 116.5 65.1 115.8 65.4C115.2 65.8 114.5 65.9 113.6 65.9Z" fill="#242438"/>
<path d="M135.1 60.2C133.6 60.2 132.3 59.9 131.1 59.2C130 58.5 129.1 57.5 128.5 56.3C127.9 55.1 127.6 53.6 127.6 51.9C127.6 50.2 127.9 48.8 128.5 47.5C129.1 46.2 130 45.3 131.1 44.6C132.2 43.9 133.5 43.6 135.1 43.6C136.7 43.6 137.9 43.9 139.1 44.6C140.2 45.3 141.1 46.3 141.7 47.5C142.3 48.7 142.6 50.2 142.6 51.9C142.6 53.6 142.3 55 141.7 56.3C141.1 57.5 140.2 58.5 139.1 59.2C137.9 59.9 136.6 60.2 135.1 60.2ZM135.1 57.6C136.1 57.6 136.9 57.3 137.5 56.8C138.1 56.3 138.6 55.6 138.9 54.7C139.2 53.8 139.4 52.9 139.4 51.9C139.4 50.9 139.2 49.9 138.9 49.1C138.6 48.2 138.1 47.5 137.5 47C136.9 46.5 136 46.2 135.1 46.2C134.1 46.2 133.3 46.5 132.7 47C132.1 47.5 131.6 48.2 131.3 49.1C131 50 130.8 50.9 130.8 51.9C130.8 52.9 131 53.9 131.3 54.7C131.6 55.6 132.1 56.2 132.7 56.8C133.3 57.3 134.1 57.6 135.1 57.6Z" fill="#242438"/>
<path d="M156.3 53.2V43.8H159.4V59.9H156.3V57.1H156.1C155.7 58 155.1 58.7 154.3 59.2C153.5 59.8 152.5 60.1 151.3 60.1C150.3 60.1 149.4 59.9 148.6 59.4C147.8 58.9 147.2 58.3 146.7 57.4C146.2 56.5 146 55.4 146 54.1V43.8H149.1V53.7C149.1 54.8 149.4 55.7 150 56.3C150.6 57 151.4 57.3 152.4 57.3C153 57.3 153.6 57.2 154.2 56.9C154.8 56.6 155.3 56.2 155.7 55.6C156.1 55 156.3 54.1 156.3 53.2Z" fill="#242438"/>
<path d="M171.5 59.9V38.4H174.6V59.9H171.5ZM174.4 54.4V50.6H174.9L181.3 43.8H185.1L177.8 51.6H177.3L174.4 54.4ZM181.6 59.9L175.8 52.2L178 50L185.5 59.8H181.6V59.9Z" fill="#15BEE6"/>
<path d="M191 50.3V59.9H187.9V43.8H190.9V46.4H191.1C191.5 45.5 192.1 44.9 192.8 44.3C193.6 43.8 194.6 43.5 195.8 43.5C196.9 43.5 197.9 43.7 198.7 44.2C199.5 44.7 200.2 45.3 200.6 46.2C201.1 47.1 201.3 48.2 201.3 49.5V59.7H198.2V50C198.2 48.8 197.9 47.9 197.3 47.3C196.7 46.6 195.9 46.3 194.8 46.3C194.1 46.3 193.4 46.5 192.9 46.8C192.4 47.1 191.9 47.6 191.6 48.2C191.2 48.7 191 49.5 191 50.3Z" fill="#15BEE6"/>
<path d="M212.3 60.2C210.8 60.2 209.5 59.9 208.3 59.2C207.2 58.5 206.3 57.5 205.7 56.3C205.1 55.1 204.8 53.6 204.8 51.9C204.8 50.2 205.1 48.8 205.7 47.5C206.3 46.2 207.2 45.3 208.3 44.6C209.4 43.9 210.7 43.6 212.3 43.6C213.9 43.6 215.1 43.9 216.3 44.6C217.4 45.3 218.3 46.3 218.9 47.5C219.5 48.7 219.8 50.2 219.8 51.9C219.8 53.6 219.5 55 218.9 56.3C218.3 57.5 217.4 58.5 216.3 59.2C215.1 59.9 213.8 60.2 212.3 60.2ZM212.3 57.6C213.3 57.6 214.1 57.3 214.7 56.8C215.3 56.3 215.8 55.6 216.1 54.7C216.4 53.8 216.6 52.9 216.6 51.9C216.6 50.9 216.4 49.9 216.1 49.1C215.8 48.2 215.3 47.5 214.7 47C214.1 46.5 213.2 46.2 212.3 46.2C211.3 46.2 210.5 46.5 209.9 47C209.3 47.5 208.8 48.2 208.5 49.1C208.2 50 208 50.9 208 51.9C208 52.9 208.2 53.9 208.5 54.7C208.8 55.6 209.3 56.2 209.9 56.8C210.5 57.3 211.3 57.6 212.3 57.6Z" fill="#15BEE6"/>
<path d="M226.8 59.9L222.1 43.8H225.3L228.5 55.6H228.7L231.9 43.8H235.1L238.2 55.6H238.4L241.5 43.8H244.7L240 59.9H236.8L233.5 48.3H233.3L230 59.9H226.8Z" fill="#15BEE6"/>
<path d="M251.1 53.5C251.1 52.2 251.2 51.2 251.5 50.4C251.8 49.6 252.1 49 252.6 48.5C253.1 48 253.6 47.6 254.3 47.2C254.7 46.9 255.1 46.6 255.4 46.3C255.7 46 256 45.6 256.2 45.2C256.4 44.8 256.5 44.3 256.5 43.8C256.5 43.2 256.4 42.6 256.1 42.2C255.8 41.7 255.4 41.4 254.9 41.1C254.4 40.8 253.9 40.7 253.3 40.7C252.8 40.7 252.2 40.8 251.8 41C251.4 41.2 250.9 41.6 250.6 42C250.3 42.4 250.1 43.1 250 43.8H246.8C246.8 42.5 247.2 41.5 247.8 40.6C248.4 39.7 249.2 39.1 250.1 38.6C251 38.1 252.1 37.9 253.3 37.9C254.6 37.9 255.7 38.1 256.7 38.6C257.7 39.1 258.4 39.7 258.9 40.6C259.4 41.5 259.7 42.5 259.7 43.6C259.7 44.4 259.6 45.1 259.3 45.7C259.1 46.3 258.7 46.9 258.3 47.4C257.8 47.9 257.3 48.3 256.7 48.7C256.1 49.1 255.6 49.5 255.3 49.9C254.9 50.3 254.7 50.8 254.5 51.3C254.3 51.8 254.2 52.5 254.2 53.3V53.5H251.1ZM252.7 60.1C252.1 60.1 251.6 59.9 251.2 59.5C250.8 59.1 250.6 58.6 250.6 58C250.6 57.4 250.8 56.9 251.2 56.5C251.6 56.1 252.1 55.9 252.7 55.9C253.3 55.9 253.8 56.1 254.2 56.5C254.6 56.9 254.8 57.4 254.8 58C254.8 58.4 254.7 58.7 254.5 59.1C254.3 59.4 254.1 59.7 253.7 59.9C253.4 60 253 60.1 252.7 60.1Z" fill="#15BEE6"/>
<path d="M257 64.6H170.9V67.2H257V64.6Z" fill="#D9F4F9"/>
</g>
</g>
<defs>
<clipPath id="clip0_4_2374">
<rect width="1521" height="255" fill="white"/>
</clipPath>
</defs>
</svg>
