<svg width="1521" height="255" viewBox="0 0 1521 255" fill="none" xmlns="http://www.w3.org/2000/svg">
<g clip-path="url(#clip0_4_1327)">
<path d="M1521 0H0V255H1521V0Z" fill="white"/>
<mask id="mask0_4_1327" style="mask-type:luminance" maskUnits="userSpaceOnUse" x="0" y="0" width="1521" height="255">
<path d="M1521 0H0V255H1521V0Z" fill="white"/>
</mask>
<g mask="url(#mask0_4_1327)">
<path d="M589.8 65C625.7 65 654.8 35.9 654.8 0H524.8C524.8 35.9 553.9 65 589.8 65Z" fill="#F2FCFF"/>
</g>
<mask id="mask1_4_1327" style="mask-type:luminance" maskUnits="userSpaceOnUse" x="0" y="0" width="1521" height="255">
<path d="M1521 0H0V255H1521V0Z" fill="white"/>
</mask>
<g mask="url(#mask1_4_1327)">
<path d="M1163.8 214.2C1141.3 214.2 1123 232.5 1123 255H1204.6C1204.6 232.5 1186.3 214.2 1163.8 214.2Z" fill="#F2FCFF"/>
</g>
<mask id="mask2_4_1327" style="mask-type:luminance" maskUnits="userSpaceOnUse" x="0" y="0" width="1521" height="255">
<path d="M1521 0H0V255H1521V0Z" fill="white"/>
</mask>
<g mask="url(#mask2_4_1327)">
<path d="M56.9999 64.7C65.0633 64.7 71.5999 58.1634 71.5999 50.1C71.5999 42.0366 65.0633 35.5 56.9999 35.5C48.9365 35.5 42.3999 42.0366 42.3999 50.1C42.3999 58.1634 48.9365 64.7 56.9999 64.7Z" fill="#F9FEFA"/>
</g>
<mask id="mask3_4_1327" style="mask-type:luminance" maskUnits="userSpaceOnUse" x="0" y="0" width="1521" height="255">
<path d="M1521 0H0V255H1521V0Z" fill="white"/>
</mask>
<g mask="url(#mask3_4_1327)">
<path d="M1176.7 125.6L1167.7 119L1174.3 110L1169.8 106.7L1163.2 115.7L1154.4 109.3L1151.1 113.8L1159.9 120.2L1153.4 129L1157.9 132.3L1164.4 123.5L1173.4 130.1L1176.7 125.6Z" fill="#D4F6FF"/>
</g>
<mask id="mask4_4_1327" style="mask-type:luminance" maskUnits="userSpaceOnUse" x="0" y="0" width="1521" height="255">
<path d="M1521 0H0V255H1521V0Z" fill="white"/>
</mask>
<g mask="url(#mask4_4_1327)">
<path d="M1456 192C1461.52 192 1466 187.523 1466 182C1466 176.477 1461.52 172 1456 172C1450.48 172 1446 176.477 1446 182C1446 187.523 1450.48 192 1456 192Z" fill="#F2FCFF"/>
</g>
<mask id="mask5_4_1327" style="mask-type:luminance" maskUnits="userSpaceOnUse" x="0" y="0" width="1521" height="255">
<path d="M1521 0H0V255H1521V0Z" fill="white"/>
</mask>
<g mask="url(#mask5_4_1327)">
<path d="M655 274C667.703 274 678 263.703 678 251C678 238.297 667.703 228 655 228C642.297 228 632 238.297 632 251C632 263.703 642.297 274 655 274Z" fill="#F2FCFF"/>
</g>
<mask id="mask6_4_1327" style="mask-type:luminance" maskUnits="userSpaceOnUse" x="0" y="0" width="1521" height="255">
<path d="M1521 0H0V255H1521V0Z" fill="white"/>
</mask>
<g mask="url(#mask6_4_1327)">
<path d="M64.2002 85.6001V118.8H58.2002V85.6001H64.2002Z" fill="#77809C"/>
<path d="M75.9 104.2V118.8H70V93.9001H75.6V98.1001H75.9C76.5 96.7001 77.4 95.6001 78.6 94.8001C79.9 94.0001 81.4 93.6001 83.3 93.6001C85 93.6001 86.5 94.0001 87.8 94.7001C89.1 95.4001 90.1 96.5001 90.8 97.9001C91.5 99.3001 91.9 101 91.8 103V118.9H86V103.9C86 102.2 85.6 100.9 84.7 100C83.8 99.1001 82.7 98.6001 81.1 98.6001C80.1 98.6001 79.2 98.8001 78.4 99.3001C77.6 99.7001 77 100.4 76.5 101.2C76 102 75.9 103 75.9 104.2Z" fill="#77809C"/>
<path d="M109.8 93.8999V98.3999H95.5V93.8999H109.8ZM99.1 87.8999H105V111.3C105 112.1 105.1 112.7 105.4 113.1C105.6 113.5 106 113.8 106.4 114C106.8 114.2 107.2 114.2 107.7 114.2C108.1 114.2 108.4 114.2 108.7 114.1C109 114 109.2 114 109.4 114L110.4 118.6C110.1 118.7 109.6 118.8 109.1 119C108.5 119.1 107.8 119.2 107 119.2C105.5 119.2 104.2 119 103 118.5C101.8 118 100.9 117.2 100.2 116.2C99.5 115.2 99.2 113.9 99.2 112.3V87.8999H99.1Z" fill="#77809C"/>
<path d="M125.3 119.3C122.8 119.3 120.6 118.8 118.8 117.7C117 116.7 115.6 115.2 114.6 113.3C113.6 111.4 113.1 109.1 113.1 106.5C113.1 103.9 113.6 101.7 114.6 99.7001C115.6 97.8001 116.9 96.2001 118.7 95.2001C120.5 94.2001 122.5 93.6001 124.9 93.6001C126.4 93.6001 127.9 93.8001 129.3 94.3001C130.7 94.8001 131.9 95.6001 132.9 96.6001C134 97.6001 134.8 98.9001 135.4 100.5C136 102.1 136.3 104 136.3 106.2V108H116V104H130.8C130.8 102.9 130.5 101.9 130.1 101C129.6 100.1 129 99.4001 128.1 98.9001C127.3 98.4001 126.3 98.1001 125.1 98.1001C123.9 98.1001 122.8 98.4001 121.9 99.0001C121 99.6001 120.3 100.3 119.8 101.3C119.3 102.3 119 103.3 119 104.4V107.9C119 109.3 119.3 110.6 119.8 111.6C120.3 112.6 121.1 113.4 122 114C123 114.5 124.1 114.8 125.3 114.8C126.2 114.8 126.9 114.7 127.6 114.4C128.3 114.2 128.9 113.8 129.4 113.3C129.9 112.8 130.3 112.2 130.6 111.5L136.1 112.1C135.8 113.5 135.1 114.8 134.1 115.9C133.1 117 131.9 117.8 130.4 118.4C129 119 127.3 119.3 125.3 119.3Z" fill="#77809C"/>
<path d="M140.9 118.8V93.9H146.6V98H146.9C147.4 96.6 148.1 95.5 149.2 94.7C150.3 93.9 151.6 93.5 153 93.5C153.3 93.5 153.7 93.5 154.1 93.5C154.5 93.5 154.8 93.6 155.1 93.6V99C154.9 98.9 154.5 98.8 153.9 98.8C153.3 98.8 152.8 98.7 152.4 98.7C151.3 98.7 150.4 98.9 149.5 99.4C148.6 99.9 148 100.5 147.5 101.3C147 102.1 146.8 103 146.8 104.1V118.7H140.9V118.8Z" fill="#77809C"/>
<path d="M164.5 104.2V118.8H158.6V93.9001H164.2V98.1001H164.5C165.1 96.7001 166 95.6001 167.2 94.8001C168.5 94.0001 170 93.6001 171.9 93.6001C173.6 93.6001 175.1 94.0001 176.4 94.7001C177.7 95.4001 178.7 96.5001 179.4 97.9001C180.1 99.3001 180.5 101 180.4 103V118.9H174.5V103.9C174.5 102.2 174.1 100.9 173.2 100C172.3 99.1001 171.2 98.6001 169.6 98.6001C168.6 98.6001 167.7 98.8001 166.9 99.3001C166.1 99.7001 165.5 100.4 165 101.2C164.5 102 164.5 103 164.5 104.2Z" fill="#77809C"/>
<path d="M193.1 119.3C191.5 119.3 190.1 119 188.8 118.4C187.5 117.8 186.5 117 185.8 115.9C185.1 114.8 184.7 113.4 184.7 111.8C184.7 110.4 185 109.2 185.5 108.3C186 107.4 186.7 106.6 187.6 106.1C188.5 105.5 189.5 105.1 190.6 104.8C191.7 104.5 192.9 104.3 194.1 104.2C195.6 104 196.7 103.9 197.7 103.8C198.7 103.7 199.3 103.5 199.7 103.2C200.1 102.9 200.3 102.5 200.3 102V101.9C200.3 100.7 199.9 99.7 199.2 99.1C198.5 98.4 197.4 98.1 196.1 98.1C194.7 98.1 193.5 98.4 192.7 99C191.9 99.6 191.3 100.4 191 101.2L185.5 100.4C185.9 98.9 186.6 97.6 187.6 96.6C188.6 95.6 189.8 94.8 191.2 94.3C192.6 93.8 194.2 93.5 196 93.5C197.2 93.5 198.4 93.6 199.6 93.9C200.8 94.2 201.9 94.6 202.9 95.3C203.9 96 204.7 96.8 205.3 97.9C205.9 99 206.2 100.4 206.2 102V118.7H200.6V115.3H200.4C200 116 199.5 116.6 198.9 117.2C198.3 117.8 197.5 118.3 196.5 118.6C195.6 119.1 194.4 119.3 193.1 119.3ZM194.7 115C195.9 115 196.9 114.8 197.8 114.3C198.7 113.8 199.3 113.2 199.8 112.4C200.3 111.6 200.5 110.8 200.5 109.9V107C200.3 107.2 200 107.3 199.6 107.4C199.2 107.5 198.7 107.6 198.1 107.7C197.6 107.8 197 107.9 196.5 108C196 108.1 195.5 108.1 195.1 108.2C194.2 108.3 193.4 108.5 192.7 108.8C192 109.1 191.5 109.4 191.1 109.9C190.7 110.4 190.5 111 190.5 111.8C190.5 112.9 190.9 113.7 191.7 114.2C192.4 114.7 193.5 115 194.7 115Z" fill="#77809C"/>
<path d="M224.2 93.8999V98.3999H209.9V93.8999H224.2ZM213.4 87.8999H219.3V111.3C219.3 112.1 219.4 112.7 219.7 113.1C219.9 113.5 220.3 113.8 220.7 114C221.1 114.2 221.5 114.2 222 114.2C222.4 114.2 222.7 114.2 223 114.1C223.3 114 223.5 114 223.7 114L224.7 118.6C224.4 118.7 223.9 118.8 223.4 119C222.8 119.1 222.1 119.2 221.3 119.2C219.8 119.2 218.5 119 217.3 118.5C216.1 118 215.2 117.2 214.5 116.2C213.8 115.2 213.5 113.9 213.5 112.3V87.8999H213.4Z" fill="#77809C"/>
<path d="M231.6 90.3C230.7 90.3 229.9 90 229.2 89.4C228.5 88.8 228.2 88 228.2 87.1C228.2 86.2 228.5 85.5 229.2 84.9C229.9 84.3 230.7 84 231.6 84C232.5 84 233.3 84.3 234 84.9C234.7 85.5 235 86.3 235 87.2C235 88.1 234.7 88.8 234 89.4C233.4 90 232.6 90.3 231.6 90.3ZM228.7 118.8V93.9H234.6V118.8H228.7Z" fill="#77809C"/>
<path d="M251 119.3C248.6 119.3 246.5 118.8 244.7 117.7C242.9 116.6 241.5 115.1 240.6 113.2C239.6 111.3 239.1 109 239.1 106.5C239.1 103.9 239.6 101.7 240.6 99.7001C241.6 97.8001 243 96.3001 244.7 95.2001C246.5 94.1001 248.6 93.6001 251 93.6001C253.4 93.6001 255.5 94.1001 257.3 95.2001C259.1 96.3001 260.5 97.8001 261.4 99.7001C262.4 101.6 262.9 103.9 262.9 106.5C262.9 109.1 262.4 111.3 261.4 113.2C260.4 115.1 259 116.6 257.3 117.7C255.5 118.7 253.4 119.3 251 119.3ZM251 114.6C252.3 114.6 253.4 114.2 254.3 113.5C255.2 112.8 255.8 111.8 256.3 110.6C256.7 109.4 257 108 257 106.5C257 105 256.8 103.6 256.3 102.4C255.8 101.2 255.2 100.2 254.3 99.4001C253.4 98.7001 252.3 98.3001 251 98.3001C249.6 98.3001 248.5 98.7001 247.6 99.4001C246.7 100.1 246 101.1 245.6 102.4C245.2 103.7 244.9 105 244.9 106.5C244.9 108 245.1 109.4 245.6 110.6C246 111.8 246.7 112.8 247.6 113.5C248.5 114.2 249.7 114.6 251 114.6Z" fill="#77809C"/>
<path d="M273.3 104.2V118.8H267.4V93.9001H273V98.1001H273.3C273.9 96.7001 274.8 95.6001 276 94.8001C277.3 94.0001 278.8 93.6001 280.7 93.6001C282.4 93.6001 283.9 94.0001 285.2 94.7001C286.5 95.4001 287.5 96.5001 288.2 97.9001C288.9 99.3001 289.3 101 289.2 103V118.9H283.3V103.9C283.3 102.2 282.9 100.9 282 100C281.1 99.1001 280 98.6001 278.4 98.6001C277.4 98.6001 276.5 98.8001 275.7 99.3001C274.9 99.7001 274.3 100.4 273.8 101.2C273.3 102 273.3 103 273.3 104.2Z" fill="#77809C"/>
<path d="M302 119.3C300.4 119.3 299 119 297.7 118.4C296.4 117.8 295.4 117 294.7 115.9C294 114.8 293.6 113.4 293.6 111.8C293.6 110.4 293.9 109.2 294.4 108.3C294.9 107.4 295.6 106.6 296.5 106.1C297.4 105.5 298.4 105.1 299.5 104.8C300.6 104.5 301.8 104.3 303 104.2C304.5 104 305.6 103.9 306.6 103.8C307.6 103.7 308.2 103.5 308.6 103.2C309 102.9 309.2 102.5 309.2 102V101.9C309.2 100.7 308.8 99.7 308.1 99.1C307.4 98.4 306.3 98.1 305 98.1C303.6 98.1 302.4 98.4 301.6 99C300.8 99.6 300.2 100.4 299.9 101.2L294.4 100.4C294.8 98.9 295.5 97.6 296.5 96.6C297.5 95.6 298.7 94.8 300.1 94.3C301.5 93.8 303.1 93.5 304.9 93.5C306.1 93.5 307.3 93.6 308.5 93.9C309.7 94.2 310.8 94.6 311.8 95.3C312.8 96 313.6 96.8 314.2 97.9C314.8 99 315.1 100.4 315.1 102V118.7H309.5V115.3H309.3C308.9 116 308.4 116.6 307.8 117.2C307.2 117.8 306.4 118.3 305.4 118.6C304.4 119.1 303.3 119.3 302 119.3ZM303.5 115C304.7 115 305.7 114.8 306.6 114.3C307.5 113.8 308.1 113.2 308.6 112.4C309.1 111.6 309.3 110.8 309.3 109.9V107C309.1 107.2 308.8 107.3 308.4 107.4C308 107.5 307.5 107.6 306.9 107.7C306.4 107.8 305.8 107.9 305.3 108C304.8 108.1 304.3 108.1 303.9 108.2C303 108.3 302.2 108.5 301.5 108.8C300.8 109.1 300.3 109.4 299.9 109.9C299.5 110.4 299.3 111 299.3 111.8C299.3 112.9 299.7 113.7 300.5 114.2C301.3 114.7 302.3 115 303.5 115Z" fill="#77809C"/>
<path d="M326.5 85.6001V118.8H320.6V85.6001H326.5Z" fill="#77809C"/>
<path d="M342.9 128.1V93.9001H348.7V98.0001H349C349.3 97.4001 349.7 96.7001 350.3 96.1001C350.9 95.4001 351.6 94.8001 352.5 94.3001C353.4 93.8001 354.6 93.6001 356.1 93.6001C358 93.6001 359.8 94.1001 361.3 95.1001C362.8 96.1001 364.1 97.5001 365 99.4001C365.9 101.3 366.4 103.6 366.4 106.4C366.4 109.1 366 111.5 365.1 113.4C364.2 115.3 363 116.8 361.4 117.8C359.8 118.8 358.1 119.3 356.1 119.3C354.7 119.3 353.5 119.1 352.5 118.6C351.6 118.1 350.8 117.5 350.2 116.9C349.6 116.2 349.2 115.6 348.9 115H348.7V128.3H342.9V128.1ZM348.7 106.3C348.7 107.9 348.9 109.3 349.4 110.5C349.9 111.7 350.5 112.7 351.4 113.3C352.3 113.9 353.3 114.3 354.6 114.3C355.9 114.3 357 114 357.9 113.3C358.8 112.6 359.4 111.6 359.9 110.4C360.3 109.2 360.6 107.8 360.6 106.2C360.6 104.7 360.4 103.3 359.9 102.1C359.5 100.9 358.8 100 357.9 99.3001C357 98.6001 355.9 98.3001 354.6 98.3001C353.3 98.3001 352.3 98.6001 351.4 99.3001C350.5 100 349.9 100.9 349.4 102.1C348.9 103.3 348.7 104.7 348.7 106.3Z" fill="#77809C"/>
<path d="M371 118.8V93.9H376.7V98H377C377.5 96.6 378.2 95.5 379.3 94.7C380.4 93.9 381.7 93.5 383.1 93.5C383.4 93.5 383.8 93.5 384.2 93.5C384.6 93.5 384.9 93.6 385.2 93.6V99C385 98.9 384.6 98.8 384 98.8C383.4 98.8 382.9 98.7 382.5 98.7C381.4 98.7 380.5 98.9 379.6 99.4C378.7 99.9 378.1 100.5 377.6 101.3C377.1 102.1 376.9 103 376.9 104.1V118.7H371V118.8Z" fill="#77809C"/>
<path d="M399.6 119.3C397.2 119.3 395.1 118.8 393.3 117.7C391.5 116.6 390.1 115.1 389.2 113.2C388.2 111.3 387.7 109 387.7 106.5C387.7 103.9 388.2 101.7 389.2 99.7001C390.2 97.8001 391.6 96.3001 393.3 95.2001C395.1 94.1001 397.2 93.6001 399.6 93.6001C402 93.6001 404.1 94.1001 405.9 95.2001C407.7 96.3001 409.1 97.8001 410 99.7001C411 101.6 411.5 103.9 411.5 106.5C411.5 109.1 411 111.3 410 113.2C409 115.1 407.6 116.6 405.9 117.7C404.1 118.7 402 119.3 399.6 119.3ZM399.6 114.6C400.9 114.6 402 114.2 402.9 113.5C403.8 112.8 404.4 111.8 404.9 110.6C405.3 109.4 405.6 108 405.6 106.5C405.6 105 405.4 103.6 404.9 102.4C404.4 101.2 403.8 100.2 402.9 99.4001C402 98.7001 400.9 98.3001 399.6 98.3001C398.2 98.3001 397.1 98.7001 396.2 99.4001C395.3 100.1 394.6 101.1 394.2 102.4C393.8 103.7 393.5 105 393.5 106.5C393.5 108 393.7 109.4 394.2 110.6C394.6 111.8 395.3 112.8 396.2 113.5C397.1 114.2 398.2 114.6 399.6 114.6Z" fill="#77809C"/>
<path d="M416 93.9H421.9V120.2C421.9 122 421.6 123.5 420.9 124.6C420.2 125.8 419.2 126.6 417.9 127.2C416.6 127.8 415.1 128.1 413.2 128.1C413 128.1 412.8 128.1 412.6 128.1C412.4 128.1 412.2 128.1 412 128.1V123.3C412.2 123.3 412.3 123.3 412.4 123.3C412.5 123.3 412.7 123.3 412.8 123.3C413.9 123.3 414.7 123 415.2 122.5C415.7 122 415.9 121.2 415.9 120.1V93.9H416ZM418.9 90.3C418 90.3 417.2 90 416.5 89.4C415.8 88.8 415.5 88 415.5 87.2C415.5 86.3 415.8 85.6 416.5 84.9C417.2 84.2 418 84 418.9 84C419.8 84 420.6 84.3 421.3 84.9C422 85.5 422.3 86.3 422.3 87.2C422.3 88.1 422 88.8 421.3 89.4C420.6 90 419.9 90.3 418.9 90.3Z" fill="#77809C"/>
<path d="M438.5 119.3C436 119.3 433.8 118.8 432 117.7C430.2 116.7 428.8 115.2 427.8 113.3C426.8 111.4 426.3 109.1 426.3 106.5C426.3 103.9 426.8 101.7 427.8 99.7001C428.8 97.8001 430.1 96.2001 431.9 95.2001C433.7 94.2001 435.7 93.6001 438.1 93.6001C439.6 93.6001 441.1 93.8001 442.5 94.3001C443.9 94.8001 445.1 95.6001 446.1 96.6001C447.2 97.6001 448 98.9001 448.6 100.5C449.2 102.1 449.5 104 449.5 106.2V108H429.1V104H443.9C443.9 102.9 443.6 101.9 443.2 101C442.7 100.1 442.1 99.4001 441.2 98.9001C440.4 98.4001 439.4 98.1001 438.2 98.1001C437 98.1001 435.9 98.4001 435 99.0001C434.1 99.6001 433.4 100.3 432.9 101.3C432.4 102.3 432.1 103.3 432.1 104.4V107.9C432.1 109.3 432.4 110.6 432.9 111.6C433.4 112.6 434.2 113.4 435.1 114C436.1 114.5 437.2 114.8 438.4 114.8C439.3 114.8 440 114.7 440.7 114.4C441.4 114.2 442 113.8 442.5 113.3C443 112.8 443.4 112.2 443.7 111.5L449.2 112.1C448.9 113.5 448.2 114.8 447.2 115.9C446.2 117 445 117.8 443.5 118.4C442.1 119 440.4 119.3 438.5 119.3Z" fill="#77809C"/>
<path d="M464.9 119.3C462.4 119.3 460.3 118.8 458.5 117.7C456.7 116.6 455.4 115.1 454.4 113.2C453.4 111.3 453 109 453 106.5C453 104 453.5 101.7 454.5 99.8C455.5 97.9 456.8 96.3 458.6 95.3C460.4 94.3 462.5 93.7 464.9 93.7C466.9 93.7 468.7 94.1 470.3 94.8C471.9 95.5 473.1 96.6 474 97.9C474.9 99.2 475.5 100.8 475.6 102.6H470C469.8 101.4 469.2 100.4 468.4 99.6C467.6 98.8 466.4 98.4 465 98.4C463.8 98.4 462.7 98.7 461.8 99.4C460.9 100 460.2 101 459.7 102.2C459.2 103.4 458.9 104.8 458.9 106.5C458.9 108.2 459.1 109.7 459.6 110.9C460.1 112.1 460.8 113.1 461.7 113.7C462.6 114.3 463.7 114.7 464.9 114.7C465.8 114.7 466.5 114.5 467.2 114.2C467.9 113.9 468.5 113.4 468.9 112.8C469.4 112.2 469.7 111.4 469.9 110.5H475.5C475.4 112.3 474.8 113.8 473.9 115.2C473 116.6 471.8 117.6 470.2 118.4C468.8 118.9 467 119.3 464.9 119.3Z" fill="#77809C"/>
<path d="M492.4 93.8999V98.3999H478.1V93.8999H492.4ZM481.6 87.8999H487.5V111.3C487.5 112.1 487.6 112.7 487.9 113.1C488.1 113.5 488.5 113.8 488.9 114C489.3 114.2 489.7 114.2 490.2 114.2C490.6 114.2 490.9 114.2 491.2 114.1C491.5 114 491.7 114 491.9 114L492.9 118.6C492.6 118.7 492.1 118.8 491.6 119C491 119.1 490.3 119.2 489.5 119.2C488 119.2 486.7 119 485.5 118.5C484.3 118 483.4 117.2 482.7 116.2C482 115.2 481.7 113.9 481.7 112.3V87.8999H481.6Z" fill="#77809C"/>
<path d="M520.4 93.9V98.4H505.7V93.9H520.4ZM509.3 118.8V91.5C509.3 89.8 509.6 88.4 510.3 87.3C511 86.2 511.9 85.4 513.1 84.8C514.3 84.2 515.6 84 517 84C518 84 518.9 84.1 519.7 84.2C520.5 84.4 521.1 84.5 521.5 84.6L520.3 89.1C520.1 89 519.7 88.9 519.4 88.9C519.1 88.9 518.6 88.8 518.1 88.8C517 88.8 516.2 89.1 515.8 89.6C515.4 90.1 515.1 90.9 515.1 91.8V118.7H509.3V118.8Z" fill="#77809C"/>
<path d="M527.5 90.3C526.6 90.3 525.8 90 525.1 89.4C524.4 88.8 524.1 88 524.1 87.1C524.1 86.2 524.4 85.5 525.1 84.9C525.8 84.3 526.6 84 527.5 84C528.4 84 529.2 84.3 529.9 84.9C530.6 85.5 530.9 86.3 530.9 87.2C530.9 88.1 530.6 88.8 529.9 89.4C529.2 90 528.4 90.3 527.5 90.3ZM524.5 118.8V93.9H530.4V118.8H524.5Z" fill="#77809C"/>
<path d="M541.9 104.2V118.8H536V93.9001H541.6V98.1001H541.9C542.5 96.7001 543.4 95.6001 544.6 94.8001C545.9 94.0001 547.4 93.6001 549.3 93.6001C551 93.6001 552.5 94.0001 553.8 94.7001C555.1 95.4001 556.1 96.5001 556.8 97.9001C557.5 99.3001 557.9 101 557.8 103V118.9H552V103.9C552 102.2 551.6 100.9 550.7 100C549.8 99.1001 548.7 98.6001 547.1 98.6001C546.1 98.6001 545.2 98.8001 544.4 99.3001C543.6 99.7001 543 100.4 542.5 101.2C542 102 541.9 103 541.9 104.2Z" fill="#77809C"/>
<path d="M570.6 119.3C569 119.3 567.6 119 566.3 118.4C565 117.8 564 117 563.3 115.9C562.6 114.8 562.2 113.4 562.2 111.8C562.2 110.4 562.5 109.2 563 108.3C563.5 107.4 564.2 106.6 565.1 106.1C566 105.5 567 105.1 568.1 104.8C569.2 104.5 570.4 104.3 571.6 104.2C573.1 104 574.2 103.9 575.2 103.8C576.2 103.7 576.8 103.5 577.2 103.2C577.6 102.9 577.8 102.5 577.8 102V101.9C577.8 100.7 577.4 99.7 576.7 99.1C576 98.4 574.9 98.1 573.6 98.1C572.2 98.1 571 98.4 570.2 99C569.4 99.6 568.8 100.4 568.5 101.2L563 100.4C563.4 98.9 564.1 97.6 565.1 96.6C566.1 95.6 567.3 94.8 568.7 94.3C570.1 93.8 571.7 93.5 573.5 93.5C574.7 93.5 575.9 93.6 577.1 93.9C578.3 94.2 579.4 94.6 580.4 95.3C581.4 96 582.2 96.8 582.8 97.9C583.4 99 583.7 100.4 583.7 102V118.7H578.1V115.3H577.9C577.5 116 577 116.6 576.4 117.2C575.8 117.8 575 118.3 574 118.6C573 119.1 571.9 119.3 570.6 119.3ZM572.1 115C573.3 115 574.3 114.8 575.2 114.3C576.1 113.8 576.7 113.2 577.2 112.4C577.7 111.6 577.9 110.8 577.9 109.9V107C577.7 107.2 577.4 107.3 577 107.4C576.6 107.5 576.1 107.6 575.5 107.7C575 107.8 574.4 107.9 573.9 108C573.4 108.1 572.9 108.1 572.5 108.2C571.6 108.3 570.8 108.5 570.1 108.8C569.4 109.1 568.9 109.4 568.5 109.9C568.1 110.4 567.9 111 567.9 111.8C567.9 112.9 568.3 113.7 569.1 114.2C569.8 114.7 570.9 115 572.1 115Z" fill="#77809C"/>
<path d="M595 104.2V118.8H589.1V93.9001H594.7V98.1001H595C595.6 96.7001 596.5 95.6001 597.7 94.8001C599 94.0001 600.5 93.6001 602.4 93.6001C604.1 93.6001 605.6 94.0001 606.9 94.7001C608.2 95.4001 609.2 96.5001 609.9 97.9001C610.6 99.3001 611 101 610.9 103V118.9H605V103.9C605 102.2 604.6 100.9 603.7 100C602.8 99.1001 601.7 98.6001 600.1 98.6001C599.1 98.6001 598.2 98.8001 597.4 99.3001C596.6 99.7001 596 100.4 595.5 101.2C595 102 595 103 595 104.2Z" fill="#77809C"/>
<path d="M627.4 119.3C624.9 119.3 622.8 118.8 621 117.7C619.2 116.6 617.9 115.1 616.9 113.2C615.9 111.3 615.5 109 615.5 106.5C615.5 104 616 101.7 617 99.8C618 97.9 619.3 96.3 621.1 95.3C622.9 94.3 625 93.7 627.4 93.7C629.4 93.7 631.2 94.1 632.8 94.8C634.4 95.5 635.6 96.6 636.5 97.9C637.4 99.2 638 100.8 638.1 102.6H632.5C632.3 101.4 631.7 100.4 630.9 99.6C630.1 98.8 628.9 98.4 627.5 98.4C626.3 98.4 625.2 98.7 624.3 99.4C623.4 100 622.7 101 622.2 102.2C621.7 103.4 621.4 104.8 621.4 106.5C621.4 108.2 621.6 109.7 622.1 110.9C622.6 112.1 623.3 113.1 624.2 113.7C625.1 114.3 626.2 114.7 627.4 114.7C628.3 114.7 629 114.5 629.7 114.2C630.4 113.9 631 113.4 631.4 112.8C631.9 112.2 632.2 111.4 632.4 110.5H638C637.9 112.3 637.3 113.8 636.4 115.2C635.5 116.6 634.3 117.6 632.7 118.4C631.3 118.9 629.5 119.3 627.4 119.3Z" fill="#77809C"/>
<path d="M653.5 119.3C651 119.3 648.8 118.8 647 117.7C645.2 116.7 643.8 115.2 642.8 113.3C641.8 111.4 641.3 109.1 641.3 106.5C641.3 103.9 641.8 101.7 642.8 99.7001C643.8 97.8001 645.1 96.2001 646.9 95.2001C648.7 94.2001 650.7 93.6001 653.1 93.6001C654.6 93.6001 656.1 93.8001 657.5 94.3001C658.9 94.8001 660.1 95.6001 661.1 96.6001C662.2 97.6001 663 98.9001 663.6 100.5C664.2 102.1 664.5 104 664.5 106.2V108H644.1V104H659C659 102.9 658.7 101.9 658.3 101C657.8 100.1 657.2 99.4001 656.3 98.9001C655.5 98.4001 654.5 98.1001 653.3 98.1001C652.1 98.1001 651 98.4001 650.1 99.0001C649.2 99.6001 648.5 100.3 648 101.3C647.5 102.3 647.2 103.3 647.2 104.4V107.9C647.2 109.3 647.5 110.6 648 111.6C648.5 112.6 649.3 113.4 650.2 114C651.2 114.5 652.3 114.8 653.5 114.8C654.4 114.8 655.1 114.7 655.8 114.4C656.5 114.2 657.1 113.8 657.6 113.3C658.1 112.8 658.5 112.2 658.8 111.5L664.3 112.1C664 113.5 663.3 114.8 662.3 115.9C661.3 117 660.1 117.8 658.6 118.4C657.2 119 655.5 119.3 653.5 119.3Z" fill="#77809C"/>
<path d="M689.2 119.2C687.2 119.2 685.5 118.7 683.9 117.7C682.4 116.7 681.1 115.2 680.2 113.3C679.3 111.4 678.9 109.1 678.9 106.3C678.9 103.5 679.4 101.2 680.3 99.3001C681.2 97.4001 682.4 95.9001 684 95.0001C685.6 94.0001 687.3 93.5001 689.2 93.5001C690.7 93.5001 691.9 93.7001 692.8 94.2001C693.7 94.7001 694.5 95.3001 695 96.0001C695.6 96.7001 696 97.3001 696.3 97.9001H696.5V85.6001H702.4V118.8H696.6V114.9H696.2C695.9 115.5 695.5 116.1 694.9 116.8C694.3 117.5 693.6 118.1 692.6 118.5C691.8 119 690.7 119.2 689.2 119.2ZM690.9 114.4C692.1 114.4 693.2 114.1 694.1 113.4C695 112.7 695.6 111.8 696.1 110.6C696.6 109.4 696.8 108 696.8 106.4C696.8 104.8 696.6 103.4 696.1 102.2C695.6 101 695 100.1 694.1 99.4001C693.2 98.7001 692.2 98.4001 690.9 98.4001C689.6 98.4001 688.5 98.7001 687.6 99.4001C686.7 100.1 686.1 101 685.6 102.2C685.1 103.4 684.9 104.8 684.9 106.3C684.9 107.9 685.1 109.2 685.6 110.5C686 111.7 686.7 112.7 687.6 113.4C688.5 114.1 689.6 114.4 690.9 114.4Z" fill="#77809C"/>
<path d="M719.4 119.3C716.9 119.3 714.7 118.8 712.9 117.7C711.1 116.7 709.7 115.2 708.7 113.3C707.7 111.4 707.2 109.1 707.2 106.5C707.2 103.9 707.7 101.7 708.7 99.7001C709.7 97.8001 711 96.2001 712.8 95.2001C714.6 94.2001 716.6 93.6001 719 93.6001C720.5 93.6001 722 93.8001 723.4 94.3001C724.8 94.8001 726 95.6001 727 96.6001C728.1 97.6001 728.9 98.9001 729.5 100.5C730.1 102.1 730.4 104 730.4 106.2V108H710V104H724.8C724.8 102.9 724.5 101.9 724.1 101C723.6 100.1 723 99.4001 722.1 98.9001C721.3 98.4001 720.3 98.1001 719.1 98.1001C717.9 98.1001 716.8 98.4001 715.9 99.0001C715 99.6001 714.3 100.3 713.8 101.3C713.3 102.3 713 103.3 713 104.4V107.9C713 109.3 713.3 110.6 713.8 111.6C714.3 112.6 715.1 113.4 716 114C717 114.5 718.1 114.8 719.3 114.8C720.2 114.8 720.9 114.7 721.6 114.4C722.3 114.2 722.9 113.8 723.4 113.3C723.9 112.8 724.3 112.2 724.6 111.5L730.1 112.1C729.8 113.5 729.1 114.8 728.1 115.9C727.1 117 725.9 117.8 724.4 118.4C723 119 721.3 119.3 719.4 119.3Z" fill="#77809C"/>
<path d="M742.1 119.3C740.5 119.3 739.1 119 737.8 118.4C736.5 117.8 735.5 117 734.8 115.9C734.1 114.8 733.7 113.4 733.7 111.8C733.7 110.4 734 109.2 734.5 108.3C735 107.4 735.7 106.6 736.6 106.1C737.5 105.5 738.5 105.1 739.6 104.8C740.7 104.5 741.9 104.3 743.1 104.2C744.6 104 745.7 103.9 746.7 103.8C747.7 103.7 748.3 103.5 748.7 103.2C749.1 102.9 749.3 102.5 749.3 102V101.9C749.3 100.7 748.9 99.7 748.2 99.1C747.5 98.4 746.4 98.1 745.1 98.1C743.7 98.1 742.5 98.4 741.7 99C740.9 99.6 740.3 100.4 740 101.2L734.5 100.4C734.9 98.9 735.6 97.6 736.6 96.6C737.6 95.6 738.8 94.8 740.2 94.3C741.6 93.8 743.2 93.5 745 93.5C746.2 93.5 747.4 93.6 748.6 93.9C749.8 94.2 750.9 94.6 751.9 95.3C752.9 96 753.7 96.8 754.3 97.9C754.9 99 755.2 100.4 755.2 102V118.7H749.6V115.3H749.4C749 116 748.5 116.6 747.9 117.2C747.3 117.8 746.5 118.3 745.5 118.6C744.5 119.1 743.4 119.3 742.1 119.3ZM743.6 115C744.8 115 745.8 114.8 746.7 114.3C747.6 113.8 748.2 113.2 748.7 112.4C749.2 111.6 749.4 110.8 749.4 109.9V107C749.2 107.2 748.9 107.3 748.5 107.4C748.1 107.5 747.6 107.6 747 107.7C746.5 107.8 745.9 107.9 745.4 108C744.9 108.1 744.4 108.1 744 108.2C743.1 108.3 742.3 108.5 741.6 108.8C740.9 109.1 740.4 109.4 740 109.9C739.6 110.4 739.4 111 739.4 111.8C739.4 112.9 739.8 113.7 740.6 114.2C741.4 114.7 742.4 115 743.6 115Z" fill="#77809C"/>
<path d="M766.6 85.6001V118.8H760.7V85.6001H766.6Z" fill="#77809C"/>
<path d="M791.9 100.5L786.5 101.1C786.3 100.6 786.1 100.1 785.7 99.6C785.3 99.1 784.8 98.7 784.2 98.4C783.6 98.1 782.8 98 781.9 98C780.7 98 779.7 98.3 778.8 98.8C778 99.3 777.6 100 777.6 100.9C777.6 101.6 777.9 102.2 778.4 102.7C778.9 103.2 779.9 103.5 781.1 103.8L785.3 104.7C787.7 105.2 789.4 106 790.6 107.1C791.8 108.2 792.3 109.6 792.3 111.4C792.3 113 791.8 114.4 790.9 115.5C790 116.7 788.7 117.6 787.1 118.3C785.5 119 783.7 119.3 781.6 119.3C778.6 119.3 776.1 118.7 774.2 117.4C772.3 116.1 771.2 114.3 770.9 112L776.6 111.4C776.9 112.5 777.4 113.4 778.3 113.9C779.2 114.4 780.2 114.8 781.6 114.8C783 114.8 784.1 114.5 785 113.9C785.8 113.3 786.3 112.6 786.3 111.8C786.3 111.1 786 110.5 785.5 110C785 109.5 784.1 109.2 783 108.9L778.7 108C776.3 107.5 774.5 106.7 773.4 105.5C772.3 104.3 771.7 102.8 771.7 101C771.7 99.5 772.1 98.1 773 97C773.9 95.9 775 95 776.6 94.4C778.1 93.8 779.9 93.5 781.9 93.5C784.8 93.5 787.1 94.1 788.8 95.4C790.4 96.7 791.5 98.3 791.9 100.5Z" fill="#77809C"/>
<path d="M810.6 90.3C809.7 90.3 808.9 90 808.2 89.4C807.5 88.8 807.2 88 807.2 87.1C807.2 86.2 807.5 85.5 808.2 84.9C808.9 84.3 809.7 84 810.6 84C811.5 84 812.3 84.3 813 84.9C813.7 85.5 814 86.3 814 87.2C814 88.1 813.7 88.8 813 89.4C812.4 90 811.6 90.3 810.6 90.3ZM807.7 118.8V93.9H813.6V118.8H807.7Z" fill="#77809C"/>
<path d="M825 104.2V118.8H819.1V93.9001H824.7V98.1001H825C825.6 96.7001 826.5 95.6001 827.7 94.8001C829 94.0001 830.5 93.6001 832.4 93.6001C834.1 93.6001 835.6 94.0001 836.9 94.7001C838.2 95.4001 839.2 96.5001 839.9 97.9001C840.6 99.3001 841 101 840.9 103V118.9H835V103.9C835 102.2 834.6 100.9 833.7 100C832.8 99.1001 831.7 98.6001 830.1 98.6001C829.1 98.6001 828.2 98.8001 827.4 99.3001C826.6 99.7001 826 100.4 825.5 101.2C825 102 825 103 825 104.2Z" fill="#77809C"/>
<path d="M861.9 118.8H855.5L867.2 85.6001H874.6L886.3 118.8H879.9L871 92.4001H870.7L861.9 118.8ZM862.1 105.8H879.6V110.6H862.1V105.8Z" fill="#77809C"/>
<path d="M902.6 93.9V98.4H887.9V93.9H902.6ZM891.6 118.8V91.5C891.6 89.8 891.9 88.4 892.6 87.3C893.3 86.2 894.2 85.4 895.4 84.8C896.6 84.2 897.9 84 899.3 84C900.3 84 901.2 84.1 902 84.2C902.8 84.4 903.4 84.5 903.8 84.6L902.6 89.1C902.4 89 902 88.9 901.7 88.9C901.4 88.9 900.9 88.8 900.4 88.8C899.3 88.8 898.5 89.1 898.1 89.6C897.7 90.1 897.4 90.9 897.4 91.8V118.7H891.6V118.8Z" fill="#77809C"/>
<path d="M906.8 118.8V93.9H912.5V98H912.8C913.3 96.6 914 95.5 915.1 94.7C916.2 93.9 917.5 93.5 918.9 93.5C919.2 93.5 919.6 93.5 920 93.5C920.4 93.5 920.7 93.6 921 93.6V99C920.8 98.9 920.4 98.8 919.8 98.8C919.2 98.8 918.7 98.7 918.3 98.7C917.2 98.7 916.3 98.9 915.4 99.4C914.5 99.9 913.9 100.5 913.4 101.3C912.9 102.1 912.7 103 912.7 104.1V118.7H906.8V118.8Z" fill="#77809C"/>
<path d="M927.4 90.3C926.5 90.3 925.7 90 925 89.4C924.3 88.8 924 88 924 87.1C924 86.2 924.3 85.5 925 84.9C925.7 84.3 926.5 84 927.4 84C928.3 84 929.1 84.3 929.8 84.9C930.5 85.5 930.8 86.3 930.8 87.2C930.8 88.1 930.5 88.8 929.8 89.4C929.1 90 928.3 90.3 927.4 90.3ZM924.4 118.8V93.9H930.3V118.8H924.4Z" fill="#77809C"/>
<path d="M946.8 119.3C944.3 119.3 942.2 118.8 940.4 117.7C938.6 116.6 937.3 115.1 936.3 113.2C935.3 111.3 934.9 109 934.9 106.5C934.9 104 935.4 101.7 936.4 99.8C937.4 97.9 938.7 96.3 940.5 95.3C942.3 94.3 944.4 93.7 946.8 93.7C948.8 93.7 950.6 94.1 952.2 94.8C953.8 95.5 955 96.6 955.9 97.9C956.8 99.2 957.4 100.8 957.5 102.6H951.9C951.7 101.4 951.1 100.4 950.3 99.6C949.5 98.8 948.3 98.4 946.9 98.4C945.7 98.4 944.6 98.7 943.7 99.4C942.8 100 942.1 101 941.6 102.2C941.1 103.4 940.8 104.8 940.8 106.5C940.8 108.2 941 109.7 941.5 110.9C942 112.1 942.7 113.1 943.6 113.7C944.5 114.3 945.6 114.7 946.8 114.7C947.7 114.7 948.4 114.5 949.1 114.2C949.8 113.9 950.4 113.4 950.8 112.8C951.3 112.2 951.6 111.4 951.8 110.5H957.4C957.3 112.3 956.7 113.8 955.8 115.2C954.9 116.6 953.7 117.6 952.1 118.4C950.7 118.9 948.8 119.3 946.8 119.3Z" fill="#77809C"/>
<path d="M969 119.3C967.4 119.3 966 119 964.7 118.4C963.4 117.8 962.4 117 961.7 115.9C961 114.8 960.6 113.4 960.6 111.8C960.6 110.4 960.9 109.2 961.4 108.3C961.9 107.4 962.6 106.6 963.5 106.1C964.4 105.5 965.4 105.1 966.5 104.8C967.6 104.5 968.8 104.3 970 104.2C971.5 104 972.6 103.9 973.6 103.8C974.5 103.7 975.2 103.5 975.6 103.2C976 102.9 976.2 102.5 976.2 102V101.9C976.2 100.7 975.8 99.7 975.1 99.1C974.4 98.4 973.3 98.1 972 98.1C970.6 98.1 969.4 98.4 968.6 99C967.8 99.6 967.2 100.4 966.9 101.2L961.4 100.4C961.8 98.9 962.5 97.6 963.5 96.6C964.5 95.6 965.7 94.8 967.1 94.3C968.5 93.8 970.1 93.5 971.9 93.5C973.1 93.5 974.3 93.6 975.5 93.9C976.7 94.2 977.8 94.6 978.8 95.3C979.8 95.9 980.6 96.8 981.2 97.9C981.8 99 982.1 100.4 982.1 102V118.7H976.5V115.3H976.3C975.9 116 975.4 116.6 974.8 117.2C974.2 117.8 973.4 118.3 972.4 118.6C971.4 119.1 970.3 119.3 969 119.3ZM970.5 115C971.7 115 972.7 114.8 973.6 114.3C974.5 113.8 975.1 113.2 975.6 112.4C976.1 111.6 976.3 110.8 976.3 109.9V107C976.1 107.2 975.8 107.3 975.4 107.4C975 107.5 974.5 107.6 973.9 107.7C973.4 107.8 972.8 107.9 972.3 108C971.8 108.1 971.3 108.1 970.9 108.2C970 108.3 969.2 108.5 968.5 108.8C967.8 109.1 967.3 109.4 966.9 109.9C966.5 110.4 966.3 111 966.3 111.8C966.3 112.9 966.7 113.7 967.5 114.2C968.3 114.7 969.3 115 970.5 115Z" fill="#77809C"/>
<path d="M63.1001 173.6L56.1001 148.7H62.1001L66.5001 166.2H66.7001L71.2001 148.7H77.0001L81.5001 166.1H81.7001L86.0001 148.7H92.0001L85.0001 173.6H78.9001L74.2001 156.8H73.9001L69.2001 173.6H63.1001Z" fill="#77809C"/>
<path d="M106.7 174.1C104.2 174.1 102 173.6 100.2 172.5C98.4 171.5 97 170 96 168.1C95 166.2 94.5 163.9 94.5 161.3C94.5 158.7 95 156.5 96 154.5C97 152.6 98.3 151 100.1 150C101.9 149 103.9 148.4 106.3 148.4C107.8 148.4 109.3 148.6 110.7 149.1C112.1 149.6 113.3 150.4 114.3 151.4C115.4 152.4 116.2 153.7 116.8 155.3C117.4 156.9 117.7 158.8 117.7 161V162.8H97.4V158.8H112.2C112.2 157.7 111.9 156.7 111.5 155.8C111 154.9 110.4 154.2 109.5 153.7C108.7 153.2 107.7 152.9 106.5 152.9C105.3 152.9 104.2 153.2 103.3 153.8C102.4 154.4 101.7 155.1 101.2 156.1C100.7 157.1 100.4 158.1 100.4 159.2V162.7C100.4 164.1 100.7 165.4 101.2 166.4C101.7 167.4 102.5 168.2 103.4 168.8C104.4 169.3 105.5 169.6 106.7 169.6C107.6 169.6 108.3 169.5 109 169.2C109.7 169 110.3 168.6 110.8 168.1C111.3 167.6 111.7 167 112 166.3L117.5 166.9C117.2 168.3 116.5 169.6 115.5 170.7C114.5 171.8 113.3 172.6 111.8 173.2C110.4 173.8 108.7 174.1 106.7 174.1Z" fill="#77809C"/>
<path d="M122.3 173.6V148.7H128V152.9H128.3C128.8 151.5 129.5 150.4 130.6 149.6C131.7 148.8 133 148.4 134.4 148.4C134.7 148.4 135.1 148.4 135.5 148.4C135.9 148.4 136.2 148.5 136.5 148.5V153.9C136.3 153.8 135.9 153.7 135.3 153.7C134.7 153.7 134.2 153.6 133.8 153.6C132.7 153.6 131.8 153.8 130.9 154.3C130 154.8 129.4 155.4 128.9 156.2C128.4 157 128.2 157.9 128.2 159V173.6H122.3Z" fill="#77809C"/>
<path d="M151 174.1C148.5 174.1 146.3 173.6 144.5 172.5C142.7 171.5 141.3 170 140.3 168.1C139.3 166.2 138.8 163.9 138.8 161.3C138.8 158.7 139.3 156.5 140.3 154.5C141.3 152.6 142.6 151 144.4 150C146.2 149 148.2 148.4 150.6 148.4C152.1 148.4 153.6 148.6 155 149.1C156.4 149.6 157.6 150.4 158.6 151.4C159.7 152.4 160.5 153.7 161.1 155.3C161.7 156.9 162 158.8 162 161V162.8H141.6V158.8H156.4C156.4 157.7 156.1 156.7 155.7 155.8C155.2 154.9 154.6 154.2 153.7 153.7C152.9 153.2 151.9 152.9 150.7 152.9C149.5 152.9 148.4 153.2 147.5 153.8C146.6 154.4 145.9 155.1 145.4 156.1C144.9 157.1 144.6 158.1 144.6 159.2V162.7C144.6 164.1 144.9 165.4 145.4 166.4C145.9 167.4 146.7 168.2 147.6 168.8C148.6 169.3 149.7 169.6 150.9 169.6C151.8 169.6 152.5 169.5 153.2 169.2C153.9 169 154.5 168.6 155 168.1C155.5 167.6 155.9 167 156.2 166.3L161.7 166.9C161.4 168.3 160.7 169.6 159.7 170.7C158.7 171.8 157.5 172.6 156 173.2C154.7 173.8 153 174.1 151 174.1Z" fill="#77809C"/>
<path d="M199.7 148.7L190.8 173.6H184.3L175.4 148.7H181.7L187.4 167.2H187.7L193.4 148.7H199.7Z" fill="#77809C"/>
<path d="M210.5 174.1C208.9 174.1 207.5 173.8 206.2 173.2C204.9 172.6 203.9 171.8 203.2 170.7C202.5 169.6 202.1 168.2 202.1 166.6C202.1 165.2 202.4 164 202.9 163.1C203.4 162.2 204.1 161.4 205 160.9C205.9 160.3 206.9 159.9 208 159.6C209.1 159.3 210.3 159.1 211.5 159C213 158.8 214.1 158.7 215.1 158.6C216.1 158.5 216.7 158.3 217.1 158C217.5 157.7 217.7 157.3 217.7 156.8V156.7C217.7 155.5 217.3 154.5 216.6 153.9C215.9 153.2 214.8 152.9 213.5 152.9C212.1 152.9 210.9 153.2 210.1 153.8C209.3 154.4 208.7 155.2 208.4 156L202.9 155.2C203.3 153.7 204 152.4 205 151.4C206 150.4 207.2 149.6 208.6 149.1C210 148.6 211.6 148.3 213.4 148.3C214.6 148.3 215.8 148.4 217 148.7C218.2 149 219.3 149.4 220.3 150.1C221.3 150.8 222.1 151.6 222.7 152.7C223.3 153.8 223.6 155.2 223.6 156.8V173.5H218V170.1H217.8C217.4 170.8 216.9 171.4 216.3 172C215.7 172.6 214.9 173.1 213.9 173.4C212.9 173.9 211.8 174.1 210.5 174.1ZM212 169.8C213.2 169.8 214.2 169.6 215.1 169.1C216 168.6 216.6 168 217.1 167.2C217.6 166.4 217.8 165.6 217.8 164.7V161.8C217.6 162 217.3 162.1 216.9 162.2C216.5 162.3 216 162.4 215.4 162.5C214.9 162.6 214.3 162.7 213.8 162.8C213.3 162.9 212.8 162.9 212.4 163C211.5 163.1 210.7 163.3 210 163.6C209.3 163.9 208.8 164.2 208.4 164.7C208 165.2 207.8 165.8 207.8 166.6C207.8 167.7 208.2 168.5 209 169C209.8 169.5 210.8 169.8 212 169.8Z" fill="#77809C"/>
<path d="M235 140.4V173.6H229.1V140.4H235Z" fill="#77809C"/>
<path d="M256.5 163.1V148.7H262.4V173.6H256.7V169.2H256.4C255.8 170.6 254.9 171.7 253.6 172.6C252.3 173.5 250.7 173.9 248.9 173.9C247.3 173.9 245.8 173.5 244.6 172.8C243.4 172.1 242.4 171 241.7 169.6C241 168.2 240.6 166.5 240.6 164.5V148.6H246.5V163.6C246.5 165.2 246.9 166.4 247.8 167.4C248.7 168.3 249.8 168.8 251.2 168.8C252.1 168.8 252.9 168.6 253.7 168.2C254.5 167.8 255.2 167.1 255.7 166.3C256.2 165.4 256.5 164.4 256.5 163.1Z" fill="#77809C"/>
<path d="M278.9 174.1C276.4 174.1 274.2 173.6 272.4 172.5C270.6 171.5 269.2 170 268.2 168.1C267.2 166.2 266.7 163.9 266.7 161.3C266.7 158.7 267.2 156.5 268.2 154.5C269.2 152.6 270.5 151 272.3 150C274.1 149 276.1 148.4 278.5 148.4C280 148.4 281.5 148.6 282.9 149.1C284.3 149.6 285.5 150.4 286.5 151.4C287.6 152.4 288.4 153.7 289 155.3C289.6 156.9 289.9 158.8 289.9 161V162.8H269.5V158.8H284.3C284.3 157.7 284 156.7 283.6 155.8C283.1 154.9 282.5 154.2 281.6 153.7C280.8 153.2 279.8 152.9 278.6 152.9C277.4 152.9 276.3 153.2 275.4 153.8C274.5 154.4 273.8 155.1 273.3 156.1C272.8 157.1 272.5 158.1 272.5 159.2V162.7C272.5 164.1 272.8 165.4 273.3 166.4C273.8 167.4 274.6 168.2 275.5 168.8C276.5 169.3 277.6 169.6 278.8 169.6C279.7 169.6 280.4 169.5 281.1 169.2C281.8 169 282.4 168.6 282.9 168.1C283.4 167.6 283.8 167 284.1 166.3L289.6 166.9C289.3 168.3 288.6 169.6 287.6 170.7C286.6 171.8 285.4 172.6 283.9 173.2C282.6 173.8 280.9 174.1 278.9 174.1Z" fill="#77809C"/>
<path d="M303.8 174C301.8 174 300.1 173.5 298.5 172.5C297 171.5 295.7 170 294.8 168.1C293.9 166.2 293.5 163.9 293.5 161.1C293.5 158.3 294 156 294.9 154.1C295.8 152.2 297 150.7 298.6 149.8C300.2 148.8 301.9 148.3 303.8 148.3C305.3 148.3 306.5 148.5 307.4 149C308.3 149.5 309.1 150.1 309.6 150.8C310.2 151.5 310.6 152.1 310.9 152.7H311.1V140.3H317V173.5H311.2V169.6H310.8C310.5 170.2 310.1 170.8 309.5 171.5C308.9 172.2 308.2 172.8 307.2 173.2C306.4 173.8 305.2 174 303.8 174ZM305.4 169.2C306.6 169.2 307.7 168.9 308.6 168.2C309.5 167.5 310.1 166.6 310.6 165.4C311.1 164.2 311.3 162.8 311.3 161.2C311.3 159.6 311.1 158.2 310.6 157C310.1 155.8 309.5 154.9 308.6 154.2C307.7 153.5 306.7 153.2 305.4 153.2C304.1 153.2 303 153.5 302.1 154.2C301.2 154.9 300.6 155.8 300.1 157C299.6 158.2 299.4 159.6 299.4 161.1C299.4 162.7 299.6 164 300.1 165.3C300.5 166.5 301.2 167.5 302.1 168.2C303 168.9 304.1 169.2 305.4 169.2Z" fill="#77809C"/>
<path d="M340.9 174.1C339.3 174.1 337.9 173.8 336.6 173.2C335.3 172.6 334.3 171.8 333.6 170.7C332.9 169.6 332.5 168.2 332.5 166.6C332.5 165.2 332.8 164 333.3 163.1C333.8 162.2 334.5 161.4 335.4 160.9C336.3 160.3 337.3 159.9 338.4 159.6C339.5 159.3 340.7 159.1 341.9 159C343.4 158.8 344.5 158.7 345.5 158.6C346.5 158.5 347.1 158.3 347.5 158C347.9 157.7 348.1 157.3 348.1 156.8V156.7C348.1 155.5 347.7 154.5 347 153.9C346.3 153.2 345.2 152.9 343.9 152.9C342.5 152.9 341.3 153.2 340.5 153.8C339.7 154.4 339.1 155.2 338.8 156L333.3 155.2C333.7 153.7 334.4 152.4 335.4 151.4C336.4 150.4 337.6 149.6 339 149.1C340.4 148.6 342 148.3 343.8 148.3C345 148.3 346.2 148.4 347.4 148.7C348.6 149 349.7 149.4 350.7 150.1C351.7 150.8 352.5 151.6 353.1 152.7C353.7 153.8 354 155.2 354 156.8V173.5H348.4V170.1H348.2C347.8 170.8 347.3 171.4 346.7 172C346.1 172.6 345.3 173.1 344.3 173.4C343.3 173.9 342.2 174.1 340.9 174.1ZM342.4 169.8C343.6 169.8 344.6 169.6 345.5 169.1C346.4 168.6 347 168 347.5 167.2C348 166.4 348.2 165.6 348.2 164.7V161.8C348 162 347.7 162.1 347.3 162.2C346.9 162.3 346.4 162.4 345.8 162.5C345.3 162.6 344.7 162.7 344.2 162.8C343.7 162.9 343.2 162.9 342.8 163C341.9 163.1 341.1 163.3 340.4 163.6C339.7 163.9 339.2 164.2 338.8 164.7C338.4 165.2 338.2 165.8 338.2 166.6C338.2 167.7 338.6 168.5 339.4 169C340.2 169.5 341.2 169.8 342.4 169.8Z" fill="#77809C"/>
<path d="M372 148.7V153.2H357.7V148.7H372ZM361.2 142.7H367.1V166.1C367.1 166.9 367.2 167.5 367.5 167.9C367.7 168.3 368.1 168.6 368.5 168.8C368.9 169 369.3 169 369.8 169C370.2 169 370.5 169 370.8 168.9C371.1 168.8 371.3 168.8 371.5 168.8L372.5 173.4C372.2 173.5 371.7 173.6 371.2 173.8C370.6 173.9 369.9 174 369.1 174C367.6 174 366.3 173.8 365.1 173.3C363.9 172.8 363 172 362.3 171C361.6 170 361.3 168.7 361.3 167.1V142.7H361.2Z" fill="#77809C"/>
<path d="M405.6 149.5C405.4 148.1 404.8 147 403.7 146.2C402.6 145.4 401.1 145 399.3 145C398 145 397 145.2 396.1 145.6C395.2 146 394.5 146.5 394 147.1C393.5 147.7 393.3 148.5 393.3 149.3C393.3 150 393.5 150.6 393.8 151.1C394.1 151.6 394.6 152 395.1 152.4C395.7 152.8 396.3 153 396.9 153.3C397.6 153.5 398.2 153.7 398.9 153.9L402 154.7C403.3 155 404.5 155.4 405.6 155.9C406.7 156.4 407.8 157 408.7 157.8C409.6 158.6 410.4 159.5 410.9 160.5C411.4 161.6 411.7 162.8 411.7 164.3C411.7 166.2 411.2 168 410.2 169.4C409.2 170.9 407.8 172 405.9 172.9C404 173.7 401.8 174.1 399.1 174.1C396.5 174.1 394.3 173.7 392.4 172.9C390.5 172.1 389 170.9 388 169.4C386.9 167.9 386.4 166 386.3 163.8H392.2C392.3 165 392.6 165.9 393.3 166.7C393.9 167.5 394.7 168 395.8 168.4C396.9 168.8 397.9 169 399.2 169C400.5 169 401.7 168.8 402.6 168.4C403.6 168 404.4 167.5 404.9 166.7C405.5 166 405.7 165.2 405.8 164.2C405.8 163.3 405.5 162.6 405 162.1C404.5 161.6 403.8 161.1 402.9 160.7C402 160.3 401 160 399.8 159.7L396 158.7C393.3 158 391.1 156.9 389.5 155.5C387.9 154.1 387.1 152.2 387.1 149.8C387.1 147.8 387.6 146.1 388.7 144.7C389.8 143.2 391.2 142.1 393.1 141.3C394.9 140.5 397 140.1 399.3 140.1C401.7 140.1 403.7 140.5 405.5 141.3C407.3 142.1 408.7 143.2 409.7 144.7C410.7 146.1 411.2 147.8 411.3 149.7H405.6V149.5ZM398 177.8V136.3H400.7V177.8H398Z" fill="#242438"/>
<path d="M428.6 174.1C427 174.1 425.5 173.8 423.9 173.3C422.4 172.8 421 171.9 419.8 170.6C418.6 169.4 417.6 167.7 416.9 165.7C416.2 163.6 415.8 161.1 415.8 158C415.8 155.2 416.1 152.6 416.7 150.4C417.3 148.2 418.2 146.3 419.3 144.7C420.4 143.2 421.8 142 423.4 141.2C425 140.4 426.8 140 428.8 140C430.9 140 432.7 140.4 434.4 141.2C436 142 437.3 143.1 438.3 144.6C439.3 146 439.9 147.6 440.1 149.4H434.2C433.9 148.1 433.3 147.1 432.3 146.3C431.3 145.5 430.2 145.2 428.8 145.2C426.5 145.2 424.7 146.2 423.5 148.2C422.3 150.2 421.6 152.9 421.6 156.4H421.8C422.3 155.4 423 154.6 423.9 154C424.7 153.3 425.7 152.8 426.8 152.4C427.9 152 429 151.8 430.2 151.8C432.1 151.8 433.9 152.3 435.4 153.2C437 154.1 438.2 155.4 439.1 157C440 158.6 440.5 160.5 440.4 162.6C440.4 164.8 439.9 166.7 438.9 168.5C437.9 170.2 436.5 171.6 434.7 172.6C433.1 173.6 431 174.1 428.6 174.1ZM428.6 169.2C429.8 169.2 430.8 168.9 431.8 168.3C432.7 167.7 433.5 167 434 166C434.5 165 434.8 163.9 434.8 162.7C434.8 161.5 434.6 160.4 434 159.5C433.5 158.5 432.8 157.8 431.8 157.2C430.8 156.6 429.8 156.4 428.7 156.4C427.8 156.4 427 156.6 426.3 156.9C425.5 157.2 424.9 157.7 424.3 158.3C423.7 158.9 423.3 159.6 423 160.3C422.7 161.1 422.5 161.9 422.5 162.8C422.5 164 422.8 165 423.3 166C423.8 167 424.6 167.8 425.5 168.3C426.3 168.9 427.4 169.2 428.6 169.2Z" fill="#242438"/>
<path d="M445 167.4V162.6L459.1 140.3H463.1V147.1H460.7L451.2 162.1V162.4H470.9V167.3H445V167.4ZM460.8 173.6V166L460.9 163.9V140.4H466.6V173.6H460.8Z" fill="#242438"/>
<path d="M486.8 173.6V140.4H492.7V152.8H492.9C493.2 152.2 493.6 151.5 494.2 150.9C494.8 150.2 495.5 149.6 496.4 149.1C497.3 148.6 498.5 148.4 500 148.4C501.9 148.4 503.7 148.9 505.2 149.9C506.7 150.9 508 152.3 508.9 154.2C509.8 156.1 510.3 158.4 510.3 161.2C510.3 163.9 509.9 166.3 509 168.2C508.1 170.1 506.9 171.6 505.3 172.6C503.8 173.6 502 174.1 500 174.1C498.6 174.1 497.4 173.9 496.4 173.4C495.5 172.9 494.7 172.3 494.1 171.7C493.5 171.1 493.1 170.4 492.8 169.8H492.5V173.7H486.8V173.6ZM492.5 161.1C492.5 162.7 492.7 164.1 493.2 165.3C493.7 166.5 494.3 167.5 495.2 168.1C496.1 168.8 497.1 169.1 498.4 169.1C499.7 169.1 500.8 168.8 501.7 168.1C502.6 167.4 503.2 166.4 503.7 165.2C504.1 164 504.4 162.6 504.4 161C504.4 159.5 504.2 158.1 503.7 156.9C503.2 155.7 502.6 154.8 501.7 154.1C500.8 153.4 499.7 153.1 498.4 153.1C497.1 153.1 496.1 153.4 495.2 154.1C494.3 154.8 493.7 155.7 493.2 156.9C492.7 158.1 492.5 159.5 492.5 161.1Z" fill="#242438"/>
<path d="M517.8 145.1C516.9 145.1 516.1 144.8 515.4 144.2C514.7 143.6 514.4 142.8 514.4 141.9C514.4 141 514.7 140.3 515.4 139.7C516.1 139.1 516.9 138.8 517.8 138.8C518.7 138.8 519.5 139.1 520.2 139.7C520.9 140.3 521.2 141.1 521.2 142C521.2 142.9 520.9 143.6 520.2 144.2C519.5 144.8 518.7 145.1 517.8 145.1ZM514.8 173.6V148.7H520.7V173.6H514.8Z" fill="#242438"/>
<path d="M532.2 140.4V173.6H526.3V140.4H532.2Z" fill="#242438"/>
<path d="M543.6 140.4V173.6H537.7V140.4H543.6Z" fill="#242438"/>
<path d="M552.1 145.1C551.2 145.1 550.4 144.8 549.7 144.2C549 143.6 548.7 142.8 548.7 141.9C548.7 141 549 140.3 549.7 139.7C550.4 139.1 551.2 138.8 552.1 138.8C553 138.8 553.8 139.1 554.5 139.7C555.2 140.3 555.5 141.1 555.5 142C555.5 142.9 555.2 143.6 554.5 144.2C553.9 144.8 553.1 145.1 552.1 145.1ZM549.2 173.6V148.7H555.1V173.6H549.2Z" fill="#242438"/>
<path d="M571.5 174.1C569.1 174.1 567 173.6 565.2 172.5C563.4 171.4 562 169.9 561.1 168C560.1 166.1 559.6 163.8 559.6 161.3C559.6 158.7 560.1 156.5 561.1 154.5C562.1 152.6 563.5 151.1 565.2 150C567 148.9 569.1 148.4 571.5 148.4C573.9 148.4 576 148.9 577.8 150C579.6 151.1 581 152.6 581.9 154.5C582.9 156.4 583.4 158.7 583.4 161.3C583.4 163.9 582.9 166.1 581.9 168C580.9 169.9 579.5 171.4 577.8 172.5C576 173.6 573.9 174.1 571.5 174.1ZM571.5 169.4C572.8 169.4 573.9 169 574.8 168.3C575.7 167.6 576.3 166.6 576.8 165.4C577.2 164.2 577.5 162.8 577.5 161.3C577.5 159.8 577.3 158.4 576.8 157.2C576.3 156 575.7 155 574.8 154.2C573.9 153.5 572.8 153.1 571.5 153.1C570.1 153.1 569 153.5 568.1 154.2C567.2 154.9 566.5 155.9 566.1 157.2C565.7 158.5 565.4 159.8 565.4 161.3C565.4 162.8 565.6 164.2 566.1 165.4C566.5 166.6 567.2 167.6 568.1 168.3C569.1 169 570.2 169.4 571.5 169.4Z" fill="#242438"/>
<path d="M593.8 159V173.6H587.9V148.7H593.5V152.9H593.8C594.4 151.5 595.3 150.4 596.5 149.6C597.8 148.8 599.3 148.4 601.2 148.4C602.9 148.4 604.4 148.8 605.7 149.5C607 150.2 608 151.3 608.7 152.7C609.4 154.1 609.8 155.8 609.7 157.8V173.7H603.8V158.7C603.8 157 603.4 155.7 602.5 154.8C601.6 153.9 600.5 153.4 598.9 153.4C597.9 153.4 597 153.6 596.2 154.1C595.4 154.5 594.8 155.2 594.3 156C593.8 156.8 593.8 157.8 593.8 159Z" fill="#242438"/>
<path d="M619 174C618 174 617.2 173.7 616.5 173C615.8 172.3 615.5 171.5 615.5 170.5C615.5 169.5 615.8 168.7 616.5 168C617.2 167.3 618 167 619 167C620 167 620.8 167.3 621.5 168C622.2 168.7 622.6 169.5 622.6 170.5C622.6 171.2 622.4 171.8 622.1 172.3C621.8 172.8 621.3 173.3 620.8 173.6C620.2 173.8 619.6 174 619 174Z" fill="#77809C"/>
</g>
<mask id="mask7_4_1327" style="mask-type:luminance" maskUnits="userSpaceOnUse" x="0" y="0" width="1521" height="255">
<path d="M1521 0H0V255H1521V0Z" fill="white"/>
</mask>
<g mask="url(#mask7_4_1327)">
<path d="M1468 59C1480.15 59 1490 49.1503 1490 37C1490 24.8497 1480.15 15 1468 15C1455.85 15 1446 24.8497 1446 37C1446 49.1503 1455.85 59 1468 59Z" fill="#D4F6FF"/>
</g>
<mask id="mask8_4_1327" style="mask-type:luminance" maskUnits="userSpaceOnUse" x="0" y="0" width="1521" height="255">
<path d="M1521 0H0V255H1521V0Z" fill="white"/>
</mask>
<g mask="url(#mask8_4_1327)">
<path d="M1437 188.3C1436.4 191.7 1436 195.1 1435.1 198.4C1430.5 215.4 1418.9 225.2 1402.2 229.1C1397.6 230.2 1392.7 230.6 1388 230.7C1372.5 230.9 1357.1 230.8 1341.6 230.8C1340.7 230.8 1339.8 230.8 1339 230.5C1337.3 229.9 1336.6 228.6 1336.8 226.8C1337 225.1 1338.1 224.1 1339.7 223.9C1340.4 223.8 1341.2 223.8 1341.9 223.8C1357.4 223.8 1372.8 223.8 1388.3 223.8C1396.2 223.8 1403.9 222.2 1411 218.6C1421.6 213.1 1427.3 204.2 1429.3 192.7C1431.2 181.7 1429.5 170.9 1426.8 160.2C1421.4 138.9 1411.7 120 1395.9 104.4C1390.8 99.4001 1385.1 95 1379 91.2C1377.6 90.4 1376.4 90 1374.9 90.9001C1374 91.4001 1373 91.5 1371.7 91.9001C1373.8 93.8001 1375.7 95.6 1377.6 97.5C1378.5 98.4001 1379.5 99.2 1380.4 100.1C1381.9 101.6 1382 103.6 1380.7 105C1379.4 106.5 1377.3 106.6 1375.6 105.1C1372.4 102.2 1369.4 99.3001 1366.3 96.4001C1365.1 95.2001 1363.8 94.1 1362.6 93C1362.2 92.7001 1361.7 92.5 1360.8 92.1C1360.8 94.8 1360.8 97.1001 1360.8 99.3001C1360.8 100.4 1360.8 101.6 1360.8 102.7C1360.7 104.7 1359.4 106.1 1357.6 106.2C1355.7 106.3 1354.1 104.9 1354 102.8C1353.9 100.2 1354 97.5 1353.9 94.9001C1353.9 94.1001 1353.9 93.3 1353.9 92C1352.8 92.7001 1352.1 93 1351.6 93.5C1347.6 97.2001 1343.6 101 1339.6 104.7C1337.6 106.6 1335.6 106.7 1334.1 105C1332.6 103.4 1332.9 101.5 1335 99.5C1337.6 97 1340.3 94.5 1343.1 91.9001C1341.4 91.3001 1340 90.7001 1338.5 90.3001C1337.9 90.2001 1337.1 90.5001 1336.5 90.8001C1325.6 97.1001 1316.6 105.6 1308.9 115.5C1308.4 116.1 1308 116.7 1307.5 117.2C1306.2 118.5 1304.3 118.7 1302.9 117.6C1301.4 116.5 1301 114.5 1302.2 112.9C1304 110.4 1306.1 108 1308 105.6C1308.4 105 1308.9 104.3 1308.9 103.7C1309 96.3 1308.9 89 1308.9 81.6C1308.9 81.5 1308.8 81.4 1308.7 81.2C1296.2 86.6 1283.7 86.7 1271.1 81.1C1271.1 89.4 1271.1 97.6 1271.1 105.7C1274.3 106.2 1277.5 106.6 1280.7 107.3C1284.5 108.1 1288 109.6 1291.1 112.1C1293.8 114.3 1295.2 117.1 1295.2 120.7C1295.1 136.8 1295.2 153 1295.2 169.1C1295.2 169.9 1295.2 170.7 1295.2 171.7C1296.1 171.7 1296.8 171.7 1297.5 171.7C1303.7 171.4 1309.8 171.8 1315.6 174.2C1317.8 175.1 1320 176.3 1322 177.7C1325 179.9 1326.4 182.9 1326.4 186.8C1326.3 200.9 1326.3 215 1326.4 229.2C1326.4 233.4 1324.7 236.5 1321.4 238.8C1315.7 242.8 1309.2 244 1302.4 244.3C1294.5 244.7 1292.6 244.2 1281 240.1C1277.9 246.5 1272.1 248.8 1265.7 250.2C1256.1 252.2 1246.6 251.9 1237.6 247.7C1235.5 246.7 1233.5 245 1231.8 243.4C1230.1 241.8 1229.4 239.6 1229.4 237.1C1229.4 232 1229.6 226.8 1229.4 221.7C1229.2 217.2 1231.1 213.9 1234.8 211.7C1237.4 210.1 1240.3 208.9 1243.3 207.4C1243.3 206.9 1243.3 206.1 1243.3 205.3C1243.3 177.4 1243.4 149.5 1243.2 121.6C1243.2 116.8 1245.2 113.5 1249 111C1252.9 108.5 1257.2 107.3 1261.7 106.6C1262.4 106.5 1263 106.4 1264 106.2C1264 105.4 1264 104.6 1264 103.8C1264 93.5001 1264.1 83.1001 1264 72.8001C1264 68.6001 1265.7 65.5 1268.9 63.2001C1272.9 60.3001 1277.6 58.9001 1282.4 58.2001C1290.4 57.0001 1298.3 57.4 1305.9 60.5C1308.1 61.4 1310.1 62.7 1312 64.1C1314.7 66.1 1316 68.9001 1315.9 72.4001C1315.8 80 1315.9 87.5 1315.9 95.1C1315.9 95.8 1315.9 96.4 1315.9 97.2C1321.1 93.2 1326.2 89.4001 1331.4 85.4001C1330.8 84.7001 1330 83.9001 1329.3 83C1323.8 76.4001 1321 68.7 1319.9 60.3C1319.5 57.6 1319.4 54.8 1319.3 52C1319.1 45.9 1324.6 42.5 1330 45.5C1331.5 46.3 1332.9 47.5 1334.3 48.6C1337.6 51.2 1342.2 51.7 1345.4 49C1348.3 46.7 1351.3 44.8 1354.8 43.8C1356.6 43.8 1358.3 43.8 1360.1 43.8C1363.7 44.8 1366.7 46.6 1369.5 49C1372.8 51.7 1377.3 51.2 1380.7 48.5C1382.2 47.3 1383.7 46.2 1385.4 45.3C1390.3 42.8 1395.6 46 1395.6 51.6C1395.6 53.2 1395.6 54.7001 1395.3 56.2001C1395 58.1 1395.5 58.9001 1397.5 59.7001C1406.7 63.3001 1413.2 76.2001 1403.5 86C1403.3 86.2001 1403.2 86.5 1402.9 86.9001C1403.9 87.2001 1404.6 87.4 1405.4 87.6C1411.2 89.3 1416.7 91.8001 1420.9 96.4001C1422.5 98.2001 1422.5 100.3 1421.1 101.6C1419.6 103 1417.6 102.8 1415.9 101.1C1409.8 94.9 1401.9 93.4 1393.6 92.6C1394.4 93.5 1395.3 94.3 1396.2 95.1C1397.2 96 1398.1 96.8 1399.1 97.7C1418.5 116.1 1429.7 138.9 1435 164.8C1435.9 169.1 1436.4 173.6 1437 178C1437 181.6 1437 185 1437 188.3ZM1250.3 129.9C1250.3 155.6 1250.3 181.2 1250.3 206.9C1258.7 206 1266.7 207.1 1274.4 210.9C1274.4 202.6 1274.5 194.7 1274.4 186.9C1274.4 183.3 1275.7 180.3 1278.6 178.4C1281.1 176.7 1283.9 175.4 1286.6 174.2C1287.8 173.7 1288.3 173.2 1288.3 171.8C1288.2 158.4 1288.3 145.1 1288.3 131.7C1288.3 131.2 1288.2 130.7 1288.2 130C1275.4 135.5 1262.9 135.4 1250.3 129.9ZM1281.3 195.5C1281.3 206.6 1281.5 217.2 1281.2 227.9C1281.1 231.9 1282.9 233.9 1286.2 235.2C1291.5 237.4 1297 238 1302.7 237.7C1307.5 237.4 1312.2 236.6 1316.5 234.2C1318.4 233.1 1319.5 231.7 1319.5 229.2C1319.4 218.7 1319.4 208.3 1319.4 197.8C1319.4 197.2 1319.4 196.5 1319.4 195.5C1313.2 198.4 1307 199.8 1300.4 199.8C1293.8 199.7 1287.5 198.4 1281.3 195.5ZM1347.1 85.4001C1346.7 84.5 1346.3 83.9 1346.1 83.2C1344.2 78.5 1342.2 73.9 1340.4 69.2C1339.7 67.4 1340.7 65.6 1342.5 65C1344.2 64.4 1346 65.1001 1346.8 66.9001C1347.1 67.5001 1347.2 68.2001 1347.5 68.8001C1349.9 73.9001 1352.3 79 1354.9 84.1C1356 86.2 1358.9 86.1 1360.3 84.1C1363.6 79.1 1366.1 73.8 1367.9 68C1368.7 65.3 1370.4 64.2001 1372.5 64.9001C1374.6 65.6001 1375.4 67.4 1374.5 70C1373.4 73.1 1372.3 76.1 1371 79.1C1370.1 81.2 1369 83.2001 1367.9 85.4001C1369 85.3001 1369.8 85.2 1370.6 85.1C1374.9 84.3 1378 81.6001 1380.6 78.4001C1385 72.9001 1387.2 66.5 1388.2 59.7001C1388.6 57.1 1388.7 54.5 1388.9 51.8C1387.4 52.4 1386.4 53 1385.5 53.8C1379 59.2 1370.7 59.2001 1364.2 53.7001C1359.8 49.9001 1355.4 49.9001 1351 53.7001C1344.7 59.1 1336.3 59.2 1329.9 53.8C1328.9 53 1327.9 52.3 1326.9 51.6C1326.7 51.7 1326.4 51.8001 1326.2 51.9001C1326.7 55.9001 1327.1 59.9 1327.9 63.8C1329.4 70.7 1332.3 76.8 1337.7 81.6C1340.1 84 1343.2 85.4001 1347.1 85.4001ZM1300.3 179C1295.1 179 1290.1 179.7 1285.4 182C1283.7 182.8 1281.5 183.7 1281.5 185.9C1281.5 188.1 1283.7 189.1 1285.4 189.8C1295.3 193.9 1305.3 193.9 1315.3 189.8C1317.1 189.1 1319.2 188.1 1319.3 185.9C1319.4 183.6 1317.1 182.7 1315.3 181.8C1310.5 179.6 1305.5 179 1300.3 179ZM1269.2 113.2C1264 113.2 1259 113.8 1254.2 116.1C1252.4 116.9 1250.3 117.8 1250.2 120C1250.2 122.2 1252.3 123.2 1254.1 123.9C1264 128.1 1274.1 128 1284 124C1285.8 123.3 1287.9 122.3 1288 120.1C1288 117.8 1285.7 116.9 1283.9 116.1C1279.4 113.9 1274.4 113.2 1269.2 113.2ZM1255.4 227.3C1261.2 227.3 1266.3 226.4 1270.2 224.5C1272 223.6 1274.3 222.8 1274.3 220.5C1274.3 218.2 1272.1 217.2 1270.2 216.5C1260.3 212.5 1250.4 212.5 1240.5 216.5C1238.7 217.3 1236.4 218.2 1236.4 220.5C1236.4 222.8 1238.7 223.6 1240.5 224.5C1245.3 226.7 1250.3 227.3 1255.4 227.3ZM1289.9 78.6C1295.7 78.6 1300.8 77.7001 1304.7 75.8001C1306.5 74.9001 1308.8 74.1001 1308.8 71.8001C1308.9 69.4001 1306.6 68.5001 1304.8 67.8001C1294.9 63.8001 1285 63.8001 1275.1 67.8001C1273.3 68.5001 1271.2 69.5 1271.1 71.7C1271.1 74 1273.4 74.9001 1275.2 75.8001C1279.8 77.9001 1284.8 78.6 1289.9 78.6ZM1274.4 230.2C1261.6 235.8 1249 235.8 1236.3 230.2C1236.3 232.3 1236.4 234.3 1236.3 236.2C1236.1 238.3 1237 239.7 1238.7 240.7C1240 241.4 1241.3 242.1 1242.7 242.6C1247.9 244.5 1253.3 244.9 1258.8 244.5C1263.2 244.1 1267.5 243.3 1271.4 241.1C1273.4 239.9 1274.7 238.5 1274.4 235.9C1274.2 234.1 1274.4 232.3 1274.4 230.2ZM1383.9 84.9001C1389.2 86.6001 1396.2 84.5 1399.4 80.4001C1403.3 75.4001 1400.3 67.5 1393.8 66.1C1392.1 73.2 1388.9 79.4001 1383.9 84.9001Z" fill="#15BEE6"/>
<path d="M1361 175.7C1360.5 178.3 1361.9 182.4 1357.3 182.3C1353.1 182.2 1354.3 178.3 1353.9 175.7C1352.7 175.5 1351.5 175.3 1350.3 175C1344.6 173.5 1340.4 168.2 1340.2 162.4C1340.1 160 1341.3 158.4 1343.4 158.3C1345.5 158.2 1346.8 159.4 1347.1 161.9C1347.5 165.9 1350 168.3 1353.9 168.5C1353.9 164 1353.9 159.5 1353.9 154.9C1349.6 154.6 1345.8 152.9 1343.1 149.4C1341.1 146.8 1340.1 143.8 1340.2 140.5C1340.4 133.3 1345.3 128.4 1353.9 126.9C1354.3 124.3 1353.1 120.2 1357.6 120.3C1361.9 120.4 1360.6 124.3 1361 126.9C1362.2 127.1 1363.4 127.3 1364.6 127.6C1370.4 129.1 1374.6 134.4 1374.7 140.3C1374.8 142.7 1373.6 144.1 1371.6 144.3C1369.5 144.5 1368.1 143.2 1367.8 140.7C1367.2 136.4 1364.8 134 1360.9 134.1C1360.9 138 1360.9 141.9 1360.9 145.8C1360.9 146.4 1361 147 1361 147.6C1369.8 149.1 1374.6 153.9 1374.7 161.3C1374.8 168.9 1370.2 173.7 1361 175.7ZM1360.9 154.9C1360.9 159.4 1360.9 163.9 1360.9 168.4C1364.6 168.6 1367.6 165.7 1367.7 161.9C1367.8 157.9 1364.9 154.9 1360.9 154.9ZM1353.8 134.1C1349.8 134.3 1346.9 137.4 1347 141.1C1347.1 144.8 1350 147.7 1353.8 147.7C1353.8 143.2 1353.8 138.7 1353.8 134.1Z" fill="#15BEE6"/>
<path d="M1391.3 217.1C1387.5 217.1 1385.8 215.9 1385.7 213.7C1385.6 211.6 1387.2 210 1389.8 209.9C1394.4 209.7 1398.9 208.9 1403.1 207.1C1411.4 203.5 1414.9 196.7 1415.9 188.2C1416 187.5 1415.9 186.7 1416 186C1416.3 183.7 1417.9 182.2 1419.8 182.3C1421.8 182.5 1423.2 184.1 1423.1 186.4C1422.9 192.6 1421.3 198.4 1417.9 203.6C1413.4 210.6 1406.6 214 1398.9 215.8C1396.1 216.5 1393.1 216.8 1391.3 217.1Z" fill="#15BEE6"/>
</g>
<mask id="mask9_4_1327" style="mask-type:luminance" maskUnits="userSpaceOnUse" x="0" y="0" width="1521" height="255">
<path d="M1521 0H0V255H1521V0Z" fill="white"/>
</mask>
<g mask="url(#mask9_4_1327)">
<path d="M57.5 206.7C57.5 205.4 57.7 204.2 58 203.1C58.3 202 58.8 201 59.4 200.1H60.5C60.3 200.4 60 200.9 59.8 201.3C59.6 201.8 59.4 202.3 59.2 202.9C59 203.5 58.9 204.1 58.8 204.7C58.7 205.3 58.7 205.9 58.7 206.6C58.7 207.4 58.8 208.2 58.9 209.1C59.1 209.9 59.3 210.7 59.5 211.4C59.8 212.1 60.1 212.7 60.4 213.2H59.3C58.7 212.3 58.2 211.3 57.9 210.2C57.6 209.1 57.5 208 57.5 206.7Z" fill="#D3D3D3"/>
<path d="M69.4 200.7H70.6999V207.6C70.6999 208.3 70.4999 209 70.1999 209.5C69.8999 210.1 69.4 210.5 68.8 210.8C68.2 211.1 67.4999 211.3 66.6999 211.3C65.8999 211.3 65.1999 211.1 64.5999 210.8C63.9999 210.5 63.5 210 63.2 209.5C62.9 208.9 62.7 208.3 62.7 207.6V200.7H64V207.5C64 208 64.1 208.5 64.3 208.9C64.5 209.3 64.8 209.6 65.3 209.8C65.7 210 66.2 210.1 66.8 210.1C67.4 210.1 67.9 210 68.3 209.8C68.7 209.6 69 209.3 69.3 208.9C69.6 208.5 69.5999 208 69.5999 207.5V200.7H69.4Z" fill="#D3D3D3"/>
<path d="M81.5 200.7V211.2H80.3L74.6 203H74.5V211.2H73.2V200.7H74.4L80.1 208.9H80.2V200.7H81.5Z" fill="#D3D3D3"/>
<path d="M92.5 204H91.2C91.1 203.6 91 203.3 90.8 203C90.6 202.7 90.4 202.5 90.1 202.3C89.8 202.1 89.5 202 89.2 201.9C88.9 201.8 88.5 201.8 88.2 201.8C87.6 201.8 87 202 86.5 202.3C86 202.6 85.6 203.1 85.3 203.7C85 204.3 84.8 205.1 84.8 206C84.8 206.9 85 207.7 85.3 208.3C85.6 208.9 86 209.4 86.5 209.7C87 210 87.6 210.2 88.2 210.2C88.5 210.2 88.9 210.2 89.2 210.1C89.5 210 89.8 209.9 90.1 209.7C90.4 209.5 90.6 209.3 90.8 209C91 208.7 91.1 208.4 91.2 208H92.5C92.4 208.5 92.2 209 92 209.4C91.7 209.8 91.4 210.2 91.1 210.5C90.7 210.8 90.3 211 89.8 211.2C89.3 211.4 88.8 211.4 88.3 211.4C87.4 211.4 86.6 211.2 85.9 210.7C85.2 210.3 84.7 209.6 84.3 208.8C83.9 208 83.7 207 83.7 205.9C83.7 204.8 83.9 203.8 84.3 203C84.7 202.2 85.2 201.6 85.9 201.1C86.6 200.7 87.4 200.4 88.3 200.4C88.8 200.4 89.3 200.5 89.8 200.6C90.3 200.7 90.7 201 91.1 201.3C91.5 201.6 91.8 202 92 202.4C92.2 202.9 92.4 203.4 92.5 204Z" fill="#D3D3D3"/>
<path d="M93.8999 201.8V200.7H101.8V201.8H98.4999V211.2H97.1999V201.8H93.8999Z" fill="#D3D3D3"/>
<path d="M104.2 211.2H102.9L106.7 200.7H108L111.8 211.2H110.5L107.4 202.4H107.3L104.2 211.2ZM104.7 207.1H110.1V208.2H104.7V207.1Z" fill="#D3D3D3"/>
<path d="M116.7 211.2H113.5V200.7H116.9C117.9 200.7 118.8 200.9 119.5 201.3C120.2 201.7 120.8 202.3 121.2 203.1C121.6 203.9 121.8 204.8 121.8 205.9C121.8 207 121.6 207.9 121.2 208.7C120.8 209.5 120.2 210.1 119.5 210.5C118.8 210.9 117.8 211.2 116.7 211.2ZM114.8 210H116.7C117.6 210 118.3 209.8 118.9 209.5C119.5 209.2 119.9 208.7 120.2 208.1C120.5 207.5 120.6 206.7 120.6 205.9C120.6 205.1 120.5 204.3 120.2 203.7C119.9 203.1 119.5 202.6 119 202.3C118.5 202 117.8 201.8 116.9 201.8H114.9V210H114.8Z" fill="#D3D3D3"/>
<path d="M127.7 211.2V210.3L131.2 206.5C131.6 206.1 131.9 205.7 132.2 205.3C132.5 205 132.7 204.7 132.8 204.4C132.9 204.1 133 203.8 133 203.5C133 203.1 132.9 202.8 132.7 202.5C132.5 202.2 132.3 202 132 201.9C131.7 201.8 131.4 201.7 131 201.7C130.6 201.7 130.2 201.8 129.9 201.9C129.6 202.1 129.4 202.3 129.2 202.6C129 202.9 129 203.2 129 203.6H127.8C127.8 203 127.9 202.4 128.2 202C128.5 201.6 128.9 201.2 129.4 200.9C129.9 200.6 130.4 200.5 131.1 200.5C131.7 200.5 132.3 200.6 132.7 200.9C133.2 201.2 133.5 201.5 133.8 201.9C134.1 202.3 134.2 202.8 134.2 203.4C134.2 203.8 134.1 204.2 134 204.5C133.9 204.9 133.6 205.3 133.3 205.7C133 206.1 132.5 206.7 131.9 207.3L129.5 209.8V209.9H134.4V211H127.7V211.2Z" fill="#D3D3D3"/>
<path d="M139.9 211.3C139.1 211.3 138.5 211.1 137.9 210.7C137.4 210.3 136.9 209.7 136.7 208.9C136.4 208.1 136.3 207.1 136.3 206C136.3 204.9 136.4 203.9 136.7 203.1C137 202.3 137.4 201.7 137.9 201.3C138.4 200.9 139.1 200.7 139.9 200.7C140.7 200.7 141.3 200.9 141.9 201.3C142.4 201.7 142.9 202.3 143.1 203.1C143.4 203.9 143.5 204.9 143.5 206C143.5 207.1 143.4 208.1 143.1 208.9C142.8 209.7 142.4 210.3 141.9 210.7C141.3 211.1 140.6 211.3 139.9 211.3ZM139.9 210.2C140.7 210.2 141.3 209.8 141.7 209.1C142.1 208.4 142.3 207.3 142.3 205.9C142.3 205 142.2 204.2 142 203.6C141.8 203 141.5 202.5 141.2 202.1C140.8 201.8 140.4 201.6 139.9 201.6C139.1 201.6 138.6 202 138.1 202.7C137.7 203.4 137.5 204.5 137.5 205.9C137.5 206.8 137.6 207.6 137.8 208.2C138 208.8 138.3 209.3 138.6 209.6C138.9 209.9 139.4 210.2 139.9 210.2Z" fill="#D3D3D3"/>
<path d="M145.5 211.2V210.3L149 206.5C149.4 206.1 149.7 205.7 150 205.3C150.3 205 150.5 204.7 150.6 204.4C150.7 204.1 150.8 203.8 150.8 203.5C150.8 203.1 150.7 202.8 150.5 202.5C150.3 202.2 150.1 202 149.8 201.9C149.5 201.8 149.2 201.7 148.8 201.7C148.4 201.7 148 201.8 147.7 201.9C147.4 202.1 147.2 202.3 147 202.6C146.8 202.9 146.8 203.2 146.8 203.6H145.6C145.6 203 145.7 202.4 146 202C146.3 201.6 146.7 201.2 147.2 200.9C147.7 200.6 148.2 200.5 148.9 200.5C149.5 200.5 150.1 200.6 150.5 200.9C151 201.2 151.3 201.5 151.6 201.9C151.9 202.3 152 202.8 152 203.4C152 203.8 151.9 204.2 151.8 204.5C151.7 204.9 151.4 205.3 151.1 205.7C150.8 206.1 150.3 206.7 149.7 207.3L147.3 209.8V209.9H152.2V211H145.5V211.2Z" fill="#D3D3D3"/>
<path d="M153.9 209V208L158.5 200.7H159.3V202.3H158.8L155.3 207.8V207.9H161.5V209H153.9ZM158.9 211.2V208.7V208.2V200.7H160.1V211.2H158.9Z" fill="#D3D3D3"/>
<path d="M166 206.7C166 208 165.8 209.2 165.5 210.3C165.2 211.4 164.7 212.4 164.1 213.3H163C163.2 213 163.5 212.5 163.7 212.1C163.9 211.6 164.1 211.1 164.3 210.5C164.5 209.9 164.6 209.3 164.7 208.7C164.8 208.1 164.8 207.5 164.8 206.8C164.8 206 164.7 205.2 164.6 204.3C164.5 203.4 164.2 202.7 164 202C163.7 201.3 163.4 200.7 163.1 200.2H164.2C164.8 201.1 165.3 202.1 165.6 203.2C165.9 204.3 166 205.5 166 206.7Z" fill="#D3D3D3"/>
</g>
<mask id="mask10_4_1327" style="mask-type:luminance" maskUnits="userSpaceOnUse" x="0" y="0" width="1521" height="255">
<path d="M1521 0H0V255H1521V0Z" fill="white"/>
</mask>
<g mask="url(#mask10_4_1327)">
<path d="M64.9 60.8999H58V39.3999H65.2C67.3 39.3999 69.1 39.7999 70.6 40.6999C72.1 41.5999 73.3 42.7999 74.1 44.3999C74.9 45.9999 75.3 47.8999 75.3 50.0999C75.3 52.2999 74.9 54.2999 74.1 55.8999C73.3 57.4999 72.1 58.6999 70.6 59.5999C68.9 60.4999 67.1 60.8999 64.9 60.8999ZM61.2 58.0999H64.7C66.3 58.0999 67.7 57.7999 68.8 57.1999C69.9 56.5999 70.7 55.6999 71.2 54.4999C71.7 53.2999 72 51.8999 72 50.1999C72 48.4999 71.7 47.0999 71.2 45.8999C70.7 44.6999 69.9 43.7999 68.8 43.1999C67.7 42.5999 66.4 42.2999 64.9 42.2999H61.2V58.0999Z" fill="#242438"/>
<path d="M80.6001 42.3C80.1001 42.3 79.6001 42.1 79.2001 41.7C78.8001 41.3 78.6001 40.9 78.6001 40.4C78.6001 39.9 78.8001 39.4 79.2001 39.1C79.6001 38.7 80.1001 38.5 80.6001 38.5C81.1001 38.5 81.6001 38.7 82.0001 39.1C82.4001 39.5 82.6001 39.9 82.6001 40.4C82.6001 40.9 82.4001 41.4 82.0001 41.7C81.6001 42.1 81.1001 42.3 80.6001 42.3ZM79.0001 60.9V44.8H82.1001V60.9H79.0001Z" fill="#242438"/>
<path d="M92.3 61.1999C91 61.1999 89.8 60.8999 88.8 60.1999C87.8 59.4999 87 58.5999 86.4 57.2999C85.8 56.0999 85.5 54.5999 85.5 52.7999C85.5 51.0999 85.8 49.5999 86.4 48.2999C87 47.0999 87.8 46.0999 88.8 45.4999C89.8 44.7999 91 44.4999 92.3 44.4999C93.3 44.4999 94.1 44.6999 94.7 44.9999C95.3 45.2999 95.8 45.6999 96.1 46.1999C96.4 46.5999 96.7 46.9999 96.9 47.3999H97.1V39.3999H100.2V60.8999H97.1V58.3999H97C96.8 58.6999 96.5 59.0999 96.2 59.5999C95.8 59.9999 95.4 60.3999 94.7 60.7999C94.1 60.9999 93.3 61.1999 92.3 61.1999ZM93 58.4999C93.9 58.4999 94.7 58.2999 95.3 57.7999C95.9 57.2999 96.4 56.6999 96.7 55.7999C97 54.8999 97.2 53.9999 97.2 52.7999C97.2 51.6999 97 50.6999 96.7 49.8999C96.4 49.0999 95.9 48.3999 95.3 47.8999C94.7 47.3999 93.9 47.1999 93 47.1999C92.1 47.1999 91.3 47.3999 90.6 47.8999C89.9 48.3999 89.5 49.0999 89.2 49.8999C88.9 50.6999 88.7 51.6999 88.7 52.7999C88.7 53.8999 88.9 54.7999 89.2 55.6999C89.5 56.5999 90 57.1999 90.6 57.6999C91.2 58.1999 92.1 58.4999 93 58.4999Z" fill="#242438"/>
<path d="M114.6 66.9001C114.1 66.9001 113.7 66.9001 113.3 66.8001C112.9 66.7001 112.6 66.6 112.4 66.6L113.2 64C113.8 64.2001 114.3 64.2 114.7 64.2C115.1 64.2 115.5 64 115.9 63.7001C116.3 63.4001 116.6 62.9001 116.8 62.2001L117.2 61.1L111.3 44.8H114.7L118.8 57.3H119L123.1 44.8H126.5L119.7 63C119.4 63.8 119 64.5 118.5 65.1C118 65.7 117.5 66.1001 116.8 66.4001C116.2 66.8001 115.5 66.9001 114.6 66.9001Z" fill="#242438"/>
<path d="M136.1 61.2001C134.6 61.2001 133.3 60.9001 132.1 60.2001C131 59.5001 130.1 58.5001 129.5 57.3001C128.9 56.1001 128.6 54.6001 128.6 52.9001C128.6 51.2001 128.9 49.8001 129.5 48.5001C130.1 47.2001 131 46.3001 132.1 45.6001C133.2 44.9001 134.5 44.6001 136.1 44.6001C137.7 44.6001 138.9 44.9001 140.1 45.6001C141.2 46.3001 142.1 47.3001 142.7 48.5001C143.3 49.7001 143.6 51.2001 143.6 52.9001C143.6 54.6001 143.3 56.0001 142.7 57.3001C142.1 58.5001 141.2 59.5001 140.1 60.2001C138.9 60.9001 137.6 61.2001 136.1 61.2001ZM136.1 58.6001C137.1 58.6001 137.9 58.3001 138.5 57.8001C139.1 57.3001 139.6 56.6001 139.9 55.7001C140.2 54.8001 140.4 53.9001 140.4 52.9001C140.4 51.9001 140.2 50.9001 139.9 50.1001C139.6 49.2001 139.1 48.5001 138.5 48.0001C137.9 47.5001 137 47.2001 136.1 47.2001C135.1 47.2001 134.3 47.5001 133.7 48.0001C133.1 48.5001 132.6 49.2001 132.3 50.1001C132 51.0001 131.8 51.9001 131.8 52.9001C131.8 53.9001 132 54.9001 132.3 55.7001C132.6 56.6001 133.1 57.2001 133.7 57.8001C134.3 58.3001 135.1 58.6001 136.1 58.6001Z" fill="#242438"/>
<path d="M157.3 54.2001V44.8H160.4V60.9001H157.3V58.1H157.1C156.7 59 156.1 59.7001 155.3 60.2001C154.5 60.8001 153.5 61.1 152.3 61.1C151.3 61.1 150.4 60.9001 149.6 60.4001C148.8 59.9001 148.2 59.3001 147.7 58.4001C147.2 57.5001 147 56.4 147 55.1V44.8H150.1V54.7001C150.1 55.8001 150.4 56.7 151 57.3C151.6 58 152.4 58.3 153.4 58.3C154 58.3 154.6 58.2001 155.2 57.9001C155.8 57.6001 156.3 57.2 156.7 56.6C157.1 56 157.3 55.1 157.3 54.2001Z" fill="#242438"/>
<path d="M172.5 60.8999V39.3999H175.6V60.8999H172.5ZM175.4 55.3999V51.5999H175.9L182.3 44.7999H186.1L178.8 52.5999H178.3L175.4 55.3999ZM182.6 60.8999L176.8 53.1999L179 50.9999L186.5 60.7999H182.6V60.8999Z" fill="#15BEE6"/>
<path d="M192 51.3V60.9H188.9V44.8H191.9V47.4H192.1C192.5 46.5 193.1 45.9 193.8 45.3C194.6 44.8 195.6 44.5 196.8 44.5C197.9 44.5 198.9 44.7 199.7 45.2C200.5 45.7 201.2 46.3 201.6 47.2C202.1 48.1 202.3 49.2 202.3 50.5V60.7H199.2V51C199.2 49.8 198.9 48.9 198.3 48.3C197.7 47.6 196.9 47.3 195.8 47.3C195.1 47.3 194.4 47.5 193.9 47.8C193.4 48.1 192.9 48.6 192.6 49.2C192.2 49.7 192 50.5 192 51.3Z" fill="#15BEE6"/>
<path d="M213.3 61.2001C211.8 61.2001 210.5 60.9001 209.3 60.2001C208.2 59.5001 207.3 58.5001 206.7 57.3001C206.1 56.1001 205.8 54.6001 205.8 52.9001C205.8 51.2001 206.1 49.8001 206.7 48.5001C207.3 47.2001 208.2 46.3001 209.3 45.6001C210.4 44.9001 211.7 44.6001 213.3 44.6001C214.9 44.6001 216.1 44.9001 217.3 45.6001C218.4 46.3001 219.3 47.3001 219.9 48.5001C220.5 49.7001 220.8 51.2001 220.8 52.9001C220.8 54.6001 220.5 56.0001 219.9 57.3001C219.3 58.5001 218.4 59.5001 217.3 60.2001C216.1 60.9001 214.8 61.2001 213.3 61.2001ZM213.3 58.6001C214.3 58.6001 215.1 58.3001 215.7 57.8001C216.3 57.3001 216.8 56.6001 217.1 55.7001C217.4 54.8001 217.6 53.9001 217.6 52.9001C217.6 51.9001 217.4 50.9001 217.1 50.1001C216.8 49.2001 216.3 48.5001 215.7 48.0001C215.1 47.5001 214.2 47.2001 213.3 47.2001C212.3 47.2001 211.5 47.5001 210.9 48.0001C210.3 48.5001 209.8 49.2001 209.5 50.1001C209.2 51.0001 209 51.9001 209 52.9001C209 53.9001 209.2 54.9001 209.5 55.7001C209.8 56.6001 210.3 57.2001 210.9 57.8001C211.5 58.3001 212.3 58.6001 213.3 58.6001Z" fill="#15BEE6"/>
<path d="M227.8 60.9001L223.1 44.8H226.3L229.5 56.6H229.7L232.9 44.8H236.1L239.2 56.6H239.4L242.5 44.8H245.7L241 60.9001H237.8L234.5 49.3H234.3L231 60.9001H227.8Z" fill="#15BEE6"/>
<path d="M252.1 54.4999C252.1 53.1999 252.2 52.1999 252.5 51.3999C252.8 50.5999 253.1 49.9999 253.6 49.4999C254.1 48.9999 254.6 48.5999 255.3 48.1999C255.7 47.8999 256.1 47.5999 256.4 47.2999C256.7 46.9999 257 46.5999 257.2 46.1999C257.4 45.7999 257.5 45.2999 257.5 44.7999C257.5 44.1999 257.4 43.5999 257.1 43.1999C256.8 42.6999 256.4 42.3999 255.9 42.0999C255.4 41.7999 254.9 41.6999 254.3 41.6999C253.8 41.6999 253.2 41.7999 252.8 41.9999C252.4 42.1999 251.9 42.5999 251.6 42.9999C251.3 43.3999 251.1 44.0999 251 44.7999H247.8C247.8 43.4999 248.2 42.4999 248.8 41.5999C249.4 40.6999 250.2 40.0999 251.1 39.5999C252 39.0999 253.1 38.8999 254.3 38.8999C255.6 38.8999 256.7 39.0999 257.7 39.5999C258.7 40.0999 259.4 40.6999 259.9 41.5999C260.4 42.4999 260.7 43.4999 260.7 44.5999C260.7 45.3999 260.6 46.0999 260.3 46.6999C260.1 47.2999 259.7 47.8999 259.3 48.3999C258.8 48.8999 258.3 49.2999 257.7 49.6999C257.1 50.0999 256.6 50.4999 256.3 50.8999C255.9 51.2999 255.7 51.7999 255.5 52.2999C255.3 52.7999 255.2 53.4999 255.2 54.2999V54.4999H252.1ZM253.7 61.0999C253.1 61.0999 252.6 60.8999 252.2 60.4999C251.8 60.0999 251.6 59.5999 251.6 58.9999C251.6 58.3999 251.8 57.8999 252.2 57.4999C252.6 57.0999 253.1 56.8999 253.7 56.8999C254.3 56.8999 254.8 57.0999 255.2 57.4999C255.6 57.8999 255.8 58.3999 255.8 58.9999C255.8 59.3999 255.7 59.6999 255.5 60.0999C255.3 60.3999 255.1 60.6999 254.7 60.8999C254.4 60.9999 254 61.0999 253.7 61.0999Z" fill="#15BEE6"/>
<path d="M258 65.6001H171.9V68.2001H258V65.6001Z" fill="#D9F4F9"/>
</g>
</g>
<defs>
<clipPath id="clip0_4_1327">
<rect width="1521" height="255" fill="white"/>
</clipPath>
</defs>
</svg>
