<svg width="1521" height="255" viewBox="0 0 1521 255" fill="none" xmlns="http://www.w3.org/2000/svg">
<g clip-path="url(#clip0_4_1024)">
<path d="M1521 0H0V255H1521V0Z" fill="white"/>
<mask id="mask0_4_1024" style="mask-type:luminance" maskUnits="userSpaceOnUse" x="0" y="0" width="1521" height="255">
<path d="M1521 0H0V255H1521V0Z" fill="white"/>
</mask>
<g mask="url(#mask0_4_1024)">
<path d="M589.8 65C625.7 65 654.8 35.9 654.8 0H524.8C524.8 35.9 553.9 65 589.8 65Z" fill="#F2FCFF"/>
</g>
<mask id="mask1_4_1024" style="mask-type:luminance" maskUnits="userSpaceOnUse" x="0" y="0" width="1521" height="255">
<path d="M1521 0H0V255H1521V0Z" fill="white"/>
</mask>
<g mask="url(#mask1_4_1024)">
<path d="M1163.8 214.2C1141.3 214.2 1123 232.5 1123 255H1204.6C1204.6 232.5 1186.3 214.2 1163.8 214.2Z" fill="#F2FCFF"/>
</g>
<mask id="mask2_4_1024" style="mask-type:luminance" maskUnits="userSpaceOnUse" x="0" y="0" width="1521" height="255">
<path d="M1521 0H0V255H1521V0Z" fill="white"/>
</mask>
<g mask="url(#mask2_4_1024)">
<path d="M56.9999 64.7C65.0633 64.7 71.5999 58.1634 71.5999 50.1C71.5999 42.0366 65.0633 35.5 56.9999 35.5C48.9365 35.5 42.3999 42.0366 42.3999 50.1C42.3999 58.1634 48.9365 64.7 56.9999 64.7Z" fill="#F9FEFA"/>
</g>
<mask id="mask3_4_1024" style="mask-type:luminance" maskUnits="userSpaceOnUse" x="0" y="0" width="1521" height="255">
<path d="M1521 0H0V255H1521V0Z" fill="white"/>
</mask>
<g mask="url(#mask3_4_1024)">
<path d="M1176.7 62.5999L1167.7 56L1174.3 47L1169.8 43.7L1163.2 52.7L1154.4 46.2999L1151.1 50.7999L1159.9 57.2L1153.4 66L1157.9 69.3L1164.4 60.5L1173.4 67.0999L1176.7 62.5999Z" fill="#D4F6FF"/>
</g>
<mask id="mask4_4_1024" style="mask-type:luminance" maskUnits="userSpaceOnUse" x="0" y="0" width="1521" height="255">
<path d="M1521 0H0V255H1521V0Z" fill="white"/>
</mask>
<g mask="url(#mask4_4_1024)">
<path d="M1485 158C1490.52 158 1495 153.523 1495 148C1495 142.477 1490.52 138 1485 138C1479.48 138 1475 142.477 1475 148C1475 153.523 1479.48 158 1485 158Z" fill="#F2FCFF"/>
</g>
<mask id="mask5_4_1024" style="mask-type:luminance" maskUnits="userSpaceOnUse" x="0" y="0" width="1521" height="255">
<path d="M1521 0H0V255H1521V0Z" fill="white"/>
</mask>
<g mask="url(#mask5_4_1024)">
<path d="M655 274C667.703 274 678 263.703 678 251C678 238.297 667.703 228 655 228C642.297 228 632 238.297 632 251C632 263.703 642.297 274 655 274Z" fill="#F2FCFF"/>
</g>
<mask id="mask6_4_1024" style="mask-type:luminance" maskUnits="userSpaceOnUse" x="0" y="0" width="1521" height="255">
<path d="M1521 0H0V255H1521V0Z" fill="white"/>
</mask>
<g mask="url(#mask6_4_1024)">
<path d="M87.8998 108.2C87.8998 111.8 87.1998 114.8 85.8998 117.4C84.5998 119.9 82.6998 121.9 80.3998 123.2C78.0998 124.5 75.4998 125.2 72.5998 125.2C69.6998 125.2 67.0998 124.5 64.7998 123.2C62.4998 121.8 60.6998 119.9 59.2998 117.3C57.8998 114.7 57.2998 111.7 57.2998 108.1C57.2998 104.5 57.9998 101.5 59.2998 98.9C60.5998 96.4 62.4998 94.4 64.7998 93.1C67.0998 91.7 69.6998 91.1 72.5998 91.1C75.4998 91.1 78.0998 91.8 80.3998 93.1C82.6998 94.5 84.4998 96.4 85.8998 98.9C87.1998 101.5 87.8998 104.6 87.8998 108.2ZM81.7998 108.2C81.7998 105.7 81.3998 103.6 80.5998 101.8C79.7998 100 78.6998 98.8 77.2998 97.9C75.8998 97 74.2998 96.6 72.4998 96.6C70.6998 96.6 69.0998 97 67.6998 97.9C66.2998 98.8 65.1998 100.1 64.3998 101.8C63.5998 103.5 63.1998 105.7 63.1998 108.2C63.1998 110.7 63.5998 112.8 64.3998 114.6C65.1998 116.3 66.2998 117.6 67.6998 118.5C69.0998 119.4 70.6998 119.8 72.4998 119.8C74.2998 119.8 75.8998 119.4 77.2998 118.5C78.6998 117.6 79.7998 116.3 80.5998 114.6C81.3998 112.9 81.7998 110.7 81.7998 108.2Z" fill="#77809C"/>
<path d="M115.1 99.9L106.2 124.8H99.6998L90.7998 99.9H97.0998L102.8 118.4H103.1L108.8 99.9H115.1Z" fill="#77809C"/>
<path d="M129.7 125.3C127.2 125.3 125 124.8 123.2 123.7C121.4 122.7 120 121.2 119 119.3C118 117.4 117.5 115.1 117.5 112.5C117.5 109.9 118 107.7 119 105.7C120 103.8 121.3 102.2 123.1 101.2C124.9 100.2 126.9 99.6 129.3 99.6C130.8 99.6 132.3 99.8 133.7 100.3C135.1 100.8 136.3 101.6 137.3 102.6C138.4 103.6 139.2 104.9 139.8 106.5C140.4 108.1 140.7 110 140.7 112.2V114H120.3V110H135.1C135.1 108.9 134.8 107.9 134.4 107C133.9 106.1 133.3 105.4 132.4 104.9C131.6 104.4 130.6 104.1 129.4 104.1C128.2 104.1 127.1 104.4 126.2 105C125.3 105.6 124.6 106.3 124.1 107.3C123.6 108.3 123.3 109.3 123.3 110.4V113.9C123.3 115.3 123.6 116.6 124.1 117.6C124.6 118.6 125.4 119.4 126.3 120C127.3 120.5 128.4 120.8 129.6 120.8C130.5 120.8 131.2 120.7 131.9 120.4C132.6 120.2 133.2 119.8 133.7 119.3C134.2 118.8 134.6 118.2 134.9 117.5L140.4 118.1C140.1 119.5 139.4 120.8 138.4 121.9C137.4 123 136.2 123.8 134.7 124.4C133.4 125 131.7 125.3 129.7 125.3Z" fill="#77809C"/>
<path d="M145.3 124.8V99.9H151V104.1H151.3C151.8 102.7 152.5 101.6 153.6 100.8C154.7 100 156 99.6 157.4 99.6C157.7 99.6 158.1 99.6 158.5 99.6C158.9 99.6 159.2 99.7 159.5 99.7V105.1C159.3 105 158.9 104.9 158.3 104.9C157.7 104.9 157.2 104.8 156.8 104.8C155.7 104.8 154.8 105 153.9 105.5C153 106 152.4 106.6 151.9 107.4C151.4 108.2 151.2 109.1 151.2 110.2V124.8H145.3Z" fill="#77809C"/>
<path d="M173.8 124.8V120.5L185.3 109.2C186.4 108.1 187.3 107.1 188.1 106.2C188.8 105.3 189.4 104.5 189.8 103.7C190.2 102.9 190.4 102 190.4 101.1C190.4 100.1 190.2 99.2 189.7 98.4C189.2 97.6 188.6 97.1 187.7 96.7C186.9 96.3 185.9 96.1 184.9 96.1C183.8 96.1 182.9 96.3 182 96.8C181.2 97.2 180.5 97.9 180.1 98.7C179.7 99.5 179.4 100.5 179.4 101.6H173.7C173.7 99.5 174.2 97.7 175.1 96.1C176.1 94.5 177.4 93.3 179.1 92.5C180.8 91.7 182.7 91.2 184.9 91.2C187.1 91.2 189.1 91.6 190.8 92.4C192.5 93.2 193.8 94.4 194.7 95.8C195.6 97.2 196.1 98.9 196.1 100.8C196.1 102 195.9 103.3 195.4 104.5C194.9 105.7 194.1 107 192.9 108.5C191.7 110 190 111.7 187.9 113.8L182.2 119.6V119.8H196.7V124.8H173.8Z" fill="#242438"/>
<path d="M208.7 120.2L208.5 122C208.3 123.4 208.1 124.8 207.7 126.2C207.3 127.6 206.9 128.9 206.5 130.1C206.1 131.3 205.7 132.2 205.5 132.9H201.5C201.7 132.2 201.9 131.3 202.1 130.2C202.3 129.1 202.6 127.8 202.9 126.4C203.1 125 203.3 123.5 203.4 122.1L203.5 120.3H208.7V120.2Z" fill="#242438"/>
<path d="M228.3 91.6V124.8H222.3V97.4H222.1L214.3 102.4V96.9L222.6 91.6H228.3Z" fill="#242438"/>
<path d="M247.8 91.1C249.4 91.1 250.9 91.4 252.4 91.9C253.9 92.4 255.3 93.3 256.5 94.6C257.7 95.8 258.7 97.5 259.4 99.5C260.1 101.6 260.5 104.1 260.5 107.1C260.5 110 260.2 112.5 259.6 114.7C259 116.9 258.1 118.8 257 120.4C255.9 121.9 254.5 123.1 252.9 123.9C251.3 124.7 249.5 125.1 247.5 125.1C245.4 125.1 243.5 124.7 241.9 123.9C240.3 123.1 239 122 238 120.5C237 119.1 236.4 117.4 236.2 115.6H242.1C242.4 116.9 243 118 244 118.7C244.9 119.5 246.1 119.9 247.5 119.9C249.8 119.9 251.6 118.9 252.8 116.9C254 114.9 254.7 112.1 254.7 108.6H254.5C254 109.6 253.3 110.4 252.4 111.1C251.6 111.8 250.6 112.3 249.5 112.7C248.4 113.1 247.3 113.3 246.1 113.3C244.2 113.3 242.4 112.8 240.9 111.9C239.3 111 238.1 109.7 237.2 108.1C236.3 106.5 235.8 104.6 235.8 102.5C235.8 100.3 236.3 98.4 237.3 96.7C238.3 95 239.7 93.6 241.5 92.6C243.3 91.6 245.4 91.1 247.8 91.1ZM247.8 96C246.6 96 245.6 96.3 244.6 96.9C243.7 97.5 242.9 98.2 242.4 99.2C241.9 100.2 241.6 101.2 241.6 102.4C241.6 103.6 241.9 104.6 242.4 105.6C242.9 106.6 243.6 107.3 244.6 107.9C245.5 108.5 246.6 108.7 247.7 108.7C248.6 108.7 249.4 108.5 250.1 108.2C250.9 107.9 251.5 107.4 252.1 106.8C252.7 106.2 253.1 105.5 253.4 104.7C253.7 103.9 253.9 103.1 253.9 102.3C253.9 101.2 253.6 100.1 253.1 99.2C252.6 98.2 251.8 97.5 250.9 96.9C250 96.3 249 96 247.8 96Z" fill="#242438"/>
<path d="M277.6 125.2C276 125.2 274.5 124.9 272.9 124.4C271.4 123.9 270 123 268.8 121.7C267.6 120.5 266.6 118.8 265.9 116.8C265.2 114.7 264.8 112.2 264.8 109.1C264.8 106.3 265.1 103.7 265.7 101.5C266.3 99.3 267.2 97.4 268.3 95.8C269.4 94.3 270.8 93.1 272.4 92.3C274 91.5 275.8 91.1 277.8 91.1C279.9 91.1 281.7 91.5 283.4 92.3C285 93.1 286.3 94.2 287.3 95.7C288.3 97.1 288.9 98.7 289.1 100.5H283.2C282.9 99.2 282.3 98.2 281.3 97.4C280.3 96.6 279.2 96.3 277.8 96.3C275.5 96.3 273.7 97.3 272.5 99.3C271.3 101.3 270.6 104 270.6 107.5H270.8C271.3 106.5 272 105.7 272.9 105.1C273.7 104.4 274.7 103.9 275.8 103.5C276.9 103.1 278 102.9 279.2 102.9C281.1 102.9 282.9 103.4 284.4 104.3C286 105.2 287.2 106.5 288.1 108.1C289 109.7 289.5 111.6 289.4 113.7C289.4 115.9 288.9 117.8 287.9 119.6C286.9 121.3 285.5 122.7 283.7 123.7C282.1 124.8 280 125.2 277.6 125.2ZM277.5 120.4C278.7 120.4 279.7 120.1 280.7 119.5C281.6 118.9 282.4 118.2 282.9 117.2C283.4 116.2 283.7 115.1 283.7 113.9C283.7 112.7 283.5 111.6 282.9 110.7C282.4 109.7 281.7 109 280.7 108.4C279.7 107.8 278.7 107.6 277.6 107.6C276.7 107.6 275.9 107.8 275.2 108.1C274.4 108.4 273.8 108.9 273.2 109.5C272.6 110.1 272.2 110.8 271.9 111.5C271.6 112.3 271.4 113.1 271.4 114C271.4 115.2 271.7 116.2 272.2 117.2C272.7 118.2 273.5 119 274.4 119.5C275.3 120.1 276.4 120.4 277.5 120.4Z" fill="#242438"/>
<path d="M311.8 91.6V124.8H305.8V91.6H311.8Z" fill="#77809C"/>
<path d="M323.5 110.2V124.8H317.6V99.9H323.2V104.1H323.5C324.1 102.7 325 101.6 326.2 100.8C327.5 100 329 99.6 330.9 99.6C332.6 99.6 334.1 100 335.4 100.7C336.7 101.4 337.7 102.5 338.4 103.9C339.1 105.3 339.5 107 339.4 109V124.9H333.5V109.9C333.5 108.2 333.1 106.9 332.2 106C331.3 105.1 330.2 104.6 328.6 104.6C327.6 104.6 326.7 104.8 325.9 105.3C325.1 105.7 324.5 106.4 324 107.2C323.5 108 323.5 109 323.5 110.2Z" fill="#77809C"/>
<path d="M357.4 99.9V104.4H343.1V99.9H357.4ZM346.6 93.9H352.5V117.3C352.5 118.1 352.6 118.7 352.9 119.1C353.1 119.5 353.5 119.8 353.9 120C354.3 120.2 354.7 120.2 355.2 120.2C355.6 120.2 355.9 120.2 356.2 120.1C356.5 120 356.7 120 356.9 120L357.9 124.6C357.6 124.7 357.1 124.8 356.6 125C356 125.1 355.3 125.2 354.5 125.2C353 125.2 351.7 125 350.5 124.5C349.3 124 348.4 123.2 347.7 122.2C347 121.2 346.7 119.9 346.7 118.3V93.9H346.6Z" fill="#77809C"/>
<path d="M372.9 125.3C370.4 125.3 368.2 124.8 366.4 123.7C364.6 122.7 363.2 121.2 362.2 119.3C361.2 117.4 360.7 115.1 360.7 112.5C360.7 109.9 361.2 107.7 362.2 105.7C363.2 103.8 364.5 102.2 366.3 101.2C368.1 100.2 370.1 99.6 372.5 99.6C374 99.6 375.5 99.8 376.9 100.3C378.3 100.8 379.5 101.6 380.5 102.6C381.6 103.6 382.4 104.9 383 106.5C383.6 108.1 383.9 110 383.9 112.2V114H363.5V110H378.3C378.3 108.9 378 107.9 377.6 107C377.1 106.1 376.5 105.4 375.6 104.9C374.8 104.4 373.8 104.1 372.6 104.1C371.4 104.1 370.3 104.4 369.4 105C368.5 105.6 367.8 106.3 367.3 107.3C366.8 108.3 366.5 109.3 366.5 110.4V113.9C366.5 115.3 366.8 116.6 367.3 117.6C367.8 118.6 368.6 119.4 369.5 120C370.5 120.5 371.6 120.8 372.8 120.8C373.7 120.8 374.4 120.7 375.1 120.4C375.8 120.2 376.4 119.8 376.9 119.3C377.4 118.8 377.8 118.2 378.1 117.5L383.6 118.1C383.3 119.5 382.6 120.8 381.6 121.9C380.6 123 379.4 123.8 377.9 124.4C376.6 125 374.9 125.3 372.9 125.3Z" fill="#77809C"/>
<path d="M388.5 124.8V99.9H394.2V104.1H394.5C395 102.7 395.7 101.6 396.8 100.8C397.9 100 399.2 99.6 400.6 99.6C400.9 99.6 401.3 99.6 401.7 99.6C402.1 99.6 402.4 99.7 402.7 99.7V105.1C402.5 105 402.1 104.9 401.5 104.9C400.9 104.9 400.4 104.8 400 104.8C398.9 104.8 398 105 397.1 105.5C396.2 106 395.6 106.6 395.1 107.4C394.6 108.2 394.4 109.1 394.4 110.2V124.8H388.5Z" fill="#77809C"/>
<path d="M412 110.2V124.8H406.1V99.9H411.7V104.1H412C412.6 102.7 413.5 101.6 414.7 100.8C416 100 417.5 99.6 419.4 99.6C421.1 99.6 422.6 100 423.9 100.7C425.2 101.4 426.2 102.5 426.9 103.9C427.6 105.3 428 107 427.9 109V124.9H422V109.9C422 108.2 421.6 106.9 420.7 106C419.8 105.1 418.7 104.6 417.1 104.6C416.1 104.6 415.2 104.8 414.4 105.3C413.6 105.7 413 106.4 412.5 107.2C412 108 412 109 412 110.2Z" fill="#77809C"/>
<path d="M440.7 125.3C439.1 125.3 437.7 125 436.4 124.4C435.1 123.8 434.1 123 433.4 121.9C432.7 120.8 432.3 119.4 432.3 117.8C432.3 116.4 432.6 115.2 433.1 114.3C433.6 113.4 434.3 112.6 435.2 112.1C436.1 111.5 437.1 111.1 438.2 110.8C439.3 110.5 440.5 110.3 441.7 110.2C443.2 110 444.3 109.9 445.3 109.8C446.3 109.7 446.9 109.5 447.3 109.2C447.7 108.9 447.9 108.5 447.9 108V107.9C447.9 106.7 447.5 105.7 446.8 105.1C446.1 104.4 445 104.1 443.7 104.1C442.3 104.1 441.1 104.4 440.3 105C439.5 105.6 438.9 106.4 438.6 107.2L433.1 106.4C433.5 104.9 434.2 103.6 435.2 102.6C436.2 101.6 437.4 100.8 438.8 100.3C440.2 99.8 441.8 99.5 443.6 99.5C444.8 99.5 446 99.6 447.2 99.9C448.4 100.2 449.5 100.6 450.5 101.3C451.5 102 452.3 102.8 452.9 103.9C453.5 105 453.8 106.4 453.8 108V124.7H448.2V121.3H448C447.6 122 447.1 122.6 446.5 123.2C445.9 123.8 445.1 124.3 444.1 124.6C443.2 125.1 442 125.3 440.7 125.3ZM442.3 121C443.5 121 444.5 120.8 445.4 120.3C446.3 119.8 446.9 119.2 447.4 118.4C447.9 117.6 448.1 116.8 448.1 115.9V113C447.9 113.2 447.6 113.3 447.2 113.4C446.8 113.5 446.3 113.6 445.7 113.7C445.2 113.8 444.6 113.9 444.1 114C443.6 114.1 443.1 114.1 442.7 114.2C441.8 114.3 441 114.5 440.3 114.8C439.6 115.1 439.1 115.4 438.7 115.9C438.3 116.4 438.1 117 438.1 117.8C438.1 118.9 438.5 119.7 439.3 120.2C440 120.7 441 121 442.3 121Z" fill="#77809C"/>
<path d="M471.8 99.9V104.4H457.5V99.9H471.8ZM461 93.9H466.9V117.3C466.9 118.1 467 118.7 467.3 119.1C467.5 119.5 467.9 119.8 468.3 120C468.7 120.2 469.1 120.2 469.6 120.2C470 120.2 470.3 120.2 470.6 120.1C470.9 120 471.1 120 471.3 120L472.3 124.6C472 124.7 471.5 124.8 471 125C470.4 125.1 469.7 125.2 468.9 125.2C467.4 125.2 466.1 125 464.9 124.5C463.7 124 462.8 123.2 462.1 122.2C461.4 121.2 461.1 119.9 461.1 118.3V93.9H461Z" fill="#77809C"/>
<path d="M479.2 96.3C478.3 96.3 477.5 96 476.8 95.4C476.1 94.8 475.8 94 475.8 93.1C475.8 92.2 476.1 91.5 476.8 90.9C477.5 90.3 478.3 90 479.2 90C480.1 90 480.9 90.3 481.6 90.9C482.3 91.5 482.6 92.3 482.6 93.2C482.6 94.1 482.3 94.8 481.6 95.4C481 96 480.2 96.3 479.2 96.3ZM476.3 124.8V99.9H482.2V124.8H476.3Z" fill="#77809C"/>
<path d="M498.6 125.3C496.2 125.3 494.1 124.8 492.3 123.7C490.5 122.6 489.1 121.1 488.2 119.2C487.2 117.3 486.7 115 486.7 112.5C486.7 109.9 487.2 107.7 488.2 105.7C489.2 103.8 490.6 102.3 492.3 101.2C494.1 100.1 496.2 99.6 498.6 99.6C501 99.6 503.1 100.1 504.9 101.2C506.7 102.3 508.1 103.8 509 105.7C510 107.6 510.5 109.9 510.5 112.5C510.5 115.1 510 117.3 509 119.2C508 121.1 506.6 122.6 504.9 123.7C503.1 124.7 501 125.3 498.6 125.3ZM498.6 120.6C499.9 120.6 501 120.2 501.9 119.5C502.8 118.8 503.4 117.8 503.9 116.6C504.3 115.4 504.6 114 504.6 112.5C504.6 111 504.4 109.6 503.9 108.4C503.4 107.2 502.8 106.2 501.9 105.4C501 104.7 499.9 104.3 498.6 104.3C497.2 104.3 496.1 104.7 495.2 105.4C494.3 106.1 493.6 107.1 493.2 108.4C492.8 109.7 492.5 111 492.5 112.5C492.5 114 492.7 115.4 493.2 116.6C493.6 117.8 494.3 118.8 495.2 119.5C496.1 120.2 497.3 120.6 498.6 120.6Z" fill="#77809C"/>
<path d="M520.9 110.2V124.8H515V99.9H520.6V104.1H520.9C521.5 102.7 522.4 101.6 523.6 100.8C524.9 100 526.4 99.6 528.3 99.6C530 99.6 531.5 100 532.8 100.7C534.1 101.4 535.1 102.5 535.8 103.9C536.5 105.3 536.9 107 536.8 109V124.9H531V109.9C531 108.2 530.6 106.9 529.7 106C528.8 105.1 527.7 104.6 526.1 104.6C525.1 104.6 524.2 104.8 523.4 105.3C522.6 105.7 522 106.4 521.5 107.2C521 108 520.9 109 520.9 110.2Z" fill="#77809C"/>
<path d="M549.6 125.3C548 125.3 546.6 125 545.3 124.4C544 123.8 543 123 542.3 121.9C541.6 120.8 541.2 119.4 541.2 117.8C541.2 116.4 541.5 115.2 542 114.3C542.5 113.4 543.2 112.6 544.1 112.1C545 111.5 546 111.1 547.1 110.8C548.2 110.5 549.4 110.3 550.6 110.2C552.1 110 553.2 109.9 554.2 109.8C555.2 109.7 555.8 109.5 556.2 109.2C556.6 108.9 556.8 108.5 556.8 108V107.9C556.8 106.7 556.4 105.7 555.7 105.1C555 104.4 553.9 104.1 552.6 104.1C551.2 104.1 550 104.4 549.2 105C548.4 105.6 547.8 106.4 547.5 107.2L542 106.4C542.4 104.9 543.1 103.6 544.1 102.6C545.1 101.6 546.3 100.8 547.7 100.3C549.1 99.8 550.7 99.5 552.5 99.5C553.7 99.5 554.9 99.6 556.1 99.9C557.3 100.2 558.4 100.6 559.4 101.3C560.4 102 561.2 102.8 561.8 103.9C562.4 105 562.7 106.4 562.7 108V124.7H557.1V121.3H556.9C556.5 122 556 122.6 555.4 123.2C554.8 123.8 554 124.3 553 124.6C552 125.1 550.9 125.3 549.6 125.3ZM551.1 121C552.3 121 553.3 120.8 554.2 120.3C555.1 119.8 555.7 119.2 556.2 118.4C556.7 117.6 556.9 116.8 556.9 115.9V113C556.7 113.2 556.4 113.3 556 113.4C555.6 113.5 555.1 113.6 554.5 113.7C554 113.8 553.4 113.9 552.9 114C552.4 114.1 551.9 114.1 551.5 114.2C550.6 114.3 549.8 114.5 549.1 114.8C548.4 115.1 547.9 115.4 547.5 115.9C547.1 116.4 546.9 117 546.9 117.8C546.9 118.9 547.3 119.7 548.1 120.2C548.9 120.7 549.9 121 551.1 121Z" fill="#77809C"/>
<path d="M574.1 91.6V124.8H568.2V91.6H574.1Z" fill="#77809C"/>
<path d="M590.5 134.1V99.9H596.3V104H596.6C596.9 103.4 597.3 102.7 597.9 102.1C598.5 101.4 599.2 100.8 600.1 100.3C601 99.8 602.2 99.6 603.7 99.6C605.6 99.6 607.4 100.1 608.9 101.1C610.4 102.1 611.7 103.5 612.6 105.4C613.5 107.3 614 109.6 614 112.4C614 115.1 613.6 117.5 612.7 119.4C611.8 121.3 610.6 122.8 609 123.8C607.4 124.8 605.7 125.3 603.7 125.3C602.3 125.3 601.1 125.1 600.1 124.6C599.2 124.1 598.4 123.5 597.8 122.9C597.2 122.2 596.8 121.6 596.5 121H596.3V134.3H590.5V134.1ZM596.3 112.3C596.3 113.9 596.5 115.3 597 116.5C597.5 117.7 598.1 118.7 599 119.3C599.9 119.9 600.9 120.3 602.2 120.3C603.5 120.3 604.6 120 605.5 119.3C606.4 118.6 607 117.6 607.5 116.4C607.9 115.2 608.2 113.8 608.2 112.2C608.2 110.7 608 109.3 607.5 108.1C607.1 106.9 606.4 106 605.5 105.3C604.6 104.6 603.5 104.3 602.2 104.3C600.9 104.3 599.9 104.6 599 105.3C598.1 106 597.5 106.9 597 108.1C596.5 109.3 596.3 110.7 596.3 112.3Z" fill="#77809C"/>
<path d="M618.6 124.8V99.9H624.3V104.1H624.6C625.1 102.7 625.8 101.6 626.9 100.8C628 100 629.3 99.6 630.7 99.6C631 99.6 631.4 99.6 631.8 99.6C632.2 99.6 632.5 99.7 632.8 99.7V105.1C632.6 105 632.2 104.9 631.6 104.9C631 104.9 630.5 104.8 630.1 104.8C629 104.8 628.1 105 627.2 105.5C626.3 106 625.7 106.6 625.2 107.4C624.7 108.2 624.5 109.1 624.5 110.2V124.8H618.6Z" fill="#77809C"/>
<path d="M647.1 125.3C644.7 125.3 642.6 124.8 640.8 123.7C639 122.6 637.6 121.1 636.7 119.2C635.7 117.3 635.2 115 635.2 112.5C635.2 109.9 635.7 107.7 636.7 105.7C637.7 103.8 639.1 102.3 640.8 101.2C642.6 100.1 644.7 99.6 647.1 99.6C649.5 99.6 651.6 100.1 653.4 101.2C655.2 102.3 656.6 103.8 657.5 105.7C658.5 107.6 659 109.9 659 112.5C659 115.1 658.5 117.3 657.5 119.2C656.5 121.1 655.1 122.6 653.4 123.7C651.7 124.7 649.6 125.3 647.1 125.3ZM647.2 120.6C648.5 120.6 649.6 120.2 650.5 119.5C651.4 118.8 652 117.8 652.5 116.6C652.9 115.4 653.2 114 653.2 112.5C653.2 111 653 109.6 652.5 108.4C652 107.2 651.4 106.2 650.5 105.4C649.6 104.7 648.5 104.3 647.2 104.3C645.8 104.3 644.7 104.7 643.8 105.4C642.9 106.1 642.2 107.1 641.8 108.4C641.4 109.7 641.1 111 641.1 112.5C641.1 114 641.3 115.4 641.8 116.6C642.2 117.8 642.9 118.8 643.8 119.5C644.7 120.2 645.8 120.6 647.2 120.6Z" fill="#77809C"/>
<path d="M663.6 99.9H669.5V126.2C669.5 128 669.2 129.5 668.5 130.6C667.8 131.8 666.8 132.6 665.5 133.2C664.2 133.8 662.7 134.1 660.8 134.1C660.6 134.1 660.4 134.1 660.2 134.1C660 134.1 659.8 134.1 659.6 134.1V129.3C659.8 129.3 659.9 129.3 660 129.3C660.1 129.3 660.3 129.3 660.4 129.3C661.5 129.3 662.3 129 662.8 128.5C663.3 128 663.5 127.2 663.5 126.1V99.9H663.6ZM666.5 96.3C665.6 96.3 664.8 96 664.1 95.4C663.4 94.8 663.1 94 663.1 93.2C663.1 92.3 663.4 91.6 664.1 90.9C664.8 90.2 665.6 90 666.5 90C667.4 90 668.2 90.3 668.9 90.9C669.6 91.5 669.9 92.3 669.9 93.2C669.9 94.1 669.6 94.8 668.9 95.4C668.2 96 667.4 96.3 666.5 96.3Z" fill="#77809C"/>
<path d="M686.1 125.3C683.6 125.3 681.4 124.8 679.6 123.7C677.8 122.7 676.4 121.2 675.4 119.3C674.4 117.4 673.9 115.1 673.9 112.5C673.9 109.9 674.4 107.7 675.4 105.7C676.4 103.8 677.7 102.2 679.5 101.2C681.3 100.2 683.3 99.6 685.7 99.6C687.2 99.6 688.7 99.8 690.1 100.3C691.5 100.8 692.7 101.6 693.7 102.6C694.8 103.6 695.6 104.9 696.2 106.5C696.8 108.1 697.1 110 697.1 112.2V114H676.7V110H691.5C691.5 108.9 691.2 107.9 690.8 107C690.3 106.1 689.7 105.4 688.8 104.9C688 104.4 687 104.1 685.8 104.1C684.6 104.1 683.5 104.4 682.6 105C681.7 105.6 681 106.3 680.5 107.3C680 108.3 679.7 109.3 679.7 110.4V113.9C679.7 115.3 680 116.6 680.5 117.6C681 118.6 681.8 119.4 682.7 120C683.7 120.5 684.8 120.8 686 120.8C686.9 120.8 687.6 120.7 688.3 120.4C689 120.2 689.6 119.8 690.1 119.3C690.6 118.8 691 118.2 691.3 117.5L696.8 118.1C696.5 119.5 695.8 120.8 694.8 121.9C693.8 123 692.6 123.8 691.1 124.4C689.7 125 688 125.3 686.1 125.3Z" fill="#77809C"/>
<path d="M712.5 125.3C710 125.3 707.9 124.8 706.1 123.7C704.3 122.6 703 121.1 702 119.2C701 117.3 700.6 115 700.6 112.5C700.6 110 701.1 107.7 702.1 105.8C703.1 103.9 704.4 102.3 706.2 101.3C708 100.3 710.1 99.7 712.5 99.7C714.5 99.7 716.3 100.1 717.9 100.8C719.5 101.5 720.7 102.6 721.6 103.9C722.5 105.2 723.1 106.8 723.2 108.6H717.6C717.4 107.4 716.8 106.4 716 105.6C715.2 104.8 714 104.4 712.6 104.4C711.4 104.4 710.3 104.7 709.4 105.4C708.5 106 707.8 107 707.3 108.2C706.8 109.4 706.5 110.8 706.5 112.5C706.5 114.2 706.7 115.7 707.2 116.9C707.7 118.1 708.4 119.1 709.3 119.7C710.2 120.3 711.3 120.7 712.5 120.7C713.4 120.7 714.1 120.5 714.8 120.2C715.5 119.9 716.1 119.4 716.5 118.8C717 118.2 717.3 117.4 717.5 116.5H723.1C723 118.3 722.4 119.8 721.5 121.2C720.6 122.6 719.4 123.6 717.8 124.4C716.4 124.9 714.6 125.3 712.5 125.3Z" fill="#77809C"/>
<path d="M740 99.9V104.4H725.7V99.9H740ZM729.2 93.9H735.1V117.3C735.1 118.1 735.2 118.7 735.5 119.1C735.7 119.5 736.1 119.8 736.5 120C736.9 120.2 737.3 120.2 737.8 120.2C738.2 120.2 738.5 120.2 738.8 120.1C739.1 120 739.3 120 739.5 120L740.5 124.6C740.2 124.7 739.7 124.8 739.2 125C738.6 125.1 737.9 125.2 737.1 125.2C735.6 125.2 734.3 125 733.1 124.5C731.9 124 731 123.2 730.3 122.2C729.6 121.2 729.3 119.9 729.3 118.3V93.9H729.2Z" fill="#77809C"/>
<path d="M768 99.9V104.4H753.3V99.9H768ZM756.9 124.8V97.5C756.9 95.8 757.2 94.4 757.9 93.3C758.6 92.2 759.5 91.4 760.7 90.8C761.9 90.2 763.2 90 764.6 90C765.6 90 766.5 90.1 767.3 90.2C768.1 90.4 768.7 90.5 769.1 90.6L767.9 95.1C767.7 95 767.3 94.9 767 94.9C766.7 94.9 766.2 94.8 765.7 94.8C764.6 94.8 763.8 95.1 763.4 95.6C763 96.1 762.7 96.9 762.7 97.8V124.7H756.9V124.8Z" fill="#77809C"/>
<path d="M775.1 96.3C774.2 96.3 773.4 96 772.7 95.4C772 94.8 771.7 94 771.7 93.1C771.7 92.2 772 91.5 772.7 90.9C773.4 90.3 774.2 90 775.1 90C776 90 776.8 90.3 777.5 90.9C778.2 91.5 778.5 92.3 778.5 93.2C778.5 94.1 778.2 94.8 777.5 95.4C776.8 96 776 96.3 775.1 96.3ZM772.1 124.8V99.9H778V124.8H772.1Z" fill="#77809C"/>
<path d="M789.4 110.2V124.8H783.5V99.9H789.1V104.1H789.4C790 102.7 790.9 101.6 792.1 100.8C793.4 100 794.9 99.6 796.8 99.6C798.5 99.6 800 100 801.3 100.7C802.6 101.4 803.6 102.5 804.3 103.9C805 105.3 805.4 107 805.3 109V124.9H799.4V109.9C799.4 108.2 799 106.9 798.1 106C797.2 105.1 796.1 104.6 794.5 104.6C793.5 104.6 792.6 104.8 791.8 105.3C791 105.7 790.4 106.4 789.9 107.2C789.4 108 789.4 109 789.4 110.2Z" fill="#77809C"/>
<path d="M818.1 125.3C816.5 125.3 815.1 125 813.8 124.4C812.5 123.8 811.5 123 810.8 121.9C810.1 120.8 809.7 119.4 809.7 117.8C809.7 116.4 810 115.2 810.5 114.3C811 113.4 811.7 112.6 812.6 112.1C813.5 111.5 814.5 111.1 815.6 110.8C816.7 110.5 817.9 110.3 819.1 110.2C820.6 110 821.7 109.9 822.7 109.8C823.7 109.7 824.3 109.5 824.7 109.2C825.1 108.9 825.3 108.5 825.3 108V107.9C825.3 106.7 824.9 105.7 824.2 105.1C823.5 104.4 822.4 104.1 821.1 104.1C819.7 104.1 818.5 104.4 817.7 105C816.9 105.6 816.3 106.4 816 107.2L810.5 106.4C810.9 104.9 811.6 103.6 812.6 102.6C813.6 101.6 814.8 100.8 816.2 100.3C817.6 99.8 819.2 99.5 821 99.5C822.2 99.5 823.4 99.6 824.6 99.9C825.8 100.2 826.9 100.6 827.9 101.3C828.9 102 829.7 102.8 830.3 103.9C830.9 105 831.2 106.4 831.2 108V124.7H825.6V121.3H825.4C825 122 824.5 122.6 823.9 123.2C823.3 123.8 822.5 124.3 821.5 124.6C820.6 125.1 819.4 125.3 818.1 125.3ZM819.7 121C820.9 121 821.9 120.8 822.8 120.3C823.7 119.8 824.3 119.2 824.8 118.4C825.3 117.6 825.5 116.8 825.5 115.9V113C825.3 113.2 825 113.3 824.6 113.4C824.2 113.5 823.7 113.6 823.1 113.7C822.6 113.8 822 113.9 821.5 114C821 114.1 820.5 114.1 820.1 114.2C819.2 114.3 818.4 114.5 817.7 114.8C817 115.1 816.5 115.4 816.1 115.9C815.7 116.4 815.5 117 815.5 117.8C815.5 118.9 815.9 119.7 816.7 120.2C817.4 120.7 818.4 121 819.7 121Z" fill="#77809C"/>
<path d="M842.6 110.2V124.8H836.7V99.9H842.3V104.1H842.6C843.2 102.7 844.1 101.6 845.3 100.8C846.6 100 848.1 99.6 850 99.6C851.7 99.6 853.2 100 854.5 100.7C855.8 101.4 856.8 102.5 857.5 103.9C858.2 105.3 858.6 107 858.5 109V124.9H852.6V109.9C852.6 108.2 852.2 106.9 851.3 106C850.4 105.1 849.3 104.6 847.7 104.6C846.7 104.6 845.8 104.8 845 105.3C844.2 105.7 843.6 106.4 843.1 107.2C842.6 108 842.6 109 842.6 110.2Z" fill="#77809C"/>
<path d="M875 125.3C872.5 125.3 870.4 124.8 868.6 123.7C866.8 122.6 865.5 121.1 864.5 119.2C863.5 117.3 863.1 115 863.1 112.5C863.1 110 863.6 107.7 864.6 105.8C865.6 103.9 866.9 102.3 868.7 101.3C870.5 100.3 872.6 99.7 875 99.7C877 99.7 878.8 100.1 880.4 100.8C882 101.5 883.2 102.6 884.1 103.9C885 105.2 885.6 106.8 885.7 108.6H880.1C879.9 107.4 879.3 106.4 878.5 105.6C877.7 104.8 876.5 104.4 875.1 104.4C873.9 104.4 872.8 104.7 871.9 105.4C871 106 870.3 107 869.8 108.2C869.3 109.4 869 110.8 869 112.5C869 114.2 869.2 115.7 869.7 116.9C870.2 118.1 870.9 119.1 871.8 119.7C872.7 120.3 873.8 120.7 875 120.7C875.9 120.7 876.6 120.5 877.3 120.2C878 119.9 878.6 119.4 879 118.8C879.5 118.2 879.8 117.4 880 116.5H885.6C885.5 118.3 884.9 119.8 884 121.2C883.1 122.6 881.9 123.6 880.3 124.4C878.9 124.9 877.1 125.3 875 125.3Z" fill="#77809C"/>
<path d="M901.1 125.3C898.6 125.3 896.4 124.8 894.6 123.7C892.8 122.7 891.4 121.2 890.4 119.3C889.4 117.4 888.9 115.1 888.9 112.5C888.9 109.9 889.4 107.7 890.4 105.7C891.4 103.8 892.7 102.2 894.5 101.2C896.3 100.2 898.3 99.6 900.7 99.6C902.2 99.6 903.7 99.8 905.1 100.3C906.5 100.8 907.7 101.6 908.7 102.6C909.8 103.6 910.6 104.9 911.2 106.5C911.8 108.1 912.1 110 912.1 112.2V114H891.7V110H906.5C906.5 108.9 906.2 107.9 905.8 107C905.3 106.1 904.7 105.4 903.8 104.9C903 104.4 902 104.1 900.8 104.1C899.6 104.1 898.5 104.4 897.6 105C896.7 105.6 896 106.3 895.5 107.3C895 108.3 894.7 109.3 894.7 110.4V113.9C894.7 115.3 895 116.6 895.5 117.6C896 118.6 896.8 119.4 897.7 120C898.7 120.5 899.8 120.8 901 120.8C901.9 120.8 902.6 120.7 903.3 120.4C904 120.2 904.6 119.8 905.1 119.3C905.6 118.8 906 118.2 906.3 117.5L911.8 118.1C911.5 119.5 910.8 120.8 909.8 121.9C908.8 123 907.6 123.8 906.1 124.4C904.8 125 903 125.3 901.1 125.3Z" fill="#77809C"/>
<path d="M67.1999 180C65.1999 180 63.4999 179.5 61.8999 178.5C60.3999 177.5 59.0999 176 58.1999 174.1C57.2999 172.2 56.8999 169.9 56.8999 167.1C56.8999 164.3 57.3999 162 58.2999 160.1C59.1999 158.2 60.3999 156.7 61.9999 155.8C63.5999 154.8 65.2999 154.3 67.1999 154.3C68.6999 154.3 69.8999 154.5 70.7999 155C71.6999 155.5 72.4999 156.1 72.9999 156.8C73.5999 157.5 73.9999 158.1 74.2999 158.7H74.4999V146.3H80.3999V179.5H74.5999V175.6H74.1999C73.8999 176.2 73.4999 176.8 72.8999 177.5C72.2999 178.2 71.5999 178.8 70.5999 179.2C69.7999 179.8 68.5999 180 67.1999 180ZM68.7999 175.2C69.9999 175.2 71.0999 174.9 71.9999 174.2C72.8999 173.5 73.4999 172.6 73.9999 171.4C74.4999 170.2 74.6999 168.8 74.6999 167.2C74.6999 165.6 74.4999 164.2 73.9999 163C73.4999 161.8 72.8999 160.9 71.9999 160.2C71.0999 159.5 70.0999 159.2 68.7999 159.2C67.4999 159.2 66.3999 159.5 65.4999 160.2C64.5999 160.9 63.9999 161.8 63.4999 163C62.9999 164.2 62.7999 165.6 62.7999 167.1C62.7999 168.7 62.9999 170 63.4999 171.3C63.8999 172.5 64.5999 173.5 65.4999 174.2C66.3999 174.9 67.4999 175.2 68.7999 175.2Z" fill="#77809C"/>
<path d="M97.2999 180.1C94.7999 180.1 92.5999 179.6 90.7999 178.5C88.9999 177.5 87.5999 176 86.5999 174.1C85.5999 172.2 85.0999 169.9 85.0999 167.3C85.0999 164.7 85.5999 162.5 86.5999 160.5C87.5999 158.6 88.8999 157 90.6999 156C92.4999 155 94.4999 154.4 96.8999 154.4C98.3999 154.4 99.8999 154.6 101.3 155.1C102.7 155.6 103.9 156.4 104.9 157.4C106 158.4 106.8 159.7 107.4 161.3C108 162.9 108.3 164.8 108.3 167V168.8H87.8999V164.8H102.7C102.7 163.7 102.4 162.7 102 161.8C101.5 160.9 100.9 160.2 99.9999 159.7C99.1999 159.2 98.1999 158.9 96.9999 158.9C95.7999 158.9 94.6999 159.2 93.7999 159.8C92.8999 160.4 92.1999 161.1 91.6999 162.1C91.1999 163.1 90.8999 164.1 90.8999 165.2V168.7C90.8999 170.1 91.1999 171.4 91.6999 172.4C92.1999 173.4 92.9999 174.2 93.8999 174.8C94.8999 175.3 95.9999 175.6 97.1999 175.6C98.0999 175.6 98.7999 175.5 99.4999 175.2C100.2 175 100.8 174.6 101.3 174.1C101.8 173.6 102.2 173 102.5 172.3L108 172.9C107.7 174.3 107 175.6 106 176.7C105 177.8 103.8 178.6 102.3 179.2C100.9 179.8 99.1999 180.1 97.2999 180.1Z" fill="#77809C"/>
<path d="M120 180.1C118.4 180.1 117 179.8 115.7 179.2C114.4 178.6 113.4 177.8 112.7 176.7C112 175.6 111.6 174.2 111.6 172.6C111.6 171.2 111.9 170 112.4 169.1C112.9 168.2 113.6 167.4 114.5 166.9C115.4 166.3 116.4 165.9 117.5 165.6C118.6 165.3 119.8 165.1 121 165C122.5 164.8 123.6 164.7 124.6 164.6C125.6 164.5 126.2 164.3 126.6 164C127 163.7 127.2 163.3 127.2 162.8V162.7C127.2 161.5 126.8 160.5 126.1 159.9C125.4 159.2 124.3 158.9 123 158.9C121.6 158.9 120.4 159.2 119.6 159.8C118.8 160.4 118.2 161.2 117.9 162L112.4 161.2C112.8 159.7 113.5 158.4 114.5 157.4C115.5 156.4 116.7 155.6 118.1 155.1C119.5 154.6 121.1 154.3 122.9 154.3C124.1 154.3 125.3 154.4 126.5 154.7C127.7 155 128.8 155.4 129.8 156.1C130.8 156.8 131.6 157.6 132.2 158.7C132.8 159.8 133.1 161.2 133.1 162.8V179.5H127.5V176.1H127.3C126.9 176.8 126.4 177.4 125.8 178C125.2 178.6 124.4 179.1 123.4 179.4C122.5 179.9 121.3 180.1 120 180.1ZM121.6 175.8C122.8 175.8 123.8 175.6 124.7 175.1C125.6 174.6 126.2 174 126.7 173.2C127.2 172.4 127.4 171.6 127.4 170.7V167.8C127.2 168 126.9 168.1 126.5 168.2C126.1 168.3 125.6 168.4 125 168.5C124.5 168.6 123.9 168.7 123.4 168.8C122.9 168.9 122.4 168.9 122 169C121.1 169.1 120.3 169.3 119.6 169.6C118.9 169.9 118.4 170.2 118 170.7C117.6 171.2 117.4 171.8 117.4 172.6C117.4 173.7 117.8 174.5 118.6 175C119.3 175.5 120.3 175.8 121.6 175.8Z" fill="#77809C"/>
<path d="M144.5 146.4V179.6H138.6V146.4H144.5Z" fill="#77809C"/>
<path d="M169.8 161.3L164.4 161.9C164.2 161.4 164 160.9 163.6 160.4C163.2 159.9 162.7 159.5 162.1 159.2C161.5 158.9 160.7 158.8 159.8 158.8C158.6 158.8 157.6 159.1 156.7 159.6C155.9 160.1 155.5 160.8 155.5 161.7C155.5 162.4 155.8 163 156.3 163.5C156.8 164 157.8 164.3 159 164.6L163.2 165.5C165.6 166 167.3 166.8 168.5 167.9C169.7 169 170.2 170.4 170.2 172.2C170.2 173.8 169.7 175.2 168.8 176.3C167.9 177.5 166.6 178.4 165 179.1C163.4 179.8 161.6 180.1 159.5 180.1C156.5 180.1 154 179.5 152.1 178.2C150.2 176.9 149.1 175.1 148.8 172.8L154.5 172.2C154.8 173.3 155.3 174.2 156.2 174.7C157.1 175.2 158.1 175.6 159.5 175.6C160.9 175.6 162 175.3 162.9 174.7C163.7 174.1 164.2 173.4 164.2 172.6C164.2 171.9 163.9 171.3 163.4 170.8C162.9 170.3 162 170 160.9 169.7L156.6 168.8C154.2 168.3 152.4 167.5 151.3 166.3C150.2 165.1 149.6 163.6 149.6 161.8C149.6 160.3 150 158.9 150.9 157.8C151.8 156.7 152.9 155.8 154.5 155.2C156 154.6 157.8 154.3 159.8 154.3C162.7 154.3 165 154.9 166.7 156.2C168.4 157.5 169.4 159.1 169.8 161.3Z" fill="#77809C"/>
<path d="M192.8 180.1C191.2 180.1 189.8 179.8 188.5 179.2C187.2 178.6 186.2 177.8 185.5 176.7C184.8 175.6 184.4 174.2 184.4 172.6C184.4 171.2 184.7 170 185.2 169.1C185.7 168.2 186.4 167.4 187.3 166.9C188.2 166.3 189.2 165.9 190.3 165.6C191.4 165.3 192.6 165.1 193.8 165C195.3 164.8 196.4 164.7 197.4 164.6C198.4 164.5 199 164.3 199.4 164C199.8 163.7 200 163.3 200 162.8V162.7C200 161.5 199.6 160.5 198.9 159.9C198.2 159.2 197.1 158.9 195.8 158.9C194.4 158.9 193.2 159.2 192.4 159.8C191.6 160.4 191 161.2 190.7 162L185.2 161.2C185.6 159.7 186.3 158.4 187.3 157.4C188.3 156.4 189.5 155.6 190.9 155.1C192.3 154.6 193.9 154.3 195.7 154.3C196.9 154.3 198.1 154.4 199.3 154.7C200.5 155 201.6 155.4 202.6 156.1C203.6 156.8 204.4 157.6 205 158.7C205.6 159.8 205.9 161.2 205.9 162.8V179.5H200.3V176.1H200.1C199.7 176.8 199.2 177.4 198.6 178C198 178.6 197.2 179.1 196.2 179.4C195.2 179.9 194.1 180.1 192.8 180.1ZM194.3 175.8C195.5 175.8 196.5 175.6 197.4 175.1C198.3 174.6 198.9 174 199.4 173.2C199.9 172.4 200.1 171.6 200.1 170.7V167.8C199.9 168 199.6 168.1 199.2 168.2C198.8 168.3 198.3 168.4 197.7 168.5C197.2 168.6 196.6 168.7 196.1 168.8C195.6 168.9 195.1 168.9 194.7 169C193.8 169.1 193 169.3 192.3 169.6C191.6 169.9 191.1 170.2 190.7 170.7C190.3 171.2 190.1 171.8 190.1 172.6C190.1 173.7 190.5 174.5 191.3 175C192.1 175.5 193.1 175.8 194.3 175.8Z" fill="#77809C"/>
<path d="M217.3 165V179.6H211.4V154.7H217V158.9H217.3C217.9 157.5 218.8 156.4 220 155.6C221.3 154.8 222.8 154.4 224.7 154.4C226.4 154.4 227.9 154.8 229.2 155.5C230.5 156.2 231.5 157.3 232.2 158.7C232.9 160.1 233.3 161.8 233.2 163.8V179.7H227.3V164.7C227.3 163 226.9 161.7 226 160.8C225.1 159.9 224 159.4 222.4 159.4C221.4 159.4 220.5 159.6 219.7 160.1C218.9 160.5 218.3 161.2 217.8 162C217.3 162.8 217.3 163.8 217.3 165Z" fill="#77809C"/>
<path d="M244.7 165V179.6H238.8V154.7H244.4V158.9H244.7C245.3 157.5 246.2 156.4 247.4 155.6C248.7 154.8 250.2 154.4 252.1 154.4C253.8 154.4 255.3 154.8 256.6 155.5C257.9 156.2 258.9 157.3 259.6 158.7C260.3 160.1 260.7 161.8 260.6 163.8V179.7H254.7V164.7C254.7 163 254.3 161.7 253.4 160.8C252.5 159.9 251.4 159.4 249.8 159.4C248.8 159.4 247.9 159.6 247.1 160.1C246.3 160.5 245.7 161.2 245.2 162C244.7 162.8 244.7 163.8 244.7 165Z" fill="#77809C"/>
<path d="M277.1 180.1C274.7 180.1 272.6 179.6 270.8 178.5C269 177.4 267.6 175.9 266.7 174C265.7 172.1 265.2 169.8 265.2 167.3C265.2 164.7 265.7 162.5 266.7 160.5C267.7 158.6 269.1 157.1 270.8 156C272.6 154.9 274.7 154.4 277.1 154.4C279.5 154.4 281.6 154.9 283.4 156C285.2 157.1 286.6 158.6 287.5 160.5C288.5 162.4 289 164.7 289 167.3C289 169.9 288.5 172.1 287.5 174C286.5 175.9 285.1 177.4 283.4 178.5C281.6 179.6 279.5 180.1 277.1 180.1ZM277.1 175.4C278.4 175.4 279.5 175 280.4 174.3C281.3 173.6 281.9 172.6 282.4 171.4C282.8 170.2 283.1 168.8 283.1 167.3C283.1 165.8 282.9 164.4 282.4 163.2C281.9 162 281.3 161 280.4 160.2C279.5 159.5 278.4 159.1 277.1 159.1C275.7 159.1 274.6 159.5 273.7 160.2C272.8 160.9 272.1 161.9 271.7 163.2C271.3 164.5 271 165.8 271 167.3C271 168.8 271.2 170.2 271.7 171.4C272.1 172.6 272.8 173.6 273.7 174.3C274.6 175 275.7 175.4 277.1 175.4Z" fill="#77809C"/>
<path d="M309.4 169.1V154.7H315.3V179.6H309.6V175.2H309.3C308.7 176.6 307.8 177.7 306.5 178.6C305.2 179.5 303.6 179.9 301.8 179.9C300.2 179.9 298.7 179.5 297.5 178.8C296.3 178.1 295.3 177 294.6 175.6C293.9 174.2 293.5 172.5 293.5 170.5V154.6H299.4V169.6C299.4 171.2 299.8 172.4 300.7 173.4C301.6 174.3 302.7 174.8 304.1 174.8C305 174.8 305.8 174.6 306.6 174.2C307.4 173.8 308.1 173.1 308.6 172.3C309.1 171.4 309.4 170.4 309.4 169.1Z" fill="#77809C"/>
<path d="M326.7 165V179.6H320.8V154.7H326.4V158.9H326.7C327.3 157.5 328.2 156.4 329.4 155.6C330.7 154.8 332.2 154.4 334.1 154.4C335.8 154.4 337.3 154.8 338.6 155.5C339.9 156.2 340.9 157.3 341.6 158.7C342.3 160.1 342.7 161.8 342.6 163.8V179.7H336.7V164.7C336.7 163 336.3 161.7 335.4 160.8C334.5 159.9 333.4 159.4 331.8 159.4C330.8 159.4 329.9 159.6 329.1 160.1C328.3 160.5 327.7 161.2 327.2 162C326.7 162.8 326.7 163.8 326.7 165Z" fill="#77809C"/>
<path d="M359.1 180.1C356.6 180.1 354.5 179.6 352.7 178.5C350.9 177.4 349.6 175.9 348.6 174C347.6 172.1 347.2 169.8 347.2 167.3C347.2 164.8 347.7 162.5 348.7 160.6C349.7 158.7 351 157.1 352.8 156.1C354.6 155.1 356.7 154.5 359.1 154.5C361.1 154.5 362.9 154.9 364.5 155.6C366.1 156.3 367.3 157.4 368.2 158.7C369.1 160 369.7 161.6 369.8 163.4H364.2C364 162.2 363.4 161.2 362.6 160.4C361.8 159.6 360.6 159.2 359.2 159.2C358 159.2 356.9 159.5 356 160.2C355.1 160.8 354.4 161.8 353.9 163C353.4 164.2 353.1 165.6 353.1 167.3C353.1 169 353.3 170.5 353.8 171.7C354.3 172.9 355 173.9 355.9 174.5C356.8 175.1 357.9 175.5 359.1 175.5C360 175.5 360.7 175.3 361.4 175C362.1 174.7 362.7 174.2 363.1 173.6C363.6 173 363.9 172.2 364.1 171.3H369.7C369.6 173.1 369 174.6 368.1 176C367.2 177.4 366 178.4 364.4 179.2C363 179.7 361.2 180.1 359.1 180.1Z" fill="#77809C"/>
<path d="M385.2 180.1C382.7 180.1 380.5 179.6 378.7 178.5C376.9 177.5 375.5 176 374.5 174.1C373.5 172.2 373 169.9 373 167.3C373 164.7 373.5 162.5 374.5 160.5C375.5 158.6 376.8 157 378.6 156C380.4 155 382.4 154.4 384.8 154.4C386.3 154.4 387.8 154.6 389.2 155.1C390.6 155.6 391.8 156.4 392.8 157.4C393.9 158.4 394.7 159.7 395.3 161.3C395.9 162.9 396.2 164.8 396.2 167V168.8H375.8V164.8H390.6C390.6 163.7 390.3 162.7 389.9 161.8C389.4 160.9 388.8 160.2 387.9 159.7C387.1 159.2 386.1 158.9 384.9 158.9C383.7 158.9 382.6 159.2 381.7 159.8C380.8 160.4 380.1 161.1 379.6 162.1C379.1 163.1 378.8 164.1 378.8 165.2V168.7C378.8 170.1 379.1 171.4 379.6 172.4C380.1 173.4 380.9 174.2 381.8 174.8C382.8 175.3 383.9 175.6 385.1 175.6C386 175.6 386.7 175.5 387.4 175.2C388.1 175 388.7 174.6 389.2 174.1C389.7 173.6 390.1 173 390.4 172.3L395.9 172.9C395.6 174.3 394.9 175.6 393.9 176.7C392.9 177.8 391.7 178.6 390.2 179.2C388.8 179.8 387.1 180.1 385.2 180.1Z" fill="#77809C"/>
<path d="M410 180C408 180 406.3 179.5 404.7 178.5C403.2 177.5 401.9 176 401 174.1C400.1 172.2 399.7 169.9 399.7 167.1C399.7 164.3 400.2 162 401.1 160.1C402 158.2 403.2 156.7 404.8 155.8C406.4 154.8 408.1 154.3 410 154.3C411.5 154.3 412.7 154.5 413.6 155C414.5 155.5 415.3 156.1 415.8 156.8C416.4 157.5 416.8 158.1 417.1 158.7H417.3V146.3H423.2V179.5H417.4V175.6H417C416.7 176.2 416.3 176.8 415.7 177.5C415.1 178.2 414.4 178.8 413.4 179.2C412.6 179.8 411.4 180 410 180ZM411.6 175.2C412.8 175.2 413.9 174.9 414.8 174.2C415.7 173.5 416.3 172.6 416.8 171.4C417.3 170.2 417.5 168.8 417.5 167.2C417.5 165.6 417.3 164.2 416.8 163C416.3 161.8 415.7 160.9 414.8 160.2C413.9 159.5 412.9 159.2 411.6 159.2C410.3 159.2 409.2 159.5 408.3 160.2C407.4 160.9 406.8 161.8 406.3 163C405.8 164.2 405.6 165.6 405.6 167.1C405.6 168.7 405.8 170 406.3 171.3C406.7 172.5 407.4 173.5 408.3 174.2C409.3 174.9 410.4 175.2 411.6 175.2Z" fill="#77809C"/>
<path d="M442.9 151.1C442 151.1 441.2 150.8 440.5 150.2C439.8 149.6 439.5 148.8 439.5 147.9C439.5 147 439.8 146.3 440.5 145.7C441.2 145.1 442 144.8 442.9 144.8C443.8 144.8 444.6 145.1 445.3 145.7C446 146.3 446.3 147.1 446.3 148C446.3 148.9 446 149.6 445.3 150.2C444.7 150.8 443.9 151.1 442.9 151.1ZM440 179.6V154.7H445.9V179.6H440Z" fill="#77809C"/>
<path d="M457.3 165V179.6H451.4V154.7H457V158.9H457.3C457.9 157.5 458.8 156.4 460 155.6C461.3 154.8 462.8 154.4 464.7 154.4C466.4 154.4 467.9 154.8 469.2 155.5C470.5 156.2 471.5 157.3 472.2 158.7C472.9 160.1 473.3 161.8 473.2 163.8V179.7H467.3V164.7C467.3 163 466.9 161.7 466 160.8C465.1 159.9 464 159.4 462.4 159.4C461.4 159.4 460.5 159.6 459.7 160.1C458.9 160.5 458.3 161.2 457.8 162C457.3 162.8 457.3 163.8 457.3 165Z" fill="#77809C"/>
<path d="M489.6 179.6V175.3L501.1 164C502.2 162.9 503.1 161.9 503.9 161C504.6 160.1 505.2 159.3 505.6 158.5C506 157.7 506.2 156.8 506.2 155.9C506.2 154.9 506 154 505.5 153.2C505 152.4 504.4 151.9 503.5 151.5C502.7 151.1 501.7 150.9 500.7 150.9C499.6 150.9 498.7 151.1 497.8 151.6C497 152 496.3 152.7 495.9 153.5C495.5 154.3 495.2 155.3 495.2 156.4H489.5C489.5 154.3 490 152.5 490.9 150.9C491.9 149.3 493.2 148.1 494.9 147.3C496.6 146.5 498.5 146 500.7 146C502.9 146 504.9 146.4 506.6 147.2C508.3 148 509.6 149.2 510.5 150.6C511.4 152 511.9 153.7 511.9 155.6C511.9 156.8 511.7 158.1 511.2 159.3C510.7 160.5 509.9 161.8 508.7 163.3C507.5 164.8 505.8 166.5 503.7 168.6L498 174.4V174.6H512.5V179.6H489.6Z" fill="#77809C"/>
<path d="M529.9 180.2C527.2 180.2 524.9 179.5 523 178.2C521.1 176.8 519.6 174.9 518.6 172.3C517.6 169.7 517.1 166.6 517.1 163C517.1 159.4 517.6 156.3 518.6 153.7C519.6 151.1 521.1 149.2 523 147.9C524.9 146.6 527.2 145.9 529.9 145.9C532.6 145.9 534.8 146.6 536.8 147.9C538.8 149.2 540.2 151.2 541.2 153.7C542.2 156.3 542.7 159.3 542.7 162.9C542.7 166.5 542.2 169.6 541.2 172.2C540.2 174.8 538.7 176.7 536.8 178.1C534.8 179.6 532.5 180.2 529.9 180.2ZM529.9 175.2C532 175.2 533.6 174.2 534.8 172.1C536 170.1 536.6 167 536.6 163C536.6 160.4 536.3 158.1 535.8 156.3C535.2 154.5 534.5 153.2 533.5 152.2C532.5 151.3 531.3 150.8 529.9 150.8C527.8 150.8 526.2 151.8 525 153.9C523.8 155.9 523.2 159 523.2 162.9C523.2 165.5 523.5 167.8 524 169.6C524.5 171.4 525.3 172.8 526.3 173.7C527.3 174.6 528.5 175.2 529.9 175.2Z" fill="#77809C"/>
<path d="M547.6 179.6V175.3L559.1 164C560.2 162.9 561.1 161.9 561.9 161C562.6 160.1 563.2 159.3 563.6 158.5C564 157.7 564.2 156.8 564.2 155.9C564.2 154.9 564 154 563.5 153.2C563 152.4 562.4 151.9 561.5 151.5C560.7 151.1 559.7 150.9 558.7 150.9C557.6 150.9 556.7 151.1 555.8 151.6C555 152 554.3 152.7 553.9 153.5C553.5 154.3 553.2 155.3 553.2 156.4H547.5C547.5 154.3 548 152.5 548.9 150.9C549.9 149.3 551.2 148.1 552.9 147.3C554.6 146.5 556.5 146 558.7 146C560.9 146 562.9 146.4 564.6 147.2C566.3 148 567.6 149.2 568.5 150.6C569.4 152 569.9 153.7 569.9 155.6C569.9 156.8 569.7 158.1 569.2 159.3C568.7 160.5 567.9 161.8 566.7 163.3C565.5 164.8 563.8 166.5 561.7 168.6L556 174.4V174.6H570.5V179.6H547.6Z" fill="#77809C"/>
<path d="M587.4 180.1C585.1 180.1 583 179.7 581.2 178.9C579.4 178.1 578 177 576.9 175.6C575.9 174.2 575.3 172.5 575.2 170.7H581.3C581.4 171.6 581.7 172.4 582.2 173C582.7 173.7 583.5 174.2 584.4 174.5C585.3 174.9 586.3 175.1 587.4 175.1C588.6 175.1 589.6 174.9 590.6 174.5C591.5 174.1 592.2 173.5 592.8 172.8C593.4 172.1 593.6 171.2 593.6 170.2C593.6 169.2 593.4 168.3 592.8 167.5C592.3 166.7 591.5 166.1 590.5 165.7C589.5 165.3 588.3 165.1 586.9 165.1H584V160.5H586.9C588.1 160.5 589.1 160.3 589.9 159.9C590.8 159.5 591.5 158.9 592 158.2C592.5 157.5 592.7 156.6 592.7 155.7C592.7 154.8 592.5 153.9 592.1 153.2C591.7 152.5 591.1 152 590.3 151.6C589.5 151.2 588.6 151 587.6 151C586.6 151 585.6 151.2 584.8 151.6C583.9 152 583.2 152.5 582.7 153.2C582.2 153.9 581.9 154.7 581.9 155.6H576.1C576.1 153.7 576.7 152.1 577.7 150.7C578.7 149.3 580.1 148.2 581.8 147.4C583.5 146.6 585.5 146.2 587.6 146.2C589.8 146.2 591.7 146.6 593.4 147.4C595 148.2 596.3 149.3 597.2 150.7C598.1 152.1 598.5 153.6 598.5 155.3C598.5 157.2 598 158.7 596.9 160C595.8 161.3 594.3 162.1 592.5 162.5V162.8C594.8 163.1 596.6 164 597.9 165.4C599.2 166.8 599.8 168.5 599.8 170.6C599.8 172.5 599.3 174.1 598.2 175.6C597.1 177.1 595.7 178.2 593.9 179C592.1 179.8 589.8 180.1 587.4 180.1Z" fill="#77809C"/>
<path d="M608.5 180C607.5 180 606.7 179.7 606 179C605.3 178.3 605 177.5 605 176.5C605 175.5 605.3 174.7 606 174C606.7 173.3 607.5 173 608.5 173C609.5 173 610.3 173.3 611 174C611.7 174.7 612.1 175.5 612.1 176.5C612.1 177.2 611.9 177.8 611.6 178.3C611.3 178.8 610.8 179.3 610.3 179.6C609.7 179.8 609.1 180 608.5 180Z" fill="#77809C"/>
</g>
<mask id="mask7_4_1024" style="mask-type:luminance" maskUnits="userSpaceOnUse" x="0" y="0" width="1521" height="255">
<path d="M1521 0H0V255H1521V0Z" fill="white"/>
</mask>
<g mask="url(#mask7_4_1024)">
<path d="M1401.3 197.3C1397.4 198.9 1393.8 200.3 1390.3 201.9C1389.6 202.2 1388.8 203.3 1388.8 204C1388.4 213.2 1385.2 217.9 1376.5 221.4C1377.7 226.9 1377.2 232.3 1373.4 236.9C1369.6 241.5 1364.5 243.3 1358.4 243.1C1358.4 248.3 1356.7 252.9 1352.7 256.3C1348.7 259.8 1344 260.9 1338.5 260.2C1337.9 267.3 1334.8 272.9 1328 275.8C1321.2 278.7 1315.2 276.5 1309.6 272.6C1297.9 283.1 1287.9 281.9 1279.5 269.1C1268.5 271.3 1263.4 269.3 1257.6 260.6C1251.6 263.2 1245.7 263.3 1240.1 259.5C1234.5 255.7 1232.3 250.1 1232.8 243.2C1232.1 243.1 1231.4 242.9 1230.7 242.8C1219.1 241.5 1212.3 229.5 1217.2 218.9C1217.3 218.7 1217.3 218.5 1217.4 218.4C1222.8 212.2 1220.9 205.5 1218.9 198.8C1218.4 197.3 1216.9 195.7 1215.5 194.9C1213.1 193.5 1210.3 192.5 1207.4 191.3C1206.8 192.6 1206.2 193.8 1205.7 195C1202.7 201.3 1196.2 203.9 1189.7 201.2C1184.4 199 1179.2 196.7 1174 194.3C1167.8 191.4 1165.2 184.7 1168 178.5C1179.8 151.7 1191.6 124.9 1203.6 98.1C1206.4 91.8 1213.2 89.3001 1219.6 92.0001C1224.8 94.2001 1229.9 96.4001 1235 98.8001C1241.3 101.7 1243.8 108.3 1241.2 114.8C1240.4 116.7 1239.5 118.7 1238.6 120.9C1243.2 123 1247.5 125.5 1252.1 126.8C1255.4 127.7 1259.2 127.2 1262.7 126.7C1268.3 125.9 1273.7 124.5 1279.3 123.7C1286.8 122.6 1294 124.4 1300.8 127.7C1301.7 128.2 1303.4 128.3 1304.2 127.8C1316.1 121 1328.3 120.3 1341 125.1C1344.9 126.6 1348.7 128.1 1352.6 129.6C1357.6 131.5 1362.5 131.6 1367.1 128.5C1368.9 127.3 1371 126.4 1373.2 125.1C1372.4 123.1 1371.7 121.2 1371 119.3C1368.4 112.3 1371.3 105.9 1378.2 103.1C1383.2 101.1 1388.1 99.1001 1393.2 97.3001C1400.2 94.7001 1406.8 97.6001 1409.5 104.5C1420.1 131.5 1430.6 158.6 1441 185.6C1443.7 192.5 1440.7 199 1433.7 201.8C1428.9 203.7 1424.1 205.6 1419.2 207.4C1411.7 210.2 1405.4 207.4 1402.3 200C1402.1 199.2 1401.7 198.3 1401.3 197.3ZM1297.9 232.6C1304.8 231.1 1310.7 232.5 1315.5 237.6C1315.9 238 1316.3 238.3 1316.8 238.6C1323.8 242.6 1330.7 246.6 1337.8 250.3C1339.4 251.2 1341.8 251.4 1343.6 251.1C1346.8 250.5 1348.7 248.2 1349.2 245C1349.7 241.6 1348.3 238.8 1345.3 237.1C1338.1 233 1330.8 228.9 1323.6 224.8C1320.5 223 1317.3 221.3 1314.2 219.4C1312 218 1311.5 215.7 1312.6 213.6C1313.8 211.4 1316.1 210.7 1318.5 211.7C1319.3 212 1320 212.5 1320.7 212.9C1332 219.3 1343.4 225.6 1354.7 232C1355.6 232.5 1356.5 233 1357.4 233.4C1360.9 234.8 1364.9 233.5 1366.8 230.3C1368.8 227 1368.1 222.8 1365 220.3C1364.1 219.6 1363.2 219.1 1362.2 218.5C1353.4 213.6 1344.7 208.6 1335.9 203.7C1332.9 202 1332 199.5 1333.4 197.1C1334.8 194.8 1337.3 194.4 1340.2 196C1345.2 198.8 1350.2 201.6 1355.1 204.4C1359.4 206.8 1363.8 209.4 1368.2 211.7C1372.1 213.7 1376.4 212.5 1378.6 208.9C1380.7 205.3 1379.6 201 1375.9 198.5C1375.2 198 1374.5 197.6 1373.8 197.2C1361.8 190.3 1349.6 183.8 1337.8 176.5C1330.7 172.2 1323.9 171.8 1316.4 174.6C1309.5 177.2 1302.7 180 1295.7 182.3C1279.7 187.4 1267.7 184.2 1258 172.4C1254.3 167.9 1255 164.8 1259.8 161.5C1266.9 156.7 1274 151.9 1280.8 146.6C1285.6 142.9 1289.7 138.5 1294.4 134.2C1289.7 132.2 1285.3 131.3 1280.7 132C1275.9 132.7 1271 133.6 1266.3 134.7C1258.1 136.6 1250.2 136.6 1242.7 132.2C1240.3 130.8 1237.6 129.8 1234.8 128.6C1226.8 146.8 1218.8 164.7 1210.8 182.9C1218.8 186.1 1227.3 188.5 1228 199C1239.9 189.8 1254.1 195.5 1257.1 208.9C1266.4 208.1 1272.9 212.1 1276.3 220.7C1288.2 220 1292.8 222.4 1297.9 232.6ZM1398.1 188.9C1390.9 170.3 1383.7 151.9 1376.5 133.4C1374.1 134.7 1372 135.7 1370 136.9C1364.4 140.2 1358.4 140.6 1352.4 138.6C1348 137.2 1343.7 135.6 1339.4 133.8C1326.9 128.5 1315.2 130 1304.4 138.1C1301.4 140.4 1298.4 142.8 1295.7 145.4C1287.3 153.7 1278.1 160.9 1268.1 167.1C1267.5 167.5 1267 167.9 1266.3 168.5C1269.9 172.3 1273.9 174.9 1279 175.7C1284.4 176.6 1289.5 175.4 1294.5 173.6C1301.9 171 1309.2 168 1316.6 165.5C1324.9 162.7 1332.8 163.4 1340.5 168C1352.8 175.3 1365.3 182.2 1377.7 189.3C1379.8 190.5 1381.6 192 1383.6 193.3C1384.1 193.6 1385 194 1385.4 193.8C1389.8 192.5 1393.8 190.7 1398.1 188.9ZM1195.2 193.7C1196 192.8 1197.3 191.9 1197.9 190.7C1209.6 164.5 1221.2 138.2 1232.8 111.9C1234 109.3 1233.4 107.8 1230.7 106.6C1226.1 104.5 1221.4 102.5 1216.8 100.5C1214 99.3001 1212.5 99.8 1211.3 102.6C1199.6 128.9 1188 155.1 1176.4 181.4C1175.3 184 1175.8 185.4 1178.3 186.6C1183.2 188.8 1188.1 190.9 1193 193.1C1193.4 193.2 1194 193.3 1195.2 193.7ZM1433.4 190.8C1433 189.6 1432.9 189 1432.7 188.4C1422.3 161.6 1411.9 134.8 1401.5 108.1C1400.4 105.3 1398.9 104.6 1396 105.7C1391.5 107.4 1387.1 109.1 1382.6 110.9C1378.9 112.4 1378.4 113.5 1379.8 117.2C1384.9 130.4 1390.1 143.6 1395.2 156.9C1400.3 170 1405.4 183.2 1410.5 196.3C1411.7 199.4 1413.1 200.3 1415.6 199.4C1420.7 197.5 1425.8 195.6 1430.8 193.5C1431.9 192.9 1432.6 191.6 1433.4 190.8ZM1241.3 245.5C1241.7 249.2 1244 252.3 1247.4 253.2C1251 254.2 1254.8 252.9 1256.6 249.4C1260.4 242.4 1264 235.4 1267.5 228.3C1269.1 225 1267.2 220.6 1263.6 218.8C1259.9 217 1256 218.1 1254 221.4C1250.3 227.8 1246.7 234.2 1243.1 240.6C1242.3 242.2 1241.9 243.9 1241.3 245.5ZM1289.5 238.1C1289.5 233.7 1286.9 230.5 1283.2 229.6C1279.7 228.8 1276.5 230.3 1274.8 233.7C1271.8 239.4 1268.8 245.1 1266 250.9C1265.3 252.4 1265.2 254.5 1265.7 256.1C1266.7 259.3 1269.2 261 1272.6 261.2C1275.9 261.4 1278.5 260 1280.1 257C1283 251.5 1285.9 245.9 1288.8 240.3C1289.2 239.4 1289.4 238.4 1289.5 238.1ZM1224.2 226C1224.5 229.7 1226.9 232.8 1230.2 233.8C1234 234.9 1236.8 233.6 1238.9 230C1241.5 225.5 1244.2 220.9 1246.8 216.4C1249.3 212 1248.3 207.2 1244.3 204.9C1240.2 202.5 1235.4 204 1232.9 208.6C1230.5 213 1228.1 217.3 1225.9 221.7C1225.1 223 1224.7 224.5 1224.2 226ZM1310.9 249.4C1311 245.4 1308.5 242 1305 241.1C1301.2 240.1 1297.9 241.6 1296 245.2C1293.4 250.2 1290.7 255.1 1288.3 260.2C1287.7 261.4 1287.4 262.9 1287.6 264.1C1288.1 267.5 1290.3 269.7 1293.7 270.4C1297.1 271.1 1300.1 270.1 1301.9 267.2C1304.9 262.2 1307.5 257 1310.2 251.9C1310.7 251.1 1310.8 250 1310.9 249.4ZM1313.8 264.8C1315.4 265.7 1316.9 266.7 1318.6 267.5C1321.9 269 1325.5 268 1327.8 265.2C1330 262.4 1330.2 258.3 1327.6 255.8C1325.5 253.7 1322.7 252.3 1320.5 250.7C1318.1 255.7 1316.1 260.1 1313.8 264.8Z" fill="#15BEE6"/>
<path d="M1373.4 55.1C1373.3 55.4 1373.3 56.1 1373 56.7C1367.2 66.8 1361.3 77 1355.4 87.1C1354.4 88.9 1352.3 89.5 1350.5 88.6C1349.2 87.9 1348.2 86.4 1347.6 85C1347.3 84.2 1347.8 82.8 1348.3 81.9C1353.8 72.2 1359.4 62.6 1365 52.9C1366.2 50.8 1368.1 50 1370.4 50.7C1372.4 51.2 1373.3 52.7 1373.4 55.1Z" fill="#15BEE6"/>
<path d="M1308.9 54.7C1308.9 60 1308.9 65.4 1308.9 70.7C1308.9 74.2 1307.2 76.1 1304.4 76.1C1301.7 76.1 1300.1 74.2 1300 70.8C1300 60 1300 49.2 1300 38.4C1300 35 1301.8 32.9 1304.5 32.9C1307.2 32.9 1308.8 35 1308.9 38.5C1308.9 44 1308.9 49.4 1308.9 54.7Z" fill="#15BEE6"/>
<path d="M1261.8 85.0001C1261 86.0001 1260.3 87.7001 1259.1 88.2001C1257.8 88.7001 1256 88.3001 1254.5 87.9001C1253.9 87.7001 1253.3 86.8001 1252.9 86.1001C1247.4 76.6001 1241.9 67.1001 1236.4 57.6001C1235.3 55.8001 1234.9 53.7001 1236.4 52.2001C1237.4 51.2001 1239.3 50.5001 1240.7 50.6001C1241.8 50.6001 1243.2 51.9001 1243.8 52.9001C1249.5 62.5001 1255 72.2001 1260.6 81.8001C1261.1 82.7001 1261.3 83.6001 1261.8 85.0001Z" fill="#15BEE6"/>
<path d="M1213.8 114C1213.8 111.1 1216.2 108.7 1219.1 108.8C1222 108.8 1224.3 111.2 1224.2 114.2C1224.1 117 1221.9 119.3 1219.1 119.3C1216.2 119.3 1213.8 116.9 1213.8 114Z" fill="#15BEE6"/>
<path d="M1393 113.9C1395.9 113.8 1398.3 116.2 1398.3 119.1C1398.3 122 1396.2 124.2 1393.4 124.3C1390.4 124.4 1388 122.2 1387.9 119.3C1387.8 116.4 1390.2 113.9 1393 113.9Z" fill="#15BEE6"/>
</g>
<mask id="mask8_4_1024" style="mask-type:luminance" maskUnits="userSpaceOnUse" x="0" y="0" width="1521" height="255">
<path d="M1521 0H0V255H1521V0Z" fill="white"/>
</mask>
<g mask="url(#mask8_4_1024)">
<path d="M1436 72C1448.15 72 1458 62.1503 1458 50C1458 37.8497 1448.15 28 1436 28C1423.85 28 1414 37.8497 1414 50C1414 62.1503 1423.85 72 1436 72Z" fill="#D4F6FF"/>
</g>
<mask id="mask9_4_1024" style="mask-type:luminance" maskUnits="userSpaceOnUse" x="0" y="0" width="1521" height="255">
<path d="M1521 0H0V255H1521V0Z" fill="white"/>
</mask>
<g mask="url(#mask9_4_1024)">
<path d="M57.5 204.7C57.5 203.4 57.7 202.2 58 201.1C58.3 200 58.8 199 59.4 198.1H60.5C60.3 198.4 60 198.9 59.8 199.3C59.6 199.7 59.4 200.3 59.2 200.9C59 201.5 58.9 202.1 58.8 202.7C58.7 203.3 58.7 203.9 58.7 204.6C58.7 205.4 58.8 206.2 58.9 207.1C59.1 207.9 59.3 208.7 59.5 209.4C59.7 210.1 60.1 210.7 60.4 211.2H59.3C58.7 210.3 58.2 209.3 57.9 208.2C57.7 207.2 57.5 206 57.5 204.7Z" fill="#D3D3D3"/>
<path d="M69.4 198.7H70.6999V205.6C70.6999 206.3 70.4999 207 70.1999 207.5C69.8999 208.1 69.4 208.5 68.8 208.8C68.2 209.1 67.4999 209.3 66.6999 209.3C65.8999 209.3 65.1999 209.1 64.5999 208.8C63.9999 208.5 63.5 208 63.2 207.5C62.9 206.9 62.7 206.3 62.7 205.6V198.7H64V205.5C64 206 64.1 206.5 64.3 206.9C64.5 207.3 64.8 207.6 65.3 207.8C65.7 208 66.2 208.1 66.8 208.1C67.4 208.1 67.9 208 68.3 207.8C68.7 207.6 69 207.3 69.3 206.9C69.5 206.5 69.5999 206 69.5999 205.5V198.7H69.4Z" fill="#D3D3D3"/>
<path d="M81.5 198.7V209.2H80.3L74.6 201H74.5V209.2H73.2V198.7H74.4L80.1 206.9H80.2V198.7H81.5Z" fill="#D3D3D3"/>
<path d="M92.5 202H91.2C91.1 201.6 91 201.3 90.8 201C90.6 200.7 90.4 200.5 90.1 200.3C89.8 200.1 89.5 200 89.2 199.9C88.9 199.8 88.5 199.8 88.2 199.8C87.6 199.8 87 200 86.5 200.3C86 200.6 85.6 201.1 85.3 201.7C85 202.3 84.8 203.1 84.8 204C84.8 204.9 85 205.7 85.3 206.3C85.6 206.9 86 207.4 86.5 207.7C87 208 87.6 208.2 88.2 208.2C88.5 208.2 88.9 208.2 89.2 208.1C89.5 208 89.8 207.9 90.1 207.7C90.4 207.5 90.6 207.3 90.8 207C91 206.7 91.1 206.4 91.2 206H92.5C92.4 206.5 92.2 207 92 207.4C91.8 207.8 91.4 208.2 91.1 208.5C90.7 208.8 90.3 209 89.8 209.2C89.3 209.4 88.8 209.4 88.3 209.4C87.4 209.4 86.6 209.2 85.9 208.7C85.2 208.3 84.7 207.6 84.3 206.8C83.9 206 83.7 205 83.7 203.9C83.7 202.8 83.9 201.8 84.3 201C84.7 200.2 85.2 199.6 85.9 199.1C86.6 198.7 87.4 198.4 88.3 198.4C88.8 198.4 89.3 198.5 89.8 198.6C90.3 198.8 90.7 199 91.1 199.3C91.5 199.6 91.8 200 92 200.4C92.2 200.8 92.4 201.4 92.5 202Z" fill="#D3D3D3"/>
<path d="M93.8999 199.8V198.7H101.8V199.8H98.4999V209.2H97.1999V199.8H93.8999Z" fill="#D3D3D3"/>
<path d="M104.2 209.2H102.9L106.7 198.7H108L111.8 209.2H110.5L107.4 200.4H107.3L104.2 209.2ZM104.7 205.1H110.1V206.2H104.7V205.1Z" fill="#D3D3D3"/>
<path d="M116.7 209.2H113.5V198.7H116.9C117.9 198.7 118.8 198.9 119.5 199.3C120.2 199.7 120.8 200.3 121.2 201.1C121.6 201.9 121.8 202.8 121.8 203.9C121.8 205 121.6 205.9 121.2 206.7C120.8 207.5 120.2 208.1 119.5 208.5C118.7 209 117.8 209.2 116.7 209.2ZM114.8 208H116.7C117.6 208 118.3 207.8 118.9 207.5C119.5 207.2 119.9 206.7 120.2 206.1C120.5 205.5 120.6 204.7 120.6 203.9C120.6 203.1 120.5 202.3 120.2 201.7C119.9 201.1 119.5 200.6 119 200.3C118.5 200 117.8 199.8 116.9 199.8H114.9V208H114.8Z" fill="#D3D3D3"/>
<path d="M127.7 209.2V208.3L131.2 204.5C131.6 204.1 131.9 203.7 132.2 203.3C132.5 203 132.7 202.7 132.8 202.4C132.9 202.1 133 201.8 133 201.5C133 201.1 132.9 200.8 132.7 200.5C132.5 200.2 132.3 200 132 199.9C131.7 199.8 131.4 199.7 131 199.7C130.6 199.7 130.2 199.8 129.9 199.9C129.6 200.1 129.4 200.3 129.2 200.6C129 200.9 129 201.2 129 201.6H127.8C127.8 201 127.9 200.4 128.2 200C128.5 199.5 128.9 199.2 129.4 198.9C129.9 198.6 130.4 198.5 131.1 198.5C131.7 198.5 132.3 198.6 132.7 198.9C133.2 199.2 133.5 199.5 133.8 199.9C134.1 200.3 134.2 200.8 134.2 201.4C134.2 201.8 134.1 202.2 134 202.5C133.9 202.9 133.6 203.3 133.3 203.7C133 204.1 132.5 204.7 131.9 205.3L129.5 207.8V207.9H134.4V209H127.7V209.2Z" fill="#D3D3D3"/>
<path d="M139.9 209.3C139.1 209.3 138.5 209.1 137.9 208.7C137.4 208.3 136.9 207.7 136.7 206.9C136.4 206.1 136.3 205.1 136.3 204C136.3 202.9 136.4 201.9 136.7 201.1C137 200.3 137.4 199.7 137.9 199.3C138.4 198.9 139.1 198.7 139.9 198.7C140.7 198.7 141.3 198.9 141.9 199.3C142.4 199.7 142.9 200.3 143.1 201.1C143.4 201.9 143.5 202.9 143.5 204C143.5 205.1 143.4 206.1 143.1 206.9C142.8 207.7 142.4 208.3 141.9 208.7C141.3 209.1 140.6 209.3 139.9 209.3ZM139.9 208.2C140.7 208.2 141.3 207.8 141.7 207.1C142.1 206.4 142.3 205.3 142.3 203.9C142.3 203 142.2 202.2 142 201.6C141.8 201 141.5 200.5 141.2 200.1C140.8 199.8 140.4 199.6 139.9 199.6C139.1 199.6 138.6 200 138.1 200.7C137.7 201.4 137.5 202.5 137.5 203.9C137.5 204.8 137.6 205.6 137.8 206.2C138 206.8 138.3 207.3 138.6 207.6C138.9 208 139.4 208.2 139.9 208.2Z" fill="#D3D3D3"/>
<path d="M145.5 209.2V208.3L149 204.5C149.4 204.1 149.7 203.7 150 203.3C150.3 203 150.5 202.7 150.6 202.4C150.7 202.1 150.8 201.8 150.8 201.5C150.8 201.1 150.7 200.8 150.5 200.5C150.3 200.2 150.1 200 149.8 199.9C149.5 199.8 149.2 199.7 148.8 199.7C148.4 199.7 148 199.8 147.7 199.9C147.4 200.1 147.2 200.3 147 200.6C146.8 200.9 146.8 201.2 146.8 201.6H145.6C145.6 201 145.7 200.4 146 200C146.3 199.5 146.7 199.2 147.2 198.9C147.7 198.6 148.2 198.5 148.9 198.5C149.5 198.5 150.1 198.6 150.5 198.9C151 199.2 151.3 199.5 151.6 199.9C151.9 200.3 152 200.8 152 201.4C152 201.8 151.9 202.2 151.8 202.5C151.7 202.9 151.4 203.3 151.1 203.7C150.8 204.1 150.3 204.7 149.7 205.3L147.3 207.8V207.9H152.2V209H145.5V209.2Z" fill="#D3D3D3"/>
<path d="M153.9 207V206L158.5 198.7H159.3V200.3H158.8L155.3 205.8V205.9H161.5V207H153.9ZM158.9 209.2V206.7V206.2V198.7H160.1V209.2H158.9Z" fill="#D3D3D3"/>
<path d="M166 204.7C166 206 165.8 207.2 165.5 208.3C165.2 209.4 164.7 210.4 164.1 211.3H163C163.2 211 163.5 210.5 163.7 210.1C163.9 209.7 164.1 209.1 164.3 208.5C164.5 207.9 164.6 207.3 164.7 206.7C164.8 206.1 164.8 205.5 164.8 204.8C164.8 204 164.7 203.2 164.6 202.3C164.4 201.5 164.2 200.7 164 200C163.7 199.3 163.4 198.7 163.1 198.2H164.2C164.8 199.1 165.3 200.1 165.6 201.2C165.9 202.3 166 203.5 166 204.7Z" fill="#D3D3D3"/>
</g>
<mask id="mask10_4_1024" style="mask-type:luminance" maskUnits="userSpaceOnUse" x="0" y="0" width="1521" height="255">
<path d="M1521 0H0V255H1521V0Z" fill="white"/>
</mask>
<g mask="url(#mask10_4_1024)">
<path d="M63.9 58.9H57V37.4H64.2C66.3 37.4 68.1 37.8 69.6 38.7C71.1 39.6 72.3 40.8 73.1 42.4C73.9 44 74.3 45.9 74.3 48.1C74.3 50.3 73.9 52.3 73.1 53.9C72.3 55.5 71.1 56.7 69.6 57.6C67.9 58.5 66.1 58.9 63.9 58.9ZM60.2 56.1H63.7C65.3 56.1 66.7 55.8 67.8 55.2C68.9 54.6 69.7 53.7 70.2 52.5C70.7 51.3 71 49.9 71 48.2C71 46.5 70.7 45.1 70.2 43.9C69.7 42.7 68.9 41.8 67.8 41.2C66.7 40.6 65.4 40.3 63.9 40.3H60.2V56.1Z" fill="#242438"/>
<path d="M79.6001 40.3C79.1001 40.3 78.6001 40.1 78.2001 39.7C77.8001 39.3 77.6001 38.9 77.6001 38.4C77.6001 37.9 77.8001 37.4 78.2001 37.1C78.6001 36.7 79.1001 36.5 79.6001 36.5C80.1001 36.5 80.6001 36.7 81.0001 37.1C81.4001 37.5 81.6001 37.9 81.6001 38.4C81.6001 38.9 81.4001 39.4 81.0001 39.7C80.6001 40.1 80.1001 40.3 79.6001 40.3ZM78.0001 58.9V42.8H81.1001V58.9H78.0001Z" fill="#242438"/>
<path d="M91.3 59.2C90 59.2 88.8 58.9 87.8 58.2C86.8 57.5 86 56.6 85.4 55.3C84.8 54.1 84.5 52.6 84.5 50.8C84.5 49.1 84.8 47.6 85.4 46.3C86 45.1 86.8 44.1 87.8 43.5C88.8 42.8 90 42.5 91.3 42.5C92.3 42.5 93.1 42.7 93.7 43C94.3 43.3 94.8 43.7 95.1 44.2C95.4 44.6 95.7 45 95.9 45.4H96.1V37.4H99.2V58.9H96.1V56.4H96C95.8 56.7 95.5 57.1 95.2 57.6C94.8 58 94.4 58.4 93.7 58.8C93.1 59 92.3 59.2 91.3 59.2ZM92 56.5C92.9 56.5 93.7 56.3 94.3 55.8C94.9 55.3 95.4 54.7 95.7 53.8C96 52.9 96.2 52 96.2 50.8C96.2 49.7 96 48.7 95.7 47.9C95.4 47.1 94.9 46.4 94.3 45.9C93.7 45.4 92.9 45.2 92 45.2C91.1 45.2 90.3 45.4 89.6 45.9C88.9 46.4 88.5 47.1 88.2 47.9C87.9 48.7 87.7 49.7 87.7 50.8C87.7 51.9 87.9 52.8 88.2 53.7C88.5 54.6 89 55.2 89.6 55.7C90.2 56.2 91.1 56.5 92 56.5Z" fill="#242438"/>
<path d="M113.6 64.9001C113.1 64.9001 112.7 64.9001 112.3 64.8001C111.9 64.7001 111.6 64.6 111.4 64.6L112.2 62C112.8 62.2001 113.3 62.2001 113.7 62.2001C114.1 62.2001 114.5 62 114.9 61.7001C115.3 61.4001 115.6 60.9001 115.8 60.2001L116.2 59.1L110.3 42.8H113.7L117.8 55.3H118L122.1 42.8H125.5L118.7 61C118.4 61.8 118 62.5 117.5 63.1C117 63.7 116.5 64.1001 115.8 64.4001C115.2 64.8001 114.5 64.9001 113.6 64.9001Z" fill="#242438"/>
<path d="M135.1 59.2C133.6 59.2 132.3 58.9 131.1 58.2C130 57.5 129.1 56.5 128.5 55.3C127.9 54.1 127.6 52.6 127.6 50.9C127.6 49.2 127.9 47.8 128.5 46.5C129.1 45.2 130 44.3 131.1 43.6C132.2 42.9 133.5 42.6 135.1 42.6C136.7 42.6 137.9 42.9 139.1 43.6C140.2 44.3 141.1 45.3 141.7 46.5C142.3 47.7 142.6 49.2 142.6 50.9C142.6 52.6 142.3 54 141.7 55.3C141.1 56.5 140.2 57.5 139.1 58.2C137.9 58.9 136.6 59.2 135.1 59.2ZM135.1 56.6C136.1 56.6 136.9 56.3 137.5 55.8C138.1 55.3 138.6 54.6 138.9 53.7C139.2 52.8 139.4 51.9 139.4 50.9C139.4 49.9 139.2 48.9 138.9 48.1C138.6 47.2 138.1 46.5 137.5 46C136.9 45.5 136 45.2 135.1 45.2C134.1 45.2 133.3 45.5 132.7 46C132.1 46.5 131.6 47.2 131.3 48.1C131 49 130.8 49.9 130.8 50.9C130.8 51.9 131 52.9 131.3 53.7C131.6 54.6 132.1 55.2 132.7 55.8C133.3 56.3 134.1 56.6 135.1 56.6Z" fill="#242438"/>
<path d="M156.3 52.2001V42.8H159.4V58.9001H156.3V56.1H156.1C155.7 57 155.1 57.7001 154.3 58.2001C153.5 58.8001 152.5 59.1 151.3 59.1C150.3 59.1 149.4 58.9001 148.6 58.4001C147.8 57.9001 147.2 57.3001 146.7 56.4001C146.2 55.5001 146 54.4 146 53.1V42.8H149.1V52.7001C149.1 53.8001 149.4 54.7 150 55.3C150.6 56 151.4 56.3 152.4 56.3C153 56.3 153.6 56.2001 154.2 55.9001C154.8 55.6001 155.3 55.2 155.7 54.6C156.1 54 156.3 53.1 156.3 52.2001Z" fill="#242438"/>
<path d="M171.5 58.9V37.4H174.6V58.9H171.5ZM174.4 53.4V49.6H174.9L181.3 42.8H185.1L177.8 50.6H177.3L174.4 53.4ZM181.6 58.9L175.8 51.2L178 49L185.5 58.8H181.6V58.9Z" fill="#15BEE6"/>
<path d="M191 49.3V58.9H187.9V42.8H190.9V45.4H191.1C191.5 44.5 192.1 43.9 192.8 43.3C193.6 42.8 194.6 42.5 195.8 42.5C196.9 42.5 197.9 42.7 198.7 43.2C199.5 43.7 200.2 44.3 200.6 45.2C201.1 46.1 201.3 47.2 201.3 48.5V58.7H198.2V49C198.2 47.8 197.9 46.9 197.3 46.3C196.7 45.6 195.9 45.3 194.8 45.3C194.1 45.3 193.4 45.5 192.9 45.8C192.4 46.1 191.9 46.6 191.6 47.2C191.2 47.7 191 48.5 191 49.3Z" fill="#15BEE6"/>
<path d="M212.3 59.2C210.8 59.2 209.5 58.9 208.3 58.2C207.2 57.5 206.3 56.5 205.7 55.3C205.1 54.1 204.8 52.6 204.8 50.9C204.8 49.2 205.1 47.8 205.7 46.5C206.3 45.2 207.2 44.3 208.3 43.6C209.4 42.9 210.7 42.6 212.3 42.6C213.9 42.6 215.1 42.9 216.3 43.6C217.4 44.3 218.3 45.3 218.9 46.5C219.5 47.7 219.8 49.2 219.8 50.9C219.8 52.6 219.5 54 218.9 55.3C218.3 56.5 217.4 57.5 216.3 58.2C215.1 58.9 213.8 59.2 212.3 59.2ZM212.3 56.6C213.3 56.6 214.1 56.3 214.7 55.8C215.3 55.3 215.8 54.6 216.1 53.7C216.4 52.8 216.6 51.9 216.6 50.9C216.6 49.9 216.4 48.9 216.1 48.1C215.8 47.2 215.3 46.5 214.7 46C214.1 45.5 213.2 45.2 212.3 45.2C211.3 45.2 210.5 45.5 209.9 46C209.3 46.5 208.8 47.2 208.5 48.1C208.2 49 208 49.9 208 50.9C208 51.9 208.2 52.9 208.5 53.7C208.8 54.6 209.3 55.2 209.9 55.8C210.5 56.3 211.3 56.6 212.3 56.6Z" fill="#15BEE6"/>
<path d="M226.8 58.9001L222.1 42.8H225.3L228.5 54.6H228.7L231.9 42.8H235.1L238.2 54.6H238.4L241.5 42.8H244.7L240 58.9001H236.8L233.5 47.3H233.3L230 58.9001H226.8Z" fill="#15BEE6"/>
<path d="M251.1 52.5C251.1 51.2 251.2 50.2 251.5 49.4C251.8 48.6 252.1 48 252.6 47.5C253.1 47 253.6 46.6 254.3 46.2C254.7 45.9 255.1 45.6 255.4 45.3C255.7 45 256 44.6 256.2 44.2C256.4 43.8 256.5 43.3 256.5 42.8C256.5 42.2 256.4 41.6 256.1 41.2C255.8 40.7 255.4 40.4 254.9 40.1C254.4 39.8 253.9 39.7 253.3 39.7C252.8 39.7 252.2 39.8 251.8 40C251.4 40.2 250.9 40.6 250.6 41C250.3 41.4 250.1 42.1 250 42.8H246.8C246.8 41.5 247.2 40.5 247.8 39.6C248.4 38.7 249.2 38.1 250.1 37.6C251 37.1 252.1 36.9 253.3 36.9C254.6 36.9 255.7 37.1 256.7 37.6C257.7 38.1 258.4 38.7 258.9 39.6C259.4 40.5 259.7 41.5 259.7 42.6C259.7 43.4 259.6 44.1 259.3 44.7C259.1 45.3 258.7 45.9 258.3 46.4C257.8 46.9 257.3 47.3 256.7 47.7C256.1 48.1 255.6 48.5 255.3 48.9C254.9 49.3 254.7 49.8 254.5 50.3C254.3 50.8 254.2 51.5 254.2 52.3V52.5H251.1ZM252.7 59.1C252.1 59.1 251.6 58.9 251.2 58.5C250.8 58.1 250.6 57.6 250.6 57C250.6 56.4 250.8 55.9 251.2 55.5C251.6 55.1 252.1 54.9 252.7 54.9C253.3 54.9 253.8 55.1 254.2 55.5C254.6 55.9 254.8 56.4 254.8 57C254.8 57.4 254.7 57.7 254.5 58.1C254.3 58.4 254.1 58.7 253.7 58.9C253.4 59 253 59.1 252.7 59.1Z" fill="#15BEE6"/>
<path d="M257 63.6H170.9V66.2H257V63.6Z" fill="#D9F4F9"/>
</g>
</g>
<defs>
<clipPath id="clip0_4_1024">
<rect width="1521" height="255" fill="white"/>
</clipPath>
</defs>
</svg>
