<svg width="1521" height="255" viewBox="0 0 1521 255" fill="none" xmlns="http://www.w3.org/2000/svg">
<g clip-path="url(#clip0_1_3)">
<path d="M1521 0H0V255H1521V0Z" fill="white"/>
<mask id="mask0_1_3" style="mask-type:luminance" maskUnits="userSpaceOnUse" x="0" y="0" width="1521" height="255">
<path d="M1521 0H0V255H1521V0Z" fill="white"/>
</mask>
<g mask="url(#mask0_1_3)">
<path d="M589.8 65C625.7 65 654.8 35.9 654.8 0H524.8C524.8 35.9 553.9 65 589.8 65Z" fill="#F2FCFF"/>
</g>
<mask id="mask1_1_3" style="mask-type:luminance" maskUnits="userSpaceOnUse" x="0" y="0" width="1521" height="255">
<path d="M1521 0H0V255H1521V0Z" fill="white"/>
</mask>
<g mask="url(#mask1_1_3)">
<path d="M1163.8 214.2C1141.3 214.2 1123 232.5 1123 255H1204.6C1204.6 232.5 1186.3 214.2 1163.8 214.2Z" fill="#F2FCFF"/>
</g>
<mask id="mask2_1_3" style="mask-type:luminance" maskUnits="userSpaceOnUse" x="0" y="0" width="1521" height="255">
<path d="M1521 0H0V255H1521V0Z" fill="white"/>
</mask>
<g mask="url(#mask2_1_3)">
<path d="M57 64.7C65.0634 64.7 71.6 58.1634 71.6 50.1C71.6 42.0366 65.0634 35.5 57 35.5C48.9367 35.5 42.4 42.0366 42.4 50.1C42.4 58.1634 48.9367 64.7 57 64.7Z" fill="#F9FEFA"/>
</g>
<mask id="mask3_1_3" style="mask-type:luminance" maskUnits="userSpaceOnUse" x="0" y="0" width="1521" height="255">
<path d="M1521 0H0V255H1521V0Z" fill="white"/>
</mask>
<g mask="url(#mask3_1_3)">
<path d="M1242.7 70.6L1233.7 64L1240.3 55L1235.8 51.7L1229.2 60.7L1220.4 54.3L1217.1 58.8L1225.9 65.2L1219.4 74L1223.9 77.3L1230.4 68.5L1239.4 75.1L1242.7 70.6Z" fill="#D4F6FF"/>
</g>
<mask id="mask4_1_3" style="mask-type:luminance" maskUnits="userSpaceOnUse" x="0" y="0" width="1521" height="255">
<path d="M1521 0H0V255H1521V0Z" fill="white"/>
</mask>
<g mask="url(#mask4_1_3)">
<path d="M63.9 74.9H57V53.4H64.2C66.3 53.4 68.1 53.8 69.6 54.7C71.1 55.6 72.3 56.8 73.1 58.4C73.9 60 74.3 61.9 74.3 64.1C74.3 66.3 73.9 68.3 73.1 69.9C72.3 71.5 71.1 72.7 69.6 73.6C67.9 74.5 66.1 74.9 63.9 74.9ZM60.2 72.1H63.7C65.3 72.1 66.7 71.8 67.8 71.2C68.9 70.6 69.7 69.7 70.2 68.5C70.7 67.3 71 65.9 71 64.2C71 62.5 70.7 61.1 70.2 59.9C69.7 58.7 68.9 57.8 67.8 57.2C66.7 56.6 65.4 56.3 63.9 56.3H60.2V72.1Z" fill="#242438"/>
<path d="M79.6 56.3C79.1 56.3 78.6 56.1 78.2 55.7C77.8 55.3 77.6 54.9 77.6 54.4C77.6 53.9 77.8 53.4 78.2 53.1C78.6 52.7 79.1 52.5 79.6 52.5C80.1 52.5 80.6 52.7 81 53.1C81.4 53.5 81.6 53.9 81.6 54.4C81.6 54.9 81.4 55.4 81 55.7C80.6 56.1 80.1 56.3 79.6 56.3ZM78 74.9V58.8H81.1V74.9H78Z" fill="#242438"/>
<path d="M91.3 75.2C90 75.2 88.8 74.9 87.8 74.2C86.8 73.5 86 72.6 85.4 71.3C84.8 70.1 84.5 68.6 84.5 66.8C84.5 65.1 84.8 63.6 85.4 62.3C86 61.1 86.8 60.1 87.8 59.5C88.8 58.8 90 58.5 91.3 58.5C92.3 58.5 93.1 58.7 93.7 59C94.3 59.3 94.8 59.7 95.1 60.2C95.4 60.6 95.7 61 95.9 61.4H96.1V53.4H99.2V74.9H96.1V72.4H96C95.8 72.7 95.5 73.1 95.2 73.6C94.8 74 94.4 74.4 93.7 74.8C93.1 75 92.3 75.2 91.3 75.2ZM92 72.5C92.9 72.5 93.7 72.3 94.3 71.8C94.9 71.3 95.4 70.7 95.7 69.8C96 68.9 96.2 68 96.2 66.8C96.2 65.7 96 64.7 95.7 63.9C95.4 63.1 94.9 62.4 94.3 61.9C93.7 61.4 92.9 61.2 92 61.2C91.1 61.2 90.3 61.4 89.6 61.9C88.9 62.4 88.5 63.1 88.2 63.9C87.9 64.7 87.7 65.7 87.7 66.8C87.7 67.9 87.9 68.8 88.2 69.7C88.5 70.6 89 71.2 89.6 71.7C90.2 72.2 91.1 72.5 92 72.5Z" fill="#242438"/>
<path d="M113.6 80.9C113.1 80.9 112.7 80.9 112.3 80.8C111.9 80.7 111.6 80.6 111.4 80.6L112.2 78C112.8 78.2 113.3 78.2 113.7 78.2C114.1 78.2 114.5 78 114.9 77.7C115.3 77.4 115.6 76.9 115.8 76.2L116.2 75.1L110.3 58.8H113.7L117.8 71.3H118L122.1 58.8H125.5L118.7 77C118.4 77.8 118 78.5 117.5 79.1C117 79.7 116.5 80.1 115.8 80.4C115.2 80.8 114.5 80.9 113.6 80.9Z" fill="#242438"/>
<path d="M135.1 75.2C133.6 75.2 132.3 74.9 131.1 74.2C130 73.5 129.1 72.5 128.5 71.3C127.9 70.1 127.6 68.6 127.6 66.9C127.6 65.2 127.9 63.8 128.5 62.5C129.1 61.2 130 60.3 131.1 59.6C132.2 58.9 133.5 58.6 135.1 58.6C136.7 58.6 137.9 58.9 139.1 59.6C140.2 60.3 141.1 61.3 141.7 62.5C142.3 63.7 142.6 65.2 142.6 66.9C142.6 68.6 142.3 70 141.7 71.3C141.1 72.5 140.2 73.5 139.1 74.2C137.9 74.9 136.6 75.2 135.1 75.2ZM135.1 72.6C136.1 72.6 136.9 72.3 137.5 71.8C138.1 71.3 138.6 70.6 138.9 69.7C139.2 68.8 139.4 67.9 139.4 66.9C139.4 65.9 139.2 64.9 138.9 64.1C138.6 63.2 138.1 62.5 137.5 62C136.9 61.5 136 61.2 135.1 61.2C134.1 61.2 133.3 61.5 132.7 62C132.1 62.5 131.6 63.2 131.3 64.1C131 65 130.8 65.9 130.8 66.9C130.8 67.9 131 68.9 131.3 69.7C131.6 70.6 132.1 71.2 132.7 71.8C133.3 72.3 134.1 72.6 135.1 72.6Z" fill="#242438"/>
<path d="M156.3 68.2V58.8H159.4V74.9H156.3V72.1H156.1C155.7 73 155.1 73.7 154.3 74.2C153.5 74.8 152.5 75.1 151.3 75.1C150.3 75.1 149.4 74.9 148.6 74.4C147.8 73.9 147.2 73.3 146.7 72.4C146.2 71.5 146 70.4 146 69.1V58.8H149.1V68.7C149.1 69.8 149.4 70.7 150 71.3C150.6 72 151.4 72.3 152.4 72.3C153 72.3 153.6 72.2 154.2 71.9C154.8 71.6 155.3 71.2 155.7 70.6C156.1 70 156.3 69.1 156.3 68.2Z" fill="#242438"/>
<path d="M171.5 74.9V53.4H174.6V74.9H171.5ZM174.4 69.4V65.6H174.9L181.3 58.8H185.1L177.8 66.6H177.3L174.4 69.4ZM181.6 74.9L175.8 67.2L178 65L185.5 74.8H181.6V74.9Z" fill="#15BEE6"/>
<path d="M191 65.3V74.9H187.9V58.8H190.9V61.4H191.1C191.5 60.5 192.1 59.9 192.8 59.3C193.6 58.8 194.6 58.5 195.8 58.5C196.9 58.5 197.9 58.7 198.7 59.2C199.5 59.7 200.2 60.3 200.6 61.2C201.1 62.1 201.3 63.2 201.3 64.5V74.7H198.2V65C198.2 63.8 197.9 62.9 197.3 62.3C196.7 61.6 195.9 61.3 194.8 61.3C194.1 61.3 193.4 61.5 192.9 61.8C192.4 62.1 191.9 62.6 191.6 63.2C191.2 63.7 191 64.5 191 65.3Z" fill="#15BEE6"/>
<path d="M212.3 75.2C210.8 75.2 209.5 74.9 208.3 74.2C207.2 73.5 206.3 72.5 205.7 71.3C205.1 70.1 204.8 68.6 204.8 66.9C204.8 65.2 205.1 63.8 205.7 62.5C206.3 61.2 207.2 60.3 208.3 59.6C209.4 58.9 210.7 58.6 212.3 58.6C213.9 58.6 215.1 58.9 216.3 59.6C217.4 60.3 218.3 61.3 218.9 62.5C219.5 63.7 219.8 65.2 219.8 66.9C219.8 68.6 219.5 70 218.9 71.3C218.3 72.5 217.4 73.5 216.3 74.2C215.1 74.9 213.8 75.2 212.3 75.2ZM212.3 72.6C213.3 72.6 214.1 72.3 214.7 71.8C215.3 71.3 215.8 70.6 216.1 69.7C216.4 68.8 216.6 67.9 216.6 66.9C216.6 65.9 216.4 64.9 216.1 64.1C215.8 63.2 215.3 62.5 214.7 62C214.1 61.5 213.2 61.2 212.3 61.2C211.3 61.2 210.5 61.5 209.9 62C209.3 62.5 208.8 63.2 208.5 64.1C208.2 65 208 65.9 208 66.9C208 67.9 208.2 68.9 208.5 69.7C208.8 70.6 209.3 71.2 209.9 71.8C210.5 72.3 211.3 72.6 212.3 72.6Z" fill="#15BEE6"/>
<path d="M226.8 74.9L222.1 58.8H225.3L228.5 70.6H228.7L231.9 58.8H235.1L238.2 70.6H238.4L241.5 58.8H244.7L240 74.9H236.8L233.5 63.3H233.3L230 74.9H226.8Z" fill="#15BEE6"/>
<path d="M251.1 68.5C251.1 67.2 251.2 66.2 251.5 65.4C251.8 64.6 252.1 64 252.6 63.5C253.1 63 253.6 62.6 254.3 62.2C254.7 61.9 255.1 61.6 255.4 61.3C255.7 61 256 60.6 256.2 60.2C256.4 59.8 256.5 59.3 256.5 58.8C256.5 58.2 256.4 57.6 256.1 57.2C255.8 56.7 255.4 56.4 254.9 56.1C254.4 55.8 253.9 55.7 253.3 55.7C252.8 55.7 252.2 55.8 251.8 56C251.4 56.2 250.9 56.6 250.6 57C250.3 57.4 250.1 58.1 250 58.8H246.8C246.8 57.5 247.2 56.5 247.8 55.6C248.4 54.7 249.2 54.1 250.1 53.6C251 53.1 252.1 52.9 253.3 52.9C254.6 52.9 255.7 53.1 256.7 53.6C257.7 54.1 258.4 54.7 258.9 55.6C259.4 56.5 259.7 57.5 259.7 58.6C259.7 59.4 259.6 60.1 259.3 60.7C259.1 61.3 258.7 61.9 258.3 62.4C257.8 62.9 257.3 63.3 256.7 63.7C256.1 64.1 255.6 64.5 255.3 64.9C254.9 65.3 254.7 65.8 254.5 66.3C254.3 66.8 254.2 67.5 254.2 68.3V68.5H251.1ZM252.7 75.1C252.1 75.1 251.6 74.9 251.2 74.5C250.8 74.1 250.6 73.6 250.6 73C250.6 72.4 250.8 71.9 251.2 71.5C251.6 71.1 252.1 70.9 252.7 70.9C253.3 70.9 253.8 71.1 254.2 71.5C254.6 71.9 254.8 72.4 254.8 73C254.8 73.4 254.7 73.7 254.5 74.1C254.3 74.4 254.1 74.7 253.7 74.9C253.4 75 253 75.1 252.7 75.1Z" fill="#15BEE6"/>
</g>
<mask id="mask5_1_3" style="mask-type:luminance" maskUnits="userSpaceOnUse" x="0" y="0" width="1521" height="255">
<path d="M1521 0H0V255H1521V0Z" fill="white"/>
</mask>
<g mask="url(#mask5_1_3)">
<path d="M257 79.6H170.9V82.2H257V79.6Z" fill="#D9F4F9"/>
</g>
<mask id="mask6_1_3" style="mask-type:luminance" maskUnits="userSpaceOnUse" x="0" y="0" width="1521" height="255">
<path d="M1521 0H0V255H1521V0Z" fill="white"/>
</mask>
<g mask="url(#mask6_1_3)">
<path d="M64.1999 105.6V138.8H58.2V105.6H64.1999Z" fill="#77809C"/>
<path d="M75.9 124.3V138.9H70V114H75.6V118.2H75.9C76.5 116.8 77.4 115.7 78.6 114.9C79.8 114.1 81.4 113.7 83.3 113.7C85 113.7 86.5 114.1 87.8 114.8C89.1 115.5 90.1 116.6 90.8 118C91.5 119.4 91.9 121.1 91.8 123.1V139H86V124C86 122.3 85.6 121 84.7 120.1C83.8 119.2 82.7 118.7 81.1 118.7C80.1 118.7 79.2 118.9 78.4 119.4C77.6 119.9 77 120.5 76.5 121.3C76.1 122 75.9 123.1 75.9 124.3Z" fill="#77809C"/>
<path d="M119.7 114L110.8 138.9H104.3L95.3999 114H101.7L107.4 132.5H107.7L113.4 114H119.7Z" fill="#77809C"/>
<path d="M134.3 139.4C131.8 139.4 129.6 138.9 127.8 137.8C126 136.8 124.6 135.3 123.6 133.4C122.6 131.5 122.1 129.2 122.1 126.6C122.1 124 122.6 121.8 123.6 119.8C124.6 117.9 125.9 116.3 127.7 115.3C129.5 114.3 131.5 113.7 133.9 113.7C135.4 113.7 136.9 113.9 138.3 114.4C139.7 114.9 140.9 115.7 141.9 116.7C143 117.7 143.8 119 144.4 120.6C145 122.2 145.3 124.1 145.3 126.3V128.1H124.9V124.1H139.7C139.7 123 139.4 122 139 121.1C138.5 120.2 137.9 119.5 137 119C136.2 118.5 135.2 118.2 134 118.2C132.8 118.2 131.7 118.5 130.8 119.1C129.9 119.7 129.2 120.4 128.7 121.4C128.2 122.4 127.9 123.4 127.9 124.5V128C127.9 129.4 128.2 130.7 128.7 131.7C129.2 132.7 130 133.5 130.9 134.1C131.8 134.7 133 134.9 134.2 134.9C135.1 134.9 135.8 134.8 136.5 134.5C137.2 134.3 137.8 133.9 138.3 133.4C138.8 132.9 139.2 132.3 139.5 131.6L145 132.2C144.7 133.6 144 134.9 143 136C142 137.1 140.8 137.9 139.3 138.5C137.9 139.1 136.2 139.4 134.3 139.4Z" fill="#77809C"/>
<path d="M169.6 120.5L164.2 121.1C164 120.6 163.8 120.1 163.4 119.6C163 119.1 162.5 118.7 161.9 118.4C161.3 118.1 160.5 118 159.6 118C158.4 118 157.4 118.3 156.5 118.8C155.7 119.3 155.3 120 155.3 120.9C155.3 121.6 155.6 122.2 156.1 122.7C156.6 123.2 157.6 123.5 158.8 123.8L163 124.7C165.4 125.2 167.1 126 168.3 127.1C169.5 128.2 170 129.6 170 131.4C170 133 169.5 134.4 168.6 135.5C167.7 136.7 166.4 137.6 164.8 138.3C163.2 139 161.4 139.3 159.3 139.3C156.3 139.3 153.8 138.7 151.9 137.4C150 136.1 148.9 134.3 148.6 132L154.3 131.4C154.6 132.5 155.1 133.4 156 133.9C156.9 134.4 157.9 134.8 159.3 134.8C160.7 134.8 161.8 134.5 162.7 133.9C163.5 133.3 164 132.6 164 131.8C164 131.1 163.7 130.5 163.2 130C162.7 129.5 161.8 129.2 160.7 128.9L156.4 128C154 127.5 152.2 126.7 151.1 125.5C150 124.3 149.4 122.8 149.4 121C149.4 119.5 149.8 118.1 150.7 117C151.5 115.9 152.7 115 154.3 114.4C155.8 113.8 157.6 113.5 159.6 113.5C162.5 113.5 164.8 114.1 166.5 115.4C168.1 116.7 169.2 118.4 169.6 120.5Z" fill="#77809C"/>
<path d="M186.9 114V118.5H172.6V114H186.9ZM176.2 108H182.1V131.4C182.1 132.2 182.2 132.8 182.5 133.2C182.7 133.6 183.1 133.9 183.5 134.1C183.9 134.3 184.3 134.3 184.8 134.3C185.2 134.3 185.5 134.3 185.8 134.2C186.1 134.1 186.3 134.1 186.5 134.1L187.5 138.7C187.2 138.8 186.7 138.9 186.2 139.1C185.6 139.2 184.9 139.3 184.1 139.3C182.6 139.3 181.3 139.1 180.1 138.6C178.9 138.1 178 137.3 177.3 136.3C176.6 135.3 176.3 134 176.3 132.4V108H176.2Z" fill="#77809C"/>
<path d="M191.4 138.9V114H197V118.2H197.3C197.8 116.8 198.7 115.7 199.9 114.9C201.1 114.1 202.5 113.7 204.2 113.7C205.9 113.7 207.3 114.1 208.5 114.9C209.7 115.7 210.5 116.8 211 118.2H211.3C211.9 116.8 212.8 115.7 214.1 114.9C215.4 114.1 217 113.7 218.8 113.7C221.1 113.7 223 114.4 224.4 115.9C225.8 117.4 226.6 119.5 226.6 122.2V138.9H220.7V123.1C220.7 121.6 220.3 120.4 219.5 119.7C218.7 119 217.7 118.6 216.5 118.6C215.1 118.6 214 119 213.2 119.9C212.4 120.8 212 121.9 212 123.3V138.8H206V122.7C206 121.4 205.6 120.4 204.8 119.6C204 118.8 203 118.4 201.8 118.4C201 118.4 200.2 118.6 199.5 119C198.8 119.4 198.3 120 197.8 120.8C197.4 121.6 197.2 122.5 197.2 123.5V138.7H191.4V138.9Z" fill="#77809C"/>
<path d="M243 139.4C240.5 139.4 238.3 138.9 236.5 137.8C234.7 136.8 233.3 135.3 232.3 133.4C231.3 131.5 230.8 129.2 230.8 126.6C230.8 124 231.3 121.8 232.3 119.8C233.3 117.9 234.6 116.3 236.4 115.3C238.2 114.3 240.2 113.7 242.6 113.7C244.1 113.7 245.6 113.9 247 114.4C248.4 114.9 249.6 115.7 250.6 116.7C251.7 117.7 252.5 119 253.1 120.6C253.7 122.2 254 124.1 254 126.3V128.1H233.6V124.1H248.4C248.4 123 248.1 122 247.7 121.1C247.2 120.2 246.6 119.5 245.7 119C244.9 118.5 243.9 118.2 242.7 118.2C241.5 118.2 240.4 118.5 239.5 119.1C238.6 119.7 237.9 120.4 237.4 121.4C236.9 122.4 236.6 123.4 236.6 124.5V128C236.6 129.4 236.9 130.7 237.4 131.7C237.9 132.7 238.7 133.5 239.6 134.1C240.5 134.7 241.7 134.9 242.9 134.9C243.8 134.9 244.5 134.8 245.2 134.5C245.9 134.3 246.5 133.9 247 133.4C247.5 132.9 247.9 132.3 248.2 131.6L253.7 132.2C253.4 133.6 252.7 134.9 251.7 136C250.7 137.1 249.5 137.9 248 138.5C246.6 139.1 244.9 139.4 243 139.4Z" fill="#77809C"/>
<path d="M264.4 124.3V138.9H258.5V114H264.1V118.2H264.4C265 116.8 265.9 115.7 267.1 114.9C268.3 114.1 269.9 113.7 271.8 113.7C273.5 113.7 275 114.1 276.3 114.8C277.6 115.5 278.6 116.6 279.3 118C280 119.4 280.4 121.1 280.3 123.1V139H274.4V124C274.4 122.3 274 121 273.1 120.1C272.2 119.2 271.1 118.7 269.5 118.7C268.5 118.7 267.6 118.9 266.8 119.4C266 119.9 265.4 120.5 264.9 121.3C264.7 122 264.4 123.1 264.4 124.3Z" fill="#77809C"/>
<path d="M298.4 114V118.5H284.1V114H298.4ZM287.6 108H293.5V131.4C293.5 132.2 293.6 132.8 293.9 133.2C294.1 133.6 294.5 133.9 294.9 134.1C295.3 134.3 295.7 134.3 296.2 134.3C296.6 134.3 296.9 134.3 297.2 134.2C297.5 134.1 297.7 134.1 297.9 134.1L298.9 138.7C298.6 138.8 298.1 138.9 297.6 139.1C297 139.2 296.3 139.3 295.5 139.3C294 139.3 292.7 139.1 291.5 138.6C290.3 138.1 289.4 137.3 288.7 136.3C288 135.3 287.7 134 287.7 132.4V108H287.6Z" fill="#77809C"/>
<path d="M316.7 110.4C315.8 110.4 315 110.1 314.3 109.5C313.6 108.9 313.3 108.1 313.3 107.2C313.3 106.3 313.6 105.6 314.3 105C315 104.4 315.8 104.1 316.7 104.1C317.6 104.1 318.4 104.4 319.1 105C319.8 105.6 320.1 106.4 320.1 107.3C320.1 108.2 319.8 108.9 319.1 109.5C318.4 110.1 317.6 110.4 316.7 110.4ZM313.7 138.9V114H319.6V138.9H313.7Z" fill="#77809C"/>
<path d="M344.9 120.5L339.5 121.1C339.3 120.6 339.1 120.1 338.7 119.6C338.3 119.1 337.8 118.7 337.2 118.4C336.6 118.1 335.8 118 334.9 118C333.7 118 332.7 118.3 331.8 118.8C331 119.3 330.6 120 330.6 120.9C330.6 121.6 330.9 122.2 331.4 122.7C331.9 123.2 332.9 123.5 334.1 123.8L338.3 124.7C340.7 125.2 342.4 126 343.6 127.1C344.8 128.2 345.3 129.6 345.3 131.4C345.3 133 344.8 134.4 343.9 135.5C343 136.7 341.7 137.6 340.1 138.3C338.5 139 336.7 139.3 334.6 139.3C331.6 139.3 329.1 138.7 327.2 137.4C325.3 136.1 324.2 134.3 323.9 132L329.6 131.4C329.9 132.5 330.4 133.4 331.3 133.9C332.2 134.4 333.2 134.8 334.6 134.8C336 134.8 337.1 134.5 338 133.9C338.8 133.3 339.3 132.6 339.3 131.8C339.3 131.1 339 130.5 338.5 130C338 129.5 337.1 129.2 336 128.9L331.7 128C329.3 127.5 327.5 126.7 326.4 125.5C325.3 124.3 324.7 122.8 324.7 121C324.7 119.5 325.1 118.1 326 117C326.8 115.9 328 115 329.6 114.4C331.1 113.8 332.9 113.5 334.9 113.5C337.8 113.5 340.1 114.1 341.8 115.4C343.4 116.7 344.5 118.4 344.9 120.5Z" fill="#77809C"/>
<path d="M373.1 114V118.5H358.8V114H373.1ZM362.3 108H368.2V131.4C368.2 132.2 368.3 132.8 368.6 133.2C368.8 133.6 369.2 133.9 369.6 134.1C370 134.3 370.4 134.3 370.9 134.3C371.3 134.3 371.6 134.3 371.9 134.2C372.2 134.1 372.4 134.1 372.6 134.1L373.6 138.7C373.3 138.8 372.8 138.9 372.3 139.1C371.7 139.2 371 139.3 370.2 139.3C368.7 139.3 367.4 139.1 366.2 138.6C365 138.1 364.1 137.3 363.4 136.3C362.7 135.3 362.4 134 362.4 132.4V108H362.3Z" fill="#77809C"/>
<path d="M383.5 124.3V138.9H377.6V105.7H383.3V118.2H383.6C384.2 116.8 385.1 115.7 386.3 114.9C387.5 114.1 389.1 113.7 391 113.7C392.7 113.7 394.2 114.1 395.5 114.8C396.8 115.5 397.8 116.6 398.5 118C399.2 119.4 399.6 121.1 399.6 123.1V139H393.7V124C393.7 122.3 393.3 121 392.4 120.1C391.5 119.2 390.3 118.7 388.8 118.7C387.8 118.7 386.8 118.9 386 119.4C385.2 119.8 384.5 120.5 384.1 121.3C383.7 122 383.5 123.1 383.5 124.3Z" fill="#77809C"/>
<path d="M416.2 139.4C413.7 139.4 411.5 138.9 409.7 137.8C407.9 136.8 406.5 135.3 405.5 133.4C404.5 131.5 404 129.2 404 126.6C404 124 404.5 121.8 405.5 119.8C406.5 117.9 407.8 116.3 409.6 115.3C411.4 114.3 413.4 113.7 415.8 113.7C417.3 113.7 418.8 113.9 420.2 114.4C421.6 114.9 422.8 115.7 423.8 116.7C424.9 117.7 425.7 119 426.3 120.6C426.9 122.2 427.2 124.1 427.2 126.3V128.1H406.8V124.1H421.6C421.6 123 421.3 122 420.9 121.1C420.4 120.2 419.8 119.5 418.9 119C418.1 118.5 417.1 118.2 415.9 118.2C414.7 118.2 413.6 118.5 412.7 119.1C411.8 119.7 411.1 120.4 410.6 121.4C410.1 122.4 409.8 123.4 409.8 124.5V128C409.8 129.4 410.1 130.7 410.6 131.7C411.1 132.7 411.9 133.5 412.8 134.1C413.7 134.7 414.9 134.9 416.1 134.9C417 134.9 417.7 134.8 418.4 134.5C419.1 134.3 419.7 133.9 420.2 133.4C420.7 132.9 421.1 132.3 421.4 131.6L426.9 132.2C426.6 133.6 425.9 134.9 424.9 136C423.9 137.1 422.7 137.9 421.2 138.5C419.8 139.1 418.1 139.4 416.2 139.4Z" fill="#77809C"/>
<path d="M455.3 114V118.5H440.6V114H455.3ZM444.2 138.9V111.6C444.2 109.9 444.5 108.5 445.2 107.4C445.9 106.3 446.8 105.5 448 104.9C449.2 104.3 450.5 104.1 451.9 104.1C452.9 104.1 453.8 104.2 454.6 104.3C455.4 104.4 456 104.6 456.4 104.7L455.2 109.2C455 109.1 454.6 109 454.3 109C454 109 453.5 108.9 453 108.9C451.9 108.9 451.1 109.2 450.7 109.7C450.3 110.2 450 111 450 111.9V138.8H444.2V138.9Z" fill="#77809C"/>
<path d="M475.3 128.4V114H481.2V138.9H475.5V134.5H475.2C474.6 135.9 473.7 137 472.4 137.9C471.1 138.8 469.5 139.2 467.7 139.2C466.1 139.2 464.6 138.8 463.4 138.1C462.2 137.4 461.2 136.3 460.5 134.9C459.8 133.5 459.4 131.8 459.4 129.8V114H465.3V129C465.3 130.6 465.7 131.8 466.6 132.8C467.5 133.7 468.6 134.2 470 134.2C470.9 134.2 471.7 134 472.5 133.6C473.3 133.2 474 132.5 474.5 131.7C475 130.7 475.3 129.7 475.3 128.4Z" fill="#77809C"/>
<path d="M497.8 139.4C495.3 139.4 493.1 138.9 491.3 137.8C489.5 136.8 488.1 135.3 487.1 133.4C486.1 131.5 485.6 129.2 485.6 126.6C485.6 124 486.1 121.8 487.1 119.8C488.1 117.9 489.4 116.3 491.2 115.3C493 114.3 495 113.7 497.4 113.7C498.9 113.7 500.4 113.9 501.8 114.4C503.2 114.9 504.4 115.7 505.4 116.7C506.5 117.7 507.3 119 507.9 120.6C508.5 122.2 508.8 124.1 508.8 126.3V128.1H488.4V124.1H503.2C503.2 123 502.9 122 502.5 121.1C502 120.2 501.4 119.5 500.5 119C499.7 118.5 498.7 118.2 497.5 118.2C496.3 118.2 495.2 118.5 494.3 119.1C493.4 119.7 492.7 120.4 492.2 121.4C491.7 122.4 491.4 123.4 491.4 124.5V128C491.4 129.4 491.7 130.7 492.2 131.7C492.7 132.7 493.5 133.5 494.4 134.1C495.3 134.7 496.5 134.9 497.7 134.9C498.6 134.9 499.3 134.8 500 134.5C500.7 134.3 501.3 133.9 501.8 133.4C502.3 132.9 502.7 132.3 503 131.6L508.5 132.2C508.2 133.6 507.5 134.9 506.5 136C505.5 137.1 504.3 137.9 502.8 138.5C501.4 139.1 499.7 139.4 497.8 139.4Z" fill="#77809C"/>
<path d="M519.2 105.6V138.8H513.3V105.6H519.2Z" fill="#77809C"/>
<path d="M548.3 114V118.5H533.6V114H548.3ZM537.3 138.9V111.6C537.3 109.9 537.6 108.5 538.3 107.4C539 106.3 539.9 105.5 541.1 104.9C542.3 104.3 543.6 104.1 545 104.1C546 104.1 546.9 104.2 547.7 104.3C548.5 104.4 549.1 104.6 549.5 104.7L548.3 109.2C548.1 109.1 547.7 109 547.4 109C547.1 109 546.6 108.9 546.1 108.9C545 108.9 544.2 109.2 543.8 109.7C543.4 110.2 543.1 111 543.1 111.9V138.8H537.3V138.9Z" fill="#77809C"/>
<path d="M563.3 139.4C560.9 139.4 558.8 138.9 557 137.8C555.2 136.7 553.8 135.2 552.9 133.3C551.9 131.4 551.4 129.1 551.4 126.6C551.4 124 551.9 121.8 552.9 119.8C553.9 117.9 555.3 116.4 557 115.3C558.8 114.2 560.9 113.7 563.3 113.7C565.7 113.7 567.8 114.2 569.6 115.3C571.4 116.4 572.8 117.9 573.7 119.8C574.7 121.7 575.2 124 575.2 126.6C575.2 129.2 574.7 131.4 573.7 133.3C572.7 135.2 571.3 136.7 569.6 137.8C567.9 138.8 565.8 139.4 563.3 139.4ZM563.4 134.7C564.7 134.7 565.8 134.3 566.7 133.6C567.6 132.9 568.2 131.9 568.7 130.7C569.1 129.5 569.4 128.1 569.4 126.6C569.4 125.1 569.2 123.7 568.7 122.5C568.2 121.3 567.6 120.3 566.7 119.5C565.8 118.8 564.7 118.4 563.4 118.4C562 118.4 560.9 118.8 560 119.5C559.1 120.2 558.4 121.2 558 122.5C557.6 123.8 557.3 125.1 557.3 126.6C557.3 128.1 557.5 129.5 558 130.7C558.4 131.9 559.1 132.9 560 133.6C560.9 134.3 562 134.7 563.4 134.7Z" fill="#77809C"/>
<path d="M579.8 138.9V114H585.5V118.2H585.8C586.3 116.8 587 115.7 588.1 114.9C589.2 114.1 590.5 113.7 591.9 113.7C592.2 113.7 592.6 113.7 593 113.7C593.4 113.7 593.7 113.8 594 113.8V119.2C593.8 119.1 593.4 119 592.8 119C592.2 119 591.7 118.9 591.3 118.9C590.2 118.9 589.3 119.1 588.4 119.6C587.5 120.1 586.9 120.7 586.4 121.5C585.9 122.3 585.7 123.2 585.7 124.3V138.9H579.8Z" fill="#77809C"/>
<path d="M628 120.5L622.6 121.1C622.4 120.6 622.2 120.1 621.8 119.6C621.4 119.1 620.9 118.7 620.3 118.4C619.7 118.1 618.9 118 618 118C616.8 118 615.8 118.3 614.9 118.8C614.1 119.3 613.7 120 613.7 120.9C613.7 121.6 614 122.2 614.5 122.7C615 123.2 616 123.5 617.2 123.8L621.4 124.7C623.8 125.2 625.5 126 626.7 127.1C627.9 128.2 628.4 129.6 628.4 131.4C628.4 133 627.9 134.4 627 135.5C626.1 136.7 624.8 137.6 623.2 138.3C621.6 139 619.8 139.3 617.7 139.3C614.7 139.3 612.2 138.7 610.3 137.4C608.4 136.1 607.3 134.3 607 132L612.7 131.4C613 132.5 613.5 133.4 614.4 133.9C615.3 134.4 616.3 134.8 617.7 134.8C619.1 134.8 620.2 134.5 621.1 133.9C621.9 133.3 622.4 132.6 622.4 131.8C622.4 131.1 622.1 130.5 621.6 130C621.1 129.5 620.2 129.2 619.1 128.9L614.8 128C612.4 127.5 610.6 126.7 609.5 125.5C608.4 124.3 607.8 122.8 607.8 121C607.8 119.5 608.2 118.1 609.1 117C609.9 115.9 611.1 115 612.7 114.4C614.2 113.8 616 113.5 618 113.5C620.9 113.5 623.2 114.1 624.9 115.4C626.6 116.7 627.6 118.4 628 120.5Z" fill="#77809C"/>
<path d="M648.8 128.4V114H654.7V138.9H649V134.5H648.7C648.1 135.9 647.2 137 645.9 137.9C644.6 138.8 643 139.2 641.2 139.2C639.6 139.2 638.1 138.8 636.9 138.1C635.7 137.4 634.7 136.3 634 134.9C633.3 133.5 632.9 131.8 632.9 129.8V114H638.8V129C638.8 130.6 639.2 131.8 640.1 132.8C641 133.7 642.1 134.2 643.5 134.2C644.4 134.2 645.2 134 646 133.6C646.8 133.2 647.5 132.5 648 131.7C648.5 130.7 648.8 129.7 648.8 128.4Z" fill="#77809C"/>
<path d="M680 120.5L674.6 121.1C674.4 120.6 674.2 120.1 673.8 119.6C673.4 119.1 672.9 118.7 672.3 118.4C671.7 118.1 670.9 118 670 118C668.8 118 667.8 118.3 666.9 118.8C666.1 119.3 665.7 120 665.7 120.9C665.7 121.6 666 122.2 666.5 122.7C667 123.2 668 123.5 669.2 123.8L673.4 124.7C675.8 125.2 677.5 126 678.7 127.1C679.9 128.2 680.4 129.6 680.4 131.4C680.4 133 679.9 134.4 679 135.5C678.1 136.7 676.8 137.6 675.2 138.3C673.6 139 671.8 139.3 669.7 139.3C666.7 139.3 664.2 138.7 662.3 137.4C660.4 136.1 659.3 134.3 659 132L664.7 131.4C665 132.5 665.5 133.4 666.4 133.9C667.3 134.4 668.3 134.8 669.7 134.8C671.1 134.8 672.2 134.5 673.1 133.9C673.9 133.3 674.4 132.6 674.4 131.8C674.4 131.1 674.1 130.5 673.6 130C673.1 129.5 672.2 129.2 671.1 128.9L666.8 128C664.4 127.5 662.6 126.7 661.5 125.5C660.4 124.3 659.8 122.8 659.8 121C659.8 119.5 660.2 118.1 661.1 117C661.9 115.9 663.1 115 664.7 114.4C666.2 113.8 668 113.5 670 113.5C672.9 113.5 675.2 114.1 676.9 115.4C678.5 116.7 679.6 118.4 680 120.5Z" fill="#77809C"/>
<path d="M697.3 114V118.5H683V114H697.3ZM686.5 108H692.4V131.4C692.4 132.2 692.5 132.8 692.8 133.2C693 133.6 693.4 133.9 693.8 134.1C694.2 134.3 694.6 134.3 695.1 134.3C695.5 134.3 695.8 134.3 696.1 134.2C696.4 134.1 696.6 134.1 696.8 134.1L697.8 138.7C697.5 138.8 697 138.9 696.5 139.1C695.9 139.2 695.2 139.3 694.4 139.3C692.9 139.3 691.6 139.1 690.4 138.6C689.2 138.1 688.3 137.3 687.6 136.3C686.9 135.3 686.6 134 686.6 132.4V108H686.5Z" fill="#77809C"/>
<path d="M709 139.4C707.4 139.4 706 139.1 704.7 138.5C703.4 137.9 702.4 137.1 701.7 136C701 134.9 700.6 133.5 700.6 131.9C700.6 130.5 700.9 129.3 701.4 128.4C701.9 127.5 702.6 126.7 703.5 126.2C704.4 125.6 705.4 125.2 706.5 124.9C707.6 124.6 708.8 124.4 710 124.3C711.5 124.1 712.6 124 713.6 123.9C714.6 123.8 715.2 123.6 715.6 123.3C716 123 716.2 122.6 716.2 122.1V122C716.2 120.8 715.8 119.8 715.1 119.2C714.4 118.5 713.3 118.2 712 118.2C710.6 118.2 709.4 118.5 708.6 119.1C707.8 119.7 707.2 120.5 706.9 121.3L701.4 120.5C701.8 119 702.5 117.7 703.5 116.7C704.5 115.7 705.7 114.9 707.1 114.4C708.5 113.9 710.1 113.6 711.9 113.6C713.1 113.6 714.3 113.7 715.5 114C716.7 114.3 717.8 114.7 718.8 115.4C719.8 116.1 720.6 116.9 721.2 118C721.8 119.1 722.1 120.5 722.1 122.1V138.8H716.5V135.4H716.3C715.9 136.1 715.4 136.7 714.8 137.3C714.2 137.9 713.4 138.4 712.4 138.7C711.4 139.2 710.2 139.4 709 139.4ZM710.5 135.1C711.7 135.1 712.7 134.9 713.6 134.4C714.5 133.9 715.1 133.3 715.6 132.5C716.1 131.7 716.3 130.9 716.3 130V127C716.1 127.2 715.8 127.3 715.4 127.4C715 127.5 714.5 127.6 713.9 127.7C713.4 127.8 712.8 127.9 712.3 128C711.8 128.1 711.3 128.1 710.9 128.2C710 128.3 709.2 128.5 708.5 128.8C707.8 129.1 707.3 129.4 706.9 129.9C706.5 130.4 706.3 131 706.3 131.8C706.3 132.9 706.7 133.7 707.5 134.2C708.2 134.8 709.3 135.1 710.5 135.1Z" fill="#77809C"/>
<path d="M730.5 110.4C729.6 110.4 728.8 110.1 728.1 109.5C727.4 108.9 727.1 108.1 727.1 107.2C727.1 106.3 727.4 105.6 728.1 105C728.8 104.4 729.6 104.1 730.5 104.1C731.4 104.1 732.2 104.4 732.9 105C733.6 105.6 733.9 106.4 733.9 107.3C733.9 108.2 733.6 108.9 732.9 109.5C732.3 110.1 731.5 110.4 730.5 110.4ZM727.6 138.9V114H733.5V138.9H727.6Z" fill="#77809C"/>
<path d="M744.9 124.3V138.9H739V114H744.6V118.2H744.9C745.5 116.8 746.4 115.7 747.6 114.9C748.8 114.1 750.4 113.7 752.3 113.7C754 113.7 755.5 114.1 756.8 114.8C758.1 115.5 759.1 116.6 759.8 118C760.5 119.4 760.9 121.1 760.8 123.1V139H755V124C755 122.3 754.6 121 753.7 120.1C752.8 119.2 751.7 118.7 750.1 118.7C749.1 118.7 748.2 118.9 747.4 119.4C746.6 119.9 746 120.5 745.5 121.3C745.1 122 744.9 123.1 744.9 124.3Z" fill="#77809C"/>
<path d="M773.6 139.4C772 139.4 770.6 139.1 769.3 138.5C768 137.9 767 137.1 766.3 136C765.6 134.9 765.2 133.5 765.2 131.9C765.2 130.5 765.5 129.3 766 128.4C766.5 127.5 767.2 126.7 768.1 126.2C769 125.6 770 125.2 771.1 124.9C772.2 124.6 773.4 124.4 774.6 124.3C776.1 124.1 777.2 124 778.2 123.9C779.2 123.8 779.8 123.6 780.2 123.3C780.6 123 780.8 122.6 780.8 122.1V122C780.8 120.8 780.4 119.8 779.7 119.2C779 118.5 777.9 118.2 776.6 118.2C775.2 118.2 774 118.5 773.2 119.1C772.4 119.7 771.8 120.5 771.5 121.3L766 120.5C766.4 119 767.1 117.7 768.1 116.7C769.1 115.7 770.3 114.9 771.7 114.4C773.1 113.9 774.7 113.6 776.5 113.6C777.7 113.6 778.9 113.7 780.1 114C781.3 114.3 782.4 114.7 783.4 115.4C784.4 116.1 785.2 116.9 785.8 118C786.4 119.1 786.7 120.5 786.7 122.1V138.8H781.1V135.4H780.9C780.5 136.1 780 136.7 779.4 137.3C778.8 137.9 778 138.4 777 138.7C776 139.2 774.9 139.4 773.6 139.4ZM775.1 135.1C776.3 135.1 777.3 134.9 778.2 134.4C779.1 133.9 779.7 133.3 780.2 132.5C780.7 131.7 780.9 130.9 780.9 130V127C780.7 127.2 780.4 127.3 780 127.4C779.6 127.5 779.1 127.6 778.5 127.7C778 127.8 777.4 127.9 776.9 128C776.4 128.1 775.9 128.1 775.5 128.2C774.6 128.3 773.8 128.5 773.1 128.8C772.4 129.1 771.9 129.4 771.5 129.9C771.1 130.4 770.9 131 770.9 131.8C770.9 132.9 771.3 133.7 772.1 134.2C772.9 134.8 773.9 135.1 775.1 135.1Z" fill="#77809C"/>
<path d="M792.5 138.9V105.7H798.4V118.1H798.6C798.9 117.5 799.3 116.8 799.9 116.2C800.5 115.5 801.2 114.9 802.1 114.4C803 113.9 804.2 113.7 805.7 113.7C807.6 113.7 809.4 114.2 810.9 115.2C812.4 116.2 813.7 117.6 814.6 119.5C815.5 121.4 816 123.7 816 126.5C816 129.2 815.6 131.6 814.7 133.5C813.8 135.4 812.6 136.9 811 137.9C809.5 138.9 807.7 139.4 805.7 139.4C804.3 139.4 803.1 139.2 802.1 138.7C801.2 138.2 800.4 137.6 799.8 137C799.2 136.3 798.8 135.7 798.5 135.1H798.2V139H792.5V138.9ZM798.2 126.4C798.2 128 798.4 129.4 798.9 130.6C799.4 131.8 800 132.8 800.9 133.4C801.8 134.1 802.8 134.4 804.1 134.4C805.4 134.4 806.5 134.1 807.4 133.4C808.3 132.7 808.9 131.7 809.4 130.5C809.8 129.3 810.1 127.9 810.1 126.3C810.1 124.8 809.9 123.4 809.4 122.2C809 121 808.3 120.1 807.4 119.4C806.5 118.7 805.4 118.4 804.1 118.4C802.8 118.4 801.8 118.7 800.9 119.4C800 120.1 799.4 121 798.9 122.2C798.4 123.4 798.2 124.8 798.2 126.4Z" fill="#77809C"/>
<path d="M826.4 105.6V138.8H820.5V105.6H826.4Z" fill="#77809C"/>
<path d="M843 139.4C840.5 139.4 838.3 138.9 836.5 137.8C834.7 136.8 833.3 135.3 832.3 133.4C831.3 131.5 830.8 129.2 830.8 126.6C830.8 124 831.3 121.8 832.3 119.8C833.3 117.9 834.6 116.3 836.4 115.3C838.2 114.3 840.2 113.7 842.6 113.7C844.1 113.7 845.6 113.9 847 114.4C848.4 114.9 849.6 115.7 850.6 116.7C851.7 117.7 852.5 119 853.1 120.6C853.7 122.2 854 124.1 854 126.3V128.1H833.6V124.1H848.4C848.4 123 848.1 122 847.7 121.1C847.2 120.2 846.6 119.5 845.7 119C844.9 118.5 843.9 118.2 842.7 118.2C841.5 118.2 840.4 118.5 839.5 119.1C838.6 119.7 837.9 120.4 837.4 121.4C836.9 122.4 836.6 123.4 836.6 124.5V128C836.6 129.4 836.9 130.7 837.4 131.7C837.9 132.7 838.7 133.5 839.6 134.1C840.5 134.7 841.7 134.9 842.9 134.9C843.8 134.9 844.5 134.8 845.2 134.5C845.9 134.3 846.5 133.9 847 133.4C847.5 132.9 847.9 132.3 848.2 131.6L853.7 132.2C853.4 133.6 852.7 134.9 851.7 136C850.7 137.1 849.5 137.9 848 138.5C846.7 139.1 845 139.4 843 139.4Z" fill="#77809C"/>
<path d="M878.7 139.3C876.7 139.3 875 138.8 873.4 137.8C871.9 136.8 870.6 135.3 869.7 133.4C868.8 131.5 868.4 129.2 868.4 126.4C868.4 123.6 868.9 121.3 869.8 119.4C870.7 117.5 871.9 116 873.5 115.1C875.1 114.1 876.8 113.6 878.7 113.6C880.2 113.6 881.4 113.8 882.3 114.3C883.2 114.8 884 115.4 884.5 116.1C885.1 116.8 885.5 117.4 885.8 118H886V105.6H891.9V138.8H886.1V134.9H885.7C885.4 135.5 885 136.1 884.4 136.8C883.8 137.5 883.1 138.1 882.1 138.5C881.3 139.1 880.2 139.3 878.7 139.3ZM880.4 134.5C881.6 134.5 882.7 134.2 883.6 133.5C884.5 132.8 885.1 131.9 885.6 130.7C886.1 129.5 886.3 128.1 886.3 126.5C886.3 124.9 886.1 123.5 885.6 122.3C885.1 121.1 884.5 120.2 883.6 119.5C882.7 118.8 881.7 118.5 880.4 118.5C879.1 118.5 878 118.8 877.1 119.5C876.2 120.2 875.6 121.1 875.1 122.3C874.7 123.5 874.4 124.9 874.4 126.4C874.4 128 874.6 129.3 875.1 130.6C875.5 131.8 876.2 132.8 877.1 133.5C878 134.2 879.1 134.5 880.4 134.5Z" fill="#77809C"/>
<path d="M908.9 139.4C906.4 139.4 904.2 138.9 902.4 137.8C900.6 136.8 899.2 135.3 898.2 133.4C897.2 131.5 896.7 129.2 896.7 126.6C896.7 124 897.2 121.8 898.2 119.8C899.2 117.9 900.5 116.3 902.3 115.3C904.1 114.3 906.1 113.7 908.5 113.7C910 113.7 911.5 113.9 912.9 114.4C914.3 114.9 915.5 115.7 916.5 116.7C917.6 117.7 918.4 119 919 120.6C919.6 122.2 919.9 124.1 919.9 126.3V128.1H899.5V124.1H914.3C914.3 123 914 122 913.6 121.1C913.1 120.2 912.5 119.5 911.6 119C910.8 118.5 909.8 118.2 908.6 118.2C907.4 118.2 906.3 118.5 905.4 119.1C904.5 119.7 903.8 120.4 903.3 121.4C902.8 122.4 902.5 123.4 902.5 124.5V128C902.5 129.4 902.8 130.7 903.3 131.7C903.8 132.7 904.6 133.5 905.5 134.1C906.4 134.7 907.6 134.9 908.8 134.9C909.7 134.9 910.4 134.8 911.1 134.5C911.8 134.3 912.4 133.9 912.9 133.4C913.4 132.9 913.8 132.3 914.1 131.6L919.6 132.2C919.3 133.6 918.6 134.9 917.6 136C916.6 137.1 915.4 137.9 913.9 138.5C912.5 139.1 910.8 139.4 908.9 139.4Z" fill="#77809C"/>
<path d="M946.7 114L937.8 138.9H931.3L922.4 114H928.7L934.4 132.5H934.7L940.4 114H946.7Z" fill="#77809C"/>
<path d="M961.3 139.4C958.8 139.4 956.6 138.9 954.8 137.8C953 136.8 951.6 135.3 950.6 133.4C949.6 131.5 949.1 129.2 949.1 126.6C949.1 124 949.6 121.8 950.6 119.8C951.6 117.9 952.9 116.3 954.7 115.3C956.5 114.3 958.5 113.7 960.9 113.7C962.4 113.7 963.9 113.9 965.3 114.4C966.7 114.9 967.9 115.7 968.9 116.7C970 117.7 970.8 119 971.4 120.6C972 122.2 972.3 124.1 972.3 126.3V128.1H952V124.1H966.8C966.8 123 966.5 122 966.1 121.1C965.6 120.2 965 119.5 964.1 119C963.3 118.5 962.3 118.2 961.1 118.2C959.9 118.2 958.8 118.5 957.9 119.1C957 119.7 956.3 120.4 955.8 121.4C955.3 122.4 955 123.4 955 124.5V128C955 129.4 955.3 130.7 955.8 131.7C956.3 132.7 957.1 133.5 958 134.1C958.9 134.7 960.1 134.9 961.3 134.9C962.2 134.9 962.9 134.8 963.6 134.5C964.3 134.3 964.9 133.9 965.4 133.4C965.9 132.9 966.3 132.3 966.6 131.6L972.1 132.2C971.8 133.6 971.1 134.9 970.1 136C969.1 137.1 967.9 137.9 966.4 138.5C965 139.1 963.3 139.4 961.3 139.4Z" fill="#77809C"/>
<path d="M982.8 105.6V138.8H976.9V105.6H982.8Z" fill="#77809C"/>
<path d="M999.2 139.4C996.8 139.4 994.7 138.9 992.9 137.8C991.1 136.7 989.7 135.2 988.8 133.3C987.8 131.4 987.3 129.1 987.3 126.6C987.3 124 987.8 121.8 988.8 119.8C989.8 117.9 991.2 116.4 992.9 115.3C994.7 114.2 996.8 113.7 999.2 113.7C1001.6 113.7 1003.7 114.2 1005.5 115.3C1007.3 116.4 1008.7 117.9 1009.6 119.8C1010.6 121.7 1011.1 124 1011.1 126.6C1011.1 129.2 1010.6 131.4 1009.6 133.3C1008.6 135.2 1007.2 136.7 1005.5 137.8C1003.8 138.8 1001.7 139.4 999.2 139.4ZM999.3 134.7C1000.6 134.7 1001.7 134.3 1002.6 133.6C1003.5 132.9 1004.1 131.9 1004.6 130.7C1005 129.5 1005.3 128.1 1005.3 126.6C1005.3 125.1 1005.1 123.7 1004.6 122.5C1004.1 121.3 1003.5 120.3 1002.6 119.5C1001.7 118.8 1000.6 118.4 999.3 118.4C997.9 118.4 996.8 118.8 995.9 119.5C995 120.2 994.3 121.2 993.9 122.5C993.5 123.8 993.2 125.1 993.2 126.6C993.2 128.1 993.4 129.5 993.9 130.7C994.3 131.9 995 132.9 995.9 133.6C996.8 134.3 997.9 134.7 999.3 134.7Z" fill="#77809C"/>
<path d="M1015.7 148.2V114H1021.5V118.1H1021.8C1022.1 117.5 1022.5 116.8 1023.1 116.2C1023.7 115.5 1024.4 114.9 1025.3 114.4C1026.2 113.9 1027.4 113.7 1028.9 113.7C1030.8 113.7 1032.6 114.2 1034.1 115.2C1035.6 116.2 1036.9 117.6 1037.8 119.5C1038.7 121.4 1039.2 123.7 1039.2 126.5C1039.2 129.2 1038.8 131.6 1037.9 133.5C1037 135.4 1035.8 136.9 1034.2 137.9C1032.6 138.9 1030.9 139.4 1028.9 139.4C1027.5 139.4 1026.3 139.2 1025.3 138.7C1024.4 138.2 1023.6 137.6 1023 137C1022.4 136.3 1022 135.7 1021.7 135.1H1021.5V148.4H1015.7V148.2ZM1021.4 126.4C1021.4 128 1021.6 129.4 1022.1 130.6C1022.6 131.8 1023.2 132.8 1024.1 133.4C1025 134 1026 134.4 1027.3 134.4C1028.6 134.4 1029.7 134.1 1030.6 133.4C1031.5 132.7 1032.1 131.7 1032.6 130.5C1033 129.3 1033.3 127.9 1033.3 126.3C1033.3 124.8 1033.1 123.4 1032.6 122.2C1032.2 121 1031.5 120.1 1030.6 119.4C1029.7 118.7 1028.6 118.4 1027.3 118.4C1026 118.4 1025 118.7 1024.1 119.4C1023.2 120.1 1022.6 121 1022.1 122.2C1021.7 123.4 1021.4 124.8 1021.4 126.4Z" fill="#77809C"/>
<path d="M1043.8 138.9V114H1049.4V118.2H1049.7C1050.2 116.8 1051.1 115.7 1052.3 114.9C1053.5 114.1 1054.9 113.7 1056.6 113.7C1058.3 113.7 1059.7 114.1 1060.9 114.9C1062.1 115.7 1062.9 116.8 1063.4 118.2H1063.7C1064.3 116.8 1065.2 115.7 1066.5 114.9C1067.8 114.1 1069.4 113.7 1071.2 113.7C1073.5 113.7 1075.4 114.4 1076.8 115.9C1078.2 117.4 1079 119.5 1079 122.2V138.9H1073.1V123.1C1073.1 121.6 1072.7 120.4 1071.9 119.7C1071.1 119 1070.1 118.6 1068.9 118.6C1067.5 118.6 1066.4 119 1065.6 119.9C1064.8 120.8 1064.4 121.9 1064.4 123.3V138.8H1058.6V122.7C1058.6 121.4 1058.2 120.4 1057.4 119.6C1056.6 118.8 1055.6 118.4 1054.4 118.4C1053.6 118.4 1052.8 118.6 1052.1 119C1051.4 119.4 1050.9 120 1050.4 120.8C1050 121.6 1049.8 122.5 1049.8 123.5V138.7H1043.8V138.9Z" fill="#77809C"/>
<path d="M1095.3 139.4C1092.8 139.4 1090.6 138.9 1088.8 137.8C1087 136.8 1085.6 135.3 1084.6 133.4C1083.6 131.5 1083.1 129.2 1083.1 126.6C1083.1 124 1083.6 121.8 1084.6 119.8C1085.6 117.9 1086.9 116.3 1088.7 115.3C1090.5 114.3 1092.5 113.7 1094.9 113.7C1096.4 113.7 1097.9 113.9 1099.3 114.4C1100.7 114.9 1101.9 115.7 1102.9 116.7C1104 117.7 1104.8 119 1105.4 120.6C1106 122.2 1106.3 124.1 1106.3 126.3V128.1H1086V124.1H1100.8C1100.8 123 1100.5 122 1100.1 121.1C1099.6 120.2 1099 119.5 1098.1 119C1097.3 118.5 1096.3 118.2 1095.1 118.2C1093.9 118.2 1092.8 118.5 1091.9 119.1C1091 119.7 1090.3 120.4 1089.8 121.4C1089.3 122.4 1089 123.4 1089 124.5V128C1089 129.4 1089.3 130.7 1089.8 131.7C1090.3 132.7 1091.1 133.5 1092 134.1C1092.9 134.7 1094.1 134.9 1095.3 134.9C1096.2 134.9 1096.9 134.8 1097.6 134.5C1098.3 134.3 1098.9 133.9 1099.4 133.4C1099.9 132.9 1100.3 132.3 1100.6 131.6L1106.1 132.2C1105.8 133.6 1105.1 134.9 1104.1 136C1103.1 137.1 1101.9 137.9 1100.4 138.5C1099 139.1 1097.3 139.4 1095.3 139.4Z" fill="#77809C"/>
<path d="M1116.8 124.3V138.9H1110.9V114H1116.5V118.2H1116.8C1117.4 116.8 1118.3 115.7 1119.5 114.9C1120.7 114.1 1122.3 113.7 1124.2 113.7C1125.9 113.7 1127.4 114.1 1128.7 114.8C1130 115.5 1131 116.6 1131.7 118C1132.4 119.4 1132.8 121.1 1132.7 123.1V139H1126.8V124C1126.8 122.3 1126.4 121 1125.5 120.1C1124.6 119.2 1123.5 118.7 1121.9 118.7C1120.9 118.7 1120 118.9 1119.2 119.4C1118.4 119.9 1117.8 120.5 1117.3 121.3C1117 122 1116.8 123.1 1116.8 124.3Z" fill="#77809C"/>
<path d="M1150.8 114V118.5H1136.5V114H1150.8ZM1140 108H1145.9V131.4C1145.9 132.2 1146 132.8 1146.3 133.2C1146.5 133.6 1146.9 133.9 1147.3 134.1C1147.7 134.3 1148.1 134.3 1148.6 134.3C1149 134.3 1149.3 134.3 1149.6 134.2C1149.9 134.1 1150.1 134.1 1150.3 134.1L1151.3 138.7C1151 138.8 1150.5 138.9 1150 139.1C1149.4 139.2 1148.7 139.3 1147.9 139.3C1146.4 139.3 1145.1 139.1 1143.9 138.6C1142.7 138.1 1141.8 137.3 1141.1 136.3C1140.4 135.3 1140.1 134 1140.1 132.4V108H1140Z" fill="#77809C"/>
<path d="M1158.8 139.2C1157.8 139.2 1157 138.9 1156.3 138.2C1155.6 137.5 1155.3 136.7 1155.3 135.7C1155.3 134.7 1155.6 133.9 1156.3 133.2C1157 132.5 1157.8 132.2 1158.8 132.2C1159.8 132.2 1160.6 132.5 1161.3 133.2C1162 133.9 1162.4 134.7 1162.4 135.7C1162.4 136.4 1162.2 137 1161.9 137.5C1161.6 138 1161.1 138.5 1160.6 138.8C1160.1 139.1 1159.5 139.2 1158.8 139.2Z" fill="#77809C"/>
</g>
<mask id="mask7_1_3" style="mask-type:luminance" maskUnits="userSpaceOnUse" x="0" y="0" width="1521" height="255">
<path d="M1521 0H0V255H1521V0Z" fill="white"/>
</mask>
<g mask="url(#mask7_1_3)">
<path d="M56.4 160.4C56.4 159.1 56.6 157.9 56.9 156.8C57.2 155.7 57.7 154.7 58.3 153.8H59.4C59.2 154.1 58.9 154.6 58.7 155C58.5 155.4 58.3 156 58.1 156.6C57.9 157.2 57.8 157.8 57.7 158.4C57.6 159 57.6 159.6 57.6 160.3C57.6 161.1 57.7 161.9 57.8 162.8C58 163.6 58.2 164.4 58.4 165.1C58.7 165.8 59 166.4 59.3 166.9H58.2C57.6 166 57.1 165 56.8 163.9C56.6 162.9 56.4 161.7 56.4 160.4Z" fill="#D3D3D3"/>
<path d="M68.3 154.3H69.6V161.2C69.6 161.9 69.4 162.6 69.1 163.1C68.8 163.6 68.3 164.1 67.7 164.4C67.1 164.7 66.4 164.9 65.6 164.9C64.8 164.9 64.1 164.7 63.5 164.4C62.9 164.1 62.4 163.6 62.1 163.1C61.8 162.5 61.6 161.9 61.6 161.2V154.3H62.9V161.1C62.9 161.6 63 162.1 63.2 162.5C63.4 162.9 63.7 163.2 64.2 163.4C64.6 163.6 65.1 163.7 65.7 163.7C66.3 163.7 66.8 163.6 67.2 163.4C67.6 163.2 67.9 162.9 68.2 162.5C68.4 162.1 68.5 161.6 68.5 161.1V154.3H68.3Z" fill="#D3D3D3"/>
<path d="M80.4 154.3V164.8H79.2L73.5 156.6H73.4V164.8H72.1V154.3H73.3L79 162.5H79.1V154.3H80.4Z" fill="#D3D3D3"/>
<path d="M91.3 157.6H90C89.9 157.2 89.8 156.9 89.6 156.6C89.4 156.3 89.2 156.1 88.9 155.9C88.6 155.7 88.3 155.6 88 155.5C87.7 155.4 87.3 155.4 87 155.4C86.4 155.4 85.8 155.6 85.3 155.9C84.8 156.2 84.4 156.7 84.1 157.3C83.8 157.9 83.6 158.7 83.6 159.6C83.6 160.5 83.8 161.3 84.1 161.9C84.4 162.5 84.8 163 85.3 163.3C85.8 163.6 86.4 163.8 87 163.8C87.3 163.8 87.7 163.8 88 163.7C88.3 163.6 88.6 163.5 88.9 163.3C89.2 163.1 89.4 162.9 89.6 162.6C89.8 162.3 89.9 162 90 161.6H91.3C91.2 162.1 91 162.6 90.8 163C90.6 163.4 90.2 163.8 89.9 164.1C89.5 164.4 89.1 164.6 88.6 164.8C88.1 165 87.6 165 87.1 165C86.2 165 85.4 164.8 84.7 164.3C84 163.9 83.5 163.2 83.1 162.4C82.7 161.6 82.5 160.6 82.5 159.5C82.5 158.4 82.7 157.4 83.1 156.6C83.5 155.8 84 155.2 84.7 154.7C85.4 154.3 86.2 154 87.1 154C87.6 154 88.1 154.1 88.6 154.2C89.1 154.4 89.5 154.6 89.9 154.9C90.3 155.2 90.6 155.6 90.8 156C91 156.4 91.3 157.1 91.3 157.6Z" fill="#D3D3D3"/>
<path d="M92.8 155.5V154.4H100.7V155.5H97.4V164.9H96.1V155.5H92.8Z" fill="#D3D3D3"/>
<path d="M103.1 164.8H101.8L105.6 154.3H106.9L110.7 164.8H109.4L106.3 156H106.2L103.1 164.8ZM103.6 160.7H109V161.8H103.6V160.7Z" fill="#D3D3D3"/>
<path d="M115.6 164.8H112.4V154.3H115.8C116.8 154.3 117.7 154.5 118.4 154.9C119.1 155.3 119.7 155.9 120.1 156.7C120.5 157.5 120.7 158.4 120.7 159.5C120.7 160.6 120.5 161.5 120.1 162.3C119.7 163.1 119.1 163.7 118.4 164.1C117.6 164.6 116.7 164.8 115.6 164.8ZM113.7 163.7H115.6C116.5 163.7 117.2 163.5 117.8 163.2C118.4 162.9 118.8 162.4 119.1 161.8C119.4 161.2 119.5 160.4 119.5 159.6C119.5 158.8 119.4 158 119.1 157.4C118.8 156.8 118.4 156.3 117.9 156C117.4 155.7 116.7 155.5 115.8 155.5H113.8V163.7H113.7Z" fill="#D3D3D3"/>
<path d="M126.6 164.8V163.9L130.1 160.1C130.5 159.7 130.8 159.3 131.1 158.9C131.4 158.6 131.6 158.3 131.7 158C131.8 157.7 131.9 157.4 131.9 157.1C131.9 156.7 131.8 156.4 131.6 156.1C131.4 155.8 131.2 155.6 130.9 155.5C130.6 155.4 130.3 155.3 129.9 155.3C129.5 155.3 129.1 155.4 128.8 155.5C128.5 155.7 128.3 155.9 128.1 156.2C127.9 156.5 127.9 156.8 127.9 157.2H126.7C126.7 156.6 126.8 156 127.1 155.6C127.4 155.1 127.8 154.8 128.3 154.5C128.8 154.2 129.3 154.1 130 154.1C130.6 154.1 131.2 154.2 131.6 154.5C132.1 154.8 132.4 155.1 132.7 155.5C133 155.9 133.1 156.4 133.1 157C133.1 157.4 133 157.8 132.9 158.1C132.8 158.5 132.5 158.9 132.2 159.3C131.9 159.7 131.4 160.3 130.8 160.9L128.4 163.4V163.5H133.3V164.6H126.6V164.8Z" fill="#D3D3D3"/>
<path d="M138.8 164.9C138 164.9 137.4 164.7 136.8 164.3C136.3 163.9 135.8 163.3 135.6 162.5C135.4 161.7 135.2 160.7 135.2 159.6C135.2 158.5 135.3 157.5 135.6 156.7C135.9 155.9 136.3 155.3 136.8 154.9C137.3 154.5 138 154.3 138.8 154.3C139.6 154.3 140.2 154.5 140.8 154.9C141.3 155.3 141.8 155.9 142 156.7C142.3 157.5 142.4 158.5 142.4 159.6C142.4 160.7 142.3 161.7 142 162.5C141.7 163.3 141.3 163.9 140.8 164.3C140.2 164.7 139.5 164.9 138.8 164.9ZM138.8 163.8C139.6 163.8 140.2 163.4 140.6 162.7C141 162 141.2 160.9 141.2 159.5C141.2 158.6 141.1 157.8 140.9 157.2C140.7 156.6 140.4 156.1 140.1 155.7C139.7 155.4 139.3 155.2 138.8 155.2C138 155.2 137.5 155.6 137 156.3C136.6 157 136.4 158.1 136.4 159.5C136.4 160.4 136.5 161.2 136.7 161.8C136.9 162.4 137.2 162.9 137.5 163.2C137.8 163.7 138.2 163.8 138.8 163.8Z" fill="#D3D3D3"/>
<path d="M144.3 164.8V163.9L147.8 160.1C148.2 159.7 148.5 159.3 148.8 158.9C149.1 158.6 149.3 158.3 149.4 158C149.5 157.7 149.6 157.4 149.6 157.1C149.6 156.7 149.5 156.4 149.3 156.1C149.1 155.8 148.9 155.6 148.6 155.5C148.3 155.4 148 155.3 147.6 155.3C147.2 155.3 146.8 155.4 146.5 155.5C146.2 155.7 146 155.9 145.8 156.2C145.6 156.5 145.6 156.8 145.6 157.2H144.4C144.4 156.6 144.5 156 144.8 155.6C145.1 155.1 145.5 154.8 146 154.5C146.5 154.2 147 154.1 147.7 154.1C148.3 154.1 148.9 154.2 149.3 154.5C149.8 154.8 150.1 155.1 150.4 155.5C150.7 155.9 150.8 156.4 150.8 157C150.8 157.4 150.7 157.8 150.6 158.1C150.5 158.5 150.2 158.9 149.9 159.3C149.6 159.7 149.1 160.3 148.5 160.9L146.1 163.4V163.5H151V164.6H144.3V164.8Z" fill="#D3D3D3"/>
<path d="M152.8 162.7V161.7L157.4 154.4H158.2V156H157.7L154.2 161.5V161.6H160.4V162.7H152.8ZM157.8 164.8V162.3V161.8V154.3H159V164.8H157.8Z" fill="#D3D3D3"/>
<path d="M164.9 160.4C164.9 161.7 164.7 162.9 164.4 164C164.1 165.1 163.6 166.1 163 167H161.9C162.1 166.7 162.4 166.2 162.6 165.8C162.8 165.3 163 164.8 163.2 164.2C163.4 163.6 163.5 163 163.6 162.4C163.7 161.8 163.7 161.2 163.7 160.5C163.7 159.7 163.6 158.9 163.5 158C163.3 157.2 163.1 156.4 162.9 155.7C162.6 155 162.3 154.4 162 153.9H163.1C163.7 154.8 164.2 155.8 164.5 156.9C164.7 157.9 164.9 159.1 164.9 160.4Z" fill="#D3D3D3"/>
</g>
<mask id="mask8_1_3" style="mask-type:luminance" maskUnits="userSpaceOnUse" x="0" y="0" width="1521" height="255">
<path d="M1521 0H0V255H1521V0Z" fill="white"/>
</mask>
<g mask="url(#mask8_1_3)">
<path d="M1381 216.6C1381 205.4 1380.7 194.3 1381.1 183.2C1381.3 177.1 1380.2 171.7 1376.6 166.8C1374.6 164.1 1373.2 160.9 1371.4 158.1C1370.9 157.3 1370 156.4 1369.2 156.3C1354.3 153.5 1342.9 145.2 1333.5 133.9C1322.3 120.6 1315.5 105.3 1314.4 87.7C1313.9 79.7 1314.9 72 1318 64.6C1319.4 61.3 1320.6 60.6 1324.1 61.1C1339.4 63.4 1351.2 71.5 1361 82.9C1371.9 95.4 1378.6 110 1380.6 126.5C1381.5 134.6 1380.9 142.6 1378.4 150.4C1378 151.6 1378.2 153.2 1378.8 154.3C1380.7 158 1382.9 161.5 1385.1 165.4C1387.6 161.1 1389.8 157.3 1392 153.4C1392.3 152.9 1392.4 152.1 1392.2 151.5C1386.6 135.2 1389 119.3 1395.8 104C1402.9 87.8 1413.9 74.8 1429.8 66.4C1435.1 63.6 1440.7 61.8 1446.7 61.1C1449.6 60.7 1450.9 61.5 1452 64.3C1456.4 74.5 1457 85.1 1454.9 95.7C1450.5 118.4 1438.9 136.5 1419.3 149.2C1413.8 152.7 1407.9 155.1 1401.4 156.3C1400.5 156.5 1399.4 157.2 1398.9 158.1C1395.8 163.2 1392.9 168.3 1390 173.5C1389.6 174.2 1389.3 175.1 1389.3 175.9C1389.3 189.4 1389.3 202.9 1389.3 216.4C1389.3 216.6 1389.4 216.7 1389.6 217.3C1390.5 217.3 1391.4 217.3 1392.4 217.3C1408.8 217.3 1425.2 217.3 1441.6 217.3C1450.7 217.3 1456 222.6 1456 231.7C1456 237.4 1455.9 243.1 1456 248.7C1456.1 253 1455.5 257 1452.4 260.3C1455.3 263.6 1456.1 267.3 1456 271.5C1455.9 277.6 1456 283.7 1456 289.8C1456 297.8 1450.4 303.4 1442.4 303.4C1396.7 303.4 1350.9 303.4 1305.2 303.4C1295.2 303.4 1285.2 303.4 1275.3 300.9C1243.6 293 1218.7 265.7 1214.2 233.5C1208 189.5 1236.1 149.6 1279.7 140.7C1324.3 131.5 1369.1 162.2 1376.5 206.9C1376.9 209.5 1377.4 212.1 1377.5 214.7C1377.4 216.9 1378.5 217.3 1381 216.6ZM1295.4 146.9C1254.5 146.9 1221.3 180.1 1221.3 220.9C1221.3 261.6 1254.5 294.8 1295.2 294.9C1336.4 294.9 1369.7 261.7 1369.6 220.7C1369.5 180 1336.1 146.8 1295.4 146.9ZM1331.7 294.6C1332.4 294.7 1332.6 294.8 1332.9 294.8C1369.3 294.8 1405.8 294.8 1442.2 294.8C1445.8 294.8 1447.7 292.8 1447.7 289.3C1447.7 282.9 1447.7 276.6 1447.7 270.2C1447.7 265.6 1446 263.9 1441.4 263.9C1433.1 263.9 1424.7 263.9 1416.4 263.9C1400.2 263.9 1383.9 263.9 1367.7 264C1366.7 264 1365.2 264.4 1364.7 265.2C1356.5 277.8 1345.6 287.5 1331.7 294.6ZM1370.4 255.6C1370.7 255.7 1371 255.8 1371.3 255.8C1395 255.8 1418.7 255.8 1442.5 255.8C1446 255.8 1447.7 253.9 1447.8 250.3C1447.8 244 1447.8 237.7 1447.8 231.5C1447.8 226.7 1446.2 225.1 1441.4 225.1C1421 225.1 1400.6 225.1 1380.2 225.1C1379.4 225.1 1378.6 225.2 1378 225.2C1377.1 230.6 1376.5 235.7 1375.2 240.7C1374 245.7 1372 250.6 1370.4 255.6ZM1405.3 146.6C1406.8 146 1407.6 145.8 1408.3 145.5C1410.9 144.2 1413.6 143.1 1415.9 141.4C1434.8 128.4 1445.2 110.3 1447.6 87.6C1448.2 81.4 1447.5 75.3 1445.3 69.5C1415.6 74.2 1391.6 115.8 1398.5 142C1399.1 141.1 1399.5 140.3 1400 139.5C1406.2 128.8 1412.4 118.1 1418.6 107.4C1420.1 104.8 1422.3 104 1424.5 105.2C1426.6 106.4 1427.1 108.8 1425.6 111.4C1425 112.4 1424.4 113.5 1423.8 114.5C1417.8 125 1411.7 135.5 1405.3 146.6ZM1364.6 146.2C1364.2 145.3 1363.8 144.6 1363.4 143.9C1357.3 133.4 1351.3 122.9 1345.2 112.4C1344.8 111.7 1344.3 111 1344 110.2C1343.3 108.2 1343.7 106.5 1345.5 105.3C1347.4 104.1 1349.3 104.4 1350.7 106.1C1351.3 106.8 1351.7 107.6 1352.2 108.4C1358.2 118.8 1364.2 129.2 1370.3 139.7C1370.7 140.5 1371.2 141.2 1371.9 142.2C1378.1 110.5 1350.8 72.9 1325 69.5C1314.6 96.6 1337.2 137.9 1364.6 146.2Z" fill="#15BEE6"/>
<path d="M1234.2 220.8C1234.3 187.1 1261.8 159.8 1295.4 159.9C1329.4 160 1356.6 187.2 1356.5 221.1C1356.5 254.7 1328.9 282.1 1295.2 282C1261.5 281.8 1234.1 254.4 1234.2 220.8ZM1242.4 220.9C1242.5 249.9 1266.3 273.8 1295 273.8C1324.8 273.7 1348.5 250.2 1348.4 220.8C1348.4 191.3 1324.7 168 1294.8 168C1266 168.1 1242.3 192.1 1242.4 220.9Z" fill="#15BEE6"/>
<path d="M1291.3 252.1C1287.7 250.1 1284.4 248.7 1281.6 246.6C1277.9 243.8 1275.8 239.8 1275.7 235C1275.6 232.3 1277 230.5 1279.2 230.3C1281.5 230.1 1283.4 231.5 1283.7 234.1C1284.2 239.2 1287.2 241.8 1291.8 243C1296.8 244.3 1301.3 243.4 1304.9 239.5C1307.8 236.4 1307.7 232.1 1304.8 228.9C1302.6 226.4 1299.7 225.4 1296.5 225C1293.5 224.7 1290.4 224.4 1287.5 223.4C1280.1 220.8 1275.6 214.4 1275.7 207.3C1275.8 200.3 1280.4 194.2 1287.7 191.5C1288.8 191.1 1289.9 190.8 1291.3 190.3C1291.3 188.2 1291.3 186.1 1291.3 184C1291.4 181 1293 179.2 1295.5 179.3C1297.9 179.4 1299.4 181.1 1299.4 184C1299.4 186.1 1299.4 188.2 1299.4 189.9C1302.5 191.5 1305.5 192.6 1308 194.3C1312.4 197.4 1314.9 201.7 1315 207.2C1315.1 209.7 1313.6 211.4 1311.3 211.5C1309 211.7 1307.3 210.3 1306.9 207.8C1305.9 201.8 1302.3 198.6 1296 198.2C1292.8 198 1289.8 198.9 1287.2 200.9C1282.7 204.5 1282.6 210.3 1287.1 214C1289.9 216.3 1293.2 216.7 1296.7 216.9C1301.9 217.1 1306.5 219.1 1310.2 222.7C1319 231.3 1315.6 245.1 1303.7 250C1299.5 251.7 1299.5 251.7 1299.5 256.3C1299.5 257 1299.5 257.7 1299.5 258.3C1299.3 260.8 1297.8 262.4 1295.6 262.4C1293.3 262.4 1291.6 260.9 1291.5 258.5C1291.2 256.1 1291.3 253.7 1291.3 252.1Z" fill="#15BEE6"/>
</g>
<mask id="mask9_1_3" style="mask-type:luminance" maskUnits="userSpaceOnUse" x="0" y="0" width="1521" height="255">
<path d="M1521 0H0V255H1521V0Z" fill="white"/>
</mask>
<g mask="url(#mask9_1_3)">
<path d="M1456 192C1461.52 192 1466 187.523 1466 182C1466 176.477 1461.52 172 1456 172C1450.48 172 1446 176.477 1446 182C1446 187.523 1450.48 192 1456 192Z" fill="#F2FCFF"/>
</g>
<mask id="mask10_1_3" style="mask-type:luminance" maskUnits="userSpaceOnUse" x="0" y="0" width="1521" height="255">
<path d="M1521 0H0V255H1521V0Z" fill="white"/>
</mask>
<g mask="url(#mask10_1_3)">
<path d="M655 274C667.703 274 678 263.703 678 251C678 238.297 667.703 228 655 228C642.297 228 632 238.297 632 251C632 263.703 642.297 274 655 274Z" fill="#F2FCFF"/>
</g>
</g>
<defs>
<clipPath id="clip0_1_3">
<rect width="1521" height="255" fill="white"/>
</clipPath>
</defs>
</svg>
