<svg width="1521" height="255" viewBox="0 0 1521 255" fill="none" xmlns="http://www.w3.org/2000/svg">
<g clip-path="url(#clip0_4_1776)">
<path d="M1521 0H0V255H1521V0Z" fill="white"/>
<mask id="mask0_4_1776" style="mask-type:luminance" maskUnits="userSpaceOnUse" x="0" y="0" width="1521" height="255">
<path d="M1521 0H0V255H1521V0Z" fill="white"/>
</mask>
<g mask="url(#mask0_4_1776)">
<path d="M589.8 65C625.7 65 654.8 35.9 654.8 0H524.8C524.8 35.9 553.9 65 589.8 65Z" fill="#F2FCFF"/>
</g>
<mask id="mask1_4_1776" style="mask-type:luminance" maskUnits="userSpaceOnUse" x="0" y="0" width="1521" height="255">
<path d="M1521 0H0V255H1521V0Z" fill="white"/>
</mask>
<g mask="url(#mask1_4_1776)">
<path d="M1163.8 214.2C1141.3 214.2 1123 232.5 1123 255H1204.6C1204.6 232.5 1186.3 214.2 1163.8 214.2Z" fill="#F2FCFF"/>
</g>
<mask id="mask2_4_1776" style="mask-type:luminance" maskUnits="userSpaceOnUse" x="0" y="0" width="1521" height="255">
<path d="M1521 0H0V255H1521V0Z" fill="white"/>
</mask>
<g mask="url(#mask2_4_1776)">
<path d="M56.9999 64.7C65.0633 64.7 71.5999 58.1634 71.5999 50.1C71.5999 42.0366 65.0633 35.5 56.9999 35.5C48.9365 35.5 42.3999 42.0366 42.3999 50.1C42.3999 58.1634 48.9365 64.7 56.9999 64.7Z" fill="#F9FEFA"/>
</g>
<mask id="mask3_4_1776" style="mask-type:luminance" maskUnits="userSpaceOnUse" x="0" y="0" width="1521" height="255">
<path d="M1521 0H0V255H1521V0Z" fill="white"/>
</mask>
<g mask="url(#mask3_4_1776)">
<path d="M1176.7 125.6L1167.7 119L1174.3 110L1169.8 106.7L1163.2 115.7L1154.4 109.3L1151.1 113.8L1159.9 120.2L1153.4 129L1157.9 132.3L1164.4 123.5L1173.4 130.1L1176.7 125.6Z" fill="#D4F6FF"/>
</g>
<mask id="mask4_4_1776" style="mask-type:luminance" maskUnits="userSpaceOnUse" x="0" y="0" width="1521" height="255">
<path d="M1521 0H0V255H1521V0Z" fill="white"/>
</mask>
<g mask="url(#mask4_4_1776)">
<path d="M1484 178C1489.52 178 1494 173.523 1494 168C1494 162.477 1489.52 158 1484 158C1478.48 158 1474 162.477 1474 168C1474 173.523 1478.48 178 1484 178Z" fill="#F2FCFF"/>
</g>
<mask id="mask5_4_1776" style="mask-type:luminance" maskUnits="userSpaceOnUse" x="0" y="0" width="1521" height="255">
<path d="M1521 0H0V255H1521V0Z" fill="white"/>
</mask>
<g mask="url(#mask5_4_1776)">
<path d="M655 274C667.703 274 678 263.703 678 251C678 238.297 667.703 228 655 228C642.297 228 632 238.297 632 251C632 263.703 642.297 274 655 274Z" fill="#F2FCFF"/>
</g>
<mask id="mask6_4_1776" style="mask-type:luminance" maskUnits="userSpaceOnUse" x="0" y="0" width="1521" height="255">
<path d="M1521 0H0V255H1521V0Z" fill="white"/>
</mask>
<g mask="url(#mask6_4_1776)">
<path d="M58.1999 88.6001H65.5999L75.4999 112.7H75.8999L85.7999 88.6001H92.9999V121.8H87.1999V99.0001H86.8999L77.6999 121.7H73.3999L64.1999 98.9001H63.8999V121.8H58.0999V88.6001H58.1999Z" fill="#77809C"/>
<path d="M106 122.3C104.4 122.3 103 122 101.7 121.4C100.4 120.8 99.3999 120 98.6999 118.9C97.9999 117.8 97.5999 116.4 97.5999 114.8C97.5999 113.4 97.8999 112.2 98.3999 111.3C98.8999 110.4 99.5999 109.6 100.5 109.1C101.4 108.5 102.4 108.1 103.5 107.8C104.6 107.5 105.8 107.3 107 107.2C108.5 107 109.6 106.9 110.6 106.8C111.6 106.7 112.2 106.5 112.6 106.2C113 105.9 113.2 105.5 113.2 105V104.9C113.2 103.7 112.8 102.7 112.1 102.1C111.4 101.4 110.3 101.1 109 101.1C107.6 101.1 106.4 101.4 105.6 102C104.8 102.6 104.2 103.4 103.9 104.2L98.3999 103.4C98.7999 101.9 99.4999 100.6 100.5 99.6C101.5 98.6 102.7 97.8 104.1 97.3C105.5 96.8 107.1 96.5 108.9 96.5C110.1 96.5 111.3 96.6 112.5 96.9C113.7 97.2 114.8 97.6 115.8 98.3C116.8 99 117.6 99.8 118.2 100.9C118.8 102 119.1 103.4 119.1 105V121.7H113.5V118.3H113.3C112.9 119 112.4 119.6 111.8 120.2C111.2 120.8 110.4 121.3 109.4 121.6C108.5 122.1 107.3 122.3 106 122.3ZM107.5 118C108.7 118 109.7 117.8 110.6 117.3C111.5 116.8 112.1 116.2 112.6 115.4C113.1 114.6 113.3 113.8 113.3 112.9V110C113.1 110.2 112.8 110.3 112.4 110.4C112 110.5 111.5 110.6 110.9 110.7C110.4 110.8 109.8 110.9 109.3 111C108.8 111.1 108.3 111.1 107.9 111.2C107 111.3 106.2 111.5 105.5 111.8C104.8 112.1 104.3 112.4 103.9 112.9C103.5 113.4 103.3 114 103.3 114.8C103.3 115.9 103.7 116.7 104.5 117.2C105.3 117.7 106.3 118 107.5 118Z" fill="#77809C"/>
<path d="M130.5 107.2V121.8H124.6V96.9001H130.2V101.1H130.5C131.1 99.7001 132 98.6001 133.2 97.8001C134.5 97.0001 136 96.6001 137.9 96.6001C139.6 96.6001 141.1 97.0001 142.4 97.7001C143.7 98.4001 144.7 99.5001 145.4 100.9C146.1 102.3 146.5 104 146.4 106V121.9H140.5V106.9C140.5 105.2 140.1 103.9 139.2 103C138.3 102.1 137.2 101.6 135.6 101.6C134.6 101.6 133.7 101.8 132.9 102.3C132.1 102.7 131.5 103.4 131 104.2C130.5 105 130.5 106 130.5 107.2Z" fill="#77809C"/>
<path d="M167.9 111.3V96.8999H173.8V121.8H168.1V117.4H167.8C167.2 118.8 166.3 119.9 165 120.8C163.7 121.7 162.1 122.1 160.3 122.1C158.7 122.1 157.2 121.7 156 121C154.8 120.3 153.8 119.2 153.1 117.8C152.4 116.4 152 114.7 152 112.7V96.8999H157.9V111.9C157.9 113.5 158.3 114.7 159.2 115.7C160.1 116.6 161.2 117.1 162.6 117.1C163.5 117.1 164.3 116.9 165.1 116.5C165.9 116.1 166.6 115.4 167.1 114.6C167.7 113.6 167.9 112.6 167.9 111.3Z" fill="#77809C"/>
<path d="M192 96.9V101.4H177.3V96.9H192ZM180.9 121.8V94.5C180.9 92.8 181.2 91.4 181.9 90.3C182.6 89.2 183.5 88.4 184.7 87.8C185.9 87.2 187.2 87 188.6 87C189.6 87 190.5 87.1 191.3 87.2C192.1 87.4 192.7 87.5 193.1 87.6L191.9 92.1C191.7 92 191.3 91.9 191 91.9C190.7 91.9 190.2 91.8 189.7 91.8C188.6 91.8 187.8 92.1 187.4 92.6C187 93.1 186.7 93.9 186.7 94.8V121.7H180.9V121.8Z" fill="#77809C"/>
<path d="M203.3 122.3C201.7 122.3 200.3 122 199 121.4C197.7 120.8 196.7 120 196 118.9C195.3 117.8 194.9 116.4 194.9 114.8C194.9 113.4 195.2 112.2 195.7 111.3C196.2 110.4 196.9 109.6 197.8 109.1C198.7 108.5 199.7 108.1 200.8 107.8C201.9 107.5 203.1 107.3 204.3 107.2C205.8 107 206.9 106.9 207.9 106.8C208.9 106.7 209.5 106.5 209.9 106.2C210.3 105.9 210.5 105.5 210.5 105V104.9C210.5 103.7 210.1 102.7 209.4 102.1C208.7 101.4 207.6 101.1 206.3 101.1C204.9 101.1 203.7 101.4 202.9 102C202.1 102.6 201.5 103.4 201.2 104.2L195.7 103.4C196.1 101.9 196.8 100.6 197.8 99.6C198.8 98.6 200 97.8 201.4 97.3C202.8 96.8 204.4 96.5 206.2 96.5C207.4 96.5 208.6 96.6 209.8 96.9C211 97.2 212.1 97.6 213.1 98.3C214.1 99 214.9 99.8 215.5 100.9C216.1 102 216.4 103.4 216.4 105V121.7H210.8V118.3H210.6C210.2 119 209.7 119.6 209.1 120.2C208.5 120.8 207.7 121.3 206.7 121.6C205.7 122.1 204.6 122.3 203.3 122.3ZM204.8 118C206 118 207 117.8 207.9 117.3C208.8 116.8 209.4 116.2 209.9 115.4C210.4 114.6 210.6 113.8 210.6 112.9V110C210.4 110.2 210.1 110.3 209.7 110.4C209.3 110.5 208.8 110.6 208.2 110.7C207.7 110.8 207.1 110.9 206.6 111C206.1 111.1 205.6 111.1 205.2 111.2C204.3 111.3 203.5 111.5 202.8 111.8C202.1 112.1 201.6 112.4 201.2 112.9C200.8 113.4 200.6 114 200.6 114.8C200.6 115.9 201 116.7 201.8 117.2C202.6 117.7 203.6 118 204.8 118Z" fill="#77809C"/>
<path d="M232.8 122.3C230.3 122.3 228.2 121.8 226.4 120.7C224.6 119.6 223.3 118.1 222.3 116.2C221.3 114.3 220.9 112 220.9 109.5C220.9 107 221.4 104.7 222.4 102.8C223.4 100.9 224.7 99.3 226.5 98.3C228.3 97.3 230.4 96.7 232.8 96.7C234.8 96.7 236.6 97.1 238.2 97.8C239.8 98.5 241 99.6 241.9 100.9C242.8 102.2 243.4 103.8 243.5 105.6H237.9C237.7 104.4 237.1 103.4 236.3 102.6C235.5 101.8 234.3 101.4 232.9 101.4C231.7 101.4 230.6 101.7 229.7 102.4C228.8 103 228.1 104 227.6 105.2C227.1 106.4 226.8 107.8 226.8 109.5C226.8 111.2 227 112.7 227.5 113.9C228 115.1 228.7 116.1 229.6 116.7C230.5 117.3 231.6 117.7 232.8 117.7C233.7 117.7 234.4 117.5 235.1 117.2C235.8 116.9 236.4 116.4 236.8 115.8C237.3 115.2 237.6 114.4 237.8 113.5H243.4C243.3 115.3 242.7 116.8 241.8 118.2C240.9 119.6 239.7 120.6 238.1 121.4C236.7 121.9 234.9 122.3 232.8 122.3Z" fill="#77809C"/>
<path d="M260.3 96.8999V101.4H246V96.8999H260.3ZM249.5 90.8999H255.4V114.3C255.4 115.1 255.5 115.7 255.8 116.1C256 116.5 256.4 116.8 256.8 117C257.2 117.2 257.6 117.2 258.1 117.2C258.5 117.2 258.8 117.2 259.1 117.1C259.4 117 259.6 117 259.8 117L260.8 121.6C260.5 121.7 260 121.8 259.5 122C258.9 122.1 258.2 122.2 257.4 122.2C255.9 122.2 254.6 122 253.4 121.5C252.2 121 251.3 120.2 250.6 119.2C249.9 118.2 249.6 116.9 249.6 115.3V90.8999H249.5Z" fill="#77809C"/>
<path d="M280.6 111.3V96.8999H286.5V121.8H280.8V117.4H280.5C279.9 118.8 279 119.9 277.7 120.8C276.4 121.7 274.8 122.1 273 122.1C271.4 122.1 269.9 121.7 268.7 121C267.5 120.3 266.5 119.2 265.8 117.8C265.1 116.4 264.7 114.7 264.7 112.7V96.8999H270.6V111.9C270.6 113.5 271 114.7 271.9 115.7C272.8 116.6 273.9 117.1 275.3 117.1C276.2 117.1 277 116.9 277.8 116.5C278.6 116.1 279.3 115.4 279.8 114.6C280.4 113.6 280.6 112.6 280.6 111.3Z" fill="#77809C"/>
<path d="M292.1 121.8V96.9001H297.8V101.1H298.1C298.6 99.7001 299.3 98.6001 300.4 97.8001C301.5 97.0001 302.8 96.6001 304.2 96.6001C304.5 96.6001 304.9 96.6001 305.3 96.6001C305.7 96.6001 306 96.7001 306.3 96.7001V102.1C306.1 102 305.7 101.9 305.1 101.9C304.5 101.9 304 101.8 303.6 101.8C302.5 101.8 301.6 102 300.7 102.5C299.8 103 299.2 103.6 298.7 104.4C298.2 105.2 298 106.1 298 107.2V121.8H292.1Z" fill="#77809C"/>
<path d="M312.7 93.3C311.8 93.3 311 93 310.3 92.4C309.6 91.8 309.3 91 309.3 90.1C309.3 89.2 309.6 88.5 310.3 87.9C311 87.3 311.8 87 312.7 87C313.6 87 314.4 87.3 315.1 87.9C315.8 88.5 316.1 89.3 316.1 90.2C316.1 91.1 315.8 91.8 315.1 92.4C314.4 93 313.6 93.3 312.7 93.3ZM309.7 121.8V96.9H315.6V121.8H309.7Z" fill="#77809C"/>
<path d="M327.1 107.2V121.8H321.2V96.9001H326.8V101.1H327.1C327.7 99.7001 328.6 98.6001 329.8 97.8001C331.1 97.0001 332.6 96.6001 334.5 96.6001C336.2 96.6001 337.7 97.0001 339 97.7001C340.3 98.4001 341.3 99.5001 342 100.9C342.7 102.3 343.1 104 343 106V121.9H337.1V106.9C337.1 105.2 336.7 103.9 335.8 103C334.9 102.1 333.8 101.6 332.2 101.6C331.2 101.6 330.3 101.8 329.5 102.3C328.7 102.7 328.1 103.4 327.6 104.2C327.1 105 327.1 106 327.1 107.2Z" fill="#77809C"/>
<path d="M359.4 131.6C357.3 131.6 355.5 131.3 354 130.7C352.5 130.1 351.3 129.4 350.4 128.4C349.5 127.4 348.8 126.4 348.5 125.2L353.8 123.9C354 124.4 354.4 124.9 354.8 125.4C355.3 125.9 355.9 126.3 356.6 126.6C357.4 126.9 358.3 127.1 359.5 127.1C361.2 127.1 362.5 126.7 363.6 125.9C364.7 125.1 365.2 123.8 365.2 121.9V117.2H365C364.7 117.8 364.3 118.4 363.7 119.1C363.1 119.7 362.4 120.3 361.4 120.7C360.5 121.1 359.3 121.3 357.8 121.3C355.9 121.3 354.2 120.8 352.6 119.9C351 119 349.8 117.6 348.9 115.8C348 114 347.5 111.7 347.5 109C347.5 106.3 348 104 348.9 102.1C349.8 100.2 351 98.8 352.6 97.8C354.2 96.8 355.9 96.3 357.8 96.3C359.3 96.3 360.5 96.5 361.4 97C362.3 97.5 363.1 98.1 363.7 98.8C364.3 99.5 364.7 100.1 365 100.7H365.3V96.6H371.1V121.9C371.1 124 370.6 125.8 369.6 127.2C368.6 128.6 367.2 129.6 365.4 130.3C363.6 131 361.7 131.6 359.4 131.6ZM359.5 116.8C360.7 116.8 361.8 116.5 362.7 115.9C363.6 115.3 364.2 114.4 364.7 113.3C365.2 112.2 365.4 110.8 365.4 109.2C365.4 107.6 365.2 106.3 364.7 105.1C364.3 103.9 363.6 103 362.7 102.4C361.8 101.8 360.8 101.4 359.5 101.4C358.2 101.4 357.1 101.7 356.2 102.4C355.3 103.1 354.7 104 354.2 105.2C353.8 106.4 353.5 107.7 353.5 109.2C353.5 110.7 353.7 112.1 354.2 113.2C354.6 114.3 355.3 115.2 356.2 115.9C357.1 116.5 358.2 116.8 359.5 116.8Z" fill="#77809C"/>
<path d="M410.1 99.2C409.8 98.3 409.5 97.5 409 96.8C408.5 96.1 408 95.5 407.3 95C406.6 94.5 405.9 94.1 405.1 93.9C404.3 93.7 403.3 93.5 402.3 93.5C400.5 93.5 398.9 93.9 397.5 94.8C396.1 95.7 395 97 394.2 98.8C393.4 100.5 393 102.6 393 105.1C393 107.6 393.4 109.7 394.2 111.5C395 113.2 396.1 114.6 397.5 115.5C398.9 116.4 400.5 116.9 402.4 116.9C404.1 116.9 405.5 116.6 406.8 115.9C408 115.3 409 114.3 409.7 113.1C410.4 111.9 410.7 110.5 410.7 108.9L412.1 109.1H403.1V104.4H416.6V108.4C416.6 111.2 416 113.7 414.8 115.8C413.6 117.9 411.9 119.5 409.8 120.6C407.7 121.7 405.2 122.3 402.5 122.3C399.4 122.3 396.8 121.6 394.4 120.2C392.1 118.8 390.3 116.9 389 114.3C387.7 111.8 387.1 108.7 387.1 105.2C387.1 102.5 387.5 100.1 388.2 98C389 95.9 390 94.1 391.4 92.6C392.8 91.1 394.4 90 396.2 89.2C398 88.4 400.1 88 402.2 88C404 88 405.8 88.3 407.3 88.8C408.9 89.3 410.3 90.1 411.5 91.1C412.7 92.1 413.8 93.3 414.6 94.6C415.4 95.9 415.9 97.4 416.2 99.1H410.1V99.2Z" fill="#77809C"/>
<path d="M421.6 121.8V96.9001H427.3V101.1H427.6C428.1 99.7001 428.8 98.6001 429.9 97.8001C431 97.0001 432.3 96.6001 433.7 96.6001C434 96.6001 434.4 96.6001 434.8 96.6001C435.2 96.6001 435.5 96.7001 435.8 96.7001V102.1C435.6 102 435.2 101.9 434.6 101.9C434 101.9 433.5 101.8 433.1 101.8C432 101.8 431.1 102 430.2 102.5C429.3 103 428.7 103.6 428.2 104.4C427.7 105.2 427.5 106.1 427.5 107.2V121.8H421.6Z" fill="#77809C"/>
<path d="M450.3 122.3C447.8 122.3 445.6 121.8 443.8 120.7C442 119.7 440.6 118.2 439.6 116.3C438.6 114.4 438.1 112.1 438.1 109.5C438.1 106.9 438.6 104.7 439.6 102.7C440.6 100.8 441.9 99.2001 443.7 98.2001C445.5 97.2001 447.5 96.6001 449.9 96.6001C451.4 96.6001 452.9 96.8001 454.3 97.3001C455.7 97.8001 456.9 98.6001 457.9 99.6001C459 100.6 459.8 101.9 460.4 103.5C461 105.1 461.3 107 461.3 109.2V111H441V107H455.8C455.8 105.9 455.5 104.9 455.1 104C454.6 103.1 454 102.4 453.1 101.9C452.3 101.4 451.3 101.1 450.1 101.1C448.9 101.1 447.8 101.4 446.9 102C446 102.6 445.3 103.3 444.8 104.3C444.3 105.3 444 106.3 444 107.4V110.9C444 112.3 444.3 113.6 444.8 114.6C445.3 115.6 446.1 116.4 447 117C448 117.5 449.1 117.8 450.3 117.8C451.2 117.8 451.9 117.7 452.6 117.4C453.3 117.2 453.9 116.8 454.4 116.3C454.9 115.8 455.3 115.2 455.6 114.5L461.1 115.1C460.8 116.5 460.1 117.8 459.1 118.9C458.1 120 456.9 120.8 455.4 121.4C454 122 452.2 122.3 450.3 122.3Z" fill="#77809C"/>
<path d="M476.9 122.3C474.4 122.3 472.2 121.8 470.4 120.7C468.6 119.7 467.2 118.2 466.2 116.3C465.2 114.4 464.7 112.1 464.7 109.5C464.7 106.9 465.2 104.7 466.2 102.7C467.2 100.8 468.5 99.2001 470.3 98.2001C472.1 97.2001 474.1 96.6001 476.5 96.6001C478 96.6001 479.5 96.8001 480.9 97.3001C482.3 97.8001 483.5 98.6001 484.5 99.6001C485.6 100.6 486.4 101.9 487 103.5C487.6 105.1 487.9 107 487.9 109.2V111H467.5V107H482.3C482.3 105.9 482 104.9 481.6 104C481.1 103.1 480.5 102.4 479.6 101.9C478.8 101.4 477.8 101.1 476.6 101.1C475.4 101.1 474.3 101.4 473.4 102C472.5 102.6 471.8 103.3 471.3 104.3C470.8 105.3 470.5 106.3 470.5 107.4V110.9C470.5 112.3 470.8 113.6 471.3 114.6C471.8 115.6 472.6 116.4 473.5 117C474.5 117.5 475.6 117.8 476.8 117.8C477.7 117.8 478.4 117.7 479.1 117.4C479.8 117.2 480.4 116.8 480.9 116.3C481.4 115.8 481.8 115.2 482.1 114.5L487.6 115.1C487.3 116.5 486.6 117.8 485.6 118.9C484.6 120 483.4 120.8 481.9 121.4C480.6 122 478.8 122.3 476.9 122.3Z" fill="#77809C"/>
<path d="M498.4 107.2V121.8H492.5V96.9001H498.1V101.1H498.4C499 99.7001 499.9 98.6001 501.1 97.8001C502.4 97.0001 503.9 96.6001 505.8 96.6001C507.5 96.6001 509 97.0001 510.3 97.7001C511.6 98.4001 512.6 99.5001 513.3 100.9C514 102.3 514.4 104 514.3 106V121.9H508.4V106.9C508.4 105.2 508 103.9 507.1 103C506.2 102.1 505.1 101.6 503.5 101.6C502.5 101.6 501.6 101.8 500.8 102.3C500 102.7 499.4 103.4 498.9 104.2C498.4 105 498.4 106 498.4 107.2Z" fill="#77809C"/>
<path d="M532.5 96.9V101.4H517.8V96.9H532.5ZM521.5 121.8V94.5C521.5 92.8 521.8 91.4 522.5 90.3C523.2 89.2 524.1 88.4 525.3 87.8C526.5 87.2 527.8 87 529.2 87C530.2 87 531.1 87.1 531.9 87.2C532.7 87.4 533.3 87.5 533.7 87.6L532.5 92.1C532.3 92 531.9 91.9 531.6 91.9C531.3 91.9 530.8 91.8 530.3 91.8C529.2 91.8 528.4 92.1 528 92.6C527.6 93.1 527.3 93.9 527.3 94.8V121.7H521.5V121.8Z" fill="#77809C"/>
<path d="M539.6 93.3C538.7 93.3 537.9 93 537.2 92.4C536.5 91.8 536.2 91 536.2 90.1C536.2 89.2 536.5 88.5 537.2 87.9C537.9 87.3 538.7 87 539.6 87C540.5 87 541.3 87.3 542 87.9C542.7 88.5 543 89.3 543 90.2C543 91.1 542.7 91.8 542 92.4C541.4 93 540.6 93.3 539.6 93.3ZM536.7 121.8V96.9H542.6V121.8H536.7Z" fill="#77809C"/>
<path d="M559.1 122.3C556.6 122.3 554.4 121.8 552.6 120.7C550.8 119.7 549.4 118.2 548.4 116.3C547.4 114.4 546.9 112.1 546.9 109.5C546.9 106.9 547.4 104.7 548.4 102.7C549.4 100.8 550.7 99.2001 552.5 98.2001C554.3 97.2001 556.3 96.6001 558.7 96.6001C560.2 96.6001 561.7 96.8001 563.1 97.3001C564.5 97.8001 565.7 98.6001 566.7 99.6001C567.8 100.6 568.6 101.9 569.2 103.5C569.8 105.1 570.1 107 570.1 109.2V111H549.7V107H564.5C564.5 105.9 564.2 104.9 563.8 104C563.3 103.1 562.7 102.4 561.8 101.9C561 101.4 560 101.1 558.8 101.1C557.6 101.1 556.5 101.4 555.6 102C554.7 102.6 554 103.3 553.5 104.3C553 105.3 552.7 106.3 552.7 107.4V110.9C552.7 112.3 553 113.6 553.5 114.6C554 115.6 554.8 116.4 555.7 117C556.7 117.5 557.8 117.8 559 117.8C559.9 117.8 560.6 117.7 561.3 117.4C562 117.2 562.6 116.8 563.1 116.3C563.6 115.8 564 115.2 564.3 114.5L569.8 115.1C569.5 116.5 568.8 117.8 567.8 118.9C566.8 120 565.6 120.8 564.1 121.4C562.8 122 561.1 122.3 559.1 122.3Z" fill="#77809C"/>
<path d="M580.6 88.6001V121.8H574.7V88.6001H580.6Z" fill="#77809C"/>
<path d="M595.4 122.2C593.4 122.2 591.7 121.7 590.1 120.7C588.6 119.7 587.3 118.2 586.4 116.3C585.5 114.4 585.1 112.1 585.1 109.3C585.1 106.5 585.6 104.2 586.5 102.3C587.4 100.4 588.6 98.9001 590.2 98.0001C591.8 97.0001 593.5 96.5001 595.4 96.5001C596.9 96.5001 598.1 96.7001 599 97.2001C599.9 97.7001 600.7 98.3001 601.2 99.0001C601.8 99.7001 602.2 100.3 602.5 100.9H602.7V88.6001H608.6V121.8H602.8V117.9H602.4C602.1 118.5 601.7 119.1 601.1 119.8C600.5 120.5 599.8 121.1 598.8 121.5C598 122 596.9 122.2 595.4 122.2ZM597.1 117.4C598.3 117.4 599.4 117.1 600.3 116.4C601.2 115.7 601.8 114.8 602.3 113.6C602.8 112.4 603 111 603 109.4C603 107.8 602.8 106.4 602.3 105.2C601.8 104 601.2 103.1 600.3 102.4C599.4 101.7 598.4 101.4 597.1 101.4C595.8 101.4 594.7 101.7 593.8 102.4C592.9 103.1 592.3 104 591.8 105.2C591.3 106.4 591.1 107.8 591.1 109.3C591.1 110.9 591.3 112.2 591.8 113.5C592.2 114.7 592.9 115.7 593.8 116.4C594.7 117.1 595.8 117.4 597.1 117.4Z" fill="#77809C"/>
<path d="M625.4 131.1V96.9001H631.2V101H631.5C631.8 100.4 632.2 99.7001 632.8 99.1001C633.4 98.4001 634.1 97.8001 635 97.3001C635.9 96.8001 637.1 96.6001 638.6 96.6001C640.5 96.6001 642.3 97.1001 643.8 98.1001C645.3 99.1001 646.6 100.5 647.5 102.4C648.4 104.3 648.9 106.6 648.9 109.4C648.9 112.1 648.5 114.5 647.6 116.4C646.7 118.3 645.5 119.8 643.9 120.8C642.3 121.8 640.6 122.3 638.6 122.3C637.2 122.3 636 122.1 635 121.6C634.1 121.1 633.3 120.5 632.7 119.9C632.1 119.2 631.7 118.6 631.4 118H631.2V131.3H625.4V131.1ZM631.2 109.3C631.2 110.9 631.4 112.3 631.9 113.5C632.4 114.7 633 115.7 633.9 116.3C634.8 116.9 635.8 117.3 637.1 117.3C638.4 117.3 639.5 117 640.4 116.3C641.3 115.6 641.9 114.6 642.4 113.4C642.8 112.2 643.1 110.8 643.1 109.2C643.1 107.7 642.9 106.3 642.4 105.1C642 103.9 641.3 103 640.4 102.3C639.5 101.6 638.4 101.3 637.1 101.3C635.8 101.3 634.8 101.6 633.9 102.3C633 103 632.4 103.9 631.9 105.1C631.4 106.3 631.2 107.7 631.2 109.3Z" fill="#77809C"/>
<path d="M653.5 121.8V96.9001H659.2V101.1H659.5C660 99.7001 660.7 98.6001 661.8 97.8001C662.9 97.0001 664.2 96.6001 665.6 96.6001C665.9 96.6001 666.3 96.6001 666.7 96.6001C667.1 96.6001 667.4 96.7001 667.7 96.7001V102.1C667.5 102 667.1 101.9 666.5 101.9C665.9 101.9 665.4 101.8 665 101.8C663.9 101.8 663 102 662.1 102.5C661.2 103 660.6 103.6 660.1 104.4C659.6 105.2 659.4 106.1 659.4 107.2V121.8H653.5Z" fill="#77809C"/>
<path d="M682 122.3C679.6 122.3 677.5 121.8 675.7 120.7C673.9 119.6 672.5 118.1 671.6 116.2C670.6 114.3 670.1 112 670.1 109.5C670.1 106.9 670.6 104.7 671.6 102.7C672.6 100.8 674 99.3001 675.7 98.2001C677.5 97.1001 679.6 96.6001 682 96.6001C684.4 96.6001 686.5 97.1001 688.3 98.2001C690.1 99.3001 691.5 100.8 692.4 102.7C693.4 104.6 693.9 106.9 693.9 109.5C693.9 112.1 693.4 114.3 692.4 116.2C691.4 118.1 690 119.6 688.3 120.7C686.5 121.7 684.4 122.3 682 122.3ZM682 117.6C683.3 117.6 684.4 117.2 685.3 116.5C686.2 115.8 686.8 114.8 687.3 113.6C687.7 112.4 688 111 688 109.5C688 108 687.8 106.6 687.3 105.4C686.8 104.2 686.2 103.2 685.3 102.4C684.4 101.7 683.3 101.3 682 101.3C680.6 101.3 679.5 101.7 678.6 102.4C677.7 103.1 677 104.1 676.6 105.4C676.2 106.7 675.9 108 675.9 109.5C675.9 111 676.1 112.4 676.6 113.6C677 114.8 677.7 115.8 678.6 116.5C679.6 117.2 680.7 117.6 682 117.6Z" fill="#77809C"/>
<path d="M698.5 96.9H704.4V123.2C704.4 125 704.1 126.5 703.4 127.6C702.7 128.8 701.7 129.6 700.4 130.2C699.1 130.8 697.6 131.1 695.7 131.1C695.5 131.1 695.3 131.1 695.1 131.1C694.9 131.1 694.7 131.1 694.5 131.1V126.3C694.7 126.3 694.8 126.3 694.9 126.3C695 126.3 695.2 126.3 695.3 126.3C696.4 126.3 697.2 126 697.7 125.5C698.2 125 698.4 124.2 698.4 123.1V96.9H698.5ZM701.4 93.3C700.5 93.3 699.7 93 699 92.4C698.3 91.8 698 91 698 90.2C698 89.3 698.3 88.6 699 87.9C699.7 87.2 700.5 87 701.4 87C702.3 87 703.1 87.3 703.8 87.9C704.5 88.5 704.8 89.3 704.8 90.2C704.8 91.1 704.5 91.8 703.8 92.4C703.1 93 702.3 93.3 701.4 93.3Z" fill="#77809C"/>
<path d="M720.9 122.3C718.4 122.3 716.2 121.8 714.4 120.7C712.6 119.7 711.2 118.2 710.2 116.3C709.2 114.4 708.7 112.1 708.7 109.5C708.7 106.9 709.2 104.7 710.2 102.7C711.2 100.8 712.5 99.2001 714.3 98.2001C716.1 97.2001 718.1 96.6001 720.5 96.6001C722 96.6001 723.5 96.8001 724.9 97.3001C726.3 97.8001 727.5 98.6001 728.5 99.6001C729.6 100.6 730.4 101.9 731 103.5C731.6 105.1 731.9 107 731.9 109.2V111H711.5V107H726.3C726.3 105.9 726 104.9 725.6 104C725.1 103.1 724.5 102.4 723.6 101.9C722.8 101.4 721.8 101.1 720.6 101.1C719.4 101.1 718.3 101.4 717.4 102C716.5 102.6 715.8 103.3 715.3 104.3C714.8 105.3 714.5 106.3 714.5 107.4V110.9C714.5 112.3 714.8 113.6 715.3 114.6C715.8 115.6 716.6 116.4 717.5 117C718.5 117.5 719.6 117.8 720.8 117.8C721.7 117.8 722.4 117.7 723.1 117.4C723.8 117.2 724.4 116.8 724.9 116.3C725.4 115.8 725.8 115.2 726.1 114.5L731.6 115.1C731.3 116.5 730.6 117.8 729.6 118.9C728.6 120 727.4 120.8 725.9 121.4C724.6 122 722.9 122.3 720.9 122.3Z" fill="#77809C"/>
<path d="M747.4 122.3C744.9 122.3 742.8 121.8 741 120.7C739.2 119.6 737.9 118.1 736.9 116.2C735.9 114.3 735.5 112 735.5 109.5C735.5 107 736 104.7 737 102.8C738 100.9 739.3 99.3 741.1 98.3C742.9 97.3 745 96.7 747.4 96.7C749.4 96.7 751.2 97.1 752.8 97.8C754.4 98.5 755.6 99.6 756.5 100.9C757.4 102.2 758 103.8 758.1 105.6H752.5C752.3 104.4 751.7 103.4 750.9 102.6C750.1 101.8 748.9 101.4 747.5 101.4C746.3 101.4 745.2 101.7 744.3 102.4C743.4 103 742.7 104 742.2 105.2C741.7 106.4 741.4 107.8 741.4 109.5C741.4 111.2 741.6 112.7 742.1 113.9C742.6 115.1 743.3 116.1 744.2 116.7C745.1 117.3 746.2 117.7 747.4 117.7C748.3 117.7 749 117.5 749.7 117.2C750.4 116.9 751 116.4 751.4 115.8C751.9 115.2 752.2 114.4 752.4 113.5H758C757.9 115.3 757.3 116.8 756.4 118.2C755.5 119.6 754.3 120.6 752.7 121.4C751.3 121.9 749.5 122.3 747.4 122.3Z" fill="#77809C"/>
<path d="M774.9 96.8999V101.4H760.6V96.8999H774.9ZM764.1 90.8999H770V114.3C770 115.1 770.1 115.7 770.4 116.1C770.6 116.5 771 116.8 771.4 117C771.8 117.2 772.2 117.2 772.7 117.2C773.1 117.2 773.4 117.2 773.7 117.1C774 117 774.2 117 774.4 117L775.4 121.6C775.1 121.7 774.6 121.8 774.1 122C773.5 122.1 772.8 122.2 772 122.2C770.5 122.2 769.2 122 768 121.5C766.8 121 765.9 120.2 765.2 119.2C764.5 118.2 764.2 116.9 764.2 115.3V90.8999H764.1Z" fill="#77809C"/>
<path d="M799 103.5L793.6 104.1C793.4 103.6 793.2 103.1 792.8 102.6C792.4 102.1 791.9 101.7 791.3 101.4C790.7 101.1 789.9 101 789 101C787.8 101 786.8 101.3 785.9 101.8C785.1 102.3 784.7 103 784.7 103.9C784.7 104.6 785 105.2 785.5 105.7C786 106.2 787 106.5 788.2 106.8L792.4 107.7C794.8 108.2 796.5 109 797.7 110.1C798.9 111.2 799.4 112.6 799.4 114.4C799.4 116 798.9 117.4 798 118.5C797.1 119.7 795.8 120.6 794.2 121.3C792.6 122 790.8 122.3 788.7 122.3C785.7 122.3 783.2 121.7 781.3 120.4C779.4 119.1 778.3 117.3 778 115L783.7 114.4C784 115.5 784.5 116.4 785.4 116.9C786.3 117.4 787.3 117.8 788.7 117.8C790.1 117.8 791.2 117.5 792.1 116.9C792.9 116.3 793.4 115.6 793.4 114.8C793.4 114.1 793.1 113.5 792.6 113C792.1 112.5 791.2 112.2 790.1 111.9L785.8 111C783.4 110.5 781.6 109.7 780.5 108.5C779.4 107.3 778.8 105.8 778.8 104C778.8 102.5 779.2 101.1 780.1 100C781 98.9 782.1 98 783.7 97.4C785.2 96.8 787 96.5 789 96.5C791.9 96.5 794.2 97.1 795.9 98.4C797.6 99.7 798.6 101.3 799 103.5Z" fill="#77809C"/>
<path d="M820 121.8L813 96.8999H819L823.4 114.4H823.6L828.1 96.8999H834L838.5 114.3H838.7L843 96.8999H849L841.9 121.8H835.8L831.1 105H830.8L826.1 121.8H820Z" fill="#77809C"/>
<path d="M863.7 122.3C861.2 122.3 859 121.8 857.2 120.7C855.4 119.7 854 118.2 853 116.3C852 114.4 851.5 112.1 851.5 109.5C851.5 106.9 852 104.7 853 102.7C854 100.8 855.3 99.2001 857.1 98.2001C858.9 97.2001 860.9 96.6001 863.3 96.6001C864.8 96.6001 866.3 96.8001 867.7 97.3001C869.1 97.8001 870.3 98.6001 871.3 99.6001C872.4 100.6 873.2 101.9 873.8 103.5C874.4 105.1 874.7 107 874.7 109.2V111H854.3V107H869.1C869.1 105.9 868.8 104.9 868.4 104C867.9 103.1 867.3 102.4 866.4 101.9C865.6 101.4 864.6 101.1 863.4 101.1C862.2 101.1 861.1 101.4 860.2 102C859.3 102.6 858.6 103.3 858.1 104.3C857.6 105.3 857.3 106.3 857.3 107.4V110.9C857.3 112.3 857.6 113.6 858.1 114.6C858.6 115.6 859.4 116.4 860.3 117C861.3 117.5 862.4 117.8 863.6 117.8C864.5 117.8 865.2 117.7 865.9 117.4C866.6 117.2 867.2 116.8 867.7 116.3C868.2 115.8 868.6 115.2 868.9 114.5L874.4 115.1C874.1 116.5 873.4 117.8 872.4 118.9C871.4 120 870.2 120.8 868.7 121.4C867.3 122 865.6 122.3 863.7 122.3Z" fill="#77809C"/>
<path d="M879.2 121.8V96.9001H884.9V101.1H885.2C885.7 99.7001 886.4 98.6001 887.5 97.8001C888.6 97.0001 889.9 96.6001 891.3 96.6001C891.6 96.6001 892 96.6001 892.4 96.6001C892.8 96.6001 893.1 96.7001 893.4 96.7001V102.1C893.2 102 892.8 101.9 892.2 101.9C891.6 101.9 891.1 101.8 890.7 101.8C889.6 101.8 888.7 102 887.8 102.5C886.9 103 886.3 103.6 885.8 104.4C885.3 105.2 885.1 106.1 885.1 107.2V121.8H879.2Z" fill="#77809C"/>
<path d="M907.9 122.3C905.4 122.3 903.2 121.8 901.4 120.7C899.6 119.7 898.2 118.2 897.2 116.3C896.2 114.4 895.7 112.1 895.7 109.5C895.7 106.9 896.2 104.7 897.2 102.7C898.2 100.8 899.5 99.2001 901.3 98.2001C903.1 97.2001 905.1 96.6001 907.5 96.6001C909 96.6001 910.5 96.8001 911.9 97.3001C913.3 97.8001 914.5 98.6001 915.5 99.6001C916.6 100.6 917.4 101.9 918 103.5C918.6 105.1 918.9 107 918.9 109.2V111H898.5V107H913.3C913.3 105.9 913 104.9 912.6 104C912.1 103.1 911.5 102.4 910.6 101.9C909.8 101.4 908.8 101.1 907.6 101.1C906.4 101.1 905.3 101.4 904.4 102C903.5 102.6 902.8 103.3 902.3 104.3C901.8 105.3 901.5 106.3 901.5 107.4V110.9C901.5 112.3 901.8 113.6 902.3 114.6C902.8 115.6 903.6 116.4 904.5 117C905.5 117.5 906.6 117.8 907.8 117.8C908.7 117.8 909.4 117.7 910.1 117.4C910.8 117.2 911.4 116.8 911.9 116.3C912.4 115.8 912.8 115.2 913.1 114.5L918.6 115.1C918.3 116.5 917.6 117.8 916.6 118.9C915.6 120 914.4 120.8 912.9 121.4C911.6 122 909.9 122.3 907.9 122.3Z" fill="#77809C"/>
<path d="M956.7 96.8999L947.8 121.8H941.3L932.4 96.8999H938.7L944.4 115.4H944.7L950.4 96.8999H956.7Z" fill="#77809C"/>
<path d="M967.4 122.3C965.8 122.3 964.4 122 963.1 121.4C961.8 120.8 960.8 120 960.1 118.9C959.4 117.8 959 116.4 959 114.8C959 113.4 959.3 112.2 959.8 111.3C960.3 110.4 961 109.6 961.9 109.1C962.8 108.5 963.8 108.1 964.9 107.8C966 107.5 967.2 107.3 968.4 107.2C969.9 107 971 106.9 972 106.8C972.9 106.7 973.6 106.5 974 106.2C974.4 105.9 974.6 105.5 974.6 105V104.9C974.6 103.7 974.2 102.7 973.5 102.1C972.8 101.4 971.7 101.1 970.4 101.1C969 101.1 967.8 101.4 967 102C966.2 102.6 965.6 103.4 965.3 104.2L959.8 103.4C960.2 101.9 960.9 100.6 961.9 99.6C962.9 98.6 964.1 97.8 965.5 97.3C966.9 96.8 968.5 96.5 970.3 96.5C971.5 96.5 972.7 96.6 973.9 96.9C975.1 97.2 976.2 97.6 977.2 98.3C978.2 98.9 979 99.8 979.6 100.9C980.2 102 980.5 103.4 980.5 105V121.7H974.9V118.3H974.7C974.3 119 973.8 119.6 973.2 120.2C972.6 120.8 971.8 121.3 970.8 121.6C969.9 122.1 968.7 122.3 967.4 122.3ZM969 118C970.2 118 971.2 117.8 972.1 117.3C973 116.8 973.6 116.2 974.1 115.4C974.6 114.6 974.8 113.8 974.8 112.9V110C974.6 110.2 974.3 110.3 973.9 110.4C973.5 110.5 973 110.6 972.4 110.7C971.9 110.8 971.3 110.9 970.8 111C970.3 111.1 969.8 111.1 969.4 111.2C968.5 111.3 967.7 111.5 967 111.8C966.3 112.1 965.8 112.4 965.4 112.9C965 113.4 964.8 114 964.8 114.8C964.8 115.9 965.2 116.7 966 117.2C966.7 117.7 967.7 118 969 118Z" fill="#77809C"/>
<path d="M991.9 88.6001V121.8H986V88.6001H991.9Z" fill="#77809C"/>
<path d="M1013.4 111.3V96.8999H1019.3V121.8H1013.6V117.4H1013.3C1012.7 118.8 1011.8 119.9 1010.5 120.8C1009.2 121.7 1007.6 122.1 1005.8 122.1C1004.2 122.1 1002.7 121.7 1001.5 121C1000.3 120.3 999.3 119.2 998.6 117.8C997.9 116.4 997.5 114.7 997.5 112.7V96.8999H1003.4V111.9C1003.4 113.5 1003.8 114.7 1004.7 115.7C1005.6 116.6 1006.7 117.1 1008.1 117.1C1009 117.1 1009.8 116.9 1010.6 116.5C1011.4 116.1 1012.1 115.4 1012.6 114.6C1013.1 113.6 1013.4 112.6 1013.4 111.3Z" fill="#77809C"/>
<path d="M1035.9 122.3C1033.4 122.3 1031.2 121.8 1029.4 120.7C1027.6 119.7 1026.2 118.2 1025.2 116.3C1024.2 114.4 1023.7 112.1 1023.7 109.5C1023.7 106.9 1024.2 104.7 1025.2 102.7C1026.2 100.8 1027.5 99.2001 1029.3 98.2001C1031.1 97.2001 1033.1 96.6001 1035.5 96.6001C1037 96.6001 1038.5 96.8001 1039.9 97.3001C1041.3 97.8001 1042.5 98.6001 1043.5 99.6001C1044.6 100.6 1045.4 101.9 1046 103.5C1046.6 105.1 1046.9 107 1046.9 109.2V111H1026.5V107H1041.3C1041.3 105.9 1041 104.9 1040.6 104C1040.1 103.1 1039.5 102.4 1038.6 101.9C1037.8 101.4 1036.8 101.1 1035.6 101.1C1034.4 101.1 1033.3 101.4 1032.4 102C1031.5 102.6 1030.8 103.3 1030.3 104.3C1029.8 105.3 1029.5 106.3 1029.5 107.4V110.9C1029.5 112.3 1029.8 113.6 1030.3 114.6C1030.8 115.6 1031.6 116.4 1032.5 117C1033.5 117.5 1034.6 117.8 1035.8 117.8C1036.7 117.8 1037.4 117.7 1038.1 117.4C1038.8 117.2 1039.4 116.8 1039.9 116.3C1040.4 115.8 1040.8 115.2 1041.1 114.5L1046.6 115.1C1046.3 116.5 1045.6 117.8 1044.6 118.9C1043.6 120 1042.4 120.8 1040.9 121.4C1039.4 122 1037.8 122.3 1035.9 122.3Z" fill="#77809C"/>
<path d="M1060.7 122.2C1058.7 122.2 1057 121.7 1055.4 120.7C1053.9 119.7 1052.6 118.2 1051.7 116.3C1050.8 114.4 1050.4 112.1 1050.4 109.3C1050.4 106.5 1050.9 104.2 1051.8 102.3C1052.7 100.4 1053.9 98.9001 1055.5 98.0001C1057.1 97.0001 1058.8 96.5001 1060.7 96.5001C1062.2 96.5001 1063.4 96.7001 1064.3 97.2001C1065.2 97.7001 1066 98.3001 1066.5 99.0001C1067.1 99.7001 1067.5 100.3 1067.8 100.9H1068V88.6001H1073.9V121.8H1068.1V117.9H1067.7C1067.4 118.5 1067 119.1 1066.4 119.8C1065.8 120.5 1065.1 121.1 1064.1 121.5C1063.3 122 1062.1 122.2 1060.7 122.2ZM1062.3 117.4C1063.5 117.4 1064.6 117.1 1065.5 116.4C1066.4 115.7 1067 114.8 1067.5 113.6C1068 112.4 1068.2 111 1068.2 109.4C1068.2 107.8 1068 106.4 1067.5 105.2C1067.1 104 1066.4 103.1 1065.5 102.4C1064.6 101.7 1063.6 101.4 1062.3 101.4C1061 101.4 1059.9 101.7 1059 102.4C1058.1 103.1 1057.5 104 1057 105.2C1056.6 106.4 1056.3 107.8 1056.3 109.3C1056.3 110.9 1056.5 112.2 1057 113.5C1057.4 114.7 1058.1 115.7 1059 116.4C1060 117.1 1061 117.4 1062.3 117.4Z" fill="#77809C"/>
<path d="M65.0999 177.1C63.4999 177.1 62.0999 176.8 60.7999 176.2C59.4999 175.6 58.4999 174.8 57.7999 173.7C57.0999 172.6 56.7 171.2 56.7 169.6C56.7 168.2 57 167 57.5 166.1C58 165.2 58.6999 164.4 59.5999 163.9C60.4999 163.3 61.4999 162.9 62.5999 162.6C63.6999 162.3 64.8999 162.1 66.0999 162C67.5999 161.8 68.6999 161.7 69.6999 161.6C70.6999 161.5 71.2999 161.3 71.6999 161C72.0999 160.7 72.3 160.3 72.3 159.8V159.7C72.3 158.5 71.8999 157.5 71.1999 156.9C70.4999 156.2 69.3999 155.9 68.0999 155.9C66.6999 155.9 65.4999 156.2 64.6999 156.8C63.8999 157.4 63.3 158.2 63 159L57.5 158.2C57.9 156.7 58.5999 155.4 59.5999 154.4C60.5999 153.4 61.8 152.6 63.2 152.1C64.6 151.6 66.2 151.3 68 151.3C69.2 151.3 70.3999 151.4 71.5999 151.7C72.7999 152 73.9 152.4 74.9 153.1C75.9 153.8 76.7 154.6 77.3 155.7C77.9 156.8 78.1999 158.2 78.1999 159.8V176.5H72.5999V173.1H72.4C72 173.8 71.5 174.4 70.9 175C70.3 175.6 69.5 176.1 68.5 176.4C67.5 176.9 66.3999 177.1 65.0999 177.1ZM66.5999 172.8C67.7999 172.8 68.7999 172.6 69.6999 172.1C70.5999 171.6 71.1999 171 71.6999 170.2C72.1999 169.4 72.4 168.6 72.4 167.7V164.8C72.2 165 71.9 165.1 71.5 165.2C71.1 165.3 70.6 165.4 70 165.5C69.5 165.6 68.9 165.7 68.4 165.8C67.9 165.9 67.4 165.9 67 166C66.1 166.1 65.2999 166.3 64.5999 166.6C63.8999 166.9 63.4 167.2 63 167.7C62.6 168.2 62.4 168.8 62.4 169.6C62.4 170.7 62.7999 171.5 63.5999 172C64.3999 172.5 65.3999 172.8 66.5999 172.8Z" fill="#77809C"/>
<path d="M96.1 151.7V156.2H81.8V151.7H96.1ZM85.4 145.7H91.3V169.1C91.3 169.9 91.4 170.5 91.7 170.9C91.9 171.3 92.3 171.6 92.7 171.8C93.1 172 93.5 172 94 172C94.4 172 94.7 172 95 171.9C95.3 171.8 95.5 171.8 95.7 171.8L96.7 176.4C96.4 176.5 95.9 176.6 95.4 176.8C94.8 176.9 94.1 177 93.3 177C91.8 177 90.5 176.8 89.3 176.3C88.1 175.8 87.2 175 86.5 174C85.8 173 85.5 171.7 85.5 170.1V145.7H85.4Z" fill="#77809C"/>
<path d="M129.8 152.5C129.6 151.1 129 150 127.9 149.2C126.8 148.4 125.3 148 123.5 148C122.2 148 121.2 148.2 120.3 148.6C119.4 149 118.7 149.5 118.2 150.1C117.7 150.7 117.5 151.5 117.5 152.3C117.5 153 117.7 153.6 118 154.1C118.3 154.6 118.8 155 119.3 155.4C119.9 155.8 120.5 156 121.1 156.3C121.8 156.5 122.4 156.7 123.1 156.9L126.2 157.7C127.5 158 128.7 158.4 129.8 158.9C130.9 159.4 132 160 132.9 160.8C133.8 161.6 134.6 162.5 135.1 163.5C135.6 164.6 135.9 165.8 135.9 167.3C135.9 169.2 135.4 171 134.4 172.4C133.4 173.9 132 175 130.1 175.9C128.2 176.7 126 177.1 123.3 177.1C120.7 177.1 118.5 176.7 116.6 175.9C114.7 175.1 113.2 173.9 112.2 172.4C111.1 170.9 110.6 169 110.5 166.8H116.4C116.5 168 116.8 168.9 117.5 169.7C118.1 170.5 118.9 171 120 171.4C121.1 171.8 122.1 172 123.4 172C124.7 172 125.9 171.8 126.8 171.4C127.8 171 128.6 170.5 129.1 169.7C129.7 169 129.9 168.2 130 167.2C130 166.3 129.7 165.6 129.2 165.1C128.7 164.6 128 164.1 127.1 163.7C126.2 163.3 125.2 163 124 162.7L120.2 161.7C117.5 161 115.3 159.9 113.7 158.5C112.1 157.1 111.3 155.2 111.3 152.8C111.3 150.8 111.8 149.1 112.9 147.7C114 146.2 115.4 145.1 117.3 144.3C119.1 143.5 121.2 143.1 123.5 143.1C125.9 143.1 127.9 143.5 129.7 144.3C131.5 145.1 132.9 146.2 133.9 147.7C134.9 149.1 135.4 150.8 135.5 152.7H129.8V152.5ZM122.1 180.8V139.3H124.8V180.8H122.1Z" fill="#242438"/>
<path d="M152.8 177.1C151.2 177.1 149.7 176.8 148.1 176.3C146.6 175.8 145.2 174.9 144 173.6C142.8 172.4 141.8 170.7 141.1 168.7C140.4 166.6 140 164.1 140 161C140 158.2 140.3 155.6 140.9 153.4C141.5 151.2 142.4 149.3 143.5 147.7C144.6 146.2 146 145 147.6 144.2C149.2 143.4 151 143 153 143C155.1 143 156.9 143.4 158.6 144.2C160.2 145 161.5 146.1 162.5 147.6C163.5 149 164.1 150.6 164.3 152.4H158.4C158.1 151.1 157.5 150.1 156.5 149.3C155.5 148.5 154.4 148.2 153 148.2C150.7 148.2 148.9 149.2 147.7 151.2C146.5 153.2 145.8 155.9 145.8 159.4H146C146.5 158.4 147.2 157.6 148.1 157C148.9 156.3 149.9 155.8 151 155.4C152.1 155 153.2 154.8 154.4 154.8C156.3 154.8 158.1 155.3 159.6 156.2C161.2 157.1 162.4 158.4 163.3 160C164.2 161.6 164.7 163.5 164.6 165.6C164.6 167.8 164.1 169.7 163.1 171.5C162.1 173.2 160.7 174.6 158.9 175.6C157.3 176.6 155.2 177.1 152.8 177.1ZM152.7 172.2C153.9 172.2 154.9 171.9 155.9 171.3C156.8 170.7 157.6 170 158.1 169C158.6 168 158.9 166.9 158.9 165.7C158.9 164.5 158.7 163.4 158.1 162.5C157.6 161.5 156.9 160.8 155.9 160.2C154.9 159.6 153.9 159.4 152.8 159.4C151.9 159.4 151.1 159.6 150.4 159.9C149.6 160.2 149 160.7 148.4 161.3C147.8 161.9 147.4 162.6 147.1 163.3C146.8 164.1 146.6 164.9 146.6 165.8C146.6 167 146.9 168 147.4 169C147.9 170 148.7 170.8 149.6 171.3C150.5 171.9 151.6 172.2 152.7 172.2Z" fill="#242438"/>
<path d="M183.3 143.4V176.6H177.3V149.2H177.1L169.3 154.2V148.7L177.6 143.4H183.3Z" fill="#242438"/>
<path d="M204.8 143.4V176.6H198.8V149.2H198.6L190.8 154.2V148.7L199.1 143.4H204.8Z" fill="#242438"/>
<path d="M213.1 176.6V143.4H225.8C228.2 143.4 230.2 143.8 231.8 144.5C233.4 145.3 234.6 146.3 235.4 147.6C236.2 148.9 236.6 150.4 236.6 152C236.6 153.4 236.3 154.5 235.8 155.5C235.3 156.5 234.6 157.2 233.7 157.8C232.8 158.4 231.8 158.8 230.8 159.1V159.4C232 159.5 233.1 159.8 234.2 160.5C235.3 161.2 236.2 162.1 236.9 163.3C237.6 164.5 237.9 165.9 237.9 167.6C237.9 169.3 237.5 170.9 236.7 172.2C235.9 173.6 234.6 174.6 232.9 175.4C231.2 176.2 229.1 176.6 226.6 176.6H213.1ZM219.1 157.5H225.1C226.1 157.5 227.1 157.3 227.9 156.9C228.7 156.5 229.4 156 229.9 155.3C230.4 154.6 230.6 153.8 230.6 152.8C230.6 151.5 230.1 150.5 229.2 149.6C228.3 148.8 227 148.4 225.2 148.4H219.1V157.5ZM219.1 171.6H225.6C227.8 171.6 229.4 171.2 230.3 170.3C231.3 169.5 231.8 168.4 231.8 167.1C231.8 166.1 231.6 165.2 231.1 164.4C230.6 163.6 229.9 163 229 162.5C228.1 162 227 161.8 225.8 161.8H219.2V171.6H219.1Z" fill="#242438"/>
<path d="M260.5 177.1C258.9 177.1 257.5 176.8 256.2 176.2C254.9 175.6 253.9 174.8 253.2 173.7C252.5 172.6 252.1 171.2 252.1 169.6C252.1 168.2 252.4 167 252.9 166.1C253.4 165.2 254.1 164.4 255 163.9C255.9 163.3 256.9 162.9 258 162.6C259.1 162.3 260.3 162.1 261.5 162C263 161.8 264.1 161.7 265.1 161.6C266.1 161.5 266.7 161.3 267.1 161C267.5 160.7 267.7 160.3 267.7 159.8V159.7C267.7 158.5 267.3 157.5 266.6 156.9C265.9 156.2 264.8 155.9 263.5 155.9C262.1 155.9 260.9 156.2 260.1 156.8C259.3 157.4 258.7 158.2 258.4 159L252.9 158.2C253.3 156.7 254 155.4 255 154.4C256 153.4 257.2 152.6 258.6 152.1C260 151.6 261.6 151.3 263.4 151.3C264.6 151.3 265.8 151.4 267 151.7C268.2 152 269.3 152.4 270.3 153.1C271.3 153.8 272.1 154.6 272.7 155.7C273.3 156.8 273.6 158.2 273.6 159.8V176.5H268V173.1H267.8C267.4 173.8 266.9 174.4 266.3 175C265.7 175.6 264.9 176.1 263.9 176.4C262.9 176.9 261.8 177.1 260.5 177.1ZM262 172.8C263.2 172.8 264.2 172.6 265.1 172.1C266 171.6 266.6 171 267.1 170.2C267.6 169.4 267.8 168.6 267.8 167.7V164.8C267.6 165 267.3 165.1 266.9 165.2C266.5 165.3 266 165.4 265.4 165.5C264.9 165.6 264.3 165.7 263.8 165.8C263.3 165.9 262.8 165.9 262.4 166C261.5 166.1 260.7 166.3 260 166.6C259.3 166.9 258.8 167.2 258.4 167.7C258 168.2 257.8 168.8 257.8 169.6C257.8 170.7 258.2 171.5 259 172C259.8 172.5 260.8 172.8 262 172.8Z" fill="#77809C"/>
<path d="M289.9 177.1C287.4 177.1 285.3 176.6 283.5 175.5C281.7 174.4 280.4 172.9 279.4 171C278.4 169.1 278 166.8 278 164.3C278 161.8 278.5 159.5 279.5 157.6C280.5 155.7 281.8 154.1 283.6 153.1C285.4 152.1 287.5 151.5 289.9 151.5C291.9 151.5 293.7 151.9 295.3 152.6C296.9 153.3 298.1 154.4 299 155.7C299.9 157 300.5 158.6 300.6 160.4H295C294.8 159.2 294.2 158.2 293.4 157.4C292.6 156.6 291.4 156.2 290 156.2C288.8 156.2 287.7 156.5 286.8 157.2C285.9 157.8 285.2 158.8 284.7 160C284.2 161.2 283.9 162.6 283.9 164.3C283.9 166 284.1 167.5 284.6 168.7C285.1 169.9 285.8 170.9 286.7 171.5C287.6 172.1 288.7 172.5 289.9 172.5C290.8 172.5 291.5 172.3 292.2 172C292.9 171.7 293.5 171.2 293.9 170.6C294.4 170 294.7 169.2 294.9 168.3H300.5C300.4 170.1 299.8 171.6 298.9 173C298 174.4 296.8 175.4 295.2 176.2C293.9 176.7 292 177.1 289.9 177.1Z" fill="#77809C"/>
<path d="M305 176.6V151.7H310.7V155.9H311C311.5 154.5 312.2 153.4 313.3 152.6C314.4 151.8 315.7 151.4 317.1 151.4C317.4 151.4 317.8 151.4 318.2 151.4C318.6 151.4 318.9 151.5 319.2 151.5V156.9C319 156.8 318.6 156.7 318 156.7C317.4 156.7 316.9 156.6 316.5 156.6C315.4 156.6 314.5 156.8 313.6 157.3C312.7 157.8 312.1 158.4 311.6 159.2C311.1 160 310.9 160.9 310.9 162V176.6H305Z" fill="#77809C"/>
<path d="M333.5 177.1C331.1 177.1 329 176.6 327.2 175.5C325.4 174.4 324 172.9 323.1 171C322.1 169.1 321.6 166.8 321.6 164.3C321.6 161.7 322.1 159.5 323.1 157.5C324.1 155.6 325.5 154.1 327.2 153C329 151.9 331.1 151.4 333.5 151.4C335.9 151.4 338 151.9 339.8 153C341.6 154.1 343 155.6 343.9 157.5C344.9 159.4 345.4 161.7 345.4 164.3C345.4 166.9 344.9 169.1 343.9 171C342.9 172.9 341.5 174.4 339.8 175.5C338.1 176.6 336 177.1 333.5 177.1ZM333.6 172.4C334.9 172.4 336 172 336.9 171.3C337.8 170.6 338.4 169.6 338.9 168.4C339.3 167.2 339.6 165.8 339.6 164.3C339.6 162.8 339.4 161.4 338.9 160.2C338.4 159 337.8 158 336.9 157.2C336 156.5 334.9 156.1 333.6 156.1C332.2 156.1 331.1 156.5 330.2 157.2C329.3 157.9 328.6 158.9 328.2 160.2C327.8 161.5 327.5 162.8 327.5 164.3C327.5 165.8 327.7 167.2 328.2 168.4C328.6 169.6 329.3 170.6 330.2 171.3C331.1 172 332.2 172.4 333.6 172.4Z" fill="#77809C"/>
<path d="M369.7 158.3L364.3 158.9C364.1 158.4 363.9 157.9 363.5 157.4C363.1 156.9 362.6 156.5 362 156.2C361.4 155.9 360.6 155.8 359.7 155.8C358.5 155.8 357.5 156.1 356.6 156.6C355.8 157.1 355.4 157.8 355.4 158.7C355.4 159.4 355.7 160 356.2 160.5C356.7 161 357.7 161.3 358.9 161.6L363.1 162.5C365.5 163 367.2 163.8 368.4 164.9C369.6 166 370.1 167.4 370.1 169.2C370.1 170.8 369.6 172.2 368.7 173.3C367.8 174.5 366.5 175.4 364.9 176.1C363.3 176.8 361.5 177.1 359.4 177.1C356.4 177.1 353.9 176.5 352 175.2C350.1 173.9 349 172.1 348.7 169.8L354.4 169.2C354.7 170.3 355.2 171.2 356.1 171.7C357 172.2 358 172.6 359.4 172.6C360.8 172.6 361.9 172.3 362.8 171.7C363.6 171.1 364.1 170.4 364.1 169.6C364.1 168.9 363.8 168.3 363.3 167.8C362.8 167.3 361.9 167 360.8 166.7L356.5 165.8C354.1 165.3 352.3 164.5 351.2 163.3C350.1 162.1 349.5 160.6 349.5 158.8C349.5 157.3 349.9 155.9 350.8 154.8C351.7 153.7 352.8 152.8 354.4 152.2C355.9 151.6 357.7 151.3 359.7 151.3C362.6 151.3 364.9 151.9 366.6 153.2C368.2 154.5 369.3 156.1 369.7 158.3Z" fill="#77809C"/>
<path d="M394.3 158.3L388.9 158.9C388.7 158.4 388.5 157.9 388.1 157.4C387.7 156.9 387.2 156.5 386.6 156.2C386 155.9 385.2 155.8 384.3 155.8C383.1 155.8 382.1 156.1 381.2 156.6C380.4 157.1 380 157.8 380 158.7C380 159.4 380.3 160 380.8 160.5C381.3 161 382.3 161.3 383.5 161.6L387.7 162.5C390.1 163 391.8 163.8 393 164.9C394.2 166 394.7 167.4 394.7 169.2C394.7 170.8 394.2 172.2 393.3 173.3C392.4 174.5 391.1 175.4 389.5 176.1C387.9 176.8 386.1 177.1 384 177.1C381 177.1 378.5 176.5 376.6 175.2C374.7 173.9 373.6 172.1 373.3 169.8L379 169.2C379.3 170.3 379.8 171.2 380.7 171.7C381.6 172.2 382.6 172.6 384 172.6C385.4 172.6 386.5 172.3 387.4 171.7C388.2 171.1 388.7 170.4 388.7 169.6C388.7 168.9 388.4 168.3 387.9 167.8C387.4 167.3 386.5 167 385.4 166.7L381.1 165.8C378.7 165.3 376.9 164.5 375.8 163.3C374.7 162.1 374.1 160.6 374.1 158.8C374.1 157.3 374.5 155.9 375.4 154.8C376.3 153.7 377.4 152.8 379 152.2C380.5 151.6 382.3 151.3 384.3 151.3C387.2 151.3 389.5 151.9 391.2 153.2C392.8 154.5 393.9 156.1 394.3 158.3Z" fill="#77809C"/>
<path d="M411.2 176.6L425.3 148.6V148.4H409V143.4H431.6V148.5L417.5 176.6H411.2Z" fill="#242438"/>
<path d="M443.3 172.1L443.1 173.9C442.9 175.3 442.7 176.7 442.3 178.1C441.9 179.5 441.5 180.8 441.1 182C440.7 183.2 440.3 184.1 440.1 184.8H436.1C436.3 184.1 436.5 183.2 436.7 182.1C436.9 181 437.2 179.7 437.5 178.3C437.7 176.9 437.9 175.4 438 174L438.1 172.2H443.3V172.1Z" fill="#242438"/>
<path d="M461 177.1C458.8 177.1 456.9 176.7 455.2 175.9C453.5 175.1 452.1 174 451.1 172.5C450.1 171.1 449.6 169.4 449.5 167.6H455.3C455.4 169 456 170.1 457.1 170.9C458.2 171.8 459.5 172.2 461 172.2C462.2 172.2 463.2 171.9 464.1 171.4C465 170.9 465.7 170.1 466.3 169.1C466.8 168.1 467.1 167 467.1 165.8C467.1 164.5 466.8 163.4 466.3 162.5C465.8 161.5 465 160.8 464.1 160.2C463.2 159.6 462.1 159.4 460.9 159.4C459.9 159.4 458.9 159.6 458 160C457 160.4 456.3 160.9 455.7 161.5L450.3 160.6L452 143.5H471.3V148.5H457L456 157.3H456.2C456.8 156.6 457.7 156 458.8 155.5C459.9 155 461.2 154.8 462.5 154.8C464.5 154.8 466.3 155.3 467.9 156.2C469.5 157.1 470.7 158.4 471.6 160.1C472.5 161.8 473 163.6 473 165.8C473 168 472.5 170 471.5 171.7C470.5 173.4 469.1 174.8 467.3 175.7C465.4 176.6 463.3 177.1 461 177.1Z" fill="#242438"/>
<path d="M477.8 176.6V172.3L489.3 161C490.4 159.9 491.3 158.9 492.1 158C492.8 157.1 493.4 156.3 493.8 155.5C494.2 154.7 494.4 153.8 494.4 152.9C494.4 151.9 494.2 151 493.7 150.2C493.2 149.4 492.6 148.9 491.7 148.5C490.9 148.1 489.9 147.9 488.9 147.9C487.8 147.9 486.9 148.1 486 148.6C485.2 149 484.5 149.7 484.1 150.5C483.7 151.3 483.4 152.3 483.4 153.4H477.7C477.7 151.3 478.2 149.5 479.1 147.9C480.1 146.3 481.4 145.1 483.1 144.3C484.8 143.5 486.7 143 488.9 143C491.1 143 493.1 143.4 494.8 144.2C496.5 145 497.8 146.2 498.7 147.6C499.6 149 500.1 150.7 500.1 152.6C500.1 153.8 499.9 155.1 499.4 156.3C498.9 157.5 498.1 158.8 496.9 160.3C495.7 161.8 494 163.5 491.9 165.6L486.2 171.4V171.6H500.7V176.6H477.8Z" fill="#242438"/>
<path d="M519.3 143.4V176.6H513.3V149.2H513.1L505.3 154.2V148.7L513.6 143.4H519.3Z" fill="#242438"/>
<path d="M538.5 176.6V143.4H551C553.6 143.4 555.7 143.9 557.4 144.8C559.1 145.8 560.4 147.1 561.3 148.7C562.2 150.4 562.6 152.2 562.6 154.4C562.6 156.5 562.2 158.4 561.3 160.1C560.4 161.8 559.1 163.1 557.3 164C555.5 164.9 553.4 165.4 550.8 165.4H542.5V160.5H549.9C551.4 160.5 552.6 160.2 553.6 159.7C554.6 159.2 555.3 158.5 555.7 157.6C556.1 156.7 556.4 155.6 556.4 154.5C556.4 153.4 556.2 152.3 555.7 151.4C555.2 150.5 554.5 149.8 553.6 149.3C552.7 148.8 551.4 148.5 549.9 148.5H544.4V176.7H538.5V176.6Z" fill="#242438"/>
<path d="M567.2 176.6V151.7H572.9V155.9H573.2C573.7 154.5 574.4 153.4 575.5 152.6C576.6 151.8 577.9 151.4 579.3 151.4C579.6 151.4 580 151.4 580.4 151.4C580.8 151.4 581.1 151.5 581.4 151.5V156.9C581.2 156.8 580.8 156.7 580.2 156.7C579.6 156.7 579.1 156.6 578.7 156.6C577.6 156.6 576.7 156.8 575.8 157.3C574.9 157.8 574.3 158.4 573.8 159.2C573.3 160 573.1 160.9 573.1 162V176.6H567.2Z" fill="#242438"/>
<path d="M595.7 177.1C593.3 177.1 591.2 176.6 589.4 175.5C587.6 174.4 586.2 172.9 585.3 171C584.3 169.1 583.8 166.8 583.8 164.3C583.8 161.7 584.3 159.5 585.3 157.5C586.3 155.6 587.7 154.1 589.4 153C591.2 151.9 593.3 151.4 595.7 151.4C598.1 151.4 600.2 151.9 602 153C603.8 154.1 605.2 155.6 606.1 157.5C607.1 159.4 607.6 161.7 607.6 164.3C607.6 166.9 607.1 169.1 606.1 171C605.1 172.9 603.7 174.4 602 175.5C600.2 176.6 598.1 177.1 595.7 177.1ZM595.7 172.4C597 172.4 598.1 172 599 171.3C599.9 170.6 600.5 169.6 601 168.4C601.4 167.2 601.7 165.8 601.7 164.3C601.7 162.8 601.5 161.4 601 160.2C600.5 159 599.9 158 599 157.2C598.1 156.5 597 156.1 595.7 156.1C594.3 156.1 593.2 156.5 592.3 157.2C591.4 157.9 590.7 158.9 590.3 160.2C589.9 161.5 589.6 162.8 589.6 164.3C589.6 165.8 589.8 167.2 590.3 168.4C590.7 169.6 591.4 170.6 592.3 171.3C593.3 172 594.4 172.4 595.7 172.4Z" fill="#242438"/>
<path d="M612.1 151.7H618V178C618 179.8 617.7 181.3 617 182.4C616.3 183.6 615.3 184.4 614 185C612.7 185.6 611.2 185.9 609.3 185.9C609.1 185.9 608.9 185.9 608.7 185.9C608.5 185.9 608.3 185.9 608.1 185.9V181.1C608.3 181.1 608.4 181.1 608.5 181.1C608.6 181.1 608.8 181.1 608.9 181.1C610 181.1 610.8 180.8 611.3 180.3C611.8 179.8 612 179 612 177.9V151.7H612.1ZM615.1 148.1C614.2 148.1 613.4 147.8 612.7 147.2C612 146.6 611.7 145.8 611.7 145C611.7 144.1 612 143.4 612.7 142.7C613.4 142 614.2 141.8 615.1 141.8C616 141.8 616.8 142.1 617.5 142.7C618.2 143.3 618.5 144.1 618.5 145C618.5 145.9 618.2 146.6 617.5 147.2C616.8 147.8 616 148.1 615.1 148.1Z" fill="#242438"/>
<path d="M634.6 177.1C632.1 177.1 629.9 176.6 628.1 175.5C626.3 174.5 624.9 173 623.9 171.1C622.9 169.2 622.4 166.9 622.4 164.3C622.4 161.7 622.9 159.5 623.9 157.5C624.9 155.6 626.2 154 628 153C629.8 152 631.8 151.4 634.2 151.4C635.7 151.4 637.2 151.6 638.6 152.1C640 152.6 641.2 153.4 642.2 154.4C643.3 155.4 644.1 156.7 644.7 158.3C645.3 159.9 645.6 161.8 645.6 164V165.8H625.2V161.8H640C640 160.7 639.7 159.7 639.3 158.8C638.8 157.9 638.2 157.2 637.3 156.7C636.5 156.2 635.5 155.9 634.3 155.9C633.1 155.9 632 156.2 631.1 156.8C630.2 157.4 629.5 158.1 629 159.1C628.5 160.1 628.2 161.1 628.2 162.2V165.7C628.2 167.1 628.5 168.4 629 169.4C629.5 170.4 630.3 171.2 631.2 171.8C632.2 172.3 633.3 172.6 634.5 172.6C635.4 172.6 636.1 172.5 636.8 172.2C637.5 172 638.1 171.6 638.6 171.1C639.1 170.6 639.5 170 639.8 169.3L645.3 169.9C645 171.3 644.3 172.6 643.3 173.7C642.3 174.8 641.1 175.6 639.6 176.2C638.3 176.8 636.6 177.1 634.6 177.1Z" fill="#242438"/>
<path d="M661.1 177.1C658.6 177.1 656.5 176.6 654.7 175.5C652.9 174.4 651.6 172.9 650.6 171C649.6 169.1 649.2 166.8 649.2 164.3C649.2 161.8 649.7 159.5 650.7 157.6C651.7 155.7 653 154.1 654.8 153.1C656.6 152.1 658.7 151.5 661.1 151.5C663.1 151.5 664.9 151.9 666.5 152.6C668.1 153.3 669.3 154.4 670.2 155.7C671.1 157 671.7 158.6 671.8 160.4H666.2C666 159.2 665.4 158.2 664.6 157.4C663.8 156.6 662.6 156.2 661.2 156.2C660 156.2 658.9 156.5 658 157.2C657.1 157.8 656.4 158.8 655.9 160C655.4 161.2 655.1 162.6 655.1 164.3C655.1 166 655.3 167.5 655.8 168.7C656.3 169.9 657 170.9 657.9 171.5C658.8 172.1 659.9 172.5 661.1 172.5C662 172.5 662.7 172.3 663.4 172C664.1 171.7 664.7 171.2 665.1 170.6C665.6 170 665.9 169.2 666.1 168.3H671.7C671.6 170.1 671 171.6 670.1 173C669.2 174.4 668 175.4 666.4 176.2C665 176.7 663.2 177.1 661.1 177.1Z" fill="#242438"/>
<path d="M688.6 151.7V156.2H674.3V151.7H688.6ZM677.8 145.7H683.7V169.1C683.7 169.9 683.8 170.5 684.1 170.9C684.3 171.3 684.7 171.6 685.1 171.8C685.5 172 685.9 172 686.4 172C686.8 172 687.1 172 687.4 171.9C687.7 171.8 687.9 171.8 688.1 171.8L689.1 176.4C688.8 176.5 688.3 176.6 687.8 176.8C687.2 176.9 686.5 177 685.7 177C684.2 177 682.9 176.8 681.7 176.3C680.5 175.8 679.6 175 678.9 174C678.2 173 677.9 171.7 677.9 170.1V145.7H677.8Z" fill="#242438"/>
<path d="M712.7 158.3L707.3 158.9C707.1 158.4 706.9 157.9 706.5 157.4C706.1 156.9 705.6 156.5 705 156.2C704.4 155.9 703.6 155.8 702.7 155.8C701.5 155.8 700.5 156.1 699.6 156.6C698.8 157.1 698.4 157.8 698.4 158.7C698.4 159.4 698.7 160 699.2 160.5C699.7 161 700.7 161.3 701.9 161.6L706.1 162.5C708.5 163 710.2 163.8 711.4 164.9C712.6 166 713.1 167.4 713.1 169.2C713.1 170.8 712.6 172.2 711.7 173.3C710.8 174.5 709.5 175.4 707.9 176.1C706.3 176.8 704.5 177.1 702.4 177.1C699.4 177.1 696.9 176.5 695 175.2C693.1 173.9 692 172.1 691.7 169.8L697.4 169.2C697.7 170.3 698.2 171.2 699.1 171.7C700 172.2 701 172.6 702.4 172.6C703.8 172.6 704.9 172.3 705.8 171.7C706.6 171.1 707.1 170.4 707.1 169.6C707.1 168.9 706.8 168.3 706.3 167.8C705.8 167.3 704.9 167 703.8 166.7L699.5 165.8C697.1 165.3 695.3 164.5 694.2 163.3C693.1 162.1 692.5 160.6 692.5 158.8C692.5 157.3 692.9 155.9 693.8 154.8C694.7 153.7 695.8 152.8 697.4 152.2C698.9 151.6 700.7 151.3 702.7 151.3C705.6 151.3 707.9 151.9 709.6 153.2C711.3 154.5 712.3 156.1 712.7 158.3Z" fill="#242438"/>
<path d="M721.3 177C720.3 177 719.5 176.7 718.8 176C718.1 175.3 717.8 174.5 717.8 173.5C717.8 172.5 718.1 171.7 718.8 171C719.5 170.3 720.3 170 721.3 170C722.3 170 723.1 170.3 723.8 171C724.5 171.7 724.9 172.5 724.9 173.5C724.9 174.2 724.7 174.8 724.4 175.3C724.1 175.8 723.6 176.3 723.1 176.6C722.5 176.8 721.9 177 721.3 177Z" fill="#77809C"/>
</g>
<mask id="mask7_4_1776" style="mask-type:luminance" maskUnits="userSpaceOnUse" x="0" y="0" width="1521" height="255">
<path d="M1521 0H0V255H1521V0Z" fill="white"/>
</mask>
<g mask="url(#mask7_4_1776)">
<path d="M1348 59C1360.15 59 1370 49.1503 1370 37C1370 24.8497 1360.15 15 1348 15C1335.85 15 1326 24.8497 1326 37C1326 49.1503 1335.85 59 1348 59Z" fill="#D4F6FF"/>
</g>
<mask id="mask8_4_1776" style="mask-type:luminance" maskUnits="userSpaceOnUse" x="0" y="0" width="1521" height="255">
<path d="M1521 0H0V255H1521V0Z" fill="white"/>
</mask>
<g mask="url(#mask8_4_1776)">
<path d="M1200.6 112.7C1202.5 111.5 1204.4 111.6 1206.4 112.6C1208.7 113.7 1211.2 114.7 1213.5 115.7C1216 112.5 1218.5 109.4 1221 106.2C1219.4 104 1217.7 101.8 1216.1 99.6C1214 96.8 1214.2 95 1217 93C1221.9 89.3 1226.9 85.5 1231.9 81.9C1234.5 80 1236.2 80.3 1238.2 82.8C1239.9 85.1 1241.6 87.3 1243.2 89.4C1247 87.9 1250.6 86.4 1254.6 84.8C1254.3 82.4 1254 79.6 1253.7 76.8C1253.3 73.3 1254.4 72 1257.9 71.6C1264 70.9 1270 70.1 1276.1 69.4C1279.6 69 1280.9 70.1 1281.3 73.6C1281.6 75.9 1281.7 78.2 1282.2 80.4C1282.3 81.1 1283.3 82 1283.9 82.1C1286.8 82.7 1289.7 82.9 1292.6 83.4C1294 83.7 1294.5 83.2 1294.9 82C1295.8 79.7 1296.8 77.5 1297.8 75.2C1298.9 72.9 1300.6 72 1303 73C1309.1 75.5 1315.2 78.1 1321.2 80.8C1323.6 81.9 1324.3 83.7 1323.2 86.3C1322.3 88.5 1321.4 90.7 1320.4 92.8C1319.8 94 1319.9 94.8 1321.1 95.6C1323.4 97.2 1325.6 98.9 1327.6 100.7C1328.8 101.8 1329.6 101.6 1330.7 100.7C1332.5 99.3 1334.3 97.9 1336.2 96.6C1338.6 94.9 1340.3 95.1 1342.1 97.4C1346 102.5 1349.8 107.7 1353.7 112.9C1355.4 115.3 1355.1 117.1 1352.7 119C1350.4 120.7 1348.2 122.4 1346.1 123.9C1347.6 127.7 1349.1 131.3 1350.7 135.3C1353 135 1355.8 134.7 1358.6 134.4C1362 134 1363.4 135.1 1363.8 138.6C1364.5 144.7 1365.3 150.7 1366 156.8C1366.4 160.3 1365.3 161.6 1361.8 162C1359.1 162.3 1356.5 162.6 1353.6 163C1353 167 1352.4 170.9 1351.8 175C1354.4 176.1 1356.9 177.2 1359.5 178.3C1362.6 179.7 1363.3 181.4 1361.9 184.6C1359.5 190.2 1357.1 195.9 1354.6 201.5C1353.3 204.6 1351.6 205.2 1348.6 204C1346.6 203.2 1344.5 202.3 1342.5 201.4C1341.2 200.8 1340.4 200.8 1339.5 202.1C1337.9 204.4 1336.2 206.6 1334.4 208.6C1333.4 209.7 1333.4 210.4 1334.2 211.5C1335.7 213.3 1337.1 215.2 1338.5 217.2C1340.2 219.6 1340 221.4 1337.7 223.1C1332.6 227 1327.4 230.9 1322.2 234.7C1319.9 236.4 1318.1 236.1 1316.3 233.9C1314.5 231.6 1312.8 229.2 1311.1 227C1307.4 228.6 1303.8 230.1 1299.8 231.7C1300.1 233.9 1300.4 236.6 1300.7 239.4C1301.1 243.1 1300.1 244.4 1296.5 244.9C1290.4 245.6 1284.4 246.4 1278.3 247.1C1274.9 247.5 1273.5 246.4 1273.1 242.9C1272.8 240.2 1272.5 237.6 1272.1 234.7C1270.1 234.4 1268.1 234.2 1266.1 233.9C1264.2 233.6 1262.3 233.3 1260.1 233C1259.1 235.4 1257.9 237.8 1257 240.2C1256.2 242.3 1254.9 243.6 1252.7 244.1C1245.7 241.1 1238.6 238.1 1231.6 235C1230.3 233.1 1230.3 231.3 1231.4 229.3C1232.6 226.9 1233.5 224.4 1234.5 222.1C1231.2 219.5 1228.2 217.1 1225 214.6C1222.6 216.4 1220.3 218.1 1217.9 219.8C1215.6 221.5 1213.7 221.2 1212 218.9C1208.1 213.8 1204.3 208.6 1200.5 203.4C1198.8 201.1 1199.1 199.3 1201.4 197.5C1203.7 195.7 1206.1 194 1208.2 192.4C1206.7 188.5 1205.2 184.8 1203.7 181C1201.2 181.3 1198.5 181.6 1195.7 181.9C1192.2 182.3 1190.9 181.3 1190.5 177.8C1189.8 171.7 1189.1 165.7 1188.4 159.6C1188 156.1 1189.1 154.8 1192.5 154.4C1195.3 154 1198.1 153.7 1200.7 153.4C1201.3 149.2 1201.9 145.4 1202.4 141.4C1200 140.4 1197.6 139.2 1195.2 138.3C1193.1 137.5 1191.8 136.3 1191.5 134C1194.5 126.8 1197.6 119.7 1200.6 112.7ZM1197.5 174.2C1200.5 173.8 1203.1 173.5 1205.6 173.2C1208.4 172.9 1209.5 173.7 1210.5 176.4C1212.3 181.2 1214.2 186 1216.2 190.7C1217.3 193.3 1217.1 194.7 1214.8 196.4C1212.7 198 1210.5 199.6 1208.3 201.3C1211 204.9 1213.5 208.2 1216.1 211.7C1218.3 210.1 1220.3 208.5 1222.3 207.1C1225 205.1 1226.2 205.3 1228.8 207.4C1232.6 210.6 1236.5 213.6 1240.5 216.6C1243 218.4 1243.5 219.7 1242.2 222.6C1241.2 225 1240.2 227.4 1239.1 229.8C1243.2 231.6 1247.1 233.2 1251.2 235C1252.3 232.3 1253.4 229.8 1254.5 227.3C1255.5 225 1257.1 224.5 1259.4 224.9C1264.4 225.7 1269.5 226.5 1274.6 227.1C1277.7 227.5 1278.7 228.3 1279.1 231.5C1279.4 234.1 1279.7 236.6 1280 239.3C1284.4 238.8 1288.6 238.3 1293 237.7C1292.7 234.9 1292.3 232.3 1292.1 229.7C1291.8 226.7 1292.6 225.6 1295.4 224.6C1300.1 222.8 1304.8 220.9 1309.5 219C1312.3 217.8 1313.5 218 1315.4 220.4C1317 222.5 1318.6 224.6 1320.3 226.8C1323.9 224.1 1327.2 221.6 1330.7 219C1329 216.7 1327.5 214.7 1325.9 212.6C1324.1 210.2 1324.3 208.8 1326.2 206.5C1329.4 202.5 1332.6 198.5 1335.7 194.4C1337.4 192.2 1338.7 191.7 1341.3 192.8C1343.8 193.8 1346.2 194.9 1348.7 196C1350.5 191.8 1352.1 188 1353.9 183.9C1351.3 182.8 1348.8 181.7 1346.4 180.7C1343.9 179.6 1343.4 178.4 1343.8 175.7C1344.6 170.6 1345.4 165.6 1346 160.5C1346.4 157.5 1347.2 156.5 1350.2 156.1C1352.8 155.8 1355.5 155.4 1358.2 155.1C1357.7 150.7 1357.2 146.5 1356.7 142.2C1353.9 142.5 1351.4 142.8 1348.9 143.1C1345.6 143.5 1344.6 142.7 1343.5 139.6C1341.8 135 1340 130.5 1338.1 126C1336.8 123 1337 121.7 1339.6 119.7C1341.6 118.1 1343.7 116.6 1345.8 115C1343.1 111.4 1340.6 108 1338 104.6C1335.7 106.3 1333.6 107.9 1331.5 109.4C1329.1 111.2 1327.7 111 1325.4 109.1C1321.6 106 1317.7 102.9 1313.7 99.9C1311 97.8 1310.6 96.9 1311.9 93.7C1312.9 91.3 1313.9 89 1314.9 86.6C1310.7 84.8 1306.8 83.1 1302.8 81.4C1301.7 84 1300.7 86.4 1299.6 88.8C1298.4 91.4 1297.2 92 1294.4 91.5C1289.4 90.7 1284.4 89.9 1279.4 89.3C1276.1 88.9 1275.2 88.1 1274.8 84.8C1274.5 82.3 1274.2 79.7 1273.9 77.1C1269.4 77.6 1265.2 78.1 1260.9 78.7C1261.1 80.3 1261.2 81.6 1261.4 82.9C1261.5 84.2 1261.7 85.5 1261.8 86.8C1262.1 89.8 1261.3 90.8 1258.5 91.9C1253.9 93.6 1249.2 95.5 1244.7 97.4C1241.7 98.7 1240.5 98.5 1238.4 95.8C1236.9 93.8 1235.3 91.7 1233.7 89.6C1230 92.3 1226.7 94.9 1223.3 97.4C1225 99.6 1226.4 101.6 1227.9 103.5C1230 106.3 1229.8 107.5 1227.6 110.2C1224.4 114 1221.4 117.9 1218.4 121.9C1216.7 124.2 1215.4 124.7 1212.8 123.6C1210.3 122.6 1207.9 121.5 1205.4 120.4C1203.6 124.6 1201.9 128.5 1200.2 132.5C1202.8 133.6 1205.3 134.7 1207.8 135.8C1210 136.7 1210.7 138.4 1210.3 140.7C1209.5 145.8 1208.7 151 1208 156.2C1207.6 159.1 1206.8 160.1 1204 160.5C1201.4 160.9 1198.7 161.2 1195.9 161.5C1196.5 165.6 1197 169.8 1197.5 174.2Z" fill="#15BEE6"/>
<path d="M1452.1 56.3C1453.5 58 1453.6 59.8 1452.5 61.8C1452.1 62.6 1451.8 63.4001 1451.4 64.3001C1450.4 66.7001 1451 68.8 1453.4 70.1C1453.8 70.3 1454.5 70.2001 1455 70C1456.6 69.4 1458.2 68.7 1459.8 68.1C1462.3 67.2 1463.9 67.9001 1464.9 70.3001C1467.9 77.6001 1470.8 84.8 1473.6 92.1C1474.5 94.4 1473.7 96 1471.5 97.1C1470.4 97.6 1469.3 98.2001 1468.1 98.4001C1465.9 98.9001 1465.2 100.1 1465.3 102.4C1465.4 103.9 1465.8 104.8 1467.2 105.3C1468.7 105.8 1470.1 106.4 1471.5 107.1C1473.6 108.2 1474.3 109.9 1473.4 112C1470.3 119.3 1467.2 126.6 1464 133.8C1463.1 135.9 1461.3 136.6 1459.1 135.8C1457.7 135.3 1456.3 134.8 1455.1 134.1C1453.6 133.3 1452.6 133.5 1451.3 134.7C1449.8 136.1 1449.7 137.2 1450.4 139.1C1453.3 146.1 1453.2 146.3 1446.1 149.2C1440.3 151.5 1434.4 153.9 1428.6 156.2C1425.3 157.5 1423.8 156.8 1422.5 153.6C1422.2 152.8 1421.9 152.1 1421.6 151.3C1420.3 148.1 1419.8 147.8 1416.4 148.3C1415.8 148.4 1415.2 149 1414.9 149.6C1414.1 151.1 1413.6 152.8 1412.8 154.3C1411.8 156.4 1410.1 157.2 1408 156.3C1400.6 153.2 1393.3 150.1 1386 146.9C1383.9 146 1383.3 144.2 1384 142C1384.5 140.6 1385 139.2 1385.7 138C1386.6 136.5 1386.2 135.5 1385 134.2C1383.6 132.6 1382.4 132.6 1380.6 133.4C1373.6 136.3 1373.4 136.2 1370.5 129C1368.2 123.3 1366 117.6 1363.7 112C1362.2 108.3 1362.8 106.8 1366.5 105.3C1367.3 105 1368 104.7 1368.8 104.4C1371.6 103.3 1372.2 102.2 1371.5 99.2C1371.4 98.6 1370.7 98.1001 1370.1 97.8001C1368.7 97.1001 1367.1 96.5001 1365.6 95.8001C1363.4 94.7001 1362.6 93.0001 1363.5 90.8001C1366.5 83.5001 1369.7 76.2001 1372.9 69C1373.9 66.8 1375.6 66.2 1378 67.1C1379.3 67.6 1380.6 68.1 1381.8 68.7C1383.3 69.6 1384.3 69.1 1385.6 68C1387.2 66.6 1387.3 65.4 1386.5 63.6C1383.5 57.1 1384.1 56.1 1390.7 53.6C1396.6 51.4 1402.4 49 1408.2 46.6C1411.6 45.2 1413.1 45.9001 1414.5 49.2001C1414.8 49.9001 1415.2 50.5001 1415.3 51.2001C1415.8 54.1 1417.6 54.9001 1420.1 54.4001C1420.8 54.3001 1421.5 53.8001 1421.9 53.2001C1422.6 52.1001 1423.1 50.9 1423.5 49.6C1424.2 47.5 1425.5 46.1 1427.8 45.8C1435.9 49.4 1444 52.9 1452.1 56.3ZM1378 127C1379.6 126.2 1381 125.5 1382.5 124.8C1384.4 123.9 1386.1 124.3 1387.5 126C1389.3 128 1391.1 129.9 1393.1 131.8C1394.8 133.4 1395.1 135 1394.1 137.1C1393.4 138.5 1392.8 140 1392.2 141.5C1397.5 143.8 1402.4 145.9 1407.5 148.1C1408.2 146.5 1408.8 145.1 1409.4 143.7C1410.3 141.5 1411.8 140.6 1414.2 140.8C1416.8 141 1419.4 141 1422 140.9C1424.2 140.8 1425.6 141.7 1426.3 143.7C1426.8 145.3 1427.3 147 1427.7 148.3C1433.3 146 1438.4 144 1443.9 141.8C1443.3 140.6 1442.6 139.1 1441.9 137.6C1441 135.6 1441.4 133.9 1443.2 132.4C1445.1 130.8 1447 129 1448.6 127.1C1450.3 125.2 1452 124.9 1454.2 125.9C1455.6 126.6 1457.1 127.2 1458.5 127.8C1460.8 122.5 1462.9 117.5 1465.1 112.5C1463.6 111.9 1462.3 111.2 1460.9 110.7C1458.5 109.8 1457.5 108.2 1457.8 105.6C1458 103.1 1458 100.6 1457.9 98C1457.8 95.8 1458.7 94.4 1460.7 93.7C1462.3 93.1 1463.9 92.6 1465.2 92.2C1463 86.6 1461 81.6 1458.8 76.1C1457.7 76.7 1456.4 77.3 1455.1 78C1452.7 79.2001 1450.8 78.7 1449.1 76.6C1447.6 74.7 1445.8 73.0001 1444 71.4001C1442.3 69.9001 1441.9 68.2 1442.8 66.2C1443.4 64.7 1444.1 63.2 1444.8 61.6C1439.6 59.4 1434.7 57.2 1429.5 55C1428.8 56.6 1428.1 58.1 1427.6 59.6C1426.8 61.7 1425.3 62.5001 1423 62.4001C1420.3 62.2001 1417.6 62.2 1415 62.3C1412.9 62.4 1411.6 61.5 1410.8 59.6C1410.1 58 1409.4 56.4001 1408.8 54.9001C1403.5 57.0001 1398.6 59.0001 1393.1 61.2001C1393.8 62.6 1394.5 64 1395.2 65.5C1396.2 67.7001 1395.6 69.4001 1393.8 70.9001C1391.9 72.6001 1390.1 74.3 1388.4 76.2C1386.9 77.9 1385.2 78.3001 1383.1 77.4001C1381.6 76.7001 1380 76.1001 1378.5 75.4001C1376.2 80.7001 1374.1 85.6 1371.9 90.7C1373.4 91.4 1374.7 92 1376.1 92.5C1378.5 93.4001 1379.5 95 1379.2 97.6C1379 99.9 1379 102.3 1379.1 104.7C1379.3 107.3 1378.3 108.9 1375.8 109.7C1374.4 110.2 1372.9 110.7 1371.6 111.1C1373.8 116.3 1375.7 121.3 1378 127Z" fill="#15BEE6"/>
<path d="M1424.8 209.8C1421.5 213 1418.6 215.9 1415.3 219.1C1415.9 221.3 1418 224.4 1413.8 226.2C1411.6 227.1 1410.4 226 1408.2 221.9C1403.8 221.9 1399.5 221.8 1395.1 221.8C1392.5 226.1 1391.5 226.8 1389.2 225.9C1386.9 224.9 1386.7 223.5 1388.1 218.8C1385.1 215.7 1382.1 212.7 1378.9 209.4C1376.8 209.9 1373.7 212.1 1371.9 208.1C1370.9 205.9 1372 204.6 1376.2 202.3C1376.2 197.9 1376.3 193.7 1376.3 189.1C1374.4 188 1370.6 187.2 1372.3 183.3C1373.9 179.5 1377.1 181.5 1379.3 182.2C1382.5 179.1 1385.5 176.1 1388.8 172.9C1388.2 170.7 1386.2 167.7 1390.1 165.9C1392.3 164.9 1393.6 166 1395.8 170.2C1400.2 170.2 1404.4 170.3 1408.8 170.3C1411.8 165.9 1412.9 165.2 1415.1 166.4C1417.2 167.5 1417.3 169 1415.9 173.3C1419 176.4 1421.9 179.5 1425.1 182.7C1430 181.5 1431.4 181.8 1432.2 184.1C1433.1 186.5 1432.1 187.7 1427.9 189.8C1427.9 194.2 1427.8 198.4 1427.8 202.9C1432.1 205.7 1433 207 1431.8 209.1C1429.8 212.4 1427.1 210.5 1424.8 209.8ZM1394.7 213.1C1404.2 217.2 1415.2 212.8 1419.3 203.4C1423.4 193.9 1419 182.8 1409.4 178.7C1399.9 174.7 1388.9 179.1 1384.9 188.5C1380.8 198 1385.2 209 1394.7 213.1Z" fill="#15BEE6"/>
<path d="M1296.5 109.2C1322.4 120.7 1335.3 148.4 1327.4 173.1C1318.9 199.6 1293.4 215.2 1266.7 209.6C1246.9 205.5 1233.8 193.3 1227.1 174.2C1226.2 171.7 1227 169.7 1229.1 168.9C1231.3 168.1 1233.1 169.2 1234.1 171.9C1238.6 185.3 1247.4 194.8 1260.4 200.1C1282.1 209 1306.6 199.4 1317.8 177.8C1327.9 158.2 1320.8 132.6 1302 120.4C1277.6 104.6 1245.3 115 1235 142.3C1233.3 146.9 1232.9 152.1 1232.1 157.1C1231.8 158.8 1231.7 160.3 1230 161.2C1227.3 162.6 1224.7 160.6 1224.7 157.3C1224.8 149.3 1226.7 141.6 1230.4 134.5C1241.5 113.1 1264.4 102.1 1288 106.8C1291.4 107.4 1294.8 108.7 1296.5 109.2Z" fill="#15BEE6"/>
<path d="M1262.5 192.1C1244.9 184.5 1236 164.5 1242.1 146.3C1248.2 128.1 1267.6 117.6 1286.1 122.3C1291.3 123.6 1296 126 1300.2 129.3C1302.5 131.2 1303 133.4 1301.5 135.2C1300.1 136.9 1297.9 136.9 1295.6 135.1C1281.9 124.6 1263.5 127 1253.3 140.5C1243.4 153.7 1246.6 173.3 1260.2 182.5C1274.5 192.1 1293.8 187.8 1302.4 173.2C1306.8 165.6 1307.7 157.6 1305.2 149.2C1305 148.7 1304.8 148.1 1304.7 147.6C1304.2 145.5 1305.1 143.7 1306.9 143C1308.9 142.3 1310.8 143.1 1311.6 145.3C1313.7 150.9 1314.4 156.7 1313.6 162.6C1310.7 187 1285 201.8 1262.5 192.1Z" fill="#15BEE6"/>
<path d="M1406.9 128.3C1387.8 120.1 1383.1 94.9 1398 80.5C1398.5 80 1399.1 79.5 1399.7 79.1C1401.4 77.9 1403.1 78.1 1404.6 79.5C1406 80.8 1405.8 83 1404.5 84.6C1402.7 86.7 1400.7 88.7 1399.4 91.1C1393.7 101.1 1397.2 114.2 1407 120.2C1417.2 126.5 1430.3 123.5 1437.1 113.2C1443.3 103.8 1440.8 90.5 1431.4 83.8C1427.2 80.8 1422.5 79.4 1417.4 79.6C1416.3 79.6 1414.8 79.5 1414.2 78.9C1413.4 77.9 1412.8 76.3 1412.9 75.1C1413.1 73.3 1414.7 72.5 1416.5 72.4C1424.4 72 1431.5 74.2 1437.5 79.4C1448.3 88.6 1451 104.9 1443.8 116.5C1435.7 129.1 1420.5 134.1 1406.9 128.3Z" fill="#15BEE6"/>
<path d="M1413.2 200.6C1410.6 206.8 1403.5 209.7 1397.4 207.2C1391.3 204.7 1388.3 197.5 1390.8 191.4C1393.4 185.1 1400.6 182.1 1406.8 184.7C1413 187.3 1415.8 194.4 1413.2 200.6ZM1397.7 194C1396.6 196.4 1397.7 199.3 1400 200.4C1402.4 201.5 1405.2 200.4 1406.3 197.9C1407.4 195.5 1406.3 192.6 1403.9 191.5C1401.7 190.5 1398.8 191.6 1397.7 194Z" fill="#15BEE6"/>
</g>
<mask id="mask9_4_1776" style="mask-type:luminance" maskUnits="userSpaceOnUse" x="0" y="0" width="1521" height="255">
<path d="M1521 0H0V255H1521V0Z" fill="white"/>
</mask>
<g mask="url(#mask9_4_1776)">
<path d="M58.5 201.7C58.5 200.4 58.7 199.2 59 198.1C59.3 197 59.8 196 60.4 195.1H61.5C61.3 195.4 61 195.9 60.8 196.3C60.6 196.8 60.4 197.3 60.2 197.9C60 198.5 59.9 199.1 59.8 199.7C59.7 200.3 59.7 200.9 59.7 201.6C59.7 202.4 59.8 203.2 59.9 204.1C60.1 204.9 60.3 205.7 60.5 206.4C60.8 207.1 61.1 207.7 61.4 208.2H60.3C59.7 207.3 59.2 206.3 58.9 205.2C58.6 204.1 58.5 203 58.5 201.7Z" fill="#D3D3D3"/>
<path d="M70.4 195.7H71.6999V202.6C71.6999 203.3 71.4999 204 71.1999 204.5C70.8999 205.1 70.4 205.5 69.8 205.8C69.2 206.1 68.4999 206.3 67.6999 206.3C66.8999 206.3 66.1999 206.1 65.5999 205.8C64.9999 205.5 64.4999 205 64.1999 204.5C63.8999 203.9 63.7 203.3 63.7 202.6V195.7H65V202.5C65 203 65.1 203.5 65.3 203.9C65.5 204.3 65.8 204.6 66.3 204.8C66.7 205 67.2 205.1 67.8 205.1C68.4 205.1 68.9 205 69.3 204.8C69.7 204.6 70 204.3 70.3 203.9C70.6 203.5 70.5999 203 70.5999 202.5V195.7H70.4Z" fill="#D3D3D3"/>
<path d="M82.5 195.7V206.2H81.3L75.6 198H75.5V206.2H74.2V195.7H75.4L81.1 203.9H81.2V195.7H82.5Z" fill="#D3D3D3"/>
<path d="M93.5 199H92.2C92.1 198.6 92 198.3 91.8 198C91.6 197.7 91.4 197.5 91.1 197.3C90.8 197.1 90.5 197 90.2 196.9C89.9 196.8 89.5 196.8 89.2 196.8C88.6 196.8 88 197 87.5 197.3C87 197.6 86.6 198.1 86.3 198.7C86 199.3 85.8 200.1 85.8 201C85.8 201.9 86 202.7 86.3 203.3C86.6 203.9 87 204.4 87.5 204.7C88 205 88.6 205.2 89.2 205.2C89.5 205.2 89.9 205.2 90.2 205.1C90.5 205 90.8 204.9 91.1 204.7C91.4 204.5 91.6 204.3 91.8 204C92 203.7 92.1 203.4 92.2 203H93.5C93.4 203.5 93.2 204 93 204.4C92.7 204.8 92.4 205.2 92.1 205.5C91.7 205.8 91.3 206 90.8 206.2C90.3 206.4 89.8 206.4 89.3 206.4C88.4 206.4 87.6 206.2 86.9 205.7C86.2 205.3 85.7 204.6 85.3 203.8C84.9 203 84.7 202 84.7 200.9C84.7 199.8 84.9 198.8 85.3 198C85.7 197.2 86.2 196.6 86.9 196.1C87.6 195.7 88.4 195.4 89.3 195.4C89.8 195.4 90.3 195.5 90.8 195.6C91.3 195.7 91.7 196 92.1 196.3C92.5 196.6 92.8 197 93 197.4C93.2 197.9 93.4 198.4 93.5 199Z" fill="#D3D3D3"/>
<path d="M94.8999 196.8V195.7H102.8V196.8H99.4999V206.2H98.1999V196.8H94.8999Z" fill="#D3D3D3"/>
<path d="M105.2 206.2H103.9L107.7 195.7H109L112.8 206.2H111.5L108.4 197.4H108.3L105.2 206.2ZM105.7 202.1H111.1V203.2H105.7V202.1Z" fill="#D3D3D3"/>
<path d="M117.7 206.2H114.5V195.7H117.9C118.9 195.7 119.8 195.9 120.5 196.3C121.2 196.7 121.8 197.3 122.2 198.1C122.6 198.9 122.8 199.8 122.8 200.9C122.8 202 122.6 202.9 122.2 203.7C121.8 204.5 121.2 205.1 120.5 205.5C119.8 205.9 118.8 206.2 117.7 206.2ZM115.8 205H117.7C118.6 205 119.3 204.8 119.9 204.5C120.5 204.2 120.9 203.7 121.2 203.1C121.5 202.5 121.6 201.7 121.6 200.9C121.6 200.1 121.5 199.3 121.2 198.7C120.9 198.1 120.5 197.6 120 197.3C119.5 197 118.8 196.8 117.9 196.8H115.9V205H115.8Z" fill="#D3D3D3"/>
<path d="M128.7 206.2V205.3L132.2 201.5C132.6 201.1 132.9 200.7 133.2 200.3C133.5 200 133.7 199.7 133.8 199.4C133.9 199.1 134 198.8 134 198.5C134 198.1 133.9 197.8 133.7 197.5C133.5 197.2 133.3 197 133 196.9C132.7 196.8 132.4 196.7 132 196.7C131.6 196.7 131.2 196.8 130.9 196.9C130.6 197.1 130.4 197.3 130.2 197.6C130 197.9 130 198.2 130 198.6H128.8C128.8 198 128.9 197.4 129.2 197C129.5 196.6 129.9 196.2 130.4 195.9C130.9 195.6 131.4 195.5 132.1 195.5C132.7 195.5 133.3 195.6 133.7 195.9C134.2 196.2 134.5 196.5 134.8 196.9C135.1 197.3 135.2 197.8 135.2 198.4C135.2 198.8 135.1 199.2 135 199.5C134.9 199.9 134.6 200.3 134.3 200.7C134 201.1 133.5 201.7 132.9 202.3L130.5 204.8V204.9H135.4V206H128.7V206.2Z" fill="#D3D3D3"/>
<path d="M140.9 206.3C140.1 206.3 139.5 206.1 138.9 205.7C138.4 205.3 137.9 204.7 137.7 203.9C137.4 203.1 137.3 202.1 137.3 201C137.3 199.9 137.4 198.9 137.7 198.1C138 197.3 138.4 196.7 138.9 196.3C139.4 195.9 140.1 195.7 140.9 195.7C141.7 195.7 142.3 195.9 142.9 196.3C143.4 196.7 143.9 197.3 144.1 198.1C144.4 198.9 144.5 199.9 144.5 201C144.5 202.1 144.4 203.1 144.1 203.9C143.8 204.7 143.4 205.3 142.9 205.7C142.3 206.1 141.6 206.3 140.9 206.3ZM140.9 205.2C141.7 205.2 142.3 204.8 142.7 204.1C143.1 203.4 143.3 202.3 143.3 200.9C143.3 200 143.2 199.2 143 198.6C142.8 198 142.5 197.5 142.2 197.1C141.8 196.8 141.4 196.6 140.9 196.6C140.1 196.6 139.6 197 139.1 197.7C138.7 198.4 138.5 199.5 138.5 200.9C138.5 201.8 138.6 202.6 138.8 203.2C139 203.8 139.3 204.3 139.6 204.6C139.9 204.9 140.4 205.2 140.9 205.2Z" fill="#D3D3D3"/>
<path d="M146.5 206.2V205.3L150 201.5C150.4 201.1 150.7 200.7 151 200.3C151.3 200 151.5 199.7 151.6 199.4C151.7 199.1 151.8 198.8 151.8 198.5C151.8 198.1 151.7 197.8 151.5 197.5C151.3 197.2 151.1 197 150.8 196.9C150.5 196.8 150.2 196.7 149.8 196.7C149.4 196.7 149 196.8 148.7 196.9C148.4 197.1 148.2 197.3 148 197.6C147.8 197.9 147.8 198.2 147.8 198.6H146.6C146.6 198 146.7 197.4 147 197C147.3 196.6 147.7 196.2 148.2 195.9C148.7 195.6 149.2 195.5 149.9 195.5C150.5 195.5 151.1 195.6 151.5 195.9C152 196.2 152.3 196.5 152.6 196.9C152.9 197.3 153 197.8 153 198.4C153 198.8 152.9 199.2 152.8 199.5C152.7 199.9 152.4 200.3 152.1 200.7C151.8 201.1 151.3 201.7 150.7 202.3L148.3 204.8V204.9H153.2V206H146.5V206.2Z" fill="#D3D3D3"/>
<path d="M154.9 204V203L159.5 195.7H160.3V197.3H159.8L156.3 202.8V202.9H162.5V204H154.9ZM159.9 206.2V203.7V203.2V195.7H161.1V206.2H159.9Z" fill="#D3D3D3"/>
<path d="M167 201.7C167 203 166.8 204.2 166.5 205.3C166.2 206.4 165.7 207.4 165.1 208.3H164C164.2 208 164.5 207.5 164.7 207.1C164.9 206.6 165.1 206.1 165.3 205.5C165.5 204.9 165.6 204.3 165.7 203.7C165.8 203.1 165.8 202.5 165.8 201.8C165.8 201 165.7 200.2 165.6 199.3C165.5 198.4 165.2 197.7 165 197C164.7 196.3 164.4 195.7 164.1 195.2H165.2C165.8 196.1 166.3 197.1 166.6 198.2C166.9 199.3 167 200.5 167 201.7Z" fill="#D3D3D3"/>
</g>
<mask id="mask10_4_1776" style="mask-type:luminance" maskUnits="userSpaceOnUse" x="0" y="0" width="1521" height="255">
<path d="M1521 0H0V255H1521V0Z" fill="white"/>
</mask>
<g mask="url(#mask10_4_1776)">
<path d="M64.9 60.8999H58V39.3999H65.2C67.3 39.3999 69.1 39.7999 70.6 40.6999C72.1 41.5999 73.3 42.7999 74.1 44.3999C74.9 45.9999 75.3 47.8999 75.3 50.0999C75.3 52.2999 74.9 54.2999 74.1 55.8999C73.3 57.4999 72.1 58.6999 70.6 59.5999C68.9 60.4999 67.1 60.8999 64.9 60.8999ZM61.2 58.0999H64.7C66.3 58.0999 67.7 57.7999 68.8 57.1999C69.9 56.5999 70.7 55.6999 71.2 54.4999C71.7 53.2999 72 51.8999 72 50.1999C72 48.4999 71.7 47.0999 71.2 45.8999C70.7 44.6999 69.9 43.7999 68.8 43.1999C67.7 42.5999 66.4 42.2999 64.9 42.2999H61.2V58.0999Z" fill="#242438"/>
<path d="M80.6001 42.3C80.1001 42.3 79.6001 42.1 79.2001 41.7C78.8001 41.3 78.6001 40.9 78.6001 40.4C78.6001 39.9 78.8001 39.4 79.2001 39.1C79.6001 38.7 80.1001 38.5 80.6001 38.5C81.1001 38.5 81.6001 38.7 82.0001 39.1C82.4001 39.5 82.6001 39.9 82.6001 40.4C82.6001 40.9 82.4001 41.4 82.0001 41.7C81.6001 42.1 81.1001 42.3 80.6001 42.3ZM79.0001 60.9V44.8H82.1001V60.9H79.0001Z" fill="#242438"/>
<path d="M92.3 61.1999C91 61.1999 89.8 60.8999 88.8 60.1999C87.8 59.4999 87 58.5999 86.4 57.2999C85.8 56.0999 85.5 54.5999 85.5 52.7999C85.5 51.0999 85.8 49.5999 86.4 48.2999C87 47.0999 87.8 46.0999 88.8 45.4999C89.8 44.7999 91 44.4999 92.3 44.4999C93.3 44.4999 94.1 44.6999 94.7 44.9999C95.3 45.2999 95.8 45.6999 96.1 46.1999C96.4 46.5999 96.7 46.9999 96.9 47.3999H97.1V39.3999H100.2V60.8999H97.1V58.3999H97C96.8 58.6999 96.5 59.0999 96.2 59.5999C95.8 59.9999 95.4 60.3999 94.7 60.7999C94.1 60.9999 93.3 61.1999 92.3 61.1999ZM93 58.4999C93.9 58.4999 94.7 58.2999 95.3 57.7999C95.9 57.2999 96.4 56.6999 96.7 55.7999C97 54.8999 97.2 53.9999 97.2 52.7999C97.2 51.6999 97 50.6999 96.7 49.8999C96.4 49.0999 95.9 48.3999 95.3 47.8999C94.7 47.3999 93.9 47.1999 93 47.1999C92.1 47.1999 91.3 47.3999 90.6 47.8999C89.9 48.3999 89.5 49.0999 89.2 49.8999C88.9 50.6999 88.7 51.6999 88.7 52.7999C88.7 53.8999 88.9 54.7999 89.2 55.6999C89.5 56.5999 90 57.1999 90.6 57.6999C91.2 58.1999 92.1 58.4999 93 58.4999Z" fill="#242438"/>
<path d="M114.6 66.9001C114.1 66.9001 113.7 66.9001 113.3 66.8001C112.9 66.7001 112.6 66.6 112.4 66.6L113.2 64C113.8 64.2001 114.3 64.2 114.7 64.2C115.1 64.2 115.5 64 115.9 63.7001C116.3 63.4001 116.6 62.9001 116.8 62.2001L117.2 61.1L111.3 44.8H114.7L118.8 57.3H119L123.1 44.8H126.5L119.7 63C119.4 63.8 119 64.5 118.5 65.1C118 65.7 117.5 66.1001 116.8 66.4001C116.2 66.8001 115.5 66.9001 114.6 66.9001Z" fill="#242438"/>
<path d="M136.1 61.2001C134.6 61.2001 133.3 60.9001 132.1 60.2001C131 59.5001 130.1 58.5001 129.5 57.3001C128.9 56.1001 128.6 54.6001 128.6 52.9001C128.6 51.2001 128.9 49.8001 129.5 48.5001C130.1 47.2001 131 46.3001 132.1 45.6001C133.2 44.9001 134.5 44.6001 136.1 44.6001C137.7 44.6001 138.9 44.9001 140.1 45.6001C141.2 46.3001 142.1 47.3001 142.7 48.5001C143.3 49.7001 143.6 51.2001 143.6 52.9001C143.6 54.6001 143.3 56.0001 142.7 57.3001C142.1 58.5001 141.2 59.5001 140.1 60.2001C138.9 60.9001 137.6 61.2001 136.1 61.2001ZM136.1 58.6001C137.1 58.6001 137.9 58.3001 138.5 57.8001C139.1 57.3001 139.6 56.6001 139.9 55.7001C140.2 54.8001 140.4 53.9001 140.4 52.9001C140.4 51.9001 140.2 50.9001 139.9 50.1001C139.6 49.2001 139.1 48.5001 138.5 48.0001C137.9 47.5001 137 47.2001 136.1 47.2001C135.1 47.2001 134.3 47.5001 133.7 48.0001C133.1 48.5001 132.6 49.2001 132.3 50.1001C132 51.0001 131.8 51.9001 131.8 52.9001C131.8 53.9001 132 54.9001 132.3 55.7001C132.6 56.6001 133.1 57.2001 133.7 57.8001C134.3 58.3001 135.1 58.6001 136.1 58.6001Z" fill="#242438"/>
<path d="M157.3 54.2001V44.8H160.4V60.9001H157.3V58.1H157.1C156.7 59 156.1 59.7001 155.3 60.2001C154.5 60.8001 153.5 61.1 152.3 61.1C151.3 61.1 150.4 60.9001 149.6 60.4001C148.8 59.9001 148.2 59.3001 147.7 58.4001C147.2 57.5001 147 56.4 147 55.1V44.8H150.1V54.7001C150.1 55.8001 150.4 56.7 151 57.3C151.6 58 152.4 58.3 153.4 58.3C154 58.3 154.6 58.2001 155.2 57.9001C155.8 57.6001 156.3 57.2 156.7 56.6C157.1 56 157.3 55.1 157.3 54.2001Z" fill="#242438"/>
<path d="M172.5 60.8999V39.3999H175.6V60.8999H172.5ZM175.4 55.3999V51.5999H175.9L182.3 44.7999H186.1L178.8 52.5999H178.3L175.4 55.3999ZM182.6 60.8999L176.8 53.1999L179 50.9999L186.5 60.7999H182.6V60.8999Z" fill="#15BEE6"/>
<path d="M192 51.3V60.9H188.9V44.8H191.9V47.4H192.1C192.5 46.5 193.1 45.9 193.8 45.3C194.6 44.8 195.6 44.5 196.8 44.5C197.9 44.5 198.9 44.7 199.7 45.2C200.5 45.7 201.2 46.3 201.6 47.2C202.1 48.1 202.3 49.2 202.3 50.5V60.7H199.2V51C199.2 49.8 198.9 48.9 198.3 48.3C197.7 47.6 196.9 47.3 195.8 47.3C195.1 47.3 194.4 47.5 193.9 47.8C193.4 48.1 192.9 48.6 192.6 49.2C192.2 49.7 192 50.5 192 51.3Z" fill="#15BEE6"/>
<path d="M213.3 61.2001C211.8 61.2001 210.5 60.9001 209.3 60.2001C208.2 59.5001 207.3 58.5001 206.7 57.3001C206.1 56.1001 205.8 54.6001 205.8 52.9001C205.8 51.2001 206.1 49.8001 206.7 48.5001C207.3 47.2001 208.2 46.3001 209.3 45.6001C210.4 44.9001 211.7 44.6001 213.3 44.6001C214.9 44.6001 216.1 44.9001 217.3 45.6001C218.4 46.3001 219.3 47.3001 219.9 48.5001C220.5 49.7001 220.8 51.2001 220.8 52.9001C220.8 54.6001 220.5 56.0001 219.9 57.3001C219.3 58.5001 218.4 59.5001 217.3 60.2001C216.1 60.9001 214.8 61.2001 213.3 61.2001ZM213.3 58.6001C214.3 58.6001 215.1 58.3001 215.7 57.8001C216.3 57.3001 216.8 56.6001 217.1 55.7001C217.4 54.8001 217.6 53.9001 217.6 52.9001C217.6 51.9001 217.4 50.9001 217.1 50.1001C216.8 49.2001 216.3 48.5001 215.7 48.0001C215.1 47.5001 214.2 47.2001 213.3 47.2001C212.3 47.2001 211.5 47.5001 210.9 48.0001C210.3 48.5001 209.8 49.2001 209.5 50.1001C209.2 51.0001 209 51.9001 209 52.9001C209 53.9001 209.2 54.9001 209.5 55.7001C209.8 56.6001 210.3 57.2001 210.9 57.8001C211.5 58.3001 212.3 58.6001 213.3 58.6001Z" fill="#15BEE6"/>
<path d="M227.8 60.9001L223.1 44.8H226.3L229.5 56.6H229.7L232.9 44.8H236.1L239.2 56.6H239.4L242.5 44.8H245.7L241 60.9001H237.8L234.5 49.3H234.3L231 60.9001H227.8Z" fill="#15BEE6"/>
<path d="M252.1 54.4999C252.1 53.1999 252.2 52.1999 252.5 51.3999C252.8 50.5999 253.1 49.9999 253.6 49.4999C254.1 48.9999 254.6 48.5999 255.3 48.1999C255.7 47.8999 256.1 47.5999 256.4 47.2999C256.7 46.9999 257 46.5999 257.2 46.1999C257.4 45.7999 257.5 45.2999 257.5 44.7999C257.5 44.1999 257.4 43.5999 257.1 43.1999C256.8 42.6999 256.4 42.3999 255.9 42.0999C255.4 41.7999 254.9 41.6999 254.3 41.6999C253.8 41.6999 253.2 41.7999 252.8 41.9999C252.4 42.1999 251.9 42.5999 251.6 42.9999C251.3 43.3999 251.1 44.0999 251 44.7999H247.8C247.8 43.4999 248.2 42.4999 248.8 41.5999C249.4 40.6999 250.2 40.0999 251.1 39.5999C252 39.0999 253.1 38.8999 254.3 38.8999C255.6 38.8999 256.7 39.0999 257.7 39.5999C258.7 40.0999 259.4 40.6999 259.9 41.5999C260.4 42.4999 260.7 43.4999 260.7 44.5999C260.7 45.3999 260.6 46.0999 260.3 46.6999C260.1 47.2999 259.7 47.8999 259.3 48.3999C258.8 48.8999 258.3 49.2999 257.7 49.6999C257.1 50.0999 256.6 50.4999 256.3 50.8999C255.9 51.2999 255.7 51.7999 255.5 52.2999C255.3 52.7999 255.2 53.4999 255.2 54.2999V54.4999H252.1ZM253.7 61.0999C253.1 61.0999 252.6 60.8999 252.2 60.4999C251.8 60.0999 251.6 59.5999 251.6 58.9999C251.6 58.3999 251.8 57.8999 252.2 57.4999C252.6 57.0999 253.1 56.8999 253.7 56.8999C254.3 56.8999 254.8 57.0999 255.2 57.4999C255.6 57.8999 255.8 58.3999 255.8 58.9999C255.8 59.3999 255.7 59.6999 255.5 60.0999C255.3 60.3999 255.1 60.6999 254.7 60.8999C254.4 60.9999 254 61.0999 253.7 61.0999Z" fill="#15BEE6"/>
<path d="M258 65.6001H171.9V68.2001H258V65.6001Z" fill="#D9F4F9"/>
</g>
</g>
<defs>
<clipPath id="clip0_4_1776">
<rect width="1521" height="255" fill="white"/>
</clipPath>
</defs>
</svg>
