<svg width="1521" height="255" viewBox="0 0 1521 255" fill="none" xmlns="http://www.w3.org/2000/svg">
<mask id="mask0_4_2528" style="mask-type:luminance" maskUnits="userSpaceOnUse" x="0" y="0" width="1521" height="255">
<path d="M1521 0H0V255H1521V0Z" fill="white"/>
</mask>
<g mask="url(#mask0_4_2528)">
<path d="M589.8 65C625.7 65 654.8 35.9 654.8 0H524.8C524.8 35.9 553.9 65 589.8 65Z" fill="#F2FCFF"/>
</g>
<mask id="mask1_4_2528" style="mask-type:luminance" maskUnits="userSpaceOnUse" x="0" y="0" width="1521" height="255">
<path d="M1521 0H0V255H1521V0Z" fill="white"/>
</mask>
<g mask="url(#mask1_4_2528)">
<path d="M1163.8 214.2C1141.3 214.2 1123 232.5 1123 255H1204.6C1204.6 232.5 1186.3 214.2 1163.8 214.2Z" fill="#F2FCFF"/>
</g>
<mask id="mask2_4_2528" style="mask-type:luminance" maskUnits="userSpaceOnUse" x="0" y="0" width="1521" height="255">
<path d="M1521 0H0V255H1521V0Z" fill="white"/>
</mask>
<g mask="url(#mask2_4_2528)">
<path d="M56.9999 64.7C65.0633 64.7 71.5999 58.1634 71.5999 50.1C71.5999 42.0366 65.0633 35.5 56.9999 35.5C48.9365 35.5 42.3999 42.0366 42.3999 50.1C42.3999 58.1634 48.9365 64.7 56.9999 64.7Z" fill="#F9FEFA"/>
</g>
<mask id="mask3_4_2528" style="mask-type:luminance" maskUnits="userSpaceOnUse" x="0" y="0" width="1521" height="255">
<path d="M1521 0H0V255H1521V0Z" fill="white"/>
</mask>
<g mask="url(#mask3_4_2528)">
<path d="M1176.7 125.6L1167.7 119L1174.3 110L1169.8 106.7L1163.2 115.7L1154.4 109.3L1151.1 113.8L1159.9 120.2L1153.4 129L1157.9 132.3L1164.4 123.5L1173.4 130.1L1176.7 125.6Z" fill="#D4F6FF"/>
</g>
<mask id="mask4_4_2528" style="mask-type:luminance" maskUnits="userSpaceOnUse" x="0" y="0" width="1521" height="255">
<path d="M1521 0H0V255H1521V0Z" fill="white"/>
</mask>
<g mask="url(#mask4_4_2528)">
<path d="M1456 192C1461.52 192 1466 187.523 1466 182C1466 176.477 1461.52 172 1456 172C1450.48 172 1446 176.477 1446 182C1446 187.523 1450.48 192 1456 192Z" fill="#F2FCFF"/>
</g>
<mask id="mask5_4_2528" style="mask-type:luminance" maskUnits="userSpaceOnUse" x="0" y="0" width="1521" height="255">
<path d="M1521 0H0V255H1521V0Z" fill="white"/>
</mask>
<g mask="url(#mask5_4_2528)">
<path d="M655 274C667.703 274 678 263.703 678 251C678 238.297 667.703 228 655 228C642.297 228 632 238.297 632 251C632 263.703 642.297 274 655 274Z" fill="#F2FCFF"/>
</g>
<mask id="mask6_4_2528" style="mask-type:luminance" maskUnits="userSpaceOnUse" x="0" y="0" width="1521" height="255">
<path d="M1521 0H0V255H1521V0Z" fill="white"/>
</mask>
<g mask="url(#mask6_4_2528)">
<path d="M56.7 94.6001V89.6001H83.1999V94.6001H72.9V122.8H66.9V94.6001H56.7Z" fill="#77809C"/>
<path d="M93.4999 108.2V122.8H87.5999V89.6001H93.2999V102.1H93.5999C94.1999 100.7 95.0999 99.6001 96.2999 98.8001C97.4999 98.0001 99.0999 97.6001 101 97.6001C102.7 97.6001 104.2 98.0001 105.5 98.7001C106.8 99.4001 107.8 100.5 108.5 101.9C109.2 103.3 109.6 105 109.6 107V122.9H103.7V107.9C103.7 106.2 103.3 104.9 102.4 104C101.5 103.1 100.3 102.6 98.7999 102.6C97.7999 102.6 96.7999 102.8 95.9999 103.3C95.1999 103.7 94.4999 104.4 94.0999 105.2C93.6999 106 93.4999 107 93.4999 108.2Z" fill="#77809C"/>
<path d="M126.2 123.3C123.7 123.3 121.5 122.8 119.7 121.7C117.9 120.7 116.5 119.2 115.5 117.3C114.5 115.4 114 113.1 114 110.5C114 107.9 114.5 105.7 115.5 103.7C116.5 101.8 117.8 100.2 119.6 99.2001C121.4 98.2001 123.4 97.6001 125.8 97.6001C127.3 97.6001 128.8 97.8001 130.2 98.3001C131.6 98.8001 132.8 99.6001 133.8 100.6C134.9 101.6 135.7 102.9 136.3 104.5C136.9 106.1 137.2 108 137.2 110.2V112H116.8V108H131.6C131.6 106.9 131.3 105.9 130.9 105C130.4 104.1 129.8 103.4 128.9 102.9C128.1 102.4 127.1 102.1 125.9 102.1C124.7 102.1 123.6 102.4 122.7 103C121.8 103.6 121.1 104.3 120.6 105.3C120.1 106.3 119.8 107.3 119.8 108.4V111.9C119.8 113.3 120.1 114.6 120.6 115.6C121.1 116.6 121.9 117.4 122.8 118C123.8 118.5 124.9 118.8 126.1 118.8C127 118.8 127.7 118.7 128.4 118.4C129.1 118.2 129.7 117.8 130.2 117.3C130.7 116.8 131.1 116.2 131.4 115.5L136.9 116.1C136.6 117.5 135.9 118.8 134.9 119.9C133.9 121 132.7 121.8 131.2 122.4C129.8 123 128.1 123.3 126.2 123.3Z" fill="#77809C"/>
<path d="M141.8 122.8V97.9001H147.5V102.1H147.8C148.3 100.7 149 99.6001 150.1 98.8001C151.2 98.0001 152.5 97.6001 153.9 97.6001C154.2 97.6001 154.6 97.6001 155 97.6001C155.4 97.6001 155.7 97.7001 156 97.7001V103.1C155.8 103 155.4 102.9 154.8 102.9C154.2 102.9 153.7 102.8 153.3 102.8C152.2 102.8 151.3 103 150.4 103.5C149.5 104 148.9 104.6 148.4 105.4C147.9 106.2 147.7 107.1 147.7 108.2V122.8H141.8Z" fill="#77809C"/>
<path d="M170.4 123.3C167.9 123.3 165.7 122.8 163.9 121.7C162.1 120.7 160.7 119.2 159.7 117.3C158.7 115.4 158.2 113.1 158.2 110.5C158.2 107.9 158.7 105.7 159.7 103.7C160.7 101.8 162 100.2 163.8 99.2001C165.6 98.2001 167.6 97.6001 170 97.6001C171.5 97.6001 173 97.8001 174.4 98.3001C175.8 98.8001 177 99.6001 178 100.6C179.1 101.6 179.9 102.9 180.5 104.5C181.1 106.1 181.4 108 181.4 110.2V112H161V108H175.8C175.8 106.9 175.5 105.9 175.1 105C174.6 104.1 174 103.4 173.1 102.9C172.3 102.4 171.3 102.1 170.1 102.1C168.9 102.1 167.8 102.4 166.9 103C166 103.6 165.3 104.3 164.8 105.3C164.3 106.3 164 107.3 164 108.4V111.9C164 113.3 164.3 114.6 164.8 115.6C165.3 116.6 166.1 117.4 167 118C168 118.5 169.1 118.8 170.3 118.8C171.2 118.8 171.9 118.7 172.6 118.4C173.3 118.2 173.9 117.8 174.4 117.3C174.9 116.8 175.3 116.2 175.6 115.5L181.1 116.1C180.8 117.5 180.1 118.8 179.1 119.9C178.1 121 176.9 121.8 175.4 122.4C174.1 123 172.4 123.3 170.4 123.3Z" fill="#77809C"/>
<path d="M202.1 122.8L195.1 97.8999H201.1L205.5 115.4H205.7L210.2 97.8999H216.1L220.6 115.3H220.8L225.1 97.8999H231.1L224 122.8H217.9L213.2 106H212.9L208.2 122.8H202.1Z" fill="#77809C"/>
<path d="M245.7 123.3C243.2 123.3 241 122.8 239.2 121.7C237.4 120.7 236 119.2 235 117.3C234 115.4 233.5 113.1 233.5 110.5C233.5 107.9 234 105.7 235 103.7C236 101.8 237.3 100.2 239.1 99.2001C240.9 98.2001 242.9 97.6001 245.3 97.6001C246.8 97.6001 248.3 97.8001 249.7 98.3001C251.1 98.8001 252.3 99.6001 253.3 100.6C254.4 101.6 255.2 102.9 255.8 104.5C256.4 106.1 256.7 108 256.7 110.2V112H236.3V108H251.1C251.1 106.9 250.8 105.9 250.4 105C249.9 104.1 249.3 103.4 248.4 102.9C247.6 102.4 246.6 102.1 245.4 102.1C244.2 102.1 243.1 102.4 242.2 103C241.3 103.6 240.6 104.3 240.1 105.3C239.6 106.3 239.3 107.3 239.3 108.4V111.9C239.3 113.3 239.6 114.6 240.1 115.6C240.6 116.6 241.4 117.4 242.3 118C243.3 118.5 244.4 118.8 245.6 118.8C246.5 118.8 247.2 118.7 247.9 118.4C248.6 118.2 249.2 117.8 249.7 117.3C250.2 116.8 250.6 116.2 250.9 115.5L256.4 116.1C256.1 117.5 255.4 118.8 254.4 119.9C253.4 121 252.2 121.8 250.7 122.4C249.4 123 247.7 123.3 245.7 123.3Z" fill="#77809C"/>
<path d="M261.3 122.8V97.9001H267V102.1H267.3C267.8 100.7 268.5 99.6001 269.6 98.8001C270.7 98.0001 272 97.6001 273.4 97.6001C273.7 97.6001 274.1 97.6001 274.5 97.6001C274.9 97.6001 275.2 97.7001 275.5 97.7001V103.1C275.3 103 274.9 102.9 274.3 102.9C273.7 102.9 273.2 102.8 272.8 102.8C271.7 102.8 270.8 103 269.9 103.5C269 104 268.4 104.6 267.9 105.4C267.4 106.2 267.2 107.1 267.2 108.2V122.8H261.3Z" fill="#77809C"/>
<path d="M290 123.3C287.5 123.3 285.3 122.8 283.5 121.7C281.7 120.7 280.3 119.2 279.3 117.3C278.3 115.4 277.8 113.1 277.8 110.5C277.8 107.9 278.3 105.7 279.3 103.7C280.3 101.8 281.6 100.2 283.4 99.2001C285.2 98.2001 287.2 97.6001 289.6 97.6001C291.1 97.6001 292.6 97.8001 294 98.3001C295.4 98.8001 296.6 99.6001 297.6 100.6C298.7 101.6 299.5 102.9 300.1 104.5C300.7 106.1 301 108 301 110.2V112H280.6V108H295.4C295.4 106.9 295.1 105.9 294.7 105C294.2 104.1 293.6 103.4 292.7 102.9C291.9 102.4 290.9 102.1 289.7 102.1C288.5 102.1 287.4 102.4 286.5 103C285.6 103.6 284.9 104.3 284.4 105.3C283.9 106.3 283.6 107.3 283.6 108.4V111.9C283.6 113.3 283.9 114.6 284.4 115.6C284.9 116.6 285.7 117.4 286.6 118C287.6 118.5 288.7 118.8 289.9 118.8C290.8 118.8 291.5 118.7 292.2 118.4C292.9 118.2 293.5 117.8 294 117.3C294.5 116.8 294.9 116.2 295.2 115.5L300.7 116.1C300.4 117.5 299.7 118.8 298.7 119.9C297.7 121 296.5 121.8 295 122.4C293.7 123 292 123.3 290 123.3Z" fill="#77809C"/>
<path d="M328.6 123.2C327 123.2 325.5 122.9 323.9 122.4C322.4 121.9 321 121 319.8 119.7C318.6 118.5 317.6 116.8 316.9 114.8C316.2 112.7 315.8 110.2 315.8 107.1C315.8 104.3 316.1 101.7 316.7 99.5001C317.3 97.3001 318.2 95.4001 319.3 93.8001C320.4 92.3001 321.8 91.1001 323.4 90.3001C325 89.5001 326.8 89.1001 328.8 89.1001C330.9 89.1001 332.7 89.5001 334.4 90.3001C336 91.1001 337.3 92.2001 338.3 93.7001C339.3 95.1001 339.9 96.7001 340.1 98.5001H334.2C333.9 97.2001 333.3 96.2001 332.3 95.4001C331.3 94.6001 330.2 94.3001 328.8 94.3001C326.5 94.3001 324.7 95.3001 323.5 97.3001C322.3 99.3001 321.6 102 321.6 105.5H321.8C322.3 104.5 323 103.7 323.9 103.1C324.7 102.4 325.7 101.9 326.8 101.5C327.9 101.1 329 100.9 330.2 100.9C332.1 100.9 333.9 101.4 335.4 102.3C337 103.2 338.2 104.5 339.1 106.1C340 107.7 340.5 109.6 340.4 111.7C340.4 113.9 339.9 115.8 338.9 117.6C337.9 119.3 336.5 120.7 334.7 121.7C333.1 122.8 331 123.2 328.6 123.2ZM328.6 118.4C329.8 118.4 330.8 118.1 331.8 117.5C332.7 116.9 333.5 116.2 334 115.2C334.5 114.2 334.8 113.1 334.8 111.9C334.8 110.7 334.6 109.6 334 108.7C333.5 107.7 332.8 107 331.8 106.4C330.8 105.8 329.8 105.6 328.7 105.6C327.8 105.6 327 105.8 326.3 106.1C325.5 106.4 324.9 106.9 324.3 107.5C323.7 108.1 323.3 108.8 323 109.5C322.7 110.3 322.5 111.1 322.5 112C322.5 113.2 322.8 114.2 323.3 115.2C323.8 116.2 324.6 117 325.5 117.5C326.3 118.1 327.4 118.4 328.6 118.4Z" fill="#242438"/>
<path d="M352.5 118.2L352.3 120C352.1 121.4 351.9 122.8 351.5 124.2C351.1 125.6 350.7 126.9 350.3 128.1C349.9 129.3 349.5 130.2 349.3 130.9H345.3C345.5 130.2 345.7 129.3 345.9 128.2C346.1 127.1 346.4 125.8 346.7 124.4C346.9 123 347.1 121.5 347.2 120.1L347.3 118.3H352.5V118.2Z" fill="#242438"/>
<path d="M359.8 122.8L373.9 94.8001V94.6001H357.5V89.6001H380.1V94.7001L366 122.8H359.8Z" fill="#242438"/>
<path d="M398.5 89.6001V122.8H392.5V95.4001H392.3L384.5 100.4V94.9001L392.8 89.6001H398.5Z" fill="#242438"/>
<path d="M407.7 122.8L421.8 94.8001V94.6001H405.4V89.6001H428V94.7001L413.9 122.8H407.7Z" fill="#242438"/>
<path d="M444 89.6001H451.4L461.3 113.7H461.7L471.6 89.6001H479V122.8H473.2V100H472.9L463.7 122.7H459.4L450.2 99.9001H449.9V122.8H444V89.6001Z" fill="#77809C"/>
<path d="M495.7 123.3C493.2 123.3 491 122.8 489.2 121.7C487.4 120.7 486 119.2 485 117.3C484 115.4 483.5 113.1 483.5 110.5C483.5 107.9 484 105.7 485 103.7C486 101.8 487.3 100.2 489.1 99.2001C490.9 98.2001 492.9 97.6001 495.3 97.6001C496.8 97.6001 498.3 97.8001 499.7 98.3001C501.1 98.8001 502.3 99.6001 503.3 100.6C504.4 101.6 505.2 102.9 505.8 104.5C506.4 106.1 506.7 108 506.7 110.2V112H486.3V108H501.1C501.1 106.9 500.8 105.9 500.4 105C499.9 104.1 499.3 103.4 498.4 102.9C497.6 102.4 496.6 102.1 495.4 102.1C494.2 102.1 493.1 102.4 492.2 103C491.3 103.6 490.6 104.3 490.1 105.3C489.6 106.3 489.3 107.3 489.3 108.4V111.9C489.3 113.3 489.6 114.6 490.1 115.6C490.6 116.6 491.4 117.4 492.3 118C493.3 118.5 494.4 118.8 495.6 118.8C496.5 118.8 497.2 118.7 497.9 118.4C498.6 118.2 499.2 117.8 499.7 117.3C500.2 116.8 500.6 116.2 500.9 115.5L506.4 116.1C506.1 117.5 505.4 118.8 504.4 119.9C503.4 121 502.2 121.8 500.7 122.4C499.4 123 497.7 123.3 495.7 123.3Z" fill="#77809C"/>
<path d="M511.3 122.8V97.9001H517V102.1H517.3C517.8 100.7 518.5 99.6001 519.6 98.8001C520.7 98.0001 522 97.6001 523.4 97.6001C523.7 97.6001 524.1 97.6001 524.5 97.6001C524.9 97.6001 525.2 97.7001 525.5 97.7001V103.1C525.3 103 524.9 102.9 524.3 102.9C523.7 102.9 523.2 102.8 522.8 102.8C521.7 102.8 520.8 103 519.9 103.5C519 104 518.4 104.6 517.9 105.4C517.4 106.2 517.2 107.1 517.2 108.2V122.8H511.3Z" fill="#77809C"/>
<path d="M539.8 132.6C537.7 132.6 535.9 132.3 534.4 131.7C532.9 131.1 531.7 130.4 530.8 129.4C529.9 128.4 529.2 127.4 528.9 126.2L534.2 124.9C534.4 125.4 534.8 125.9 535.2 126.4C535.7 126.9 536.3 127.3 537 127.6C537.8 127.9 538.7 128.1 539.9 128.1C541.6 128.1 542.9 127.7 544 126.9C545.1 126.1 545.6 124.8 545.6 122.9V118.2H545.3C545 118.8 544.6 119.4 544 120.1C543.4 120.7 542.7 121.3 541.7 121.7C540.8 122.1 539.6 122.3 538.1 122.3C536.2 122.3 534.5 121.8 532.9 120.9C531.3 120 530.1 118.6 529.2 116.8C528.3 115 527.8 112.7 527.8 110C527.8 107.3 528.3 105 529.2 103.1C530.1 101.2 531.3 99.7998 532.9 98.7998C534.5 97.7998 536.2 97.2998 538.1 97.2998C539.6 97.2998 540.8 97.4998 541.7 97.9998C542.6 98.4998 543.4 99.0998 544 99.7998C544.6 100.5 545 101.1 545.3 101.7H545.6V97.5998H551.4V122.9C551.4 125 550.9 126.8 549.9 128.2C548.9 129.6 547.5 130.6 545.7 131.3C543.9 132 542 132.6 539.8 132.6ZM539.9 117.8C541.1 117.8 542.2 117.5 543.1 116.9C544 116.3 544.6 115.4 545.1 114.3C545.6 113.2 545.8 111.8 545.8 110.2C545.8 108.6 545.6 107.3 545.1 106.1C544.7 104.9 544 104 543.1 103.4C542.2 102.8 541.2 102.4 539.9 102.4C538.6 102.4 537.5 102.7 536.6 103.4C535.7 104.1 535.1 105 534.6 106.2C534.2 107.4 533.9 108.7 533.9 110.2C533.9 111.7 534.1 113.1 534.6 114.2C535 115.3 535.7 116.2 536.6 116.9C537.5 117.5 538.6 117.8 539.9 117.8Z" fill="#77809C"/>
<path d="M568.1 123.3C565.6 123.3 563.4 122.8 561.6 121.7C559.8 120.7 558.4 119.2 557.4 117.3C556.4 115.4 555.9 113.1 555.9 110.5C555.9 107.9 556.4 105.7 557.4 103.7C558.4 101.8 559.7 100.2 561.5 99.2001C563.3 98.2001 565.3 97.6001 567.7 97.6001C569.2 97.6001 570.7 97.8001 572.1 98.3001C573.5 98.8001 574.7 99.6001 575.7 100.6C576.8 101.6 577.6 102.9 578.2 104.5C578.8 106.1 579.1 108 579.1 110.2V112H558.7V108H573.5C573.5 106.9 573.2 105.9 572.8 105C572.3 104.1 571.7 103.4 570.8 102.9C570 102.4 569 102.1 567.8 102.1C566.6 102.1 565.5 102.4 564.6 103C563.7 103.6 563 104.3 562.5 105.3C562 106.3 561.7 107.3 561.7 108.4V111.9C561.7 113.3 562 114.6 562.5 115.6C563 116.6 563.8 117.4 564.7 118C565.7 118.5 566.8 118.8 568 118.8C568.9 118.8 569.6 118.7 570.3 118.4C571 118.2 571.6 117.8 572.1 117.3C572.6 116.8 573 116.2 573.3 115.5L578.8 116.1C578.5 117.5 577.8 118.8 576.8 119.9C575.8 121 574.6 121.8 573.1 122.4C571.8 123 570 123.3 568.1 123.3Z" fill="#77809C"/>
<path d="M583.7 122.8V97.9001H589.4V102.1H589.7C590.2 100.7 590.9 99.6001 592 98.8001C593.1 98.0001 594.4 97.6001 595.8 97.6001C596.1 97.6001 596.5 97.6001 596.9 97.6001C597.3 97.6001 597.6 97.7001 597.9 97.7001V103.1C597.7 103 597.3 102.9 596.7 102.9C596.1 102.9 595.6 102.8 595.2 102.8C594.1 102.8 593.2 103 592.3 103.5C591.4 104 590.8 104.6 590.3 105.4C589.8 106.2 589.6 107.1 589.6 108.2V122.8H583.7Z" fill="#77809C"/>
<path d="M622.2 123.3C619.9 123.3 618 122.9 616.3 122.1C614.7 121.3 613.4 120.2 612.5 118.8C611.6 117.4 611.2 115.8 611.2 114.1C611.2 112.8 611.5 111.6 612 110.6C612.5 109.6 613.3 108.6 614.3 107.7C615.3 106.8 616.4 106 617.7 105.1L623.6 101.1C624.5 100.5 625.1 99.9002 625.6 99.3002C626.1 98.7002 626.3 97.9002 626.3 97.1002C626.3 96.4002 626 95.7002 625.4 95.1002C624.8 94.5002 624 94.1002 622.9 94.1002C622.2 94.1002 621.6 94.3002 621 94.6002C620.4 94.9002 620 95.4002 619.8 95.9002C619.5 96.4002 619.4 97.0002 619.4 97.6002C619.4 98.3002 619.6 99.1002 620 99.8002C620.4 100.5 620.9 101.3 621.6 102.1C622.3 102.9 623 103.7 623.7 104.6L639.3 122.9H632.9L619.9 108C618.9 106.9 618 105.8 617.1 104.7C616.2 103.6 615.5 102.5 614.9 101.3C614.3 100.1 614 98.8002 614 97.4002C614 95.8002 614.4 94.4002 615.1 93.2002C615.8 92.0002 616.8 91.0002 618.1 90.3002C619.4 89.6002 620.9 89.2002 622.7 89.2002C624.5 89.2002 626 89.5002 627.2 90.2002C628.5 90.9002 629.4 91.8002 630.1 93.0002C630.8 94.2002 631.1 95.4002 631.1 96.7002C631.1 98.3002 630.7 99.7002 629.9 100.9C629.1 102.1 628 103.3 626.7 104.3L620 109.2C618.9 110 618.1 110.8 617.6 111.6C617.1 112.4 616.9 113.1 616.9 113.7C616.9 114.6 617.1 115.4 617.6 116.1C618.1 116.8 618.7 117.4 619.5 117.8C620.3 118.2 621.2 118.4 622.3 118.4C623.5 118.4 624.7 118.1 625.8 117.6C626.9 117.1 628 116.3 629 115.3C630 114.3 630.7 113.1 631.3 111.7C631.9 110.3 632.1 108.8 632.1 107.1H637.1C637.1 109.2 636.9 111 636.4 112.6C635.9 114.2 635.3 115.5 634.6 116.5C633.9 117.6 633.1 118.4 632.3 119.1C632 119.3 631.8 119.5 631.6 119.7C631.4 119.9 631.1 120.1 630.9 120.3C629.7 121.4 628.4 122.1 626.8 122.6C625.2 123.1 623.7 123.3 622.2 123.3Z" fill="#77809C"/>
<path d="M657.5 122.8H651L662.7 89.6001H670.1L681.8 122.8H675.4L666.5 96.4001H666.2L657.5 122.8ZM657.7 109.8H675.2V114.6H657.7V109.8Z" fill="#77809C"/>
<path d="M696.4 123.3C693.9 123.3 691.8 122.8 690 121.7C688.2 120.6 686.9 119.1 685.9 117.2C684.9 115.3 684.5 113 684.5 110.5C684.5 108 685 105.7 686 103.8C687 101.9 688.3 100.3 690.1 99.3002C691.9 98.3002 694 97.7002 696.4 97.7002C698.4 97.7002 700.2 98.1002 701.8 98.8002C703.4 99.5002 704.6 100.6 705.5 101.9C706.4 103.2 707 104.8 707.1 106.6H701.5C701.3 105.4 700.7 104.4 699.9 103.6C699.1 102.8 697.9 102.4 696.5 102.4C695.3 102.4 694.2 102.7 693.3 103.4C692.4 104 691.7 105 691.2 106.2C690.7 107.4 690.4 108.8 690.4 110.5C690.4 112.2 690.6 113.7 691.1 114.9C691.6 116.1 692.3 117.1 693.2 117.7C694.1 118.3 695.2 118.7 696.4 118.7C697.3 118.7 698 118.5 698.7 118.2C699.4 117.9 700 117.4 700.4 116.8C700.9 116.2 701.2 115.4 701.4 114.5H707C706.9 116.3 706.3 117.8 705.4 119.2C704.5 120.6 703.3 121.6 701.7 122.4C700.3 122.9 698.5 123.3 696.4 123.3Z" fill="#77809C"/>
<path d="M728.1 132.1V118.8H727.9C727.6 119.4 727.2 120 726.6 120.7C726 121.4 725.3 122 724.3 122.4C723.4 122.9 722.2 123.1 720.7 123.1C718.7 123.1 717 122.6 715.4 121.6C713.9 120.6 712.6 119.1 711.7 117.2C710.8 115.3 710.4 113 710.4 110.2C710.4 107.4 710.9 105.1 711.8 103.2C712.7 101.3 713.9 99.7999 715.5 98.8999C717.1 97.8999 718.8 97.3999 720.7 97.3999C722.2 97.3999 723.4 97.5999 724.3 98.0999C725.2 98.5999 726 99.1999 726.5 99.8999C727.1 100.6 727.5 101.2 727.8 101.8H728.2V97.6999H734V132H728.1V132.1ZM722.3 118.4C723.5 118.4 724.6 118.1 725.5 117.4C726.4 116.7 727 115.8 727.5 114.6C728 113.4 728.2 112 728.2 110.4C728.2 108.8 728 107.4 727.5 106.2C727 105 726.4 104.1 725.5 103.4C724.6 102.7 723.6 102.4 722.3 102.4C721 102.4 719.9 102.7 719 103.4C718.1 104.1 717.5 105 717 106.2C716.5 107.4 716.3 108.8 716.3 110.3C716.3 111.9 716.5 113.2 717 114.5C717.4 115.7 718.1 116.7 719 117.4C720 118.1 721.1 118.4 722.3 118.4Z" fill="#77809C"/>
<path d="M755.4 112.3V97.8999H761.3V122.8H755.6V118.4H755.3C754.7 119.8 753.8 120.9 752.5 121.8C751.2 122.7 749.6 123.1 747.8 123.1C746.2 123.1 744.7 122.7 743.5 122C742.3 121.3 741.3 120.2 740.6 118.8C739.9 117.4 739.5 115.7 739.5 113.7V97.8999H745.4V112.9C745.4 114.5 745.8 115.7 746.7 116.7C747.6 117.6 748.7 118.1 750.1 118.1C751 118.1 751.8 117.9 752.6 117.5C753.4 117.1 754.1 116.4 754.6 115.6C755.2 114.6 755.4 113.6 755.4 112.3Z" fill="#77809C"/>
<path d="M769.8 94.3C768.9 94.3 768.1 94 767.4 93.4C766.7 92.8 766.4 92 766.4 91.1C766.4 90.2 766.7 89.5 767.4 88.9C768.1 88.3 768.9 88 769.8 88C770.7 88 771.5 88.3 772.2 88.9C772.9 89.5 773.2 90.3 773.2 91.2C773.2 92.1 772.9 92.8 772.2 93.4C771.6 94 770.8 94.3 769.8 94.3ZM766.9 122.8V97.9H772.8V122.8H766.9Z" fill="#77809C"/>
<path d="M798 104.5L792.6 105.1C792.4 104.6 792.2 104.1 791.8 103.6C791.4 103.1 790.9 102.7 790.3 102.4C789.7 102.1 788.9 102 788 102C786.8 102 785.8 102.3 784.9 102.8C784.1 103.3 783.7 104 783.7 104.9C783.7 105.6 784 106.2 784.5 106.7C785 107.2 786 107.5 787.2 107.8L791.4 108.7C793.8 109.2 795.5 110 796.7 111.1C797.9 112.2 798.4 113.6 798.4 115.4C798.4 117 797.9 118.4 797 119.5C796.1 120.7 794.8 121.6 793.2 122.3C791.6 123 789.8 123.3 787.7 123.3C784.7 123.3 782.2 122.7 780.3 121.4C778.4 120.1 777.3 118.3 777 116L782.7 115.4C783 116.5 783.5 117.4 784.4 117.9C785.3 118.4 786.3 118.8 787.7 118.8C789.1 118.8 790.2 118.5 791.1 117.9C791.9 117.3 792.4 116.6 792.4 115.8C792.4 115.1 792.1 114.5 791.6 114C791.1 113.5 790.2 113.2 789.1 112.9L784.8 112C782.4 111.5 780.6 110.7 779.5 109.5C778.4 108.3 777.8 106.8 777.8 105C777.8 103.5 778.2 102.1 779.1 101C780 99.9 781.1 99 782.7 98.4C784.2 97.8 786 97.5 788 97.5C790.9 97.5 793.2 98.1 794.9 99.4C796.6 100.7 797.6 102.3 798 104.5Z" fill="#77809C"/>
<path d="M805.9 94.3C805 94.3 804.2 94 803.5 93.4C802.8 92.8 802.5 92 802.5 91.1C802.5 90.2 802.8 89.5 803.5 88.9C804.2 88.3 805 88 805.9 88C806.8 88 807.6 88.3 808.3 88.9C809 89.5 809.3 90.3 809.3 91.2C809.3 92.1 809 92.8 808.3 93.4C807.6 94 806.8 94.3 805.9 94.3ZM802.9 122.8V97.9H808.8V122.8H802.9Z" fill="#77809C"/>
<path d="M826.8 97.8999V102.4H812.5V97.8999H826.8ZM816 91.8999H821.9V115.3C821.9 116.1 822 116.7 822.3 117.1C822.5 117.5 822.9 117.8 823.3 118C823.7 118.2 824.1 118.2 824.6 118.2C825 118.2 825.3 118.2 825.6 118.1C825.9 118 826.1 118 826.3 118L827.3 122.6C827 122.7 826.5 122.8 826 123C825.4 123.1 824.7 123.2 823.9 123.2C822.4 123.2 821.1 123 819.9 122.5C818.7 122 817.8 121.2 817.1 120.2C816.4 119.2 816.1 117.9 816.1 116.3V91.8999H816Z" fill="#77809C"/>
<path d="M834.2 94.3C833.3 94.3 832.5 94 831.8 93.4C831.1 92.8 830.8 92 830.8 91.1C830.8 90.2 831.1 89.5 831.8 88.9C832.5 88.3 833.3 88 834.2 88C835.1 88 835.9 88.3 836.6 88.9C837.3 89.5 837.6 90.3 837.6 91.2C837.6 92.1 837.3 92.8 836.6 93.4C836 94 835.2 94.3 834.2 94.3ZM831.3 122.8V97.9H837.2V122.8H831.3Z" fill="#77809C"/>
<path d="M853.6 123.3C851.2 123.3 849.1 122.8 847.3 121.7C845.5 120.6 844.1 119.1 843.2 117.2C842.2 115.3 841.7 113 841.7 110.5C841.7 107.9 842.2 105.7 843.2 103.7C844.2 101.8 845.6 100.3 847.3 99.2001C849.1 98.1001 851.2 97.6001 853.6 97.6001C856 97.6001 858.1 98.1001 859.9 99.2001C861.7 100.3 863.1 101.8 864 103.7C865 105.6 865.5 107.9 865.5 110.5C865.5 113.1 865 115.3 864 117.2C863 119.1 861.6 120.6 859.9 121.7C858.1 122.7 856 123.3 853.6 123.3ZM853.6 118.6C854.9 118.6 856 118.2 856.9 117.5C857.8 116.8 858.4 115.8 858.9 114.6C859.3 113.4 859.6 112 859.6 110.5C859.6 109 859.4 107.6 858.9 106.4C858.4 105.2 857.8 104.2 856.9 103.4C856 102.7 854.9 102.3 853.6 102.3C852.2 102.3 851.1 102.7 850.2 103.4C849.3 104.1 848.6 105.1 848.2 106.4C847.8 107.7 847.5 109 847.5 110.5C847.5 112 847.7 113.4 848.2 114.6C848.6 115.8 849.3 116.8 850.2 117.5C851.2 118.2 852.3 118.6 853.6 118.6Z" fill="#77809C"/>
<path d="M875.9 108.2V122.8H870V97.9001H875.6V102.1H875.9C876.5 100.7 877.4 99.6001 878.6 98.8001C879.9 98.0001 881.4 97.6001 883.3 97.6001C885 97.6001 886.5 98.0001 887.8 98.7001C889.1 99.4001 890.1 100.5 890.8 101.9C891.5 103.3 891.9 105 891.8 107V122.9H886V107.9C886 106.2 885.6 104.9 884.7 104C883.8 103.1 882.7 102.6 881.1 102.6C880.1 102.6 879.2 102.8 878.4 103.3C877.6 103.7 877 104.4 876.5 105.2C876 106 875.9 107 875.9 108.2Z" fill="#77809C"/>
<path d="M917.6 123.2C915.6 123.2 913.9 122.7 912.3 121.7C910.8 120.7 909.5 119.2 908.6 117.3C907.7 115.4 907.3 113.1 907.3 110.3C907.3 107.5 907.8 105.2 908.7 103.3C909.6 101.4 910.8 99.9001 912.4 99.0001C914 98.0001 915.7 97.5001 917.6 97.5001C919.1 97.5001 920.3 97.7001 921.2 98.2001C922.1 98.7001 922.9 99.3001 923.4 100C924 100.7 924.4 101.3 924.7 101.9H924.9V89.6001H930.8V122.8H925V118.9H924.6C924.3 119.5 923.9 120.1 923.3 120.8C922.7 121.5 922 122.1 921 122.5C920.2 123 919 123.2 917.6 123.2ZM919.2 118.4C920.4 118.4 921.5 118.1 922.4 117.4C923.3 116.7 923.9 115.8 924.4 114.6C924.9 113.4 925.1 112 925.1 110.4C925.1 108.8 924.9 107.4 924.4 106.2C923.9 105 923.3 104.1 922.4 103.4C921.5 102.7 920.5 102.4 919.2 102.4C917.9 102.4 916.8 102.7 915.9 103.4C915 104.1 914.4 105 913.9 106.2C913.4 107.4 913.2 108.8 913.2 110.3C913.2 111.9 913.4 113.2 913.9 114.5C914.3 115.7 915 116.7 915.9 117.4C916.8 118.1 917.9 118.4 919.2 118.4Z" fill="#77809C"/>
<path d="M947.7 123.3C945.2 123.3 943 122.8 941.2 121.7C939.4 120.7 938 119.2 937 117.3C936 115.4 935.5 113.1 935.5 110.5C935.5 107.9 936 105.7 937 103.7C938 101.8 939.3 100.2 941.1 99.2001C942.9 98.2001 944.9 97.6001 947.3 97.6001C948.8 97.6001 950.3 97.8001 951.7 98.3001C953.1 98.8001 954.3 99.6001 955.3 100.6C956.4 101.6 957.2 102.9 957.8 104.5C958.4 106.1 958.7 108 958.7 110.2V112H938.3V108H953.1C953.1 106.9 952.8 105.9 952.4 105C951.9 104.1 951.3 103.4 950.4 102.9C949.6 102.4 948.6 102.1 947.4 102.1C946.2 102.1 945.1 102.4 944.2 103C943.3 103.6 942.6 104.3 942.1 105.3C941.6 106.3 941.3 107.3 941.3 108.4V111.9C941.3 113.3 941.6 114.6 942.1 115.6C942.6 116.6 943.4 117.4 944.3 118C945.3 118.5 946.4 118.8 947.6 118.8C948.5 118.8 949.2 118.7 949.9 118.4C950.6 118.2 951.2 117.8 951.7 117.3C952.2 116.8 952.6 116.2 952.9 115.5L958.4 116.1C958.1 117.5 957.4 118.8 956.4 119.9C955.4 121 954.2 121.8 952.7 122.4C951.3 123 949.6 123.3 947.7 123.3Z" fill="#77809C"/>
<path d="M970.4 123.3C968.8 123.3 967.4 123 966.1 122.4C964.8 121.8 963.8 121 963.1 119.9C962.4 118.8 962 117.4 962 115.8C962 114.4 962.3 113.2 962.8 112.3C963.3 111.4 964 110.6 964.9 110.1C965.8 109.5 966.8 109.1 967.9 108.8C969 108.5 970.2 108.3 971.4 108.2C972.9 108 974 107.9 975 107.8C975.9 107.7 976.6 107.5 977 107.2C977.4 106.9 977.6 106.5 977.6 106V105.9C977.6 104.7 977.2 103.7 976.5 103.1C975.8 102.4 974.7 102.1 973.4 102.1C972 102.1 970.8 102.4 970 103C969.2 103.6 968.6 104.4 968.3 105.2L962.8 104.4C963.2 102.9 963.9 101.6 964.9 100.6C965.9 99.6 967.1 98.8 968.5 98.3C969.9 97.8 971.5 97.5 973.3 97.5C974.5 97.5 975.7 97.6 976.9 97.9C978.1 98.2 979.2 98.6 980.2 99.3C981.2 99.9 982 100.8 982.6 101.9C983.2 103 983.5 104.4 983.5 106V122.7H978V119.3H977.8C977.4 120 976.9 120.6 976.3 121.2C975.7 121.8 974.9 122.3 973.9 122.6C972.9 123.1 971.7 123.3 970.4 123.3ZM972 119C973.2 119 974.2 118.8 975.1 118.3C976 117.8 976.6 117.2 977.1 116.4C977.6 115.6 977.8 114.8 977.8 113.9V111C977.6 111.2 977.3 111.3 976.9 111.4C976.5 111.5 976 111.6 975.4 111.7C974.9 111.8 974.3 111.9 973.8 112C973.3 112.1 972.8 112.1 972.4 112.2C971.5 112.3 970.7 112.5 970 112.8C969.3 113.1 968.8 113.4 968.4 113.9C968 114.4 967.8 115 967.8 115.8C967.8 116.9 968.2 117.7 969 118.2C969.7 118.7 970.8 119 972 119Z" fill="#77809C"/>
<path d="M994.9 89.6001V122.8H989V89.6001H994.9Z" fill="#77809C"/>
<path d="M1020.2 104.5L1014.8 105.1C1014.6 104.6 1014.4 104.1 1014 103.6C1013.6 103.1 1013.1 102.7 1012.5 102.4C1011.9 102.1 1011.1 102 1010.2 102C1009 102 1008 102.3 1007.1 102.8C1006.3 103.3 1005.9 104 1005.9 104.9C1005.9 105.6 1006.2 106.2 1006.7 106.7C1007.2 107.2 1008.2 107.5 1009.4 107.8L1013.6 108.7C1016 109.2 1017.7 110 1018.9 111.1C1020.1 112.2 1020.6 113.6 1020.6 115.4C1020.6 117 1020.1 118.4 1019.2 119.5C1018.3 120.7 1017 121.6 1015.4 122.3C1013.8 123 1012 123.3 1009.9 123.3C1006.9 123.3 1004.4 122.7 1002.5 121.4C1000.6 120.1 999.5 118.3 999.2 116L1004.9 115.4C1005.2 116.5 1005.7 117.4 1006.6 117.9C1007.5 118.4 1008.5 118.8 1009.9 118.8C1011.3 118.8 1012.4 118.5 1013.3 117.9C1014.1 117.3 1014.6 116.6 1014.6 115.8C1014.6 115.1 1014.3 114.5 1013.8 114C1013.3 113.5 1012.4 113.2 1011.3 112.9L1007.1 112C1004.7 111.5 1002.9 110.7 1001.8 109.5C1000.7 108.3 1000.1 106.8 1000.1 105C1000.1 103.5 1000.5 102.1 1001.4 101C1002.2 99.9 1003.4 99 1005 98.4C1006.6 97.8 1008.3 97.5 1010.3 97.5C1013.2 97.5 1015.5 98.1 1017.2 99.4C1018.8 100.7 1019.8 102.3 1020.2 104.5Z" fill="#77809C"/>
<path d="M80.1999 152.7L71.2999 177.6H64.7999L55.8999 152.7H62.1999L67.8999 171.2H68.1999L73.8999 152.7H80.1999Z" fill="#77809C"/>
<path d="M90.9 178.1C89.3 178.1 87.9 177.8 86.6 177.2C85.3 176.6 84.3 175.8 83.6 174.7C82.9 173.6 82.5 172.2 82.5 170.6C82.5 169.2 82.8 168 83.3 167.1C83.8 166.2 84.5 165.4 85.4 164.9C86.3 164.3 87.3 163.9 88.4 163.6C89.5 163.3 90.7 163.1 91.9 163C93.4 162.8 94.5 162.7 95.5 162.6C96.5 162.5 97.1 162.3 97.5 162C97.9 161.7 98.1 161.3 98.1 160.8V160.7C98.1 159.5 97.7 158.5 97 157.9C96.3 157.2 95.2 156.9 93.9 156.9C92.5 156.9 91.3 157.2 90.5 157.8C89.7 158.4 89.1 159.2 88.8 160L83.3 159.2C83.7 157.7 84.4 156.4 85.4 155.4C86.4 154.4 87.6 153.6 89 153.1C90.4 152.6 92 152.3 93.8 152.3C95 152.3 96.2 152.4 97.4 152.7C98.6 153 99.7 153.4 100.7 154.1C101.7 154.8 102.5 155.6 103.1 156.7C103.7 157.8 104 159.2 104 160.8V177.5H98.4V174.1H98.2C97.8 174.8 97.3 175.4 96.7 176C96.1 176.6 95.3 177.1 94.3 177.4C93.4 177.9 92.2 178.1 90.9 178.1ZM92.5 173.8C93.7 173.8 94.7 173.6 95.6 173.1C96.5 172.6 97.1 172 97.6 171.2C98.1 170.4 98.3 169.6 98.3 168.7V165.8C98.1 166 97.8 166.1 97.4 166.2C97 166.3 96.5 166.4 95.9 166.5C95.4 166.6 94.8 166.7 94.3 166.8C93.8 166.9 93.3 166.9 92.9 167C92 167.1 91.2 167.3 90.5 167.6C89.8 167.9 89.3 168.2 88.9 168.7C88.5 169.2 88.3 169.8 88.3 170.6C88.3 171.7 88.7 172.5 89.5 173C90.2 173.5 91.2 173.8 92.5 173.8Z" fill="#77809C"/>
<path d="M115.4 144.4V177.6H109.5V144.4H115.4Z" fill="#77809C"/>
<path d="M136.9 167.1V152.7H142.8V177.6H137.1V173.2H136.8C136.2 174.6 135.3 175.7 134 176.6C132.7 177.5 131.1 177.9 129.3 177.9C127.7 177.9 126.2 177.5 125 176.8C123.8 176.1 122.8 175 122.1 173.6C121.4 172.2 121 170.5 121 168.5V152.6H126.9V167.6C126.9 169.2 127.3 170.4 128.2 171.4C129.1 172.3 130.2 172.8 131.6 172.8C132.5 172.8 133.3 172.6 134.1 172.2C134.9 171.8 135.6 171.1 136.1 170.3C136.6 169.4 136.9 168.4 136.9 167.1Z" fill="#77809C"/>
<path d="M159.4 178.1C156.9 178.1 154.7 177.6 152.9 176.5C151.1 175.5 149.7 174 148.7 172.1C147.7 170.2 147.2 167.9 147.2 165.3C147.2 162.7 147.7 160.5 148.7 158.5C149.7 156.6 151 155 152.8 154C154.6 153 156.6 152.4 159 152.4C160.5 152.4 162 152.6 163.4 153.1C164.8 153.6 166 154.4 167 155.4C168.1 156.4 168.9 157.7 169.5 159.3C170.1 160.9 170.4 162.8 170.4 165V166.8H150V162.8H164.8C164.8 161.7 164.5 160.7 164.1 159.8C163.6 158.9 163 158.2 162.1 157.7C161.3 157.2 160.3 156.9 159.1 156.9C157.9 156.9 156.8 157.2 155.9 157.8C155 158.4 154.3 159.1 153.8 160.1C153.3 161.1 153 162.1 153 163.2V166.7C153 168.1 153.3 169.4 153.8 170.4C154.3 171.4 155.1 172.2 156 172.8C157 173.3 158.1 173.6 159.3 173.6C160.2 173.6 160.9 173.5 161.6 173.2C162.3 173 162.9 172.6 163.4 172.1C163.9 171.6 164.3 171 164.6 170.3L170.1 170.9C169.8 172.3 169.1 173.6 168.1 174.7C167.1 175.8 165.9 176.6 164.4 177.2C163 177.8 161.3 178.1 159.4 178.1Z" fill="#77809C"/>
<path d="M184.2 178C182.2 178 180.5 177.5 178.9 176.5C177.4 175.5 176.1 174 175.2 172.1C174.3 170.2 173.9 167.9 173.9 165.1C173.9 162.3 174.4 160 175.3 158.1C176.2 156.2 177.4 154.7 179 153.8C180.6 152.8 182.3 152.3 184.2 152.3C185.7 152.3 186.9 152.5 187.8 153C188.7 153.5 189.5 154.1 190 154.8C190.6 155.5 191 156.1 191.3 156.7H191.5V144.3H197.4V177.5H191.6V173.6H191.2C190.9 174.2 190.5 174.8 189.9 175.5C189.3 176.2 188.6 176.8 187.6 177.2C186.8 177.8 185.6 178 184.2 178ZM185.8 173.2C187 173.2 188.1 172.9 189 172.2C189.9 171.5 190.5 170.6 191 169.4C191.5 168.2 191.7 166.8 191.7 165.2C191.7 163.6 191.5 162.2 191 161C190.5 159.8 189.9 158.9 189 158.2C188.1 157.5 187.1 157.2 185.8 157.2C184.5 157.2 183.4 157.5 182.5 158.2C181.6 158.9 181 159.8 180.5 161C180 162.2 179.8 163.6 179.8 165.1C179.8 166.7 180 168 180.5 169.3C180.9 170.5 181.6 171.5 182.5 172.2C183.5 172.9 184.5 173.2 185.8 173.2Z" fill="#77809C"/>
<path d="M221.3 178.1C219.7 178.1 218.3 177.8 217 177.2C215.7 176.6 214.7 175.8 214 174.7C213.3 173.6 212.9 172.2 212.9 170.6C212.9 169.2 213.2 168 213.7 167.1C214.2 166.2 214.9 165.4 215.8 164.9C216.7 164.3 217.7 163.9 218.8 163.6C219.9 163.3 221.1 163.1 222.3 163C223.8 162.8 224.9 162.7 225.9 162.6C226.9 162.5 227.5 162.3 227.9 162C228.3 161.7 228.5 161.3 228.5 160.8V160.7C228.5 159.5 228.1 158.5 227.4 157.9C226.7 157.2 225.6 156.9 224.3 156.9C222.9 156.9 221.7 157.2 220.9 157.8C220.1 158.4 219.5 159.2 219.2 160L213.7 159.2C214.1 157.7 214.8 156.4 215.8 155.4C216.8 154.4 218 153.6 219.4 153.1C220.8 152.6 222.4 152.3 224.2 152.3C225.4 152.3 226.6 152.4 227.8 152.7C229 153 230.1 153.4 231.1 154.1C232.1 154.8 232.9 155.6 233.5 156.7C234.1 157.8 234.4 159.2 234.4 160.8V177.5H228.8V174.1H228.6C228.2 174.8 227.7 175.4 227.1 176C226.5 176.6 225.7 177.1 224.7 177.4C223.8 177.9 222.6 178.1 221.3 178.1ZM222.9 173.8C224.1 173.8 225.1 173.6 226 173.1C226.9 172.6 227.5 172 228 171.2C228.5 170.4 228.7 169.6 228.7 168.7V165.8C228.5 166 228.2 166.1 227.8 166.2C227.4 166.3 226.9 166.4 226.3 166.5C225.8 166.6 225.2 166.7 224.7 166.8C224.2 166.9 223.7 166.9 223.3 167C222.4 167.1 221.6 167.3 220.9 167.6C220.2 167.9 219.7 168.2 219.3 168.7C218.9 169.2 218.7 169.8 218.7 170.6C218.7 171.7 219.1 172.5 219.9 173C220.6 173.5 221.6 173.8 222.9 173.8Z" fill="#77809C"/>
<path d="M252.4 152.7V157.2H238.1V152.7H252.4ZM241.6 146.7H247.5V170.1C247.5 170.9 247.6 171.5 247.9 171.9C248.1 172.3 248.5 172.6 248.9 172.8C249.3 173 249.7 173 250.2 173C250.6 173 250.9 173 251.2 172.9C251.5 172.8 251.7 172.8 251.9 172.8L252.9 177.4C252.6 177.5 252.1 177.6 251.6 177.8C251 177.9 250.3 178 249.5 178C248 178 246.7 177.8 245.5 177.3C244.3 176.8 243.4 176 242.7 175C242 174 241.7 172.7 241.7 171.1V146.7H241.6Z" fill="#77809C"/>
<path d="M286.1 153.5C285.9 152.1 285.3 151 284.2 150.2C283.1 149.4 281.6 149 279.8 149C278.5 149 277.5 149.2 276.6 149.6C275.7 150 275 150.5 274.5 151.1C274 151.7 273.8 152.5 273.8 153.3C273.8 154 274 154.6 274.3 155.1C274.6 155.6 275.1 156 275.6 156.4C276.2 156.8 276.8 157 277.4 157.3C278.1 157.5 278.7 157.7 279.4 157.9L282.5 158.7C283.8 159 285 159.4 286.1 159.9C287.2 160.4 288.3 161 289.2 161.8C290.1 162.6 290.9 163.5 291.4 164.5C291.9 165.6 292.2 166.8 292.2 168.3C292.2 170.2 291.7 172 290.7 173.4C289.7 174.9 288.3 176 286.4 176.9C284.5 177.7 282.3 178.1 279.6 178.1C277 178.1 274.8 177.7 272.9 176.9C271 176.1 269.5 174.9 268.5 173.4C267.4 171.9 266.9 170 266.8 167.8H272.7C272.8 169 273.1 169.9 273.8 170.7C274.4 171.5 275.2 172 276.3 172.4C277.4 172.8 278.4 173 279.7 173C281 173 282.2 172.8 283.1 172.4C284.1 172 284.9 171.5 285.4 170.7C286 170 286.2 169.2 286.3 168.2C286.3 167.3 286 166.6 285.5 166.1C285 165.6 284.3 165.1 283.4 164.7C282.5 164.3 281.5 164 280.3 163.7L276.5 162.7C273.8 162 271.6 160.9 270 159.5C268.4 158.1 267.6 156.2 267.6 153.8C267.6 151.8 268.1 150.1 269.2 148.7C270.3 147.2 271.7 146.1 273.6 145.3C275.4 144.5 277.5 144.1 279.8 144.1C282.2 144.1 284.2 144.5 286 145.3C287.8 146.1 289.2 147.2 290.2 148.7C291.2 150.1 291.7 151.8 291.8 153.7H286.1V153.5ZM278.4 181.8V140.3H281.1V181.8H278.4Z" fill="#242438"/>
<path d="M308.8 178.1C306.5 178.1 304.4 177.7 302.6 176.9C300.8 176.1 299.4 175 298.3 173.6C297.3 172.2 296.7 170.5 296.6 168.7H302.7C302.8 169.6 303.1 170.4 303.6 171C304.1 171.7 304.9 172.2 305.8 172.5C306.7 172.9 307.7 173.1 308.8 173.1C310 173.1 311 172.9 312 172.5C312.9 172.1 313.6 171.5 314.2 170.8C314.8 170.1 315 169.2 315 168.2C315 167.2 314.8 166.3 314.2 165.5C313.7 164.7 312.9 164.1 311.9 163.7C310.9 163.3 309.7 163.1 308.3 163.1H305.4V158.5H308.3C309.5 158.5 310.5 158.3 311.3 157.9C312.2 157.5 312.9 156.9 313.4 156.2C313.9 155.5 314.1 154.6 314.1 153.7C314.1 152.8 313.9 151.9 313.5 151.2C313.1 150.5 312.5 150 311.7 149.6C310.9 149.2 310 149 309 149C308 149 307 149.2 306.2 149.6C305.3 150 304.6 150.5 304.1 151.2C303.6 151.9 303.3 152.7 303.3 153.6H297.5C297.5 151.7 298.1 150.1 299.1 148.7C300.1 147.3 301.5 146.2 303.2 145.4C304.9 144.6 306.9 144.2 309 144.2C311.2 144.2 313.1 144.6 314.8 145.4C316.4 146.2 317.7 147.3 318.6 148.7C319.5 150.1 319.9 151.6 319.9 153.3C319.9 155.2 319.4 156.7 318.3 158C317.2 159.3 315.7 160.1 313.9 160.5V160.8C316.2 161.1 318 162 319.3 163.4C320.6 164.8 321.2 166.5 321.2 168.6C321.2 170.5 320.7 172.1 319.6 173.6C318.5 175.1 317.1 176.2 315.3 177C313.5 177.8 311.2 178.1 308.8 178.1Z" fill="#242438"/>
<path d="M327.4 177.6L341.5 149.6V149.4H325.1V144.4H347.7V149.5L333.6 177.6H327.4Z" fill="#242438"/>
<path d="M364.3 178.1C361.9 178.1 359.7 177.7 357.9 176.9C356 176.1 354.6 175 353.5 173.6C352.4 172.2 351.9 170.6 351.9 168.8C351.9 167.4 352.2 166.1 352.8 165C353.4 163.8 354.3 162.9 355.3 162.1C356.3 161.3 357.5 160.8 358.8 160.6V160.4C357.1 160 355.7 159.1 354.7 157.8C353.6 156.4 353.1 154.9 353.1 153.1C353.1 151.4 353.6 149.9 354.5 148.5C355.4 147.1 356.8 146.1 358.5 145.3C360.2 144.5 362.1 144.1 364.2 144.1C366.3 144.1 368.2 144.5 369.9 145.3C371.6 146.1 372.9 147.1 373.9 148.5C374.9 149.9 375.4 151.4 375.4 153.1C375.4 154.9 374.9 156.5 373.8 157.8C372.7 159.1 371.4 160 369.7 160.4V160.6C371 160.8 372.2 161.3 373.2 162.1C374.2 162.9 375.1 163.9 375.7 165C376.3 166.2 376.6 167.4 376.6 168.8C376.6 170.6 376.1 172.2 375 173.6C373.9 175 372.5 176.1 370.6 176.9C368.9 177.6 366.7 178.1 364.3 178.1ZM364.3 173.4C365.5 173.4 366.6 173.2 367.5 172.8C368.4 172.4 369.1 171.8 369.6 171C370.1 170.2 370.4 169.3 370.4 168.3C370.4 167.2 370.1 166.3 369.6 165.5C369.1 164.7 368.3 164 367.4 163.6C366.5 163.1 365.4 162.9 364.2 162.9C363 162.9 362 163.1 361 163.6C360.1 164.1 359.3 164.7 358.8 165.5C358.3 166.3 358 167.3 358 168.3C358 169.3 358.2 170.2 358.7 171C359.2 171.8 359.9 172.4 360.8 172.8C362 173.2 363.1 173.4 364.3 173.4ZM364.3 158.3C365.3 158.3 366.2 158.1 367 157.7C367.8 157.3 368.4 156.7 368.9 156C369.4 155.3 369.6 154.4 369.6 153.5C369.6 152.5 369.4 151.7 368.9 151C368.5 150.3 367.8 149.7 367.1 149.3C366.3 148.9 365.4 148.7 364.4 148.7C363.4 148.7 362.4 148.9 361.6 149.3C360.8 149.7 360.2 150.3 359.8 151C359.4 151.7 359.1 152.6 359.2 153.5C359.2 154.5 359.4 155.3 359.9 156C360.3 156.7 361 157.3 361.8 157.7C362.6 158.1 363.3 158.3 364.3 158.3Z" fill="#242438"/>
<path d="M392.8 177.6V144.4H405.5C407.9 144.4 409.9 144.8 411.5 145.5C413.1 146.3 414.3 147.3 415.1 148.6C415.9 149.9 416.3 151.4 416.3 153C416.3 154.4 416 155.5 415.5 156.5C415 157.5 414.3 158.2 413.4 158.8C412.5 159.4 411.5 159.8 410.5 160.1V160.4C411.7 160.5 412.8 160.8 413.9 161.5C415 162.2 415.9 163.1 416.6 164.3C417.3 165.5 417.6 166.9 417.6 168.6C417.6 170.3 417.2 171.9 416.4 173.2C415.6 174.6 414.3 175.6 412.6 176.4C410.9 177.2 408.8 177.6 406.3 177.6H392.8ZM398.8 158.5H404.8C405.8 158.5 406.8 158.3 407.6 157.9C408.4 157.5 409.1 157 409.6 156.3C410.1 155.6 410.3 154.8 410.3 153.8C410.3 152.5 409.8 151.5 408.9 150.6C408 149.8 406.7 149.4 404.9 149.4H398.8V158.5ZM398.8 172.6H405.3C407.5 172.6 409.1 172.2 410 171.3C411 170.5 411.5 169.4 411.5 168.1C411.5 167.1 411.3 166.2 410.8 165.4C410.3 164.6 409.6 164 408.7 163.5C407.8 163 406.7 162.8 405.5 162.8H398.9V172.6H398.8Z" fill="#242438"/>
<path d="M425.1 149.1C424.2 149.1 423.4 148.8 422.7 148.2C422 147.6 421.7 146.8 421.7 145.9C421.7 145 422 144.3 422.7 143.7C423.4 143.1 424.2 142.8 425.1 142.8C426 142.8 426.8 143.1 427.5 143.7C428.2 144.3 428.5 145.1 428.5 146C428.5 146.9 428.2 147.6 427.5 148.2C426.8 148.8 426 149.1 425.1 149.1ZM422.1 177.6V152.7H428V177.6H422.1Z" fill="#242438"/>
<path d="M439.4 144.4V177.6H433.5V144.4H439.4Z" fill="#242438"/>
<path d="M450.9 144.4V177.6H445V144.4H450.9Z" fill="#242438"/>
<path d="M459.4 149.1C458.5 149.1 457.7 148.8 457 148.2C456.3 147.6 456 146.8 456 145.9C456 145 456.3 144.3 457 143.7C457.7 143.1 458.5 142.8 459.4 142.8C460.3 142.8 461.1 143.1 461.8 143.7C462.5 144.3 462.8 145.1 462.8 146C462.8 146.9 462.5 147.6 461.8 148.2C461.1 148.8 460.3 149.1 459.4 149.1ZM456.5 177.6V152.7H462.4V177.6H456.5Z" fill="#242438"/>
<path d="M478.8 178.1C476.4 178.1 474.3 177.6 472.5 176.5C470.7 175.4 469.3 173.9 468.4 172C467.4 170.1 466.9 167.8 466.9 165.3C466.9 162.7 467.4 160.5 468.4 158.5C469.4 156.6 470.8 155.1 472.5 154C474.3 152.9 476.4 152.4 478.8 152.4C481.2 152.4 483.3 152.9 485.1 154C486.9 155.1 488.3 156.6 489.2 158.5C490.2 160.4 490.7 162.7 490.7 165.3C490.7 167.9 490.2 170.1 489.2 172C488.2 173.9 486.8 175.4 485.1 176.5C483.3 177.6 481.2 178.1 478.8 178.1ZM478.8 173.4C480.1 173.4 481.2 173 482.1 172.3C483 171.6 483.6 170.6 484.1 169.4C484.5 168.2 484.8 166.8 484.8 165.3C484.8 163.8 484.6 162.4 484.1 161.2C483.6 160 483 159 482.1 158.2C481.2 157.5 480.1 157.1 478.8 157.1C477.4 157.1 476.3 157.5 475.4 158.2C474.5 158.9 473.8 159.9 473.4 161.2C473 162.5 472.7 163.8 472.7 165.3C472.7 166.8 472.9 168.2 473.4 169.4C473.8 170.6 474.5 171.6 475.4 172.3C476.3 173 477.5 173.4 478.8 173.4Z" fill="#242438"/>
<path d="M501.1 163V177.6H495.2V152.7H500.8V156.9H501.1C501.7 155.5 502.6 154.4 503.8 153.6C505.1 152.8 506.6 152.4 508.5 152.4C510.2 152.4 511.7 152.8 513 153.5C514.3 154.2 515.3 155.3 516 156.7C516.7 158.1 517.1 159.8 517 161.8V177.7H511.1V162.7C511.1 161 510.7 159.7 509.8 158.8C508.9 157.9 507.8 157.4 506.2 157.4C505.2 157.4 504.3 157.6 503.5 158.1C502.7 158.5 502.1 159.2 501.6 160C501.1 160.8 501.1 161.8 501.1 163Z" fill="#242438"/>
<path d="M526.2 178C525.2 178 524.4 177.7 523.7 177C523 176.3 522.7 175.5 522.7 174.5C522.7 173.5 523 172.7 523.7 172C524.4 171.3 525.2 171 526.2 171C527.2 171 528 171.3 528.7 172C529.4 172.7 529.8 173.5 529.8 174.5C529.8 175.2 529.6 175.8 529.3 176.3C529 176.8 528.5 177.3 528 177.6C527.5 177.8 526.9 178 526.2 178Z" fill="#77809C"/>
</g>
<mask id="mask7_4_2528" style="mask-type:luminance" maskUnits="userSpaceOnUse" x="0" y="0" width="1521" height="255">
<path d="M1521 0H0V255H1521V0Z" fill="white"/>
</mask>
<g mask="url(#mask7_4_2528)">
<path d="M1468 59C1480.15 59 1490 49.1503 1490 37C1490 24.8497 1480.15 15 1468 15C1455.85 15 1446 24.8497 1446 37C1446 49.1503 1455.85 59 1468 59Z" fill="#D4F6FF"/>
</g>
<mask id="mask8_4_2528" style="mask-type:luminance" maskUnits="userSpaceOnUse" x="0" y="0" width="1521" height="255">
<path d="M1521 0H0V255H1521V0Z" fill="white"/>
</mask>
<g mask="url(#mask8_4_2528)">
<path d="M1292.1 21C1295.4 21.5 1298.6 22 1301.9 22.6C1330.1 28.4 1352.9 51.9 1357.8 80.3C1358.2 82.4 1358.5 84.5 1358.6 86.7C1358.7 88.6 1359.3 89.3 1361.2 89.4C1374.3 90.4 1386.1 94.8 1396.7 102.5C1410.2 112.3 1419.4 125.2 1424.1 141.2C1424.5 142.4 1424.5 144.2 1423.8 145.1C1423.1 146.1 1421.4 146.9 1420.1 147.1C1418.3 147.3 1417.1 146 1416.4 144.3C1415.3 141.4 1414.5 138.3 1413.2 135.6C1402.4 112.7 1384.2 100.3 1358.8 97.4C1357.4 115.7 1350.5 131.4 1337.7 144.3C1324.9 157.1 1309.3 164.1 1291.1 165.4C1291.2 170.8 1292.3 175.9 1293.9 180.9C1302.9 208.4 1328.7 226.3 1357.6 225.2C1384.1 224.2 1407.9 205.8 1415.7 180.4C1416 179.5 1416.2 178.7 1416.5 177.8C1417.4 175.7 1419.5 174.8 1421.6 175.4C1423.5 176 1424.8 178 1424.3 180.2C1423.8 182.3 1423.1 184.5 1422.3 186.5C1411.7 212.6 1392.6 228.4 1364.7 232.7C1326.5 238.6 1290.3 212.1 1283.6 174.1C1283.2 171.9 1282.9 169.7 1282.8 167.5C1282.7 165.7 1281.9 165.2 1280.3 165.1C1266.1 163.9 1253.4 159 1242.3 150.2C1226.2 137.4 1216.9 120.7 1214.7 100.2C1214.6 99.7 1214.5 99.1 1214.3 98.6C1214.3 95 1214.3 91.4 1214.3 87.8C1214.7 85.2 1215.1 82.6 1215.5 80.1C1220 52.9 1242.6 29 1269.5 23.1C1273.3 22.3 1277.2 21.7 1281.1 21C1284.9 21 1288.5 21 1292.1 21ZM1350.3 88.8C1349.1 58.9 1323 29.2 1286.2 29.4C1250.2 29.6 1221.6 59.3 1222.9 95.8C1224.2 132.3 1254.5 156 1282.2 156.9C1288.1 117.2 1310.7 94.6 1350.3 88.8ZM1350.4 97.8C1318 99 1291.7 128.2 1291.4 156.8C1321.5 155.4 1348.5 129.9 1350.4 97.8Z" fill="#15BEE6"/>
<path d="M1354.7 168.7C1354.7 172 1354.8 174.9 1354.7 177.8C1354.6 180.6 1352.4 182.5 1350 182.1C1348 181.8 1346.5 180.2 1346.5 178.1C1346.4 171.5 1346.4 165 1346.5 158.4C1346.5 156.2 1348.2 154.5 1350.5 154.4C1357 154.3 1363.5 154.3 1370 154.4C1372.4 154.4 1374.1 156.2 1374.1 158.5C1374.1 160.8 1372.4 162.6 1369.9 162.7C1367 162.8 1364.1 162.7 1360.7 162.7C1361.5 163.5 1362 164 1362.5 164.5C1369 171 1375.4 177.4 1381.9 183.9C1382.4 184.4 1383 185 1383.4 185.6C1384.6 187.2 1384.4 189.3 1383.1 190.8C1381.7 192.3 1379.6 192.6 1377.8 191.5C1377.2 191.1 1376.6 190.5 1376.1 190C1369.6 183.6 1363.2 177.1 1356.7 170.6C1356.2 169.9 1355.6 169.5 1354.7 168.7Z" fill="#15BEE6"/>
<path d="M1427 161.3C1427 163.5 1425.2 165.4 1423 165.5C1420.7 165.5 1418.7 163.6 1418.8 161.3C1418.8 159.1 1420.7 157.2 1422.9 157.2C1425.1 157.2 1427 159.1 1427 161.3Z" fill="#15BEE6"/>
<path d="M1279.2 92.9C1271.8 85.6 1264.9 78.7 1258 71.8C1257.5 71.3 1256.9 70.7 1256.5 70.1C1255.2 68.3 1255.4 66.1 1257 64.7C1258.5 63.3 1260.6 63.1 1262.3 64.4C1262.8 64.8 1263.3 65.3 1263.8 65.8C1270.2 72.2 1276.6 78.6 1283 85C1283.5 85.5 1283.9 86.2 1284.4 86.8C1284.6 86.7 1284.8 86.6 1285.1 86.5C1285.1 84.5 1285.1 82.5 1285.1 80.4C1285.1 79.5 1285.1 78.6 1285.1 77.7C1285.2 75.2 1287 73.4 1289.2 73.4C1291.5 73.4 1293.3 75.2 1293.3 77.7C1293.4 81.5 1293.3 85.3 1293.3 89.1C1293.3 91.6 1293.3 94.1 1293.3 96.6C1293.2 99.5 1291.6 101.1 1288.8 101.1C1282.6 101.1 1276.4 101.1 1270.1 101.1C1267.4 101.1 1265.6 99.3 1265.6 97C1265.6 94.7 1267.5 92.9 1270.1 92.9C1272.9 92.9 1275.7 92.9 1279.2 92.9Z" fill="#15BEE6"/>
</g>
<mask id="mask9_4_2528" style="mask-type:luminance" maskUnits="userSpaceOnUse" x="0" y="0" width="1521" height="255">
<path d="M1521 0H0V255H1521V0Z" fill="white"/>
</mask>
<g mask="url(#mask9_4_2528)">
<path d="M59.5 202.7C59.5 201.4 59.7 200.2 60 199.1C60.3 198 60.8 197 61.4 196.1H62.5C62.3 196.4 62 196.9 61.8 197.3C61.6 197.7 61.4 198.3 61.2 198.9C61 199.5 60.9 200.1 60.8 200.7C60.7 201.3 60.7 201.9 60.7 202.6C60.7 203.4 60.8 204.2 60.9 205.1C61.1 205.9 61.3 206.7 61.5 207.4C61.7 208.1 62.1 208.7 62.4 209.2H61.3C60.7 208.3 60.2 207.3 59.9 206.2C59.7 205.2 59.5 204 59.5 202.7Z" fill="#D3D3D3"/>
<path d="M71.4 196.7H72.7V203.6C72.7 204.3 72.5 205 72.2 205.5C71.9 206.1 71.4 206.5 70.8 206.8C70.2 207.1 69.5 207.3 68.7 207.3C67.9 207.3 67.2 207.1 66.6 206.8C66 206.5 65.5 206 65.2 205.5C64.9 204.9 64.7 204.3 64.7 203.6V196.7H66V203.5C66 204 66.1 204.5 66.3 204.9C66.5 205.3 66.8 205.6 67.3 205.8C67.7 206 68.2 206.1 68.8 206.1C69.4 206.1 69.9 206 70.3 205.8C70.7 205.6 71 205.3 71.3 204.9C71.5 204.5 71.6 204 71.6 203.5V196.7H71.4Z" fill="#D3D3D3"/>
<path d="M83.5 196.7V207.2H82.3L76.6 199H76.5V207.2H75.2V196.7H76.4L82.1 204.9H82.2V196.7H83.5Z" fill="#D3D3D3"/>
<path d="M94.5 200H93.2C93.1 199.6 93 199.3 92.8 199C92.6 198.7 92.4 198.5 92.1 198.3C91.8 198.1 91.5 198 91.2 197.9C90.9 197.8 90.5 197.8 90.2 197.8C89.6 197.8 89 198 88.5 198.3C88 198.6 87.6 199.1 87.3 199.7C87 200.3 86.8 201.1 86.8 202C86.8 202.9 87 203.7 87.3 204.3C87.6 204.9 88 205.4 88.5 205.7C89 206 89.6 206.2 90.2 206.2C90.5 206.2 90.9 206.2 91.2 206.1C91.5 206 91.8 205.9 92.1 205.7C92.4 205.5 92.6 205.3 92.8 205C93 204.7 93.1 204.4 93.2 204H94.5C94.4 204.5 94.2 205 94 205.4C93.8 205.8 93.4 206.2 93.1 206.5C92.7 206.8 92.3 207 91.8 207.2C91.3 207.4 90.8 207.4 90.3 207.4C89.4 207.4 88.6 207.2 87.9 206.7C87.2 206.3 86.7 205.6 86.3 204.8C85.9 204 85.7 203 85.7 201.9C85.7 200.8 85.9 199.8 86.3 199C86.7 198.2 87.2 197.6 87.9 197.1C88.6 196.7 89.4 196.4 90.3 196.4C90.8 196.4 91.3 196.5 91.8 196.6C92.3 196.8 92.7 197 93.1 197.3C93.5 197.6 93.8 198 94 198.4C94.2 198.8 94.4 199.4 94.5 200Z" fill="#D3D3D3"/>
<path d="M95.8999 197.8V196.7H103.8V197.8H100.5V207.2H99.1999V197.8H95.8999Z" fill="#D3D3D3"/>
<path d="M106.2 207.2H104.9L108.7 196.7H110L113.8 207.2H112.5L109.4 198.4H109.3L106.2 207.2ZM106.7 203.1H112.1V204.2H106.7V203.1Z" fill="#D3D3D3"/>
<path d="M118.7 207.2H115.5V196.7H118.9C119.9 196.7 120.8 196.9 121.5 197.3C122.2 197.7 122.8 198.3 123.2 199.1C123.6 199.9 123.8 200.8 123.8 201.9C123.8 203 123.6 203.9 123.2 204.7C122.8 205.5 122.2 206.1 121.5 206.5C120.7 207 119.8 207.2 118.7 207.2ZM116.8 206H118.7C119.6 206 120.3 205.8 120.9 205.5C121.5 205.2 121.9 204.7 122.2 204.1C122.5 203.5 122.6 202.7 122.6 201.9C122.6 201.1 122.5 200.3 122.2 199.7C121.9 199.1 121.5 198.6 121 198.3C120.5 198 119.8 197.8 118.9 197.8H116.9V206H116.8Z" fill="#D3D3D3"/>
<path d="M129.7 207.2V206.3L133.2 202.5C133.6 202.1 133.9 201.7 134.2 201.3C134.5 201 134.7 200.7 134.8 200.4C134.9 200.1 135 199.8 135 199.5C135 199.1 134.9 198.8 134.7 198.5C134.5 198.2 134.3 198 134 197.9C133.7 197.8 133.4 197.7 133 197.7C132.6 197.7 132.2 197.8 131.9 197.9C131.6 198.1 131.4 198.3 131.2 198.6C131 198.9 131 199.2 131 199.6H129.8C129.8 199 129.9 198.4 130.2 198C130.5 197.5 130.9 197.2 131.4 196.9C131.9 196.6 132.4 196.5 133.1 196.5C133.7 196.5 134.3 196.6 134.7 196.9C135.2 197.2 135.5 197.5 135.8 197.9C136.1 198.3 136.2 198.8 136.2 199.4C136.2 199.8 136.1 200.2 136 200.5C135.9 200.9 135.6 201.3 135.3 201.7C135 202.1 134.5 202.7 133.9 203.3L131.5 205.8V205.9H136.4V207H129.7V207.2Z" fill="#D3D3D3"/>
<path d="M141.9 207.3C141.1 207.3 140.5 207.1 139.9 206.7C139.4 206.3 138.9 205.7 138.7 204.9C138.4 204.1 138.3 203.1 138.3 202C138.3 200.9 138.4 199.9 138.7 199.1C139 198.3 139.4 197.7 139.9 197.3C140.4 196.9 141.1 196.7 141.9 196.7C142.7 196.7 143.3 196.9 143.9 197.3C144.4 197.7 144.9 198.3 145.1 199.1C145.4 199.9 145.5 200.9 145.5 202C145.5 203.1 145.4 204.1 145.1 204.9C144.8 205.7 144.4 206.3 143.9 206.7C143.3 207.1 142.6 207.3 141.9 207.3ZM141.9 206.2C142.7 206.2 143.3 205.8 143.7 205.1C144.1 204.4 144.3 203.3 144.3 201.9C144.3 201 144.2 200.2 144 199.6C143.8 199 143.5 198.5 143.2 198.1C142.8 197.8 142.4 197.6 141.9 197.6C141.1 197.6 140.6 198 140.1 198.7C139.7 199.4 139.5 200.5 139.5 201.9C139.5 202.8 139.6 203.6 139.8 204.2C140 204.8 140.3 205.3 140.6 205.6C140.9 206 141.4 206.2 141.9 206.2Z" fill="#D3D3D3"/>
<path d="M147.5 207.2V206.3L151 202.5C151.4 202.1 151.7 201.7 152 201.3C152.3 201 152.5 200.7 152.6 200.4C152.7 200.1 152.8 199.8 152.8 199.5C152.8 199.1 152.7 198.8 152.5 198.5C152.3 198.2 152.1 198 151.8 197.9C151.5 197.8 151.2 197.7 150.8 197.7C150.4 197.7 150 197.8 149.7 197.9C149.4 198.1 149.2 198.3 149 198.6C148.8 198.9 148.8 199.2 148.8 199.6H147.6C147.6 199 147.7 198.4 148 198C148.3 197.5 148.7 197.2 149.2 196.9C149.7 196.6 150.2 196.5 150.9 196.5C151.5 196.5 152.1 196.6 152.5 196.9C153 197.2 153.3 197.5 153.6 197.9C153.9 198.3 154 198.8 154 199.4C154 199.8 153.9 200.2 153.8 200.5C153.7 200.9 153.4 201.3 153.1 201.7C152.8 202.1 152.3 202.7 151.7 203.3L149.3 205.8V205.9H154.2V207H147.5V207.2Z" fill="#D3D3D3"/>
<path d="M155.9 205V204L160.5 196.7H161.3V198.3H160.8L157.3 203.8V203.9H163.5V205H155.9ZM160.9 207.2V204.7V204.2V196.7H162.1V207.2H160.9Z" fill="#D3D3D3"/>
<path d="M168 202.7C168 204 167.8 205.2 167.5 206.3C167.2 207.4 166.7 208.4 166.1 209.3H165C165.2 209 165.5 208.5 165.7 208.1C165.9 207.7 166.1 207.1 166.3 206.5C166.5 205.9 166.6 205.3 166.7 204.7C166.8 204.1 166.8 203.5 166.8 202.8C166.8 202 166.7 201.2 166.6 200.3C166.4 199.5 166.2 198.7 166 198C165.7 197.3 165.4 196.7 165.1 196.2H166.2C166.8 197.1 167.3 198.1 167.6 199.2C167.9 200.3 168 201.5 168 202.7Z" fill="#D3D3D3"/>
</g>
<mask id="mask10_4_2528" style="mask-type:luminance" maskUnits="userSpaceOnUse" x="0" y="0" width="1521" height="255">
<path d="M1521 0H0V255H1521V0Z" fill="white"/>
</mask>
<g mask="url(#mask10_4_2528)">
<path d="M64.9 60.8999H58V39.3999H65.2C67.3 39.3999 69.1 39.7999 70.6 40.6999C72.1 41.5999 73.3 42.7999 74.1 44.3999C74.9 45.9999 75.3 47.8999 75.3 50.0999C75.3 52.2999 74.9 54.2999 74.1 55.8999C73.3 57.4999 72.1 58.6999 70.6 59.5999C68.9 60.4999 67.1 60.8999 64.9 60.8999ZM61.2 58.0999H64.7C66.3 58.0999 67.7 57.7999 68.8 57.1999C69.9 56.5999 70.7 55.6999 71.2 54.4999C71.7 53.2999 72 51.8999 72 50.1999C72 48.4999 71.7 47.0999 71.2 45.8999C70.7 44.6999 69.9 43.7999 68.8 43.1999C67.7 42.5999 66.4 42.2999 64.9 42.2999H61.2V58.0999Z" fill="#242438"/>
<path d="M80.6001 42.3C80.1001 42.3 79.6001 42.1 79.2001 41.7C78.8001 41.3 78.6001 40.9 78.6001 40.4C78.6001 39.9 78.8001 39.4 79.2001 39.1C79.6001 38.7 80.1001 38.5 80.6001 38.5C81.1001 38.5 81.6001 38.7 82.0001 39.1C82.4001 39.5 82.6001 39.9 82.6001 40.4C82.6001 40.9 82.4001 41.4 82.0001 41.7C81.6001 42.1 81.1001 42.3 80.6001 42.3ZM79.0001 60.9V44.8H82.1001V60.9H79.0001Z" fill="#242438"/>
<path d="M92.3 61.1999C91 61.1999 89.8 60.8999 88.8 60.1999C87.8 59.4999 87 58.5999 86.4 57.2999C85.8 56.0999 85.5 54.5999 85.5 52.7999C85.5 51.0999 85.8 49.5999 86.4 48.2999C87 47.0999 87.8 46.0999 88.8 45.4999C89.8 44.7999 91 44.4999 92.3 44.4999C93.3 44.4999 94.1 44.6999 94.7 44.9999C95.3 45.2999 95.8 45.6999 96.1 46.1999C96.4 46.5999 96.7 46.9999 96.9 47.3999H97.1V39.3999H100.2V60.8999H97.1V58.3999H97C96.8 58.6999 96.5 59.0999 96.2 59.5999C95.8 59.9999 95.4 60.3999 94.7 60.7999C94.1 60.9999 93.3 61.1999 92.3 61.1999ZM93 58.4999C93.9 58.4999 94.7 58.2999 95.3 57.7999C95.9 57.2999 96.4 56.6999 96.7 55.7999C97 54.8999 97.2 53.9999 97.2 52.7999C97.2 51.6999 97 50.6999 96.7 49.8999C96.4 49.0999 95.9 48.3999 95.3 47.8999C94.7 47.3999 93.9 47.1999 93 47.1999C92.1 47.1999 91.3 47.3999 90.6 47.8999C89.9 48.3999 89.5 49.0999 89.2 49.8999C88.9 50.6999 88.7 51.6999 88.7 52.7999C88.7 53.8999 88.9 54.7999 89.2 55.6999C89.5 56.5999 90 57.1999 90.6 57.6999C91.2 58.1999 92.1 58.4999 93 58.4999Z" fill="#242438"/>
<path d="M114.6 66.8998C114.1 66.8998 113.7 66.8998 113.3 66.7998C112.9 66.6998 112.6 66.5998 112.4 66.5998L113.2 63.9998C113.8 64.1998 114.3 64.1998 114.7 64.1998C115.1 64.1998 115.5 63.9998 115.9 63.6998C116.3 63.3998 116.6 62.8998 116.8 62.1998L117.2 61.0998L111.3 44.7998H114.7L118.8 57.2998H119L123.1 44.7998H126.5L119.7 62.9998C119.4 63.7998 119 64.4998 118.5 65.0998C118 65.6998 117.5 66.0998 116.8 66.3998C116.2 66.7998 115.5 66.8998 114.6 66.8998Z" fill="#242438"/>
<path d="M136.1 61.2001C134.6 61.2001 133.3 60.9001 132.1 60.2001C131 59.5001 130.1 58.5001 129.5 57.3001C128.9 56.1001 128.6 54.6001 128.6 52.9001C128.6 51.2001 128.9 49.8001 129.5 48.5001C130.1 47.2001 131 46.3001 132.1 45.6001C133.2 44.9001 134.5 44.6001 136.1 44.6001C137.7 44.6001 138.9 44.9001 140.1 45.6001C141.2 46.3001 142.1 47.3001 142.7 48.5001C143.3 49.7001 143.6 51.2001 143.6 52.9001C143.6 54.6001 143.3 56.0001 142.7 57.3001C142.1 58.5001 141.2 59.5001 140.1 60.2001C138.9 60.9001 137.6 61.2001 136.1 61.2001ZM136.1 58.6001C137.1 58.6001 137.9 58.3001 138.5 57.8001C139.1 57.3001 139.6 56.6001 139.9 55.7001C140.2 54.8001 140.4 53.9001 140.4 52.9001C140.4 51.9001 140.2 50.9001 139.9 50.1001C139.6 49.2001 139.1 48.5001 138.5 48.0001C137.9 47.5001 137 47.2001 136.1 47.2001C135.1 47.2001 134.3 47.5001 133.7 48.0001C133.1 48.5001 132.6 49.2001 132.3 50.1001C132 51.0001 131.8 51.9001 131.8 52.9001C131.8 53.9001 132 54.9001 132.3 55.7001C132.6 56.6001 133.1 57.2001 133.7 57.8001C134.3 58.3001 135.1 58.6001 136.1 58.6001Z" fill="#242438"/>
<path d="M157.3 54.1998V44.7998H160.4V60.8998H157.3V58.0998H157.1C156.7 58.9998 156.1 59.6998 155.3 60.1998C154.5 60.7998 153.5 61.0998 152.3 61.0998C151.3 61.0998 150.4 60.8998 149.6 60.3998C148.8 59.8998 148.2 59.2998 147.7 58.3998C147.2 57.4998 147 56.3998 147 55.0998V44.7998H150.1V54.6998C150.1 55.7998 150.4 56.6998 151 57.2998C151.6 57.9998 152.4 58.2998 153.4 58.2998C154 58.2998 154.6 58.1998 155.2 57.8998C155.8 57.5998 156.3 57.1998 156.7 56.5998C157.1 55.9998 157.3 55.0998 157.3 54.1998Z" fill="#242438"/>
<path d="M172.5 60.8999V39.3999H175.6V60.8999H172.5ZM175.4 55.3999V51.5999H175.9L182.3 44.7999H186.1L178.8 52.5999H178.3L175.4 55.3999ZM182.6 60.8999L176.8 53.1999L179 50.9999L186.5 60.7999H182.6V60.8999Z" fill="#15BEE6"/>
<path d="M192 51.3V60.9H188.9V44.8H191.9V47.4H192.1C192.5 46.5 193.1 45.9 193.8 45.3C194.6 44.8 195.6 44.5 196.8 44.5C197.9 44.5 198.9 44.7 199.7 45.2C200.5 45.7 201.2 46.3 201.6 47.2C202.1 48.1 202.3 49.2 202.3 50.5V60.7H199.2V51C199.2 49.8 198.9 48.9 198.3 48.3C197.7 47.6 196.9 47.3 195.8 47.3C195.1 47.3 194.4 47.5 193.9 47.8C193.4 48.1 192.9 48.6 192.6 49.2C192.2 49.7 192 50.5 192 51.3Z" fill="#15BEE6"/>
<path d="M213.3 61.2001C211.8 61.2001 210.5 60.9001 209.3 60.2001C208.2 59.5001 207.3 58.5001 206.7 57.3001C206.1 56.1001 205.8 54.6001 205.8 52.9001C205.8 51.2001 206.1 49.8001 206.7 48.5001C207.3 47.2001 208.2 46.3001 209.3 45.6001C210.4 44.9001 211.7 44.6001 213.3 44.6001C214.9 44.6001 216.1 44.9001 217.3 45.6001C218.4 46.3001 219.3 47.3001 219.9 48.5001C220.5 49.7001 220.8 51.2001 220.8 52.9001C220.8 54.6001 220.5 56.0001 219.9 57.3001C219.3 58.5001 218.4 59.5001 217.3 60.2001C216.1 60.9001 214.8 61.2001 213.3 61.2001ZM213.3 58.6001C214.3 58.6001 215.1 58.3001 215.7 57.8001C216.3 57.3001 216.8 56.6001 217.1 55.7001C217.4 54.8001 217.6 53.9001 217.6 52.9001C217.6 51.9001 217.4 50.9001 217.1 50.1001C216.8 49.2001 216.3 48.5001 215.7 48.0001C215.1 47.5001 214.2 47.2001 213.3 47.2001C212.3 47.2001 211.5 47.5001 210.9 48.0001C210.3 48.5001 209.8 49.2001 209.5 50.1001C209.2 51.0001 209 51.9001 209 52.9001C209 53.9001 209.2 54.9001 209.5 55.7001C209.8 56.6001 210.3 57.2001 210.9 57.8001C211.5 58.3001 212.3 58.6001 213.3 58.6001Z" fill="#15BEE6"/>
<path d="M227.8 60.8998L223.1 44.7998H226.3L229.5 56.5998H229.7L232.9 44.7998H236.1L239.2 56.5998H239.4L242.5 44.7998H245.7L241 60.8998H237.8L234.5 49.2998H234.3L231 60.8998H227.8Z" fill="#15BEE6"/>
<path d="M252.1 54.4999C252.1 53.1999 252.2 52.1999 252.5 51.3999C252.8 50.5999 253.1 49.9999 253.6 49.4999C254.1 48.9999 254.6 48.5999 255.3 48.1999C255.7 47.8999 256.1 47.5999 256.4 47.2999C256.7 46.9999 257 46.5999 257.2 46.1999C257.4 45.7999 257.5 45.2999 257.5 44.7999C257.5 44.1999 257.4 43.5999 257.1 43.1999C256.8 42.6999 256.4 42.3999 255.9 42.0999C255.4 41.7999 254.9 41.6999 254.3 41.6999C253.8 41.6999 253.2 41.7999 252.8 41.9999C252.4 42.1999 251.9 42.5999 251.6 42.9999C251.3 43.3999 251.1 44.0999 251 44.7999H247.8C247.8 43.4999 248.2 42.4999 248.8 41.5999C249.4 40.6999 250.2 40.0999 251.1 39.5999C252 39.0999 253.1 38.8999 254.3 38.8999C255.6 38.8999 256.7 39.0999 257.7 39.5999C258.7 40.0999 259.4 40.6999 259.9 41.5999C260.4 42.4999 260.7 43.4999 260.7 44.5999C260.7 45.3999 260.6 46.0999 260.3 46.6999C260.1 47.2999 259.7 47.8999 259.3 48.3999C258.8 48.8999 258.3 49.2999 257.7 49.6999C257.1 50.0999 256.6 50.4999 256.3 50.8999C255.9 51.2999 255.7 51.7999 255.5 52.2999C255.3 52.7999 255.2 53.4999 255.2 54.2999V54.4999H252.1ZM253.7 61.0999C253.1 61.0999 252.6 60.8999 252.2 60.4999C251.8 60.0999 251.6 59.5999 251.6 58.9999C251.6 58.3999 251.8 57.8999 252.2 57.4999C252.6 57.0999 253.1 56.8999 253.7 56.8999C254.3 56.8999 254.8 57.0999 255.2 57.4999C255.6 57.8999 255.8 58.3999 255.8 58.9999C255.8 59.3999 255.7 59.6999 255.5 60.0999C255.3 60.3999 255.1 60.6999 254.7 60.8999C254.4 60.9999 254 61.0999 253.7 61.0999Z" fill="#15BEE6"/>
<path d="M258 65.6001H171.9V68.2001H258V65.6001Z" fill="#D9F4F9"/>
</g>
</svg>
