<svg width="1521" height="255" viewBox="0 0 1521 255" fill="none" xmlns="http://www.w3.org/2000/svg">
<g clip-path="url(#clip0_4_1621)">
<path d="M1521 0H0V255H1521V0Z" fill="white"/>
<mask id="mask0_4_1621" style="mask-type:luminance" maskUnits="userSpaceOnUse" x="0" y="0" width="1521" height="255">
<path d="M1521 0H0V255H1521V0Z" fill="white"/>
</mask>
<g mask="url(#mask0_4_1621)">
<path d="M589.8 65C625.7 65 654.8 35.9 654.8 0H524.8C524.8 35.9 553.9 65 589.8 65Z" fill="#F2FCFF"/>
</g>
<mask id="mask1_4_1621" style="mask-type:luminance" maskUnits="userSpaceOnUse" x="0" y="0" width="1521" height="255">
<path d="M1521 0H0V255H1521V0Z" fill="white"/>
</mask>
<g mask="url(#mask1_4_1621)">
<path d="M1129.8 214.2C1107.3 214.2 1089 232.5 1089 255H1170.6C1170.6 232.5 1152.3 214.2 1129.8 214.2Z" fill="#F2FCFF"/>
</g>
<mask id="mask2_4_1621" style="mask-type:luminance" maskUnits="userSpaceOnUse" x="0" y="0" width="1521" height="255">
<path d="M1521 0H0V255H1521V0Z" fill="white"/>
</mask>
<g mask="url(#mask2_4_1621)">
<path d="M56.9999 64.7C65.0633 64.7 71.5999 58.1634 71.5999 50.1C71.5999 42.0366 65.0633 35.5 56.9999 35.5C48.9365 35.5 42.3999 42.0366 42.3999 50.1C42.3999 58.1634 48.9365 64.7 56.9999 64.7Z" fill="#F9FEFA"/>
</g>
<mask id="mask3_4_1621" style="mask-type:luminance" maskUnits="userSpaceOnUse" x="0" y="0" width="1521" height="255">
<path d="M1521 0H0V255H1521V0Z" fill="white"/>
</mask>
<g mask="url(#mask3_4_1621)">
<path d="M1176.7 125.6L1167.7 119L1174.3 110L1169.8 106.7L1163.2 115.7L1154.4 109.3L1151.1 113.8L1159.9 120.2L1153.4 129L1157.9 132.3L1164.4 123.5L1173.4 130.1L1176.7 125.6Z" fill="#D4F6FF"/>
</g>
<mask id="mask4_4_1621" style="mask-type:luminance" maskUnits="userSpaceOnUse" x="0" y="0" width="1521" height="255">
<path d="M1521 0H0V255H1521V0Z" fill="white"/>
</mask>
<g mask="url(#mask4_4_1621)">
<path d="M1468 202C1473.52 202 1478 197.523 1478 192C1478 186.477 1473.52 182 1468 182C1462.48 182 1458 186.477 1458 192C1458 197.523 1462.48 202 1468 202Z" fill="#F2FCFF"/>
</g>
<mask id="mask5_4_1621" style="mask-type:luminance" maskUnits="userSpaceOnUse" x="0" y="0" width="1521" height="255">
<path d="M1521 0H0V255H1521V0Z" fill="white"/>
</mask>
<g mask="url(#mask5_4_1621)">
<path d="M655 274C667.703 274 678 263.703 678 251C678 238.297 667.703 228 655 228C642.297 228 632 238.297 632 251C632 263.703 642.297 274 655 274Z" fill="#F2FCFF"/>
</g>
<mask id="mask6_4_1621" style="mask-type:luminance" maskUnits="userSpaceOnUse" x="0" y="0" width="1521" height="255">
<path d="M1521 0H0V255H1521V0Z" fill="white"/>
</mask>
<g mask="url(#mask6_4_1621)">
<path d="M58.2 118.8V85.6001H70.6999C73.2999 85.6001 75.3999 86.1001 77.0999 87.0001C78.7999 88.0001 80.1 89.3001 81 90.9001C81.9 92.6001 82.3 94.4001 82.3 96.6001C82.3 98.7001 81.9 100.6 81 102.3C80.1 104 78.7999 105.3 77 106.2C75.2 107.1 73.1 107.6 70.5 107.6H62.2V102.7H69.5999C71.0999 102.7 72.3 102.4 73.3 101.9C74.3 101.4 75 100.7 75.4 99.8001C75.8 98.9001 76.0999 97.8001 76.0999 96.7001C76.0999 95.6001 75.9 94.5001 75.4 93.6001C74.9 92.7001 74.2 92.0001 73.3 91.5001C72.4 91.0001 71.0999 90.7001 69.5999 90.7001H64.0999V118.9H58.2V118.8Z" fill="#77809C"/>
<path d="M86.7998 118.8V93.9H92.4998V98H92.7998C93.2998 96.6 93.9998 95.5 95.0998 94.7C96.1998 93.9 97.4998 93.5 98.8998 93.5C99.1998 93.5 99.5998 93.5 99.9998 93.5C100.4 93.5 100.7 93.6 101 93.6V99C100.8 98.9 100.4 98.8 99.7998 98.8C99.1998 98.8 98.6998 98.7 98.2998 98.7C97.1998 98.7 96.2998 98.9 95.3998 99.4C94.4998 99.9 93.8998 100.5 93.3998 101.3C92.8998 102.1 92.6998 103 92.6998 104.1V118.7H86.7998V118.8Z" fill="#77809C"/>
<path d="M107.5 90.3C106.6 90.3 105.8 90 105.1 89.4C104.4 88.8 104.1 88 104.1 87.1C104.1 86.2 104.4 85.5 105.1 84.9C105.8 84.3 106.6 84 107.5 84C108.4 84 109.2 84.3 109.9 84.9C110.6 85.5 110.9 86.3 110.9 87.2C110.9 88.1 110.6 88.8 109.9 89.4C109.2 90 108.4 90.3 107.5 90.3ZM104.5 118.8V93.9H110.4V118.8H104.5Z" fill="#77809C"/>
<path d="M116 118.8V93.9001H121.6V98.1001H121.9C122.4 96.7001 123.3 95.6001 124.5 94.8001C125.7 94.0001 127.1 93.6001 128.8 93.6001C130.5 93.6001 131.9 94.0001 133.1 94.8001C134.3 95.6001 135.1 96.7001 135.6 98.1001H135.9C136.5 96.7001 137.4 95.6001 138.7 94.8001C140 94.0001 141.6 93.6001 143.4 93.6001C145.7 93.6001 147.6 94.3001 149 95.8001C150.4 97.2001 151.2 99.4001 151.2 102.1V118.8H145.3V103C145.3 101.5 144.9 100.3 144.1 99.6001C143.3 98.9001 142.3 98.5001 141.1 98.5001C139.7 98.5001 138.6 98.9001 137.8 99.8001C137 100.7 136.6 101.8 136.6 103.2V118.7H130.8V102.6C130.8 101.3 130.4 100.3 129.6 99.5001C128.8 98.7001 127.8 98.3001 126.6 98.3001C125.8 98.3001 125 98.5001 124.3 98.9001C123.6 99.3001 123.1 99.9001 122.6 100.7C122.2 101.5 122 102.4 122 103.4V118.6H116V118.8Z" fill="#77809C"/>
<path d="M163.7 119.3C162.1 119.3 160.7 119 159.4 118.4C158.1 117.8 157.1 117 156.4 115.9C155.7 114.8 155.3 113.4 155.3 111.8C155.3 110.4 155.6 109.2 156.1 108.3C156.6 107.4 157.3 106.6 158.2 106.1C159.1 105.5 160.1 105.1 161.2 104.8C162.3 104.5 163.5 104.3 164.7 104.2C166.2 104 167.3 103.9 168.3 103.8C169.3 103.7 169.9 103.5 170.3 103.2C170.7 102.9 170.9 102.5 170.9 102V101.9C170.9 100.7 170.5 99.7 169.8 99.1C169.1 98.4 168 98.1 166.7 98.1C165.3 98.1 164.1 98.4 163.3 99C162.5 99.6 161.9 100.4 161.6 101.2L156.1 100.4C156.5 98.9 157.2 97.6 158.2 96.6C159.2 95.6 160.4 94.8 161.8 94.3C163.2 93.8 164.8 93.5 166.6 93.5C167.8 93.5 169 93.6 170.2 93.9C171.4 94.2 172.5 94.6 173.5 95.3C174.5 96 175.3 96.8 175.9 97.9C176.5 99 176.8 100.4 176.8 102V118.7H171.2V115.3H171C170.6 116 170.1 116.6 169.5 117.2C168.9 117.8 168.1 118.3 167.1 118.6C166.1 119.1 165 119.3 163.7 119.3ZM165.2 115C166.4 115 167.4 114.8 168.3 114.3C169.2 113.8 169.8 113.2 170.3 112.4C170.8 111.6 171 110.8 171 109.9V107C170.8 107.2 170.5 107.3 170.1 107.4C169.7 107.5 169.2 107.6 168.6 107.7C168.1 107.8 167.5 107.9 167 108C166.5 108.1 166 108.1 165.6 108.2C164.7 108.3 163.9 108.5 163.2 108.8C162.5 109.1 162 109.4 161.6 109.9C161.2 110.4 161 111 161 111.8C161 112.9 161.4 113.7 162.2 114.2C163 114.7 164 115 165.2 115Z" fill="#77809C"/>
<path d="M182.3 118.8V93.9H188V98H188.3C188.8 96.6 189.5 95.5 190.6 94.7C191.7 93.9 193 93.5 194.4 93.5C194.7 93.5 195.1 93.5 195.5 93.5C195.9 93.5 196.2 93.6 196.5 93.6V99C196.3 98.9 195.9 98.8 195.3 98.8C194.7 98.8 194.2 98.7 193.8 98.7C192.7 98.7 191.8 98.9 190.9 99.4C190 99.9 189.4 100.5 188.9 101.3C188.4 102.1 188.2 103 188.2 104.1V118.7H182.3V118.8Z" fill="#77809C"/>
<path d="M203.6 128.1C202.8 128.1 202.1 128 201.4 127.9C200.7 127.8 200.2 127.6 199.8 127.5L201.2 122.9C202.1 123.1 202.8 123.3 203.5 123.3C204.2 123.3 204.8 123.1 205.3 122.7C205.8 122.3 206.2 121.6 206.6 120.7L207.1 119.4L198.1 94H204.3L210 112.8H210.3L216.1 94H222.3L212.3 121.9C211.8 123.2 211.2 124.4 210.5 125.3C209.7 126.2 208.8 127 207.7 127.5C206.5 127.9 205.1 128.1 203.6 128.1Z" fill="#77809C"/>
<path d="M243 85.6001V118.8H237V85.6001H243Z" fill="#77809C"/>
<path d="M254.7 104.2V118.8H248.8V93.9001H254.4V98.1001H254.7C255.3 96.7001 256.2 95.6001 257.4 94.8001C258.7 94.0001 260.2 93.6001 262.1 93.6001C263.8 93.6001 265.3 94.0001 266.6 94.7001C267.9 95.4001 268.9 96.5001 269.6 97.9001C270.3 99.3001 270.7 101 270.6 103V118.9H264.7V103.9C264.7 102.2 264.3 100.9 263.4 100C262.5 99.1001 261.4 98.6001 259.8 98.6001C258.8 98.6001 257.9 98.8001 257.1 99.3001C256.3 99.7001 255.7 100.4 255.2 101.2C254.7 102 254.7 103 254.7 104.2Z" fill="#77809C"/>
<path d="M285.4 119.2C283.4 119.2 281.7 118.7 280.1 117.7C278.6 116.7 277.3 115.2 276.4 113.3C275.5 111.4 275.1 109.1 275.1 106.3C275.1 103.5 275.6 101.2 276.5 99.3001C277.4 97.4001 278.6 95.9001 280.2 95.0001C281.8 94.0001 283.5 93.5001 285.4 93.5001C286.9 93.5001 288.1 93.7001 289 94.2001C289.9 94.7001 290.7 95.3001 291.2 96.0001C291.8 96.7001 292.2 97.3001 292.5 97.9001H292.7V85.6001H298.6V118.8H292.8V114.9H292.4C292.1 115.5 291.7 116.1 291.1 116.8C290.5 117.5 289.8 118.1 288.8 118.5C288.1 119 286.9 119.2 285.4 119.2ZM287.1 114.4C288.3 114.4 289.4 114.1 290.3 113.4C291.2 112.7 291.8 111.8 292.3 110.6C292.8 109.4 293 108 293 106.4C293 104.8 292.8 103.4 292.3 102.2C291.8 101 291.2 100.1 290.3 99.4001C289.4 98.7001 288.4 98.4001 287.1 98.4001C285.8 98.4001 284.7 98.7001 283.8 99.4001C282.9 100.1 282.3 101 281.8 102.2C281.3 103.4 281.1 104.8 281.1 106.3C281.1 107.9 281.3 109.2 281.8 110.5C282.2 111.7 282.9 112.7 283.8 113.4C284.7 114.1 285.8 114.4 287.1 114.4Z" fill="#77809C"/>
<path d="M320.4 108.3V93.8999H326.3V118.8H320.6V114.4H320.3C319.7 115.8 318.8 116.9 317.5 117.8C316.2 118.7 314.6 119.1 312.8 119.1C311.2 119.1 309.7 118.7 308.5 118C307.3 117.3 306.3 116.2 305.6 114.8C304.9 113.4 304.5 111.7 304.5 109.7V93.8999H310.4V108.9C310.4 110.5 310.8 111.7 311.7 112.7C312.6 113.6 313.7 114.1 315.1 114.1C316 114.1 316.8 113.9 317.6 113.5C318.4 113.1 319.1 112.4 319.6 111.6C320.1 110.6 320.4 109.6 320.4 108.3Z" fill="#77809C"/>
<path d="M351.6 100.5L346.2 101.1C346 100.6 345.8 100.1 345.4 99.6C345 99.1 344.5 98.7 343.9 98.4C343.3 98.1 342.5 98 341.6 98C340.4 98 339.4 98.3 338.5 98.8C337.7 99.3 337.3 100 337.3 100.9C337.3 101.6 337.6 102.2 338.1 102.7C338.6 103.2 339.6 103.5 340.8 103.8L345 104.7C347.4 105.2 349.1 106 350.3 107.1C351.5 108.2 352 109.6 352 111.4C352 113 351.5 114.4 350.6 115.5C349.7 116.7 348.4 117.6 346.8 118.3C345.2 119 343.4 119.3 341.3 119.3C338.3 119.3 335.8 118.7 333.9 117.4C332 116.1 330.9 114.3 330.6 112L336.3 111.4C336.6 112.5 337.1 113.4 338 113.9C338.9 114.4 339.9 114.8 341.3 114.8C342.7 114.8 343.8 114.5 344.7 113.9C345.5 113.3 346 112.6 346 111.8C346 111.1 345.7 110.5 345.2 110C344.7 109.5 343.8 109.2 342.7 108.9L338.4 108C336 107.5 334.2 106.7 333.1 105.5C332 104.3 331.4 102.8 331.4 101C331.4 99.5 331.8 98.1 332.7 97C333.6 95.9 334.7 95 336.3 94.4C337.8 93.8 339.6 93.5 341.6 93.5C344.5 93.5 346.8 94.1 348.5 95.4C350.1 96.7 351.2 98.3 351.6 100.5Z" fill="#77809C"/>
<path d="M368.9 93.8999V98.3999H354.6V93.8999H368.9ZM358.1 87.8999H364V111.3C364 112.1 364.1 112.7 364.4 113.1C364.6 113.5 365 113.8 365.4 114C365.8 114.2 366.2 114.2 366.7 114.2C367.1 114.2 367.4 114.2 367.7 114.1C368 114 368.2 114 368.4 114L369.4 118.6C369.1 118.7 368.6 118.8 368.1 119C367.5 119.1 366.8 119.2 366 119.2C364.5 119.2 363.2 119 362 118.5C360.8 118 359.9 117.2 359.2 116.2C358.5 115.2 358.2 113.9 358.2 112.3V87.8999H358.1Z" fill="#77809C"/>
<path d="M373.4 118.8V93.9H379.1V98H379.4C379.9 96.6 380.6 95.5 381.7 94.7C382.8 93.9 384.1 93.5 385.5 93.5C385.8 93.5 386.2 93.5 386.6 93.5C387 93.5 387.3 93.6 387.6 93.6V99C387.4 98.9 387 98.8 386.4 98.8C385.8 98.8 385.3 98.7 384.9 98.7C383.8 98.7 382.9 98.9 382 99.4C381.1 99.9 380.5 100.5 380 101.3C379.5 102.1 379.3 103 379.3 104.1V118.7H373.4V118.8Z" fill="#77809C"/>
<path d="M394.7 128.1C393.9 128.1 393.2 128 392.5 127.9C391.8 127.8 391.3 127.6 390.9 127.5L392.3 122.9C393.2 123.1 393.9 123.3 394.6 123.3C395.3 123.3 395.9 123.1 396.4 122.7C396.9 122.3 397.3 121.6 397.7 120.7L398.2 119.4L389.2 94H395.4L401.1 112.8H401.4L407.2 94H413.4L403.4 121.9C402.9 123.2 402.3 124.4 401.6 125.3C400.8 126.2 399.9 127 398.8 127.5C397.5 127.9 396.2 128.1 394.7 128.1Z" fill="#77809C"/>
<path d="M450.3 96.2C450 95.3 449.7 94.5 449.2 93.8C448.7 93.1 448.2 92.5 447.5 92C446.8 91.5 446.1 91.1 445.3 90.9C444.5 90.7 443.5 90.5 442.5 90.5C440.7 90.5 439.1 90.9 437.7 91.8C436.3 92.7 435.2 94 434.4 95.8C433.6 97.5 433.2 99.6 433.2 102.1C433.2 104.6 433.6 106.7 434.4 108.5C435.2 110.2 436.3 111.6 437.7 112.5C439.1 113.4 440.7 113.9 442.6 113.9C444.3 113.9 445.7 113.6 447 112.9C448.2 112.3 449.2 111.3 449.9 110.1C450.6 108.9 450.9 107.5 450.9 105.9L452.3 106.1H443.3V101.4H456.8V105.4C456.8 108.2 456.2 110.7 455 112.8C453.8 114.9 452.1 116.5 450 117.6C447.9 118.7 445.4 119.3 442.7 119.3C439.6 119.3 437 118.6 434.6 117.2C432.3 115.8 430.5 113.9 429.2 111.3C427.9 108.8 427.3 105.7 427.3 102.2C427.3 99.5 427.7 97.1 428.4 95C429.2 92.9 430.2 91.1 431.6 89.6C433 88.1 434.6 87 436.4 86.2C438.2 85.4 440.3 85 442.4 85C444.2 85 446 85.3 447.5 85.8C449.1 86.3 450.5 87.1 451.7 88.1C452.9 89.1 454 90.3 454.8 91.6C455.6 92.9 456.1 94.4 456.4 96.1H450.3V96.2Z" fill="#77809C"/>
<path d="M461.8 118.8V93.9H467.5V98H467.8C468.3 96.6 469 95.5 470.1 94.7C471.2 93.9 472.5 93.5 473.9 93.5C474.2 93.5 474.6 93.5 475 93.5C475.4 93.5 475.7 93.6 476 93.6V99C475.8 98.9 475.4 98.8 474.8 98.8C474.2 98.8 473.7 98.7 473.3 98.7C472.2 98.7 471.3 98.9 470.4 99.4C469.5 99.9 468.9 100.5 468.4 101.3C467.9 102.1 467.7 103 467.7 104.1V118.7H461.8V118.8Z" fill="#77809C"/>
<path d="M490.5 119.3C488 119.3 485.8 118.8 484 117.7C482.2 116.7 480.8 115.2 479.8 113.3C478.8 111.4 478.3 109.1 478.3 106.5C478.3 103.9 478.8 101.7 479.8 99.7001C480.8 97.8001 482.1 96.2001 483.9 95.2001C485.7 94.2001 487.7 93.6001 490.1 93.6001C491.6 93.6001 493.1 93.8001 494.5 94.3001C495.9 94.8001 497.1 95.6001 498.1 96.6001C499.2 97.6001 500 98.9001 500.6 100.5C501.2 102.1 501.5 104 501.5 106.2V108H481.1V104H496C496 102.9 495.7 101.9 495.3 101C494.8 100.1 494.2 99.4001 493.3 98.9001C492.5 98.4001 491.5 98.1001 490.3 98.1001C489.1 98.1001 488 98.4001 487.1 99.0001C486.2 99.6001 485.5 100.3 485 101.3C484.5 102.3 484.2 103.3 484.2 104.4V107.9C484.2 109.3 484.5 110.6 485 111.6C485.5 112.6 486.3 113.4 487.2 114C488.2 114.5 489.3 114.8 490.5 114.8C491.4 114.8 492.1 114.7 492.8 114.4C493.5 114.2 494.1 113.8 494.6 113.3C495.1 112.8 495.5 112.2 495.8 111.5L501.3 112.1C501 113.5 500.3 114.8 499.3 115.9C498.3 117 497.1 117.8 495.6 118.4C494.2 119 492.4 119.3 490.5 119.3Z" fill="#77809C"/>
<path d="M517.1 119.3C514.6 119.3 512.4 118.8 510.6 117.7C508.8 116.7 507.4 115.2 506.4 113.3C505.4 111.4 504.9 109.1 504.9 106.5C504.9 103.9 505.4 101.7 506.4 99.7001C507.4 97.8001 508.7 96.2001 510.5 95.2001C512.3 94.2001 514.3 93.6001 516.7 93.6001C518.2 93.6001 519.7 93.8001 521.1 94.3001C522.5 94.8001 523.7 95.6001 524.7 96.6001C525.8 97.6001 526.6 98.9001 527.2 100.5C527.8 102.1 528.1 104 528.1 106.2V108H507.7V104H522.5C522.5 102.9 522.2 101.9 521.8 101C521.3 100.1 520.7 99.4001 519.8 98.9001C519 98.4001 518 98.1001 516.8 98.1001C515.6 98.1001 514.5 98.4001 513.6 99.0001C512.7 99.6001 512 100.3 511.5 101.3C511 102.3 510.7 103.3 510.7 104.4V107.9C510.7 109.3 511 110.6 511.5 111.6C512 112.6 512.8 113.4 513.7 114C514.7 114.5 515.8 114.8 517 114.8C517.9 114.8 518.6 114.7 519.3 114.4C520 114.2 520.6 113.8 521.1 113.3C521.6 112.8 522 112.2 522.3 111.5L527.8 112.1C527.5 113.5 526.8 114.8 525.8 115.9C524.8 117 523.6 117.8 522.1 118.4C520.8 119 519.1 119.3 517.1 119.3Z" fill="#77809C"/>
<path d="M538.6 104.2V118.8H532.7V93.9001H538.3V98.1001H538.6C539.2 96.7001 540.1 95.6001 541.3 94.8001C542.6 94.0001 544.1 93.6001 546 93.6001C547.7 93.6001 549.2 94.0001 550.5 94.7001C551.8 95.4001 552.8 96.5001 553.5 97.9001C554.2 99.3001 554.6 101 554.5 103V118.9H548.6V103.9C548.6 102.2 548.2 100.9 547.3 100C546.4 99.1001 545.3 98.6001 543.7 98.6001C542.7 98.6001 541.8 98.8001 541 99.3001C540.2 99.7001 539.6 100.4 539.1 101.2C538.6 102 538.6 103 538.6 104.2Z" fill="#77809C"/>
<path d="M572.7 93.9V98.4H558V93.9H572.7ZM561.7 118.8V91.5C561.7 89.8 562 88.4 562.7 87.3C563.4 86.2 564.3 85.4 565.5 84.8C566.7 84.2 568 84 569.4 84C570.4 84 571.3 84.1 572.1 84.2C572.9 84.4 573.5 84.5 573.9 84.6L572.7 89.1C572.5 89 572.1 88.9 571.8 88.9C571.5 88.9 571 88.8 570.5 88.8C569.4 88.8 568.6 89.1 568.2 89.6C567.8 90.1 567.5 90.9 567.5 91.8V118.7H561.7V118.8Z" fill="#77809C"/>
<path d="M579.8 90.3C578.9 90.3 578.1 90 577.4 89.4C576.7 88.8 576.4 88 576.4 87.1C576.4 86.2 576.7 85.5 577.4 84.9C578.1 84.3 578.9 84 579.8 84C580.7 84 581.5 84.3 582.2 84.9C582.9 85.5 583.2 86.3 583.2 87.2C583.2 88.1 582.9 88.8 582.2 89.4C581.6 90 580.8 90.3 579.8 90.3ZM576.9 118.8V93.9H582.8V118.8H576.9Z" fill="#77809C"/>
<path d="M599.3 119.3C596.8 119.3 594.6 118.8 592.8 117.7C591 116.7 589.6 115.2 588.6 113.3C587.6 111.4 587.1 109.1 587.1 106.5C587.1 103.9 587.6 101.7 588.6 99.7001C589.6 97.8001 590.9 96.2001 592.7 95.2001C594.5 94.2001 596.5 93.6001 598.9 93.6001C600.4 93.6001 601.9 93.8001 603.3 94.3001C604.7 94.8001 605.9 95.6001 606.9 96.6001C608 97.6001 608.8 98.9001 609.4 100.5C610 102.1 610.3 104 610.3 106.2V108H590V104H604.8C604.8 102.9 604.5 101.9 604.1 101C603.6 100.1 603 99.4001 602.1 98.9001C601.3 98.4001 600.3 98.1001 599.1 98.1001C597.9 98.1001 596.8 98.4001 595.9 99.0001C595 99.6001 594.3 100.3 593.8 101.3C593.3 102.3 593 103.3 593 104.4V107.9C593 109.3 593.3 110.6 593.8 111.6C594.3 112.6 595.1 113.4 596 114C597 114.5 598.1 114.8 599.3 114.8C600.2 114.8 600.9 114.7 601.6 114.4C602.3 114.2 602.9 113.8 603.4 113.3C603.9 112.8 604.3 112.2 604.6 111.5L610.1 112.1C609.8 113.5 609.1 114.8 608.1 115.9C607.1 117 605.9 117.8 604.4 118.4C603 119 601.3 119.3 599.3 119.3Z" fill="#77809C"/>
<path d="M620.8 85.6001V118.8H614.9V85.6001H620.8Z" fill="#77809C"/>
<path d="M635.6 119.2C633.6 119.2 631.9 118.7 630.3 117.7C628.8 116.7 627.5 115.2 626.6 113.3C625.7 111.4 625.3 109.1 625.3 106.3C625.3 103.5 625.8 101.2 626.7 99.3001C627.6 97.4001 628.8 95.9001 630.4 95.0001C632 94.0001 633.7 93.5001 635.6 93.5001C637.1 93.5001 638.3 93.7001 639.2 94.2001C640.1 94.7001 640.9 95.3001 641.4 96.0001C642 96.7001 642.4 97.3001 642.7 97.9001H642.9V85.6001H648.8V118.8H643V114.9H642.6C642.3 115.5 641.9 116.1 641.3 116.8C640.7 117.5 640 118.1 639 118.5C638.2 119 637.1 119.2 635.6 119.2ZM637.3 114.4C638.5 114.4 639.6 114.1 640.5 113.4C641.4 112.7 642 111.8 642.5 110.6C643 109.4 643.2 108 643.2 106.4C643.2 104.8 643 103.4 642.5 102.2C642 101 641.4 100.1 640.5 99.4001C639.6 98.7001 638.6 98.4001 637.3 98.4001C636 98.4001 634.9 98.7001 634 99.4001C633.1 100.1 632.5 101 632 102.2C631.5 103.4 631.3 104.8 631.3 106.3C631.3 107.9 631.5 109.2 632 110.5C632.4 111.7 633.1 112.7 634 113.4C634.9 114.1 636 114.4 637.3 114.4Z" fill="#77809C"/>
<path d="M665.6 128.1V93.9001H671.4V98.0001H671.7C672 97.4001 672.4 96.7001 673 96.1001C673.6 95.4001 674.3 94.8001 675.2 94.3001C676.1 93.8001 677.3 93.6001 678.8 93.6001C680.7 93.6001 682.5 94.1001 684 95.1001C685.5 96.1001 686.8 97.5001 687.7 99.4001C688.6 101.3 689.1 103.6 689.1 106.4C689.1 109.1 688.7 111.5 687.8 113.4C686.9 115.3 685.7 116.8 684.1 117.8C682.5 118.8 680.8 119.3 678.8 119.3C677.4 119.3 676.2 119.1 675.2 118.6C674.3 118.1 673.5 117.5 672.9 116.9C672.3 116.2 671.9 115.6 671.6 115H671.4V128.3H665.6V128.1ZM671.4 106.3C671.4 107.9 671.6 109.3 672.1 110.5C672.6 111.7 673.2 112.7 674.1 113.3C675 113.9 676 114.3 677.3 114.3C678.6 114.3 679.7 114 680.6 113.3C681.5 112.6 682.1 111.6 682.6 110.4C683 109.2 683.3 107.8 683.3 106.2C683.3 104.7 683.1 103.3 682.6 102.1C682.2 100.9 681.5 100 680.6 99.3001C679.7 98.6001 678.6 98.3001 677.3 98.3001C676 98.3001 675 98.6001 674.1 99.3001C673.2 100 672.6 100.9 672.1 102.1C671.6 103.3 671.4 104.7 671.4 106.3Z" fill="#77809C"/>
<path d="M693.7 118.8V93.9H699.4V98H699.7C700.2 96.6 700.9 95.5 702 94.7C703.1 93.9 704.4 93.5 705.8 93.5C706.1 93.5 706.5 93.5 706.9 93.5C707.3 93.5 707.6 93.6 707.9 93.6V99C707.7 98.9 707.3 98.8 706.7 98.8C706.1 98.8 705.6 98.7 705.2 98.7C704.1 98.7 703.2 98.9 702.3 99.4C701.4 99.9 700.8 100.5 700.3 101.3C699.8 102.1 699.6 103 699.6 104.1V118.7H693.7V118.8Z" fill="#77809C"/>
<path d="M722.2 119.3C719.8 119.3 717.7 118.8 715.9 117.7C714.1 116.6 712.7 115.1 711.8 113.2C710.8 111.3 710.3 109 710.3 106.5C710.3 103.9 710.8 101.7 711.8 99.7001C712.8 97.8001 714.2 96.3001 715.9 95.2001C717.7 94.1001 719.8 93.6001 722.2 93.6001C724.6 93.6001 726.7 94.1001 728.5 95.2001C730.3 96.3001 731.7 97.8001 732.6 99.7001C733.6 101.6 734.1 103.9 734.1 106.5C734.1 109.1 733.6 111.3 732.6 113.2C731.6 115.1 730.2 116.6 728.5 117.7C726.8 118.7 724.6 119.3 722.2 119.3ZM722.2 114.6C723.5 114.6 724.6 114.2 725.5 113.5C726.4 112.8 727 111.8 727.5 110.6C727.9 109.4 728.2 108 728.2 106.5C728.2 105 728 103.6 727.5 102.4C727 101.2 726.4 100.2 725.5 99.4001C724.6 98.7001 723.5 98.3001 722.2 98.3001C720.8 98.3001 719.7 98.7001 718.8 99.4001C717.9 100.1 717.2 101.1 716.8 102.4C716.4 103.7 716.1 105 716.1 106.5C716.1 108 716.3 109.4 716.8 110.6C717.2 111.8 717.9 112.8 718.8 113.5C719.8 114.2 720.9 114.6 722.2 114.6Z" fill="#77809C"/>
<path d="M738.7 93.9H744.6V120.2C744.6 122 744.3 123.5 743.6 124.6C742.9 125.8 741.9 126.6 740.6 127.2C739.3 127.8 737.8 128.1 735.9 128.1C735.7 128.1 735.5 128.1 735.3 128.1C735.1 128.1 734.9 128.1 734.7 128.1V123.3C734.9 123.3 735 123.3 735.1 123.3C735.2 123.3 735.4 123.3 735.5 123.3C736.6 123.3 737.4 123 737.9 122.5C738.4 122 738.6 121.2 738.6 120.1V93.9H738.7ZM741.6 90.3C740.7 90.3 739.9 90 739.2 89.4C738.5 88.8 738.2 88 738.2 87.2C738.2 86.3 738.5 85.6 739.2 84.9C739.9 84.2 740.7 84 741.6 84C742.5 84 743.3 84.3 744 84.9C744.7 85.5 745 86.3 745 87.2C745 88.1 744.7 88.8 744 89.4C743.3 90 742.5 90.3 741.6 90.3Z" fill="#77809C"/>
<path d="M761.1 119.3C758.6 119.3 756.4 118.8 754.6 117.7C752.8 116.7 751.4 115.2 750.4 113.3C749.4 111.4 748.9 109.1 748.9 106.5C748.9 103.9 749.4 101.7 750.4 99.7001C751.4 97.8001 752.7 96.2001 754.5 95.2001C756.3 94.2001 758.3 93.6001 760.7 93.6001C762.2 93.6001 763.7 93.8001 765.1 94.3001C766.5 94.8001 767.7 95.6001 768.7 96.6001C769.8 97.6001 770.6 98.9001 771.2 100.5C771.8 102.1 772.1 104 772.1 106.2V108H751.7V104H766.5C766.5 102.9 766.2 101.9 765.8 101C765.3 100.1 764.7 99.4001 763.8 98.9001C763 98.4001 762 98.1001 760.8 98.1001C759.6 98.1001 758.5 98.4001 757.6 99.0001C756.7 99.6001 756 100.3 755.5 101.3C755 102.3 754.7 103.3 754.7 104.4V107.9C754.7 109.3 755 110.6 755.5 111.6C756 112.6 756.8 113.4 757.7 114C758.7 114.5 759.8 114.8 761 114.8C761.9 114.8 762.6 114.7 763.3 114.4C764 114.2 764.6 113.8 765.1 113.3C765.6 112.8 766 112.2 766.3 111.5L771.8 112.1C771.5 113.5 770.8 114.8 769.8 115.9C768.8 117 767.6 117.8 766.1 118.4C764.8 119 763.1 119.3 761.1 119.3Z" fill="#77809C"/>
<path d="M787.6 119.3C785.1 119.3 783 118.8 781.2 117.7C779.4 116.6 778.1 115.1 777.1 113.2C776.1 111.3 775.7 109 775.7 106.5C775.7 104 776.2 101.7 777.2 99.8C778.2 97.9 779.5 96.3 781.3 95.3C783.1 94.3 785.2 93.7 787.6 93.7C789.6 93.7 791.4 94.1 793 94.8C794.6 95.5 795.8 96.6 796.7 97.9C797.6 99.2 798.2 100.8 798.3 102.6H792.7C792.5 101.4 791.9 100.4 791.1 99.6C790.3 98.8 789.1 98.4 787.7 98.4C786.5 98.4 785.4 98.7 784.5 99.4C783.6 100 782.9 101 782.4 102.2C781.9 103.4 781.6 104.8 781.6 106.5C781.6 108.2 781.8 109.7 782.3 110.9C782.8 112.1 783.5 113.1 784.4 113.7C785.3 114.3 786.4 114.7 787.6 114.7C788.5 114.7 789.2 114.5 789.9 114.2C790.6 113.9 791.2 113.4 791.6 112.8C792.1 112.2 792.4 111.4 792.6 110.5H798.2C798.1 112.3 797.5 113.8 796.6 115.2C795.7 116.6 794.5 117.6 792.9 118.4C791.5 118.9 789.7 119.3 787.6 119.3Z" fill="#77809C"/>
<path d="M815.1 93.8999V98.3999H800.8V93.8999H815.1ZM804.3 87.8999H810.2V111.3C810.2 112.1 810.3 112.7 810.6 113.1C810.8 113.5 811.2 113.8 811.6 114C812 114.2 812.4 114.2 812.9 114.2C813.3 114.2 813.6 114.2 813.9 114.1C814.2 114 814.4 114 814.6 114L815.6 118.6C815.3 118.7 814.8 118.8 814.3 119C813.7 119.1 813 119.2 812.2 119.2C810.7 119.2 809.4 119 808.2 118.5C807 118 806.1 117.2 805.4 116.2C804.7 115.2 804.4 113.9 804.4 112.3V87.8999H804.3Z" fill="#77809C"/>
<path d="M839.2 100.5L833.8 101.1C833.6 100.6 833.4 100.1 833 99.6C832.6 99.1 832.1 98.7 831.5 98.4C830.9 98.1 830.1 98 829.2 98C828 98 827 98.3 826.1 98.8C825.3 99.3 824.9 100 824.9 100.9C824.9 101.6 825.2 102.2 825.7 102.7C826.2 103.2 827.2 103.5 828.4 103.8L832.6 104.7C835 105.2 836.7 106 837.9 107.1C839.1 108.2 839.6 109.6 839.6 111.4C839.6 113 839.1 114.4 838.2 115.5C837.3 116.7 836 117.6 834.4 118.3C832.8 119 831 119.3 828.9 119.3C825.9 119.3 823.4 118.7 821.5 117.4C819.6 116.1 818.5 114.3 818.2 112L823.9 111.4C824.2 112.5 824.7 113.4 825.6 113.9C826.5 114.4 827.5 114.8 828.9 114.8C830.3 114.8 831.4 114.5 832.3 113.9C833.1 113.3 833.6 112.6 833.6 111.8C833.6 111.1 833.3 110.5 832.8 110C832.3 109.5 831.4 109.2 830.3 108.9L826 108C823.6 107.5 821.8 106.7 820.7 105.5C819.6 104.3 819 102.8 819 101C819 99.5 819.4 98.1 820.3 97C821.2 95.9 822.3 95 823.9 94.4C825.4 93.8 827.2 93.5 829.2 93.5C832.1 93.5 834.4 94.1 836.1 95.4C837.8 96.7 838.8 98.3 839.2 100.5Z" fill="#77809C"/>
<path d="M860.2 118.8L853.2 93.8999H859.2L863.6 111.4H863.8L868.3 93.8999H874.2L878.7 111.3H878.9L883.2 93.8999H889.2L882.1 118.8H876L871.3 102H871L866.3 118.8H860.2Z" fill="#77809C"/>
<path d="M903.9 119.3C901.4 119.3 899.2 118.8 897.4 117.7C895.6 116.7 894.2 115.2 893.2 113.3C892.2 111.4 891.7 109.1 891.7 106.5C891.7 103.9 892.2 101.7 893.2 99.7001C894.2 97.8001 895.5 96.2001 897.3 95.2001C899.1 94.2001 901.1 93.6001 903.5 93.6001C905 93.6001 906.5 93.8001 907.9 94.3001C909.3 94.8001 910.5 95.6001 911.5 96.6001C912.6 97.6001 913.4 98.9001 914 100.5C914.6 102.1 914.9 104 914.9 106.2V108H894.5V104H909.3C909.3 102.9 909 101.9 908.6 101C908.1 100.1 907.5 99.4001 906.6 98.9001C905.8 98.4001 904.8 98.1001 903.6 98.1001C902.4 98.1001 901.3 98.4001 900.4 99.0001C899.5 99.6001 898.8 100.3 898.3 101.3C897.8 102.3 897.5 103.3 897.5 104.4V107.9C897.5 109.3 897.8 110.6 898.3 111.6C898.8 112.6 899.6 113.4 900.5 114C901.5 114.5 902.6 114.8 903.8 114.8C904.7 114.8 905.4 114.7 906.1 114.4C906.8 114.2 907.4 113.8 907.9 113.3C908.4 112.8 908.8 112.2 909.1 111.5L914.6 112.1C914.3 113.5 913.6 114.8 912.6 115.9C911.6 117 910.4 117.8 908.9 118.4C907.5 119 905.8 119.3 903.9 119.3Z" fill="#77809C"/>
<path d="M919.5 118.8V93.9H925.2V98H925.5C926 96.6 926.7 95.5 927.8 94.7C928.9 93.9 930.2 93.5 931.6 93.5C931.9 93.5 932.3 93.5 932.7 93.5C933.1 93.5 933.4 93.6 933.7 93.6V99C933.5 98.9 933.1 98.8 932.5 98.8C931.9 98.8 931.4 98.7 931 98.7C929.9 98.7 929 98.9 928.1 99.4C927.2 99.9 926.6 100.5 926.1 101.3C925.6 102.1 925.4 103 925.4 104.1V118.7H919.5V118.8Z" fill="#77809C"/>
<path d="M948.1 119.3C945.6 119.3 943.4 118.8 941.6 117.7C939.8 116.7 938.4 115.2 937.4 113.3C936.4 111.4 935.9 109.1 935.9 106.5C935.9 103.9 936.4 101.7 937.4 99.7001C938.4 97.8001 939.7 96.2001 941.5 95.2001C943.3 94.2001 945.3 93.6001 947.7 93.6001C949.2 93.6001 950.7 93.8001 952.1 94.3001C953.5 94.8001 954.7 95.6001 955.7 96.6001C956.8 97.6001 957.6 98.9001 958.2 100.5C958.8 102.1 959.1 104 959.1 106.2V108H938.7V104H953.5C953.5 102.9 953.2 101.9 952.8 101C952.3 100.1 951.7 99.4001 950.8 98.9001C950 98.4001 949 98.1001 947.8 98.1001C946.6 98.1001 945.5 98.4001 944.6 99.0001C943.7 99.6001 943 100.3 942.5 101.3C942 102.3 941.7 103.3 941.7 104.4V107.9C941.7 109.3 942 110.6 942.5 111.6C943 112.6 943.8 113.4 944.7 114C945.7 114.5 946.8 114.8 948 114.8C948.9 114.8 949.6 114.7 950.3 114.4C951 114.2 951.6 113.8 952.1 113.3C952.6 112.8 953 112.2 953.3 111.5L958.8 112.1C958.5 113.5 957.8 114.8 956.8 115.9C955.8 117 954.6 117.8 953.1 118.4C951.8 119 950.1 119.3 948.1 119.3Z" fill="#77809C"/>
<path d="M80.1999 148.7L71.2999 173.6H64.7999L55.8999 148.7H62.1999L67.8999 167.2H68.1999L73.8999 148.7H80.1999Z" fill="#77809C"/>
<path d="M90.9 174.1C89.3 174.1 87.9 173.8 86.6 173.2C85.3 172.6 84.3 171.8 83.6 170.7C82.9 169.6 82.5 168.2 82.5 166.6C82.5 165.2 82.8 164 83.3 163.1C83.8 162.2 84.5 161.4 85.4 160.9C86.3 160.3 87.3 159.9 88.4 159.6C89.5 159.3 90.7 159.1 91.9 159C93.4 158.8 94.5 158.7 95.5 158.6C96.5 158.5 97.1 158.3 97.5 158C97.9 157.7 98.1 157.3 98.1 156.8V156.7C98.1 155.5 97.7 154.5 97 153.9C96.3 153.2 95.2 152.9 93.9 152.9C92.5 152.9 91.3 153.2 90.5 153.8C89.7 154.4 89.1 155.2 88.8 156L83.3 155.2C83.7 153.7 84.4 152.4 85.4 151.4C86.4 150.4 87.6 149.6 89 149.1C90.4 148.6 92 148.3 93.8 148.3C95 148.3 96.2 148.4 97.4 148.7C98.6 149 99.7 149.4 100.7 150.1C101.7 150.8 102.5 151.6 103.1 152.7C103.7 153.8 104 155.2 104 156.8V173.5H98.4V170.1H98.2C97.8 170.8 97.3 171.4 96.7 172C96.1 172.6 95.3 173.1 94.3 173.4C93.4 173.9 92.2 174.1 90.9 174.1ZM92.5 169.8C93.7 169.8 94.7 169.6 95.6 169.1C96.5 168.6 97.1 168 97.6 167.2C98.1 166.4 98.3 165.6 98.3 164.7V161.8C98.1 162 97.8 162.1 97.4 162.2C97 162.3 96.5 162.4 95.9 162.5C95.4 162.6 94.8 162.7 94.3 162.8C93.8 162.9 93.3 162.9 92.9 163C92 163.1 91.2 163.3 90.5 163.6C89.8 163.9 89.3 164.2 88.9 164.7C88.5 165.2 88.3 165.8 88.3 166.6C88.3 167.7 88.7 168.5 89.5 169C90.2 169.5 91.2 169.8 92.5 169.8Z" fill="#77809C"/>
<path d="M115.4 140.4V173.6H109.5V140.4H115.4Z" fill="#77809C"/>
<path d="M136.9 163.1V148.7H142.8V173.6H137.1V169.2H136.8C136.2 170.6 135.3 171.7 134 172.6C132.7 173.5 131.1 173.9 129.3 173.9C127.7 173.9 126.2 173.5 125 172.8C123.8 172.1 122.8 171 122.1 169.6C121.4 168.2 121 166.5 121 164.5V148.6H126.9V163.6C126.9 165.2 127.3 166.4 128.2 167.4C129.1 168.3 130.2 168.8 131.6 168.8C132.5 168.8 133.3 168.6 134.1 168.2C134.9 167.8 135.6 167.1 136.1 166.3C136.6 165.4 136.9 164.4 136.9 163.1Z" fill="#77809C"/>
<path d="M159.4 174.1C156.9 174.1 154.7 173.6 152.9 172.5C151.1 171.5 149.7 170 148.7 168.1C147.7 166.2 147.2 163.9 147.2 161.3C147.2 158.7 147.7 156.5 148.7 154.5C149.7 152.6 151 151 152.8 150C154.6 149 156.6 148.4 159 148.4C160.5 148.4 162 148.6 163.4 149.1C164.8 149.6 166 150.4 167 151.4C168.1 152.4 168.9 153.7 169.5 155.3C170.1 156.9 170.4 158.8 170.4 161V162.8H150V158.8H164.8C164.8 157.7 164.5 156.7 164.1 155.8C163.6 154.9 163 154.2 162.1 153.7C161.3 153.2 160.3 152.9 159.1 152.9C157.9 152.9 156.8 153.2 155.9 153.8C155 154.4 154.3 155.1 153.8 156.1C153.3 157.1 153 158.1 153 159.2V162.7C153 164.1 153.3 165.4 153.8 166.4C154.3 167.4 155.1 168.2 156 168.8C157 169.3 158.1 169.6 159.3 169.6C160.2 169.6 160.9 169.5 161.6 169.2C162.3 169 162.9 168.6 163.4 168.1C163.9 167.6 164.3 167 164.6 166.3L170.1 166.9C169.8 168.3 169.1 169.6 168.1 170.7C167.1 171.8 165.9 172.6 164.4 173.2C163 173.8 161.3 174.1 159.4 174.1Z" fill="#77809C"/>
<path d="M184.2 174C182.2 174 180.5 173.5 178.9 172.5C177.4 171.5 176.1 170 175.2 168.1C174.3 166.2 173.9 163.9 173.9 161.1C173.9 158.3 174.4 156 175.3 154.1C176.2 152.2 177.4 150.7 179 149.8C180.6 148.8 182.3 148.3 184.2 148.3C185.7 148.3 186.9 148.5 187.8 149C188.7 149.5 189.5 150.1 190 150.8C190.6 151.5 191 152.1 191.3 152.7H191.5V140.3H197.4V173.5H191.6V169.6H191.2C190.9 170.2 190.5 170.8 189.9 171.5C189.3 172.2 188.6 172.8 187.6 173.2C186.8 173.8 185.6 174 184.2 174ZM185.8 169.2C187 169.2 188.1 168.9 189 168.2C189.9 167.5 190.5 166.6 191 165.4C191.5 164.2 191.7 162.8 191.7 161.2C191.7 159.6 191.5 158.2 191 157C190.5 155.8 189.9 154.9 189 154.2C188.1 153.5 187.1 153.2 185.8 153.2C184.5 153.2 183.4 153.5 182.5 154.2C181.6 154.9 181 155.8 180.5 157C180 158.2 179.8 159.6 179.8 161.1C179.8 162.7 180 164 180.5 165.3C180.9 166.5 181.6 167.5 182.5 168.2C183.5 168.9 184.5 169.2 185.8 169.2Z" fill="#77809C"/>
<path d="M232.5 149.5C232.3 148.1 231.7 147 230.6 146.2C229.5 145.4 228 145 226.2 145C224.9 145 223.9 145.2 223 145.6C222.1 146 221.4 146.5 220.9 147.1C220.4 147.7 220.2 148.5 220.2 149.3C220.2 150 220.4 150.6 220.7 151.1C221 151.6 221.5 152 222 152.4C222.6 152.8 223.2 153 223.8 153.3C224.5 153.5 225.1 153.7 225.8 153.9L228.9 154.7C230.2 155 231.4 155.4 232.5 155.9C233.6 156.4 234.7 157 235.6 157.8C236.5 158.6 237.3 159.5 237.8 160.5C238.3 161.6 238.6 162.8 238.6 164.3C238.6 166.2 238.1 168 237.1 169.4C236.1 170.9 234.7 172 232.8 172.9C230.9 173.7 228.7 174.1 226 174.1C223.4 174.1 221.2 173.7 219.3 172.9C217.4 172.1 215.9 170.9 214.9 169.4C213.8 167.9 213.3 166 213.2 163.8H219.1C219.2 165 219.5 165.9 220.2 166.7C220.8 167.5 221.6 168 222.7 168.4C223.8 168.8 224.8 169 226.1 169C227.4 169 228.6 168.8 229.5 168.4C230.5 168 231.3 167.5 231.8 166.7C232.4 166 232.6 165.2 232.7 164.2C232.7 163.3 232.4 162.6 231.9 162.1C231.4 161.6 230.7 161.1 229.8 160.7C228.9 160.3 227.9 160 226.7 159.7L222.9 158.7C220.2 158 218 156.9 216.4 155.5C214.8 154.1 214 152.2 214 149.8C214 147.8 214.5 146.1 215.6 144.7C216.7 143.2 218.1 142.1 220 141.3C221.8 140.5 223.9 140.1 226.2 140.1C228.6 140.1 230.6 140.5 232.4 141.3C234.2 142.1 235.6 143.2 236.6 144.7C237.6 146.1 238.1 147.8 238.2 149.7H232.5V149.5ZM224.8 177.8V136.3H227.5V177.8H224.8Z" fill="#242438"/>
<path d="M255.5 174.1C253.9 174.1 252.4 173.8 250.8 173.3C249.3 172.8 247.9 171.9 246.7 170.6C245.5 169.4 244.5 167.7 243.8 165.7C243.1 163.6 242.7 161.1 242.7 158C242.7 155.2 243 152.6 243.6 150.4C244.2 148.2 245.1 146.3 246.2 144.7C247.3 143.2 248.7 142 250.3 141.2C251.9 140.4 253.7 140 255.7 140C257.8 140 259.6 140.4 261.3 141.2C262.9 142 264.2 143.1 265.2 144.6C266.2 146 266.8 147.6 267 149.4H261.1C260.8 148.1 260.2 147.1 259.2 146.3C258.2 145.5 257.1 145.2 255.7 145.2C253.4 145.2 251.6 146.2 250.4 148.2C249.2 150.2 248.5 152.9 248.5 156.4H248.7C249.2 155.4 249.9 154.6 250.8 154C251.6 153.3 252.6 152.8 253.7 152.4C254.8 152 255.9 151.8 257.1 151.8C259 151.8 260.8 152.3 262.3 153.2C263.9 154.1 265.1 155.4 266 157C266.9 158.6 267.4 160.5 267.3 162.6C267.3 164.8 266.8 166.7 265.8 168.5C264.8 170.2 263.4 171.6 261.6 172.6C260 173.6 257.9 174.1 255.5 174.1ZM255.4 169.2C256.6 169.2 257.6 168.9 258.6 168.3C259.5 167.7 260.3 167 260.8 166C261.3 165 261.6 163.9 261.6 162.7C261.6 161.5 261.4 160.4 260.8 159.5C260.3 158.5 259.6 157.8 258.6 157.2C257.6 156.6 256.6 156.4 255.5 156.4C254.6 156.4 253.8 156.6 253.1 156.9C252.3 157.2 251.7 157.7 251.1 158.3C250.5 158.9 250.1 159.6 249.8 160.3C249.5 161.1 249.3 161.9 249.3 162.8C249.3 164 249.6 165 250.1 166C250.6 167 251.4 167.8 252.3 168.3C253.2 168.9 254.3 169.2 255.4 169.2Z" fill="#242438"/>
<path d="M284.6 174.1C283 174.1 281.5 173.8 279.9 173.3C278.4 172.8 277 171.9 275.8 170.6C274.6 169.4 273.6 167.7 272.9 165.7C272.2 163.6 271.8 161.1 271.8 158C271.8 155.2 272.1 152.6 272.7 150.4C273.3 148.2 274.2 146.3 275.3 144.7C276.4 143.2 277.8 142 279.4 141.2C281 140.4 282.8 140 284.8 140C286.9 140 288.7 140.4 290.4 141.2C292 142 293.3 143.1 294.3 144.6C295.3 146 295.9 147.6 296.1 149.4H290.2C289.9 148.1 289.3 147.1 288.3 146.3C287.3 145.5 286.2 145.2 284.8 145.2C282.5 145.2 280.7 146.2 279.5 148.2C278.3 150.2 277.6 152.9 277.6 156.4H277.8C278.3 155.4 279 154.6 279.9 154C280.7 153.3 281.7 152.8 282.8 152.4C283.9 152 285 151.8 286.2 151.8C288.1 151.8 289.9 152.3 291.4 153.2C293 154.1 294.2 155.4 295.1 157C296 158.6 296.5 160.5 296.4 162.6C296.4 164.8 295.9 166.7 294.9 168.5C293.9 170.2 292.5 171.6 290.7 172.6C289.1 173.6 287 174.1 284.6 174.1ZM284.6 169.2C285.8 169.2 286.8 168.9 287.8 168.3C288.7 167.7 289.5 167 290 166C290.5 165 290.8 163.9 290.8 162.7C290.8 161.5 290.6 160.4 290 159.5C289.5 158.5 288.8 157.8 287.8 157.2C286.8 156.6 285.8 156.4 284.7 156.4C283.8 156.4 283 156.6 282.3 156.9C281.5 157.2 280.9 157.7 280.3 158.3C279.7 158.9 279.3 159.6 279 160.3C278.7 161.1 278.5 161.9 278.5 162.8C278.5 164 278.8 165 279.3 166C279.8 167 280.6 167.8 281.5 168.3C282.3 168.9 283.4 169.2 284.6 169.2Z" fill="#242438"/>
<path d="M312.8 173.6V140.4H325.5C327.9 140.4 329.9 140.8 331.5 141.5C333.1 142.3 334.3 143.3 335.1 144.6C335.9 145.9 336.3 147.4 336.3 149C336.3 150.4 336 151.5 335.5 152.5C335 153.5 334.3 154.2 333.4 154.8C332.5 155.4 331.5 155.8 330.5 156.1V156.4C331.7 156.5 332.8 156.8 333.9 157.5C335 158.2 335.9 159.1 336.6 160.3C337.3 161.5 337.6 162.9 337.6 164.6C337.6 166.3 337.2 167.9 336.4 169.2C335.6 170.6 334.3 171.6 332.6 172.4C330.9 173.2 328.8 173.6 326.3 173.6H312.8ZM318.8 154.5H324.8C325.8 154.5 326.8 154.3 327.6 153.9C328.4 153.5 329.1 153 329.6 152.3C330.1 151.6 330.3 150.8 330.3 149.8C330.3 148.5 329.8 147.5 328.9 146.6C328 145.8 326.7 145.4 324.9 145.4H318.8V154.5ZM318.8 168.6H325.3C327.5 168.6 329.1 168.2 330 167.3C331 166.5 331.5 165.4 331.5 164.1C331.5 163.1 331.3 162.2 330.8 161.4C330.3 160.6 329.6 160 328.7 159.5C327.8 159 326.7 158.8 325.5 158.8H318.9V168.6H318.8Z" fill="#242438"/>
<path d="M345.1 145.1C344.2 145.1 343.4 144.8 342.7 144.2C342 143.6 341.7 142.8 341.7 141.9C341.7 141 342 140.3 342.7 139.7C343.4 139.1 344.2 138.8 345.1 138.8C346 138.8 346.8 139.1 347.5 139.7C348.2 140.3 348.5 141.1 348.5 142C348.5 142.9 348.2 143.6 347.5 144.2C346.8 144.8 346 145.1 345.1 145.1ZM342.1 173.6V148.7H348V173.6H342.1Z" fill="#242438"/>
<path d="M359.4 140.4V173.6H353.5V140.4H359.4Z" fill="#242438"/>
<path d="M370.9 140.4V173.6H365V140.4H370.9Z" fill="#242438"/>
<path d="M379.4 145.1C378.5 145.1 377.7 144.8 377 144.2C376.3 143.6 376 142.8 376 141.9C376 141 376.3 140.3 377 139.7C377.7 139.1 378.5 138.8 379.4 138.8C380.3 138.8 381.1 139.1 381.8 139.7C382.5 140.3 382.8 141.1 382.8 142C382.8 142.9 382.5 143.6 381.8 144.2C381.2 144.8 380.4 145.1 379.4 145.1ZM376.5 173.6V148.7H382.4V173.6H376.5Z" fill="#242438"/>
<path d="M398.8 174.1C396.4 174.1 394.3 173.6 392.5 172.5C390.7 171.4 389.3 169.9 388.4 168C387.4 166.1 386.9 163.8 386.9 161.3C386.9 158.7 387.4 156.5 388.4 154.5C389.4 152.6 390.8 151.1 392.5 150C394.3 148.9 396.4 148.4 398.8 148.4C401.2 148.4 403.3 148.9 405.1 150C406.9 151.1 408.3 152.6 409.2 154.5C410.2 156.4 410.7 158.7 410.7 161.3C410.7 163.9 410.2 166.1 409.2 168C408.2 169.9 406.8 171.4 405.1 172.5C403.3 173.6 401.2 174.1 398.8 174.1ZM398.8 169.4C400.1 169.4 401.2 169 402.1 168.3C403 167.6 403.6 166.6 404.1 165.4C404.5 164.2 404.8 162.8 404.8 161.3C404.8 159.8 404.6 158.4 404.1 157.2C403.6 156 403 155 402.1 154.2C401.2 153.5 400.1 153.1 398.8 153.1C397.4 153.1 396.3 153.5 395.4 154.2C394.5 154.9 393.8 155.9 393.4 157.2C393 158.5 392.7 159.8 392.7 161.3C392.7 162.8 392.9 164.2 393.4 165.4C393.8 166.6 394.5 167.6 395.4 168.3C396.3 169 397.5 169.4 398.8 169.4Z" fill="#242438"/>
<path d="M421.1 159V173.6H415.2V148.7H420.8V152.9H421.1C421.7 151.5 422.6 150.4 423.8 149.6C425.1 148.8 426.6 148.4 428.5 148.4C430.2 148.4 431.7 148.8 433 149.5C434.3 150.2 435.3 151.3 436 152.7C436.7 154.1 437.1 155.8 437 157.8V173.7H431.1V158.7C431.1 157 430.7 155.7 429.8 154.8C428.9 153.9 427.8 153.4 426.2 153.4C425.2 153.4 424.3 153.6 423.5 154.1C422.7 154.5 422.1 155.2 421.6 156C421.1 156.8 421.1 157.8 421.1 159Z" fill="#242438"/>
<path d="M460.7 174.1C459.1 174.1 457.7 173.8 456.4 173.2C455.1 172.6 454.1 171.8 453.4 170.7C452.7 169.6 452.3 168.2 452.3 166.6C452.3 165.2 452.6 164 453.1 163.1C453.6 162.2 454.3 161.4 455.2 160.9C456.1 160.3 457.1 159.9 458.2 159.6C459.3 159.3 460.5 159.1 461.7 159C463.2 158.8 464.3 158.7 465.3 158.6C466.3 158.5 466.9 158.3 467.3 158C467.7 157.7 467.9 157.3 467.9 156.8V156.7C467.9 155.5 467.5 154.5 466.8 153.9C466.1 153.2 465 152.9 463.7 152.9C462.3 152.9 461.1 153.2 460.3 153.8C459.5 154.4 458.9 155.2 458.6 156L453.1 155.2C453.5 153.7 454.2 152.4 455.2 151.4C456.2 150.4 457.4 149.6 458.8 149.1C460.2 148.6 461.8 148.3 463.6 148.3C464.8 148.3 466 148.4 467.2 148.7C468.4 149 469.5 149.4 470.5 150.1C471.5 150.8 472.3 151.6 472.9 152.7C473.5 153.8 473.8 155.2 473.8 156.8V173.5H468.2V170.1H468C467.6 170.8 467.1 171.4 466.5 172C465.9 172.6 465.1 173.1 464.1 173.4C463.1 173.9 462 174.1 460.7 174.1ZM462.2 169.8C463.4 169.8 464.4 169.6 465.3 169.1C466.2 168.6 466.8 168 467.3 167.2C467.8 166.4 468 165.6 468 164.7V161.8C467.8 162 467.5 162.1 467.1 162.2C466.7 162.3 466.2 162.4 465.6 162.5C465.1 162.6 464.5 162.7 464 162.8C463.5 162.9 463 162.9 462.6 163C461.7 163.1 460.9 163.3 460.2 163.6C459.5 163.9 459 164.2 458.6 164.7C458.2 165.2 458 165.8 458 166.6C458 167.7 458.4 168.5 459.2 169C460 169.5 461 169.8 462.2 169.8Z" fill="#77809C"/>
<path d="M490.2 174.1C487.7 174.1 485.6 173.6 483.8 172.5C482 171.4 480.7 169.9 479.7 168C478.7 166.1 478.3 163.8 478.3 161.3C478.3 158.8 478.8 156.5 479.8 154.6C480.8 152.7 482.1 151.1 483.9 150.1C485.7 149.1 487.8 148.5 490.2 148.5C492.2 148.5 494 148.9 495.6 149.6C497.2 150.3 498.4 151.4 499.3 152.7C500.2 154 500.8 155.6 500.9 157.4H495.3C495.1 156.2 494.5 155.2 493.7 154.4C492.9 153.6 491.7 153.2 490.3 153.2C489.1 153.2 488 153.5 487.1 154.2C486.2 154.8 485.5 155.8 485 157C484.5 158.2 484.2 159.6 484.2 161.3C484.2 163 484.4 164.5 484.9 165.7C485.4 166.9 486.1 167.9 487 168.5C487.9 169.1 489 169.5 490.2 169.5C491.1 169.5 491.8 169.3 492.5 169C493.2 168.7 493.8 168.2 494.2 167.6C494.7 167 495 166.2 495.2 165.3H500.8C500.7 167.1 500.1 168.6 499.2 170C498.3 171.4 497.1 172.4 495.5 173.2C494.1 173.7 492.2 174.1 490.2 174.1Z" fill="#77809C"/>
<path d="M505.2 173.6V148.7H510.9V152.9H511.2C511.7 151.5 512.4 150.4 513.5 149.6C514.6 148.8 515.9 148.4 517.3 148.4C517.6 148.4 518 148.4 518.4 148.4C518.8 148.4 519.1 148.5 519.4 148.5V153.9C519.2 153.8 518.8 153.7 518.2 153.7C517.6 153.7 517.1 153.6 516.7 153.6C515.6 153.6 514.7 153.8 513.8 154.3C512.9 154.8 512.3 155.4 511.8 156.2C511.3 157 511.1 157.9 511.1 159V173.6H505.2Z" fill="#77809C"/>
<path d="M533.7 174.1C531.3 174.1 529.2 173.6 527.4 172.5C525.6 171.4 524.2 169.9 523.3 168C522.3 166.1 521.8 163.8 521.8 161.3C521.8 158.7 522.3 156.5 523.3 154.5C524.3 152.6 525.7 151.1 527.4 150C529.2 148.9 531.3 148.4 533.7 148.4C536.1 148.4 538.2 148.9 540 150C541.8 151.1 543.2 152.6 544.1 154.5C545.1 156.4 545.6 158.7 545.6 161.3C545.6 163.9 545.1 166.1 544.1 168C543.1 169.9 541.7 171.4 540 172.5C538.3 173.6 536.2 174.1 533.7 174.1ZM533.8 169.4C535.1 169.4 536.2 169 537.1 168.3C538 167.6 538.6 166.6 539.1 165.4C539.5 164.2 539.8 162.8 539.8 161.3C539.8 159.8 539.6 158.4 539.1 157.2C538.6 156 538 155 537.1 154.2C536.2 153.5 535.1 153.1 533.8 153.1C532.4 153.1 531.3 153.5 530.4 154.2C529.5 154.9 528.8 155.9 528.4 157.2C528 158.5 527.7 159.8 527.7 161.3C527.7 162.8 527.9 164.2 528.4 165.4C528.8 166.6 529.5 167.6 530.4 168.3C531.3 169 532.4 169.4 533.8 169.4Z" fill="#77809C"/>
<path d="M569.9 155.3L564.5 155.9C564.3 155.4 564.1 154.9 563.7 154.4C563.3 153.9 562.8 153.5 562.2 153.2C561.6 152.9 560.8 152.8 559.9 152.8C558.7 152.8 557.7 153.1 556.8 153.6C556 154.1 555.6 154.8 555.6 155.7C555.6 156.4 555.9 157 556.4 157.5C556.9 158 557.9 158.3 559.1 158.6L563.3 159.5C565.7 160 567.4 160.8 568.6 161.9C569.8 163 570.3 164.4 570.3 166.2C570.3 167.8 569.8 169.2 568.9 170.3C568 171.5 566.7 172.4 565.1 173.1C563.5 173.8 561.7 174.1 559.6 174.1C556.6 174.1 554.1 173.5 552.2 172.2C550.3 170.9 549.2 169.1 548.9 166.8L554.6 166.2C554.9 167.3 555.4 168.2 556.3 168.7C557.2 169.2 558.2 169.6 559.6 169.6C561 169.6 562.1 169.3 563 168.7C563.8 168.1 564.3 167.4 564.3 166.6C564.3 165.9 564 165.3 563.5 164.8C563 164.3 562.1 164 561 163.7L556.7 162.8C554.3 162.3 552.5 161.5 551.4 160.3C550.3 159.1 549.7 157.6 549.7 155.8C549.7 154.3 550.1 152.9 551 151.8C551.9 150.7 553 149.8 554.6 149.2C556.1 148.6 557.9 148.3 559.9 148.3C562.8 148.3 565.1 148.9 566.8 150.2C568.4 151.5 569.5 153.1 569.9 155.3Z" fill="#77809C"/>
<path d="M594.5 155.3L589.1 155.9C588.9 155.4 588.7 154.9 588.3 154.4C587.9 153.9 587.4 153.5 586.8 153.2C586.2 152.9 585.4 152.8 584.5 152.8C583.3 152.8 582.3 153.1 581.4 153.6C580.6 154.1 580.2 154.8 580.2 155.7C580.2 156.4 580.5 157 581 157.5C581.5 158 582.5 158.3 583.7 158.6L587.9 159.5C590.3 160 592 160.8 593.2 161.9C594.4 163 594.9 164.4 594.9 166.2C594.9 167.8 594.4 169.2 593.5 170.3C592.6 171.5 591.3 172.4 589.7 173.1C588.1 173.8 586.3 174.1 584.2 174.1C581.2 174.1 578.7 173.5 576.8 172.2C574.9 170.9 573.8 169.1 573.5 166.8L579.2 166.2C579.5 167.3 580 168.2 580.9 168.7C581.8 169.2 582.8 169.6 584.2 169.6C585.6 169.6 586.7 169.3 587.6 168.7C588.4 168.1 588.9 167.4 588.9 166.6C588.9 165.9 588.6 165.3 588.1 164.8C587.6 164.3 586.7 164 585.6 163.7L581.3 162.8C578.9 162.3 577.1 161.5 576 160.3C574.9 159.1 574.3 157.6 574.3 155.8C574.3 154.3 574.7 152.9 575.6 151.8C576.5 150.7 577.6 149.8 579.2 149.2C580.7 148.6 582.5 148.3 584.5 148.3C587.4 148.3 589.7 148.9 591.4 150.2C593.1 151.5 594.1 153.1 594.5 155.3Z" fill="#77809C"/>
<path d="M623.8 140.4V173.6H617.8V146.2H617.6L609.8 151.2V145.7L618.1 140.4H623.8Z" fill="#242438"/>
<path d="M631.1 167.4V162.6L645.2 140.3H649.2V147.1H646.8L637.3 162.1V162.4H657V167.3H631.1V167.4ZM647 173.6V166L647.1 163.9V140.4H652.8V173.6H647Z" fill="#242438"/>
<path d="M673.2 139.9C674.8 139.9 676.3 140.2 677.8 140.7C679.3 141.2 680.7 142.1 681.9 143.4C683.1 144.6 684.1 146.3 684.8 148.3C685.5 150.4 685.9 152.9 685.9 155.9C685.9 158.8 685.6 161.3 685 163.5C684.4 165.7 683.5 167.6 682.4 169.2C681.3 170.7 679.9 171.9 678.3 172.7C676.7 173.5 674.9 173.9 672.9 173.9C670.8 173.9 668.9 173.5 667.3 172.7C665.7 171.9 664.4 170.8 663.4 169.3C662.4 167.9 661.8 166.2 661.6 164.4H667.5C667.8 165.7 668.4 166.8 669.4 167.5C670.3 168.3 671.5 168.7 672.9 168.7C675.2 168.7 677 167.7 678.2 165.7C679.4 163.7 680.1 160.9 680.1 157.4H679.9C679.4 158.4 678.7 159.2 677.8 159.9C677 160.6 676 161.1 674.9 161.5C673.8 161.9 672.7 162.1 671.5 162.1C669.6 162.1 667.8 161.6 666.3 160.7C664.7 159.8 663.5 158.5 662.6 156.9C661.7 155.3 661.2 153.4 661.2 151.3C661.2 149.1 661.7 147.2 662.7 145.5C663.7 143.8 665.1 142.4 666.9 141.4C668.7 140.4 670.8 139.9 673.2 139.9ZM673.3 144.8C672.1 144.8 671.1 145.1 670.1 145.7C669.2 146.3 668.4 147 667.9 148C667.4 149 667.1 150 667.1 151.2C667.1 152.4 667.4 153.4 667.9 154.4C668.4 155.4 669.1 156.1 670.1 156.7C671 157.3 672.1 157.5 673.2 157.5C674.1 157.5 674.9 157.3 675.6 157C676.4 156.7 677 156.2 677.6 155.6C678.2 155 678.6 154.3 678.9 153.5C679.2 152.7 679.4 151.9 679.4 151.1C679.4 150 679.1 148.9 678.6 148C678.1 147 677.3 146.3 676.4 145.7C675.5 145.1 674.4 144.8 673.3 144.8Z" fill="#242438"/>
<path d="M702.1 173.6V140.4H714.6C717.2 140.4 719.3 140.9 721 141.8C722.7 142.8 724 144.1 724.9 145.7C725.8 147.4 726.2 149.2 726.2 151.4C726.2 153.5 725.8 155.4 724.9 157.1C724 158.8 722.7 160.1 720.9 161C719.1 161.9 717 162.4 714.4 162.4H706.1V157.5H713.5C715 157.5 716.2 157.2 717.2 156.7C718.2 156.2 718.9 155.5 719.3 154.6C719.7 153.7 720 152.6 720 151.5C720 150.4 719.8 149.3 719.3 148.4C718.8 147.5 718.1 146.8 717.2 146.3C716.3 145.8 715 145.5 713.5 145.5H708V173.7H702.1V173.6Z" fill="#242438"/>
<path d="M730.7 173.6V148.7H736.4V152.9H736.7C737.2 151.5 737.9 150.4 739 149.6C740.1 148.8 741.4 148.4 742.8 148.4C743.1 148.4 743.5 148.4 743.9 148.4C744.3 148.4 744.6 148.5 744.9 148.5V153.9C744.7 153.8 744.3 153.7 743.7 153.7C743.1 153.7 742.6 153.6 742.2 153.6C741.1 153.6 740.2 153.8 739.3 154.3C738.4 154.8 737.8 155.4 737.3 156.2C736.8 157 736.6 157.9 736.6 159V173.6H730.7Z" fill="#242438"/>
<path d="M759.3 174.1C756.9 174.1 754.8 173.6 753 172.5C751.2 171.4 749.8 169.9 748.9 168C747.9 166.1 747.4 163.8 747.4 161.3C747.4 158.7 747.9 156.5 748.9 154.5C749.9 152.6 751.3 151.1 753 150C754.8 148.9 756.9 148.4 759.3 148.4C761.7 148.4 763.8 148.9 765.6 150C767.4 151.1 768.8 152.6 769.7 154.5C770.7 156.4 771.2 158.7 771.2 161.3C771.2 163.9 770.7 166.1 769.7 168C768.7 169.9 767.3 171.4 765.6 172.5C763.8 173.6 761.7 174.1 759.3 174.1ZM759.3 169.4C760.6 169.4 761.7 169 762.6 168.3C763.5 167.6 764.1 166.6 764.6 165.4C765 164.2 765.3 162.8 765.3 161.3C765.3 159.8 765.1 158.4 764.6 157.2C764.1 156 763.5 155 762.6 154.2C761.7 153.5 760.6 153.1 759.3 153.1C757.9 153.1 756.8 153.5 755.9 154.2C755 154.9 754.3 155.9 753.9 157.2C753.5 158.5 753.2 159.8 753.2 161.3C753.2 162.8 753.4 164.2 753.9 165.4C754.3 166.6 755 167.6 755.9 168.3C756.8 169 757.9 169.4 759.3 169.4Z" fill="#242438"/>
<path d="M775.7 148.7H781.6V175C781.6 176.8 781.3 178.3 780.6 179.4C779.9 180.6 778.9 181.4 777.6 182C776.3 182.6 774.8 182.9 772.9 182.9C772.7 182.9 772.5 182.9 772.3 182.9C772.1 182.9 771.9 182.9 771.7 182.9V178.1C771.9 178.1 772 178.1 772.1 178.1C772.2 178.1 772.4 178.1 772.5 178.1C773.6 178.1 774.4 177.8 774.9 177.3C775.4 176.8 775.6 176 775.6 174.9V148.7H775.7ZM778.6 145.1C777.7 145.1 776.9 144.8 776.2 144.2C775.5 143.6 775.2 142.8 775.2 142C775.2 141.1 775.5 140.4 776.2 139.7C776.9 139 777.7 138.8 778.6 138.8C779.5 138.8 780.3 139.1 781 139.7C781.7 140.3 782 141.1 782 142C782 142.9 781.7 143.6 781 144.2C780.4 144.8 779.6 145.1 778.6 145.1Z" fill="#242438"/>
<path d="M798.2 174.1C795.7 174.1 793.5 173.6 791.7 172.5C789.9 171.5 788.5 170 787.5 168.1C786.5 166.2 786 163.9 786 161.3C786 158.7 786.5 156.5 787.5 154.5C788.5 152.6 789.8 151 791.6 150C793.4 149 795.4 148.4 797.8 148.4C799.3 148.4 800.8 148.6 802.2 149.1C803.6 149.6 804.8 150.4 805.8 151.4C806.9 152.4 807.7 153.7 808.3 155.3C808.9 156.9 809.2 158.8 809.2 161V162.8H788.8V158.8H803.6C803.6 157.7 803.3 156.7 802.9 155.8C802.4 154.9 801.8 154.2 800.9 153.7C800.1 153.2 799.1 152.9 797.9 152.9C796.7 152.9 795.6 153.2 794.7 153.8C793.8 154.4 793.1 155.1 792.6 156.1C792.1 157.1 791.8 158.1 791.8 159.2V162.7C791.8 164.1 792.1 165.4 792.6 166.4C793.1 167.4 793.9 168.2 794.8 168.8C795.8 169.3 796.9 169.6 798.1 169.6C799 169.6 799.7 169.5 800.4 169.2C801.1 169 801.7 168.6 802.2 168.1C802.7 167.6 803.1 167 803.4 166.3L808.9 166.9C808.6 168.3 807.9 169.6 806.9 170.7C805.9 171.8 804.7 172.6 803.2 173.2C801.9 173.8 800.1 174.1 798.2 174.1Z" fill="#242438"/>
<path d="M824.6 174.1C822.1 174.1 820 173.6 818.2 172.5C816.4 171.4 815.1 169.9 814.1 168C813.1 166.1 812.7 163.8 812.7 161.3C812.7 158.8 813.2 156.5 814.2 154.6C815.2 152.7 816.5 151.1 818.3 150.1C820.1 149.1 822.2 148.5 824.6 148.5C826.6 148.5 828.4 148.9 830 149.6C831.6 150.3 832.8 151.4 833.7 152.7C834.6 154 835.2 155.6 835.3 157.4H829.7C829.5 156.2 828.9 155.2 828.1 154.4C827.3 153.6 826.1 153.2 824.7 153.2C823.5 153.2 822.4 153.5 821.5 154.2C820.6 154.8 819.9 155.8 819.4 157C818.9 158.2 818.6 159.6 818.6 161.3C818.6 163 818.8 164.5 819.3 165.7C819.8 166.9 820.5 167.9 821.4 168.5C822.3 169.1 823.4 169.5 824.6 169.5C825.5 169.5 826.2 169.3 826.9 169C827.6 168.7 828.2 168.2 828.6 167.6C829.1 167 829.4 166.2 829.6 165.3H835.2C835.1 167.1 834.5 168.6 833.6 170C832.7 171.4 831.5 172.4 829.9 173.2C828.6 173.7 826.7 174.1 824.6 174.1Z" fill="#242438"/>
<path d="M852.1 148.7V153.2H837.8V148.7H852.1ZM841.4 142.7H847.3V166.1C847.3 166.9 847.4 167.5 847.7 167.9C847.9 168.3 848.3 168.6 848.7 168.8C849.1 169 849.5 169 850 169C850.4 169 850.7 169 851 168.9C851.3 168.8 851.5 168.8 851.7 168.8L852.7 173.4C852.4 173.5 851.9 173.6 851.4 173.8C850.8 173.9 850.1 174 849.3 174C847.8 174 846.5 173.8 845.3 173.3C844.1 172.8 843.2 172 842.5 171C841.8 170 841.5 168.7 841.5 167.1V142.7H841.4Z" fill="#242438"/>
<path d="M876.3 155.3L870.9 155.9C870.7 155.4 870.5 154.9 870.1 154.4C869.7 153.9 869.2 153.5 868.6 153.2C868 152.9 867.2 152.8 866.3 152.8C865.1 152.8 864.1 153.1 863.2 153.6C862.4 154.1 862 154.8 862 155.7C862 156.4 862.3 157 862.8 157.5C863.3 158 864.3 158.3 865.5 158.6L869.7 159.5C872.1 160 873.8 160.8 875 161.9C876.2 163 876.7 164.4 876.7 166.2C876.7 167.8 876.2 169.2 875.3 170.3C874.4 171.5 873.1 172.4 871.5 173.1C869.9 173.8 868.1 174.1 866 174.1C863 174.1 860.5 173.5 858.6 172.2C856.7 170.9 855.6 169.1 855.3 166.8L861 166.2C861.3 167.3 861.8 168.2 862.7 168.7C863.6 169.2 864.6 169.6 866 169.6C867.4 169.6 868.5 169.3 869.4 168.7C870.2 168.1 870.7 167.4 870.7 166.6C870.7 165.9 870.4 165.3 869.9 164.8C869.4 164.3 868.5 164 867.4 163.7L863.1 162.8C860.7 162.3 858.9 161.5 857.8 160.3C856.7 159.1 856.1 157.6 856.1 155.8C856.1 154.3 856.5 152.9 857.4 151.8C858.3 150.7 859.4 149.8 861 149.2C862.5 148.6 864.3 148.3 866.3 148.3C869.2 148.3 871.5 148.9 873.2 150.2C874.9 151.5 875.9 153.1 876.3 155.3Z" fill="#242438"/>
<path d="M884.8 174C883.8 174 883 173.7 882.3 173C881.6 172.3 881.3 171.5 881.3 170.5C881.3 169.5 881.6 168.7 882.3 168C883 167.3 883.8 167 884.8 167C885.8 167 886.6 167.3 887.3 168C888 168.7 888.4 169.5 888.4 170.5C888.4 171.2 888.2 171.8 887.9 172.3C887.6 172.8 887.1 173.3 886.6 173.6C886.1 173.8 885.5 174 884.8 174Z" fill="#77809C"/>
</g>
<mask id="mask7_4_1621" style="mask-type:luminance" maskUnits="userSpaceOnUse" x="0" y="0" width="1521" height="255">
<path d="M1521 0H0V255H1521V0Z" fill="white"/>
</mask>
<g mask="url(#mask7_4_1621)">
<path d="M1468 59C1480.15 59 1490 49.1503 1490 37C1490 24.8497 1480.15 15 1468 15C1455.85 15 1446 24.8497 1446 37C1446 49.1503 1455.85 59 1468 59Z" fill="#D4F6FF"/>
</g>
<mask id="mask8_4_1621" style="mask-type:luminance" maskUnits="userSpaceOnUse" x="0" y="0" width="1521" height="255">
<path d="M1521 0H0V255H1521V0Z" fill="white"/>
</mask>
<g mask="url(#mask8_4_1621)">
<path d="M1208 166.7C1209.1 165.7 1210.2 164.4 1211.5 163.6C1224 156 1236.5 148.6 1249 141.1C1250.7 140 1252.5 139.1 1254.5 140.3C1256.4 141.4 1256.5 143.3 1256.5 145.3C1256.5 151.8 1256.5 158.2 1256.5 164.7C1256.5 165.5 1256.5 166.2 1256.5 167.6C1257.6 166.7 1258.4 166.2 1259.1 165.7C1269.1 157.7 1279.2 149.6 1289.2 141.6C1290.8 140.3 1292.4 139.2 1294.5 140.2C1296.7 141.3 1297 143.3 1297 145.4C1297 151.9 1297 158.3 1297 164.8C1297 165.6 1297 166.3 1297 167.5C1297.9 166.9 1298.5 166.5 1299 166.1C1309.1 158 1319.2 149.9 1329.3 141.9C1329.6 141.7 1329.9 141.4 1330.2 141.2C1331.6 140 1333.2 139.4 1335 140.3C1336.8 141.2 1337.3 142.7 1337.3 144.6C1337.3 151.4 1337.3 158.2 1337.3 165C1337.3 165.8 1337.3 166.5 1337.3 167.8C1338.5 166.9 1339.2 166.3 1340 165.7C1349.9 157.8 1359.7 149.9 1369.6 142C1370.1 141.6 1370.6 141.2 1371.1 140.8C1374.2 138.7 1377.5 140.3 1377.7 144C1377.9 148.9 1377.8 153.8 1377.8 158.7C1377.8 161.8 1377.8 164.8 1377.8 168C1380.7 168 1383.2 168 1386.1 168C1386.4 164.3 1386.7 160.7 1387 157C1388.3 137.5 1389.6 118 1391 98.3998C1392 84.2998 1392.9 70.1998 1393.9 56.0998C1394.2 51.9998 1395.5 50.7998 1399.5 50.7998C1406.6 50.7998 1413.7 50.7998 1420.8 50.7998C1424.8 50.7998 1426.2 52.0998 1426.4 56.0998C1427.9 78.1998 1429.5 100.3 1431 122.5C1432 137 1433 151.5 1434 166C1434 166.6 1434.1 167.2 1434.2 168.2C1437.8 168.2 1441.3 168.2 1444.8 168.2C1449.3 168.2 1450.5 169.4 1450.5 174C1450.5 203.8 1450.5 233.7 1450.5 263.5C1450.5 266 1449.9 268 1447.6 269.2C1367.7 269.2 1287.8 269.2 1207.9 269.2C1208 234.9 1208 200.8 1208 166.7ZM1337.3 260.9C1337.3 259.8 1337.3 259 1337.3 258.1C1337.3 242.2 1337.3 226.2 1337.3 210.3C1337.3 205.6 1338.5 204.4 1343.1 204.3C1352.6 204.3 1362 204.3 1371.5 204.3C1376.6 204.3 1377.6 205.4 1377.6 210.4C1377.6 226.3 1377.6 242.1 1377.6 258C1377.6 258.9 1377.6 259.8 1377.6 260.7C1399.4 260.7 1420.8 260.7 1442.2 260.7C1442.2 232.4 1442.2 204.4 1442.2 176C1441.2 176 1440.2 176 1439.3 176C1418.1 176 1397 176 1375.8 176C1370.6 176 1369.5 174.8 1369.4 169.5C1369.4 164.8 1369.4 160.2 1369.4 155.5C1369.4 154.5 1369.4 153.5 1369.4 152.1C1368.3 152.9 1367.6 153.4 1367 153.9C1357.2 161.7 1347.4 169.6 1337.6 177.4C1335.8 178.9 1334 180.7 1331.3 179.4C1328.7 178.1 1329 175.7 1329 173.4C1329 167.6 1329 161.7 1329 155.9C1329 154.8 1329 153.6 1329 152.1C1328 152.8 1327.4 153.3 1326.8 153.8C1316.6 161.9 1306.5 170.1 1296.3 178.2C1294.7 179.5 1293 180.5 1290.9 179.5C1288.7 178.5 1288.6 176.5 1288.6 174.5C1288.6 167.9 1288.6 161.4 1288.6 154.8C1288.6 154 1288.5 153.3 1288.5 152.1C1287.3 153.1 1286.4 153.8 1285.5 154.5C1275.6 162.4 1265.8 170.3 1255.9 178.2C1254.3 179.5 1252.6 180.5 1250.5 179.5C1248.4 178.5 1248.1 176.5 1248.1 174.5C1248.1 167.6 1248.1 160.6 1248.1 153.7C1248.1 152.9 1248.1 152.1 1248.1 150.9C1247 151.5 1246.4 151.9 1245.7 152.3C1236.4 157.9 1227.2 163.4 1217.9 168.9C1216.4 169.8 1215.7 170.7 1215.8 172.6C1215.9 201.2 1215.9 229.8 1215.9 258.3C1215.9 259.1 1215.9 260 1215.9 260.8C1256.6 260.9 1296.8 260.9 1337.3 260.9ZM1418.5 58.9998C1412.7 58.9998 1407.3 58.9998 1401.8 58.9998C1399.3 95.3998 1396.8 131.5 1394.3 167.8C1405 167.8 1415.4 167.8 1426 167.8C1423.5 131.4 1421 95.2998 1418.5 58.9998ZM1345.6 212.6C1345.6 228.8 1345.6 244.8 1345.6 260.8C1353.7 260.8 1361.5 260.8 1369.4 260.8C1369.4 244.6 1369.4 228.6 1369.4 212.6C1361.4 212.6 1353.5 212.6 1345.6 212.6Z" fill="#15BEE6"/>
<path d="M1358.5 34.7999C1360.3 33.1999 1361.8 31.8999 1363.3 30.4999C1369 25.1999 1373.8 25.3999 1379.6 30.2999C1379.7 30.3999 1379.8 30.4999 1379.9 30.5999C1385.1 35.4999 1384.1 35.5999 1389.4 30.3999C1395.3 24.6999 1402.3 25.0999 1407.2 31.5999C1408.3 32.9999 1409.2 34.3999 1411.3 34.6999C1413.3 34.9999 1414.4 37.1999 1413.9 39.0999C1413.5 41.0999 1412.1 42.2999 1410.1 42.2999C1407 42.2999 1404.4 41.0999 1402.4 38.7999C1402.1 38.4999 1401.9 38.1999 1401.7 37.8999C1398.4 33.3999 1398 33.3999 1394 37.1999C1392.9 38.2999 1391.7 39.3999 1390.4 40.1999C1385.2 43.2999 1381.7 43.2999 1376.7 38.8999C1371.3 34.1999 1371.6 34.1999 1366.2 38.7999C1360.6 43.5999 1356.3 43.4999 1350.6 38.7999C1348.4 36.9999 1346 35.3999 1343.5 33.8999C1341.8 32.8999 1340.9 30.8999 1341.6 28.9999C1342.2 27.1999 1344.2 25.6999 1346.1 26.4999C1348.8 27.4999 1351.3 28.8999 1353.7 30.4999C1355.4 31.6999 1356.7 33.1999 1358.5 34.7999Z" fill="#15BEE6"/>
<path d="M1288.9 228.5C1288.9 232.2 1288.9 235.9 1288.9 239.6C1288.9 243.3 1287.3 244.8 1283.7 244.8C1279 244.8 1274.4 244.8 1269.7 244.8C1266.2 244.8 1264.7 243.3 1264.6 239.7C1264.5 232.3 1264.5 224.9 1264.6 217.4C1264.6 213.8 1266 212.4 1269.7 212.4C1274.4 212.3 1279 212.4 1283.7 212.4C1287.5 212.4 1288.9 213.9 1288.9 217.8C1288.9 221.4 1288.9 224.9 1288.9 228.5ZM1272.9 220.7C1272.9 226.2 1272.9 231.3 1272.9 236.6C1275.5 236.6 1278 236.6 1280.7 236.6C1280.7 231.2 1280.7 226 1280.7 220.7C1278 220.7 1275.5 220.7 1272.9 220.7Z" fill="#15BEE6"/>
<path d="M1256.5 228.7C1256.5 232.4 1256.5 236.1 1256.5 239.8C1256.4 243.2 1255 244.7 1251.6 244.7C1246.8 244.8 1242 244.8 1237.2 244.7C1234 244.7 1232.4 243.1 1232.3 239.9C1232.2 232.3 1232.2 224.7 1232.3 217.2C1232.3 214 1233.8 212.5 1236.9 212.4C1241.9 212.3 1246.8 212.3 1251.8 212.4C1255.1 212.5 1256.4 213.9 1256.5 217.3C1256.5 221.1 1256.5 224.9 1256.5 228.7ZM1248.3 220.7C1245.6 220.7 1243 220.7 1240.5 220.7C1240.5 226.1 1240.5 231.2 1240.5 236.5C1243.2 236.5 1245.7 236.5 1248.3 236.5C1248.3 231.2 1248.3 226.1 1248.3 220.7Z" fill="#15BEE6"/>
<path d="M1297 228.6C1297 224.9 1297 221.2 1297 217.5C1297 214 1298.3 212.5 1301.8 212.5C1306.7 212.4 1311.6 212.4 1316.5 212.5C1319.8 212.6 1321.2 214.1 1321.2 217.4C1321.2 224.9 1321.2 232.4 1321.2 239.9C1321.2 243.3 1319.6 244.8 1316.2 244.9C1311.4 245 1306.6 245 1301.8 244.9C1298.5 244.9 1297 243.4 1297 240.1C1296.9 236.2 1297 232.4 1297 228.6ZM1305.2 220.7C1305.2 226.1 1305.2 231.3 1305.2 236.6C1307.9 236.6 1310.4 236.6 1313 236.6C1313 231.2 1313 226 1313 220.7C1310.3 220.7 1307.8 220.7 1305.2 220.7Z" fill="#15BEE6"/>
</g>
<mask id="mask9_4_1621" style="mask-type:luminance" maskUnits="userSpaceOnUse" x="0" y="0" width="1521" height="255">
<path d="M1521 0H0V255H1521V0Z" fill="white"/>
</mask>
<g mask="url(#mask9_4_1621)">
<path d="M57.5 203.7C57.5 202.4 57.7 201.2 58 200.1C58.3 199 58.8 198 59.4 197.1H60.5C60.3 197.4 60 197.9 59.8 198.3C59.6 198.8 59.4 199.3 59.2 199.9C59 200.5 58.9 201.1 58.8 201.7C58.7 202.3 58.7 202.9 58.7 203.6C58.7 204.4 58.8 205.2 58.9 206.1C59.1 206.9 59.3 207.7 59.5 208.4C59.8 209.1 60.1 209.7 60.4 210.2H59.3C58.7 209.3 58.2 208.3 57.9 207.2C57.6 206.1 57.5 205 57.5 203.7Z" fill="#D3D3D3"/>
<path d="M69.4 197.7H70.6999V204.6C70.6999 205.3 70.4999 206 70.1999 206.5C69.8999 207.1 69.4 207.5 68.8 207.8C68.2 208.1 67.4999 208.3 66.6999 208.3C65.8999 208.3 65.1999 208.1 64.5999 207.8C63.9999 207.5 63.5 207 63.2 206.5C62.9 205.9 62.7 205.3 62.7 204.6V197.7H64V204.5C64 205 64.1 205.5 64.3 205.9C64.5 206.3 64.8 206.6 65.3 206.8C65.7 207 66.2 207.1 66.8 207.1C67.4 207.1 67.9 207 68.3 206.8C68.7 206.6 69 206.3 69.3 205.9C69.6 205.5 69.5999 205 69.5999 204.5V197.7H69.4Z" fill="#D3D3D3"/>
<path d="M81.5 197.7V208.2H80.3L74.6 200H74.5V208.2H73.2V197.7H74.4L80.1 205.9H80.2V197.7H81.5Z" fill="#D3D3D3"/>
<path d="M92.5 201H91.2C91.1 200.6 91 200.3 90.8 200C90.6 199.7 90.4 199.5 90.1 199.3C89.8 199.1 89.5 199 89.2 198.9C88.9 198.8 88.5 198.8 88.2 198.8C87.6 198.8 87 199 86.5 199.3C86 199.6 85.6 200.1 85.3 200.7C85 201.3 84.8 202.1 84.8 203C84.8 203.9 85 204.7 85.3 205.3C85.6 205.9 86 206.4 86.5 206.7C87 207 87.6 207.2 88.2 207.2C88.5 207.2 88.9 207.2 89.2 207.1C89.5 207 89.8 206.9 90.1 206.7C90.4 206.5 90.6 206.3 90.8 206C91 205.7 91.1 205.4 91.2 205H92.5C92.4 205.5 92.2 206 92 206.4C91.7 206.8 91.4 207.2 91.1 207.5C90.7 207.8 90.3 208 89.8 208.2C89.3 208.4 88.8 208.4 88.3 208.4C87.4 208.4 86.6 208.2 85.9 207.7C85.2 207.3 84.7 206.6 84.3 205.8C83.9 205 83.7 204 83.7 202.9C83.7 201.8 83.9 200.8 84.3 200C84.7 199.2 85.2 198.6 85.9 198.1C86.6 197.7 87.4 197.4 88.3 197.4C88.8 197.4 89.3 197.5 89.8 197.6C90.3 197.7 90.7 198 91.1 198.3C91.5 198.6 91.8 199 92 199.4C92.2 199.9 92.4 200.4 92.5 201Z" fill="#D3D3D3"/>
<path d="M93.8999 198.8V197.7H101.8V198.8H98.4999V208.2H97.1999V198.8H93.8999Z" fill="#D3D3D3"/>
<path d="M104.2 208.2H102.9L106.7 197.7H108L111.8 208.2H110.5L107.4 199.4H107.3L104.2 208.2ZM104.7 204.1H110.1V205.2H104.7V204.1Z" fill="#D3D3D3"/>
<path d="M116.7 208.2H113.5V197.7H116.9C117.9 197.7 118.8 197.9 119.5 198.3C120.2 198.7 120.8 199.3 121.2 200.1C121.6 200.9 121.8 201.8 121.8 202.9C121.8 204 121.6 204.9 121.2 205.7C120.8 206.5 120.2 207.1 119.5 207.5C118.8 207.9 117.8 208.2 116.7 208.2ZM114.8 207H116.7C117.6 207 118.3 206.8 118.9 206.5C119.5 206.2 119.9 205.7 120.2 205.1C120.5 204.5 120.6 203.7 120.6 202.9C120.6 202.1 120.5 201.3 120.2 200.7C119.9 200.1 119.5 199.6 119 199.3C118.5 199 117.8 198.8 116.9 198.8H114.9V207H114.8Z" fill="#D3D3D3"/>
<path d="M127.7 208.2V207.3L131.2 203.5C131.6 203.1 131.9 202.7 132.2 202.3C132.5 202 132.7 201.7 132.8 201.4C132.9 201.1 133 200.8 133 200.5C133 200.1 132.9 199.8 132.7 199.5C132.5 199.2 132.3 199 132 198.9C131.7 198.8 131.4 198.7 131 198.7C130.6 198.7 130.2 198.8 129.9 198.9C129.6 199.1 129.4 199.3 129.2 199.6C129 199.9 129 200.2 129 200.6H127.8C127.8 200 127.9 199.4 128.2 199C128.5 198.6 128.9 198.2 129.4 197.9C129.9 197.6 130.4 197.5 131.1 197.5C131.7 197.5 132.3 197.6 132.7 197.9C133.2 198.2 133.5 198.5 133.8 198.9C134.1 199.3 134.2 199.8 134.2 200.4C134.2 200.8 134.1 201.2 134 201.5C133.9 201.9 133.6 202.3 133.3 202.7C133 203.1 132.5 203.7 131.9 204.3L129.5 206.8V206.9H134.4V208H127.7V208.2Z" fill="#D3D3D3"/>
<path d="M139.9 208.3C139.1 208.3 138.5 208.1 137.9 207.7C137.4 207.3 136.9 206.7 136.7 205.9C136.4 205.1 136.3 204.1 136.3 203C136.3 201.9 136.4 200.9 136.7 200.1C137 199.3 137.4 198.7 137.9 198.3C138.4 197.9 139.1 197.7 139.9 197.7C140.7 197.7 141.3 197.9 141.9 198.3C142.4 198.7 142.9 199.3 143.1 200.1C143.4 200.9 143.5 201.9 143.5 203C143.5 204.1 143.4 205.1 143.1 205.9C142.8 206.7 142.4 207.3 141.9 207.7C141.3 208.1 140.6 208.3 139.9 208.3ZM139.9 207.2C140.7 207.2 141.3 206.8 141.7 206.1C142.1 205.4 142.3 204.3 142.3 202.9C142.3 202 142.2 201.2 142 200.6C141.8 200 141.5 199.5 141.2 199.1C140.8 198.8 140.4 198.6 139.9 198.6C139.1 198.6 138.6 199 138.1 199.7C137.7 200.4 137.5 201.5 137.5 202.9C137.5 203.8 137.6 204.6 137.8 205.2C138 205.8 138.3 206.3 138.6 206.6C138.9 206.9 139.4 207.2 139.9 207.2Z" fill="#D3D3D3"/>
<path d="M145.5 208.2V207.3L149 203.5C149.4 203.1 149.7 202.7 150 202.3C150.3 202 150.5 201.7 150.6 201.4C150.7 201.1 150.8 200.8 150.8 200.5C150.8 200.1 150.7 199.8 150.5 199.5C150.3 199.2 150.1 199 149.8 198.9C149.5 198.8 149.2 198.7 148.8 198.7C148.4 198.7 148 198.8 147.7 198.9C147.4 199.1 147.2 199.3 147 199.6C146.8 199.9 146.8 200.2 146.8 200.6H145.6C145.6 200 145.7 199.4 146 199C146.3 198.6 146.7 198.2 147.2 197.9C147.7 197.6 148.2 197.5 148.9 197.5C149.5 197.5 150.1 197.6 150.5 197.9C151 198.2 151.3 198.5 151.6 198.9C151.9 199.3 152 199.8 152 200.4C152 200.8 151.9 201.2 151.8 201.5C151.7 201.9 151.4 202.3 151.1 202.7C150.8 203.1 150.3 203.7 149.7 204.3L147.3 206.8V206.9H152.2V208H145.5V208.2Z" fill="#D3D3D3"/>
<path d="M153.9 206V205L158.5 197.7H159.3V199.3H158.8L155.3 204.8V204.9H161.5V206H153.9ZM158.9 208.2V205.7V205.2V197.7H160.1V208.2H158.9Z" fill="#D3D3D3"/>
<path d="M166 203.7C166 205 165.8 206.2 165.5 207.3C165.2 208.4 164.7 209.4 164.1 210.3H163C163.2 210 163.5 209.5 163.7 209.1C163.9 208.6 164.1 208.1 164.3 207.5C164.5 206.9 164.6 206.3 164.7 205.7C164.8 205.1 164.8 204.5 164.8 203.8C164.8 203 164.7 202.2 164.6 201.3C164.5 200.4 164.2 199.7 164 199C163.7 198.3 163.4 197.7 163.1 197.2H164.2C164.8 198.1 165.3 199.1 165.6 200.2C165.9 201.3 166 202.5 166 203.7Z" fill="#D3D3D3"/>
</g>
<mask id="mask10_4_1621" style="mask-type:luminance" maskUnits="userSpaceOnUse" x="0" y="0" width="1521" height="255">
<path d="M1521 0H0V255H1521V0Z" fill="white"/>
</mask>
<g mask="url(#mask10_4_1621)">
<path d="M64.9 60.8999H58V39.3999H65.2C67.3 39.3999 69.1 39.7999 70.6 40.6999C72.1 41.5999 73.3 42.7999 74.1 44.3999C74.9 45.9999 75.3 47.8999 75.3 50.0999C75.3 52.2999 74.9 54.2999 74.1 55.8999C73.3 57.4999 72.1 58.6999 70.6 59.5999C68.9 60.4999 67.1 60.8999 64.9 60.8999ZM61.2 58.0999H64.7C66.3 58.0999 67.7 57.7999 68.8 57.1999C69.9 56.5999 70.7 55.6999 71.2 54.4999C71.7 53.2999 72 51.8999 72 50.1999C72 48.4999 71.7 47.0999 71.2 45.8999C70.7 44.6999 69.9 43.7999 68.8 43.1999C67.7 42.5999 66.4 42.2999 64.9 42.2999H61.2V58.0999Z" fill="#242438"/>
<path d="M80.6001 42.3C80.1001 42.3 79.6001 42.1 79.2001 41.7C78.8001 41.3 78.6001 40.9 78.6001 40.4C78.6001 39.9 78.8001 39.4 79.2001 39.1C79.6001 38.7 80.1001 38.5 80.6001 38.5C81.1001 38.5 81.6001 38.7 82.0001 39.1C82.4001 39.5 82.6001 39.9 82.6001 40.4C82.6001 40.9 82.4001 41.4 82.0001 41.7C81.6001 42.1 81.1001 42.3 80.6001 42.3ZM79.0001 60.9V44.8H82.1001V60.9H79.0001Z" fill="#242438"/>
<path d="M92.3 61.1999C91 61.1999 89.8 60.8999 88.8 60.1999C87.8 59.4999 87 58.5999 86.4 57.2999C85.8 56.0999 85.5 54.5999 85.5 52.7999C85.5 51.0999 85.8 49.5999 86.4 48.2999C87 47.0999 87.8 46.0999 88.8 45.4999C89.8 44.7999 91 44.4999 92.3 44.4999C93.3 44.4999 94.1 44.6999 94.7 44.9999C95.3 45.2999 95.8 45.6999 96.1 46.1999C96.4 46.5999 96.7 46.9999 96.9 47.3999H97.1V39.3999H100.2V60.8999H97.1V58.3999H97C96.8 58.6999 96.5 59.0999 96.2 59.5999C95.8 59.9999 95.4 60.3999 94.7 60.7999C94.1 60.9999 93.3 61.1999 92.3 61.1999ZM93 58.4999C93.9 58.4999 94.7 58.2999 95.3 57.7999C95.9 57.2999 96.4 56.6999 96.7 55.7999C97 54.8999 97.2 53.9999 97.2 52.7999C97.2 51.6999 97 50.6999 96.7 49.8999C96.4 49.0999 95.9 48.3999 95.3 47.8999C94.7 47.3999 93.9 47.1999 93 47.1999C92.1 47.1999 91.3 47.3999 90.6 47.8999C89.9 48.3999 89.5 49.0999 89.2 49.8999C88.9 50.6999 88.7 51.6999 88.7 52.7999C88.7 53.8999 88.9 54.7999 89.2 55.6999C89.5 56.5999 90 57.1999 90.6 57.6999C91.2 58.1999 92.1 58.4999 93 58.4999Z" fill="#242438"/>
<path d="M114.6 66.9001C114.1 66.9001 113.7 66.9001 113.3 66.8001C112.9 66.7001 112.6 66.6 112.4 66.6L113.2 64C113.8 64.2001 114.3 64.2 114.7 64.2C115.1 64.2 115.5 64 115.9 63.7001C116.3 63.4001 116.6 62.9001 116.8 62.2001L117.2 61.1L111.3 44.8H114.7L118.8 57.3H119L123.1 44.8H126.5L119.7 63C119.4 63.8 119 64.5 118.5 65.1C118 65.7 117.5 66.1001 116.8 66.4001C116.2 66.8001 115.5 66.9001 114.6 66.9001Z" fill="#242438"/>
<path d="M136.1 61.2001C134.6 61.2001 133.3 60.9001 132.1 60.2001C131 59.5001 130.1 58.5001 129.5 57.3001C128.9 56.1001 128.6 54.6001 128.6 52.9001C128.6 51.2001 128.9 49.8001 129.5 48.5001C130.1 47.2001 131 46.3001 132.1 45.6001C133.2 44.9001 134.5 44.6001 136.1 44.6001C137.7 44.6001 138.9 44.9001 140.1 45.6001C141.2 46.3001 142.1 47.3001 142.7 48.5001C143.3 49.7001 143.6 51.2001 143.6 52.9001C143.6 54.6001 143.3 56.0001 142.7 57.3001C142.1 58.5001 141.2 59.5001 140.1 60.2001C138.9 60.9001 137.6 61.2001 136.1 61.2001ZM136.1 58.6001C137.1 58.6001 137.9 58.3001 138.5 57.8001C139.1 57.3001 139.6 56.6001 139.9 55.7001C140.2 54.8001 140.4 53.9001 140.4 52.9001C140.4 51.9001 140.2 50.9001 139.9 50.1001C139.6 49.2001 139.1 48.5001 138.5 48.0001C137.9 47.5001 137 47.2001 136.1 47.2001C135.1 47.2001 134.3 47.5001 133.7 48.0001C133.1 48.5001 132.6 49.2001 132.3 50.1001C132 51.0001 131.8 51.9001 131.8 52.9001C131.8 53.9001 132 54.9001 132.3 55.7001C132.6 56.6001 133.1 57.2001 133.7 57.8001C134.3 58.3001 135.1 58.6001 136.1 58.6001Z" fill="#242438"/>
<path d="M157.3 54.2001V44.8H160.4V60.9001H157.3V58.1H157.1C156.7 59 156.1 59.7001 155.3 60.2001C154.5 60.8001 153.5 61.1 152.3 61.1C151.3 61.1 150.4 60.9001 149.6 60.4001C148.8 59.9001 148.2 59.3001 147.7 58.4001C147.2 57.5001 147 56.4 147 55.1V44.8H150.1V54.7001C150.1 55.8001 150.4 56.7 151 57.3C151.6 58 152.4 58.3 153.4 58.3C154 58.3 154.6 58.2001 155.2 57.9001C155.8 57.6001 156.3 57.2 156.7 56.6C157.1 56 157.3 55.1 157.3 54.2001Z" fill="#242438"/>
<path d="M172.5 60.8999V39.3999H175.6V60.8999H172.5ZM175.4 55.3999V51.5999H175.9L182.3 44.7999H186.1L178.8 52.5999H178.3L175.4 55.3999ZM182.6 60.8999L176.8 53.1999L179 50.9999L186.5 60.7999H182.6V60.8999Z" fill="#15BEE6"/>
<path d="M192 51.3V60.9H188.9V44.8H191.9V47.4H192.1C192.5 46.5 193.1 45.9 193.8 45.3C194.6 44.8 195.6 44.5 196.8 44.5C197.9 44.5 198.9 44.7 199.7 45.2C200.5 45.7 201.2 46.3 201.6 47.2C202.1 48.1 202.3 49.2 202.3 50.5V60.7H199.2V51C199.2 49.8 198.9 48.9 198.3 48.3C197.7 47.6 196.9 47.3 195.8 47.3C195.1 47.3 194.4 47.5 193.9 47.8C193.4 48.1 192.9 48.6 192.6 49.2C192.2 49.7 192 50.5 192 51.3Z" fill="#15BEE6"/>
<path d="M213.3 61.2001C211.8 61.2001 210.5 60.9001 209.3 60.2001C208.2 59.5001 207.3 58.5001 206.7 57.3001C206.1 56.1001 205.8 54.6001 205.8 52.9001C205.8 51.2001 206.1 49.8001 206.7 48.5001C207.3 47.2001 208.2 46.3001 209.3 45.6001C210.4 44.9001 211.7 44.6001 213.3 44.6001C214.9 44.6001 216.1 44.9001 217.3 45.6001C218.4 46.3001 219.3 47.3001 219.9 48.5001C220.5 49.7001 220.8 51.2001 220.8 52.9001C220.8 54.6001 220.5 56.0001 219.9 57.3001C219.3 58.5001 218.4 59.5001 217.3 60.2001C216.1 60.9001 214.8 61.2001 213.3 61.2001ZM213.3 58.6001C214.3 58.6001 215.1 58.3001 215.7 57.8001C216.3 57.3001 216.8 56.6001 217.1 55.7001C217.4 54.8001 217.6 53.9001 217.6 52.9001C217.6 51.9001 217.4 50.9001 217.1 50.1001C216.8 49.2001 216.3 48.5001 215.7 48.0001C215.1 47.5001 214.2 47.2001 213.3 47.2001C212.3 47.2001 211.5 47.5001 210.9 48.0001C210.3 48.5001 209.8 49.2001 209.5 50.1001C209.2 51.0001 209 51.9001 209 52.9001C209 53.9001 209.2 54.9001 209.5 55.7001C209.8 56.6001 210.3 57.2001 210.9 57.8001C211.5 58.3001 212.3 58.6001 213.3 58.6001Z" fill="#15BEE6"/>
<path d="M227.8 60.9001L223.1 44.8H226.3L229.5 56.6H229.7L232.9 44.8H236.1L239.2 56.6H239.4L242.5 44.8H245.7L241 60.9001H237.8L234.5 49.3H234.3L231 60.9001H227.8Z" fill="#15BEE6"/>
<path d="M252.1 54.4999C252.1 53.1999 252.2 52.1999 252.5 51.3999C252.8 50.5999 253.1 49.9999 253.6 49.4999C254.1 48.9999 254.6 48.5999 255.3 48.1999C255.7 47.8999 256.1 47.5999 256.4 47.2999C256.7 46.9999 257 46.5999 257.2 46.1999C257.4 45.7999 257.5 45.2999 257.5 44.7999C257.5 44.1999 257.4 43.5999 257.1 43.1999C256.8 42.6999 256.4 42.3999 255.9 42.0999C255.4 41.7999 254.9 41.6999 254.3 41.6999C253.8 41.6999 253.2 41.7999 252.8 41.9999C252.4 42.1999 251.9 42.5999 251.6 42.9999C251.3 43.3999 251.1 44.0999 251 44.7999H247.8C247.8 43.4999 248.2 42.4999 248.8 41.5999C249.4 40.6999 250.2 40.0999 251.1 39.5999C252 39.0999 253.1 38.8999 254.3 38.8999C255.6 38.8999 256.7 39.0999 257.7 39.5999C258.7 40.0999 259.4 40.6999 259.9 41.5999C260.4 42.4999 260.7 43.4999 260.7 44.5999C260.7 45.3999 260.6 46.0999 260.3 46.6999C260.1 47.2999 259.7 47.8999 259.3 48.3999C258.8 48.8999 258.3 49.2999 257.7 49.6999C257.1 50.0999 256.6 50.4999 256.3 50.8999C255.9 51.2999 255.7 51.7999 255.5 52.2999C255.3 52.7999 255.2 53.4999 255.2 54.2999V54.4999H252.1ZM253.7 61.0999C253.1 61.0999 252.6 60.8999 252.2 60.4999C251.8 60.0999 251.6 59.5999 251.6 58.9999C251.6 58.3999 251.8 57.8999 252.2 57.4999C252.6 57.0999 253.1 56.8999 253.7 56.8999C254.3 56.8999 254.8 57.0999 255.2 57.4999C255.6 57.8999 255.8 58.3999 255.8 58.9999C255.8 59.3999 255.7 59.6999 255.5 60.0999C255.3 60.3999 255.1 60.6999 254.7 60.8999C254.4 60.9999 254 61.0999 253.7 61.0999Z" fill="#15BEE6"/>
<path d="M258 65.6001H171.9V68.2001H258V65.6001Z" fill="#D9F4F9"/>
</g>
</g>
<defs>
<clipPath id="clip0_4_1621">
<rect width="1521" height="255" fill="white"/>
</clipPath>
</defs>
</svg>
