<svg width="1521" height="255" viewBox="0 0 1521 255" fill="none" xmlns="http://www.w3.org/2000/svg">
<g clip-path="url(#clip0_4_866)">
<path d="M1521 0H0V255H1521V0Z" fill="white"/>
<mask id="mask0_4_866" style="mask-type:luminance" maskUnits="userSpaceOnUse" x="0" y="0" width="1521" height="255">
<path d="M1521 0H0V255H1521V0Z" fill="white"/>
</mask>
<g mask="url(#mask0_4_866)">
<path d="M589.8 65C625.7 65 654.8 35.9 654.8 0H524.8C524.8 35.9 553.9 65 589.8 65Z" fill="#F2FCFF"/>
</g>
<mask id="mask1_4_866" style="mask-type:luminance" maskUnits="userSpaceOnUse" x="0" y="0" width="1521" height="255">
<path d="M1521 0H0V255H1521V0Z" fill="white"/>
</mask>
<g mask="url(#mask1_4_866)">
<path d="M1163.8 214.2C1141.3 214.2 1123 232.5 1123 255H1204.6C1204.6 232.5 1186.3 214.2 1163.8 214.2Z" fill="#F2FCFF"/>
</g>
<mask id="mask2_4_866" style="mask-type:luminance" maskUnits="userSpaceOnUse" x="0" y="0" width="1521" height="255">
<path d="M1521 0H0V255H1521V0Z" fill="white"/>
</mask>
<g mask="url(#mask2_4_866)">
<path d="M56.9999 64.7C65.0633 64.7 71.5999 58.1634 71.5999 50.1C71.5999 42.0366 65.0633 35.5 56.9999 35.5C48.9365 35.5 42.3999 42.0366 42.3999 50.1C42.3999 58.1634 48.9365 64.7 56.9999 64.7Z" fill="#F9FEFA"/>
</g>
<mask id="mask3_4_866" style="mask-type:luminance" maskUnits="userSpaceOnUse" x="0" y="0" width="1521" height="255">
<path d="M1521 0H0V255H1521V0Z" fill="white"/>
</mask>
<g mask="url(#mask3_4_866)">
<path d="M1189.7 70.5999L1180.7 64L1187.3 55L1182.8 51.7L1176.2 60.7L1167.4 54.2999L1164.1 58.7999L1172.9 65.1999L1166.4 74L1170.9 77.3L1177.4 68.5L1186.4 75.0999L1189.7 70.5999Z" fill="#D4F6FF"/>
</g>
<mask id="mask4_4_866" style="mask-type:luminance" maskUnits="userSpaceOnUse" x="0" y="0" width="1521" height="255">
<path d="M1521 0H0V255H1521V0Z" fill="white"/>
</mask>
<g mask="url(#mask4_4_866)">
<path d="M1482 206C1487.52 206 1492 201.523 1492 196C1492 190.477 1487.52 186 1482 186C1476.48 186 1472 190.477 1472 196C1472 201.523 1476.48 206 1482 206Z" fill="#F2FCFF"/>
</g>
<mask id="mask5_4_866" style="mask-type:luminance" maskUnits="userSpaceOnUse" x="0" y="0" width="1521" height="255">
<path d="M1521 0H0V255H1521V0Z" fill="white"/>
</mask>
<g mask="url(#mask5_4_866)">
<path d="M655 274C667.703 274 678 263.703 678 251C678 238.297 667.703 228 655 228C642.297 228 632 238.297 632 251C632 263.703 642.297 274 655 274Z" fill="#F2FCFF"/>
</g>
<mask id="mask6_4_866" style="mask-type:luminance" maskUnits="userSpaceOnUse" x="0" y="0" width="1521" height="255">
<path d="M1521 0H0V255H1521V0Z" fill="white"/>
</mask>
<g mask="url(#mask6_4_866)">
<path d="M58.2 122.2V89H70.6999C73.2999 89 75.3999 89.4 77.0999 90.3C78.7999 91.2 80.1 92.4 81 94C81.9 95.6 82.3 97.5 82.3 99.6C82.3 101.7 81.8 103.6 80.9 105.1C80 106.6 78.7 107.9 76.9 108.7C75.1 109.5 73 110 70.4 110H61.5V105H69.5999C71.0999 105 72.3 104.8 73.3 104.4C74.3 104 75 103.4 75.4 102.6C75.8 101.8 76.0999 100.8 76.0999 99.6C76.0999 98.4 75.9 97.4 75.4 96.6C74.9 95.8 74.2 95.1 73.3 94.7C72.3 94.3 71.0999 94 69.5999 94H64.0999V122.2H58.2ZM75.3 107.2L83.5 122.3H76.8L68.6999 107.2H75.3Z" fill="#77809C"/>
<path d="M98.2 122.7C95.7 122.7 93.5 122.2 91.7 121.1C89.9 120.1 88.5 118.6 87.5 116.7C86.5 114.8 86 112.5 86 109.9C86 107.3 86.5 105.1 87.5 103.1C88.5 101.2 89.8 99.6 91.6 98.6C93.4 97.6 95.4 97 97.8 97C99.3 97 100.8 97.2 102.2 97.7C103.6 98.2 104.8 99 105.8 100C106.9 101 107.7 102.3 108.3 103.9C108.9 105.5 109.2 107.4 109.2 109.6V111.4H88.9V107.4H103.7C103.7 106.3 103.4 105.3 103 104.4C102.5 103.5 101.9 102.8 101 102.3C100.2 101.8 99.2 101.5 98 101.5C96.8 101.5 95.7 101.8 94.8 102.4C93.9 103 93.2 103.7 92.7 104.7C92.2 105.7 91.9 106.7 91.9 107.8V111.3C91.9 112.7 92.2 114 92.7 115C93.2 116 94 116.8 94.9 117.4C95.9 117.9 97 118.2 98.2 118.2C99.1 118.2 99.8 118.1 100.5 117.8C101.2 117.6 101.8 117.2 102.3 116.7C102.8 116.2 103.2 115.6 103.5 114.9L109 115.5C108.7 116.9 108 118.2 107 119.3C106 120.4 104.8 121.2 103.3 121.8C101.9 122.4 100.1 122.7 98.2 122.7Z" fill="#77809C"/>
<path d="M119.7 107.6V122.2H113.8V97.3H119.4V101.5H119.7C120.3 100.1 121.2 99 122.4 98.2C123.7 97.4 125.2 97 127.1 97C128.8 97 130.3 97.4 131.6 98.1C132.9 98.8 133.9 99.9 134.6 101.3C135.3 102.7 135.7 104.4 135.6 106.4V122.3H129.7V107.3C129.7 105.6 129.3 104.3 128.4 103.4C127.5 102.5 126.4 102 124.8 102C123.8 102 122.9 102.2 122.1 102.7C121.3 103.1 120.7 103.8 120.2 104.6C119.7 105.4 119.7 106.4 119.7 107.6Z" fill="#77809C"/>
<path d="M152.2 122.7C149.7 122.7 147.5 122.2 145.7 121.1C143.9 120.1 142.5 118.6 141.5 116.7C140.5 114.8 140 112.5 140 109.9C140 107.3 140.5 105.1 141.5 103.1C142.5 101.2 143.8 99.6 145.6 98.6C147.4 97.6 149.4 97 151.8 97C153.3 97 154.8 97.2 156.2 97.7C157.6 98.2 158.8 99 159.8 100C160.9 101 161.7 102.3 162.3 103.9C162.9 105.5 163.2 107.4 163.2 109.6V111.4H142.8V107.4H157.6C157.6 106.3 157.3 105.3 156.9 104.4C156.4 103.5 155.8 102.8 154.9 102.3C154.1 101.8 153.1 101.5 151.9 101.5C150.7 101.5 149.6 101.8 148.7 102.4C147.8 103 147.1 103.7 146.6 104.7C146.1 105.7 145.8 106.7 145.8 107.8V111.3C145.8 112.7 146.1 114 146.6 115C147.1 116 147.9 116.8 148.8 117.4C149.8 117.9 150.9 118.2 152.1 118.2C153 118.2 153.7 118.1 154.4 117.8C155.1 117.6 155.7 117.2 156.2 116.7C156.7 116.2 157.1 115.6 157.4 114.9L162.9 115.5C162.6 116.9 161.9 118.2 160.9 119.3C159.9 120.4 158.7 121.2 157.2 121.8C155.9 122.4 154.2 122.7 152.2 122.7Z" fill="#77809C"/>
<path d="M172.9 122.2L165.9 97.3H171.9L176.3 114.8H176.5L181 97.3H186.9L191.4 114.7H191.6L195.9 97.3H201.9L194.8 122.2H188.7L184 105.4H183.7L179 122.2H172.9Z" fill="#77809C"/>
<path d="M212.8 122.7C211.2 122.7 209.8 122.4 208.5 121.8C207.2 121.2 206.2 120.4 205.5 119.3C204.8 118.2 204.4 116.8 204.4 115.2C204.4 113.8 204.7 112.6 205.2 111.7C205.7 110.8 206.4 110 207.3 109.5C208.2 108.9 209.2 108.5 210.3 108.2C211.4 107.9 212.6 107.7 213.8 107.6C215.3 107.4 216.4 107.3 217.4 107.2C218.4 107.1 219 106.9 219.4 106.6C219.8 106.3 220 105.9 220 105.4V105.3C220 104.1 219.6 103.1 218.9 102.5C218.2 101.8 217.1 101.5 215.8 101.5C214.4 101.5 213.2 101.8 212.4 102.4C211.6 103 211 103.8 210.7 104.6L205.2 103.8C205.6 102.3 206.3 101 207.3 100C208.3 99 209.5 98.2 210.9 97.7C212.3 97.2 213.9 96.9 215.7 96.9C216.9 96.9 218.1 97 219.3 97.3C220.5 97.6 221.6 98 222.6 98.7C223.6 99.4 224.4 100.2 225 101.3C225.6 102.4 225.9 103.8 225.9 105.4V122.1H220.3V118.7H220.1C219.7 119.4 219.2 120 218.6 120.6C218 121.2 217.2 121.7 216.2 122C215.2 122.6 214.1 122.7 212.8 122.7ZM214.3 118.4C215.5 118.4 216.5 118.2 217.4 117.7C218.3 117.2 218.9 116.6 219.4 115.8C219.9 115 220.1 114.2 220.1 113.3V110.4C219.9 110.6 219.6 110.7 219.2 110.8C218.8 110.9 218.3 111 217.7 111.1C217.2 111.2 216.6 111.3 216.1 111.4C215.6 111.5 215.1 111.5 214.7 111.6C213.8 111.7 213 111.9 212.3 112.2C211.6 112.5 211.1 112.8 210.7 113.3C210.3 113.8 210.1 114.4 210.1 115.2C210.1 116.3 210.5 117.1 211.3 117.6C212.1 118.2 213.1 118.4 214.3 118.4Z" fill="#77809C"/>
<path d="M231.6 122.2V89H237.5V101.4H237.7C238 100.8 238.4 100.1 239 99.5C239.6 98.8 240.3 98.2 241.2 97.7C242.1 97.2 243.3 97 244.8 97C246.7 97 248.5 97.5 250 98.5C251.5 99.5 252.8 100.9 253.7 102.8C254.6 104.7 255.1 107 255.1 109.8C255.1 112.5 254.7 114.9 253.8 116.8C252.9 118.7 251.7 120.2 250.1 121.2C248.6 122.2 246.8 122.7 244.8 122.7C243.4 122.7 242.2 122.5 241.2 122C240.3 121.5 239.5 120.9 238.9 120.3C238.3 119.7 237.9 119 237.6 118.4H237.3V122.3H231.6V122.2ZM237.4 109.8C237.4 111.4 237.6 112.8 238.1 114C238.6 115.2 239.2 116.2 240.1 116.8C241 117.5 242 117.8 243.3 117.8C244.6 117.8 245.7 117.5 246.6 116.8C247.5 116.1 248.1 115.1 248.6 113.9C249 112.7 249.3 111.3 249.3 109.7C249.3 108.2 249.1 106.8 248.6 105.6C248.1 104.4 247.5 103.5 246.6 102.8C245.7 102.1 244.6 101.8 243.3 101.8C242 101.8 241 102.1 240.1 102.8C239.2 103.5 238.6 104.4 238.1 105.6C237.6 106.8 237.4 108.2 237.4 109.8Z" fill="#77809C"/>
<path d="M265.6 89V122.2H259.7V89H265.6Z" fill="#77809C"/>
<path d="M282.2 122.7C279.7 122.7 277.5 122.2 275.7 121.1C273.9 120.1 272.5 118.6 271.5 116.7C270.5 114.8 270 112.5 270 109.9C270 107.3 270.5 105.1 271.5 103.1C272.5 101.2 273.8 99.6 275.6 98.6C277.4 97.6 279.4 97 281.8 97C283.3 97 284.8 97.2 286.2 97.7C287.6 98.2 288.8 99 289.8 100C290.9 101 291.7 102.3 292.3 103.9C292.9 105.5 293.2 107.4 293.2 109.6V111.4H272.8V107.4H287.6C287.6 106.3 287.3 105.3 286.9 104.4C286.4 103.5 285.8 102.8 284.9 102.3C284.1 101.8 283.1 101.5 281.9 101.5C280.7 101.5 279.6 101.8 278.7 102.4C277.8 103 277.1 103.7 276.6 104.7C276.1 105.7 275.8 106.7 275.8 107.8V111.3C275.8 112.7 276.1 114 276.6 115C277.1 116 277.9 116.8 278.8 117.4C279.8 117.9 280.9 118.2 282.1 118.2C283 118.2 283.7 118.1 284.4 117.8C285.1 117.6 285.7 117.2 286.2 116.7C286.7 116.2 287.1 115.6 287.4 114.9L292.9 115.5C292.6 116.9 291.9 118.2 290.9 119.3C289.9 120.4 288.7 121.2 287.2 121.8C285.9 122.4 284.1 122.7 282.2 122.7Z" fill="#77809C"/>
<path d="M319.7 122.7C317.2 122.7 315 122.2 313.2 121.1C311.4 120.1 310 118.6 309 116.7C308 114.8 307.5 112.5 307.5 109.9C307.5 107.3 308 105.1 309 103.1C310 101.2 311.3 99.6 313.1 98.6C314.9 97.6 316.9 97 319.3 97C320.8 97 322.3 97.2 323.7 97.7C325.1 98.2 326.3 99 327.3 100C328.4 101 329.2 102.3 329.8 103.9C330.4 105.5 330.7 107.4 330.7 109.6V111.4H310.3V107.4H325.1C325.1 106.3 324.8 105.3 324.4 104.4C323.9 103.5 323.3 102.8 322.4 102.3C321.6 101.8 320.6 101.5 319.4 101.5C318.2 101.5 317.1 101.8 316.2 102.4C315.3 103 314.6 103.7 314.1 104.7C313.6 105.7 313.3 106.7 313.3 107.8V111.3C313.3 112.7 313.6 114 314.1 115C314.6 116 315.4 116.8 316.3 117.4C317.3 117.9 318.4 118.2 319.6 118.2C320.5 118.2 321.2 118.1 321.9 117.8C322.6 117.6 323.2 117.2 323.7 116.7C324.2 116.2 324.6 115.6 324.9 114.9L330.4 115.5C330.1 116.9 329.4 118.2 328.4 119.3C327.4 120.4 326.2 121.2 324.7 121.8C323.4 122.4 321.6 122.7 319.7 122.7Z" fill="#77809C"/>
<path d="M341.2 107.6V122.2H335.3V97.3H340.9V101.5H341.2C341.8 100.1 342.7 99 343.9 98.2C345.2 97.4 346.7 97 348.6 97C350.3 97 351.8 97.4 353.1 98.1C354.4 98.8 355.4 99.9 356.1 101.3C356.8 102.7 357.2 104.4 357.1 106.4V122.3H351.2V107.3C351.2 105.6 350.8 104.3 349.9 103.4C349 102.5 347.9 102 346.3 102C345.3 102 344.4 102.2 343.6 102.7C342.8 103.1 342.2 103.8 341.7 104.6C341.2 105.4 341.2 106.4 341.2 107.6Z" fill="#77809C"/>
<path d="M373.7 122.7C371.2 122.7 369 122.2 367.2 121.1C365.4 120.1 364 118.6 363 116.7C362 114.8 361.5 112.5 361.5 109.9C361.5 107.3 362 105.1 363 103.1C364 101.2 365.3 99.6 367.1 98.6C368.9 97.6 370.9 97 373.3 97C374.8 97 376.3 97.2 377.7 97.7C379.1 98.2 380.3 99 381.3 100C382.4 101 383.2 102.3 383.8 103.9C384.4 105.5 384.7 107.4 384.7 109.6V111.4H364.3V107.4H379.1C379.1 106.3 378.8 105.3 378.4 104.4C377.9 103.5 377.3 102.8 376.4 102.3C375.6 101.8 374.6 101.5 373.4 101.5C372.2 101.5 371.1 101.8 370.2 102.4C369.3 103 368.6 103.7 368.1 104.7C367.6 105.7 367.3 106.7 367.3 107.8V111.3C367.3 112.7 367.6 114 368.1 115C368.6 116 369.4 116.8 370.3 117.4C371.3 117.9 372.4 118.2 373.6 118.2C374.5 118.2 375.2 118.1 375.9 117.8C376.6 117.6 377.2 117.2 377.7 116.7C378.2 116.2 378.6 115.6 378.9 114.9L384.4 115.5C384.1 116.9 383.4 118.2 382.4 119.3C381.4 120.4 380.2 121.2 378.7 121.8C377.4 122.4 375.6 122.7 373.7 122.7Z" fill="#77809C"/>
<path d="M389.3 122.2V97.3H395V101.5H395.3C395.8 100.1 396.5 99 397.6 98.2C398.7 97.4 400 97 401.4 97C401.7 97 402.1 97 402.5 97C402.9 97 403.2 97.1 403.5 97.1V102.5C403.3 102.4 402.9 102.3 402.3 102.3C401.7 102.3 401.2 102.2 400.8 102.2C399.7 102.2 398.8 102.4 397.9 102.9C397 103.4 396.4 104 395.9 104.8C395.4 105.6 395.2 106.5 395.2 107.6V122.2H389.3Z" fill="#77809C"/>
<path d="M417.8 132.1C415.7 132.1 413.9 131.8 412.4 131.2C410.9 130.6 409.7 129.9 408.8 128.9C407.9 127.9 407.2 126.9 406.9 125.7L412.2 124.4C412.4 124.9 412.8 125.4 413.2 125.9C413.7 126.4 414.3 126.8 415 127.1C415.8 127.4 416.7 127.6 417.9 127.6C419.6 127.6 420.9 127.2 422 126.4C423.1 125.6 423.6 124.3 423.6 122.4V117.7H423.3C423 118.3 422.6 118.9 422 119.6C421.4 120.2 420.7 120.8 419.7 121.2C418.8 121.6 417.6 121.8 416.1 121.8C414.2 121.8 412.5 121.3 410.9 120.4C409.3 119.5 408.1 118.1 407.2 116.3C406.3 114.5 405.8 112.2 405.8 109.5C405.8 106.8 406.3 104.5 407.2 102.6C408.1 100.7 409.3 99.3 410.9 98.3C412.5 97.3 414.2 96.8 416.1 96.8C417.6 96.8 418.8 97 419.7 97.5C420.6 98 421.4 98.6 422 99.3C422.6 100 423 100.6 423.3 101.2H423.6V97.1H429.4V122.4C429.4 124.5 428.9 126.3 427.9 127.7C426.9 129.1 425.5 130.1 423.7 130.8C421.9 131.5 420 132.1 417.8 132.1ZM417.8 117.3C419 117.3 420.1 117 421 116.4C421.9 115.8 422.5 114.9 423 113.8C423.5 112.7 423.7 111.3 423.7 109.7C423.7 108.1 423.5 106.8 423 105.6C422.6 104.4 421.9 103.5 421 102.9C420.1 102.3 419.1 101.9 417.8 101.9C416.5 101.9 415.4 102.2 414.5 102.9C413.6 103.6 413 104.5 412.5 105.7C412.1 106.9 411.8 108.2 411.8 109.7C411.8 111.2 412 112.6 412.5 113.7C412.9 114.8 413.6 115.7 414.5 116.4C415.5 117 416.6 117.3 417.8 117.3Z" fill="#77809C"/>
<path d="M438.7 131.6C437.9 131.6 437.2 131.5 436.5 131.4C435.8 131.3 435.3 131.1 434.9 131L436.3 126.4C437.2 126.6 437.9 126.8 438.6 126.8C439.3 126.8 439.9 126.6 440.4 126.2C440.9 125.8 441.3 125.1 441.7 124.2L442.2 122.9L433.2 97.5H439.4L445.1 116.3H445.4L451.2 97.5H457.4L447.4 125.4C446.9 126.7 446.3 127.9 445.6 128.8C444.8 129.7 443.9 130.5 442.8 131C441.6 131.3 440.3 131.6 438.7 131.6Z" fill="#77809C"/>
<path d="M471.8 131.6V97.3H477.6V101.4H477.9C478.2 100.8 478.6 100.1 479.2 99.5C479.8 98.8 480.5 98.2 481.4 97.7C482.3 97.2 483.5 97 485 97C486.9 97 488.7 97.5 490.2 98.5C491.7 99.5 493 100.9 493.9 102.8C494.8 104.7 495.3 107 495.3 109.8C495.3 112.5 494.9 114.9 494 116.8C493.1 118.7 491.9 120.2 490.3 121.2C488.7 122.2 487 122.7 485 122.7C483.6 122.7 482.4 122.5 481.4 122C480.5 121.5 479.7 120.9 479.1 120.3C478.5 119.6 478.1 119 477.8 118.4H477.6V131.7H471.8V131.6ZM477.6 109.8C477.6 111.4 477.8 112.8 478.3 114C478.8 115.2 479.4 116.2 480.3 116.8C481.2 117.4 482.2 117.8 483.5 117.8C484.8 117.8 485.9 117.5 486.8 116.8C487.7 116.1 488.3 115.1 488.8 113.9C489.2 112.7 489.5 111.3 489.5 109.7C489.5 108.2 489.3 106.8 488.8 105.6C488.4 104.4 487.7 103.5 486.8 102.8C485.9 102.1 484.8 101.8 483.5 101.8C482.2 101.8 481.2 102.1 480.3 102.8C479.4 103.5 478.8 104.4 478.3 105.6C477.8 106.8 477.6 108.2 477.6 109.8Z" fill="#77809C"/>
<path d="M499.9 122.2V97.3H505.6V101.5H505.9C506.4 100.1 507.1 99 508.2 98.2C509.3 97.4 510.6 97 512 97C512.3 97 512.7 97 513.1 97C513.5 97 513.8 97.1 514.1 97.1V102.5C513.9 102.4 513.5 102.3 512.9 102.3C512.3 102.3 511.8 102.2 511.4 102.2C510.3 102.2 509.4 102.4 508.5 102.9C507.6 103.4 507 104 506.5 104.8C506 105.6 505.8 106.5 505.8 107.6V122.2H499.9Z" fill="#77809C"/>
<path d="M528.4 122.7C526 122.7 523.9 122.2 522.1 121.1C520.3 120 518.9 118.5 518 116.6C517 114.7 516.5 112.4 516.5 109.9C516.5 107.3 517 105.1 518 103.1C519 101.2 520.4 99.7 522.1 98.6C523.9 97.5 526 97 528.4 97C530.8 97 532.9 97.5 534.7 98.6C536.5 99.7 537.9 101.2 538.8 103.1C539.8 105 540.3 107.3 540.3 109.9C540.3 112.5 539.8 114.7 538.8 116.6C537.8 118.5 536.4 120 534.7 121.1C533 122.2 530.8 122.7 528.4 122.7ZM528.4 118C529.7 118 530.8 117.6 531.7 116.9C532.6 116.2 533.2 115.2 533.7 114C534.1 112.8 534.4 111.4 534.4 109.9C534.4 108.4 534.2 107 533.7 105.8C533.2 104.6 532.6 103.6 531.7 102.8C530.8 102.1 529.7 101.7 528.4 101.7C527 101.7 525.9 102.1 525 102.8C524.1 103.5 523.4 104.5 523 105.8C522.6 107.1 522.3 108.4 522.3 109.9C522.3 111.4 522.5 112.8 523 114C523.4 115.2 524.1 116.2 525 116.9C526 117.7 527.1 118 528.4 118Z" fill="#77809C"/>
<path d="M544.9 97.3H550.8V123.6C550.8 125.4 550.5 126.9 549.8 128C549.1 129.2 548.1 130 546.8 130.6C545.5 131.2 544 131.5 542.1 131.5C541.9 131.5 541.7 131.5 541.5 131.5C541.3 131.5 541.1 131.5 540.9 131.5V126.7C541.1 126.7 541.2 126.7 541.3 126.7C541.4 126.7 541.6 126.7 541.7 126.7C542.8 126.7 543.6 126.4 544.1 125.9C544.6 125.4 544.8 124.6 544.8 123.5V97.3H544.9ZM547.8 93.8C546.9 93.8 546.1 93.5 545.4 92.9C544.7 92.3 544.4 91.5 544.4 90.7C544.4 89.8 544.7 89.1 545.4 88.4C546.1 87.7 546.9 87.5 547.8 87.5C548.7 87.5 549.5 87.8 550.2 88.4C550.9 89 551.2 89.8 551.2 90.7C551.2 91.6 550.9 92.3 550.2 92.9C549.5 93.5 548.7 93.8 547.8 93.8Z" fill="#77809C"/>
<path d="M567.3 122.7C564.8 122.7 562.6 122.2 560.8 121.1C559 120.1 557.6 118.6 556.6 116.7C555.6 114.8 555.1 112.5 555.1 109.9C555.1 107.3 555.6 105.1 556.6 103.1C557.6 101.2 558.9 99.6 560.7 98.6C562.5 97.6 564.5 97 566.9 97C568.4 97 569.9 97.2 571.3 97.7C572.7 98.2 573.9 99 574.9 100C576 101 576.8 102.3 577.4 103.9C578 105.5 578.3 107.4 578.3 109.6V111.4H558V107.4H572.8C572.8 106.3 572.5 105.3 572.1 104.4C571.6 103.5 571 102.8 570.1 102.3C569.3 101.8 568.3 101.5 567.1 101.5C565.9 101.5 564.8 101.8 563.9 102.4C563 103 562.3 103.7 561.8 104.7C561.3 105.7 561 106.7 561 107.8V111.3C561 112.7 561.3 114 561.8 115C562.3 116 563.1 116.8 564 117.4C565 117.9 566.1 118.2 567.3 118.2C568.2 118.2 568.9 118.1 569.6 117.8C570.3 117.6 570.9 117.2 571.4 116.7C571.9 116.2 572.3 115.6 572.6 114.9L578.1 115.5C577.8 116.9 577.1 118.2 576.1 119.3C575.1 120.4 573.9 121.2 572.4 121.8C571 122.4 569.3 122.7 567.3 122.7Z" fill="#77809C"/>
<path d="M593.8 122.7C591.3 122.7 589.2 122.2 587.4 121.1C585.6 120 584.3 118.5 583.3 116.6C582.3 114.7 581.9 112.4 581.9 109.9C581.9 107.4 582.4 105.1 583.4 103.2C584.4 101.3 585.7 99.7 587.5 98.7C589.3 97.7 591.4 97.1 593.8 97.1C595.8 97.1 597.6 97.5 599.2 98.2C600.8 98.9 602 100 602.9 101.3C603.8 102.6 604.4 104.2 604.5 106H598.9C598.7 104.8 598.1 103.8 597.3 103C596.5 102.2 595.3 101.8 593.9 101.8C592.7 101.8 591.6 102.1 590.7 102.8C589.8 103.4 589.1 104.4 588.6 105.6C588.1 106.8 587.8 108.2 587.8 109.9C587.8 111.6 588 113.1 588.5 114.3C589 115.5 589.7 116.5 590.6 117.1C591.5 117.7 592.6 118.1 593.8 118.1C594.7 118.1 595.4 117.9 596.1 117.6C596.8 117.3 597.4 116.8 597.8 116.2C598.3 115.6 598.6 114.8 598.8 113.9H604.4C604.3 115.7 603.7 117.2 602.8 118.6C601.9 120 600.7 121 599.1 121.8C597.7 122.3 595.9 122.7 593.8 122.7Z" fill="#77809C"/>
<path d="M621.3 97.3V101.8H607V97.3H621.3ZM610.5 91.4H616.4V114.8C616.4 115.6 616.5 116.2 616.8 116.6C617 117 617.4 117.3 617.8 117.5C618.2 117.7 618.6 117.7 619.1 117.7C619.5 117.7 619.8 117.7 620.1 117.6C620.4 117.5 620.6 117.5 620.8 117.5L621.8 122.1C621.5 122.2 621 122.3 620.5 122.5C619.9 122.6 619.2 122.7 618.4 122.7C616.9 122.7 615.6 122.5 614.4 122C613.2 121.5 612.3 120.7 611.6 119.7C610.9 118.7 610.6 117.4 610.6 115.8V91.4H610.5Z" fill="#77809C"/>
<path d="M645.4 103.9L640 104.5C639.8 104 639.6 103.5 639.2 103C638.8 102.5 638.3 102.1 637.7 101.8C637.1 101.5 636.3 101.4 635.4 101.4C634.2 101.4 633.2 101.7 632.3 102.2C631.5 102.7 631.1 103.4 631.1 104.3C631.1 105 631.4 105.6 631.9 106.1C632.4 106.6 633.4 106.9 634.6 107.2L638.8 108.1C641.2 108.6 642.9 109.4 644.1 110.5C645.3 111.6 645.8 113 645.8 114.8C645.8 116.4 645.3 117.8 644.4 118.9C643.5 120.1 642.2 121 640.6 121.7C639 122.4 637.2 122.7 635.1 122.7C632.1 122.7 629.6 122.1 627.7 120.8C625.8 119.5 624.7 117.7 624.4 115.4L630.1 114.8C630.4 115.9 630.9 116.8 631.8 117.3C632.7 117.8 633.7 118.2 635.1 118.2C636.5 118.2 637.6 117.9 638.5 117.3C639.3 116.7 639.8 116 639.8 115.2C639.8 114.5 639.5 113.9 639 113.4C638.5 112.9 637.6 112.6 636.5 112.3L632.2 111.4C629.8 110.9 628 110.1 626.9 108.9C625.8 107.7 625.2 106.2 625.2 104.4C625.2 102.9 625.6 101.5 626.5 100.4C627.4 99.3 628.5 98.4 630.1 97.8C631.6 97.2 633.4 96.9 635.4 96.9C638.3 96.9 640.6 97.5 642.3 98.8C644 100.1 645 101.8 645.4 103.9Z" fill="#77809C"/>
<path d="M664.2 93.8C663.3 93.8 662.5 93.5 661.8 92.9C661.1 92.3 660.8 91.5 660.8 90.6C660.8 89.7 661.1 89 661.8 88.4C662.5 87.8 663.3 87.5 664.2 87.5C665.1 87.5 665.9 87.8 666.6 88.4C667.3 89 667.6 89.8 667.6 90.7C667.6 91.6 667.3 92.3 666.6 92.9C665.9 93.5 665.1 93.8 664.2 93.8ZM661.2 122.2V97.3H667.1V122.2H661.2Z" fill="#77809C"/>
<path d="M678.6 107.6V122.2H672.7V97.3H678.3V101.5H678.6C679.2 100.1 680.1 99 681.3 98.2C682.6 97.4 684.1 97 686 97C687.7 97 689.2 97.4 690.5 98.1C691.8 98.8 692.8 99.9 693.5 101.3C694.2 102.7 694.6 104.4 694.5 106.4V122.3H688.6V107.3C688.6 105.6 688.2 104.3 687.3 103.4C686.4 102.5 685.3 102 683.7 102C682.7 102 681.8 102.2 681 102.7C680.2 103.1 679.6 103.8 679.1 104.6C678.6 105.4 678.6 106.4 678.6 107.6Z" fill="#77809C"/>
<path d="M720.2 122.7C718.2 122.7 716.5 122.2 714.9 121.2C713.4 120.2 712.1 118.7 711.2 116.8C710.3 114.9 709.9 112.6 709.9 109.8C709.9 107 710.4 104.7 711.3 102.8C712.2 100.9 713.4 99.4 715 98.5C716.6 97.5 718.3 97 720.2 97C721.7 97 722.9 97.2 723.8 97.7C724.7 98.2 725.5 98.8 726 99.5C726.6 100.2 727 100.8 727.3 101.4H727.5V89H733.4V122.2H727.6V118.3H727.2C726.9 118.9 726.5 119.5 725.9 120.2C725.3 120.9 724.6 121.5 723.6 121.9C722.8 122.4 721.6 122.7 720.2 122.7ZM721.9 117.9C723.1 117.9 724.2 117.6 725.1 116.9C726 116.2 726.6 115.3 727.1 114.1C727.6 112.9 727.8 111.5 727.8 109.9C727.8 108.3 727.6 106.9 727.1 105.7C726.6 104.5 726 103.6 725.1 102.9C724.2 102.2 723.2 101.9 721.9 101.9C720.6 101.9 719.5 102.2 718.6 102.9C717.7 103.6 717.1 104.5 716.6 105.7C716.1 106.9 715.9 108.3 715.9 109.8C715.9 111.4 716.1 112.7 716.6 114C717 115.2 717.7 116.2 718.6 116.9C719.5 117.5 720.6 117.9 721.9 117.9Z" fill="#77809C"/>
<path d="M750.3 122.7C747.8 122.7 745.6 122.2 743.8 121.1C742 120.1 740.6 118.6 739.6 116.7C738.6 114.8 738.1 112.5 738.1 109.9C738.1 107.3 738.6 105.1 739.6 103.1C740.6 101.2 741.9 99.6 743.7 98.6C745.5 97.6 747.5 97 749.9 97C751.4 97 752.9 97.2 754.3 97.7C755.7 98.2 756.9 99 757.9 100C759 101 759.8 102.3 760.4 103.9C761 105.5 761.3 107.4 761.3 109.6V111.4H741V107.4H755.8C755.8 106.3 755.5 105.3 755.1 104.4C754.6 103.5 754 102.8 753.1 102.3C752.3 101.8 751.3 101.5 750.1 101.5C748.9 101.5 747.8 101.8 746.9 102.4C746 103 745.3 103.7 744.8 104.7C744.3 105.7 744 106.7 744 107.8V111.3C744 112.7 744.3 114 744.8 115C745.3 116 746.1 116.8 747 117.4C748 117.9 749.1 118.2 750.3 118.2C751.2 118.2 751.9 118.1 752.6 117.8C753.3 117.6 753.9 117.2 754.4 116.7C754.9 116.2 755.3 115.6 755.6 114.9L761.1 115.5C760.8 116.9 760.1 118.2 759.1 119.3C758.1 120.4 756.9 121.2 755.4 121.8C754 122.4 752.3 122.7 750.3 122.7Z" fill="#77809C"/>
<path d="M788.2 97.3L779.3 122.2H772.8L763.9 97.3H770.2L775.9 115.8H776.2L781.9 97.3H788.2Z" fill="#77809C"/>
<path d="M802.8 122.7C800.3 122.7 798.1 122.2 796.3 121.1C794.5 120.1 793.1 118.6 792.1 116.7C791.1 114.8 790.6 112.5 790.6 109.9C790.6 107.3 791.1 105.1 792.1 103.1C793.1 101.2 794.4 99.6 796.2 98.6C798 97.6 800 97 802.4 97C803.9 97 805.4 97.2 806.8 97.7C808.2 98.2 809.4 99 810.4 100C811.5 101 812.3 102.3 812.9 103.9C813.5 105.5 813.8 107.4 813.8 109.6V111.4H793.4V107.4H808.2C808.2 106.3 807.9 105.3 807.5 104.4C807 103.5 806.4 102.8 805.5 102.3C804.7 101.8 803.7 101.5 802.5 101.5C801.3 101.5 800.2 101.8 799.3 102.4C798.4 103 797.7 103.7 797.2 104.7C796.7 105.7 796.4 106.7 796.4 107.8V111.3C796.4 112.7 796.7 114 797.2 115C797.7 116 798.5 116.8 799.4 117.4C800.4 117.9 801.5 118.2 802.7 118.2C803.6 118.2 804.3 118.1 805 117.8C805.7 117.6 806.3 117.2 806.8 116.7C807.3 116.2 807.7 115.6 808 114.9L813.5 115.5C813.2 116.9 812.5 118.2 811.5 119.3C810.5 120.4 809.3 121.2 807.8 121.8C806.5 122.4 804.7 122.7 802.8 122.7Z" fill="#77809C"/>
<path d="M824.3 89V122.2H818.4V89H824.3Z" fill="#77809C"/>
<path d="M840.7 122.7C838.3 122.7 836.2 122.2 834.4 121.1C832.6 120 831.2 118.5 830.3 116.6C829.3 114.7 828.8 112.4 828.8 109.9C828.8 107.3 829.3 105.1 830.3 103.1C831.3 101.2 832.7 99.7 834.4 98.6C836.2 97.5 838.3 97 840.7 97C843.1 97 845.2 97.5 847 98.6C848.8 99.7 850.2 101.2 851.1 103.1C852.1 105 852.6 107.3 852.6 109.9C852.6 112.5 852.1 114.7 851.1 116.6C850.1 118.5 848.7 120 847 121.1C845.3 122.2 843.1 122.7 840.7 122.7ZM840.7 118C842 118 843.1 117.6 844 116.9C844.9 116.2 845.5 115.2 846 114C846.4 112.8 846.7 111.4 846.7 109.9C846.7 108.4 846.5 107 846 105.8C845.5 104.6 844.9 103.6 844 102.8C843.1 102.1 842 101.7 840.7 101.7C839.3 101.7 838.2 102.1 837.3 102.8C836.4 103.5 835.7 104.5 835.3 105.8C834.9 107.1 834.6 108.4 834.6 109.9C834.6 111.4 834.8 112.8 835.3 114C835.7 115.2 836.4 116.2 837.3 116.9C838.3 117.7 839.4 118 840.7 118Z" fill="#77809C"/>
<path d="M857.2 131.6V97.3H863V101.4H863.3C863.6 100.8 864 100.1 864.6 99.5C865.2 98.8 865.9 98.2 866.8 97.7C867.7 97.2 868.9 97 870.4 97C872.3 97 874.1 97.5 875.6 98.5C877.1 99.5 878.4 100.9 879.3 102.8C880.2 104.7 880.7 107 880.7 109.8C880.7 112.5 880.3 114.9 879.4 116.8C878.5 118.7 877.3 120.2 875.7 121.2C874.1 122.2 872.4 122.7 870.4 122.7C869 122.7 867.8 122.5 866.8 122C865.9 121.5 865.1 120.9 864.5 120.3C863.9 119.6 863.5 119 863.2 118.4H863V131.7H857.2V131.6ZM862.9 109.8C862.9 111.4 863.1 112.8 863.6 114C864.1 115.2 864.7 116.2 865.6 116.8C866.5 117.4 867.5 117.8 868.8 117.8C870.1 117.8 871.2 117.5 872.1 116.8C873 116.1 873.6 115.1 874.1 113.9C874.5 112.7 874.8 111.3 874.8 109.7C874.8 108.2 874.6 106.8 874.1 105.6C873.7 104.4 873 103.5 872.1 102.8C871.2 102.1 870.1 101.8 868.8 101.8C867.5 101.8 866.5 102.1 865.6 102.8C864.7 103.5 864.1 104.4 863.6 105.6C863.1 106.8 862.9 108.2 862.9 109.8Z" fill="#77809C"/>
<path d="M888.2 93.8C887.3 93.8 886.5 93.5 885.8 92.9C885.1 92.3 884.8 91.5 884.8 90.6C884.8 89.7 885.1 89 885.8 88.4C886.5 87.8 887.3 87.5 888.2 87.5C889.1 87.5 889.9 87.8 890.6 88.4C891.3 89 891.6 89.8 891.6 90.7C891.6 91.6 891.3 92.3 890.6 92.9C889.9 93.5 889.1 93.8 888.2 93.8ZM885.2 122.2V97.3H891.1V122.2H885.2Z" fill="#77809C"/>
<path d="M902.6 107.6V122.2H896.7V97.3H902.3V101.5H902.6C903.2 100.1 904.1 99 905.3 98.2C906.6 97.4 908.1 97 910 97C911.7 97 913.2 97.4 914.5 98.1C915.8 98.8 916.8 99.9 917.5 101.3C918.2 102.7 918.6 104.4 918.5 106.4V122.3H912.6V107.3C912.6 105.6 912.2 104.3 911.3 103.4C910.4 102.5 909.3 102 907.7 102C906.7 102 905.8 102.2 905 102.7C904.2 103.1 903.6 103.8 903.1 104.6C902.6 105.4 902.6 106.4 902.6 107.6Z" fill="#77809C"/>
<path d="M934.9 132.1C932.8 132.1 931 131.8 929.5 131.2C928 130.6 926.8 129.9 925.9 128.9C925 127.9 924.3 126.9 924 125.7L929.3 124.4C929.5 124.9 929.9 125.4 930.3 125.9C930.8 126.4 931.4 126.8 932.1 127.1C932.9 127.4 933.8 127.6 935 127.6C936.7 127.6 938 127.2 939.1 126.4C940.2 125.6 940.7 124.3 940.7 122.4V117.7H940.4C940.1 118.3 939.7 118.9 939.1 119.6C938.5 120.2 937.8 120.8 936.8 121.2C935.9 121.6 934.7 121.8 933.2 121.8C931.3 121.8 929.6 121.3 928 120.4C926.4 119.5 925.2 118.1 924.3 116.3C923.4 114.5 922.9 112.2 922.9 109.5C922.9 106.8 923.4 104.5 924.3 102.6C925.2 100.7 926.4 99.3 928 98.3C929.6 97.3 931.3 96.8 933.2 96.8C934.7 96.8 935.9 97 936.8 97.5C937.7 98 938.5 98.6 939.1 99.3C939.7 100 940.1 100.6 940.4 101.2H940.7V97.1H946.5V122.4C946.5 124.5 946 126.3 945 127.7C944 129.1 942.6 130.1 940.8 130.8C939 131.5 937.2 132.1 934.9 132.1ZM935 117.3C936.2 117.3 937.3 117 938.2 116.4C939.1 115.8 939.7 114.9 940.2 113.8C940.7 112.7 940.9 111.3 940.9 109.7C940.9 108.1 940.7 106.8 940.2 105.6C939.8 104.4 939.1 103.5 938.2 102.9C937.3 102.3 936.3 101.9 935 101.9C933.7 101.9 932.6 102.2 931.7 102.9C930.8 103.6 930.2 104.5 929.7 105.7C929.3 106.9 929 108.2 929 109.7C929 111.2 929.2 112.6 929.7 113.7C930.1 114.8 930.8 115.7 931.7 116.4C932.6 117 933.7 117.3 935 117.3Z" fill="#77809C"/>
<path d="M68.9 177.5C66.4 177.5 64.2 177 62.4 175.9C60.6 174.9 59.2 173.4 58.2 171.5C57.2 169.6 56.7 167.3 56.7 164.7C56.7 162.1 57.2 159.9 58.2 157.9C59.2 156 60.4999 154.4 62.2999 153.4C64.0999 152.4 66.1 151.8 68.5 151.8C70 151.8 71.5 152 72.9 152.5C74.3 153 75.5 153.8 76.5 154.8C77.6 155.8 78.4 157.1 79 158.7C79.6 160.3 79.9 162.2 79.9 164.4V166.2H59.5999V162.2H74.4C74.4 161.1 74.0999 160.1 73.6999 159.2C73.1999 158.3 72.5999 157.6 71.6999 157.1C70.8999 156.6 69.8999 156.3 68.6999 156.3C67.4999 156.3 66.4 156.6 65.5 157.2C64.6 157.8 63.9 158.5 63.4 159.5C62.9 160.5 62.5999 161.5 62.5999 162.6V166.1C62.5999 167.5 62.9 168.8 63.4 169.8C63.9 170.8 64.6999 171.6 65.5999 172.2C66.5999 172.7 67.7 173 68.9 173C69.8 173 70.4999 172.9 71.1999 172.6C71.8999 172.4 72.5 172 73 171.5C73.5 171 73.8999 170.4 74.1999 169.7L79.6999 170.3C79.3999 171.7 78.6999 173 77.6999 174.1C76.6999 175.2 75.5 176 74 176.6C72.6 177.3 70.9 177.5 68.9 177.5Z" fill="#77809C"/>
<path d="M95.4 177.5C92.9 177.5 90.8 177 89 175.9C87.2 174.8 85.9 173.3 84.9 171.4C83.9 169.5 83.5 167.2 83.5 164.7C83.5 162.2 84 159.9 85 158C86 156.1 87.3 154.5 89.1 153.5C90.9 152.5 93 151.9 95.4 151.9C97.4 151.9 99.2 152.3 100.8 153C102.4 153.7 103.6 154.8 104.5 156.1C105.4 157.4 106 159 106.1 160.8H100.5C100.3 159.6 99.7 158.6 98.9 157.8C98.1 157 96.9 156.6 95.5 156.6C94.3 156.6 93.2 156.9 92.3 157.6C91.4 158.2 90.7 159.2 90.2 160.4C89.7 161.6 89.4 163 89.4 164.7C89.4 166.4 89.6 167.9 90.1 169.1C90.6 170.3 91.3 171.3 92.2 171.9C93.1 172.5 94.2 172.9 95.4 172.9C96.3 172.9 97 172.7 97.7 172.4C98.4 172.1 99 171.6 99.4 171C99.9 170.4 100.2 169.6 100.4 168.7H106C105.9 170.5 105.3 172 104.4 173.4C103.5 174.8 102.3 175.8 100.7 176.6C99.3 177.2 97.5 177.5 95.4 177.5Z" fill="#77809C"/>
<path d="M121.3 177.5C118.9 177.5 116.8 177 115 175.9C113.2 174.8 111.8 173.3 110.9 171.4C109.9 169.5 109.4 167.2 109.4 164.7C109.4 162.1 109.9 159.9 110.9 157.9C111.9 156 113.3 154.5 115 153.4C116.8 152.3 118.9 151.8 121.3 151.8C123.7 151.8 125.8 152.3 127.6 153.4C129.4 154.5 130.8 156 131.7 157.9C132.7 159.8 133.2 162.1 133.2 164.7C133.2 167.3 132.7 169.5 131.7 171.4C130.7 173.3 129.3 174.8 127.6 175.9C125.9 177 123.7 177.5 121.3 177.5ZM121.3 172.8C122.6 172.8 123.7 172.4 124.6 171.7C125.5 171 126.1 170 126.6 168.8C127 167.6 127.3 166.2 127.3 164.7C127.3 163.2 127.1 161.8 126.6 160.6C126.1 159.4 125.5 158.4 124.6 157.6C123.7 156.9 122.6 156.5 121.3 156.5C119.9 156.5 118.8 156.9 117.9 157.6C117 158.3 116.3 159.3 115.9 160.6C115.5 161.9 115.2 163.2 115.2 164.7C115.2 166.2 115.4 167.6 115.9 168.8C116.3 170 117 171 117.9 171.7C118.9 172.5 120 172.8 121.3 172.8Z" fill="#77809C"/>
<path d="M143.6 162.5V177.1H137.7V152.2H143.3V156.4H143.6C144.2 155 145.1 153.9 146.3 153.1C147.6 152.3 149.1 151.9 151 151.9C152.7 151.9 154.2 152.3 155.5 153C156.8 153.7 157.8 154.8 158.5 156.2C159.2 157.6 159.6 159.3 159.5 161.3V177.2H153.6V162.2C153.6 160.5 153.2 159.2 152.3 158.3C151.4 157.4 150.3 156.9 148.7 156.9C147.7 156.9 146.8 157.1 146 157.6C145.2 158 144.6 158.7 144.1 159.5C143.6 160.3 143.6 161.3 143.6 162.5Z" fill="#77809C"/>
<path d="M176 177.5C173.6 177.5 171.5 177 169.7 175.9C167.9 174.8 166.5 173.3 165.6 171.4C164.6 169.5 164.1 167.2 164.1 164.7C164.1 162.1 164.6 159.9 165.6 157.9C166.6 156 168 154.5 169.7 153.4C171.5 152.3 173.6 151.8 176 151.8C178.4 151.8 180.5 152.3 182.3 153.4C184.1 154.5 185.5 156 186.4 157.9C187.4 159.8 187.9 162.1 187.9 164.7C187.9 167.3 187.4 169.5 186.4 171.4C185.4 173.3 184 174.8 182.3 175.9C180.6 177 178.5 177.5 176 177.5ZM176.1 172.8C177.4 172.8 178.5 172.4 179.4 171.7C180.3 171 180.9 170 181.4 168.8C181.8 167.6 182.1 166.2 182.1 164.7C182.1 163.2 181.9 161.8 181.4 160.6C180.9 159.4 180.3 158.4 179.4 157.6C178.5 156.9 177.4 156.5 176.1 156.5C174.7 156.5 173.6 156.9 172.7 157.6C171.8 158.3 171.1 159.3 170.7 160.6C170.3 161.9 170 163.2 170 164.7C170 166.2 170.2 167.6 170.7 168.8C171.1 170 171.8 171 172.7 171.7C173.6 172.5 174.7 172.8 176.1 172.8Z" fill="#77809C"/>
<path d="M192.5 177.1V152.2H198.1V156.4H198.4C198.9 155 199.8 153.9 201 153.1C202.2 152.3 203.6 151.9 205.3 151.9C207 151.9 208.4 152.3 209.6 153.1C210.8 153.9 211.6 155 212.1 156.4H212.4C213 155 213.9 153.9 215.2 153.1C216.5 152.3 218.1 151.9 219.9 151.9C222.2 151.9 224.1 152.6 225.5 154.1C226.9 155.5 227.7 157.7 227.7 160.4V177.1H221.8V161.3C221.8 159.8 221.4 158.6 220.6 157.9C219.8 157.2 218.8 156.8 217.6 156.8C216.2 156.8 215.1 157.2 214.3 158.1C213.5 159 213.1 160.1 213.1 161.5V177H207.3V161C207.3 159.7 206.9 158.7 206.1 157.9C205.3 157.1 204.3 156.7 203.1 156.7C202.3 156.7 201.5 156.9 200.8 157.3C200.1 157.7 199.6 158.3 199.1 159.1C198.7 159.9 198.5 160.8 198.5 161.8V177H192.5V177.1Z" fill="#77809C"/>
<path d="M236 148.6C235.1 148.6 234.3 148.3 233.6 147.7C232.9 147.1 232.6 146.3 232.6 145.4C232.6 144.5 232.9 143.8 233.6 143.2C234.3 142.6 235.1 142.3 236 142.3C236.9 142.3 237.7 142.6 238.4 143.2C239.1 143.8 239.4 144.6 239.4 145.5C239.4 146.4 239.1 147.1 238.4 147.7C237.7 148.3 236.9 148.6 236 148.6ZM233 177.1V152.2H238.9V177.1H233Z" fill="#77809C"/>
<path d="M255.5 177.5C253 177.5 250.8 177 249 175.9C247.2 174.9 245.8 173.4 244.8 171.5C243.8 169.6 243.3 167.3 243.3 164.7C243.3 162.1 243.8 159.9 244.8 157.9C245.8 156 247.1 154.4 248.9 153.4C250.7 152.4 252.7 151.8 255.1 151.8C256.6 151.8 258.1 152 259.5 152.5C260.9 153 262.1 153.8 263.1 154.8C264.2 155.8 265 157.1 265.6 158.7C266.2 160.3 266.5 162.2 266.5 164.4V166.2H246.1V162.2H261C261 161.1 260.7 160.1 260.3 159.2C259.8 158.3 259.2 157.6 258.3 157.1C257.5 156.6 256.5 156.3 255.3 156.3C254.1 156.3 253 156.6 252.1 157.2C251.2 157.8 250.5 158.5 250 159.5C249.5 160.5 249.2 161.5 249.2 162.6V166.1C249.2 167.5 249.5 168.8 250 169.8C250.5 170.8 251.3 171.6 252.2 172.2C253.2 172.7 254.3 173 255.5 173C256.4 173 257.1 172.9 257.8 172.6C258.5 172.4 259.1 172 259.6 171.5C260.1 171 260.5 170.4 260.8 169.7L266.3 170.3C266 171.7 265.3 173 264.3 174.1C263.3 175.2 262.1 176 260.6 176.6C259.2 177.3 257.4 177.5 255.5 177.5Z" fill="#77809C"/>
<path d="M290.8 158.7L285.4 159.3C285.2 158.8 285 158.3 284.6 157.8C284.2 157.3 283.7 156.9 283.1 156.6C282.5 156.3 281.7 156.2 280.8 156.2C279.6 156.2 278.6 156.5 277.7 157C276.9 157.5 276.5 158.2 276.5 159.1C276.5 159.8 276.8 160.4 277.3 160.9C277.8 161.4 278.8 161.7 280 162L284.2 162.9C286.6 163.4 288.3 164.2 289.5 165.3C290.7 166.4 291.2 167.8 291.2 169.6C291.2 171.2 290.7 172.6 289.8 173.7C288.9 174.9 287.6 175.8 286 176.5C284.4 177.2 282.6 177.5 280.5 177.5C277.5 177.5 275 176.9 273.1 175.6C271.2 174.3 270.1 172.5 269.8 170.2L275.5 169.6C275.8 170.7 276.3 171.6 277.2 172.1C278.1 172.6 279.1 173 280.5 173C281.9 173 283 172.7 283.9 172.1C284.7 171.5 285.2 170.8 285.2 170C285.2 169.3 284.9 168.7 284.4 168.2C283.9 167.7 283 167.4 281.9 167.1L277.6 166.2C275.2 165.7 273.4 164.9 272.3 163.7C271.2 162.5 270.6 161 270.6 159.2C270.6 157.7 271 156.3 271.9 155.2C272.8 154.1 273.9 153.2 275.5 152.6C277 152 278.8 151.7 280.8 151.7C283.7 151.7 286 152.3 287.7 153.6C289.3 154.9 290.4 156.6 290.8 158.7Z" fill="#77809C"/>
<path d="M317.5 177.5C315 177.5 312.9 177 311.1 175.9C309.3 174.8 308 173.3 307 171.4C306 169.5 305.6 167.2 305.6 164.7C305.6 162.2 306.1 159.9 307.1 158C308.1 156.1 309.4 154.5 311.2 153.5C313 152.5 315.1 151.9 317.5 151.9C319.5 151.9 321.3 152.3 322.9 153C324.5 153.7 325.7 154.8 326.6 156.1C327.5 157.4 328.1 159 328.2 160.8H322.6C322.4 159.6 321.8 158.6 321 157.8C320.2 157 319 156.6 317.6 156.6C316.4 156.6 315.3 156.9 314.4 157.6C313.5 158.2 312.8 159.2 312.3 160.4C311.8 161.6 311.5 163 311.5 164.7C311.5 166.4 311.7 167.9 312.2 169.1C312.7 170.3 313.4 171.3 314.3 171.9C315.2 172.5 316.3 172.9 317.5 172.9C318.4 172.9 319.1 172.7 319.8 172.4C320.5 172.1 321.1 171.6 321.5 171C322 170.4 322.3 169.6 322.5 168.7H328.1C328 170.5 327.4 172 326.5 173.4C325.6 174.8 324.4 175.8 322.8 176.6C321.4 177.2 319.5 177.5 317.5 177.5Z" fill="#77809C"/>
<path d="M343.4 177.5C341 177.5 338.9 177 337.1 175.9C335.3 174.8 333.9 173.3 333 171.4C332 169.5 331.5 167.2 331.5 164.7C331.5 162.1 332 159.9 333 157.9C334 156 335.4 154.5 337.1 153.4C338.9 152.3 341 151.8 343.4 151.8C345.8 151.8 347.9 152.3 349.7 153.4C351.5 154.5 352.9 156 353.8 157.9C354.8 159.8 355.3 162.1 355.3 164.7C355.3 167.3 354.8 169.5 353.8 171.4C352.8 173.3 351.4 174.8 349.7 175.9C347.9 177 345.8 177.5 343.4 177.5ZM343.4 172.8C344.7 172.8 345.8 172.4 346.7 171.7C347.6 171 348.2 170 348.7 168.8C349.1 167.6 349.4 166.2 349.4 164.7C349.4 163.2 349.2 161.8 348.7 160.6C348.2 159.4 347.6 158.4 346.7 157.6C345.8 156.9 344.7 156.5 343.4 156.5C342 156.5 340.9 156.9 340 157.6C339.1 158.3 338.4 159.3 338 160.6C337.6 161.9 337.3 163.2 337.3 164.7C337.3 166.2 337.5 167.6 338 168.8C338.4 170 339.1 171 340 171.7C340.9 172.5 342.1 172.8 343.4 172.8Z" fill="#77809C"/>
<path d="M359.8 177.1V152.2H365.4V156.4H365.7C366.2 155 367.1 153.9 368.3 153.1C369.5 152.3 370.9 151.9 372.6 151.9C374.3 151.9 375.7 152.3 376.9 153.1C378.1 153.9 378.9 155 379.4 156.4H379.7C380.3 155 381.2 153.9 382.5 153.1C383.8 152.3 385.4 151.9 387.2 151.9C389.5 151.9 391.4 152.6 392.8 154.1C394.2 155.5 395 157.7 395 160.4V177.1H389V161.3C389 159.8 388.6 158.6 387.8 157.9C387 157.2 386 156.8 384.8 156.8C383.4 156.8 382.3 157.2 381.5 158.1C380.7 159 380.3 160.1 380.3 161.5V177H374.5V161C374.5 159.7 374.1 158.7 373.3 157.9C372.5 157.1 371.5 156.7 370.3 156.7C369.5 156.7 368.7 156.9 368 157.3C367.3 157.7 366.8 158.3 366.3 159.1C365.9 159.9 365.7 160.8 365.7 161.8V177H359.8V177.1Z" fill="#77809C"/>
<path d="M400.4 186.4V152.1H406.2V156.2H406.5C406.8 155.6 407.2 154.9 407.8 154.3C408.4 153.6 409.1 153 410 152.5C410.9 152 412.1 151.8 413.6 151.8C415.5 151.8 417.3 152.3 418.8 153.3C420.3 154.3 421.6 155.7 422.5 157.6C423.4 159.5 423.9 161.8 423.9 164.6C423.9 167.3 423.5 169.7 422.6 171.6C421.7 173.5 420.5 175 418.9 176C417.3 177 415.6 177.5 413.6 177.5C412.2 177.5 411 177.3 410 176.8C409.1 176.3 408.3 175.7 407.7 175.1C407.1 174.4 406.7 173.8 406.4 173.2H406.2V186.5H400.4V186.4ZM406.1 164.6C406.1 166.2 406.3 167.6 406.8 168.8C407.3 170 407.9 171 408.8 171.6C409.7 172.2 410.7 172.6 412 172.6C413.3 172.6 414.4 172.3 415.3 171.6C416.2 170.9 416.8 169.9 417.3 168.7C417.7 167.5 418 166.1 418 164.5C418 163 417.8 161.6 417.3 160.4C416.9 159.2 416.2 158.3 415.3 157.6C414.4 156.9 413.3 156.6 412 156.6C410.7 156.6 409.7 156.9 408.8 157.6C407.9 158.3 407.3 159.2 406.8 160.4C406.4 161.6 406.1 163 406.1 164.6Z" fill="#77809C"/>
<path d="M428.5 177.1V152.2H434.2V156.4H434.5C435 155 435.7 153.9 436.8 153.1C437.9 152.3 439.2 151.9 440.6 151.9C440.9 151.9 441.3 151.9 441.7 151.9C442.1 151.9 442.4 152 442.7 152V157.4C442.5 157.3 442.1 157.2 441.5 157.2C440.9 157.2 440.4 157.1 440 157.1C438.9 157.1 438 157.3 437.1 157.8C436.2 158.3 435.6 158.9 435.1 159.7C434.6 160.5 434.4 161.4 434.4 162.5V177.1H428.5Z" fill="#77809C"/>
<path d="M449.1 148.6C448.2 148.6 447.4 148.3 446.7 147.7C446 147.1 445.7 146.3 445.7 145.4C445.7 144.5 446 143.8 446.7 143.2C447.4 142.6 448.2 142.3 449.1 142.3C450 142.3 450.8 142.6 451.5 143.2C452.2 143.8 452.5 144.6 452.5 145.5C452.5 146.4 452.2 147.1 451.5 147.7C450.8 148.3 450 148.6 449.1 148.6ZM446.1 177.1V152.2H452V177.1H446.1Z" fill="#77809C"/>
<path d="M477.3 158.7L471.9 159.3C471.7 158.8 471.5 158.3 471.1 157.8C470.7 157.3 470.2 156.9 469.6 156.6C469 156.3 468.2 156.2 467.3 156.2C466.1 156.2 465.1 156.5 464.2 157C463.4 157.5 463 158.2 463 159.1C463 159.8 463.3 160.4 463.8 160.9C464.3 161.4 465.3 161.7 466.5 162L470.7 162.9C473.1 163.4 474.8 164.2 476 165.3C477.2 166.4 477.7 167.8 477.7 169.6C477.7 171.2 477.2 172.6 476.3 173.7C475.4 174.9 474.1 175.8 472.5 176.5C470.9 177.2 469.1 177.5 467 177.5C464 177.5 461.5 176.9 459.6 175.6C457.7 174.3 456.6 172.5 456.3 170.2L462 169.6C462.3 170.7 462.8 171.6 463.7 172.1C464.6 172.6 465.6 173 467 173C468.4 173 469.5 172.7 470.4 172.1C471.2 171.5 471.7 170.8 471.7 170C471.7 169.3 471.4 168.7 470.9 168.2C470.4 167.7 469.5 167.4 468.4 167.1L464.1 166.2C461.7 165.7 459.9 164.9 458.8 163.7C457.7 162.5 457.1 161 457.1 159.2C457.1 157.7 457.5 156.3 458.4 155.2C459.3 154.1 460.4 153.2 462 152.6C463.5 152 465.3 151.7 467.3 151.7C470.2 151.7 472.5 152.3 474.2 153.6C475.8 154.9 476.9 156.6 477.3 158.7Z" fill="#77809C"/>
<path d="M493.2 177.5C490.7 177.5 488.5 177 486.7 175.9C484.9 174.9 483.5 173.4 482.5 171.5C481.5 169.6 481 167.3 481 164.7C481 162.1 481.5 159.9 482.5 157.9C483.5 156 484.8 154.4 486.6 153.4C488.4 152.4 490.4 151.8 492.8 151.8C494.3 151.8 495.8 152 497.2 152.5C498.6 153 499.8 153.8 500.8 154.8C501.9 155.8 502.7 157.1 503.3 158.7C503.9 160.3 504.2 162.2 504.2 164.4V166.2H483.8V162.2H498.6C498.6 161.1 498.3 160.1 497.9 159.2C497.4 158.3 496.8 157.6 495.9 157.1C495.1 156.6 494.1 156.3 492.9 156.3C491.7 156.3 490.6 156.6 489.7 157.2C488.8 157.8 488.1 158.5 487.6 159.5C487.1 160.5 486.8 161.5 486.8 162.6V166.1C486.8 167.5 487.1 168.8 487.6 169.8C488.1 170.8 488.9 171.6 489.8 172.2C490.8 172.7 491.9 173 493.1 173C494 173 494.7 172.9 495.4 172.6C496.1 172.4 496.7 172 497.2 171.5C497.7 171 498.1 170.4 498.4 169.7L503.9 170.3C503.6 171.7 502.9 173 501.9 174.1C500.9 175.2 499.7 176 498.2 176.6C496.9 177.3 495.2 177.5 493.2 177.5Z" fill="#77809C"/>
<path d="M519 170.9V166.1L533.1 143.8H537.1V150.6H534.7L525.2 165.6V165.9H544.9V170.8H519V170.9ZM534.9 177.1V169.5L535 167.4V143.9H540.7V177.1H534.9Z" fill="#242438"/>
<path d="M561.1 177.5C558.9 177.5 557 177.1 555.3 176.3C553.6 175.5 552.2 174.4 551.2 172.9C550.2 171.5 549.7 169.8 549.6 168H555.4C555.5 169.4 556.1 170.5 557.2 171.3C558.3 172.2 559.6 172.6 561.1 172.6C562.3 172.6 563.3 172.3 564.2 171.8C565.1 171.3 565.8 170.5 566.4 169.5C566.9 168.5 567.2 167.4 567.2 166.2C567.2 164.9 566.9 163.8 566.4 162.9C565.9 161.9 565.1 161.2 564.2 160.6C563.3 160 562.2 159.8 561 159.8C560 159.8 559 160 558.1 160.4C557.1 160.8 556.4 161.3 555.8 161.9L550.4 161L552.1 143.9H571.4V148.9H557L556 157.7H556.2C556.8 157 557.7 156.4 558.8 155.9C559.9 155.4 561.2 155.2 562.5 155.2C564.5 155.2 566.3 155.7 567.9 156.6C569.5 157.5 570.7 158.8 571.6 160.5C572.5 162.2 573 164 573 166.2C573 168.4 572.5 170.4 571.5 172.1C570.5 173.8 569.1 175.2 567.3 176.1C565.5 177 563.5 177.5 561.1 177.5Z" fill="#242438"/>
<path d="M578.9 151.8V150C578.9 148.7 579.2 147.5 579.7 146.4C580.3 145.3 581.1 144.5 582.1 143.8C583.1 143.1 584.4 142.8 585.9 142.8C587.4 142.8 588.7 143.1 589.8 143.8C590.8 144.5 591.6 145.3 592.2 146.4C592.7 147.5 593 148.7 593 150V151.8C593 153.1 592.7 154.3 592.2 155.4C591.7 156.5 590.9 157.3 589.8 158C588.8 158.6 587.5 159 586 159C584.5 159 583.2 158.7 582.1 158C581 157.3 580.3 156.5 579.7 155.4C579.2 154.3 578.9 153.1 578.9 151.8ZM580.7 177.1L603.5 143.9H607.6L584.8 177.1H580.7ZM583.2 150.1V151.9C583.2 152.8 583.4 153.6 583.8 154.3C584.2 155 584.9 155.4 586 155.4C587 155.4 587.8 155 588.1 154.3C588.5 153.6 588.7 152.8 588.7 151.9V150.1C588.7 149.2 588.5 148.4 588.1 147.7C587.7 147 587 146.6 585.9 146.6C584.9 146.6 584.2 147 583.7 147.7C583.4 148.4 583.2 149.2 583.2 150.1ZM595.8 170.8V169C595.8 167.7 596.1 166.5 596.6 165.4C597.1 164.3 597.9 163.4 599 162.8C600 162.1 601.3 161.8 602.8 161.8C604.3 161.8 605.6 162.1 606.7 162.8C607.8 163.5 608.5 164.3 609.1 165.4C609.6 166.5 609.9 167.7 609.9 169V170.8C609.9 172.1 609.6 173.3 609.1 174.4C608.6 175.5 607.8 176.4 606.7 177C605.7 177.7 604.4 178 602.9 178C601.4 178 600.1 177.7 599.1 177C598.1 176.3 597.3 175.5 596.7 174.4C596 173.3 595.8 172.1 595.8 170.8ZM600 169.1V170.9C600 171.8 600.2 172.5 600.6 173.3C601 174.1 601.7 174.4 602.8 174.4C603.8 174.4 604.6 174 605 173.3C605.4 172.6 605.6 171.8 605.6 170.9V169.1C605.6 168.2 605.4 167.4 605 166.7C604.6 166 603.9 165.6 602.8 165.6C601.8 165.6 601.1 166 600.6 166.7C600.2 167.4 600 168.2 600 169.1Z" fill="#242438"/>
<path d="M637.9 177.5C635.5 177.5 633.4 177 631.6 175.9C629.8 174.8 628.4 173.3 627.5 171.4C626.5 169.5 626 167.2 626 164.7C626 162.1 626.5 159.9 627.5 157.9C628.5 156 629.9 154.5 631.6 153.4C633.4 152.3 635.5 151.8 637.9 151.8C640.3 151.8 642.4 152.3 644.2 153.4C646 154.5 647.4 156 648.3 157.9C649.3 159.8 649.8 162.1 649.8 164.7C649.8 167.3 649.3 169.5 648.3 171.4C647.3 173.3 645.9 174.8 644.2 175.9C642.5 177 640.3 177.5 637.9 177.5ZM637.9 172.8C639.2 172.8 640.3 172.4 641.2 171.7C642.1 171 642.7 170 643.2 168.8C643.6 167.6 643.9 166.2 643.9 164.7C643.9 163.2 643.7 161.8 643.2 160.6C642.7 159.4 642.1 158.4 641.2 157.6C640.3 156.9 639.2 156.5 637.9 156.5C636.5 156.5 635.4 156.9 634.5 157.6C633.6 158.3 632.9 159.3 632.5 160.6C632.1 161.9 631.8 163.2 631.8 164.7C631.8 166.2 632 167.6 632.5 168.8C632.9 170 633.6 171 634.5 171.7C635.5 172.5 636.6 172.8 637.9 172.8Z" fill="#77809C"/>
<path d="M667 152.1V156.6H652.3V152.1H667ZM655.9 177.1V149.8C655.9 148.1 656.2 146.7 656.9 145.6C657.6 144.5 658.5 143.7 659.7 143.1C660.9 142.5 662.2 142.3 663.6 142.3C664.6 142.3 665.5 142.4 666.3 142.5C667.1 142.7 667.7 142.8 668.1 142.9L666.9 147.4C666.7 147.3 666.3 147.2 666 147.2C665.7 147.2 665.2 147.1 664.7 147.1C663.6 147.1 662.8 147.4 662.4 147.9C662 148.4 661.7 149.2 661.7 150.1V177H655.9V177.1Z" fill="#77809C"/>
<path d="M689.2 177.6C687.6 177.6 686.2 177.3 684.9 176.7C683.6 176.1 682.6 175.3 681.9 174.2C681.2 173.1 680.8 171.7 680.8 170.1C680.8 168.7 681.1 167.5 681.6 166.6C682.1 165.7 682.8 164.9 683.7 164.4C684.6 163.8 685.6 163.4 686.7 163.1C687.8 162.8 689 162.6 690.2 162.5C691.7 162.3 692.8 162.2 693.8 162.1C694.8 162 695.4 161.8 695.8 161.5C696.2 161.2 696.4 160.8 696.4 160.3V160.2C696.4 159 696 158 695.3 157.4C694.6 156.7 693.5 156.4 692.2 156.4C690.8 156.4 689.6 156.7 688.8 157.3C688 157.9 687.4 158.7 687.1 159.5L681.6 158.7C682 157.2 682.7 155.9 683.7 154.9C684.7 153.9 685.9 153.1 687.3 152.6C688.7 152.1 690.3 151.8 692.1 151.8C693.3 151.8 694.5 151.9 695.7 152.2C696.9 152.5 698 152.9 699 153.6C700 154.3 700.8 155.1 701.4 156.2C702 157.3 702.3 158.7 702.3 160.3V177H696.7V173.6H696.5C696.1 174.3 695.6 174.9 695 175.5C694.4 176.1 693.6 176.6 692.6 176.9C691.6 177.4 690.5 177.6 689.2 177.6ZM690.7 173.2C691.9 173.2 692.9 173 693.8 172.5C694.7 172 695.3 171.4 695.8 170.6C696.3 169.8 696.5 169 696.5 168.1V165.2C696.3 165.4 696 165.5 695.6 165.6C695.2 165.7 694.7 165.8 694.1 165.9C693.6 166 693 166.1 692.5 166.2C692 166.3 691.5 166.3 691.1 166.4C690.2 166.5 689.4 166.7 688.7 167C688 167.3 687.5 167.6 687.1 168.1C686.7 168.6 686.5 169.2 686.5 170C686.5 171.1 686.9 171.9 687.7 172.4C688.5 173 689.5 173.2 690.7 173.2Z" fill="#77809C"/>
<path d="M713.7 143.8V177H707.8V143.8H713.7Z" fill="#77809C"/>
<path d="M725.1 143.8V177H719.2V143.8H725.1Z" fill="#77809C"/>
<path d="M741.6 186.4V152.1H747.4V156.2H747.7C748 155.6 748.4 154.9 749 154.3C749.6 153.6 750.3 153 751.2 152.5C752.1 152 753.3 151.8 754.8 151.8C756.7 151.8 758.5 152.3 760 153.3C761.5 154.3 762.8 155.7 763.7 157.6C764.6 159.5 765.1 161.8 765.1 164.6C765.1 167.3 764.7 169.7 763.8 171.6C762.9 173.5 761.7 175 760.1 176C758.5 177 756.8 177.5 754.8 177.5C753.4 177.5 752.2 177.3 751.2 176.8C750.3 176.3 749.5 175.7 748.9 175.1C748.3 174.4 747.9 173.8 747.6 173.2H747.4V186.5H741.6V186.4ZM747.3 164.6C747.3 166.2 747.5 167.6 748 168.8C748.5 170 749.1 171 750 171.6C750.9 172.2 751.9 172.6 753.2 172.6C754.5 172.6 755.6 172.3 756.5 171.6C757.4 170.9 758 169.9 758.5 168.7C758.9 167.5 759.2 166.1 759.2 164.5C759.2 163 759 161.6 758.5 160.4C758.1 159.2 757.4 158.3 756.5 157.6C755.6 156.9 754.5 156.6 753.2 156.6C751.9 156.6 750.9 156.9 750 157.6C749.1 158.3 748.5 159.2 748 160.4C747.6 161.6 747.3 163 747.3 164.6Z" fill="#77809C"/>
<path d="M769.7 177.1V152.2H775.4V156.4H775.7C776.2 155 776.9 153.9 778 153.1C779.1 152.3 780.4 151.9 781.8 151.9C782.1 151.9 782.5 151.9 782.9 151.9C783.3 151.9 783.6 152 783.9 152V157.4C783.7 157.3 783.3 157.2 782.7 157.2C782.1 157.2 781.6 157.1 781.2 157.1C780.1 157.1 779.2 157.3 778.3 157.8C777.4 158.3 776.8 158.9 776.3 159.7C775.8 160.5 775.6 161.4 775.6 162.5V177.1H769.7Z" fill="#77809C"/>
<path d="M798.2 177.5C795.8 177.5 793.7 177 791.9 175.9C790.1 174.8 788.7 173.3 787.8 171.4C786.8 169.5 786.3 167.2 786.3 164.7C786.3 162.1 786.8 159.9 787.8 157.9C788.8 156 790.2 154.5 791.9 153.4C793.7 152.3 795.8 151.8 798.2 151.8C800.6 151.8 802.7 152.3 804.5 153.4C806.3 154.5 807.7 156 808.6 157.9C809.6 159.8 810.1 162.1 810.1 164.7C810.1 167.3 809.6 169.5 808.6 171.4C807.6 173.3 806.2 174.8 804.5 175.9C802.7 177 800.6 177.5 798.2 177.5ZM798.2 172.8C799.5 172.8 800.6 172.4 801.5 171.7C802.4 171 803 170 803.5 168.8C803.9 167.6 804.2 166.2 804.2 164.7C804.2 163.2 804 161.8 803.5 160.6C803 159.4 802.4 158.4 801.5 157.6C800.6 156.9 799.5 156.5 798.2 156.5C796.8 156.5 795.7 156.9 794.8 157.6C793.9 158.3 793.2 159.3 792.8 160.6C792.4 161.9 792.1 163.2 792.1 164.7C792.1 166.2 792.3 167.6 792.8 168.8C793.2 170 793.9 171 794.8 171.7C795.7 172.5 796.9 172.8 798.2 172.8Z" fill="#77809C"/>
<path d="M814.6 152.1H820.5V178.4C820.5 180.2 820.2 181.7 819.5 182.8C818.8 184 817.8 184.8 816.5 185.4C815.2 186 813.7 186.3 811.8 186.3C811.6 186.3 811.4 186.3 811.2 186.3C811 186.3 810.8 186.3 810.6 186.3V181.5C810.8 181.5 810.9 181.5 811 181.5C811.1 181.5 811.3 181.5 811.4 181.5C812.5 181.5 813.3 181.2 813.8 180.7C814.3 180.2 814.5 179.4 814.5 178.3V152.1H814.6ZM817.5 148.6C816.6 148.6 815.8 148.3 815.1 147.7C814.4 147.1 814.1 146.3 814.1 145.5C814.1 144.6 814.4 143.9 815.1 143.2C815.8 142.5 816.6 142.3 817.5 142.3C818.4 142.3 819.2 142.6 819.9 143.2C820.6 143.8 820.9 144.6 820.9 145.5C820.9 146.4 820.6 147.1 819.9 147.7C819.3 148.3 818.5 148.6 817.5 148.6Z" fill="#77809C"/>
<path d="M837.1 177.5C834.6 177.5 832.4 177 830.6 175.9C828.8 174.9 827.4 173.4 826.4 171.5C825.4 169.6 824.9 167.3 824.9 164.7C824.9 162.1 825.4 159.9 826.4 157.9C827.4 156 828.7 154.4 830.5 153.4C832.3 152.4 834.3 151.8 836.7 151.8C838.2 151.8 839.7 152 841.1 152.5C842.5 153 843.7 153.8 844.7 154.8C845.8 155.8 846.6 157.1 847.2 158.7C847.8 160.3 848.1 162.2 848.1 164.4V166.2H827.7V162.2H842.5C842.5 161.1 842.2 160.1 841.8 159.2C841.3 158.3 840.7 157.6 839.8 157.1C839 156.6 838 156.3 836.8 156.3C835.6 156.3 834.5 156.6 833.6 157.2C832.7 157.8 832 158.5 831.5 159.5C831 160.5 830.7 161.5 830.7 162.6V166.1C830.7 167.5 831 168.8 831.5 169.8C832 170.8 832.8 171.6 833.7 172.2C834.7 172.7 835.8 173 837 173C837.9 173 838.6 172.9 839.3 172.6C840 172.4 840.6 172 841.1 171.5C841.6 171 842 170.4 842.3 169.7L847.8 170.3C847.5 171.7 846.8 173 845.8 174.1C844.8 175.2 843.6 176 842.1 176.6C840.8 177.3 839 177.5 837.1 177.5Z" fill="#77809C"/>
<path d="M863.6 177.5C861.1 177.5 859 177 857.2 175.9C855.4 174.8 854.1 173.3 853.1 171.4C852.1 169.5 851.7 167.2 851.7 164.7C851.7 162.2 852.2 159.9 853.2 158C854.2 156.1 855.5 154.5 857.3 153.5C859.1 152.5 861.2 151.9 863.6 151.9C865.6 151.9 867.4 152.3 869 153C870.6 153.7 871.8 154.8 872.7 156.1C873.6 157.4 874.2 159 874.3 160.8H868.7C868.5 159.6 867.9 158.6 867.1 157.8C866.3 157 865.1 156.6 863.7 156.6C862.5 156.6 861.4 156.9 860.5 157.6C859.6 158.2 858.9 159.2 858.4 160.4C857.9 161.6 857.6 163 857.6 164.7C857.6 166.4 857.8 167.9 858.3 169.1C858.8 170.3 859.5 171.3 860.4 171.9C861.3 172.5 862.4 172.9 863.6 172.9C864.5 172.9 865.2 172.7 865.9 172.4C866.6 172.1 867.2 171.6 867.6 171C868.1 170.4 868.4 169.6 868.6 168.7H874.2C874.1 170.5 873.5 172 872.6 173.4C871.7 174.8 870.5 175.8 868.9 176.6C867.5 177.2 865.7 177.5 863.6 177.5Z" fill="#77809C"/>
<path d="M891.1 152.1V156.6H876.8V152.1H891.1ZM880.3 146.2H886.2V169.6C886.2 170.4 886.3 171 886.6 171.4C886.8 171.8 887.2 172.1 887.6 172.3C888 172.5 888.4 172.5 888.9 172.5C889.3 172.5 889.6 172.5 889.9 172.4C890.2 172.3 890.4 172.3 890.6 172.3L891.6 176.9C891.3 177 890.8 177.1 890.3 177.3C889.7 177.4 889 177.5 888.2 177.5C886.7 177.5 885.4 177.3 884.2 176.8C883 176.3 882.1 175.5 881.4 174.5C880.7 173.5 880.4 172.2 880.4 170.6V146.2H880.3Z" fill="#77809C"/>
<path d="M915.2 158.7L909.8 159.3C909.6 158.8 909.4 158.3 909 157.8C908.6 157.3 908.1 156.9 907.5 156.6C906.9 156.3 906.1 156.2 905.2 156.2C904 156.2 903 156.5 902.1 157C901.3 157.5 900.9 158.2 900.9 159.1C900.9 159.8 901.2 160.4 901.7 160.9C902.2 161.4 903.2 161.7 904.4 162L908.6 162.9C911 163.4 912.7 164.2 913.9 165.3C915.1 166.4 915.6 167.8 915.6 169.6C915.6 171.2 915.1 172.6 914.2 173.7C913.3 174.9 912 175.8 910.4 176.5C908.8 177.2 907 177.5 904.9 177.5C901.9 177.5 899.4 176.9 897.5 175.6C895.6 174.3 894.5 172.5 894.2 170.2L899.9 169.6C900.2 170.7 900.7 171.6 901.6 172.1C902.5 172.6 903.5 173 904.9 173C906.3 173 907.4 172.7 908.3 172.1C909.1 171.5 909.6 170.8 909.6 170C909.6 169.3 909.3 168.7 908.8 168.2C908.3 167.7 907.4 167.4 906.3 167.1L902 166.2C899.6 165.7 897.8 164.9 896.7 163.7C895.6 162.5 895 161 895 159.2C895 157.7 895.4 156.3 896.3 155.2C897.2 154.1 898.3 153.2 899.9 152.6C901.4 152 903.2 151.7 905.2 151.7C908.1 151.7 910.4 152.3 912.1 153.6C913.8 154.9 914.8 156.6 915.2 158.7Z" fill="#77809C"/>
<path d="M923.8 177.4C922.8 177.4 922 177.1 921.3 176.4C920.6 175.7 920.3 174.9 920.3 173.9C920.3 172.9 920.6 172.1 921.3 171.4C922 170.7 922.8 170.4 923.8 170.4C924.8 170.4 925.6 170.7 926.3 171.4C927 172.1 927.4 172.9 927.4 173.9C927.4 174.6 927.2 175.2 926.9 175.7C926.6 176.2 926.1 176.7 925.6 177C925 177.3 924.4 177.4 923.8 177.4Z" fill="#77809C"/>
</g>
<mask id="mask7_4_866" style="mask-type:luminance" maskUnits="userSpaceOnUse" x="0" y="0" width="1521" height="255">
<path d="M1521 0H0V255H1521V0Z" fill="white"/>
</mask>
<g mask="url(#mask7_4_866)">
<path d="M1210 228.3C1212.4 221.5 1218.4 217.7 1223.1 212.9C1224.5 211.5 1226.5 211.9 1227.9 213.5C1229.5 215.2 1229.3 217.2 1227.7 218.8C1224.9 221.7 1222 224.4 1219.3 227.4C1218.5 228.3 1217.7 229.8 1217.7 231C1217.7 233.8 1221 235.3 1223.4 233.9C1224.2 233.4 1224.8 232.7 1225.5 232C1251.9 205.6 1278.3 179.2 1304.7 152.8C1305.2 152.3 1305.7 151.9 1306.1 151.3C1307.6 149.5 1307.5 147.5 1306.1 146C1304.6 144.5 1302.6 144.4 1300.8 145.9C1300.1 146.4 1299.6 147.1 1299 147.7C1279.7 167 1260.3 186.4 1241 205.7C1238 208.7 1236 209.1 1234 207.2C1232.2 205.3 1232.6 203.2 1235.6 200.2C1255.2 180.6 1274.9 160.9 1294.5 141.3C1297.6 138.2 1301.2 136.5 1305.6 137.4C1310 138.3 1313 140.9 1314.4 145.1C1315.8 149.4 1314.9 153.4 1311.7 156.7C1306.6 162 1301.3 167.1 1296.1 172.3C1289.1 179.3 1282.1 186.3 1275.1 193.4C1274.3 194.2 1273.6 195.4 1273.6 196.4C1273.5 216.5 1273.5 236.6 1273.5 256.6C1273.5 256.9 1273.6 257.1 1273.6 257.5C1280.7 259.9 1284.6 264.8 1285.4 272.4C1301.2 272.4 1316.8 272.4 1331.9 272.4C1333.5 269 1334.4 265.6 1336.4 263.1C1338.4 260.6 1341.5 259 1344.5 256.7C1344.5 239.5 1344.5 221.5 1344.5 202.9C1343.6 203.8 1342.9 204.3 1342.3 204.9C1331.1 216.1 1320 227.3 1308.8 238.4C1303.8 243.4 1296.8 243.5 1292.1 238.8C1288.2 234.8 1287.6 228.6 1290.9 224C1291.4 223.2 1292.1 222.5 1292.7 221.9C1319.6 195 1346.5 168.1 1373.3 141.2C1376.3 138.2 1379.9 136.6 1384.2 137.4C1388.6 138.2 1391.6 140.8 1393 145.1C1394.4 149.4 1393.6 153.4 1390.4 156.7C1387.4 159.9 1384.3 162.9 1381.2 166C1372.1 175.1 1363 184.1 1354.1 193.2C1353.2 194.2 1352.4 195.8 1352.4 197.1C1352.3 216.4 1352.3 235.7 1352.3 255C1352.3 256.8 1352.7 257.6 1354.5 258.4C1359.7 260.6 1362.9 264.7 1363.9 270.3C1364 271 1364.2 271.6 1364.3 272.4C1380 272.4 1395.6 272.4 1411.4 272.4C1412.2 265 1416 259.9 1423.2 257.5C1423.2 239.4 1423.2 221.4 1423.2 202.8C1422.3 203.6 1421.6 204.2 1421 204.8C1409.9 215.9 1398.9 226.9 1387.8 238C1384.5 241.3 1380.7 242.9 1376 241.7C1367.9 239.6 1364.7 229.8 1370 223.3C1370.5 222.7 1371 222.2 1371.6 221.6C1398.4 194.8 1425.2 167.9 1452.1 141.1C1457 136.2 1463.6 135.7 1468.4 139.9C1473.3 144.2 1473.8 151.3 1469.5 156.2C1467.5 158.5 1465.2 160.6 1463 162.7C1461.2 164.4 1459.1 164.4 1457.5 162.9C1455.9 161.4 1456 159 1457.7 157.2C1459.3 155.5 1461.1 153.8 1462.8 152.1C1465.1 149.8 1465.3 147.6 1463.6 145.9C1461.8 144.2 1459.7 144.4 1457.4 146.7C1434 170.1 1410.6 193.5 1387.3 216.8C1383.9 220.2 1380.5 223.6 1377.2 227C1374.9 229.3 1374.7 231.5 1376.5 233.2C1378.3 234.9 1380.4 234.7 1382.7 232.3C1403.3 211.7 1423.9 191.1 1444.5 170.5C1447.5 167.5 1449.6 167.1 1451.5 169.1C1453.3 171 1452.9 173.1 1450.1 175.9C1444.3 181.7 1438.5 187.5 1432.7 193.3C1432 194 1431.2 195.1 1431.2 196.1C1431.1 216.4 1431.1 236.8 1431.1 257.3C1438.1 259.7 1442.3 264.5 1443 272.4C1443.9 272.4 1444.8 272.4 1445.7 272.4C1450.8 272.4 1456 272.3 1461.1 272.4C1467.5 272.5 1472.5 277.6 1472.6 283.8C1472.6 290.2 1467.6 295.3 1461.1 295.4C1460.2 295.4 1459.4 295.4 1458.5 295.4C1380.5 295.4 1302.5 295.4 1224.5 295.5C1217.4 295.5 1212.5 293.1 1210.1 286.2C1210.1 284.7 1210.1 283.1 1210.1 281.6C1212.4 274.7 1217.3 272 1224.4 272.3C1232.9 272.6 1241.5 272.4 1250 272.4C1251.3 272.4 1252.7 272.4 1254 272.4C1254.7 264.6 1258.8 259.8 1265.6 257.4C1265.6 239.1 1265.6 221.1 1265.6 203.1C1264.5 203.5 1264 204.3 1263.3 205C1252.2 216.1 1241.1 227.3 1229.9 238.3C1224.8 243.3 1217.6 243.3 1213.1 238.3C1211.7 236.8 1211 234.7 1209.9 232.9C1210 231.4 1210 229.9 1210 228.3ZM1341.2 280.1C1302 280.1 1262.8 280.1 1223.6 280.1C1219.6 280.1 1217.8 281.3 1217.7 283.8C1217.6 286.5 1219.5 287.8 1223.6 287.8C1302 287.8 1380.4 287.8 1458.9 287.8C1462.9 287.8 1464.7 286.6 1464.8 284.1C1464.9 281.4 1463 280.1 1458.9 280.1C1419.7 280.1 1380.4 280.1 1341.2 280.1ZM1300.3 235C1301.7 233.9 1303 233.2 1304 232.3C1330.7 205.7 1357.3 179.1 1383.9 152.4C1384.3 152 1384.6 151.7 1385 151.3C1386.4 149.6 1386.3 147.4 1384.9 146C1383.4 144.5 1381.4 144.5 1379.6 146C1379.1 146.4 1378.6 146.9 1378.1 147.4C1351.7 173.8 1325.3 200.2 1298.9 226.6C1298.2 227.3 1297.3 227.9 1297.1 228.7C1296.8 229.9 1296.6 231.5 1297.1 232.5C1297.6 233.4 1299.1 234 1300.3 235ZM1356.3 272.3C1355.8 267.4 1352.1 264.2 1347.6 264.7C1343.6 265.2 1340.6 268.6 1341 272.3C1346 272.3 1351 272.3 1356.3 272.3ZM1435 272.3C1434.9 268 1431.7 264.9 1427.5 264.7C1423.2 264.6 1419.9 267.7 1419.5 272.3C1424.6 272.3 1429.8 272.3 1435 272.3ZM1277.6 272.3C1277.1 267.6 1273.7 264.5 1269.4 264.7C1265.3 264.9 1262.1 268.2 1262.1 272.3C1267.2 272.3 1272.3 272.3 1277.6 272.3Z" fill="#15BEE6"/>
<path d="M1266.4 33C1268.4 34.2 1269.2 36 1269 38.4C1268.9 40 1269.1 41.6 1268.9 43.3C1268.7 45.4 1267.4 46.8 1265.2 46.8C1263.1 46.9 1261.6 45.7 1261.4 43.8C1261.1 41.3 1261.1 38.7 1261.4 36.2C1261.6 35.1 1262.9 34.1 1263.8 33.1C1264.7 33 1265.5 33 1266.4 33Z" fill="#15BEE6"/>
<path d="M1210 86.8C1211.2 84.8 1213 84 1215.4 84.2C1217 84.3 1218.6 84.1 1220.3 84.3C1222.4 84.5 1223.8 85.8 1223.8 88C1223.9 90.1 1222.7 91.6 1220.8 91.8C1218.3 92.1 1215.7 92.1 1213.2 91.8C1212.1 91.6 1211.1 90.3 1210.1 89.4C1210 88.5 1210 87.7 1210 86.8Z" fill="#15BEE6"/>
<path d="M1237.2 88.0001C1238.1 84.5001 1238.8 80.9001 1239.9 77.4001C1240.8 74.5001 1243 73.5001 1245.2 74.5001C1247.5 75.4001 1248.1 77.4001 1247 80.3001C1243.4 89.8001 1246.4 99.5001 1254.4 104.6C1262.2 109.6 1272.3 108.6 1278.9 102.1C1285.5 95.7001 1286.7 85.5001 1281.8 77.6001C1276.9 69.6001 1267.2 66.3001 1258.3 69.4001C1254.5 70.7001 1252.4 70.3001 1251.6 67.9001C1250.7 65.4001 1252.1 63.5001 1255.9 62.1001C1270.6 56.8001 1287.1 65.2001 1291.4 80.2001C1295.8 95.5001 1286.4 111.4 1270.9 114.8C1255.6 118.1 1240.6 107.9 1238.1 92.3001C1237.9 90.9001 1237.7 89.4001 1237.6 88.0001C1237.4 88.1001 1237.3 88.0001 1237.2 88.0001Z" fill="#15BEE6"/>
<path d="M1313.2 91.9C1312.2 91.9 1311.1 92 1310.1 91.9C1307.9 91.7 1306.4 90.1 1306.4 88.1C1306.4 86.1 1307.9 84.4 1310.1 84.3C1312.2 84.2 1314.4 84.2 1316.5 84.3C1318.7 84.4 1320.2 86 1320.2 88.1C1320.2 90.1 1318.7 91.8 1316.5 91.9C1315.4 92 1314.3 91.9 1313.2 91.9Z" fill="#15BEE6"/>
<path d="M1261.3 136.2C1261.3 135.1 1261.2 134 1261.3 132.9C1261.6 130.8 1262.9 129.5 1265.1 129.5C1267.3 129.5 1268.7 130.8 1268.9 132.9C1269.1 135.2 1269.1 137.5 1268.9 139.8C1268.7 141.9 1267.3 143.2 1265.2 143.3C1263.2 143.4 1261.5 141.8 1261.4 139.6C1261.2 138.4 1261.3 137.3 1261.3 136.2Z" fill="#15BEE6"/>
<path d="M1237.1 56C1237.1 59 1233.9 61.1 1231.7 59.6C1229.4 58 1227.3 55.8 1225.6 53.5C1225 52.7 1225.4 50.3 1226.2 49.4C1227 48.5 1229.4 47.9 1230.2 48.4C1232.7 50.3 1234.7 52.7 1236.8 54.9C1237 55.3 1237 55.8 1237.1 56Z" fill="#15BEE6"/>
<path d="M1296.5 60.3C1295.7 59.6 1294.1 59 1293.7 57.9C1293.2 56.8 1293.4 54.9 1294.1 54C1295.4 52.1 1297.2 50.6 1298.9 49.1C1300.3 47.8 1302.3 47.6 1303.5 49.1C1304.4 50.1 1305.3 52.5 1304.7 53.2C1302.9 55.7 1300.5 57.7 1298.2 59.9C1298 60 1297.5 60 1296.5 60.3Z" fill="#15BEE6"/>
<path d="M1237.4 119.7C1236.8 120.9 1236.5 121.9 1235.9 122.6C1234.5 124.2 1233 125.7 1231.4 127.1C1229.7 128.6 1227.6 128.5 1226.1 127C1224.6 125.5 1224.5 123.4 1226 121.7C1227.5 120.1 1229 118.3 1230.8 117.1C1231.8 116.4 1233.6 116.2 1234.7 116.7C1235.9 117.2 1236.6 118.7 1237.4 119.7Z" fill="#15BEE6"/>
<path d="M1305.4 124.8C1304.8 125.6 1304.2 127.1 1303.2 127.5C1302.1 128 1300.2 127.9 1299.2 127.3C1297.2 125.9 1295.5 124 1293.9 122.1C1292.7 120.7 1292.7 118.8 1294.1 117.7C1295.2 116.8 1297.5 116 1298.3 116.5C1300.8 118.3 1302.8 120.8 1305 123C1305.2 123.4 1305.1 123.9 1305.4 124.8Z" fill="#15BEE6"/>
</g>
<mask id="mask8_4_866" style="mask-type:luminance" maskUnits="userSpaceOnUse" x="0" y="0" width="1521" height="255">
<path d="M1521 0H0V255H1521V0Z" fill="white"/>
</mask>
<g mask="url(#mask8_4_866)">
<path d="M1420 92C1432.15 92 1442 82.1503 1442 70C1442 57.8497 1432.15 48 1420 48C1407.85 48 1398 57.8497 1398 70C1398 82.1503 1407.85 92 1420 92Z" fill="#D4F6FF"/>
</g>
<mask id="mask9_4_866" style="mask-type:luminance" maskUnits="userSpaceOnUse" x="0" y="0" width="1521" height="255">
<path d="M1521 0H0V255H1521V0Z" fill="white"/>
</mask>
<g mask="url(#mask9_4_866)">
<path d="M58.5 203.7C58.5 202.4 58.7 201.2 59 200.1C59.3 199 59.8 198 60.4 197.1H61.5C61.3 197.4 61 197.9 60.8 198.3C60.6 198.8 60.4 199.3 60.2 199.9C60 200.5 59.9 201.1 59.8 201.7C59.7 202.3 59.7 202.9 59.7 203.6C59.7 204.4 59.8 205.2 59.9 206.1C60.1 206.9 60.3 207.7 60.5 208.4C60.8 209.1 61.1 209.7 61.4 210.2H60.3C59.7 209.3 59.2 208.3 58.9 207.2C58.6 206.1 58.5 205 58.5 203.7Z" fill="#D3D3D3"/>
<path d="M70.4 197.7H71.6999V204.6C71.6999 205.3 71.4999 206 71.1999 206.5C70.8999 207.1 70.4 207.5 69.8 207.8C69.2 208.1 68.4999 208.3 67.6999 208.3C66.8999 208.3 66.1999 208.1 65.5999 207.8C64.9999 207.5 64.4999 207 64.1999 206.5C63.8999 205.9 63.7 205.3 63.7 204.6V197.7H65V204.5C65 205 65.1 205.5 65.3 205.9C65.5 206.3 65.8 206.6 66.3 206.8C66.7 207 67.2 207.1 67.8 207.1C68.4 207.1 68.9 207 69.3 206.8C69.7 206.6 70 206.3 70.3 205.9C70.6 205.5 70.5999 205 70.5999 204.5V197.7H70.4Z" fill="#D3D3D3"/>
<path d="M82.5 197.7V208.2H81.3L75.6 200H75.5V208.2H74.2V197.7H75.4L81.1 205.9H81.2V197.7H82.5Z" fill="#D3D3D3"/>
<path d="M93.5 201H92.2C92.1 200.6 92 200.3 91.8 200C91.6 199.7 91.4 199.5 91.1 199.3C90.8 199.1 90.5 199 90.2 198.9C89.9 198.8 89.5 198.8 89.2 198.8C88.6 198.8 88 199 87.5 199.3C87 199.6 86.6 200.1 86.3 200.7C86 201.3 85.8 202.1 85.8 203C85.8 203.9 86 204.7 86.3 205.3C86.6 205.9 87 206.4 87.5 206.7C88 207 88.6 207.2 89.2 207.2C89.5 207.2 89.9 207.2 90.2 207.1C90.5 207 90.8 206.9 91.1 206.7C91.4 206.5 91.6 206.3 91.8 206C92 205.7 92.1 205.4 92.2 205H93.5C93.4 205.5 93.2 206 93 206.4C92.7 206.8 92.4 207.2 92.1 207.5C91.7 207.8 91.3 208 90.8 208.2C90.3 208.4 89.8 208.4 89.3 208.4C88.4 208.4 87.6 208.2 86.9 207.7C86.2 207.3 85.7 206.6 85.3 205.8C84.9 205 84.7 204 84.7 202.9C84.7 201.8 84.9 200.8 85.3 200C85.7 199.2 86.2 198.6 86.9 198.1C87.6 197.7 88.4 197.4 89.3 197.4C89.8 197.4 90.3 197.5 90.8 197.6C91.3 197.7 91.7 198 92.1 198.3C92.5 198.6 92.8 199 93 199.4C93.2 199.9 93.4 200.4 93.5 201Z" fill="#D3D3D3"/>
<path d="M94.8999 198.8V197.7H102.8V198.8H99.4999V208.2H98.1999V198.8H94.8999Z" fill="#D3D3D3"/>
<path d="M105.2 208.2H103.9L107.7 197.7H109L112.8 208.2H111.5L108.4 199.4H108.3L105.2 208.2ZM105.7 204.1H111.1V205.2H105.7V204.1Z" fill="#D3D3D3"/>
<path d="M117.7 208.2H114.5V197.7H117.9C118.9 197.7 119.8 197.9 120.5 198.3C121.2 198.7 121.8 199.3 122.2 200.1C122.6 200.9 122.8 201.8 122.8 202.9C122.8 204 122.6 204.9 122.2 205.7C121.8 206.5 121.2 207.1 120.5 207.5C119.8 207.9 118.8 208.2 117.7 208.2ZM115.8 207H117.7C118.6 207 119.3 206.8 119.9 206.5C120.5 206.2 120.9 205.7 121.2 205.1C121.5 204.5 121.6 203.7 121.6 202.9C121.6 202.1 121.5 201.3 121.2 200.7C120.9 200.1 120.5 199.6 120 199.3C119.5 199 118.8 198.8 117.9 198.8H115.9V207H115.8Z" fill="#D3D3D3"/>
<path d="M128.7 208.2V207.3L132.2 203.5C132.6 203.1 132.9 202.7 133.2 202.3C133.5 202 133.7 201.7 133.8 201.4C133.9 201.1 134 200.8 134 200.5C134 200.1 133.9 199.8 133.7 199.5C133.5 199.2 133.3 199 133 198.9C132.7 198.8 132.4 198.7 132 198.7C131.6 198.7 131.2 198.8 130.9 198.9C130.6 199.1 130.4 199.3 130.2 199.6C130 199.9 130 200.2 130 200.6H128.8C128.8 200 128.9 199.4 129.2 199C129.5 198.6 129.9 198.2 130.4 197.9C130.9 197.6 131.4 197.5 132.1 197.5C132.7 197.5 133.3 197.6 133.7 197.9C134.2 198.2 134.5 198.5 134.8 198.9C135.1 199.3 135.2 199.8 135.2 200.4C135.2 200.8 135.1 201.2 135 201.5C134.9 201.9 134.6 202.3 134.3 202.7C134 203.1 133.5 203.7 132.9 204.3L130.5 206.8V206.9H135.4V208H128.7V208.2Z" fill="#D3D3D3"/>
<path d="M140.9 208.3C140.1 208.3 139.5 208.1 138.9 207.7C138.4 207.3 137.9 206.7 137.7 205.9C137.4 205.1 137.3 204.1 137.3 203C137.3 201.9 137.4 200.9 137.7 200.1C138 199.3 138.4 198.7 138.9 198.3C139.4 197.9 140.1 197.7 140.9 197.7C141.7 197.7 142.3 197.9 142.9 198.3C143.4 198.7 143.9 199.3 144.1 200.1C144.4 200.9 144.5 201.9 144.5 203C144.5 204.1 144.4 205.1 144.1 205.9C143.8 206.7 143.4 207.3 142.9 207.7C142.3 208.1 141.6 208.3 140.9 208.3ZM140.9 207.2C141.7 207.2 142.3 206.8 142.7 206.1C143.1 205.4 143.3 204.3 143.3 202.9C143.3 202 143.2 201.2 143 200.6C142.8 200 142.5 199.5 142.2 199.1C141.8 198.8 141.4 198.6 140.9 198.6C140.1 198.6 139.6 199 139.1 199.7C138.7 200.4 138.5 201.5 138.5 202.9C138.5 203.8 138.6 204.6 138.8 205.2C139 205.8 139.3 206.3 139.6 206.6C139.9 206.9 140.4 207.2 140.9 207.2Z" fill="#D3D3D3"/>
<path d="M146.5 208.2V207.3L150 203.5C150.4 203.1 150.7 202.7 151 202.3C151.3 202 151.5 201.7 151.6 201.4C151.7 201.1 151.8 200.8 151.8 200.5C151.8 200.1 151.7 199.8 151.5 199.5C151.3 199.2 151.1 199 150.8 198.9C150.5 198.8 150.2 198.7 149.8 198.7C149.4 198.7 149 198.8 148.7 198.9C148.4 199.1 148.2 199.3 148 199.6C147.8 199.9 147.8 200.2 147.8 200.6H146.6C146.6 200 146.7 199.4 147 199C147.3 198.6 147.7 198.2 148.2 197.9C148.7 197.6 149.2 197.5 149.9 197.5C150.5 197.5 151.1 197.6 151.5 197.9C152 198.2 152.3 198.5 152.6 198.9C152.9 199.3 153 199.8 153 200.4C153 200.8 152.9 201.2 152.8 201.5C152.7 201.9 152.4 202.3 152.1 202.7C151.8 203.1 151.3 203.7 150.7 204.3L148.3 206.8V206.9H153.2V208H146.5V208.2Z" fill="#D3D3D3"/>
<path d="M154.9 206V205L159.5 197.7H160.3V199.3H159.8L156.3 204.8V204.9H162.5V206H154.9ZM159.9 208.2V205.7V205.2V197.7H161.1V208.2H159.9Z" fill="#D3D3D3"/>
<path d="M167 203.7C167 205 166.8 206.2 166.5 207.3C166.2 208.4 165.7 209.4 165.1 210.3H164C164.2 210 164.5 209.5 164.7 209.1C164.9 208.6 165.1 208.1 165.3 207.5C165.5 206.9 165.6 206.3 165.7 205.7C165.8 205.1 165.8 204.5 165.8 203.8C165.8 203 165.7 202.2 165.6 201.3C165.5 200.4 165.2 199.7 165 199C164.7 198.3 164.4 197.7 164.1 197.2H165.2C165.8 198.1 166.3 199.1 166.6 200.2C166.9 201.3 167 202.5 167 203.7Z" fill="#D3D3D3"/>
</g>
<mask id="mask10_4_866" style="mask-type:luminance" maskUnits="userSpaceOnUse" x="0" y="0" width="1521" height="255">
<path d="M1521 0H0V255H1521V0Z" fill="white"/>
</mask>
<g mask="url(#mask10_4_866)">
<path d="M63.9 59.9H57V38.4H64.2C66.3 38.4 68.1 38.8 69.6 39.7C71.1 40.6 72.3 41.8 73.1 43.4C73.9 45 74.3 46.9 74.3 49.1C74.3 51.3 73.9 53.3 73.1 54.9C72.3 56.5 71.1 57.7 69.6 58.6C67.9 59.5 66.1 59.9 63.9 59.9ZM60.2 57.1H63.7C65.3 57.1 66.7 56.8 67.8 56.2C68.9 55.6 69.7 54.7 70.2 53.5C70.7 52.3 71 50.9 71 49.2C71 47.5 70.7 46.1 70.2 44.9C69.7 43.7 68.9 42.8 67.8 42.2C66.7 41.6 65.4 41.3 63.9 41.3H60.2V57.1Z" fill="#242438"/>
<path d="M79.6001 41.3C79.1001 41.3 78.6001 41.1 78.2001 40.7C77.8001 40.3 77.6001 39.9 77.6001 39.4C77.6001 38.9 77.8001 38.4 78.2001 38.1C78.6001 37.7 79.1001 37.5 79.6001 37.5C80.1001 37.5 80.6001 37.7 81.0001 38.1C81.4001 38.5 81.6001 38.9 81.6001 39.4C81.6001 39.9 81.4001 40.4 81.0001 40.7C80.6001 41.1 80.1001 41.3 79.6001 41.3ZM78.0001 59.9V43.8H81.1001V59.9H78.0001Z" fill="#242438"/>
<path d="M91.3 60.2C90 60.2 88.8 59.9 87.8 59.2C86.8 58.5 86 57.6 85.4 56.3C84.8 55.1 84.5 53.6 84.5 51.8C84.5 50.1 84.8 48.6 85.4 47.3C86 46.1 86.8 45.1 87.8 44.5C88.8 43.8 90 43.5 91.3 43.5C92.3 43.5 93.1 43.7 93.7 44C94.3 44.3 94.8 44.7 95.1 45.2C95.4 45.6 95.7 46 95.9 46.4H96.1V38.4H99.2V59.9H96.1V57.4H96C95.8 57.7 95.5 58.1 95.2 58.6C94.8 59 94.4 59.4 93.7 59.8C93.1 60 92.3 60.2 91.3 60.2ZM92 57.5C92.9 57.5 93.7 57.3 94.3 56.8C94.9 56.3 95.4 55.7 95.7 54.8C96 53.9 96.2 53 96.2 51.8C96.2 50.7 96 49.7 95.7 48.9C95.4 48.1 94.9 47.4 94.3 46.9C93.7 46.4 92.9 46.2 92 46.2C91.1 46.2 90.3 46.4 89.6 46.9C88.9 47.4 88.5 48.1 88.2 48.9C87.9 49.7 87.7 50.7 87.7 51.8C87.7 52.9 87.9 53.8 88.2 54.7C88.5 55.6 89 56.2 89.6 56.7C90.2 57.2 91.1 57.5 92 57.5Z" fill="#242438"/>
<path d="M113.6 65.9001C113.1 65.9001 112.7 65.9001 112.3 65.8001C111.9 65.7001 111.6 65.6 111.4 65.6L112.2 63C112.8 63.2001 113.3 63.2001 113.7 63.2001C114.1 63.2001 114.5 63 114.9 62.7001C115.3 62.4001 115.6 61.9001 115.8 61.2001L116.2 60.1L110.3 43.8H113.7L117.8 56.3H118L122.1 43.8H125.5L118.7 62C118.4 62.8 118 63.5 117.5 64.1C117 64.7 116.5 65.1001 115.8 65.4001C115.2 65.8001 114.5 65.9001 113.6 65.9001Z" fill="#242438"/>
<path d="M135.1 60.2C133.6 60.2 132.3 59.9 131.1 59.2C130 58.5 129.1 57.5 128.5 56.3C127.9 55.1 127.6 53.6 127.6 51.9C127.6 50.2 127.9 48.8 128.5 47.5C129.1 46.2 130 45.3 131.1 44.6C132.2 43.9 133.5 43.6 135.1 43.6C136.7 43.6 137.9 43.9 139.1 44.6C140.2 45.3 141.1 46.3 141.7 47.5C142.3 48.7 142.6 50.2 142.6 51.9C142.6 53.6 142.3 55 141.7 56.3C141.1 57.5 140.2 58.5 139.1 59.2C137.9 59.9 136.6 60.2 135.1 60.2ZM135.1 57.6C136.1 57.6 136.9 57.3 137.5 56.8C138.1 56.3 138.6 55.6 138.9 54.7C139.2 53.8 139.4 52.9 139.4 51.9C139.4 50.9 139.2 49.9 138.9 49.1C138.6 48.2 138.1 47.5 137.5 47C136.9 46.5 136 46.2 135.1 46.2C134.1 46.2 133.3 46.5 132.7 47C132.1 47.5 131.6 48.2 131.3 49.1C131 50 130.8 50.9 130.8 51.9C130.8 52.9 131 53.9 131.3 54.7C131.6 55.6 132.1 56.2 132.7 56.8C133.3 57.3 134.1 57.6 135.1 57.6Z" fill="#242438"/>
<path d="M156.3 53.2001V43.8H159.4V59.9001H156.3V57.1H156.1C155.7 58 155.1 58.7001 154.3 59.2001C153.5 59.8001 152.5 60.1 151.3 60.1C150.3 60.1 149.4 59.9001 148.6 59.4001C147.8 58.9001 147.2 58.3001 146.7 57.4001C146.2 56.5001 146 55.4 146 54.1V43.8H149.1V53.7001C149.1 54.8001 149.4 55.7 150 56.3C150.6 57 151.4 57.3 152.4 57.3C153 57.3 153.6 57.2001 154.2 56.9001C154.8 56.6001 155.3 56.2 155.7 55.6C156.1 55 156.3 54.1 156.3 53.2001Z" fill="#242438"/>
<path d="M171.5 59.9V38.4H174.6V59.9H171.5ZM174.4 54.4V50.6H174.9L181.3 43.8H185.1L177.8 51.6H177.3L174.4 54.4ZM181.6 59.9L175.8 52.2L178 50L185.5 59.8H181.6V59.9Z" fill="#15BEE6"/>
<path d="M191 50.3V59.9H187.9V43.8H190.9V46.4H191.1C191.5 45.5 192.1 44.9 192.8 44.3C193.6 43.8 194.6 43.5 195.8 43.5C196.9 43.5 197.9 43.7 198.7 44.2C199.5 44.7 200.2 45.3 200.6 46.2C201.1 47.1 201.3 48.2 201.3 49.5V59.7H198.2V50C198.2 48.8 197.9 47.9 197.3 47.3C196.7 46.6 195.9 46.3 194.8 46.3C194.1 46.3 193.4 46.5 192.9 46.8C192.4 47.1 191.9 47.6 191.6 48.2C191.2 48.7 191 49.5 191 50.3Z" fill="#15BEE6"/>
<path d="M212.3 60.2C210.8 60.2 209.5 59.9 208.3 59.2C207.2 58.5 206.3 57.5 205.7 56.3C205.1 55.1 204.8 53.6 204.8 51.9C204.8 50.2 205.1 48.8 205.7 47.5C206.3 46.2 207.2 45.3 208.3 44.6C209.4 43.9 210.7 43.6 212.3 43.6C213.9 43.6 215.1 43.9 216.3 44.6C217.4 45.3 218.3 46.3 218.9 47.5C219.5 48.7 219.8 50.2 219.8 51.9C219.8 53.6 219.5 55 218.9 56.3C218.3 57.5 217.4 58.5 216.3 59.2C215.1 59.9 213.8 60.2 212.3 60.2ZM212.3 57.6C213.3 57.6 214.1 57.3 214.7 56.8C215.3 56.3 215.8 55.6 216.1 54.7C216.4 53.8 216.6 52.9 216.6 51.9C216.6 50.9 216.4 49.9 216.1 49.1C215.8 48.2 215.3 47.5 214.7 47C214.1 46.5 213.2 46.2 212.3 46.2C211.3 46.2 210.5 46.5 209.9 47C209.3 47.5 208.8 48.2 208.5 49.1C208.2 50 208 50.9 208 51.9C208 52.9 208.2 53.9 208.5 54.7C208.8 55.6 209.3 56.2 209.9 56.8C210.5 57.3 211.3 57.6 212.3 57.6Z" fill="#15BEE6"/>
<path d="M226.8 59.9001L222.1 43.8H225.3L228.5 55.6H228.7L231.9 43.8H235.1L238.2 55.6H238.4L241.5 43.8H244.7L240 59.9001H236.8L233.5 48.3H233.3L230 59.9001H226.8Z" fill="#15BEE6"/>
<path d="M251.1 53.5C251.1 52.2 251.2 51.2 251.5 50.4C251.8 49.6 252.1 49 252.6 48.5C253.1 48 253.6 47.6 254.3 47.2C254.7 46.9 255.1 46.6 255.4 46.3C255.7 46 256 45.6 256.2 45.2C256.4 44.8 256.5 44.3 256.5 43.8C256.5 43.2 256.4 42.6 256.1 42.2C255.8 41.7 255.4 41.4 254.9 41.1C254.4 40.8 253.9 40.7 253.3 40.7C252.8 40.7 252.2 40.8 251.8 41C251.4 41.2 250.9 41.6 250.6 42C250.3 42.4 250.1 43.1 250 43.8H246.8C246.8 42.5 247.2 41.5 247.8 40.6C248.4 39.7 249.2 39.1 250.1 38.6C251 38.1 252.1 37.9 253.3 37.9C254.6 37.9 255.7 38.1 256.7 38.6C257.7 39.1 258.4 39.7 258.9 40.6C259.4 41.5 259.7 42.5 259.7 43.6C259.7 44.4 259.6 45.1 259.3 45.7C259.1 46.3 258.7 46.9 258.3 47.4C257.8 47.9 257.3 48.3 256.7 48.7C256.1 49.1 255.6 49.5 255.3 49.9C254.9 50.3 254.7 50.8 254.5 51.3C254.3 51.8 254.2 52.5 254.2 53.3V53.5H251.1ZM252.7 60.1C252.1 60.1 251.6 59.9 251.2 59.5C250.8 59.1 250.6 58.6 250.6 58C250.6 57.4 250.8 56.9 251.2 56.5C251.6 56.1 252.1 55.9 252.7 55.9C253.3 55.9 253.8 56.1 254.2 56.5C254.6 56.9 254.8 57.4 254.8 58C254.8 58.4 254.7 58.7 254.5 59.1C254.3 59.4 254.1 59.7 253.7 59.9C253.4 60 253 60.1 252.7 60.1Z" fill="#15BEE6"/>
<path d="M257 64.6H170.9V67.2H257V64.6Z" fill="#D9F4F9"/>
</g>
</g>
<defs>
<clipPath id="clip0_4_866">
<rect width="1521" height="255" fill="white"/>
</clipPath>
</defs>
</svg>
