<svg width="1521" height="255" viewBox="0 0 1521 255" fill="none" xmlns="http://www.w3.org/2000/svg">
<g clip-path="url(#clip0_4_2219)">
<path d="M1521 0H0V255H1521V0Z" fill="white"/>
<mask id="mask0_4_2219" style="mask-type:luminance" maskUnits="userSpaceOnUse" x="0" y="0" width="1521" height="255">
<path d="M1521 0H0V255H1521V0Z" fill="white"/>
</mask>
<g mask="url(#mask0_4_2219)">
<path d="M589.8 65C625.7 65 654.8 35.9 654.8 0H524.8C524.8 35.9 553.9 65 589.8 65Z" fill="#F2FCFF"/>
</g>
<mask id="mask1_4_2219" style="mask-type:luminance" maskUnits="userSpaceOnUse" x="0" y="0" width="1521" height="255">
<path d="M1521 0H0V255H1521V0Z" fill="white"/>
</mask>
<g mask="url(#mask1_4_2219)">
<path d="M1163.8 214.2C1141.3 214.2 1123 232.5 1123 255H1204.6C1204.6 232.5 1186.3 214.2 1163.8 214.2Z" fill="#F2FCFF"/>
</g>
<mask id="mask2_4_2219" style="mask-type:luminance" maskUnits="userSpaceOnUse" x="0" y="0" width="1521" height="255">
<path d="M1521 0H0V255H1521V0Z" fill="white"/>
</mask>
<g mask="url(#mask2_4_2219)">
<path d="M56.9999 64.7C65.0633 64.7 71.5999 58.1634 71.5999 50.1C71.5999 42.0366 65.0633 35.5 56.9999 35.5C48.9365 35.5 42.3999 42.0366 42.3999 50.1C42.3999 58.1634 48.9365 64.7 56.9999 64.7Z" fill="#F9FEFA"/>
</g>
<mask id="mask3_4_2219" style="mask-type:luminance" maskUnits="userSpaceOnUse" x="0" y="0" width="1521" height="255">
<path d="M1521 0H0V255H1521V0Z" fill="white"/>
</mask>
<g mask="url(#mask3_4_2219)">
<path d="M1176.7 125.6L1167.7 119L1174.3 110L1169.8 106.7L1163.2 115.7L1154.4 109.3L1151.1 113.8L1159.9 120.2L1153.4 129L1157.9 132.3L1164.4 123.5L1173.4 130.1L1176.7 125.6Z" fill="#D4F6FF"/>
</g>
<mask id="mask4_4_2219" style="mask-type:luminance" maskUnits="userSpaceOnUse" x="0" y="0" width="1521" height="255">
<path d="M1521 0H0V255H1521V0Z" fill="white"/>
</mask>
<g mask="url(#mask4_4_2219)">
<path d="M1456 192C1461.52 192 1466 187.523 1466 182C1466 176.477 1461.52 172 1456 172C1450.48 172 1446 176.477 1446 182C1446 187.523 1450.48 192 1456 192Z" fill="#F2FCFF"/>
</g>
<mask id="mask5_4_2219" style="mask-type:luminance" maskUnits="userSpaceOnUse" x="0" y="0" width="1521" height="255">
<path d="M1521 0H0V255H1521V0Z" fill="white"/>
</mask>
<g mask="url(#mask5_4_2219)">
<path d="M655 274C667.703 274 678 263.703 678 251C678 238.297 667.703 228 655 228C642.297 228 632 238.297 632 251C632 263.703 642.297 274 655 274Z" fill="#F2FCFF"/>
</g>
<mask id="mask6_4_2219" style="mask-type:luminance" maskUnits="userSpaceOnUse" x="0" y="0" width="1521" height="255">
<path d="M1521 0H0V255H1521V0Z" fill="white"/>
</mask>
<g mask="url(#mask6_4_2219)">
<path d="M57.7 97.6001V92.6001H84.1999V97.6001H73.9V125.8H67.9V97.6001H57.7Z" fill="#77809C"/>
<path d="M88.5999 125.8V100.9H94.2999V105.1H94.5999C95.0999 103.7 95.7999 102.6 96.8999 101.8C97.9999 101 99.2999 100.6 100.7 100.6C101 100.6 101.4 100.6 101.8 100.6C102.2 100.6 102.5 100.7 102.8 100.7V106.1C102.6 106 102.2 105.9 101.6 105.9C101 105.9 100.5 105.8 100.1 105.8C98.9999 105.8 98.0999 106 97.1999 106.5C96.2999 107 95.6999 107.6 95.1999 108.4C94.6999 109.2 94.4999 110.1 94.4999 111.2V125.8H88.5999Z" fill="#77809C"/>
<path d="M113.4 126.3C111.8 126.3 110.4 126 109.1 125.4C107.8 124.8 106.8 124 106.1 122.9C105.4 121.8 105 120.4 105 118.8C105 117.4 105.3 116.2 105.8 115.3C106.3 114.4 107 113.6 107.9 113.1C108.8 112.5 109.8 112.1 110.9 111.8C112 111.5 113.2 111.3 114.4 111.2C115.9 111 117 110.9 118 110.8C119 110.7 119.6 110.5 120 110.2C120.4 109.9 120.6 109.5 120.6 109V108.9C120.6 107.7 120.2 106.7 119.5 106.1C118.8 105.4 117.7 105.1 116.4 105.1C115 105.1 113.8 105.4 113 106C112.2 106.6 111.6 107.4 111.3 108.2L105.8 107.4C106.2 105.9 106.9 104.6 107.9 103.6C108.9 102.6 110.1 101.8 111.5 101.3C112.9 100.8 114.5 100.5 116.3 100.5C117.5 100.5 118.7 100.6 119.9 100.9C121.1 101.2 122.2 101.6 123.2 102.3C124.2 103 125 103.8 125.6 104.9C126.2 106 126.5 107.4 126.5 109V125.7H120.9V122.3H120.7C120.3 123 119.8 123.6 119.2 124.2C118.6 124.8 117.8 125.3 116.8 125.6C115.9 126.1 114.7 126.3 113.4 126.3ZM115 122C116.2 122 117.2 121.8 118.1 121.3C119 120.8 119.6 120.2 120.1 119.4C120.6 118.6 120.8 117.8 120.8 116.9V114C120.6 114.2 120.3 114.3 119.9 114.4C119.5 114.5 119 114.6 118.4 114.7C117.9 114.8 117.3 114.9 116.8 115C116.3 115.1 115.8 115.1 115.4 115.2C114.5 115.3 113.7 115.5 113 115.8C112.3 116.1 111.8 116.4 111.4 116.9C111 117.4 110.8 118 110.8 118.8C110.8 119.9 111.2 120.7 112 121.2C112.7 121.7 113.7 122 115 122Z" fill="#77809C"/>
<path d="M137.9 111.2V125.8H132V100.9H137.6V105.1H137.9C138.5 103.7 139.4 102.6 140.6 101.8C141.9 101 143.4 100.6 145.3 100.6C147 100.6 148.5 101 149.8 101.7C151.1 102.4 152.1 103.5 152.8 104.9C153.5 106.3 153.9 108 153.8 110V125.9H148V110.9C148 109.2 147.6 107.9 146.7 107C145.8 106.1 144.7 105.6 143.1 105.6C142.1 105.6 141.2 105.8 140.4 106.3C139.6 106.7 139 107.4 138.5 108.2C138 109 137.9 110 137.9 111.2Z" fill="#77809C"/>
<path d="M179.1 107.5L173.7 108.1C173.5 107.6 173.3 107.1 172.9 106.6C172.5 106.1 172 105.7 171.4 105.4C170.8 105.1 170 105 169.1 105C167.9 105 166.9 105.3 166 105.8C165.2 106.3 164.8 107 164.8 107.9C164.8 108.6 165.1 109.2 165.6 109.7C166.1 110.2 167.1 110.5 168.3 110.8L172.5 111.7C174.9 112.2 176.6 113 177.8 114.1C179 115.2 179.5 116.6 179.5 118.4C179.5 120 179 121.4 178.1 122.5C177.2 123.7 175.9 124.6 174.3 125.3C172.7 126 170.9 126.3 168.8 126.3C165.8 126.3 163.3 125.7 161.4 124.4C159.5 123.1 158.4 121.3 158.1 119L163.8 118.4C164.1 119.5 164.6 120.4 165.5 120.9C166.4 121.4 167.4 121.8 168.8 121.8C170.2 121.8 171.3 121.5 172.2 120.9C173 120.3 173.5 119.6 173.5 118.8C173.5 118.1 173.2 117.5 172.7 117C172.2 116.5 171.3 116.2 170.2 115.9L165.9 115C163.5 114.5 161.7 113.7 160.6 112.5C159.5 111.3 158.9 109.8 158.9 108C158.9 106.5 159.3 105.1 160.2 104C161.1 102.9 162.2 102 163.8 101.4C165.3 100.8 167.1 100.5 169.1 100.5C172 100.5 174.3 101.1 176 102.4C177.7 103.7 178.7 105.3 179.1 107.5Z" fill="#77809C"/>
<path d="M184.1 135.1V100.8H189.9V104.9H190.2C190.5 104.3 190.9 103.6 191.5 103C192.1 102.3 192.8 101.7 193.7 101.2C194.6 100.7 195.8 100.5 197.3 100.5C199.2 100.5 201 101 202.5 102C204 103 205.3 104.4 206.2 106.3C207.1 108.2 207.6 110.5 207.6 113.3C207.6 116 207.2 118.4 206.3 120.3C205.4 122.2 204.2 123.7 202.6 124.7C201 125.7 199.3 126.2 197.3 126.2C195.9 126.2 194.7 126 193.7 125.5C192.8 125 192 124.4 191.4 123.8C190.8 123.1 190.4 122.5 190.1 121.9H189.9V135.2H184.1V135.1ZM189.8 113.3C189.8 114.9 190 116.3 190.5 117.5C191 118.7 191.6 119.7 192.5 120.3C193.4 120.9 194.4 121.3 195.7 121.3C197 121.3 198.1 121 199 120.3C199.9 119.6 200.5 118.6 201 117.4C201.4 116.2 201.7 114.8 201.7 113.2C201.7 111.7 201.5 110.3 201 109.1C200.6 107.9 199.9 107 199 106.3C198.1 105.6 197 105.3 195.7 105.3C194.4 105.3 193.4 105.6 192.5 106.3C191.6 107 191 107.9 190.5 109.1C190 110.3 189.8 111.7 189.8 113.3Z" fill="#77809C"/>
<path d="M215.1 97.3C214.2 97.3 213.4 97 212.7 96.4C212 95.8 211.7 95 211.7 94.1C211.7 93.2 212 92.5 212.7 91.9C213.4 91.3 214.2 91 215.1 91C216 91 216.8 91.3 217.5 91.9C218.2 92.5 218.5 93.3 218.5 94.2C218.5 95.1 218.2 95.8 217.5 96.4C216.8 97 216 97.3 215.1 97.3ZM212.1 125.8V100.9H218V125.8H212.1Z" fill="#77809C"/>
<path d="M223.6 125.8V100.9H229.3V105.1H229.6C230.1 103.7 230.8 102.6 231.9 101.8C233 101 234.3 100.6 235.7 100.6C236 100.6 236.4 100.6 236.8 100.6C237.2 100.6 237.5 100.7 237.8 100.7V106.1C237.6 106 237.2 105.9 236.6 105.9C236 105.9 235.5 105.8 235.1 105.8C234 105.8 233.1 106 232.2 106.5C231.3 107 230.7 107.6 230.2 108.4C229.7 109.2 229.5 110.1 229.5 111.2V125.8H223.6Z" fill="#77809C"/>
<path d="M248.4 126.3C246.8 126.3 245.4 126 244.1 125.4C242.8 124.8 241.8 124 241.1 122.9C240.4 121.8 240 120.4 240 118.8C240 117.4 240.3 116.2 240.8 115.3C241.3 114.4 242 113.6 242.9 113.1C243.8 112.5 244.8 112.1 245.9 111.8C247 111.5 248.2 111.3 249.4 111.2C250.9 111 252 110.9 253 110.8C254 110.7 254.6 110.5 255 110.2C255.4 109.9 255.6 109.5 255.6 109V108.9C255.6 107.7 255.2 106.7 254.5 106.1C253.8 105.4 252.7 105.1 251.4 105.1C250 105.1 248.8 105.4 248 106C247.2 106.6 246.6 107.4 246.3 108.2L240.8 107.4C241.2 105.9 241.9 104.6 242.9 103.6C243.9 102.6 245.1 101.8 246.5 101.3C247.9 100.8 249.5 100.5 251.3 100.5C252.5 100.5 253.7 100.6 254.9 100.9C256.1 101.2 257.2 101.6 258.2 102.3C259.2 103 260 103.8 260.6 104.9C261.2 106 261.5 107.4 261.5 109V125.7H255.9V122.3H255.7C255.3 123 254.8 123.6 254.2 124.2C253.6 124.8 252.8 125.3 251.8 125.6C250.9 126.1 249.7 126.3 248.4 126.3ZM249.9 122C251.1 122 252.1 121.8 253 121.3C253.9 120.8 254.5 120.2 255 119.4C255.5 118.6 255.7 117.8 255.7 116.9V114C255.5 114.2 255.2 114.3 254.8 114.4C254.4 114.5 253.9 114.6 253.3 114.7C252.8 114.8 252.2 114.9 251.7 115C251.2 115.1 250.7 115.1 250.3 115.2C249.4 115.3 248.6 115.5 247.9 115.8C247.2 116.1 246.7 116.4 246.3 116.9C245.9 117.4 245.7 118 245.7 118.8C245.7 119.9 246.1 120.7 246.9 121.2C247.7 121.7 248.7 122 249.9 122Z" fill="#77809C"/>
<path d="M279.5 100.9V105.4H265.2V100.9H279.5ZM268.7 94.8999H274.6V118.3C274.6 119.1 274.7 119.7 275 120.1C275.2 120.5 275.6 120.8 276 121C276.4 121.2 276.8 121.2 277.3 121.2C277.7 121.2 278 121.2 278.3 121.1C278.6 121 278.8 121 279 121L280 125.6C279.7 125.7 279.2 125.8 278.7 126C278.1 126.1 277.4 126.2 276.6 126.2C275.1 126.2 273.8 126 272.6 125.5C271.4 125 270.5 124.2 269.8 123.2C269.1 122.2 268.8 120.9 268.8 119.3V94.8999H268.7Z" fill="#77809C"/>
<path d="M286.9 97.3C286 97.3 285.2 97 284.5 96.4C283.8 95.8 283.5 95 283.5 94.1C283.5 93.2 283.8 92.5 284.5 91.9C285.2 91.3 286 91 286.9 91C287.8 91 288.6 91.3 289.3 91.9C290 92.5 290.3 93.3 290.3 94.2C290.3 95.1 290 95.8 289.3 96.4C288.6 97 287.8 97.3 286.9 97.3ZM283.9 125.8V100.9H289.8V125.8H283.9Z" fill="#77809C"/>
<path d="M306.3 126.3C303.9 126.3 301.8 125.8 300 124.7C298.2 123.6 296.8 122.1 295.9 120.2C294.9 118.3 294.4 116 294.4 113.5C294.4 110.9 294.9 108.7 295.9 106.7C296.9 104.8 298.3 103.3 300 102.2C301.8 101.1 303.9 100.6 306.3 100.6C308.7 100.6 310.8 101.1 312.6 102.2C314.4 103.3 315.8 104.8 316.7 106.7C317.7 108.6 318.2 110.9 318.2 113.5C318.2 116.1 317.7 118.3 316.7 120.2C315.7 122.1 314.3 123.6 312.6 124.7C310.8 125.7 308.7 126.3 306.3 126.3ZM306.3 121.6C307.6 121.6 308.7 121.2 309.6 120.5C310.5 119.8 311.1 118.8 311.6 117.6C312 116.4 312.3 115 312.3 113.5C312.3 112 312.1 110.6 311.6 109.4C311.1 108.2 310.5 107.2 309.6 106.4C308.7 105.7 307.6 105.3 306.3 105.3C304.9 105.3 303.8 105.7 302.9 106.4C302 107.1 301.3 108.1 300.9 109.4C300.5 110.7 300.2 112 300.2 113.5C300.2 115 300.4 116.4 300.9 117.6C301.3 118.8 302 119.8 302.9 120.5C303.8 121.2 304.9 121.6 306.3 121.6Z" fill="#77809C"/>
<path d="M328.6 111.2V125.8H322.7V100.9H328.3V105.1H328.6C329.2 103.7 330.1 102.6 331.3 101.8C332.6 101 334.1 100.6 336 100.6C337.7 100.6 339.2 101 340.5 101.7C341.8 102.4 342.8 103.5 343.5 104.9C344.2 106.3 344.6 108 344.5 110V125.9H338.6V110.9C338.6 109.2 338.2 107.9 337.3 107C336.4 106.1 335.3 105.6 333.7 105.6C332.7 105.6 331.8 105.8 331 106.3C330.2 106.7 329.6 107.4 329.1 108.2C328.6 109 328.6 110 328.6 111.2Z" fill="#77809C"/>
<path d="M368.1 126.3C366.5 126.3 365.1 126 363.8 125.4C362.5 124.8 361.5 124 360.8 122.9C360.1 121.8 359.7 120.4 359.7 118.8C359.7 117.4 360 116.2 360.5 115.3C361 114.4 361.7 113.6 362.6 113.1C363.5 112.5 364.5 112.1 365.6 111.8C366.7 111.5 367.9 111.3 369.1 111.2C370.6 111 371.7 110.9 372.7 110.8C373.7 110.7 374.3 110.5 374.7 110.2C375.1 109.9 375.3 109.5 375.3 109V108.9C375.3 107.7 374.9 106.7 374.2 106.1C373.5 105.4 372.4 105.1 371.1 105.1C369.7 105.1 368.5 105.4 367.7 106C366.9 106.6 366.3 107.4 366 108.2L360.5 107.4C360.9 105.9 361.6 104.6 362.6 103.6C363.6 102.6 364.8 101.8 366.2 101.3C367.6 100.8 369.2 100.5 371 100.5C372.2 100.5 373.4 100.6 374.6 100.9C375.8 101.2 376.9 101.6 377.9 102.3C378.9 103 379.7 103.8 380.3 104.9C380.9 106 381.2 107.4 381.2 109V125.7H375.6V122.3H375.4C375 123 374.5 123.6 373.9 124.2C373.3 124.8 372.5 125.3 371.5 125.6C370.6 126.1 369.4 126.3 368.1 126.3ZM369.7 122C370.9 122 371.9 121.8 372.8 121.3C373.7 120.8 374.3 120.2 374.8 119.4C375.3 118.6 375.5 117.8 375.5 116.9V114C375.3 114.2 375 114.3 374.6 114.4C374.2 114.5 373.7 114.6 373.1 114.7C372.6 114.8 372 114.9 371.5 115C371 115.1 370.5 115.1 370.1 115.2C369.2 115.3 368.4 115.5 367.7 115.8C367 116.1 366.5 116.4 366.1 116.9C365.7 117.4 365.5 118 365.5 118.8C365.5 119.9 365.9 120.7 366.7 121.2C367.4 121.7 368.5 122 369.7 122Z" fill="#77809C"/>
<path d="M392.6 111.2V125.8H386.7V100.9H392.3V105.1H392.6C393.2 103.7 394.1 102.6 395.3 101.8C396.6 101 398.1 100.6 400 100.6C401.7 100.6 403.2 101 404.5 101.7C405.8 102.4 406.8 103.5 407.5 104.9C408.2 106.3 408.6 108 408.5 110V125.9H402.6V110.9C402.6 109.2 402.2 107.9 401.3 107C400.4 106.1 399.3 105.6 397.7 105.6C396.7 105.6 395.8 105.8 395 106.3C394.2 106.7 393.6 107.4 393.1 108.2C392.6 109 392.6 110 392.6 111.2Z" fill="#77809C"/>
<path d="M423.4 126.2C421.4 126.2 419.7 125.7 418.1 124.7C416.6 123.7 415.3 122.2 414.4 120.3C413.5 118.4 413.1 116.1 413.1 113.3C413.1 110.5 413.6 108.2 414.5 106.3C415.4 104.4 416.6 102.9 418.2 102C419.8 101 421.5 100.5 423.4 100.5C424.9 100.5 426.1 100.7 427 101.2C427.9 101.7 428.7 102.3 429.2 103C429.8 103.7 430.2 104.3 430.5 104.9H430.7V92.6001H436.6V125.8H430.8V121.9H430.4C430.1 122.5 429.7 123.1 429.1 123.8C428.5 124.5 427.8 125.1 426.8 125.5C426 126 424.8 126.2 423.4 126.2ZM425 121.4C426.2 121.4 427.3 121.1 428.2 120.4C429.1 119.7 429.7 118.8 430.2 117.6C430.7 116.4 430.9 115 430.9 113.4C430.9 111.8 430.7 110.4 430.2 109.2C429.7 108 429.1 107.1 428.2 106.4C427.3 105.7 426.3 105.4 425 105.4C423.7 105.4 422.6 105.7 421.7 106.4C420.8 107.1 420.2 108 419.7 109.2C419.2 110.4 419 111.8 419 113.3C419 114.9 419.2 116.2 419.7 117.5C420.1 118.7 420.8 119.7 421.7 120.4C422.7 121.1 423.8 121.4 425 121.4Z" fill="#77809C"/>
<path d="M471.7 101.7C471.5 100.3 470.9 99.2 469.8 98.4C468.7 97.6 467.2 97.2 465.4 97.2C464.1 97.2 463.1 97.4 462.2 97.8C461.3 98.2 460.6 98.7 460.1 99.3C459.6 99.9 459.4 100.7 459.4 101.5C459.4 102.2 459.6 102.8 459.9 103.3C460.2 103.8 460.7 104.2 461.2 104.6C461.8 105 462.4 105.2 463 105.5C463.7 105.7 464.3 105.9 465 106.1L468.1 106.9C469.4 107.2 470.6 107.6 471.7 108.1C472.8 108.6 473.9 109.2 474.8 110C475.7 110.8 476.5 111.7 477 112.7C477.5 113.8 477.8 115 477.8 116.5C477.8 118.4 477.3 120.2 476.3 121.6C475.3 123.1 473.9 124.2 472 125.1C470.1 125.9 467.9 126.3 465.2 126.3C462.6 126.3 460.4 125.9 458.5 125.1C456.6 124.3 455.1 123.1 454.1 121.6C453 120.1 452.5 118.2 452.4 116H458.3C458.4 117.2 458.7 118.1 459.4 118.9C460 119.7 460.8 120.2 461.9 120.6C463 121 464 121.2 465.3 121.2C466.6 121.2 467.8 121 468.7 120.6C469.7 120.2 470.5 119.7 471 118.9C471.6 118.2 471.8 117.4 471.9 116.4C471.9 115.5 471.6 114.8 471.1 114.3C470.6 113.8 469.9 113.3 469 112.9C468.1 112.5 467.1 112.2 465.9 111.9L462.1 110.9C459.4 110.2 457.2 109.1 455.6 107.7C454 106.3 453.2 104.4 453.2 102C453.2 100 453.7 98.3 454.8 96.9C455.9 95.4 457.3 94.3 459.2 93.5C461 92.7 463.1 92.3 465.4 92.3C467.8 92.3 469.8 92.7 471.6 93.5C473.4 94.3 474.8 95.4 475.8 96.9C476.8 98.3 477.3 100 477.4 101.9H471.7V101.7Z" fill="#77809C"/>
<path d="M495 100.9V105.4H480.7V100.9H495ZM484.2 94.8999H490.1V118.3C490.1 119.1 490.2 119.7 490.5 120.1C490.7 120.5 491.1 120.8 491.5 121C491.9 121.2 492.3 121.2 492.8 121.2C493.2 121.2 493.5 121.2 493.8 121.1C494.1 121 494.3 121 494.5 121L495.5 125.6C495.2 125.7 494.7 125.8 494.2 126C493.6 126.1 492.9 126.2 492.1 126.2C490.6 126.2 489.3 126 488.1 125.5C486.9 125 486 124.2 485.3 123.2C484.6 122.2 484.3 120.9 484.3 119.3V94.8999H484.2Z" fill="#77809C"/>
<path d="M510.3 126.3C507.9 126.3 505.8 125.8 504 124.7C502.2 123.6 500.8 122.1 499.9 120.2C498.9 118.3 498.4 116 498.4 113.5C498.4 110.9 498.9 108.7 499.9 106.7C500.9 104.8 502.3 103.3 504 102.2C505.8 101.1 507.9 100.6 510.3 100.6C512.7 100.6 514.8 101.1 516.6 102.2C518.4 103.3 519.8 104.8 520.7 106.7C521.7 108.6 522.2 110.9 522.2 113.5C522.2 116.1 521.7 118.3 520.7 120.2C519.7 122.1 518.3 123.6 516.6 124.7C514.9 125.7 512.8 126.3 510.3 126.3ZM510.4 121.6C511.7 121.6 512.8 121.2 513.7 120.5C514.6 119.8 515.2 118.8 515.7 117.6C516.1 116.4 516.4 115 516.4 113.5C516.4 112 516.2 110.6 515.7 109.4C515.2 108.2 514.6 107.2 513.7 106.4C512.8 105.7 511.7 105.3 510.4 105.3C509 105.3 507.9 105.7 507 106.4C506.1 107.1 505.4 108.1 505 109.4C504.6 110.7 504.3 112 504.3 113.5C504.3 115 504.5 116.4 505 117.6C505.4 118.8 506.1 119.8 507 120.5C507.9 121.2 509 121.6 510.4 121.6Z" fill="#77809C"/>
<path d="M526.8 125.8V100.9H532.5V105.1H532.8C533.3 103.7 534 102.6 535.1 101.8C536.2 101 537.5 100.6 538.9 100.6C539.2 100.6 539.6 100.6 540 100.6C540.4 100.6 540.7 100.7 541 100.7V106.1C540.8 106 540.4 105.9 539.8 105.9C539.2 105.9 538.7 105.8 538.3 105.8C537.2 105.8 536.3 106 535.4 106.5C534.5 107 533.9 107.6 533.4 108.4C532.9 109.2 532.7 110.1 532.7 111.2V125.8H526.8Z" fill="#77809C"/>
<path d="M551.6 126.3C550 126.3 548.6 126 547.3 125.4C546 124.8 545 124 544.3 122.9C543.6 121.8 543.2 120.4 543.2 118.8C543.2 117.4 543.5 116.2 544 115.3C544.5 114.4 545.2 113.6 546.1 113.1C547 112.5 548 112.1 549.1 111.8C550.2 111.5 551.4 111.3 552.6 111.2C554.1 111 555.2 110.9 556.2 110.8C557.2 110.7 557.8 110.5 558.2 110.2C558.6 109.9 558.8 109.5 558.8 109V108.9C558.8 107.7 558.4 106.7 557.7 106.1C557 105.4 555.9 105.1 554.6 105.1C553.2 105.1 552 105.4 551.2 106C550.4 106.6 549.8 107.4 549.5 108.2L544 107.4C544.4 105.9 545.1 104.6 546.1 103.6C547.1 102.6 548.3 101.8 549.7 101.3C551.1 100.8 552.7 100.5 554.5 100.5C555.7 100.5 556.9 100.6 558.1 100.9C559.3 101.2 560.4 101.6 561.4 102.3C562.4 103 563.2 103.8 563.8 104.9C564.4 106 564.7 107.4 564.7 109V125.7H559.1V122.3H558.9C558.5 123 558 123.6 557.4 124.2C556.8 124.8 556 125.3 555 125.6C554.1 126.1 552.9 126.3 551.6 126.3ZM553.1 122C554.3 122 555.3 121.8 556.2 121.3C557.1 120.8 557.7 120.2 558.2 119.4C558.7 118.6 558.9 117.8 558.9 116.9V114C558.7 114.2 558.4 114.3 558 114.4C557.6 114.5 557.1 114.6 556.5 114.7C556 114.8 555.4 114.9 554.9 115C554.4 115.1 553.9 115.1 553.5 115.2C552.6 115.3 551.8 115.5 551.1 115.8C550.4 116.1 549.9 116.4 549.5 116.9C549.1 117.4 548.9 118 548.9 118.8C548.9 119.9 549.3 120.7 550.1 121.2C550.9 121.7 551.9 122 553.1 122Z" fill="#77809C"/>
<path d="M581.1 135.6C579 135.6 577.2 135.3 575.7 134.7C574.2 134.1 573 133.4 572.1 132.4C571.2 131.4 570.5 130.4 570.2 129.2L575.5 127.9C575.7 128.4 576.1 128.9 576.5 129.4C577 129.9 577.6 130.3 578.3 130.6C579.1 130.9 580 131.1 581.2 131.1C582.9 131.1 584.2 130.7 585.3 129.9C586.4 129.1 586.9 127.8 586.9 125.9V121.2H586.6C586.3 121.8 585.9 122.4 585.3 123.1C584.7 123.7 584 124.3 583 124.7C582.1 125.1 580.9 125.3 579.4 125.3C577.5 125.3 575.8 124.8 574.2 123.9C572.6 123 571.4 121.6 570.5 119.8C569.6 118 569.1 115.7 569.1 113C569.1 110.3 569.6 108 570.5 106.1C571.4 104.2 572.6 102.8 574.2 101.8C575.8 100.8 577.5 100.3 579.4 100.3C580.9 100.3 582.1 100.5 583 101C583.9 101.5 584.7 102.1 585.3 102.8C585.9 103.5 586.3 104.1 586.6 104.7H586.9V100.6H592.7V125.9C592.7 128 592.2 129.8 591.2 131.2C590.2 132.6 588.8 133.6 587 134.3C585.2 135 583.3 135.6 581.1 135.6ZM581.1 120.8C582.3 120.8 583.4 120.5 584.3 119.9C585.2 119.3 585.8 118.4 586.3 117.3C586.8 116.2 587 114.8 587 113.2C587 111.6 586.8 110.3 586.3 109.1C585.9 107.9 585.2 107 584.3 106.4C583.4 105.8 582.4 105.4 581.1 105.4C579.8 105.4 578.7 105.7 577.8 106.4C576.9 107.1 576.3 108 575.8 109.2C575.4 110.4 575.1 111.7 575.1 113.2C575.1 114.7 575.3 116.1 575.8 117.2C576.2 118.3 576.9 119.2 577.8 119.9C578.8 120.5 579.8 120.8 581.1 120.8Z" fill="#77809C"/>
<path d="M609.4 126.3C606.9 126.3 604.7 125.8 602.9 124.7C601.1 123.7 599.7 122.2 598.7 120.3C597.7 118.4 597.2 116.1 597.2 113.5C597.2 110.9 597.7 108.7 598.7 106.7C599.7 104.8 601 103.2 602.8 102.2C604.6 101.2 606.6 100.6 609 100.6C610.5 100.6 612 100.8 613.4 101.3C614.8 101.8 616 102.6 617 103.6C618.1 104.6 618.9 105.9 619.5 107.5C620.1 109.1 620.4 111 620.4 113.2V115H600V111H614.8C614.8 109.9 614.5 108.9 614.1 108C613.6 107.1 613 106.4 612.1 105.9C611.3 105.4 610.3 105.1 609.1 105.1C607.9 105.1 606.8 105.4 605.9 106C605 106.6 604.3 107.3 603.8 108.3C603.3 109.3 603 110.3 603 111.4V114.9C603 116.3 603.3 117.6 603.8 118.6C604.3 119.6 605.1 120.4 606 121C607 121.5 608.1 121.8 609.3 121.8C610.2 121.8 610.9 121.7 611.6 121.4C612.3 121.2 612.9 120.8 613.4 120.3C613.9 119.8 614.3 119.2 614.6 118.5L620.1 119.1C619.8 120.5 619.1 121.8 618.1 122.9C617.1 124 615.9 124.8 614.4 125.4C613 126 611.3 126.3 609.4 126.3Z" fill="#77809C"/>
<path d="M635.9 135.1V100.8H641.7V104.9H642C642.3 104.3 642.7 103.6 643.3 103C643.9 102.3 644.6 101.7 645.5 101.2C646.4 100.7 647.6 100.5 649.1 100.5C651 100.5 652.8 101 654.3 102C655.8 103 657.1 104.4 658 106.3C658.9 108.2 659.4 110.5 659.4 113.3C659.4 116 659 118.4 658.1 120.3C657.2 122.2 656 123.7 654.4 124.7C652.8 125.7 651.1 126.2 649.1 126.2C647.7 126.2 646.5 126 645.5 125.5C644.6 125 643.8 124.4 643.2 123.8C642.6 123.1 642.2 122.5 641.9 121.9H641.7V135.2H635.9V135.1ZM641.6 113.3C641.6 114.9 641.8 116.3 642.3 117.5C642.8 118.7 643.4 119.7 644.3 120.3C645.2 120.9 646.2 121.3 647.5 121.3C648.8 121.3 649.9 121 650.8 120.3C651.7 119.6 652.3 118.6 652.8 117.4C653.2 116.2 653.5 114.8 653.5 113.2C653.5 111.7 653.3 110.3 652.8 109.1C652.4 107.9 651.7 107 650.8 106.3C649.9 105.6 648.8 105.3 647.5 105.3C646.2 105.3 645.2 105.6 644.3 106.3C643.4 107 642.8 107.9 642.3 109.1C641.8 110.3 641.6 111.7 641.6 113.3Z" fill="#77809C"/>
<path d="M663.9 125.8V100.9H669.6V105.1H669.9C670.4 103.7 671.1 102.6 672.2 101.8C673.3 101 674.6 100.6 676 100.6C676.3 100.6 676.7 100.6 677.1 100.6C677.5 100.6 677.8 100.7 678.1 100.7V106.1C677.9 106 677.5 105.9 676.9 105.9C676.3 105.9 675.8 105.8 675.4 105.8C674.3 105.8 673.4 106 672.5 106.5C671.6 107 671 107.6 670.5 108.4C670 109.2 669.8 110.1 669.8 111.2V125.8H663.9Z" fill="#77809C"/>
<path d="M692.5 126.3C690.1 126.3 688 125.8 686.2 124.7C684.4 123.6 683 122.1 682.1 120.2C681.1 118.3 680.6 116 680.6 113.5C680.6 110.9 681.1 108.7 682.1 106.7C683.1 104.8 684.5 103.3 686.2 102.2C688 101.1 690.1 100.6 692.5 100.6C694.9 100.6 697 101.1 698.8 102.2C700.6 103.3 702 104.8 702.9 106.7C703.9 108.6 704.4 110.9 704.4 113.5C704.4 116.1 703.9 118.3 702.9 120.2C701.9 122.1 700.5 123.6 698.8 124.7C697 125.7 694.9 126.3 692.5 126.3ZM692.5 121.6C693.8 121.6 694.9 121.2 695.8 120.5C696.7 119.8 697.3 118.8 697.8 117.6C698.2 116.4 698.5 115 698.5 113.5C698.5 112 698.3 110.6 697.8 109.4C697.3 108.2 696.7 107.2 695.8 106.4C694.9 105.7 693.8 105.3 692.5 105.3C691.1 105.3 690 105.7 689.1 106.4C688.2 107.1 687.5 108.1 687.1 109.4C686.7 110.7 686.4 112 686.4 113.5C686.4 115 686.6 116.4 687.1 117.6C687.5 118.8 688.2 119.8 689.1 120.5C690 121.2 691.1 121.6 692.5 121.6Z" fill="#77809C"/>
<path d="M708.9 100.9H714.8V127.2C714.8 129 714.5 130.5 713.8 131.6C713.1 132.8 712.1 133.6 710.8 134.2C709.5 134.8 708 135.1 706.1 135.1C705.9 135.1 705.7 135.1 705.5 135.1C705.3 135.1 705.1 135.1 704.9 135.1V130.3C705.1 130.3 705.2 130.3 705.3 130.3C705.4 130.3 705.6 130.3 705.7 130.3C706.8 130.3 707.6 130 708.1 129.5C708.6 129 708.8 128.2 708.8 127.1V100.9H708.9ZM711.8 97.3C710.9 97.3 710.1 97 709.4 96.4C708.7 95.8 708.4 95 708.4 94.2C708.4 93.3 708.7 92.6 709.4 91.9C710.1 91.2 710.9 91 711.8 91C712.7 91 713.5 91.3 714.2 91.9C714.9 92.5 715.2 93.3 715.2 94.2C715.2 95.1 714.9 95.8 714.2 96.4C713.6 97 712.8 97.3 711.8 97.3Z" fill="#77809C"/>
<path d="M731.4 126.3C728.9 126.3 726.7 125.8 724.9 124.7C723.1 123.7 721.7 122.2 720.7 120.3C719.7 118.4 719.2 116.1 719.2 113.5C719.2 110.9 719.7 108.7 720.7 106.7C721.7 104.8 723 103.2 724.8 102.2C726.6 101.2 728.6 100.6 731 100.6C732.5 100.6 734 100.8 735.4 101.3C736.8 101.8 738 102.6 739 103.6C740.1 104.6 740.9 105.9 741.5 107.5C742.1 109.1 742.4 111 742.4 113.2V115H722V111H736.8C736.8 109.9 736.5 108.9 736.1 108C735.6 107.1 735 106.4 734.1 105.9C733.3 105.4 732.3 105.1 731.1 105.1C729.9 105.1 728.8 105.4 727.9 106C727 106.6 726.3 107.3 725.8 108.3C725.3 109.3 725 110.3 725 111.4V114.9C725 116.3 725.3 117.6 725.8 118.6C726.3 119.6 727.1 120.4 728 121C729 121.5 730.1 121.8 731.3 121.8C732.2 121.8 732.9 121.7 733.6 121.4C734.3 121.2 734.9 120.8 735.4 120.3C735.9 119.8 736.3 119.2 736.6 118.5L742.1 119.1C741.8 120.5 741.1 121.8 740.1 122.9C739.1 124 737.9 124.8 736.4 125.4C735 126 733.3 126.3 731.4 126.3Z" fill="#77809C"/>
<path d="M757.8 126.3C755.3 126.3 753.2 125.8 751.4 124.7C749.6 123.6 748.3 122.1 747.3 120.2C746.3 118.3 745.9 116 745.9 113.5C745.9 111 746.4 108.7 747.4 106.8C748.4 104.9 749.7 103.3 751.5 102.3C753.3 101.3 755.4 100.7 757.8 100.7C759.8 100.7 761.6 101.1 763.2 101.8C764.8 102.5 766 103.6 766.9 104.9C767.8 106.2 768.4 107.8 768.5 109.6H762.9C762.7 108.4 762.1 107.4 761.3 106.6C760.5 105.8 759.3 105.4 757.9 105.4C756.7 105.4 755.6 105.7 754.7 106.4C753.8 107 753.1 108 752.6 109.2C752.1 110.4 751.8 111.8 751.8 113.5C751.8 115.2 752 116.7 752.5 117.9C753 119.1 753.7 120.1 754.6 120.7C755.5 121.3 756.6 121.7 757.8 121.7C758.7 121.7 759.4 121.5 760.1 121.2C760.8 120.9 761.4 120.4 761.8 119.8C762.3 119.2 762.6 118.4 762.8 117.5H768.4C768.3 119.3 767.7 120.8 766.8 122.2C765.9 123.6 764.7 124.6 763.1 125.4C761.7 125.9 759.9 126.3 757.8 126.3Z" fill="#77809C"/>
<path d="M785.3 100.9V105.4H771V100.9H785.3ZM774.5 94.8999H780.4V118.3C780.4 119.1 780.5 119.7 780.8 120.1C781 120.5 781.4 120.8 781.8 121C782.2 121.2 782.6 121.2 783.1 121.2C783.5 121.2 783.8 121.2 784.1 121.1C784.4 121 784.6 121 784.8 121L785.8 125.6C785.5 125.7 785 125.8 784.5 126C783.9 126.1 783.2 126.2 782.4 126.2C780.9 126.2 779.6 126 778.4 125.5C777.2 125 776.3 124.2 775.6 123.2C774.9 122.2 774.6 120.9 774.6 119.3V94.8999H774.5Z" fill="#77809C"/>
<path d="M809.5 107.5L804.1 108.1C803.9 107.6 803.7 107.1 803.3 106.6C802.9 106.1 802.4 105.7 801.8 105.4C801.2 105.1 800.4 105 799.5 105C798.3 105 797.3 105.3 796.4 105.8C795.6 106.3 795.2 107 795.2 107.9C795.2 108.6 795.5 109.2 796 109.7C796.5 110.2 797.5 110.5 798.7 110.8L802.9 111.7C805.3 112.2 807 113 808.2 114.1C809.4 115.2 809.9 116.6 809.9 118.4C809.9 120 809.4 121.4 808.5 122.5C807.6 123.7 806.3 124.6 804.7 125.3C803.1 126 801.3 126.3 799.2 126.3C796.2 126.3 793.7 125.7 791.8 124.4C789.9 123.1 788.8 121.3 788.5 119L794.2 118.4C794.5 119.5 795 120.4 795.9 120.9C796.8 121.4 797.8 121.8 799.2 121.8C800.6 121.8 801.7 121.5 802.6 120.9C803.4 120.3 803.9 119.6 803.9 118.8C803.9 118.1 803.6 117.5 803.1 117C802.6 116.5 801.7 116.2 800.6 115.9L796.3 115C793.9 114.5 792.1 113.7 791 112.5C789.9 111.3 789.3 109.8 789.3 108C789.3 106.5 789.7 105.1 790.6 104C791.5 102.9 792.6 102 794.2 101.4C795.7 100.8 797.5 100.5 799.5 100.5C802.4 100.5 804.7 101.1 806.4 102.4C808 103.7 809.1 105.3 809.5 107.5Z" fill="#77809C"/>
<path d="M830.4 125.8L823.4 100.9H829.4L833.8 118.4H834L838.5 100.9H844.4L848.9 118.3H849.1L853.4 100.9H859.4L852.3 125.8H846.2L841.5 109H841.2L836.5 125.8H830.4Z" fill="#77809C"/>
<path d="M874.1 126.3C871.6 126.3 869.4 125.8 867.6 124.7C865.8 123.7 864.4 122.2 863.4 120.3C862.4 118.4 861.9 116.1 861.9 113.5C861.9 110.9 862.4 108.7 863.4 106.7C864.4 104.8 865.7 103.2 867.5 102.2C869.3 101.2 871.3 100.6 873.7 100.6C875.2 100.6 876.7 100.8 878.1 101.3C879.5 101.8 880.7 102.6 881.7 103.6C882.8 104.6 883.6 105.9 884.2 107.5C884.8 109.1 885.1 111 885.1 113.2V115H864.7V111H879.5C879.5 109.9 879.2 108.9 878.8 108C878.3 107.1 877.7 106.4 876.8 105.9C876 105.4 875 105.1 873.8 105.1C872.6 105.1 871.5 105.4 870.6 106C869.7 106.6 869 107.3 868.5 108.3C868 109.3 867.7 110.3 867.7 111.4V114.9C867.7 116.3 868 117.6 868.5 118.6C869 119.6 869.8 120.4 870.7 121C871.7 121.5 872.8 121.8 874 121.8C874.9 121.8 875.6 121.7 876.3 121.4C877 121.2 877.6 120.8 878.1 120.3C878.6 119.8 879 119.2 879.3 118.5L884.8 119.1C884.5 120.5 883.8 121.8 882.8 122.9C881.8 124 880.6 124.8 879.1 125.4C877.8 126 876.1 126.3 874.1 126.3Z" fill="#77809C"/>
<path d="M889.7 125.8V100.9H895.4V105.1H895.7C896.2 103.7 896.9 102.6 898 101.8C899.1 101 900.4 100.6 901.8 100.6C902.1 100.6 902.5 100.6 902.9 100.6C903.3 100.6 903.6 100.7 903.9 100.7V106.1C903.7 106 903.3 105.9 902.7 105.9C902.1 105.9 901.6 105.8 901.2 105.8C900.1 105.8 899.2 106 898.3 106.5C897.4 107 896.8 107.6 896.3 108.4C895.8 109.2 895.6 110.1 895.6 111.2V125.8H889.7Z" fill="#77809C"/>
<path d="M918.4 126.3C915.9 126.3 913.7 125.8 911.9 124.7C910.1 123.7 908.7 122.2 907.7 120.3C906.7 118.4 906.2 116.1 906.2 113.5C906.2 110.9 906.7 108.7 907.7 106.7C908.7 104.8 910 103.2 911.8 102.2C913.6 101.2 915.6 100.6 918 100.6C919.5 100.6 921 100.8 922.4 101.3C923.8 101.8 925 102.6 926 103.6C927.1 104.6 927.9 105.9 928.5 107.5C929.1 109.1 929.4 111 929.4 113.2V115H909V111H923.8C923.8 109.9 923.5 108.9 923.1 108C922.6 107.1 922 106.4 921.1 105.9C920.3 105.4 919.3 105.1 918.1 105.1C916.9 105.1 915.8 105.4 914.9 106C914 106.6 913.3 107.3 912.8 108.3C912.3 109.3 912 110.3 912 111.4V114.9C912 116.3 912.3 117.6 912.8 118.6C913.3 119.6 914.1 120.4 915 121C916 121.5 917.1 121.8 918.3 121.8C919.2 121.8 919.9 121.7 920.6 121.4C921.3 121.2 921.9 120.8 922.4 120.3C922.9 119.8 923.3 119.2 923.6 118.5L929.1 119.1C928.8 120.5 928.1 121.8 927.1 122.9C926.1 124 924.9 124.8 923.4 125.4C922 126 920.3 126.3 918.4 126.3Z" fill="#77809C"/>
<path d="M967.1 100.9L958.2 125.8H951.7L942.8 100.9H949.1L954.8 119.4H955.1L960.8 100.9H967.1Z" fill="#77809C"/>
<path d="M977.9 126.3C976.3 126.3 974.9 126 973.6 125.4C972.3 124.8 971.3 124 970.6 122.9C969.9 121.8 969.5 120.4 969.5 118.8C969.5 117.4 969.8 116.2 970.3 115.3C970.8 114.4 971.5 113.6 972.4 113.1C973.3 112.5 974.3 112.1 975.4 111.8C976.5 111.5 977.7 111.3 978.9 111.2C980.4 111 981.5 110.9 982.5 110.8C983.4 110.7 984.1 110.5 984.5 110.2C984.9 109.9 985.1 109.5 985.1 109V108.9C985.1 107.7 984.7 106.7 984 106.1C983.3 105.4 982.2 105.1 980.9 105.1C979.5 105.1 978.3 105.4 977.5 106C976.7 106.6 976.1 107.4 975.8 108.2L970.3 107.4C970.7 105.9 971.4 104.6 972.4 103.6C973.4 102.6 974.6 101.8 976 101.3C977.4 100.8 979 100.5 980.8 100.5C982 100.5 983.2 100.6 984.4 100.9C985.6 101.2 986.7 101.6 987.7 102.3C988.7 102.9 989.5 103.8 990.1 104.9C990.7 106 991 107.4 991 109V125.7H985.4V122.3H985.2C984.8 123 984.3 123.6 983.7 124.2C983.1 124.8 982.3 125.3 981.3 125.6C980.3 126.1 979.2 126.3 977.9 126.3ZM979.4 122C980.6 122 981.6 121.8 982.5 121.3C983.4 120.8 984 120.2 984.5 119.4C985 118.6 985.2 117.8 985.2 116.9V114C985 114.2 984.7 114.3 984.3 114.4C983.9 114.5 983.4 114.6 982.8 114.7C982.3 114.8 981.7 114.9 981.2 115C980.7 115.1 980.2 115.1 979.8 115.2C978.9 115.3 978.1 115.5 977.4 115.8C976.7 116.1 976.2 116.4 975.8 116.9C975.4 117.4 975.2 118 975.2 118.8C975.2 119.9 975.6 120.7 976.4 121.2C977.2 121.7 978.2 122 979.4 122Z" fill="#77809C"/>
<path d="M1002.4 92.6001V125.8H996.5V92.6001H1002.4Z" fill="#77809C"/>
<path d="M1023.8 115.3V100.9H1029.7V125.8H1024V121.4H1023.7C1023.1 122.8 1022.2 123.9 1020.9 124.8C1019.6 125.7 1018 126.1 1016.2 126.1C1014.6 126.1 1013.1 125.7 1011.9 125C1010.7 124.3 1009.7 123.2 1009 121.8C1008.3 120.4 1007.9 118.7 1007.9 116.7V100.8H1013.8V115.8C1013.8 117.4 1014.2 118.6 1015.1 119.6C1016 120.5 1017.1 121 1018.5 121C1019.4 121 1020.2 120.8 1021 120.4C1021.8 120 1022.5 119.3 1023 118.5C1023.6 117.6 1023.8 116.6 1023.8 115.3Z" fill="#77809C"/>
<path d="M1046.3 126.3C1043.8 126.3 1041.6 125.8 1039.8 124.7C1038 123.7 1036.6 122.2 1035.6 120.3C1034.6 118.4 1034.1 116.1 1034.1 113.5C1034.1 110.9 1034.6 108.7 1035.6 106.7C1036.6 104.8 1037.9 103.2 1039.7 102.2C1041.5 101.2 1043.5 100.6 1045.9 100.6C1047.4 100.6 1048.9 100.8 1050.3 101.3C1051.7 101.8 1052.9 102.6 1053.9 103.6C1055 104.6 1055.8 105.9 1056.4 107.5C1057 109.1 1057.3 111 1057.3 113.2V115H1037V111H1051.8C1051.8 109.9 1051.5 108.9 1051.1 108C1050.6 107.1 1050 106.4 1049.1 105.9C1048.3 105.4 1047.3 105.1 1046.1 105.1C1044.9 105.1 1043.8 105.4 1042.9 106C1042 106.6 1041.3 107.3 1040.8 108.3C1040.3 109.3 1040 110.3 1040 111.4V114.9C1040 116.3 1040.3 117.6 1040.8 118.6C1041.3 119.6 1042.1 120.4 1043 121C1044 121.5 1045.1 121.8 1046.3 121.8C1047.2 121.8 1047.9 121.7 1048.6 121.4C1049.3 121.2 1049.9 120.8 1050.4 120.3C1050.9 119.8 1051.3 119.2 1051.6 118.5L1057.1 119.1C1056.8 120.5 1056.1 121.8 1055.1 122.9C1054.1 124 1052.9 124.8 1051.4 125.4C1049.9 126 1048.3 126.3 1046.3 126.3Z" fill="#77809C"/>
<path d="M1071.1 126.2C1069.1 126.2 1067.4 125.7 1065.8 124.7C1064.3 123.7 1063 122.2 1062.1 120.3C1061.2 118.4 1060.8 116.1 1060.8 113.3C1060.8 110.5 1061.3 108.2 1062.2 106.3C1063.1 104.4 1064.3 102.9 1065.9 102C1067.5 101 1069.2 100.5 1071.1 100.5C1072.6 100.5 1073.8 100.7 1074.7 101.2C1075.6 101.7 1076.4 102.3 1076.9 103C1077.5 103.7 1077.9 104.3 1078.2 104.9H1078.4V92.6001H1084.3V125.8H1078.5V121.9H1078.1C1077.8 122.5 1077.4 123.1 1076.8 123.8C1076.2 124.5 1075.5 125.1 1074.5 125.5C1073.8 126 1072.6 126.2 1071.1 126.2ZM1072.8 121.4C1074 121.4 1075.1 121.1 1076 120.4C1076.9 119.7 1077.5 118.8 1078 117.6C1078.5 116.4 1078.7 115 1078.7 113.4C1078.7 111.8 1078.5 110.4 1078 109.2C1077.6 108 1076.9 107.1 1076 106.4C1075.1 105.7 1074.1 105.4 1072.8 105.4C1071.5 105.4 1070.4 105.7 1069.5 106.4C1068.6 107.1 1068 108 1067.5 109.2C1067.1 110.4 1066.8 111.8 1066.8 113.3C1066.8 114.9 1067 116.2 1067.5 117.5C1067.9 118.7 1068.6 119.7 1069.5 120.4C1070.4 121.1 1071.5 121.4 1072.8 121.4Z" fill="#77809C"/>
<path d="M66.0999 181.1C64.4999 181.1 63.0999 180.8 61.7999 180.2C60.4999 179.6 59.4999 178.8 58.7999 177.7C58.0999 176.6 57.7 175.2 57.7 173.6C57.7 172.2 58 171 58.5 170.1C59 169.2 59.6999 168.4 60.5999 167.9C61.4999 167.3 62.4999 166.9 63.5999 166.6C64.6999 166.3 65.8999 166.1 67.0999 166C68.5999 165.8 69.6999 165.7 70.6999 165.6C71.6999 165.5 72.2999 165.3 72.6999 165C73.0999 164.7 73.3 164.3 73.3 163.8V163.7C73.3 162.5 72.8999 161.5 72.1999 160.9C71.4999 160.2 70.3999 159.9 69.0999 159.9C67.6999 159.9 66.4999 160.2 65.6999 160.8C64.8999 161.4 64.3 162.2 64 163L58.5 162.2C58.9 160.7 59.5999 159.4 60.5999 158.4C61.5999 157.4 62.7999 156.6 64.1999 156.1C65.5999 155.6 67.2 155.3 69 155.3C70.2 155.3 71.3999 155.4 72.5999 155.7C73.7999 156 74.9 156.4 75.9 157.1C76.9 157.8 77.7 158.6 78.3 159.7C78.9 160.8 79.1999 162.2 79.1999 163.8V180.5H73.5999V177.1H73.4C73 177.8 72.5 178.4 71.9 179C71.3 179.6 70.5 180.1 69.5 180.4C68.5 180.9 67.3999 181.1 66.0999 181.1ZM67.5999 176.8C68.7999 176.8 69.7999 176.6 70.6999 176.1C71.5999 175.6 72.1999 175 72.6999 174.2C73.1999 173.4 73.4 172.6 73.4 171.7V168.8C73.2 169 72.9 169.1 72.5 169.2C72.1 169.3 71.6 169.4 71 169.5C70.5 169.6 69.9 169.7 69.4 169.8C68.9 169.9 68.4 169.9 68 170C67.1 170.1 66.2999 170.3 65.5999 170.6C64.8999 170.9 64.4 171.2 64 171.7C63.6 172.2 63.4 172.8 63.4 173.6C63.4 174.7 63.7999 175.5 64.5999 176C65.3999 176.5 66.3999 176.8 67.5999 176.8Z" fill="#77809C"/>
<path d="M97.1 155.7V160.2H82.8V155.7H97.1ZM86.4 149.7H92.3V173.1C92.3 173.9 92.4 174.5 92.7 174.9C92.9 175.3 93.3 175.6 93.7 175.8C94.1 176 94.5 176 95 176C95.4 176 95.7 176 96 175.9C96.3 175.8 96.5 175.8 96.7 175.8L97.7 180.4C97.4 180.5 96.9 180.6 96.4 180.8C95.8 180.9 95.1 181 94.3 181C92.8 181 91.5 180.8 90.3 180.3C89.1 179.8 88.2 179 87.5 178C86.8 177 86.5 175.7 86.5 174.1V149.7H86.4Z" fill="#77809C"/>
<path d="M130.8 156.5C130.6 155.1 130 154 128.9 153.2C127.8 152.4 126.3 152 124.5 152C123.2 152 122.2 152.2 121.3 152.6C120.4 153 119.7 153.5 119.2 154.1C118.7 154.7 118.5 155.5 118.5 156.3C118.5 157 118.7 157.6 119 158.1C119.3 158.6 119.8 159 120.3 159.4C120.9 159.8 121.5 160 122.1 160.3C122.8 160.5 123.4 160.7 124.1 160.9L127.2 161.7C128.5 162 129.7 162.4 130.8 162.9C131.9 163.4 133 164 133.9 164.8C134.8 165.6 135.6 166.5 136.1 167.5C136.6 168.6 136.9 169.8 136.9 171.3C136.9 173.2 136.4 175 135.4 176.4C134.4 177.9 133 179 131.1 179.9C129.2 180.7 127 181.1 124.3 181.1C121.7 181.1 119.5 180.7 117.6 179.9C115.7 179.1 114.2 177.9 113.2 176.4C112.1 174.9 111.6 173 111.5 170.8H117.4C117.5 172 117.8 172.9 118.5 173.7C119.1 174.5 119.9 175 121 175.4C122.1 175.8 123.1 176 124.4 176C125.7 176 126.9 175.8 127.8 175.4C128.8 175 129.6 174.5 130.1 173.7C130.7 173 130.9 172.2 131 171.2C131 170.3 130.7 169.6 130.2 169.1C129.7 168.6 129 168.1 128.1 167.7C127.2 167.3 126.2 167 125 166.7L121.2 165.7C118.5 165 116.3 163.9 114.7 162.5C113.1 161.1 112.3 159.2 112.3 156.8C112.3 154.8 112.8 153.1 113.9 151.7C115 150.2 116.4 149.1 118.3 148.3C120.1 147.5 122.2 147.1 124.5 147.1C126.9 147.1 128.9 147.5 130.7 148.3C132.5 149.1 133.9 150.2 134.9 151.7C135.9 153.1 136.4 154.8 136.5 156.7H130.8V156.5ZM123.1 184.8V143.3H125.8V184.8H123.1Z" fill="#242438"/>
<path d="M153.8 181.1C152.2 181.1 150.7 180.8 149.1 180.3C147.6 179.8 146.2 178.9 145 177.6C143.8 176.4 142.8 174.7 142.1 172.7C141.4 170.6 141 168.1 141 165C141 162.2 141.3 159.6 141.9 157.4C142.5 155.2 143.4 153.3 144.5 151.7C145.6 150.2 147 149 148.6 148.2C150.2 147.4 152 147 154 147C156.1 147 157.9 147.4 159.6 148.2C161.2 149 162.5 150.1 163.5 151.6C164.5 153 165.1 154.6 165.3 156.4H159.4C159.1 155.1 158.5 154.1 157.5 153.3C156.5 152.5 155.4 152.2 154 152.2C151.7 152.2 149.9 153.2 148.7 155.2C147.5 157.2 146.8 159.9 146.8 163.4H147C147.5 162.4 148.2 161.6 149.1 161C149.9 160.3 150.9 159.8 152 159.4C153.1 159 154.2 158.8 155.4 158.8C157.3 158.8 159.1 159.3 160.6 160.2C162.2 161.1 163.4 162.4 164.3 164C165.2 165.6 165.7 167.5 165.6 169.6C165.6 171.8 165.1 173.7 164.1 175.5C163.1 177.2 161.7 178.6 159.9 179.6C158.3 180.6 156.2 181.1 153.8 181.1ZM153.7 176.2C154.9 176.2 155.9 175.9 156.9 175.3C157.8 174.7 158.6 174 159.1 173C159.6 172 159.9 170.9 159.9 169.7C159.9 168.5 159.7 167.4 159.1 166.5C158.6 165.5 157.9 164.8 156.9 164.2C155.9 163.6 154.9 163.4 153.8 163.4C152.9 163.4 152.1 163.6 151.4 163.9C150.6 164.2 150 164.7 149.4 165.3C148.8 165.9 148.4 166.6 148.1 167.3C147.8 168.1 147.6 168.9 147.6 169.8C147.6 171 147.9 172 148.4 173C148.9 174 149.7 174.8 150.6 175.3C151.5 175.9 152.6 176.2 153.7 176.2Z" fill="#242438"/>
<path d="M182.3 146.9C183.9 146.9 185.4 147.2 186.9 147.7C188.4 148.2 189.8 149.1 191 150.4C192.2 151.6 193.2 153.3 193.9 155.3C194.6 157.4 195 159.9 195 162.9C195 165.8 194.7 168.3 194.1 170.5C193.5 172.7 192.6 174.6 191.5 176.2C190.4 177.7 189 178.9 187.4 179.7C185.8 180.5 184 180.9 182 180.9C179.9 180.9 178 180.5 176.4 179.7C174.8 178.9 173.5 177.8 172.5 176.3C171.5 174.9 170.9 173.2 170.7 171.4H176.6C176.9 172.7 177.5 173.8 178.5 174.5C179.4 175.3 180.6 175.7 182 175.7C184.3 175.7 186.1 174.7 187.3 172.7C188.5 170.7 189.2 167.9 189.2 164.4H189C188.5 165.4 187.8 166.2 186.9 166.9C186.1 167.6 185.1 168.1 184 168.5C182.9 168.9 181.8 169.1 180.6 169.1C178.7 169.1 176.9 168.6 175.4 167.7C173.8 166.8 172.6 165.5 171.7 163.9C170.8 162.3 170.3 160.4 170.3 158.3C170.3 156.1 170.8 154.2 171.8 152.5C172.8 150.8 174.2 149.4 176 148.4C177.8 147.4 179.9 146.9 182.3 146.9ZM182.3 151.8C181.1 151.8 180.1 152.1 179.1 152.7C178.2 153.3 177.4 154 176.9 155C176.4 156 176.1 157 176.1 158.2C176.1 159.4 176.4 160.4 176.9 161.4C177.4 162.4 178.1 163.1 179.1 163.7C180 164.3 181.1 164.5 182.2 164.5C183.1 164.5 183.9 164.3 184.6 164C185.4 163.7 186 163.2 186.6 162.6C187.2 162 187.6 161.3 187.9 160.5C188.2 159.7 188.4 158.9 188.4 158.1C188.4 157 188.1 155.9 187.6 155C187.1 154 186.3 153.3 185.4 152.7C184.5 152.1 183.5 151.8 182.3 151.8Z" fill="#242438"/>
<path d="M211.1 180.6V147.4H223.8C226.2 147.4 228.2 147.8 229.8 148.5C231.4 149.3 232.6 150.3 233.4 151.6C234.2 152.9 234.6 154.4 234.6 156C234.6 157.4 234.3 158.5 233.8 159.5C233.3 160.5 232.6 161.2 231.7 161.8C230.8 162.4 229.8 162.8 228.8 163.1V163.4C230 163.5 231.1 163.8 232.2 164.5C233.3 165.2 234.2 166.1 234.9 167.3C235.6 168.5 235.9 169.9 235.9 171.6C235.9 173.3 235.5 174.9 234.7 176.2C233.9 177.6 232.6 178.6 230.9 179.4C229.2 180.2 227.1 180.6 224.6 180.6H211.1ZM217.1 161.5H223.1C224.1 161.5 225.1 161.3 225.9 160.9C226.7 160.5 227.4 160 227.9 159.3C228.4 158.6 228.6 157.8 228.6 156.8C228.6 155.5 228.1 154.5 227.2 153.6C226.3 152.8 225 152.4 223.2 152.4H217.1V161.5ZM217.1 175.6H223.6C225.8 175.6 227.4 175.2 228.3 174.3C229.3 173.5 229.8 172.4 229.8 171.1C229.8 170.1 229.6 169.2 229.1 168.4C228.6 167.6 227.9 167 227 166.5C226.1 166 225 165.8 223.8 165.8H217.2V175.6H217.1Z" fill="#242438"/>
<path d="M243.4 152.1C242.5 152.1 241.7 151.8 241 151.2C240.3 150.6 240 149.8 240 148.9C240 148 240.3 147.3 241 146.7C241.7 146.1 242.5 145.8 243.4 145.8C244.3 145.8 245.1 146.1 245.8 146.7C246.5 147.3 246.8 148.1 246.8 149C246.8 149.9 246.5 150.6 245.8 151.2C245.1 151.8 244.3 152.1 243.4 152.1ZM240.4 180.6V155.7H246.3V180.6H240.4Z" fill="#242438"/>
<path d="M257.7 147.4V180.6H251.8V147.4H257.7Z" fill="#242438"/>
<path d="M269.2 147.4V180.6H263.3V147.4H269.2Z" fill="#242438"/>
<path d="M277.7 152.1C276.8 152.1 276 151.8 275.3 151.2C274.6 150.6 274.3 149.8 274.3 148.9C274.3 148 274.6 147.3 275.3 146.7C276 146.1 276.8 145.8 277.7 145.8C278.6 145.8 279.4 146.1 280.1 146.7C280.8 147.3 281.1 148.1 281.1 149C281.1 149.9 280.8 150.6 280.1 151.2C279.5 151.8 278.7 152.1 277.7 152.1ZM274.8 180.6V155.7H280.7V180.6H274.8Z" fill="#242438"/>
<path d="M297.1 181.1C294.7 181.1 292.6 180.6 290.8 179.5C289 178.4 287.6 176.9 286.7 175C285.7 173.1 285.2 170.8 285.2 168.3C285.2 165.7 285.7 163.5 286.7 161.5C287.7 159.6 289.1 158.1 290.8 157C292.6 155.9 294.7 155.4 297.1 155.4C299.5 155.4 301.6 155.9 303.4 157C305.2 158.1 306.6 159.6 307.5 161.5C308.5 163.4 309 165.7 309 168.3C309 170.9 308.5 173.1 307.5 175C306.5 176.9 305.1 178.4 303.4 179.5C301.6 180.6 299.5 181.1 297.1 181.1ZM297.1 176.4C298.4 176.4 299.5 176 300.4 175.3C301.3 174.6 301.9 173.6 302.4 172.4C302.8 171.2 303.1 169.8 303.1 168.3C303.1 166.8 302.9 165.4 302.4 164.2C301.9 163 301.3 162 300.4 161.2C299.5 160.5 298.4 160.1 297.1 160.1C295.7 160.1 294.6 160.5 293.7 161.2C292.8 161.9 292.1 162.9 291.7 164.2C291.3 165.5 291 166.8 291 168.3C291 169.8 291.2 171.2 291.7 172.4C292.1 173.6 292.8 174.6 293.7 175.3C294.6 176 295.8 176.4 297.1 176.4Z" fill="#242438"/>
<path d="M319.4 166V180.6H313.5V155.7H319.1V159.9H319.4C320 158.5 320.9 157.4 322.1 156.6C323.4 155.8 324.9 155.4 326.8 155.4C328.5 155.4 330 155.8 331.3 156.5C332.6 157.2 333.6 158.3 334.3 159.7C335 161.1 335.4 162.8 335.3 164.8V180.7H329.4V165.7C329.4 164 329 162.7 328.1 161.8C327.2 160.9 326.1 160.4 324.5 160.4C323.5 160.4 322.6 160.6 321.8 161.1C321 161.5 320.4 162.2 319.9 163C319.4 163.8 319.4 164.8 319.4 166Z" fill="#242438"/>
<path d="M359 181.1C357.4 181.1 356 180.8 354.7 180.2C353.4 179.6 352.4 178.8 351.7 177.7C351 176.6 350.6 175.2 350.6 173.6C350.6 172.2 350.9 171 351.4 170.1C351.9 169.2 352.6 168.4 353.5 167.9C354.4 167.3 355.4 166.9 356.5 166.6C357.6 166.3 358.8 166.1 360 166C361.5 165.8 362.6 165.7 363.6 165.6C364.6 165.5 365.2 165.3 365.6 165C366 164.7 366.2 164.3 366.2 163.8V163.7C366.2 162.5 365.8 161.5 365.1 160.9C364.4 160.2 363.3 159.9 362 159.9C360.6 159.9 359.4 160.2 358.6 160.8C357.8 161.4 357.2 162.2 356.9 163L351.4 162.2C351.8 160.7 352.5 159.4 353.5 158.4C354.5 157.4 355.7 156.6 357.1 156.1C358.5 155.6 360.1 155.3 361.9 155.3C363.1 155.3 364.3 155.4 365.5 155.7C366.7 156 367.8 156.4 368.8 157.1C369.8 157.8 370.6 158.6 371.2 159.7C371.8 160.8 372.1 162.2 372.1 163.8V180.5H366.5V177.1H366.3C365.9 177.8 365.4 178.4 364.8 179C364.2 179.6 363.4 180.1 362.4 180.4C361.4 180.9 360.3 181.1 359 181.1ZM360.5 176.8C361.7 176.8 362.7 176.6 363.6 176.1C364.5 175.6 365.1 175 365.6 174.2C366.1 173.4 366.3 172.6 366.3 171.7V168.8C366.1 169 365.8 169.1 365.4 169.2C365 169.3 364.5 169.4 363.9 169.5C363.4 169.6 362.8 169.7 362.3 169.8C361.8 169.9 361.3 169.9 360.9 170C360 170.1 359.2 170.3 358.5 170.6C357.8 170.9 357.3 171.2 356.9 171.7C356.5 172.2 356.3 172.8 356.3 173.6C356.3 174.7 356.7 175.5 357.5 176C358.3 176.5 359.3 176.8 360.5 176.8Z" fill="#77809C"/>
<path d="M388.5 181.1C386 181.1 383.9 180.6 382.1 179.5C380.3 178.4 379 176.9 378 175C377 173.1 376.6 170.8 376.6 168.3C376.6 165.8 377.1 163.5 378.1 161.6C379.1 159.7 380.4 158.1 382.2 157.1C384 156.1 386.1 155.5 388.5 155.5C390.5 155.5 392.3 155.9 393.9 156.6C395.5 157.3 396.7 158.4 397.6 159.7C398.5 161 399.1 162.6 399.2 164.4H393.6C393.4 163.2 392.8 162.2 392 161.4C391.2 160.6 390 160.2 388.6 160.2C387.4 160.2 386.3 160.5 385.4 161.2C384.5 161.8 383.8 162.8 383.3 164C382.8 165.2 382.5 166.6 382.5 168.3C382.5 170 382.7 171.5 383.2 172.7C383.7 173.9 384.4 174.9 385.3 175.5C386.2 176.1 387.3 176.5 388.5 176.5C389.4 176.5 390.1 176.3 390.8 176C391.5 175.7 392.1 175.2 392.5 174.6C393 174 393.3 173.2 393.5 172.3H399.1C399 174.1 398.4 175.6 397.5 177C396.6 178.4 395.4 179.4 393.8 180.2C392.4 180.7 390.6 181.1 388.5 181.1Z" fill="#77809C"/>
<path d="M403.5 180.6V155.7H409.2V159.9H409.5C410 158.5 410.7 157.4 411.8 156.6C412.9 155.8 414.2 155.4 415.6 155.4C415.9 155.4 416.3 155.4 416.7 155.4C417.1 155.4 417.4 155.5 417.7 155.5V160.9C417.5 160.8 417.1 160.7 416.5 160.7C415.9 160.7 415.4 160.6 415 160.6C413.9 160.6 413 160.8 412.1 161.3C411.2 161.8 410.6 162.4 410.1 163.2C409.6 164 409.4 164.9 409.4 166V180.6H403.5Z" fill="#77809C"/>
<path d="M432.1 181.1C429.7 181.1 427.6 180.6 425.8 179.5C424 178.4 422.6 176.9 421.7 175C420.7 173.1 420.2 170.8 420.2 168.3C420.2 165.7 420.7 163.5 421.7 161.5C422.7 159.6 424.1 158.1 425.8 157C427.6 155.9 429.7 155.4 432.1 155.4C434.5 155.4 436.6 155.9 438.4 157C440.2 158.1 441.6 159.6 442.5 161.5C443.5 163.4 444 165.7 444 168.3C444 170.9 443.5 173.1 442.5 175C441.5 176.9 440.1 178.4 438.4 179.5C436.6 180.6 434.5 181.1 432.1 181.1ZM432.1 176.4C433.4 176.4 434.5 176 435.4 175.3C436.3 174.6 436.9 173.6 437.4 172.4C437.8 171.2 438.1 169.8 438.1 168.3C438.1 166.8 437.9 165.4 437.4 164.2C436.9 163 436.3 162 435.4 161.2C434.5 160.5 433.4 160.1 432.1 160.1C430.7 160.1 429.6 160.5 428.7 161.2C427.8 161.9 427.1 162.9 426.7 164.2C426.3 165.5 426 166.8 426 168.3C426 169.8 426.2 171.2 426.7 172.4C427.1 173.6 427.8 174.6 428.7 175.3C429.6 176 430.7 176.4 432.1 176.4Z" fill="#77809C"/>
<path d="M468.2 162.3L462.8 162.9C462.6 162.4 462.4 161.9 462 161.4C461.6 160.9 461.1 160.5 460.5 160.2C459.9 159.9 459.1 159.8 458.2 159.8C457 159.8 456 160.1 455.1 160.6C454.3 161.1 453.9 161.8 453.9 162.7C453.9 163.4 454.2 164 454.7 164.5C455.2 165 456.2 165.3 457.4 165.6L461.6 166.5C464 167 465.7 167.8 466.9 168.9C468.1 170 468.6 171.4 468.6 173.2C468.6 174.8 468.1 176.2 467.2 177.3C466.3 178.5 465 179.4 463.4 180.1C461.8 180.8 460 181.1 457.9 181.1C454.9 181.1 452.4 180.5 450.5 179.2C448.6 177.9 447.5 176.1 447.2 173.8L452.9 173.2C453.2 174.3 453.7 175.2 454.6 175.7C455.5 176.2 456.5 176.6 457.9 176.6C459.3 176.6 460.4 176.3 461.3 175.7C462.1 175.1 462.6 174.4 462.6 173.6C462.6 172.9 462.3 172.3 461.8 171.8C461.3 171.3 460.4 171 459.3 170.7L455 169.8C452.6 169.3 450.8 168.5 449.7 167.3C448.6 166.1 448 164.6 448 162.8C448 161.3 448.4 159.9 449.3 158.8C450.2 157.7 451.3 156.8 452.9 156.2C454.4 155.6 456.2 155.3 458.2 155.3C461.1 155.3 463.4 155.9 465.1 157.2C466.7 158.5 467.8 160.1 468.2 162.3Z" fill="#77809C"/>
<path d="M492.8 162.3L487.4 162.9C487.2 162.4 487 161.9 486.6 161.4C486.2 160.9 485.7 160.5 485.1 160.2C484.5 159.9 483.7 159.8 482.8 159.8C481.6 159.8 480.6 160.1 479.7 160.6C478.9 161.1 478.5 161.8 478.5 162.7C478.5 163.4 478.8 164 479.3 164.5C479.8 165 480.8 165.3 482 165.6L486.2 166.5C488.6 167 490.3 167.8 491.5 168.9C492.7 170 493.2 171.4 493.2 173.2C493.2 174.8 492.7 176.2 491.8 177.3C490.9 178.5 489.6 179.4 488 180.1C486.4 180.8 484.6 181.1 482.5 181.1C479.5 181.1 477 180.5 475.1 179.2C473.2 177.9 472.1 176.1 471.8 173.8L477.5 173.2C477.8 174.3 478.3 175.2 479.2 175.7C480.1 176.2 481.1 176.6 482.5 176.6C483.9 176.6 485 176.3 485.9 175.7C486.7 175.1 487.2 174.4 487.2 173.6C487.2 172.9 486.9 172.3 486.4 171.8C485.9 171.3 485 171 483.9 170.7L479.6 169.8C477.2 169.3 475.4 168.5 474.3 167.3C473.2 166.1 472.6 164.6 472.6 162.8C472.6 161.3 473 159.9 473.9 158.8C474.8 157.7 475.9 156.8 477.5 156.2C479 155.6 480.8 155.3 482.8 155.3C485.7 155.3 488 155.9 489.7 157.2C491.4 158.5 492.4 160.1 492.8 162.3Z" fill="#77809C"/>
<path d="M522.1 147.4V180.6H516.1V153.2H515.9L508.1 158.2V152.7L516.4 147.4H522.1Z" fill="#242438"/>
<path d="M537 176.1L536.8 177.9C536.6 179.3 536.4 180.7 536 182.1C535.6 183.5 535.2 184.8 534.8 186C534.4 187.2 534 188.1 533.8 188.8H529.8C530 188.1 530.2 187.2 530.4 186.1C530.6 185 530.9 183.7 531.2 182.3C531.4 180.9 531.6 179.4 531.7 178L531.8 176.2H537V176.1Z" fill="#242438"/>
<path d="M555 181.1C552.7 181.1 550.6 180.7 548.8 179.9C547 179.1 545.6 178 544.5 176.6C543.5 175.2 542.9 173.5 542.8 171.7H548.9C549 172.6 549.3 173.4 549.8 174C550.3 174.7 551.1 175.2 552 175.5C552.9 175.9 553.9 176.1 555 176.1C556.2 176.1 557.2 175.9 558.2 175.5C559.1 175.1 559.8 174.5 560.4 173.8C561 173.1 561.2 172.2 561.2 171.2C561.2 170.2 561 169.3 560.4 168.5C559.9 167.7 559.1 167.1 558.1 166.7C557.1 166.3 555.9 166.1 554.5 166.1H551.6V161.5H554.5C555.7 161.5 556.7 161.3 557.5 160.9C558.4 160.5 559.1 159.9 559.6 159.2C560.1 158.5 560.3 157.6 560.3 156.7C560.3 155.8 560.1 154.9 559.7 154.2C559.3 153.5 558.7 153 557.9 152.6C557.1 152.2 556.2 152 555.2 152C554.2 152 553.2 152.2 552.4 152.6C551.5 153 550.8 153.5 550.3 154.2C549.8 154.9 549.5 155.7 549.5 156.6H543.7C543.7 154.7 544.3 153.1 545.3 151.7C546.3 150.3 547.7 149.2 549.4 148.4C551.1 147.6 553.1 147.2 555.2 147.2C557.4 147.2 559.3 147.6 561 148.4C562.6 149.2 563.9 150.3 564.8 151.7C565.7 153.1 566.1 154.6 566.1 156.3C566.1 158.2 565.6 159.7 564.5 161C563.4 162.3 561.9 163.1 560.1 163.5V163.8C562.4 164.1 564.2 165 565.5 166.4C566.8 167.8 567.4 169.5 567.4 171.6C567.4 173.5 566.9 175.1 565.8 176.6C564.7 178.1 563.3 179.2 561.5 180C559.7 180.8 557.4 181.1 555 181.1Z" fill="#242438"/>
<path d="M584.7 181.2C582 181.2 579.7 180.5 577.8 179.2C575.9 177.8 574.4 175.9 573.4 173.3C572.4 170.7 571.9 167.6 571.9 164C571.9 160.4 572.4 157.3 573.4 154.7C574.4 152.1 575.9 150.2 577.8 148.9C579.7 147.6 582 146.9 584.7 146.9C587.4 146.9 589.6 147.6 591.6 148.9C593.6 150.2 595 152.2 596 154.7C597 157.3 597.5 160.3 597.5 163.9C597.5 167.5 597 170.6 596 173.2C595 175.8 593.5 177.7 591.6 179.1C589.6 180.6 587.3 181.2 584.7 181.2ZM584.7 176.2C586.8 176.2 588.4 175.2 589.6 173.1C590.8 171.1 591.4 168 591.4 164C591.4 161.4 591.1 159.1 590.6 157.3C590 155.5 589.3 154.2 588.3 153.2C587.3 152.3 586.1 151.8 584.7 151.8C582.6 151.8 581 152.8 579.8 154.9C578.6 156.9 578 160 578 163.9C578 166.5 578.3 168.8 578.8 170.6C579.3 172.4 580.1 173.8 581.1 174.7C582.1 175.6 583.3 176.2 584.7 176.2Z" fill="#242438"/>
<path d="M614.6 181.1C613 181.1 611.5 180.8 609.9 180.3C608.4 179.8 607 178.9 605.8 177.6C604.6 176.4 603.6 174.7 602.9 172.7C602.2 170.6 601.8 168.1 601.8 165C601.8 162.2 602.1 159.6 602.7 157.4C603.3 155.2 604.2 153.3 605.3 151.7C606.4 150.2 607.8 149 609.4 148.2C611 147.4 612.8 147 614.8 147C616.9 147 618.7 147.4 620.4 148.2C622 149 623.3 150.1 624.3 151.6C625.3 153 625.9 154.6 626.1 156.4H620.2C619.9 155.1 619.3 154.1 618.3 153.3C617.3 152.5 616.2 152.2 614.8 152.2C612.5 152.2 610.7 153.2 609.5 155.2C608.3 157.2 607.6 159.9 607.6 163.4H607.8C608.3 162.4 609 161.6 609.9 161C610.7 160.3 611.7 159.8 612.8 159.4C613.9 159 615 158.8 616.2 158.8C618.1 158.8 619.9 159.3 621.4 160.2C623 161.1 624.2 162.4 625.1 164C626 165.6 626.5 167.5 626.4 169.6C626.4 171.8 625.9 173.7 624.9 175.5C623.9 177.2 622.5 178.6 620.7 179.6C619.1 180.6 617 181.1 614.6 181.1ZM614.5 176.2C615.7 176.2 616.7 175.9 617.7 175.3C618.6 174.7 619.4 174 619.9 173C620.4 172 620.7 170.9 620.7 169.7C620.7 168.5 620.5 167.4 619.9 166.5C619.4 165.5 618.7 164.8 617.7 164.2C616.7 163.6 615.7 163.4 614.6 163.4C613.7 163.4 612.9 163.6 612.2 163.9C611.4 164.2 610.8 164.7 610.2 165.3C609.6 165.9 609.2 166.6 608.9 167.3C608.6 168.1 608.4 168.9 608.4 169.8C608.4 171 608.7 172 609.2 173C609.7 174 610.5 174.8 611.4 175.3C612.3 175.9 613.4 176.2 614.5 176.2Z" fill="#242438"/>
<path d="M642.8 180.6V147.4H655.3C657.9 147.4 660 147.9 661.7 148.8C663.4 149.8 664.7 151.1 665.6 152.7C666.5 154.4 666.9 156.2 666.9 158.4C666.9 160.5 666.5 162.4 665.6 164.1C664.7 165.8 663.4 167.1 661.6 168C659.8 168.9 657.7 169.4 655.1 169.4H646.8V164.5H654.2C655.7 164.5 656.9 164.2 657.9 163.7C658.9 163.2 659.6 162.5 660 161.6C660.4 160.7 660.7 159.6 660.7 158.5C660.7 157.4 660.5 156.3 660 155.4C659.5 154.5 658.8 153.8 657.9 153.3C657 152.8 655.7 152.5 654.2 152.5H648.7V180.7H642.8V180.6Z" fill="#77809C"/>
<path d="M671.4 180.6V155.7H677.1V159.9H677.4C677.9 158.5 678.6 157.4 679.7 156.6C680.8 155.8 682.1 155.4 683.5 155.4C683.8 155.4 684.2 155.4 684.6 155.4C685 155.4 685.3 155.5 685.6 155.5V160.9C685.4 160.8 685 160.7 684.4 160.7C683.8 160.7 683.3 160.6 682.9 160.6C681.8 160.6 680.9 160.8 680 161.3C679.1 161.8 678.5 162.4 678 163.2C677.5 164 677.3 164.9 677.3 166V180.6H671.4Z" fill="#77809C"/>
<path d="M700 181.1C697.6 181.1 695.5 180.6 693.7 179.5C691.9 178.4 690.5 176.9 689.6 175C688.6 173.1 688.1 170.8 688.1 168.3C688.1 165.7 688.6 163.5 689.6 161.5C690.6 159.6 692 158.1 693.7 157C695.5 155.9 697.6 155.4 700 155.4C702.4 155.4 704.5 155.9 706.3 157C708.1 158.1 709.5 159.6 710.4 161.5C711.4 163.4 711.9 165.7 711.9 168.3C711.9 170.9 711.4 173.1 710.4 175C709.4 176.9 708 178.4 706.3 179.5C704.5 180.6 702.4 181.1 700 181.1ZM700 176.4C701.3 176.4 702.4 176 703.3 175.3C704.2 174.6 704.8 173.6 705.3 172.4C705.7 171.2 706 169.8 706 168.3C706 166.8 705.8 165.4 705.3 164.2C704.8 163 704.2 162 703.3 161.2C702.4 160.5 701.3 160.1 700 160.1C698.6 160.1 697.5 160.5 696.6 161.2C695.7 161.9 695 162.9 694.6 164.2C694.2 165.5 693.9 166.8 693.9 168.3C693.9 169.8 694.1 171.2 694.6 172.4C695 173.6 695.7 174.6 696.6 175.3C697.5 176 698.6 176.4 700 176.4Z" fill="#77809C"/>
<path d="M716.4 155.7H722.3V182C722.3 183.8 722 185.3 721.3 186.4C720.6 187.6 719.6 188.4 718.3 189C717 189.6 715.5 189.9 713.6 189.9C713.4 189.9 713.2 189.9 713 189.9C712.8 189.9 712.6 189.9 712.4 189.9V185.1C712.6 185.1 712.7 185.1 712.8 185.1C712.9 185.1 713.1 185.1 713.2 185.1C714.3 185.1 715.1 184.8 715.6 184.3C716.1 183.8 716.3 183 716.3 181.9V155.7H716.4ZM719.3 152.1C718.4 152.1 717.6 151.8 716.9 151.2C716.2 150.6 715.9 149.8 715.9 149C715.9 148.1 716.2 147.4 716.9 146.7C717.6 146 718.4 145.8 719.3 145.8C720.2 145.8 721 146.1 721.7 146.7C722.4 147.3 722.7 148.1 722.7 149C722.7 149.9 722.4 150.6 721.7 151.2C721.1 151.8 720.3 152.1 719.3 152.1Z" fill="#77809C"/>
<path d="M738.9 181.1C736.4 181.1 734.2 180.6 732.4 179.5C730.6 178.5 729.2 177 728.2 175.1C727.2 173.2 726.7 170.9 726.7 168.3C726.7 165.7 727.2 163.5 728.2 161.5C729.2 159.6 730.5 158 732.3 157C734.1 156 736.1 155.4 738.5 155.4C740 155.4 741.5 155.6 742.9 156.1C744.3 156.6 745.5 157.4 746.5 158.4C747.6 159.4 748.4 160.7 749 162.3C749.6 163.9 749.9 165.8 749.9 168V169.8H729.5V165.8H744.3C744.3 164.7 744 163.7 743.6 162.8C743.1 161.9 742.5 161.2 741.6 160.7C740.8 160.2 739.8 159.9 738.6 159.9C737.4 159.9 736.3 160.2 735.4 160.8C734.5 161.4 733.8 162.1 733.3 163.1C732.8 164.1 732.5 165.1 732.5 166.2V169.7C732.5 171.1 732.8 172.4 733.3 173.4C733.8 174.4 734.6 175.2 735.5 175.8C736.5 176.3 737.6 176.6 738.8 176.6C739.7 176.6 740.4 176.5 741.1 176.2C741.8 176 742.4 175.6 742.9 175.1C743.4 174.6 743.8 174 744.1 173.3L749.6 173.9C749.3 175.3 748.6 176.6 747.6 177.7C746.6 178.8 745.4 179.6 743.9 180.2C742.5 180.8 740.8 181.1 738.9 181.1Z" fill="#77809C"/>
<path d="M765.3 181.1C762.8 181.1 760.7 180.6 758.9 179.5C757.1 178.4 755.8 176.9 754.8 175C753.8 173.1 753.4 170.8 753.4 168.3C753.4 165.8 753.9 163.5 754.9 161.6C755.9 159.7 757.2 158.1 759 157.1C760.8 156.1 762.9 155.5 765.3 155.5C767.3 155.5 769.1 155.9 770.7 156.6C772.3 157.3 773.5 158.4 774.4 159.7C775.3 161 775.9 162.6 776 164.4H770.4C770.2 163.2 769.6 162.2 768.8 161.4C768 160.6 766.8 160.2 765.4 160.2C764.2 160.2 763.1 160.5 762.2 161.2C761.3 161.8 760.6 162.8 760.1 164C759.6 165.2 759.3 166.6 759.3 168.3C759.3 170 759.5 171.5 760 172.7C760.5 173.9 761.2 174.9 762.1 175.5C763 176.1 764.1 176.5 765.3 176.5C766.2 176.5 766.9 176.3 767.6 176C768.3 175.7 768.9 175.2 769.3 174.6C769.8 174 770.1 173.2 770.3 172.3H775.9C775.8 174.1 775.2 175.6 774.3 177C773.4 178.4 772.2 179.4 770.6 180.2C769.2 180.7 767.4 181.1 765.3 181.1Z" fill="#77809C"/>
<path d="M792.8 155.7V160.2H778.5V155.7H792.8ZM782 149.7H787.9V173.1C787.9 173.9 788 174.5 788.3 174.9C788.5 175.3 788.9 175.6 789.3 175.8C789.7 176 790.1 176 790.6 176C791 176 791.3 176 791.6 175.9C791.9 175.8 792.1 175.8 792.3 175.8L793.3 180.4C793 180.5 792.5 180.6 792 180.8C791.4 180.9 790.7 181 789.9 181C788.4 181 787.1 180.8 785.9 180.3C784.7 179.8 783.8 179 783.1 178C782.4 177 782.1 175.7 782.1 174.1V149.7H782Z" fill="#77809C"/>
<path d="M817 162.3L811.6 162.9C811.4 162.4 811.2 161.9 810.8 161.4C810.4 160.9 809.9 160.5 809.3 160.2C808.7 159.9 807.9 159.8 807 159.8C805.8 159.8 804.8 160.1 803.9 160.6C803.1 161.1 802.7 161.8 802.7 162.7C802.7 163.4 803 164 803.5 164.5C804 165 805 165.3 806.2 165.6L810.4 166.5C812.8 167 814.5 167.8 815.7 168.9C816.9 170 817.4 171.4 817.4 173.2C817.4 174.8 816.9 176.2 816 177.3C815.1 178.5 813.8 179.4 812.2 180.1C810.6 180.8 808.8 181.1 806.7 181.1C803.7 181.1 801.2 180.5 799.3 179.2C797.4 177.9 796.3 176.1 796 173.8L801.7 173.2C802 174.3 802.5 175.2 803.4 175.7C804.3 176.2 805.3 176.6 806.7 176.6C808.1 176.6 809.2 176.3 810.1 175.7C810.9 175.1 811.4 174.4 811.4 173.6C811.4 172.9 811.1 172.3 810.6 171.8C810.1 171.3 809.2 171 808.1 170.7L803.8 169.8C801.4 169.3 799.6 168.5 798.5 167.3C797.4 166.1 796.8 164.6 796.8 162.8C796.8 161.3 797.2 159.9 798.1 158.8C799 157.7 800.1 156.8 801.7 156.2C803.2 155.6 805 155.3 807 155.3C809.9 155.3 812.2 155.9 813.9 157.2C815.5 158.5 816.6 160.1 817 162.3Z" fill="#77809C"/>
<path d="M825.5 181C824.5 181 823.7 180.7 823 180C822.3 179.3 822 178.5 822 177.5C822 176.5 822.3 175.7 823 175C823.7 174.3 824.5 174 825.5 174C826.5 174 827.3 174.3 828 175C828.7 175.7 829.1 176.5 829.1 177.5C829.1 178.2 828.9 178.8 828.6 179.3C828.3 179.8 827.8 180.3 827.3 180.6C826.8 180.8 826.2 181 825.5 181Z" fill="#77809C"/>
</g>
<mask id="mask7_4_2219" style="mask-type:luminance" maskUnits="userSpaceOnUse" x="0" y="0" width="1521" height="255">
<path d="M1521 0H0V255H1521V0Z" fill="white"/>
</mask>
<g mask="url(#mask7_4_2219)">
<path d="M1468 59C1480.15 59 1490 49.1503 1490 37C1490 24.8497 1480.15 15 1468 15C1455.85 15 1446 24.8497 1446 37C1446 49.1503 1455.85 59 1468 59Z" fill="#D4F6FF"/>
</g>
<mask id="mask8_4_2219" style="mask-type:luminance" maskUnits="userSpaceOnUse" x="0" y="0" width="1521" height="255">
<path d="M1521 0H0V255H1521V0Z" fill="white"/>
</mask>
<g mask="url(#mask8_4_2219)">
<path d="M1399.1 228C1397.2 226.8 1396.8 225.1 1396.8 223C1396.8 194.3 1396.8 165.6 1396.8 137C1396.8 136.2 1396.8 135.3 1396.8 134.3C1345.4 134.3 1294.2 134.3 1242.6 134.3C1242.6 135.1 1242.6 136 1242.6 136.8C1242.6 165.5 1242.6 194.3 1242.6 223C1242.6 225.1 1242.2 226.8 1240.3 228C1234 228 1227.7 228 1221.4 228C1219.6 226.9 1219 225.3 1219 223.3C1219 177.3 1219 131.2 1219 85.1999C1219 82.8999 1219.7 81.3999 1221.8 80.2999C1253.5 62.7999 1285.3 45.2999 1316.9 27.7999C1318.9 26.6999 1320.5 26.7999 1322.4 27.8999C1354 46.4999 1385.7 64.9999 1417.3 83.5999C1418.4 84.1999 1419.2 85.2999 1420.2 86.0999C1420.2 133.4 1420.2 180.7 1420.2 228C1413.3 228 1406.2 228 1399.1 228ZM1413.7 221.2C1413.7 220.5 1413.7 219.8 1413.7 219.2C1413.7 176.4 1413.7 133.7 1413.7 90.8999C1413.7 89.5999 1413.3 88.7999 1412.1 88.0999C1381.8 70.3999 1351.6 52.6999 1321.4 34.8999C1320.2 34.1999 1319.3 34.1999 1318 34.8999C1287.9 51.5999 1257.8 68.1999 1227.6 84.6999C1226.3 85.3999 1225.8 86.1999 1225.8 87.6999C1225.8 131.4 1225.8 175.2 1225.8 218.9C1225.8 219.6 1225.8 220.3 1225.8 221.1C1229.2 221.1 1232.5 221.1 1235.9 221.1C1235.9 220.1 1235.9 219.3 1235.9 218.5C1235.9 181.1 1235.9 143.7 1235.9 106.3C1235.9 105.6 1235.9 104.9 1235.9 104.1C1236 101.8 1237.2 100.6 1239.4 100.5C1239.9 100.5 1240.4 100.5 1241 100.5C1293.4 100.5 1345.9 100.5 1398.3 100.5C1398.7 100.5 1399.1 100.5 1399.5 100.5C1402.2 100.6 1403.3 101.7 1403.4 104.3C1403.4 105 1403.4 105.6 1403.4 106.3C1403.4 143.8 1403.4 181.2 1403.4 218.7C1403.4 219.5 1403.4 220.3 1403.4 221.1C1407.1 221.2 1410.3 221.2 1413.7 221.2ZM1242.8 113.9C1294.3 113.9 1345.5 113.9 1396.7 113.9C1396.7 111.7 1396.7 109.5 1396.7 107.5C1345.3 107.5 1294.1 107.5 1242.8 107.5C1242.8 109.6 1242.8 111.7 1242.8 113.9ZM1396.8 120.8C1345.3 120.8 1294.1 120.8 1242.9 120.8C1242.9 123 1242.9 125.1 1242.9 127.3C1294.3 127.3 1345.5 127.3 1396.8 127.3C1396.8 125.1 1396.8 123 1396.8 120.8Z" fill="#15BEE6"/>
<path d="M1305.3 228C1303.4 226.8 1303 225.1 1303 223C1303 210.7 1303 198.4 1303 186.1C1303 182.1 1304 181.1 1308 181.1C1318.9 181.1 1329.9 181.1 1340.8 181.1C1341.6 181.1 1342.3 181.1 1343.3 181.1C1343.3 180.1 1343.3 179.4 1343.3 178.7C1343.3 167.7 1343.3 156.7 1343.3 145.7C1343.3 141.8 1344.3 140.8 1348.2 140.8C1360.6 140.8 1373.1 140.8 1385.5 140.8C1389.1 140.8 1390.2 141.9 1390.2 145.5C1390.2 171.4 1390.2 197.4 1390.2 223.3C1390.2 225.4 1389.7 227 1387.8 228C1360.3 228 1332.8 228 1305.3 228ZM1336.6 187.9C1336.6 190.9 1336.6 193.9 1336.6 196.8C1336.6 200 1335.3 201.2 1332.2 201.2C1328.7 201.2 1325.1 201.2 1321.6 201.2C1317.4 201.2 1316.5 200.2 1316.5 196.1C1316.5 193.4 1316.5 190.7 1316.5 187.8C1314.2 187.8 1312.1 187.8 1310 187.8C1310 199 1310 210 1310 221.1C1321.1 221.1 1332.1 221.1 1343.2 221.1C1343.2 210 1343.2 198.9 1343.2 187.8C1340.9 187.9 1338.9 187.9 1336.6 187.9ZM1376.8 187.9C1376.8 191 1376.8 194 1376.8 196.9C1376.8 199.9 1375.6 201.2 1372.5 201.2C1368.8 201.2 1365 201.2 1361.3 201.2C1357.8 201.2 1356.7 200.1 1356.7 196.6C1356.7 193.7 1356.7 190.9 1356.7 188C1354.4 188 1352.3 188 1350.2 188C1350.2 199.1 1350.2 210.1 1350.2 221.2C1361.3 221.2 1372.4 221.2 1383.3 221.2C1383.3 210 1383.3 199 1383.3 188C1381.1 187.9 1379.1 187.9 1376.8 187.9ZM1383.3 180.8C1383.3 169.6 1383.3 158.5 1383.3 147.6C1381.1 147.6 1379 147.6 1376.8 147.6C1376.8 150.9 1376.8 154 1376.8 157.1C1376.8 159.4 1375.6 160.8 1373.4 160.8C1369 160.9 1364.5 160.9 1360.1 160.8C1358 160.8 1356.9 159.5 1356.8 157.4C1356.7 155.2 1356.8 153 1356.8 150.7C1356.8 149.6 1356.8 148.5 1356.8 147.5C1354.4 147.5 1352.3 147.5 1350.3 147.5C1350.3 158.7 1350.3 169.7 1350.3 180.7C1361.3 180.8 1372.2 180.8 1383.3 180.8ZM1370 147.6C1367.8 147.6 1365.7 147.6 1363.5 147.6C1363.5 149.8 1363.5 151.9 1363.5 154C1365.7 154 1367.9 154 1370 154C1370 151.8 1370 149.8 1370 147.6ZM1370 194.4C1370 192.2 1370 190.1 1370 188C1367.8 188 1365.7 188 1363.5 188C1363.5 190.2 1363.5 192.2 1363.5 194.4C1365.7 194.4 1367.7 194.4 1370 194.4ZM1329.7 188C1327.4 188 1325.3 188 1323.1 188C1323.1 189.9 1323 191.6 1323.1 193.2C1323.1 193.6 1323.7 194.4 1324.1 194.4C1325.9 194.5 1327.7 194.5 1329.6 194.5C1329.7 192.2 1329.7 190.2 1329.7 188Z" fill="#15BEE6"/>
<path d="M1320 73.7C1325.1 73.7 1330.2 73.7 1335.3 73.7C1338.8 73.7 1339.9 74.8 1339.9 78.3C1339.9 82.1 1339.9 85.9 1339.9 89.7C1339.9 92.6 1338.7 93.9 1335.9 93.9C1325.2 93.9 1314.4 93.9 1303.7 93.9C1300.9 93.9 1299.7 92.6 1299.7 89.7C1299.7 85.8 1299.7 81.8 1299.7 77.9C1299.7 74.9 1300.8 73.8 1303.9 73.7C1309.2 73.7 1314.6 73.7 1320 73.7ZM1306.5 87C1315.4 87 1324.2 87 1333.1 87C1333.1 84.8 1333.1 82.7 1333.1 80.6C1324.2 80.6 1315.4 80.6 1306.5 80.6C1306.5 82.8 1306.5 84.9 1306.5 87Z" fill="#15BEE6"/>
</g>
<mask id="mask9_4_2219" style="mask-type:luminance" maskUnits="userSpaceOnUse" x="0" y="0" width="1521" height="255">
<path d="M1521 0H0V255H1521V0Z" fill="white"/>
</mask>
<g mask="url(#mask9_4_2219)">
<path d="M59.5 205.7C59.5 204.4 59.7 203.2 60 202.1C60.3 201 60.8 200 61.4 199.1H62.5C62.3 199.4 62 199.9 61.8 200.3C61.6 200.8 61.4 201.3 61.2 201.9C61 202.5 60.9 203.1 60.8 203.7C60.7 204.3 60.7 204.9 60.7 205.6C60.7 206.4 60.8 207.2 60.9 208.1C61.1 208.9 61.3 209.7 61.5 210.4C61.8 211.1 62.1 211.7 62.4 212.2H61.3C60.7 211.3 60.2 210.3 59.9 209.2C59.6 208.1 59.5 207 59.5 205.7Z" fill="#D3D3D3"/>
<path d="M71.4 199.7H72.7V206.6C72.7 207.3 72.5 208 72.2 208.5C71.9 209.1 71.4 209.5 70.8 209.8C70.2 210.1 69.5 210.3 68.7 210.3C67.9 210.3 67.2 210.1 66.6 209.8C66 209.5 65.5 209 65.2 208.5C64.9 207.9 64.7 207.3 64.7 206.6V199.7H66V206.5C66 207 66.1 207.5 66.3 207.9C66.5 208.3 66.8 208.6 67.3 208.8C67.7 209 68.2 209.1 68.8 209.1C69.4 209.1 69.9 209 70.3 208.8C70.7 208.6 71 208.3 71.3 207.9C71.6 207.5 71.6 207 71.6 206.5V199.7H71.4Z" fill="#D3D3D3"/>
<path d="M83.5 199.7V210.2H82.3L76.6 202H76.5V210.2H75.2V199.7H76.4L82.1 207.9H82.2V199.7H83.5Z" fill="#D3D3D3"/>
<path d="M94.5 203H93.2C93.1 202.6 93 202.3 92.8 202C92.6 201.7 92.4 201.5 92.1 201.3C91.8 201.1 91.5 201 91.2 200.9C90.9 200.8 90.5 200.8 90.2 200.8C89.6 200.8 89 201 88.5 201.3C88 201.6 87.6 202.1 87.3 202.7C87 203.3 86.8 204.1 86.8 205C86.8 205.9 87 206.7 87.3 207.3C87.6 207.9 88 208.4 88.5 208.7C89 209 89.6 209.2 90.2 209.2C90.5 209.2 90.9 209.2 91.2 209.1C91.5 209 91.8 208.9 92.1 208.7C92.4 208.5 92.6 208.3 92.8 208C93 207.7 93.1 207.4 93.2 207H94.5C94.4 207.5 94.2 208 94 208.4C93.7 208.8 93.4 209.2 93.1 209.5C92.7 209.8 92.3 210 91.8 210.2C91.3 210.4 90.8 210.4 90.3 210.4C89.4 210.4 88.6 210.2 87.9 209.7C87.2 209.3 86.7 208.6 86.3 207.8C85.9 207 85.7 206 85.7 204.9C85.7 203.8 85.9 202.8 86.3 202C86.7 201.2 87.2 200.6 87.9 200.1C88.6 199.7 89.4 199.4 90.3 199.4C90.8 199.4 91.3 199.5 91.8 199.6C92.3 199.7 92.7 200 93.1 200.3C93.5 200.6 93.8 201 94 201.4C94.2 201.9 94.4 202.4 94.5 203Z" fill="#D3D3D3"/>
<path d="M95.8999 200.8V199.7H103.8V200.8H100.5V210.2H99.1999V200.8H95.8999Z" fill="#D3D3D3"/>
<path d="M106.2 210.2H104.9L108.7 199.7H110L113.8 210.2H112.5L109.4 201.4H109.3L106.2 210.2ZM106.7 206.1H112.1V207.2H106.7V206.1Z" fill="#D3D3D3"/>
<path d="M118.7 210.2H115.5V199.7H118.9C119.9 199.7 120.8 199.9 121.5 200.3C122.2 200.7 122.8 201.3 123.2 202.1C123.6 202.9 123.8 203.8 123.8 204.9C123.8 206 123.6 206.9 123.2 207.7C122.8 208.5 122.2 209.1 121.5 209.5C120.8 209.9 119.8 210.2 118.7 210.2ZM116.8 209H118.7C119.6 209 120.3 208.8 120.9 208.5C121.5 208.2 121.9 207.7 122.2 207.1C122.5 206.5 122.6 205.7 122.6 204.9C122.6 204.1 122.5 203.3 122.2 202.7C121.9 202.1 121.5 201.6 121 201.3C120.5 201 119.8 200.8 118.9 200.8H116.9V209H116.8Z" fill="#D3D3D3"/>
<path d="M129.7 210.2V209.3L133.2 205.5C133.6 205.1 133.9 204.7 134.2 204.3C134.5 204 134.7 203.7 134.8 203.4C134.9 203.1 135 202.8 135 202.5C135 202.1 134.9 201.8 134.7 201.5C134.5 201.2 134.3 201 134 200.9C133.7 200.8 133.4 200.7 133 200.7C132.6 200.7 132.2 200.8 131.9 200.9C131.6 201.1 131.4 201.3 131.2 201.6C131 201.9 131 202.2 131 202.6H129.8C129.8 202 129.9 201.4 130.2 201C130.5 200.6 130.9 200.2 131.4 199.9C131.9 199.6 132.4 199.5 133.1 199.5C133.7 199.5 134.3 199.6 134.7 199.9C135.2 200.2 135.5 200.5 135.8 200.9C136.1 201.3 136.2 201.8 136.2 202.4C136.2 202.8 136.1 203.2 136 203.5C135.9 203.9 135.6 204.3 135.3 204.7C135 205.1 134.5 205.7 133.9 206.3L131.5 208.8V208.9H136.4V210H129.7V210.2Z" fill="#D3D3D3"/>
<path d="M141.9 210.3C141.1 210.3 140.5 210.1 139.9 209.7C139.4 209.3 138.9 208.7 138.7 207.9C138.4 207.1 138.3 206.1 138.3 205C138.3 203.9 138.4 202.9 138.7 202.1C139 201.3 139.4 200.7 139.9 200.3C140.4 199.9 141.1 199.7 141.9 199.7C142.7 199.7 143.3 199.9 143.9 200.3C144.4 200.7 144.9 201.3 145.1 202.1C145.4 202.9 145.5 203.9 145.5 205C145.5 206.1 145.4 207.1 145.1 207.9C144.8 208.7 144.4 209.3 143.9 209.7C143.3 210.1 142.6 210.3 141.9 210.3ZM141.9 209.2C142.7 209.2 143.3 208.8 143.7 208.1C144.1 207.4 144.3 206.3 144.3 204.9C144.3 204 144.2 203.2 144 202.6C143.8 202 143.5 201.5 143.2 201.1C142.8 200.8 142.4 200.6 141.9 200.6C141.1 200.6 140.6 201 140.1 201.7C139.7 202.4 139.5 203.5 139.5 204.9C139.5 205.8 139.6 206.6 139.8 207.2C140 207.8 140.3 208.3 140.6 208.6C140.9 208.9 141.4 209.2 141.9 209.2Z" fill="#D3D3D3"/>
<path d="M147.5 210.2V209.3L151 205.5C151.4 205.1 151.7 204.7 152 204.3C152.3 204 152.5 203.7 152.6 203.4C152.7 203.1 152.8 202.8 152.8 202.5C152.8 202.1 152.7 201.8 152.5 201.5C152.3 201.2 152.1 201 151.8 200.9C151.5 200.8 151.2 200.7 150.8 200.7C150.4 200.7 150 200.8 149.7 200.9C149.4 201.1 149.2 201.3 149 201.6C148.8 201.9 148.8 202.2 148.8 202.6H147.6C147.6 202 147.7 201.4 148 201C148.3 200.6 148.7 200.2 149.2 199.9C149.7 199.6 150.2 199.5 150.9 199.5C151.5 199.5 152.1 199.6 152.5 199.9C153 200.2 153.3 200.5 153.6 200.9C153.9 201.3 154 201.8 154 202.4C154 202.8 153.9 203.2 153.8 203.5C153.7 203.9 153.4 204.3 153.1 204.7C152.8 205.1 152.3 205.7 151.7 206.3L149.3 208.8V208.9H154.2V210H147.5V210.2Z" fill="#D3D3D3"/>
<path d="M155.9 208V207L160.5 199.7H161.3V201.3H160.8L157.3 206.8V206.9H163.5V208H155.9ZM160.9 210.2V207.7V207.2V199.7H162.1V210.2H160.9Z" fill="#D3D3D3"/>
<path d="M168 205.7C168 207 167.8 208.2 167.5 209.3C167.2 210.4 166.7 211.4 166.1 212.3H165C165.2 212 165.5 211.5 165.7 211.1C165.9 210.6 166.1 210.1 166.3 209.5C166.5 208.9 166.6 208.3 166.7 207.7C166.8 207.1 166.8 206.5 166.8 205.8C166.8 205 166.7 204.2 166.6 203.3C166.5 202.4 166.2 201.7 166 201C165.7 200.3 165.4 199.7 165.1 199.2H166.2C166.8 200.1 167.3 201.1 167.6 202.2C167.9 203.3 168 204.5 168 205.7Z" fill="#D3D3D3"/>
</g>
<mask id="mask10_4_2219" style="mask-type:luminance" maskUnits="userSpaceOnUse" x="0" y="0" width="1521" height="255">
<path d="M1521 0H0V255H1521V0Z" fill="white"/>
</mask>
<g mask="url(#mask10_4_2219)">
<path d="M64.9 58.8999H58V37.3999H65.2C67.3 37.3999 69.1 37.7999 70.6 38.6999C72.1 39.5999 73.3 40.7999 74.1 42.3999C74.9 43.9999 75.3 45.8999 75.3 48.0999C75.3 50.2999 74.9 52.2999 74.1 53.8999C73.3 55.4999 72.1 56.6999 70.6 57.5999C68.9 58.4999 67.1 58.8999 64.9 58.8999ZM61.2 56.0999H64.7C66.3 56.0999 67.7 55.7999 68.8 55.1999C69.9 54.5999 70.7 53.6999 71.2 52.4999C71.7 51.2999 72 49.8999 72 48.1999C72 46.4999 71.7 45.0999 71.2 43.8999C70.7 42.6999 69.9 41.7999 68.8 41.1999C67.7 40.5999 66.4 40.2999 64.9 40.2999H61.2V56.0999Z" fill="#242438"/>
<path d="M80.6001 40.3C80.1001 40.3 79.6001 40.1 79.2001 39.7C78.8001 39.3 78.6001 38.9 78.6001 38.4C78.6001 37.9 78.8001 37.4 79.2001 37.1C79.6001 36.7 80.1001 36.5 80.6001 36.5C81.1001 36.5 81.6001 36.7 82.0001 37.1C82.4001 37.5 82.6001 37.9 82.6001 38.4C82.6001 38.9 82.4001 39.4 82.0001 39.7C81.6001 40.1 81.1001 40.3 80.6001 40.3ZM79.0001 58.9V42.8H82.1001V58.9H79.0001Z" fill="#242438"/>
<path d="M92.3 59.1999C91 59.1999 89.8 58.8999 88.8 58.1999C87.8 57.4999 87 56.5999 86.4 55.2999C85.8 54.0999 85.5 52.5999 85.5 50.7999C85.5 49.0999 85.8 47.5999 86.4 46.2999C87 45.0999 87.8 44.0999 88.8 43.4999C89.8 42.7999 91 42.4999 92.3 42.4999C93.3 42.4999 94.1 42.6999 94.7 42.9999C95.3 43.2999 95.8 43.6999 96.1 44.1999C96.4 44.5999 96.7 44.9999 96.9 45.3999H97.1V37.3999H100.2V58.8999H97.1V56.3999H97C96.8 56.6999 96.5 57.0999 96.2 57.5999C95.8 57.9999 95.4 58.3999 94.7 58.7999C94.1 58.9999 93.3 59.1999 92.3 59.1999ZM93 56.4999C93.9 56.4999 94.7 56.2999 95.3 55.7999C95.9 55.2999 96.4 54.6999 96.7 53.7999C97 52.8999 97.2 51.9999 97.2 50.7999C97.2 49.6999 97 48.6999 96.7 47.8999C96.4 47.0999 95.9 46.3999 95.3 45.8999C94.7 45.3999 93.9 45.1999 93 45.1999C92.1 45.1999 91.3 45.3999 90.6 45.8999C89.9 46.3999 89.5 47.0999 89.2 47.8999C88.9 48.6999 88.7 49.6999 88.7 50.7999C88.7 51.8999 88.9 52.7999 89.2 53.6999C89.5 54.5999 90 55.1999 90.6 55.6999C91.2 56.1999 92.1 56.4999 93 56.4999Z" fill="#242438"/>
<path d="M114.6 64.9001C114.1 64.9001 113.7 64.9001 113.3 64.8001C112.9 64.7001 112.6 64.6 112.4 64.6L113.2 62C113.8 62.2001 114.3 62.2001 114.7 62.2001C115.1 62.2001 115.5 62 115.9 61.7001C116.3 61.4001 116.6 60.9001 116.8 60.2001L117.2 59.1L111.3 42.8H114.7L118.8 55.3H119L123.1 42.8H126.5L119.7 61C119.4 61.8 119 62.5 118.5 63.1C118 63.7 117.5 64.1001 116.8 64.4001C116.2 64.8001 115.5 64.9001 114.6 64.9001Z" fill="#242438"/>
<path d="M136.1 59.2001C134.6 59.2001 133.3 58.9001 132.1 58.2001C131 57.5001 130.1 56.5001 129.5 55.3001C128.9 54.1001 128.6 52.6001 128.6 50.9001C128.6 49.2001 128.9 47.8001 129.5 46.5001C130.1 45.2001 131 44.3001 132.1 43.6001C133.2 42.9001 134.5 42.6001 136.1 42.6001C137.7 42.6001 138.9 42.9001 140.1 43.6001C141.2 44.3001 142.1 45.3001 142.7 46.5001C143.3 47.7001 143.6 49.2001 143.6 50.9001C143.6 52.6001 143.3 54.0001 142.7 55.3001C142.1 56.5001 141.2 57.5001 140.1 58.2001C138.9 58.9001 137.6 59.2001 136.1 59.2001ZM136.1 56.6001C137.1 56.6001 137.9 56.3001 138.5 55.8001C139.1 55.3001 139.6 54.6001 139.9 53.7001C140.2 52.8001 140.4 51.9001 140.4 50.9001C140.4 49.9001 140.2 48.9001 139.9 48.1001C139.6 47.2001 139.1 46.5001 138.5 46.0001C137.9 45.5001 137 45.2001 136.1 45.2001C135.1 45.2001 134.3 45.5001 133.7 46.0001C133.1 46.5001 132.6 47.2001 132.3 48.1001C132 49.0001 131.8 49.9001 131.8 50.9001C131.8 51.9001 132 52.9001 132.3 53.7001C132.6 54.6001 133.1 55.2001 133.7 55.8001C134.3 56.3001 135.1 56.6001 136.1 56.6001Z" fill="#242438"/>
<path d="M157.3 52.2001V42.8H160.4V58.9001H157.3V56.1H157.1C156.7 57 156.1 57.7001 155.3 58.2001C154.5 58.8001 153.5 59.1 152.3 59.1C151.3 59.1 150.4 58.9001 149.6 58.4001C148.8 57.9001 148.2 57.3001 147.7 56.4001C147.2 55.5001 147 54.4 147 53.1V42.8H150.1V52.7001C150.1 53.8001 150.4 54.7 151 55.3C151.6 56 152.4 56.3 153.4 56.3C154 56.3 154.6 56.2001 155.2 55.9001C155.8 55.6001 156.3 55.2 156.7 54.6C157.1 54 157.3 53.1 157.3 52.2001Z" fill="#242438"/>
<path d="M172.5 58.8999V37.3999H175.6V58.8999H172.5ZM175.4 53.3999V49.5999H175.9L182.3 42.7999H186.1L178.8 50.5999H178.3L175.4 53.3999ZM182.6 58.8999L176.8 51.1999L179 48.9999L186.5 58.7999H182.6V58.8999Z" fill="#15BEE6"/>
<path d="M192 49.3V58.9H188.9V42.8H191.9V45.4H192.1C192.5 44.5 193.1 43.9 193.8 43.3C194.6 42.8 195.6 42.5 196.8 42.5C197.9 42.5 198.9 42.7 199.7 43.2C200.5 43.7 201.2 44.3 201.6 45.2C202.1 46.1 202.3 47.2 202.3 48.5V58.7H199.2V49C199.2 47.8 198.9 46.9 198.3 46.3C197.7 45.6 196.9 45.3 195.8 45.3C195.1 45.3 194.4 45.5 193.9 45.8C193.4 46.1 192.9 46.6 192.6 47.2C192.2 47.7 192 48.5 192 49.3Z" fill="#15BEE6"/>
<path d="M213.3 59.2001C211.8 59.2001 210.5 58.9001 209.3 58.2001C208.2 57.5001 207.3 56.5001 206.7 55.3001C206.1 54.1001 205.8 52.6001 205.8 50.9001C205.8 49.2001 206.1 47.8001 206.7 46.5001C207.3 45.2001 208.2 44.3001 209.3 43.6001C210.4 42.9001 211.7 42.6001 213.3 42.6001C214.9 42.6001 216.1 42.9001 217.3 43.6001C218.4 44.3001 219.3 45.3001 219.9 46.5001C220.5 47.7001 220.8 49.2001 220.8 50.9001C220.8 52.6001 220.5 54.0001 219.9 55.3001C219.3 56.5001 218.4 57.5001 217.3 58.2001C216.1 58.9001 214.8 59.2001 213.3 59.2001ZM213.3 56.6001C214.3 56.6001 215.1 56.3001 215.7 55.8001C216.3 55.3001 216.8 54.6001 217.1 53.7001C217.4 52.8001 217.6 51.9001 217.6 50.9001C217.6 49.9001 217.4 48.9001 217.1 48.1001C216.8 47.2001 216.3 46.5001 215.7 46.0001C215.1 45.5001 214.2 45.2001 213.3 45.2001C212.3 45.2001 211.5 45.5001 210.9 46.0001C210.3 46.5001 209.8 47.2001 209.5 48.1001C209.2 49.0001 209 49.9001 209 50.9001C209 51.9001 209.2 52.9001 209.5 53.7001C209.8 54.6001 210.3 55.2001 210.9 55.8001C211.5 56.3001 212.3 56.6001 213.3 56.6001Z" fill="#15BEE6"/>
<path d="M227.8 58.9001L223.1 42.8H226.3L229.5 54.6H229.7L232.9 42.8H236.1L239.2 54.6H239.4L242.5 42.8H245.7L241 58.9001H237.8L234.5 47.3H234.3L231 58.9001H227.8Z" fill="#15BEE6"/>
<path d="M252.1 52.4999C252.1 51.1999 252.2 50.1999 252.5 49.3999C252.8 48.5999 253.1 47.9999 253.6 47.4999C254.1 46.9999 254.6 46.5999 255.3 46.1999C255.7 45.8999 256.1 45.5999 256.4 45.2999C256.7 44.9999 257 44.5999 257.2 44.1999C257.4 43.7999 257.5 43.2999 257.5 42.7999C257.5 42.1999 257.4 41.5999 257.1 41.1999C256.8 40.6999 256.4 40.3999 255.9 40.0999C255.4 39.7999 254.9 39.6999 254.3 39.6999C253.8 39.6999 253.2 39.7999 252.8 39.9999C252.4 40.1999 251.9 40.5999 251.6 40.9999C251.3 41.3999 251.1 42.0999 251 42.7999H247.8C247.8 41.4999 248.2 40.4999 248.8 39.5999C249.4 38.6999 250.2 38.0999 251.1 37.5999C252 37.0999 253.1 36.8999 254.3 36.8999C255.6 36.8999 256.7 37.0999 257.7 37.5999C258.7 38.0999 259.4 38.6999 259.9 39.5999C260.4 40.4999 260.7 41.4999 260.7 42.5999C260.7 43.3999 260.6 44.0999 260.3 44.6999C260.1 45.2999 259.7 45.8999 259.3 46.3999C258.8 46.8999 258.3 47.2999 257.7 47.6999C257.1 48.0999 256.6 48.4999 256.3 48.8999C255.9 49.2999 255.7 49.7999 255.5 50.2999C255.3 50.7999 255.2 51.4999 255.2 52.2999V52.4999H252.1ZM253.7 59.0999C253.1 59.0999 252.6 58.8999 252.2 58.4999C251.8 58.0999 251.6 57.5999 251.6 56.9999C251.6 56.3999 251.8 55.8999 252.2 55.4999C252.6 55.0999 253.1 54.8999 253.7 54.8999C254.3 54.8999 254.8 55.0999 255.2 55.4999C255.6 55.8999 255.8 56.3999 255.8 56.9999C255.8 57.3999 255.7 57.6999 255.5 58.0999C255.3 58.3999 255.1 58.6999 254.7 58.8999C254.4 58.9999 254 59.0999 253.7 59.0999Z" fill="#15BEE6"/>
<path d="M258 63.6001H171.9V66.2001H258V63.6001Z" fill="#D9F4F9"/>
</g>
</g>
<defs>
<clipPath id="clip0_4_2219">
<rect width="1521" height="255" fill="white"/>
</clipPath>
</defs>
</svg>
