<svg width="1521" height="255" viewBox="0 0 1521 255" fill="none" xmlns="http://www.w3.org/2000/svg">
<g clip-path="url(#clip0_4_2068)">
<path d="M1521 0H0V255H1521V0Z" fill="white"/>
<mask id="mask0_4_2068" style="mask-type:luminance" maskUnits="userSpaceOnUse" x="0" y="0" width="1521" height="255">
<path d="M1521 0H0V255H1521V0Z" fill="white"/>
</mask>
<g mask="url(#mask0_4_2068)">
<path d="M57.7 103.6V98.5999H84.1999V103.6H73.9V131.8H67.9V103.6H57.7Z" fill="#77809C"/>
<path d="M94.4999 117.2V131.8H88.5999V98.5999H94.2999V111.1H94.5999C95.1999 109.7 96.0999 108.6 97.2999 107.8C98.4999 107 100.1 106.6 102 106.6C103.7 106.6 105.2 107 106.5 107.7C107.8 108.4 108.8 109.5 109.5 110.9C110.2 112.3 110.6 114 110.6 116V131.9H104.7V116.9C104.7 115.2 104.3 113.9 103.4 113C102.5 112.1 101.3 111.6 99.7999 111.6C98.7999 111.6 97.7999 111.8 96.9999 112.3C96.1999 112.7 95.4999 113.4 95.0999 114.2C94.6999 115 94.4999 116 94.4999 117.2Z" fill="#77809C"/>
<path d="M127.2 132.3C124.7 132.3 122.5 131.8 120.7 130.7C118.9 129.7 117.5 128.2 116.5 126.3C115.5 124.4 115 122.1 115 119.5C115 116.9 115.5 114.7 116.5 112.7C117.5 110.8 118.8 109.2 120.6 108.2C122.4 107.2 124.4 106.6 126.8 106.6C128.3 106.6 129.8 106.8 131.2 107.3C132.6 107.8 133.8 108.6 134.8 109.6C135.9 110.6 136.7 111.9 137.3 113.5C137.9 115.1 138.2 117 138.2 119.2V121H117.8V117H132.6C132.6 115.9 132.3 114.9 131.9 114C131.4 113.1 130.8 112.4 129.9 111.9C129.1 111.4 128.1 111.1 126.9 111.1C125.7 111.1 124.6 111.4 123.7 112C122.8 112.6 122.1 113.3 121.6 114.3C121.1 115.3 120.8 116.3 120.8 117.4V120.9C120.8 122.3 121.1 123.6 121.6 124.6C122.1 125.6 122.9 126.4 123.8 127C124.8 127.5 125.9 127.8 127.1 127.8C128 127.8 128.7 127.7 129.4 127.4C130.1 127.2 130.7 126.8 131.2 126.3C131.7 125.8 132.1 125.2 132.4 124.5L137.9 125.1C137.6 126.5 136.9 127.8 135.9 128.9C134.9 130 133.7 130.8 132.2 131.4C130.8 132 129.1 132.3 127.2 132.3Z" fill="#77809C"/>
<path d="M175.9 106.9L167 131.8H160.5L151.6 106.9H157.9L163.6 125.4H163.9L169.6 106.9H175.9Z" fill="#77809C"/>
<path d="M186.7 132.3C185.1 132.3 183.7 132 182.4 131.4C181.1 130.8 180.1 130 179.4 128.9C178.7 127.8 178.3 126.4 178.3 124.8C178.3 123.4 178.6 122.2 179.1 121.3C179.6 120.4 180.3 119.6 181.2 119.1C182.1 118.5 183.1 118.1 184.2 117.8C185.3 117.5 186.5 117.3 187.7 117.2C189.2 117 190.3 116.9 191.3 116.8C192.3 116.7 192.9 116.5 193.3 116.2C193.7 115.9 193.9 115.5 193.9 115V114.9C193.9 113.7 193.5 112.7 192.8 112.1C192.1 111.4 191 111.1 189.7 111.1C188.3 111.1 187.1 111.4 186.3 112C185.5 112.6 184.9 113.4 184.6 114.2L179.1 113.4C179.5 111.9 180.2 110.6 181.2 109.6C182.2 108.6 183.4 107.8 184.8 107.3C186.2 106.8 187.8 106.5 189.6 106.5C190.8 106.5 192 106.6 193.2 106.9C194.4 107.2 195.5 107.6 196.5 108.3C197.5 109 198.3 109.8 198.9 110.9C199.5 112 199.8 113.4 199.8 115V131.7H194.2V128.3H194C193.6 129 193.1 129.6 192.5 130.2C191.9 130.8 191.1 131.3 190.1 131.6C189.1 132.1 188 132.3 186.7 132.3ZM188.2 128C189.4 128 190.4 127.8 191.3 127.3C192.2 126.8 192.8 126.2 193.3 125.4C193.8 124.6 194 123.8 194 122.9V120C193.8 120.2 193.5 120.3 193.1 120.4C192.7 120.5 192.2 120.6 191.6 120.7C191.1 120.8 190.5 120.9 190 121C189.5 121.1 189 121.1 188.6 121.2C187.7 121.3 186.9 121.5 186.2 121.8C185.5 122.1 185 122.4 184.6 122.9C184.2 123.4 184 124 184 124.8C184 125.9 184.4 126.7 185.2 127.2C186 127.7 187 128 188.2 128Z" fill="#77809C"/>
<path d="M211.1 98.5999V131.8H205.2V98.5999H211.1Z" fill="#77809C"/>
<path d="M232.6 121.3V106.9H238.5V131.8H232.8V127.4H232.5C231.9 128.8 231 129.9 229.7 130.8C228.4 131.7 226.8 132.1 225 132.1C223.4 132.1 221.9 131.7 220.7 131C219.5 130.3 218.5 129.2 217.8 127.8C217.1 126.4 216.7 124.7 216.7 122.7V106.8H222.6V121.8C222.6 123.4 223 124.6 223.9 125.6C224.8 126.5 225.9 127 227.3 127C228.2 127 229 126.8 229.8 126.4C230.6 126 231.3 125.3 231.8 124.5C232.3 123.6 232.6 122.6 232.6 121.3Z" fill="#77809C"/>
<path d="M255.1 132.3C252.6 132.3 250.4 131.8 248.6 130.7C246.8 129.7 245.4 128.2 244.4 126.3C243.4 124.4 242.9 122.1 242.9 119.5C242.9 116.9 243.4 114.7 244.4 112.7C245.4 110.8 246.7 109.2 248.5 108.2C250.3 107.2 252.3 106.6 254.7 106.6C256.2 106.6 257.7 106.8 259.1 107.3C260.5 107.8 261.7 108.6 262.7 109.6C263.8 110.6 264.6 111.9 265.2 113.5C265.8 115.1 266.1 117 266.1 119.2V121H245.7V117H260.5C260.5 115.9 260.2 114.9 259.8 114C259.3 113.1 258.7 112.4 257.8 111.9C257 111.4 256 111.1 254.8 111.1C253.6 111.1 252.5 111.4 251.6 112C250.7 112.6 250 113.3 249.5 114.3C249 115.3 248.7 116.3 248.7 117.4V120.9C248.7 122.3 249 123.6 249.5 124.6C250 125.6 250.8 126.4 251.7 127C252.7 127.5 253.8 127.8 255 127.8C255.9 127.8 256.6 127.7 257.3 127.4C258 127.2 258.6 126.8 259.1 126.3C259.6 125.8 260 125.2 260.3 124.5L265.8 125.1C265.5 126.5 264.8 127.8 263.8 128.9C262.8 130 261.6 130.8 260.1 131.4C258.7 132 257 132.3 255.1 132.3Z" fill="#77809C"/>
<path d="M292.4 132.3C290 132.3 287.9 131.8 286.1 130.7C284.3 129.6 282.9 128.1 282 126.2C281 124.3 280.5 122 280.5 119.5C280.5 116.9 281 114.7 282 112.7C283 110.8 284.4 109.3 286.1 108.2C287.9 107.1 290 106.6 292.4 106.6C294.8 106.6 296.9 107.1 298.7 108.2C300.5 109.3 301.9 110.8 302.8 112.7C303.8 114.6 304.3 116.9 304.3 119.5C304.3 122.1 303.8 124.3 302.8 126.2C301.8 128.1 300.4 129.6 298.7 130.7C297 131.7 294.9 132.3 292.4 132.3ZM292.5 127.6C293.8 127.6 294.9 127.2 295.8 126.5C296.7 125.8 297.3 124.8 297.8 123.6C298.2 122.4 298.5 121 298.5 119.5C298.5 118 298.3 116.6 297.8 115.4C297.3 114.2 296.7 113.2 295.8 112.4C294.9 111.7 293.8 111.3 292.5 111.3C291.1 111.3 290 111.7 289.1 112.4C288.2 113.1 287.5 114.1 287.1 115.4C286.7 116.7 286.4 118 286.4 119.5C286.4 121 286.6 122.4 287.1 123.6C287.5 124.8 288.2 125.8 289.1 126.5C290 127.2 291.1 127.6 292.5 127.6Z" fill="#77809C"/>
<path d="M321.5 106.9V111.4H306.8V106.9H321.5ZM310.4 131.8V104.5C310.4 102.8 310.7 101.4 311.4 100.3C312.1 99.2 313 98.4 314.2 97.8C315.4 97.2 316.7 97 318.1 97C319.1 97 320 97.1 320.8 97.2C321.6 97.4 322.2 97.5 322.6 97.6L321.4 102.1C321.2 102 320.8 101.9 320.5 101.9C320.2 101.9 319.7 101.8 319.2 101.8C318.1 101.8 317.3 102.1 316.9 102.6C316.5 103.1 316.2 103.9 316.2 104.8V131.7H310.4V131.8Z" fill="#77809C"/>
<path d="M342.8 98.5999V131.8H336.8V98.5999H342.8Z" fill="#77809C"/>
<path d="M377.3 109.8H371.2C371 108.8 370.7 107.9 370.2 107.1C369.7 106.3 369.2 105.7 368.5 105.1C367.8 104.6 367 104.2 366.1 103.9C365.2 103.6 364.3 103.5 363.3 103.5C361.5 103.5 359.9 104 358.5 104.9C357.1 105.8 356 107.1 355.2 108.9C354.4 110.6 354 112.8 354 115.3C354 117.8 354.4 120 355.2 121.7C356 123.4 357.1 124.7 358.5 125.6C359.9 126.5 361.5 126.9 363.3 126.9C364.3 126.9 365.2 126.8 366.1 126.5C367 126.2 367.8 125.8 368.5 125.3C369.2 124.8 369.8 124.1 370.3 123.4C370.8 122.6 371.1 121.8 371.3 120.8H377.4C377.2 122.4 376.7 123.9 375.9 125.2C375.1 126.6 374.2 127.8 373 128.9C371.8 130 370.4 130.8 368.8 131.4C367.2 132 365.4 132.3 363.4 132.3C360.5 132.3 357.9 131.6 355.6 130.3C353.3 129 351.5 127 350.2 124.4C348.9 121.8 348.2 118.8 348.2 115.2C348.2 111.6 348.9 108.6 350.2 106C351.5 103.5 353.3 101.5 355.6 100.2C357.9 98.8 360.5 98.2 363.4 98.2C365.2 98.2 367 98.5 368.6 99C370.2 99.5 371.6 100.3 372.8 101.3C374 102.3 375.1 103.5 375.9 105C376.7 106.5 377.1 107.9 377.3 109.8Z" fill="#77809C"/>
<path d="M380.9 103.6V98.5999H407.4V103.6H397.1V131.8H391.1V103.6H380.9Z" fill="#77809C"/>
<path d="M433.5 141.6C431.4 141.6 429.6 141.3 428.1 140.7C426.6 140.1 425.4 139.4 424.5 138.4C423.6 137.4 422.9 136.4 422.6 135.2L427.9 133.9C428.1 134.4 428.5 134.9 428.9 135.4C429.4 135.9 430 136.3 430.7 136.6C431.5 136.9 432.4 137.1 433.6 137.1C435.3 137.1 436.6 136.7 437.7 135.9C438.8 135.1 439.3 133.8 439.3 131.9V127.2H439C438.7 127.8 438.3 128.4 437.7 129.1C437.1 129.7 436.4 130.3 435.4 130.7C434.5 131.1 433.3 131.3 431.8 131.3C429.9 131.3 428.2 130.8 426.6 129.9C425 129 423.8 127.6 422.9 125.8C422 124 421.5 121.7 421.5 119C421.5 116.3 422 114 422.9 112.1C423.8 110.2 425 108.8 426.6 107.8C428.2 106.8 429.9 106.3 431.8 106.3C433.3 106.3 434.5 106.5 435.4 107C436.3 107.5 437.1 108.1 437.7 108.8C438.3 109.5 438.7 110.1 439 110.7H439.3V106.6H445.1V131.9C445.1 134 444.6 135.8 443.6 137.2C442.6 138.6 441.2 139.6 439.4 140.3C437.6 141 435.8 141.6 433.5 141.6ZM433.6 126.8C434.8 126.8 435.9 126.5 436.8 125.9C437.7 125.3 438.3 124.4 438.8 123.3C439.3 122.2 439.5 120.8 439.5 119.2C439.5 117.6 439.3 116.3 438.8 115.1C438.4 113.9 437.7 113 436.8 112.4C435.9 111.8 434.9 111.4 433.6 111.4C432.3 111.4 431.2 111.7 430.3 112.4C429.4 113.1 428.8 114 428.3 115.2C427.9 116.4 427.6 117.7 427.6 119.2C427.6 120.7 427.8 122.1 428.3 123.2C428.7 124.3 429.4 125.2 430.3 125.9C431.2 126.5 432.3 126.8 433.6 126.8Z" fill="#77809C"/>
<path d="M450.8 131.8V106.9H456.5V111.1H456.8C457.3 109.7 458 108.6 459.1 107.8C460.2 107 461.5 106.6 462.9 106.6C463.2 106.6 463.6 106.6 464 106.6C464.4 106.6 464.7 106.7 465 106.7V112.1C464.8 112 464.4 111.9 463.8 111.9C463.2 111.9 462.7 111.8 462.3 111.8C461.2 111.8 460.3 112 459.4 112.5C458.5 113 457.9 113.6 457.4 114.4C456.9 115.2 456.7 116.1 456.7 117.2V131.8H450.8Z" fill="#77809C"/>
<path d="M479.5 132.3C477 132.3 474.8 131.8 473 130.7C471.2 129.7 469.8 128.2 468.8 126.3C467.8 124.4 467.3 122.1 467.3 119.5C467.3 116.9 467.8 114.7 468.8 112.7C469.8 110.8 471.1 109.2 472.9 108.2C474.7 107.2 476.7 106.6 479.1 106.6C480.6 106.6 482.1 106.8 483.5 107.3C484.9 107.8 486.1 108.6 487.1 109.6C488.2 110.6 489 111.9 489.6 113.5C490.2 115.1 490.5 117 490.5 119.2V121H470.1V117H484.9C484.9 115.9 484.6 114.9 484.2 114C483.7 113.1 483.1 112.4 482.2 111.9C481.4 111.4 480.4 111.1 479.2 111.1C478 111.1 476.9 111.4 476 112C475.1 112.6 474.4 113.3 473.9 114.3C473.4 115.3 473.1 116.3 473.1 117.4V120.9C473.1 122.3 473.4 123.6 473.9 124.6C474.4 125.6 475.2 126.4 476.1 127C477.1 127.5 478.2 127.8 479.4 127.8C480.3 127.8 481 127.7 481.7 127.4C482.4 127.2 483 126.8 483.5 126.3C484 125.8 484.4 125.2 484.7 124.5L490.2 125.1C489.9 126.5 489.2 127.8 488.2 128.9C487.2 130 486 130.8 484.5 131.4C483.2 132 481.4 132.3 479.5 132.3Z" fill="#77809C"/>
<path d="M506.1 132.3C503.6 132.3 501.4 131.8 499.6 130.7C497.8 129.7 496.4 128.2 495.4 126.3C494.4 124.4 493.9 122.1 493.9 119.5C493.9 116.9 494.4 114.7 495.4 112.7C496.4 110.8 497.7 109.2 499.5 108.2C501.3 107.2 503.3 106.6 505.7 106.6C507.2 106.6 508.7 106.8 510.1 107.3C511.5 107.8 512.7 108.6 513.7 109.6C514.8 110.6 515.6 111.9 516.2 113.5C516.8 115.1 517.1 117 517.1 119.2V121H496.7V117H511.5C511.5 115.9 511.2 114.9 510.8 114C510.3 113.1 509.7 112.4 508.8 111.9C508 111.4 507 111.1 505.8 111.1C504.6 111.1 503.5 111.4 502.6 112C501.7 112.6 501 113.3 500.5 114.3C500 115.3 499.7 116.3 499.7 117.4V120.9C499.7 122.3 500 123.6 500.5 124.6C501 125.6 501.8 126.4 502.7 127C503.7 127.5 504.8 127.8 506 127.8C506.9 127.8 507.6 127.7 508.3 127.4C509 127.2 509.6 126.8 510.1 126.3C510.6 125.8 511 125.2 511.3 124.5L516.8 125.1C516.5 126.5 515.8 127.8 514.8 128.9C513.8 130 512.6 130.8 511.1 131.4C509.8 132 508 132.3 506.1 132.3Z" fill="#77809C"/>
<path d="M527.6 117.2V131.8H521.7V106.9H527.3V111.1H527.6C528.2 109.7 529.1 108.6 530.3 107.8C531.6 107 533.1 106.6 535 106.6C536.7 106.6 538.2 107 539.5 107.7C540.8 108.4 541.8 109.5 542.5 110.9C543.2 112.3 543.6 114 543.5 116V131.9H537.6V116.9C537.6 115.2 537.2 113.9 536.3 113C535.4 112.1 534.3 111.6 532.7 111.6C531.7 111.6 530.8 111.8 530 112.3C529.2 112.7 528.6 113.4 528.1 114.2C527.6 115 527.6 116 527.6 117.2Z" fill="#77809C"/>
<path d="M561.7 106.9V111.4H547V106.9H561.7ZM550.7 131.8V104.5C550.7 102.8 551 101.4 551.7 100.3C552.4 99.2 553.3 98.4 554.5 97.8C555.7 97.2 557 97 558.4 97C559.4 97 560.3 97.1 561.1 97.2C561.9 97.4 562.5 97.5 562.9 97.6L561.7 102.1C561.5 102 561.1 101.9 560.8 101.9C560.5 101.9 560 101.8 559.5 101.8C558.4 101.8 557.6 102.1 557.2 102.6C556.8 103.1 556.5 103.9 556.5 104.8V131.7H550.7V131.8Z" fill="#77809C"/>
<path d="M568.8 103.3C567.9 103.3 567.1 103 566.4 102.4C565.7 101.8 565.4 101 565.4 100.1C565.4 99.2 565.7 98.5 566.4 97.9C567.1 97.3 567.9 97 568.8 97C569.7 97 570.5 97.3 571.2 97.9C571.9 98.5 572.2 99.3 572.2 100.2C572.2 101.1 571.9 101.8 571.2 102.4C570.6 103 569.8 103.3 568.8 103.3ZM565.9 131.8V106.9H571.8V131.8H565.9Z" fill="#77809C"/>
<path d="M588.3 132.3C585.8 132.3 583.6 131.8 581.8 130.7C580 129.7 578.6 128.2 577.6 126.3C576.6 124.4 576.1 122.1 576.1 119.5C576.1 116.9 576.6 114.7 577.6 112.7C578.6 110.8 579.9 109.2 581.7 108.2C583.5 107.2 585.5 106.6 587.9 106.6C589.4 106.6 590.9 106.8 592.3 107.3C593.7 107.8 594.9 108.6 595.9 109.6C597 110.6 597.8 111.9 598.4 113.5C599 115.1 599.3 117 599.3 119.2V121H579V117H593.8C593.8 115.9 593.5 114.9 593.1 114C592.6 113.1 592 112.4 591.1 111.9C590.3 111.4 589.3 111.1 588.1 111.1C586.9 111.1 585.8 111.4 584.9 112C584 112.6 583.3 113.3 582.8 114.3C582.3 115.3 582 116.3 582 117.4V120.9C582 122.3 582.3 123.6 582.8 124.6C583.3 125.6 584.1 126.4 585 127C586 127.5 587.1 127.8 588.3 127.8C589.2 127.8 589.9 127.7 590.6 127.4C591.3 127.2 591.9 126.8 592.4 126.3C592.9 125.8 593.3 125.2 593.6 124.5L599.1 125.1C598.8 126.5 598.1 127.8 597.1 128.9C596.1 130 594.9 130.8 593.4 131.4C592 132 590.3 132.3 588.3 132.3Z" fill="#77809C"/>
<path d="M609.8 98.5999V131.8H603.9V98.5999H609.8Z" fill="#77809C"/>
<path d="M624.6 132.2C622.6 132.2 620.9 131.7 619.3 130.7C617.8 129.7 616.5 128.2 615.6 126.3C614.7 124.4 614.3 122.1 614.3 119.3C614.3 116.5 614.8 114.2 615.7 112.3C616.6 110.4 617.8 108.9 619.4 108C621 107 622.7 106.5 624.6 106.5C626.1 106.5 627.3 106.7 628.2 107.2C629.1 107.7 629.9 108.3 630.4 109C631 109.7 631.4 110.3 631.7 110.9H631.9V98.5999H637.8V131.8H632V127.9H631.6C631.3 128.5 630.9 129.1 630.3 129.8C629.7 130.5 629 131.1 628 131.5C627.2 132 626.1 132.2 624.6 132.2ZM626.3 127.4C627.5 127.4 628.6 127.1 629.5 126.4C630.4 125.7 631 124.8 631.5 123.6C632 122.4 632.2 121 632.2 119.4C632.2 117.8 632 116.4 631.5 115.2C631 114 630.4 113.1 629.5 112.4C628.6 111.7 627.6 111.4 626.3 111.4C625 111.4 623.9 111.7 623 112.4C622.1 113.1 621.5 114 621 115.2C620.5 116.4 620.3 117.8 620.3 119.3C620.3 120.9 620.5 122.2 621 123.5C621.4 124.7 622.1 125.7 623 126.4C623.9 127.1 625 127.4 626.3 127.4Z" fill="#77809C"/>
<path d="M654.6 141.1V106.8H660.4V110.9H660.7C661 110.3 661.4 109.6 662 109C662.6 108.3 663.3 107.7 664.2 107.2C665.1 106.7 666.3 106.5 667.8 106.5C669.7 106.5 671.5 107 673 108C674.5 109 675.8 110.4 676.7 112.3C677.6 114.2 678.1 116.5 678.1 119.3C678.1 122 677.7 124.4 676.8 126.3C675.9 128.2 674.7 129.7 673.1 130.7C671.5 131.7 669.8 132.2 667.8 132.2C666.4 132.2 665.2 132 664.2 131.5C663.3 131 662.5 130.4 661.9 129.8C661.3 129.1 660.9 128.5 660.6 127.9H660.4V141.2H654.6V141.1ZM660.4 119.3C660.4 120.9 660.6 122.3 661.1 123.5C661.6 124.7 662.2 125.7 663.1 126.3C664 126.9 665 127.3 666.3 127.3C667.6 127.3 668.7 127 669.6 126.3C670.5 125.6 671.1 124.6 671.6 123.4C672 122.2 672.3 120.8 672.3 119.2C672.3 117.7 672.1 116.3 671.6 115.1C671.2 113.9 670.5 113 669.6 112.3C668.7 111.6 667.6 111.3 666.3 111.3C665 111.3 664 111.6 663.1 112.3C662.2 113 661.6 113.9 661.1 115.1C660.6 116.3 660.4 117.7 660.4 119.3Z" fill="#77809C"/>
<path d="M682.7 131.8V106.9H688.4V111.1H688.7C689.2 109.7 689.9 108.6 691 107.8C692.1 107 693.4 106.6 694.8 106.6C695.1 106.6 695.5 106.6 695.9 106.6C696.3 106.6 696.6 106.7 696.9 106.7V112.1C696.7 112 696.3 111.9 695.7 111.9C695.1 111.9 694.6 111.8 694.2 111.8C693.1 111.8 692.2 112 691.3 112.5C690.4 113 689.8 113.6 689.3 114.4C688.8 115.2 688.6 116.1 688.6 117.2V131.8H682.7Z" fill="#77809C"/>
<path d="M711.2 132.3C708.8 132.3 706.7 131.8 704.9 130.7C703.1 129.6 701.7 128.1 700.8 126.2C699.8 124.3 699.3 122 699.3 119.5C699.3 116.9 699.8 114.7 700.8 112.7C701.8 110.8 703.2 109.3 704.9 108.2C706.7 107.1 708.8 106.6 711.2 106.6C713.6 106.6 715.7 107.1 717.5 108.2C719.3 109.3 720.7 110.8 721.6 112.7C722.6 114.6 723.1 116.9 723.1 119.5C723.1 122.1 722.6 124.3 721.6 126.2C720.6 128.1 719.2 129.6 717.5 130.7C715.7 131.7 713.6 132.3 711.2 132.3ZM711.2 127.6C712.5 127.6 713.6 127.2 714.5 126.5C715.4 125.8 716 124.8 716.5 123.6C716.9 122.4 717.2 121 717.2 119.5C717.2 118 717 116.6 716.5 115.4C716 114.2 715.4 113.2 714.5 112.4C713.6 111.7 712.5 111.3 711.2 111.3C709.8 111.3 708.7 111.7 707.8 112.4C706.9 113.1 706.2 114.1 705.8 115.4C705.4 116.7 705.1 118 705.1 119.5C705.1 121 705.3 122.4 705.8 123.6C706.2 124.8 706.9 125.8 707.8 126.5C708.8 127.2 709.9 127.6 711.2 127.6Z" fill="#77809C"/>
<path d="M727.7 106.9H733.6V133.2C733.6 135 733.3 136.5 732.6 137.6C731.9 138.8 730.9 139.6 729.6 140.2C728.3 140.8 726.8 141.1 724.9 141.1C724.7 141.1 724.5 141.1 724.3 141.1C724.1 141.1 723.9 141.1 723.7 141.1V136.3C723.9 136.3 724 136.3 724.1 136.3C724.2 136.3 724.4 136.3 724.5 136.3C725.6 136.3 726.4 136 726.9 135.5C727.4 135 727.6 134.2 727.6 133.1V106.9H727.7ZM730.6 103.3C729.7 103.3 728.9 103 728.2 102.4C727.5 101.8 727.2 101 727.2 100.2C727.2 99.3 727.5 98.6 728.2 97.9C728.9 97.2 729.7 97 730.6 97C731.5 97 732.3 97.3 733 97.9C733.7 98.5 734 99.3 734 100.2C734 101.1 733.7 101.8 733 102.4C732.3 103 731.5 103.3 730.6 103.3Z" fill="#77809C"/>
<path d="M750.1 132.3C747.6 132.3 745.4 131.8 743.6 130.7C741.8 129.7 740.4 128.2 739.4 126.3C738.4 124.4 737.9 122.1 737.9 119.5C737.9 116.9 738.4 114.7 739.4 112.7C740.4 110.8 741.7 109.2 743.5 108.2C745.3 107.2 747.3 106.6 749.7 106.6C751.2 106.6 752.7 106.8 754.1 107.3C755.5 107.8 756.7 108.6 757.7 109.6C758.8 110.6 759.6 111.9 760.2 113.5C760.8 115.1 761.1 117 761.1 119.2V121H740.7V117H755.5C755.5 115.9 755.2 114.9 754.8 114C754.3 113.1 753.7 112.4 752.8 111.9C752 111.4 751 111.1 749.8 111.1C748.6 111.1 747.5 111.4 746.6 112C745.7 112.6 745 113.3 744.5 114.3C744 115.3 743.7 116.3 743.7 117.4V120.9C743.7 122.3 744 123.6 744.5 124.6C745 125.6 745.8 126.4 746.7 127C747.7 127.5 748.8 127.8 750 127.8C750.9 127.8 751.6 127.7 752.3 127.4C753 127.2 753.6 126.8 754.1 126.3C754.6 125.8 755 125.2 755.3 124.5L760.8 125.1C760.5 126.5 759.8 127.8 758.8 128.9C757.8 130 756.6 130.8 755.1 131.4C753.8 132 752.1 132.3 750.1 132.3Z" fill="#77809C"/>
<path d="M776.6 132.3C774.1 132.3 772 131.8 770.2 130.7C768.4 129.6 767.1 128.1 766.1 126.2C765.1 124.3 764.7 122 764.7 119.5C764.7 117 765.2 114.7 766.2 112.8C767.2 110.9 768.5 109.3 770.3 108.3C772.1 107.3 774.2 106.7 776.6 106.7C778.6 106.7 780.4 107.1 782 107.8C783.6 108.5 784.8 109.6 785.7 110.9C786.6 112.2 787.2 113.8 787.3 115.6H781.7C781.5 114.4 780.9 113.4 780.1 112.6C779.3 111.8 778.1 111.4 776.7 111.4C775.5 111.4 774.4 111.7 773.5 112.4C772.6 113 771.9 114 771.4 115.2C770.9 116.4 770.6 117.8 770.6 119.5C770.6 121.2 770.8 122.7 771.3 123.9C771.8 125.1 772.5 126.1 773.4 126.7C774.3 127.3 775.4 127.7 776.6 127.7C777.5 127.7 778.2 127.5 778.9 127.2C779.6 126.9 780.2 126.4 780.6 125.8C781.1 125.2 781.4 124.4 781.6 123.5H787.2C787.1 125.3 786.5 126.8 785.6 128.2C784.7 129.6 783.5 130.6 781.9 131.4C780.5 131.9 778.7 132.3 776.6 132.3Z" fill="#77809C"/>
<path d="M804.1 106.9V111.4H789.8V106.9H804.1ZM793.3 100.9H799.2V124.3C799.2 125.1 799.3 125.7 799.6 126.1C799.8 126.5 800.2 126.8 800.6 127C801 127.2 801.4 127.2 801.9 127.2C802.3 127.2 802.6 127.2 802.9 127.1C803.2 127 803.4 127 803.6 127L804.6 131.6C804.3 131.7 803.8 131.8 803.3 132C802.7 132.1 802 132.2 801.2 132.2C799.7 132.2 798.4 132 797.2 131.5C796 131 795.1 130.2 794.4 129.2C793.7 128.2 793.4 126.9 793.4 125.3V100.9H793.3Z" fill="#77809C"/>
<path d="M828.2 113.5L822.8 114.1C822.6 113.6 822.4 113.1 822 112.6C821.6 112.1 821.1 111.7 820.5 111.4C819.9 111.1 819.1 111 818.2 111C817 111 816 111.3 815.1 111.8C814.3 112.3 813.9 113 813.9 113.9C813.9 114.6 814.2 115.2 814.7 115.7C815.2 116.2 816.2 116.5 817.4 116.8L821.6 117.7C824 118.2 825.7 119 826.9 120.1C828.1 121.2 828.6 122.6 828.6 124.4C828.6 126 828.1 127.4 827.2 128.5C826.3 129.7 825 130.6 823.4 131.3C821.8 132 820 132.3 817.9 132.3C814.9 132.3 812.4 131.7 810.5 130.4C808.6 129.1 807.5 127.3 807.2 125L812.9 124.4C813.2 125.5 813.7 126.4 814.6 126.9C815.5 127.4 816.5 127.8 817.9 127.8C819.3 127.8 820.4 127.5 821.3 126.9C822.1 126.3 822.6 125.6 822.6 124.8C822.6 124.1 822.3 123.5 821.8 123C821.3 122.5 820.4 122.2 819.3 121.9L815 121C812.6 120.5 810.8 119.7 809.7 118.5C808.6 117.3 808 115.8 808 114C808 112.5 808.4 111.1 809.3 110C810.2 108.9 811.3 108 812.9 107.4C814.4 106.8 816.2 106.5 818.2 106.5C821.1 106.5 823.4 107.1 825.1 108.4C826.8 109.7 827.8 111.3 828.2 113.5Z" fill="#77809C"/>
<path d="M849.2 131.8L842.2 106.9H848.2L852.6 124.4H852.8L857.3 106.9H863.2L867.7 124.3H867.9L872.2 106.9H878.2L871.1 131.8H865L860.3 115H860L855.3 131.8H849.2Z" fill="#77809C"/>
<path d="M889 132.3C887.4 132.3 886 132 884.7 131.4C883.4 130.8 882.4 130 881.7 128.9C881 127.8 880.6 126.4 880.6 124.8C880.6 123.4 880.9 122.2 881.4 121.3C881.9 120.4 882.6 119.6 883.5 119.1C884.4 118.5 885.4 118.1 886.5 117.8C887.6 117.5 888.8 117.3 890 117.2C891.5 117 892.6 116.9 893.6 116.8C894.6 116.7 895.2 116.5 895.6 116.2C896 115.9 896.2 115.5 896.2 115V114.9C896.2 113.7 895.8 112.7 895.1 112.1C894.4 111.4 893.3 111.1 892 111.1C890.6 111.1 889.4 111.4 888.6 112C887.8 112.6 887.2 113.4 886.9 114.2L881.4 113.4C881.8 111.9 882.5 110.6 883.5 109.6C884.5 108.6 885.7 107.8 887.1 107.3C888.5 106.8 890.1 106.5 891.9 106.5C893.1 106.5 894.3 106.6 895.5 106.9C896.7 107.2 897.8 107.6 898.8 108.3C899.8 109 900.6 109.8 901.2 110.9C901.8 112 902.1 113.4 902.1 115V131.7H896.5V128.3H896.3C895.9 129 895.4 129.6 894.8 130.2C894.2 130.8 893.4 131.3 892.4 131.6C891.4 132.1 890.3 132.3 889 132.3ZM890.5 128C891.7 128 892.7 127.8 893.6 127.3C894.5 126.8 895.1 126.2 895.6 125.4C896.1 124.6 896.3 123.8 896.3 122.9V120C896.1 120.2 895.8 120.3 895.4 120.4C895 120.5 894.5 120.6 893.9 120.7C893.4 120.8 892.8 120.9 892.3 121C891.8 121.1 891.3 121.1 890.9 121.2C890 121.3 889.2 121.5 888.5 121.8C887.8 122.1 887.3 122.4 886.9 122.9C886.5 123.4 886.3 124 886.3 124.8C886.3 125.9 886.7 126.7 887.5 127.2C888.3 127.7 889.3 128 890.5 128Z" fill="#77809C"/>
<path d="M927.3 113.5L922 114C921.8 113.5 921.6 113 921.2 112.5C920.8 112 920.3 111.6 919.7 111.3C919.1 111 918.3 110.9 917.4 110.9C916.2 110.9 915.2 111.2 914.3 111.7C913.5 112.2 913.1 112.9 913.1 113.8C913.1 114.5 913.4 115.1 913.9 115.6C914.4 116.1 915.4 116.4 916.6 116.7L920.8 117.6C923.2 118.1 924.9 118.9 926.1 120C927.3 121.1 927.8 122.5 927.8 124.3C927.8 125.9 927.3 127.3 926.4 128.4C925.5 129.6 924.2 130.5 922.6 131.2C921 131.9 919.2 132.2 917.1 132.2C914.1 132.2 911.6 131.6 909.7 130.3C907.8 129 906.7 127.2 906.4 124.9L912.1 124.3C912.4 125.4 912.9 126.3 913.8 126.8C914.7 127.3 915.7 127.7 917.1 127.7C918.5 127.7 919.6 127.4 920.5 126.8C921.3 126.2 921.8 125.5 921.8 124.7C921.8 124 921.5 123.4 921 122.9C920.5 122.4 919.6 122.1 918.5 121.8L914.2 120.9C911.8 120.4 910 119.6 908.9 118.4C907.8 117.2 907.2 115.7 907.2 113.9C907.2 112.4 907.6 111 908.5 109.9C909.4 108.8 910.5 107.9 912.1 107.3C913.6 106.7 915.4 106.4 917.4 106.4C920.3 106.4 922.6 107 924.3 108.3C925.9 109.7 926.9 111.3 927.3 113.5Z" fill="#77809C"/>
<path d="M961.4 107.7C961.2 106.3 960.6 105.2 959.5 104.4C958.4 103.6 956.9 103.2 955.1 103.2C953.8 103.2 952.8 103.4 951.9 103.8C951 104.2 950.3 104.7 949.8 105.3C949.3 105.9 949.1 106.7 949.1 107.5C949.1 108.2 949.3 108.8 949.6 109.3C949.9 109.8 950.4 110.2 950.9 110.6C951.5 111 952.1 111.2 952.7 111.5C953.4 111.7 954 111.9 954.7 112.1L957.8 112.9C959.1 113.2 960.3 113.6 961.4 114.1C962.5 114.6 963.6 115.2 964.5 116C965.4 116.8 966.2 117.7 966.7 118.7C967.2 119.8 967.5 121 967.5 122.5C967.5 124.4 967 126.2 966 127.6C965 129.1 963.6 130.2 961.7 131.1C959.8 131.9 957.6 132.3 954.9 132.3C952.3 132.3 950.1 131.9 948.2 131.1C946.3 130.3 944.8 129.1 943.8 127.6C942.7 126.1 942.2 124.2 942.1 122H948C948.1 123.2 948.4 124.1 949.1 124.9C949.7 125.7 950.5 126.2 951.6 126.6C952.7 127 953.7 127.2 955 127.2C956.3 127.2 957.5 127 958.4 126.6C959.4 126.2 960.2 125.7 960.7 124.9C961.3 124.2 961.5 123.4 961.6 122.4C961.6 121.5 961.3 120.8 960.8 120.3C960.3 119.8 959.6 119.3 958.7 118.9C957.8 118.5 956.8 118.2 955.6 117.9L951.8 116.9C949.1 116.2 946.9 115.1 945.3 113.7C943.7 112.3 942.9 110.4 942.9 108C942.9 106 943.4 104.3 944.5 102.9C945.6 101.4 947 100.3 948.9 99.4999C950.7 98.6999 952.8 98.2999 955.1 98.2999C957.5 98.2999 959.5 98.6999 961.3 99.4999C963.1 100.3 964.5 101.4 965.5 102.9C966.5 104.3 967 106 967.1 107.9H961.4V107.7ZM953.8 135.9V94.3999H956.5V135.9H953.8Z" fill="#242438"/>
<path d="M985.8 98.5999V131.8H979.8V104.4H979.6L971.8 109.4V103.9L980.1 98.5999H985.8Z" fill="#242438"/>
<path d="M1007.3 98.5999V131.8H1001.3V104.4H1001.1L993.3 109.4V103.9L1001.6 98.5999H1007.3Z" fill="#242438"/>
<path d="M1027.5 132.4C1024.8 132.4 1022.5 131.7 1020.6 130.4C1018.7 129 1017.2 127.1 1016.2 124.5C1015.2 121.9 1014.7 118.8 1014.7 115.2C1014.7 111.6 1015.2 108.5 1016.2 105.9C1017.2 103.4 1018.7 101.4 1020.6 100.1C1022.5 98.7999 1024.8 98.0999 1027.5 98.0999C1030.2 98.0999 1032.4 98.7999 1034.4 100.1C1036.4 101.4 1037.8 103.4 1038.8 105.9C1039.8 108.5 1040.3 111.5 1040.3 115.1C1040.3 118.7 1039.8 121.8 1038.8 124.4C1037.8 127 1036.3 128.9 1034.4 130.3C1032.5 131.7 1030.2 132.4 1027.5 132.4ZM1027.5 127.3C1029.6 127.3 1031.2 126.3 1032.4 124.2C1033.6 122.1 1034.2 119.1 1034.2 115.1C1034.2 112.5 1033.9 110.2 1033.4 108.4C1032.8 106.6 1032.1 105.3 1031.1 104.3C1030.1 103.4 1028.9 102.9 1027.5 102.9C1025.4 102.9 1023.8 103.9 1022.6 106C1021.4 108 1020.8 111.1 1020.8 115C1020.8 117.6 1021.1 119.9 1021.6 121.7C1022.1 123.5 1022.9 124.9 1023.9 125.8C1025 126.9 1026.2 127.3 1027.5 127.3Z" fill="#242438"/>
<path d="M59.2 186.6V153.4H71.9C74.3 153.4 76.3 153.8 77.9 154.5C79.5 155.3 80.7 156.3 81.5 157.6C82.2999 158.9 82.6999 160.4 82.6999 162C82.6999 163.4 82.4 164.5 81.9 165.5C81.4 166.5 80.7 167.2 79.8 167.8C78.9 168.4 77.9 168.8 76.9 169.1V169.4C78.1 169.5 79.2 169.8 80.3 170.5C81.4 171.2 82.2999 172.1 83 173.3C83.7 174.5 84 175.9 84 177.6C84 179.3 83.6 180.9 82.8 182.2C82 183.6 80.7 184.6 79 185.4C77.2999 186.2 75.1999 186.6 72.6999 186.6H59.2ZM65.1999 167.5H71.1999C72.1999 167.5 73.2 167.3 74 166.9C74.8 166.5 75.5 166 76 165.3C76.5 164.6 76.6999 163.8 76.6999 162.8C76.6999 161.5 76.2 160.5 75.3 159.6C74.4 158.8 73.1 158.4 71.3 158.4H65.1999V167.5ZM65.1999 181.6H71.6999C73.8999 181.6 75.5 181.2 76.4 180.3C77.4 179.5 77.9 178.4 77.9 177.1C77.9 176.1 77.6999 175.2 77.1999 174.4C76.6999 173.6 75.9999 173 75.0999 172.5C74.1999 172 73.1 171.8 71.9 171.8H65.3V181.6H65.1999Z" fill="#242438"/>
<path d="M91.4 158.1C90.5 158.1 89.7 157.8 89 157.2C88.3 156.6 88 155.8 88 154.9C88 154 88.3 153.3 89 152.7C89.7 152.1 90.5 151.8 91.4 151.8C92.3 151.8 93.1 152.1 93.8 152.7C94.5 153.3 94.8 154.1 94.8 155C94.8 155.9 94.5 156.6 93.8 157.2C93.2 157.8 92.4 158.1 91.4 158.1ZM88.5 186.6V161.7H94.4V186.6H88.5Z" fill="#242438"/>
<path d="M105.8 153.4V186.6H99.8999V153.4H105.8Z" fill="#242438"/>
<path d="M117.3 153.4V186.6H111.4V153.4H117.3Z" fill="#242438"/>
<path d="M125.8 158.1C124.9 158.1 124.1 157.8 123.4 157.2C122.7 156.6 122.4 155.8 122.4 154.9C122.4 154 122.7 153.3 123.4 152.7C124.1 152.1 124.9 151.8 125.8 151.8C126.7 151.8 127.5 152.1 128.2 152.7C128.9 153.3 129.2 154.1 129.2 155C129.2 155.9 128.9 156.6 128.2 157.2C127.5 157.8 126.7 158.1 125.8 158.1ZM122.8 186.6V161.7H128.7V186.6H122.8Z" fill="#242438"/>
<path d="M145.1 187.1C142.7 187.1 140.6 186.6 138.8 185.5C137 184.4 135.6 182.9 134.7 181C133.7 179.1 133.2 176.8 133.2 174.3C133.2 171.7 133.7 169.5 134.7 167.5C135.7 165.6 137.1 164.1 138.8 163C140.6 161.9 142.7 161.4 145.1 161.4C147.5 161.4 149.6 161.9 151.4 163C153.2 164.1 154.6 165.6 155.5 167.5C156.5 169.4 157 171.7 157 174.3C157 176.9 156.5 179.1 155.5 181C154.5 182.9 153.1 184.4 151.4 185.5C149.7 186.6 147.6 187.1 145.1 187.1ZM145.2 182.4C146.5 182.4 147.6 182 148.5 181.3C149.4 180.6 150 179.6 150.5 178.4C150.9 177.2 151.2 175.8 151.2 174.3C151.2 172.8 151 171.4 150.5 170.2C150 169 149.4 168 148.5 167.2C147.6 166.5 146.5 166.1 145.2 166.1C143.8 166.1 142.7 166.5 141.8 167.2C140.9 167.9 140.2 168.9 139.8 170.2C139.4 171.5 139.1 172.8 139.1 174.3C139.1 175.8 139.3 177.2 139.8 178.4C140.2 179.6 140.9 180.6 141.8 181.3C142.7 182 143.8 182.4 145.2 182.4Z" fill="#242438"/>
<path d="M167.5 172V186.6H161.6V161.7H167.2V165.9H167.5C168.1 164.5 169 163.4 170.2 162.6C171.5 161.8 173 161.4 174.9 161.4C176.6 161.4 178.1 161.8 179.4 162.5C180.7 163.2 181.7 164.3 182.4 165.7C183.1 167.1 183.5 168.8 183.4 170.8V186.7H177.5V171.7C177.5 170 177.1 168.7 176.2 167.8C175.3 166.9 174.2 166.4 172.6 166.4C171.6 166.4 170.7 166.6 169.9 167.1C169.1 167.5 168.5 168.2 168 169C167.5 169.8 167.5 170.8 167.5 172Z" fill="#242438"/>
<path d="M207 187.1C205.4 187.1 204 186.8 202.7 186.2C201.4 185.6 200.4 184.8 199.7 183.7C199 182.6 198.6 181.2 198.6 179.6C198.6 178.2 198.9 177 199.4 176.1C199.9 175.2 200.6 174.4 201.5 173.9C202.4 173.3 203.4 172.9 204.5 172.6C205.6 172.3 206.8 172.1 208 172C209.5 171.8 210.6 171.7 211.6 171.6C212.6 171.5 213.2 171.3 213.6 171C214 170.7 214.2 170.3 214.2 169.8V169.7C214.2 168.5 213.8 167.5 213.1 166.9C212.4 166.2 211.3 165.9 210 165.9C208.6 165.9 207.4 166.2 206.6 166.8C205.8 167.4 205.2 168.2 204.9 169L199.4 168.2C199.8 166.7 200.5 165.4 201.5 164.4C202.5 163.4 203.7 162.6 205.1 162.1C206.5 161.6 208.1 161.3 209.9 161.3C211.1 161.3 212.3 161.4 213.5 161.7C214.7 162 215.8 162.4 216.8 163.1C217.8 163.8 218.6 164.6 219.2 165.7C219.8 166.8 220.1 168.2 220.1 169.8V186.5H214.5V183.1H214.3C213.9 183.8 213.4 184.4 212.8 185C212.2 185.6 211.4 186.1 210.4 186.4C209.5 186.9 208.3 187.1 207 187.1ZM208.6 182.8C209.8 182.8 210.8 182.6 211.7 182.1C212.6 181.6 213.2 181 213.7 180.2C214.2 179.4 214.4 178.6 214.4 177.7V174.8C214.2 175 213.9 175.1 213.5 175.2C213.1 175.3 212.6 175.4 212 175.5C211.5 175.6 210.9 175.7 210.4 175.8C209.9 175.9 209.4 175.9 209 176C208.1 176.1 207.3 176.3 206.6 176.6C205.9 176.9 205.4 177.2 205 177.7C204.6 178.2 204.4 178.8 204.4 179.6C204.4 180.7 204.8 181.5 205.6 182C206.3 182.5 207.3 182.8 208.6 182.8Z" fill="#77809C"/>
<path d="M236.5 187.1C234 187.1 231.9 186.6 230.1 185.5C228.3 184.4 227 182.9 226 181C225 179.1 224.6 176.8 224.6 174.3C224.6 171.8 225.1 169.5 226.1 167.6C227.1 165.7 228.4 164.1 230.2 163.1C232 162.1 234.1 161.5 236.5 161.5C238.5 161.5 240.3 161.9 241.9 162.6C243.5 163.3 244.7 164.4 245.6 165.7C246.5 167 247.1 168.6 247.2 170.4H241.6C241.4 169.2 240.8 168.2 240 167.4C239.2 166.6 238 166.2 236.6 166.2C235.4 166.2 234.3 166.5 233.4 167.2C232.5 167.8 231.8 168.8 231.3 170C230.8 171.2 230.5 172.6 230.5 174.3C230.5 176 230.7 177.5 231.2 178.7C231.7 179.9 232.4 180.9 233.3 181.5C234.2 182.1 235.3 182.5 236.5 182.5C237.4 182.5 238.1 182.3 238.8 182C239.5 181.7 240.1 181.2 240.5 180.6C241 180 241.3 179.2 241.5 178.3H247.1C247 180.1 246.4 181.6 245.5 183C244.6 184.4 243.4 185.4 241.8 186.2C240.4 186.7 238.6 187.1 236.5 187.1Z" fill="#77809C"/>
<path d="M251.6 186.6V161.7H257.3V165.9H257.6C258.1 164.5 258.8 163.4 259.9 162.6C261 161.8 262.3 161.4 263.7 161.4C264 161.4 264.4 161.4 264.8 161.4C265.2 161.4 265.5 161.5 265.8 161.5V166.9C265.6 166.8 265.2 166.7 264.6 166.7C264 166.7 263.5 166.6 263.1 166.6C262 166.6 261.1 166.8 260.2 167.3C259.3 167.8 258.7 168.4 258.2 169.2C257.7 170 257.5 170.9 257.5 172V186.6H251.6Z" fill="#77809C"/>
<path d="M280.1 187.1C277.7 187.1 275.6 186.6 273.8 185.5C272 184.4 270.6 182.9 269.7 181C268.7 179.1 268.2 176.8 268.2 174.3C268.2 171.7 268.7 169.5 269.7 167.5C270.7 165.6 272.1 164.1 273.8 163C275.6 161.9 277.7 161.4 280.1 161.4C282.5 161.4 284.6 161.9 286.4 163C288.2 164.1 289.6 165.6 290.5 167.5C291.5 169.4 292 171.7 292 174.3C292 176.9 291.5 179.1 290.5 181C289.5 182.9 288.1 184.4 286.4 185.5C284.7 186.6 282.5 187.1 280.1 187.1ZM280.1 182.4C281.4 182.4 282.5 182 283.4 181.3C284.3 180.6 284.9 179.6 285.4 178.4C285.8 177.2 286.1 175.8 286.1 174.3C286.1 172.8 285.9 171.4 285.4 170.2C284.9 169 284.3 168 283.4 167.2C282.5 166.5 281.4 166.1 280.1 166.1C278.7 166.1 277.6 166.5 276.7 167.2C275.8 167.9 275.1 168.9 274.7 170.2C274.3 171.5 274 172.8 274 174.3C274 175.8 274.2 177.2 274.7 178.4C275.1 179.6 275.8 180.6 276.7 181.3C277.7 182 278.8 182.4 280.1 182.4Z" fill="#77809C"/>
<path d="M316.2 168.3L310.8 168.9C310.6 168.4 310.4 167.9 310 167.4C309.6 166.9 309.1 166.5 308.5 166.2C307.9 165.9 307.1 165.8 306.2 165.8C305 165.8 304 166.1 303.1 166.6C302.3 167.1 301.9 167.8 301.9 168.7C301.9 169.4 302.2 170 302.7 170.5C303.2 171 304.2 171.3 305.4 171.6L309.6 172.5C312 173 313.7 173.8 314.9 174.9C316.1 176 316.6 177.4 316.6 179.2C316.6 180.8 316.1 182.2 315.2 183.3C314.3 184.5 313 185.4 311.4 186.1C309.8 186.8 308 187.1 305.9 187.1C302.9 187.1 300.4 186.5 298.5 185.2C296.6 183.9 295.5 182.1 295.2 179.8L300.9 179.2C301.2 180.3 301.7 181.2 302.6 181.7C303.5 182.2 304.5 182.6 305.9 182.6C307.3 182.6 308.4 182.3 309.3 181.7C310.1 181.1 310.6 180.4 310.6 179.6C310.6 178.9 310.3 178.3 309.8 177.8C309.3 177.3 308.4 177 307.3 176.7L303 175.8C300.6 175.3 298.8 174.5 297.7 173.3C296.6 172.1 296 170.6 296 168.8C296 167.3 296.4 165.9 297.3 164.8C298.2 163.7 299.3 162.8 300.9 162.2C302.4 161.6 304.2 161.3 306.2 161.3C309.1 161.3 311.4 161.9 313.1 163.2C314.8 164.5 315.8 166.1 316.2 168.3Z" fill="#77809C"/>
<path d="M340.9 168.3L335.5 168.9C335.3 168.4 335.1 167.9 334.7 167.4C334.3 166.9 333.8 166.5 333.2 166.2C332.6 165.9 331.8 165.8 330.9 165.8C329.7 165.8 328.7 166.1 327.8 166.6C327 167.1 326.6 167.8 326.6 168.7C326.6 169.4 326.9 170 327.4 170.5C327.9 171 328.9 171.3 330.1 171.6L334.3 172.5C336.7 173 338.4 173.8 339.6 174.9C340.8 176 341.3 177.4 341.3 179.2C341.3 180.8 340.8 182.2 339.9 183.3C339 184.5 337.7 185.4 336.1 186.1C334.5 186.8 332.7 187.1 330.6 187.1C327.6 187.1 325.1 186.5 323.2 185.2C321.3 183.9 320.2 182.1 319.9 179.8L325.6 179.2C325.9 180.3 326.4 181.2 327.3 181.7C328.2 182.2 329.2 182.6 330.6 182.6C332 182.6 333.1 182.3 334 181.7C334.8 181.1 335.3 180.4 335.3 179.6C335.3 178.9 335 178.3 334.5 177.8C334 177.3 333.1 177 332 176.7L327.7 175.8C325.3 175.3 323.5 174.5 322.4 173.3C321.3 172.1 320.7 170.6 320.7 168.8C320.7 167.3 321.1 165.9 322 164.8C322.9 163.7 324 162.8 325.6 162.2C327.1 161.6 328.9 161.3 330.9 161.3C333.8 161.3 336.1 161.9 337.8 163.2C339.4 164.5 340.5 166.1 340.9 168.3Z" fill="#77809C"/>
<path d="M368.5 187.1C366.2 187.1 364.1 186.7 362.3 185.9C360.5 185.1 359.1 184 358 182.6C357 181.2 356.4 179.5 356.3 177.7H362.4C362.5 178.6 362.8 179.4 363.3 180C363.8 180.7 364.6 181.2 365.5 181.5C366.4 181.9 367.4 182.1 368.5 182.1C369.7 182.1 370.7 181.9 371.7 181.5C372.6 181.1 373.3 180.5 373.9 179.8C374.5 179.1 374.7 178.2 374.7 177.2C374.7 176.2 374.5 175.3 373.9 174.5C373.4 173.7 372.6 173.1 371.6 172.7C370.6 172.3 369.4 172.1 368 172.1H365V167.5H367.9C369.1 167.5 370.1 167.3 370.9 166.9C371.8 166.5 372.5 165.9 373 165.2C373.5 164.5 373.7 163.6 373.7 162.7C373.7 161.8 373.5 160.9 373.1 160.2C372.7 159.5 372.1 159 371.3 158.6C370.5 158.2 369.6 158 368.6 158C367.6 158 366.6 158.2 365.8 158.6C364.9 159 364.2 159.5 363.7 160.2C363.2 160.9 362.9 161.7 362.9 162.6H357.1C357.1 160.7 357.7 159.1 358.7 157.7C359.7 156.3 361.1 155.2 362.8 154.4C364.5 153.6 366.5 153.2 368.6 153.2C370.8 153.2 372.7 153.6 374.4 154.4C376 155.2 377.3 156.3 378.2 157.7C379.1 159.1 379.5 160.6 379.5 162.3C379.5 164.2 379 165.7 377.9 167C376.8 168.3 375.3 169.1 373.5 169.5V169.8C375.8 170.1 377.6 171 378.9 172.4C380.2 173.8 380.8 175.5 380.8 177.6C380.8 179.5 380.3 181.1 379.2 182.6C378.1 184.1 376.7 185.2 374.9 186C373.1 186.8 370.9 187.1 368.5 187.1Z" fill="#77809C"/>
<path d="M392.9 182.1L392.7 183.9C392.5 185.3 392.3 186.7 391.9 188.1C391.5 189.5 391.1 190.8 390.7 192C390.3 193.2 389.9 194.1 389.7 194.8H385.7C385.9 194.1 386.1 193.2 386.3 192.1C386.5 191 386.8 189.7 387.1 188.3C387.3 186.9 387.5 185.4 387.6 184L387.7 182.2H392.9V182.1Z" fill="#77809C"/>
<path d="M410.9 187.1C408.6 187.1 406.5 186.7 404.7 185.9C402.9 185.1 401.5 184 400.4 182.6C399.4 181.2 398.8 179.5 398.7 177.7H404.8C404.9 178.6 405.2 179.4 405.7 180C406.2 180.7 407 181.2 407.9 181.5C408.8 181.9 409.8 182.1 410.9 182.1C412.1 182.1 413.1 181.9 414.1 181.5C415 181.1 415.7 180.5 416.3 179.8C416.9 179.1 417.1 178.2 417.1 177.2C417.1 176.2 416.9 175.3 416.3 174.5C415.8 173.7 415 173.1 414 172.7C413 172.3 411.8 172.1 410.4 172.1H407.5V167.5H410.4C411.6 167.5 412.6 167.3 413.4 166.9C414.3 166.5 415 165.9 415.5 165.2C416 164.5 416.2 163.6 416.2 162.7C416.2 161.8 416 160.9 415.6 160.2C415.2 159.5 414.6 159 413.8 158.6C413 158.2 412.1 158 411.1 158C410.1 158 409.1 158.2 408.3 158.6C407.4 159 406.7 159.5 406.2 160.2C405.7 160.9 405.4 161.7 405.4 162.6H399.6C399.6 160.7 400.2 159.1 401.2 157.7C402.2 156.3 403.6 155.2 405.3 154.4C407 153.6 409 153.2 411.1 153.2C413.3 153.2 415.2 153.6 416.9 154.4C418.5 155.2 419.8 156.3 420.7 157.7C421.6 159.1 422 160.6 422 162.3C422 164.2 421.5 165.7 420.4 167C419.3 168.3 417.8 169.1 416 169.5V169.8C418.3 170.1 420.1 171 421.4 172.4C422.7 173.8 423.3 175.5 423.3 177.6C423.3 179.5 422.8 181.1 421.7 182.6C420.6 184.1 419.2 185.2 417.4 186C415.6 186.8 413.2 187.1 410.9 187.1Z" fill="#77809C"/>
<path d="M440.2 187.1C437.9 187.1 435.8 186.7 434 185.9C432.2 185.1 430.8 184 429.7 182.6C428.7 181.2 428.1 179.5 428 177.7H434.1C434.2 178.6 434.5 179.4 435 180C435.5 180.7 436.3 181.2 437.2 181.5C438.1 181.9 439.1 182.1 440.2 182.1C441.4 182.1 442.4 181.9 443.4 181.5C444.3 181.1 445 180.5 445.6 179.8C446.2 179.1 446.4 178.2 446.4 177.2C446.4 176.2 446.2 175.3 445.6 174.5C445.1 173.7 444.3 173.1 443.3 172.7C442.3 172.3 441.1 172.1 439.7 172.1H436.8V167.5H439.7C440.9 167.5 441.9 167.3 442.7 166.9C443.6 166.5 444.3 165.9 444.8 165.2C445.3 164.5 445.5 163.6 445.5 162.7C445.5 161.8 445.3 160.9 444.9 160.2C444.5 159.5 443.9 159 443.1 158.6C442.3 158.2 441.4 158 440.4 158C439.4 158 438.4 158.2 437.6 158.6C436.7 159 436 159.5 435.5 160.2C435 160.9 434.7 161.7 434.7 162.6H428.9C428.9 160.7 429.5 159.1 430.5 157.7C431.5 156.3 432.9 155.2 434.6 154.4C436.3 153.6 438.3 153.2 440.4 153.2C442.6 153.2 444.5 153.6 446.2 154.4C447.8 155.2 449.1 156.3 450 157.7C450.9 159.1 451.3 160.6 451.3 162.3C451.3 164.2 450.8 165.7 449.7 167C448.6 168.3 447.1 169.1 445.3 169.5V169.8C447.6 170.1 449.4 171 450.7 172.4C452 173.8 452.6 175.5 452.6 177.6C452.6 179.5 452.1 181.1 451 182.6C449.9 184.1 448.5 185.2 446.7 186C444.9 186.8 442.6 187.1 440.2 187.1Z" fill="#77809C"/>
<path d="M469.1 152.9C470.7 152.9 472.2 153.2 473.7 153.7C475.2 154.2 476.6 155.1 477.8 156.4C479 157.6 480 159.3 480.7 161.3C481.4 163.4 481.8 165.9 481.8 168.9C481.8 171.8 481.5 174.3 480.9 176.5C480.3 178.7 479.4 180.6 478.3 182.2C477.2 183.7 475.8 184.9 474.2 185.7C472.6 186.5 470.8 186.9 468.8 186.9C466.7 186.9 464.8 186.5 463.2 185.7C461.6 184.9 460.3 183.8 459.3 182.3C458.3 180.9 457.7 179.2 457.5 177.4H463.4C463.7 178.7 464.3 179.8 465.3 180.5C466.2 181.3 467.4 181.7 468.8 181.7C471.1 181.7 472.9 180.7 474.1 178.7C475.3 176.7 476 173.9 476 170.4H475.8C475.3 171.4 474.6 172.2 473.7 172.9C472.9 173.6 471.9 174.1 470.8 174.5C469.7 174.9 468.6 175.1 467.4 175.1C465.5 175.1 463.7 174.6 462.2 173.7C460.6 172.8 459.4 171.5 458.5 169.9C457.6 168.3 457.1 166.4 457.1 164.3C457.1 162.1 457.6 160.2 458.6 158.5C459.6 156.8 461 155.4 462.8 154.4C464.6 153.4 466.7 152.9 469.1 152.9ZM469.1 157.8C467.9 157.8 466.9 158.1 465.9 158.7C465 159.3 464.2 160 463.7 161C463.2 162 462.9 163 462.9 164.2C462.9 165.4 463.2 166.4 463.7 167.4C464.2 168.4 464.9 169.1 465.9 169.7C466.8 170.3 467.9 170.5 469 170.5C469.9 170.5 470.7 170.3 471.4 170C472.2 169.7 472.8 169.2 473.4 168.6C474 168 474.4 167.3 474.7 166.5C475 165.7 475.2 164.9 475.2 164.1C475.2 163 474.9 161.9 474.4 161C473.9 160 473.1 159.3 472.2 158.7C471.3 158.1 470.3 157.8 469.1 157.8Z" fill="#77809C"/>
<path d="M497.9 186.6V153.4H510.4C513 153.4 515.1 153.9 516.8 154.8C518.5 155.8 519.8 157.1 520.7 158.7C521.6 160.4 522 162.2 522 164.4C522 166.5 521.6 168.4 520.7 170.1C519.8 171.8 518.5 173.1 516.7 174C514.9 174.9 512.8 175.4 510.2 175.4H502V170.5H509.4C510.9 170.5 512.1 170.2 513.1 169.7C514.1 169.2 514.8 168.5 515.2 167.6C515.6 166.7 515.9 165.6 515.9 164.5C515.9 163.4 515.7 162.3 515.2 161.4C514.7 160.5 514 159.8 513.1 159.3C512.2 158.8 510.9 158.5 509.4 158.5H503.9V186.7H497.9V186.6Z" fill="#77809C"/>
<path d="M526.6 186.6V161.7H532.3V165.9H532.6C533.1 164.5 533.8 163.4 534.9 162.6C536 161.8 537.3 161.4 538.7 161.4C539 161.4 539.4 161.4 539.8 161.4C540.2 161.4 540.5 161.5 540.8 161.5V166.9C540.6 166.8 540.2 166.7 539.6 166.7C539 166.7 538.5 166.6 538.1 166.6C537 166.6 536.1 166.8 535.2 167.3C534.3 167.8 533.7 168.4 533.2 169.2C532.7 170 532.5 170.9 532.5 172V186.6H526.6Z" fill="#77809C"/>
<path d="M555.1 187.1C552.7 187.1 550.6 186.6 548.8 185.5C547 184.4 545.6 182.9 544.7 181C543.7 179.1 543.2 176.8 543.2 174.3C543.2 171.7 543.7 169.5 544.7 167.5C545.7 165.6 547.1 164.1 548.8 163C550.6 161.9 552.7 161.4 555.1 161.4C557.5 161.4 559.6 161.9 561.4 163C563.2 164.1 564.6 165.6 565.5 167.5C566.5 169.4 567 171.7 567 174.3C567 176.9 566.5 179.1 565.5 181C564.5 182.9 563.1 184.4 561.4 185.5C559.7 186.6 557.6 187.1 555.1 187.1ZM555.2 182.4C556.5 182.4 557.6 182 558.5 181.3C559.4 180.6 560 179.6 560.5 178.4C560.9 177.2 561.2 175.8 561.2 174.3C561.2 172.8 561 171.4 560.5 170.2C560 169 559.4 168 558.5 167.2C557.6 166.5 556.5 166.1 555.2 166.1C553.8 166.1 552.7 166.5 551.8 167.2C550.9 167.9 550.2 168.9 549.8 170.2C549.4 171.5 549.1 172.8 549.1 174.3C549.1 175.8 549.3 177.2 549.8 178.4C550.2 179.6 550.9 180.6 551.8 181.3C552.7 182 553.8 182.4 555.2 182.4Z" fill="#77809C"/>
<path d="M571.6 161.7H577.5V188C577.5 189.8 577.2 191.3 576.5 192.4C575.8 193.6 574.8 194.4 573.5 195C572.2 195.6 570.7 195.9 568.8 195.9C568.6 195.9 568.4 195.9 568.2 195.9C568 195.9 567.8 195.9 567.6 195.9V191.1C567.8 191.1 567.9 191.1 568 191.1C568.1 191.1 568.3 191.1 568.4 191.1C569.5 191.1 570.3 190.8 570.8 190.3C571.3 189.8 571.5 189 571.5 187.9V161.7H571.6ZM574.5 158.1C573.6 158.1 572.8 157.8 572.1 157.2C571.4 156.6 571.1 155.8 571.1 155C571.1 154.1 571.4 153.4 572.1 152.7C572.8 152 573.6 151.8 574.5 151.8C575.4 151.8 576.2 152.1 576.9 152.7C577.6 153.3 577.9 154.1 577.9 155C577.9 155.9 577.6 156.6 576.9 157.2C576.2 157.8 575.4 158.1 574.5 158.1Z" fill="#77809C"/>
<path d="M594.1 187.1C591.6 187.1 589.4 186.6 587.6 185.5C585.8 184.5 584.4 183 583.4 181.1C582.4 179.2 581.9 176.9 581.9 174.3C581.9 171.7 582.4 169.5 583.4 167.5C584.4 165.6 585.7 164 587.5 163C589.3 162 591.3 161.4 593.7 161.4C595.2 161.4 596.7 161.6 598.1 162.1C599.5 162.6 600.7 163.4 601.7 164.4C602.8 165.4 603.6 166.7 604.2 168.3C604.8 169.9 605.1 171.8 605.1 174V175.8H584.7V171.8H599.5C599.5 170.7 599.2 169.7 598.8 168.8C598.3 167.9 597.7 167.2 596.8 166.7C596 166.2 595 165.9 593.8 165.9C592.6 165.9 591.5 166.2 590.6 166.8C589.7 167.4 589 168.1 588.5 169.1C588 170.1 587.7 171.1 587.7 172.2V175.7C587.7 177.1 588 178.4 588.5 179.4C589 180.4 589.8 181.2 590.7 181.8C591.7 182.3 592.8 182.6 594 182.6C594.9 182.6 595.6 182.5 596.3 182.2C597 182 597.6 181.6 598.1 181.1C598.6 180.6 599 180 599.3 179.3L604.8 179.9C604.5 181.3 603.8 182.6 602.8 183.7C601.8 184.8 600.6 185.6 599.1 186.2C597.7 186.8 596 187.1 594.1 187.1Z" fill="#77809C"/>
<path d="M620.5 187.1C618 187.1 615.9 186.6 614.1 185.5C612.3 184.4 611 182.9 610 181C609 179.1 608.6 176.8 608.6 174.3C608.6 171.8 609.1 169.5 610.1 167.6C611.1 165.7 612.4 164.1 614.2 163.1C616 162.1 618.1 161.5 620.5 161.5C622.5 161.5 624.3 161.9 625.9 162.6C627.5 163.3 628.7 164.4 629.6 165.7C630.5 167 631.1 168.6 631.2 170.4H625.6C625.4 169.2 624.8 168.2 624 167.4C623.2 166.6 622 166.2 620.6 166.2C619.4 166.2 618.3 166.5 617.4 167.2C616.5 167.8 615.8 168.8 615.3 170C614.8 171.2 614.5 172.6 614.5 174.3C614.5 176 614.7 177.5 615.2 178.7C615.7 179.9 616.4 180.9 617.3 181.5C618.2 182.1 619.3 182.5 620.5 182.5C621.4 182.5 622.1 182.3 622.8 182C623.5 181.7 624.1 181.2 624.5 180.6C625 180 625.3 179.2 625.5 178.3H631.1C631 180.1 630.4 181.6 629.5 183C628.6 184.4 627.4 185.4 625.8 186.2C624.4 186.7 622.6 187.1 620.5 187.1Z" fill="#77809C"/>
<path d="M648 161.7V166.2H633.7V161.7H648ZM637.2 155.7H643.1V179.1C643.1 179.9 643.2 180.5 643.5 180.9C643.7 181.3 644.1 181.6 644.5 181.8C644.9 182 645.3 182 645.8 182C646.2 182 646.5 182 646.8 181.9C647.1 181.8 647.3 181.8 647.5 181.8L648.5 186.4C648.2 186.5 647.7 186.6 647.2 186.8C646.6 186.9 645.9 187 645.1 187C643.6 187 642.3 186.8 641.1 186.3C639.9 185.8 639 185 638.3 184C637.6 183 637.3 181.7 637.3 180.1V155.7H637.2Z" fill="#77809C"/>
<path d="M672.1 168.3L666.7 168.9C666.5 168.4 666.3 167.9 665.9 167.4C665.5 166.9 665 166.5 664.4 166.2C663.8 165.9 663 165.8 662.1 165.8C660.9 165.8 659.9 166.1 659 166.6C658.2 167.1 657.8 167.8 657.8 168.7C657.8 169.4 658.1 170 658.6 170.5C659.1 171 660.1 171.3 661.3 171.6L665.5 172.5C667.9 173 669.6 173.8 670.8 174.9C672 176 672.5 177.4 672.5 179.2C672.5 180.8 672 182.2 671.1 183.3C670.2 184.5 668.9 185.4 667.3 186.1C665.7 186.8 663.9 187.1 661.8 187.1C658.8 187.1 656.3 186.5 654.4 185.2C652.5 183.9 651.4 182.1 651.1 179.8L656.8 179.2C657.1 180.3 657.6 181.2 658.5 181.7C659.4 182.2 660.4 182.6 661.8 182.6C663.2 182.6 664.3 182.3 665.2 181.7C666 181.1 666.5 180.4 666.5 179.6C666.5 178.9 666.2 178.3 665.7 177.8C665.2 177.3 664.3 177 663.2 176.7L658.9 175.8C656.5 175.3 654.7 174.5 653.6 173.3C652.5 172.1 651.9 170.6 651.9 168.8C651.9 167.3 652.3 165.9 653.2 164.8C654.1 163.7 655.2 162.8 656.8 162.2C658.3 161.6 660.1 161.3 662.1 161.3C665 161.3 667.3 161.9 669 163.2C670.7 164.5 671.7 166.1 672.1 168.3Z" fill="#77809C"/>
<path d="M680.7 187C679.7 187 678.9 186.7 678.2 186C677.5 185.3 677.2 184.5 677.2 183.5C677.2 182.5 677.5 181.7 678.2 181C678.9 180.3 679.7 180 680.7 180C681.7 180 682.5 180.3 683.2 181C683.9 181.7 684.3 182.5 684.3 183.5C684.3 184.2 684.1 184.8 683.8 185.3C683.5 185.8 683 186.3 682.5 186.6C681.9 186.8 681.3 187 680.7 187Z" fill="#77809C"/>
</g>
<mask id="mask1_4_2068" style="mask-type:luminance" maskUnits="userSpaceOnUse" x="0" y="0" width="1521" height="255">
<path d="M1521 0H0V255H1521V0Z" fill="white"/>
</mask>
<g mask="url(#mask1_4_2068)">
<path d="M589.8 65C625.7 65 654.8 35.9 654.8 0H524.8C524.8 35.9 553.9 65 589.8 65Z" fill="#F2FCFF"/>
</g>
<mask id="mask2_4_2068" style="mask-type:luminance" maskUnits="userSpaceOnUse" x="0" y="0" width="1521" height="255">
<path d="M1521 0H0V255H1521V0Z" fill="white"/>
</mask>
<g mask="url(#mask2_4_2068)">
<path d="M1163.8 214.2C1141.3 214.2 1123 232.5 1123 255H1204.6C1204.6 232.5 1186.3 214.2 1163.8 214.2Z" fill="#F2FCFF"/>
</g>
<mask id="mask3_4_2068" style="mask-type:luminance" maskUnits="userSpaceOnUse" x="0" y="0" width="1521" height="255">
<path d="M1521 0H0V255H1521V0Z" fill="white"/>
</mask>
<g mask="url(#mask3_4_2068)">
<path d="M56.9999 64.7C65.0633 64.7 71.5999 58.1634 71.5999 50.1C71.5999 42.0366 65.0633 35.5 56.9999 35.5C48.9365 35.5 42.3999 42.0366 42.3999 50.1C42.3999 58.1634 48.9365 64.7 56.9999 64.7Z" fill="#F9FEFA"/>
</g>
<mask id="mask4_4_2068" style="mask-type:luminance" maskUnits="userSpaceOnUse" x="0" y="0" width="1521" height="255">
<path d="M1521 0H0V255H1521V0Z" fill="white"/>
</mask>
<g mask="url(#mask4_4_2068)">
<path d="M1122.7 169.6L1113.7 163L1120.3 154L1115.8 150.7L1109.2 159.7L1100.4 153.3L1097.1 157.8L1105.9 164.2L1099.4 173L1103.9 176.3L1110.4 167.5L1119.4 174.1L1122.7 169.6Z" fill="#D4F6FF"/>
</g>
<mask id="mask5_4_2068" style="mask-type:luminance" maskUnits="userSpaceOnUse" x="0" y="0" width="1521" height="255">
<path d="M1521 0H0V255H1521V0Z" fill="white"/>
</mask>
<g mask="url(#mask5_4_2068)">
<path d="M1456 192C1461.52 192 1466 187.523 1466 182C1466 176.477 1461.52 172 1456 172C1450.48 172 1446 176.477 1446 182C1446 187.523 1450.48 192 1456 192Z" fill="#F2FCFF"/>
</g>
<mask id="mask6_4_2068" style="mask-type:luminance" maskUnits="userSpaceOnUse" x="0" y="0" width="1521" height="255">
<path d="M1521 0H0V255H1521V0Z" fill="white"/>
</mask>
<g mask="url(#mask6_4_2068)">
<path d="M655 274C667.703 274 678 263.703 678 251C678 238.297 667.703 228 655 228C642.297 228 632 238.297 632 251C632 263.703 642.297 274 655 274Z" fill="#F2FCFF"/>
</g>
<mask id="mask7_4_2068" style="mask-type:luminance" maskUnits="userSpaceOnUse" x="0" y="0" width="1521" height="255">
<path d="M1521 0H0V255H1521V0Z" fill="white"/>
</mask>
<g mask="url(#mask7_4_2068)">
<path d="M1468 59C1480.15 59 1490 49.1503 1490 37C1490 24.8497 1480.15 15 1468 15C1455.85 15 1446 24.8497 1446 37C1446 49.1503 1455.85 59 1468 59Z" fill="#D4F6FF"/>
</g>
<mask id="mask8_4_2068" style="mask-type:luminance" maskUnits="userSpaceOnUse" x="0" y="0" width="1521" height="255">
<path d="M1521 0H0V255H1521V0Z" fill="white"/>
</mask>
<g mask="url(#mask8_4_2068)">
<path d="M1218.5 235.6C1217.2 234.6 1216.2 233.6 1216.8 231.8C1217.4 229.9 1219 229.7 1220.7 229.8C1223.3 229.8 1225.9 229.8 1228.7 229.8C1239.9 175 1251 120.3 1262.2 65.4001C1257.9 63.2001 1254.8 60 1253.6 55.2001C1252.8 52.0001 1253 48.8 1254.2 45.8C1256.7 39.5 1262.9 35.8001 1269.9 36.4001C1276.1 36.9001 1281.7 42 1283 48.2C1284.5 55.4 1281.4 61.5 1273.9 65.6C1285.1 120.3 1296.4 175 1307.7 229.8C1309.8 229.8 1311.8 229.8 1313.9 229.8C1314.1 229.3 1314.3 228.8 1314.4 228.3C1319.5 210 1324.5 191.8 1329.6 173.5C1330 172 1329.8 171.1 1328.8 170C1309.9 148.3 1310.5 115.9 1329.9 95C1333 91.7001 1336.4 91 1340.5 91.9001C1346.1 93.2001 1351.1 95.8 1355.8 99C1361.3 102.9 1366.7 107 1372 111.2C1373.1 112.1 1374 112.4 1375.4 111.8C1378.6 110.5 1381.9 109.5 1385.1 108.3C1385.8 100.2 1390.3 95.5 1397.2 95.7C1403.3 95.9 1408.2 100.8 1408.3 106.8C1408.5 113.7 1403.9 118.2 1395.8 118.9C1394.5 122.4 1393.2 126 1392.1 129.7C1391.9 130.3 1392.5 131.3 1393 132C1397.5 138.3 1402.4 144.3 1406.6 150.8C1409.1 154.7 1410.7 159.2 1412.2 163.5C1413.5 167.5 1412.5 171.2 1409 174.2C1393.1 187.9 1375.1 192.2 1354.8 186.7C1354.3 186.6 1353.8 186.4 1352.9 186.2C1356.9 200.8 1360.9 215.2 1364.9 229.7C1370.8 229.7 1376.7 229.7 1382.5 229.7C1385 229.7 1386.6 231.5 1385.7 233.6C1385.4 234.4 1384.6 234.9 1384 235.6C1328.8 235.6 1273.6 235.6 1218.5 235.6ZM1389.4 136.9C1388.1 140.6 1386.9 144 1385.7 147.3C1384.9 149.5 1383.4 150.4 1381.6 149.7C1380 149.1 1379.5 147.4 1380.2 145.3C1381.6 141.4 1382.9 137.5 1384.3 133.7C1384.8 132.3 1384.6 131.4 1383.5 130.4C1380.1 127.1 1376.7 123.8 1373.4 120.3C1372.4 119.2 1371.4 119.1 1370.1 119.6C1366.1 121.1 1362 122.6 1357.9 123.8C1357 124.1 1355.3 123.6 1354.7 122.8C1354.1 122.1 1354.2 120.6 1354.6 119.6C1354.8 118.9 1355.9 118.5 1356.7 118.2C1360 116.9 1363.3 115.8 1366.7 114.6C1362.5 109.9 1348.9 100.9 1342.5 98.5C1341.3 98 1340 97.6001 1338.7 97.4001C1335.3 96.8001 1334.5 97.7 1335.2 101.1C1336.2 106.1 1338.7 110.5 1341.5 114.7C1351.6 130.2 1364.3 143.2 1378.6 154.8C1384.4 159.5 1390.5 163.8 1397.4 166.9C1399.5 167.8 1401.9 168.4 1404.2 168.9C1405.9 169.3 1407 168.5 1406.7 166.6C1406.4 165 1406.2 163.3 1405.6 161.7C1401.8 152.5 1395.8 144.8 1389.4 136.9ZM1301.6 229.6C1300.6 224.6 1299.7 219.8 1298.5 215C1298.3 214.1 1297.5 213 1296.6 212.6C1287.6 208.3 1278.6 204.1 1269.6 199.8C1268.4 199.2 1267.5 199.2 1266.3 199.8C1258.2 203.7 1250.1 207.6 1241.9 211.2C1238.8 212.5 1237.3 214.4 1236.9 217.7C1236.4 221.7 1235.4 225.6 1234.6 229.6C1257.1 229.6 1279.3 229.6 1301.6 229.6ZM1358.6 229.6C1358.4 228.8 1358.3 228.1 1358.1 227.5C1354.4 214.1 1350.6 200.7 1347 187.2C1346.3 184.5 1345.1 182.6 1342.5 181.3C1339.8 180 1337.5 178 1334.8 176.2C1329.9 194.1 1325 211.8 1320 229.6C1333 229.6 1345.7 229.6 1358.6 229.6ZM1244.4 181.5C1252.1 185.1 1259.6 188.6 1267.1 192.1C1267.7 192.4 1268.7 192.2 1269.4 191.9C1273.9 189.9 1278.4 187.7 1282.8 185.6C1285.7 184.2 1288.7 182.8 1291.7 181.4C1291.2 178.9 1290.9 176.6 1290.2 174.3C1289.9 173.1 1289.1 171.9 1288.2 171.2C1283.8 167.7 1279.3 164.3 1274.8 160.8C1272.6 159.1 1270.3 157.4 1268 155.6C1260.9 161.1 1253.9 166.4 1247 171.8C1246.6 172.1 1246.3 172.7 1246.2 173.2C1245.6 175.8 1245 178.6 1244.4 181.5ZM1376.3 160.5C1363.9 150.7 1353.2 139.9 1343.4 127.7C1341 131.9 1338.8 135.7 1336.7 139.5C1336.3 140.2 1336.4 141.4 1336.8 142.1C1343.1 152.5 1351.4 160.8 1361.8 167.1C1362.5 167.5 1363.7 167.6 1364.4 167.2C1368.3 165.1 1372 162.9 1376.3 160.5ZM1268 148.2C1271.2 145.7 1274.1 143 1277.4 141.1C1281.7 138.6 1283.4 135.6 1281.3 130.8C1280.9 129.9 1280.9 128.5 1280.3 128C1276.3 124.8 1272.2 121.7 1268 118.6C1265.6 120.4 1263.5 122.3 1261.1 123.7C1256.5 126.3 1254 130.1 1253.8 135.4C1253.8 135.5 1253.7 135.7 1253.7 135.8C1254 136.5 1254 137.5 1254.6 137.9C1259 141.3 1263.4 144.7 1268 148.2ZM1268 111.2C1270.2 109.5 1272.4 107.8 1274.6 106.3C1275.8 105.5 1276 104.7 1275.7 103.3C1274.4 97.4 1273.2 91.4001 1272 85.5C1270.7 79.3 1269.4 73.2001 1268.1 66.8001C1267.8 67.2001 1267.6 67.3 1267.6 67.5C1265.1 79.7001 1262.6 91.9 1260.2 104.1C1260.1 104.6 1260.4 105.3 1260.8 105.6C1263.2 107.6 1265.6 109.4 1268 111.2ZM1268.1 60.5C1273.2 60.5 1277.4 56.3 1277.4 51.2C1277.4 46.1 1273.2 42 1268 42C1262.9 42 1258.8 46.2001 1258.8 51.4001C1258.9 56.4001 1263.1 60.5 1268.1 60.5ZM1333.3 147.7C1332 151.8 1331.3 155.7 1331.6 159.7C1332 163.5 1333.2 166.9 1336.3 169.4C1340.7 173 1349.8 173.1 1355.8 170.3C1347 164.3 1339.5 156.8 1333.3 147.7ZM1296.8 206.2C1295.5 199.7 1294.2 193.6 1292.9 187.4C1286.8 190.3 1281 193 1274.9 195.9C1282.4 199.4 1289.4 202.7 1296.8 206.2ZM1239.4 206.1C1246.8 202.6 1253.7 199.3 1261.1 195.9C1254.9 193 1249.1 190.3 1243.2 187.5C1242 193.6 1240.8 199.6 1239.4 206.1ZM1330.1 106.3C1327.1 115.8 1329 124.8 1332.6 133.9C1335.1 130 1337.4 126.4 1339.6 123C1336.4 117.5 1333.3 112 1330.1 106.3ZM1369.8 171.3C1379 174.9 1388 176.8 1397.5 173.8C1391.8 170.6 1386.3 167.4 1380.8 164.2C1377.3 166.5 1373.8 168.8 1369.8 171.3ZM1349.4 178.4C1360.5 183.5 1372 184.6 1384.1 181.4C1383.7 181.1 1383.6 180.9 1383.4 180.9C1376.4 180.1 1369.8 178 1363.5 174.9C1363.1 174.7 1362.6 174.6 1362.1 174.7C1358 175.9 1353.8 177.1 1349.4 178.4ZM1325.5 154.5C1326.7 150.4 1327.8 146.5 1328.8 142.5C1329 141.6 1329 140.4 1328.6 139.6C1325.8 133.6 1323.7 127.5 1323 120.9C1323 120.6 1322.8 120.2 1322.5 119.6C1319.4 131.9 1320.4 143.3 1325.5 154.5ZM1272.8 151.9C1277.9 155.8 1282.8 159.6 1288 163.6C1286.6 156.6 1285.2 150.2 1283.8 143.4C1280.1 146.3 1276.6 149 1272.8 151.9ZM1252.2 143.4C1250.8 150.2 1249.5 156.5 1248.1 163.5C1253.4 159.4 1258.2 155.7 1263.2 151.9C1259.4 149 1255.9 146.3 1252.2 143.4ZM1402.4 107.3C1402.4 104.1 1400 101.6 1396.8 101.6C1393.6 101.6 1391.1 104 1391.1 107.2C1391.1 110.4 1393.5 112.9 1396.7 112.9C1399.8 112.9 1402.3 110.5 1402.4 107.3ZM1378.7 116.7C1381.6 119.6 1384.4 122.4 1387.2 125.2C1388.2 122.5 1389.1 119.7 1389.9 117.5C1388.7 116 1387.8 115 1386.8 113.9C1384.2 114.7 1381.4 115.7 1378.7 116.7ZM1257.1 119.5C1259.4 117.7 1261.2 116.4 1263.1 114.9C1261.5 113.7 1260.2 112.7 1258.6 111.6C1258.2 114.2 1257.7 116.5 1257.1 119.5ZM1279 119.5C1278.4 116.6 1277.9 114.2 1277.4 111.6C1275.8 112.8 1274.5 113.9 1273 115C1275 116.5 1276.8 117.8 1279 119.5Z" fill="#15BEE6"/>
<path d="M1429 106.9C1428.8 115.7 1425.9 123.2 1420.1 129.4C1419.1 130.5 1418 131.2 1416.4 130.7C1414.2 129.9 1413.9 127.5 1415.7 125.6C1419.8 121.2 1422.2 116 1423 110C1424.8 96.3999 1414.4 82.7999 1400.7 80.9999C1392.1 79.8999 1384.7 82.1999 1378.4 88.0999C1377.2 89.1999 1375.7 89.9999 1374.3 88.7999C1373.5 88.0999 1373.2 86.6999 1373.1 85.5999C1373.1 84.9999 1373.9 84.1999 1374.5 83.6999C1386.2 72.5999 1404.8 72.0999 1417.1 82.3999C1425 88.7999 1428.8 97.1999 1429 106.9Z" fill="#15BEE6"/>
<path d="M1224.5 50.7001C1224.6 40.5 1228.1 31 1235.1 22.9C1235.8 22.1 1236.9 21.3 1237.8 21.3C1238.7 21.3 1240.2 22.1 1240.4 22.9C1240.7 24 1240.4 25.6 1239.7 26.5C1235.8 31.2 1232.9 36.4 1231.6 42.3C1228.8 54.7001 1231.4 65.9001 1239.5 75.8001C1239.9 76.2001 1240.3 76.6 1240.5 77.1C1241.2 78.4 1241.1 79.7 1239.9 80.7C1238.7 81.8 1237.3 81.8 1236.1 80.7C1235 79.7 1234.1 78.5 1233.3 77.4001C1227.5 69.6001 1224.6 60.9001 1224.5 50.7001Z" fill="#15BEE6"/>
<path d="M1311.8 51.3C1311.6 61.8 1308.3 71.2001 1301.5 79.4001C1301.1 79.9001 1300.6 80.7001 1300.1 80.8001C1299 81.0001 1297.6 81.1 1296.7 80.7C1295.4 80 1295.2 78.6 1295.9 77.2C1296.2 76.6 1296.7 76.1 1297.1 75.5C1308.8 61.4 1308.8 41.1 1297.1 27C1296.7 26.5 1296.3 26.1 1296 25.5C1295.2 24.1 1295.4 22.8 1296.7 21.8C1297.9 20.8 1299.2 20.8 1300.3 21.8C1301.2 22.6 1301.9 23.5 1302.6 24.5C1308.7 32.4 1311.6 41.4 1311.8 51.3Z" fill="#15BEE6"/>
<path d="M1397.3 85.2C1405.9 85.7 1412.9 89.8 1416.7 98.4C1420.4 106.9 1418.9 114.9 1412.9 121.9C1411.3 123.8 1409.6 124 1408.2 122.8C1406.8 121.6 1406.9 119.9 1408.5 118.1C1414.3 111.3 1414.1 101.9 1407.9 95.8C1401.8 89.8 1392.5 89.6 1385.7 95.4C1383.8 97 1382.2 97.1 1380.9 95.7C1379.6 94.3 1379.9 92.7 1381.8 91C1386.1 87.2 1391.1 85.4 1397.3 85.2Z" fill="#15BEE6"/>
<path d="M1300 51.3001C1299.8 59.1001 1297.3 66.1001 1292.2 72.0001C1290.5 74.0001 1288.3 74.0001 1287.1 72.1001C1286.1 70.5001 1286.8 69.2001 1287.9 67.9001C1291.7 63.4001 1293.8 58.2001 1294 52.2001C1294.2 45.7001 1292.3 40.0001 1288.3 34.9001C1288 34.6001 1287.8 34.3001 1287.5 33.9001C1286.3 32.3001 1286.4 30.7001 1287.7 29.6001C1289 28.5001 1290.6 28.7001 1291.9 30.1001C1295.7 34.3001 1298.2 39.3001 1299.2 44.9001C1299.7 47.1001 1299.8 49.2001 1300 51.3001Z" fill="#15BEE6"/>
<path d="M1236.4 53.8001C1236.4 43.6001 1238.9 36.9001 1243.7 31.1001C1244.3 30.4001 1245.1 29.4001 1245.9 29.4001C1246.9 29.3001 1248.3 29.7001 1249 30.5001C1250.1 31.6001 1249.6 33.0001 1248.8 34.3001C1247 37.3001 1244.8 40.2001 1243.7 43.5001C1240.8 52.2001 1242.4 60.4001 1248.1 67.7001C1248.5 68.2001 1248.9 68.7001 1249.2 69.2001C1250 70.6001 1249.8 71.9001 1248.6 73.0001C1247.4 74.0001 1245.9 74.0001 1244.8 72.9001C1243.6 71.6001 1242.4 70.1001 1241.5 68.6001C1238 63.2001 1236.3 57.5001 1236.4 53.8001Z" fill="#15BEE6"/>
</g>
<mask id="mask9_4_2068" style="mask-type:luminance" maskUnits="userSpaceOnUse" x="0" y="0" width="1521" height="255">
<path d="M1521 0H0V255H1521V0Z" fill="white"/>
</mask>
<g mask="url(#mask9_4_2068)">
<path d="M59.5 212.7C59.5 211.4 59.7 210.2 60 209.1C60.3 208 60.8 207 61.4 206.1H62.5C62.3 206.4 62 206.9 61.8 207.3C61.6 207.7 61.4 208.3 61.2 208.9C61 209.5 60.9 210.1 60.8 210.7C60.7 211.3 60.7 211.9 60.7 212.6C60.7 213.4 60.8 214.2 60.9 215.1C61.1 215.9 61.3 216.7 61.5 217.4C61.7 218.1 62.1 218.7 62.4 219.2H61.3C60.7 218.3 60.2 217.3 59.9 216.2C59.7 215.2 59.5 214 59.5 212.7Z" fill="#D3D3D3"/>
<path d="M71.4 206.7H72.7V213.6C72.7 214.3 72.5 215 72.2 215.5C71.9 216.1 71.4 216.5 70.8 216.8C70.2 217.1 69.5 217.3 68.7 217.3C67.9 217.3 67.2 217.1 66.6 216.8C66 216.5 65.5 216 65.2 215.5C64.9 214.9 64.7 214.3 64.7 213.6V206.7H66V213.5C66 214 66.1 214.5 66.3 214.9C66.5 215.3 66.8 215.6 67.3 215.8C67.7 216 68.2 216.1 68.8 216.1C69.4 216.1 69.9 216 70.3 215.8C70.7 215.6 71 215.3 71.3 214.9C71.5 214.5 71.6 214 71.6 213.5V206.7H71.4Z" fill="#D3D3D3"/>
<path d="M83.5 206.7V217.2H82.3L76.6 209H76.5V217.2H75.2V206.7H76.4L82.1 214.9H82.2V206.7H83.5Z" fill="#D3D3D3"/>
<path d="M94.5 210H93.2C93.1 209.6 93 209.3 92.8 209C92.6 208.7 92.4 208.5 92.1 208.3C91.8 208.1 91.5 208 91.2 207.9C90.9 207.8 90.5 207.8 90.2 207.8C89.6 207.8 89 208 88.5 208.3C88 208.6 87.6 209.1 87.3 209.7C87 210.3 86.8 211.1 86.8 212C86.8 212.9 87 213.7 87.3 214.3C87.6 214.9 88 215.4 88.5 215.7C89 216 89.6 216.2 90.2 216.2C90.5 216.2 90.9 216.2 91.2 216.1C91.5 216 91.8 215.9 92.1 215.7C92.4 215.5 92.6 215.3 92.8 215C93 214.7 93.1 214.4 93.2 214H94.5C94.4 214.5 94.2 215 94 215.4C93.8 215.8 93.4 216.2 93.1 216.5C92.7 216.8 92.3 217 91.8 217.2C91.3 217.4 90.8 217.4 90.3 217.4C89.4 217.4 88.6 217.2 87.9 216.7C87.2 216.3 86.7 215.6 86.3 214.8C85.9 214 85.7 213 85.7 211.9C85.7 210.8 85.9 209.8 86.3 209C86.7 208.2 87.2 207.6 87.9 207.1C88.6 206.7 89.4 206.4 90.3 206.4C90.8 206.4 91.3 206.5 91.8 206.6C92.3 206.8 92.7 207 93.1 207.3C93.5 207.6 93.8 208 94 208.4C94.2 208.8 94.4 209.4 94.5 210Z" fill="#D3D3D3"/>
<path d="M95.8999 207.8V206.7H103.8V207.8H100.5V217.2H99.1999V207.8H95.8999Z" fill="#D3D3D3"/>
<path d="M106.2 217.2H104.9L108.7 206.7H110L113.8 217.2H112.5L109.4 208.4H109.3L106.2 217.2ZM106.7 213.1H112.1V214.2H106.7V213.1Z" fill="#D3D3D3"/>
<path d="M118.7 217.2H115.5V206.7H118.9C119.9 206.7 120.8 206.9 121.5 207.3C122.2 207.7 122.8 208.3 123.2 209.1C123.6 209.9 123.8 210.8 123.8 211.9C123.8 213 123.6 213.9 123.2 214.7C122.8 215.5 122.2 216.1 121.5 216.5C120.7 217 119.8 217.2 118.7 217.2ZM116.8 216H118.7C119.6 216 120.3 215.8 120.9 215.5C121.5 215.2 121.9 214.7 122.2 214.1C122.5 213.5 122.6 212.7 122.6 211.9C122.6 211.1 122.5 210.3 122.2 209.7C121.9 209.1 121.5 208.6 121 208.3C120.5 208 119.8 207.8 118.9 207.8H116.9V216H116.8Z" fill="#D3D3D3"/>
<path d="M129.7 217.2V216.3L133.2 212.5C133.6 212.1 133.9 211.7 134.2 211.3C134.5 211 134.7 210.7 134.8 210.4C134.9 210.1 135 209.8 135 209.5C135 209.1 134.9 208.8 134.7 208.5C134.5 208.2 134.3 208 134 207.9C133.7 207.8 133.4 207.7 133 207.7C132.6 207.7 132.2 207.8 131.9 207.9C131.6 208.1 131.4 208.3 131.2 208.6C131 208.9 131 209.2 131 209.6H129.8C129.8 209 129.9 208.4 130.2 208C130.5 207.5 130.9 207.2 131.4 206.9C131.9 206.6 132.4 206.5 133.1 206.5C133.7 206.5 134.3 206.6 134.7 206.9C135.2 207.2 135.5 207.5 135.8 207.9C136.1 208.3 136.2 208.8 136.2 209.4C136.2 209.8 136.1 210.2 136 210.5C135.9 210.9 135.6 211.3 135.3 211.7C135 212.1 134.5 212.7 133.9 213.3L131.5 215.8V215.9H136.4V217H129.7V217.2Z" fill="#D3D3D3"/>
<path d="M141.9 217.3C141.1 217.3 140.5 217.1 139.9 216.7C139.4 216.3 138.9 215.7 138.7 214.9C138.4 214.1 138.3 213.1 138.3 212C138.3 210.9 138.4 209.9 138.7 209.1C139 208.3 139.4 207.7 139.9 207.3C140.4 206.9 141.1 206.7 141.9 206.7C142.7 206.7 143.3 206.9 143.9 207.3C144.4 207.7 144.9 208.3 145.1 209.1C145.4 209.9 145.5 210.9 145.5 212C145.5 213.1 145.4 214.1 145.1 214.9C144.8 215.7 144.4 216.3 143.9 216.7C143.3 217.1 142.6 217.3 141.9 217.3ZM141.9 216.2C142.7 216.2 143.3 215.8 143.7 215.1C144.1 214.4 144.3 213.3 144.3 211.9C144.3 211 144.2 210.2 144 209.6C143.8 209 143.5 208.5 143.2 208.1C142.8 207.8 142.4 207.6 141.9 207.6C141.1 207.6 140.6 208 140.1 208.7C139.7 209.4 139.5 210.5 139.5 211.9C139.5 212.8 139.6 213.6 139.8 214.2C140 214.8 140.3 215.3 140.6 215.6C140.9 216 141.4 216.2 141.9 216.2Z" fill="#D3D3D3"/>
<path d="M147.5 217.2V216.3L151 212.5C151.4 212.1 151.7 211.7 152 211.3C152.3 211 152.5 210.7 152.6 210.4C152.7 210.1 152.8 209.8 152.8 209.5C152.8 209.1 152.7 208.8 152.5 208.5C152.3 208.2 152.1 208 151.8 207.9C151.5 207.8 151.2 207.7 150.8 207.7C150.4 207.7 150 207.8 149.7 207.9C149.4 208.1 149.2 208.3 149 208.6C148.8 208.9 148.8 209.2 148.8 209.6H147.6C147.6 209 147.7 208.4 148 208C148.3 207.5 148.7 207.2 149.2 206.9C149.7 206.6 150.2 206.5 150.9 206.5C151.5 206.5 152.1 206.6 152.5 206.9C153 207.2 153.3 207.5 153.6 207.9C153.9 208.3 154 208.8 154 209.4C154 209.8 153.9 210.2 153.8 210.5C153.7 210.9 153.4 211.3 153.1 211.7C152.8 212.1 152.3 212.7 151.7 213.3L149.3 215.8V215.9H154.2V217H147.5V217.2Z" fill="#D3D3D3"/>
<path d="M155.9 215V214L160.5 206.7H161.3V208.3H160.8L157.3 213.8V213.9H163.5V215H155.9ZM160.9 217.2V214.7V214.2V206.7H162.1V217.2H160.9Z" fill="#D3D3D3"/>
<path d="M168 212.7C168 214 167.8 215.2 167.5 216.3C167.2 217.4 166.7 218.4 166.1 219.3H165C165.2 219 165.5 218.5 165.7 218.1C165.9 217.7 166.1 217.1 166.3 216.5C166.5 215.9 166.6 215.3 166.7 214.7C166.8 214.1 166.8 213.5 166.8 212.8C166.8 212 166.7 211.2 166.6 210.3C166.4 209.5 166.2 208.7 166 208C165.7 207.3 165.4 206.7 165.1 206.2H166.2C166.8 207.1 167.3 208.1 167.6 209.2C167.9 210.3 168 211.5 168 212.7Z" fill="#D3D3D3"/>
</g>
<mask id="mask10_4_2068" style="mask-type:luminance" maskUnits="userSpaceOnUse" x="0" y="0" width="1521" height="255">
<path d="M1521 0H0V255H1521V0Z" fill="white"/>
</mask>
<g mask="url(#mask10_4_2068)">
<path d="M64.9 60.8999H58V39.3999H65.2C67.3 39.3999 69.1 39.7999 70.6 40.6999C72.1 41.5999 73.3 42.7999 74.1 44.3999C74.9 45.9999 75.3 47.8999 75.3 50.0999C75.3 52.2999 74.9 54.2999 74.1 55.8999C73.3 57.4999 72.1 58.6999 70.6 59.5999C68.9 60.4999 67.1 60.8999 64.9 60.8999ZM61.2 58.0999H64.7C66.3 58.0999 67.7 57.7999 68.8 57.1999C69.9 56.5999 70.7 55.6999 71.2 54.4999C71.7 53.2999 72 51.8999 72 50.1999C72 48.4999 71.7 47.0999 71.2 45.8999C70.7 44.6999 69.9 43.7999 68.8 43.1999C67.7 42.5999 66.4 42.2999 64.9 42.2999H61.2V58.0999Z" fill="#242438"/>
<path d="M80.6001 42.3C80.1001 42.3 79.6001 42.1 79.2001 41.7C78.8001 41.3 78.6001 40.9 78.6001 40.4C78.6001 39.9 78.8001 39.4 79.2001 39.1C79.6001 38.7 80.1001 38.5 80.6001 38.5C81.1001 38.5 81.6001 38.7 82.0001 39.1C82.4001 39.5 82.6001 39.9 82.6001 40.4C82.6001 40.9 82.4001 41.4 82.0001 41.7C81.6001 42.1 81.1001 42.3 80.6001 42.3ZM79.0001 60.9V44.8H82.1001V60.9H79.0001Z" fill="#242438"/>
<path d="M92.3 61.1999C91 61.1999 89.8 60.8999 88.8 60.1999C87.8 59.4999 87 58.5999 86.4 57.2999C85.8 56.0999 85.5 54.5999 85.5 52.7999C85.5 51.0999 85.8 49.5999 86.4 48.2999C87 47.0999 87.8 46.0999 88.8 45.4999C89.8 44.7999 91 44.4999 92.3 44.4999C93.3 44.4999 94.1 44.6999 94.7 44.9999C95.3 45.2999 95.8 45.6999 96.1 46.1999C96.4 46.5999 96.7 46.9999 96.9 47.3999H97.1V39.3999H100.2V60.8999H97.1V58.3999H97C96.8 58.6999 96.5 59.0999 96.2 59.5999C95.8 59.9999 95.4 60.3999 94.7 60.7999C94.1 60.9999 93.3 61.1999 92.3 61.1999ZM93 58.4999C93.9 58.4999 94.7 58.2999 95.3 57.7999C95.9 57.2999 96.4 56.6999 96.7 55.7999C97 54.8999 97.2 53.9999 97.2 52.7999C97.2 51.6999 97 50.6999 96.7 49.8999C96.4 49.0999 95.9 48.3999 95.3 47.8999C94.7 47.3999 93.9 47.1999 93 47.1999C92.1 47.1999 91.3 47.3999 90.6 47.8999C89.9 48.3999 89.5 49.0999 89.2 49.8999C88.9 50.6999 88.7 51.6999 88.7 52.7999C88.7 53.8999 88.9 54.7999 89.2 55.6999C89.5 56.5999 90 57.1999 90.6 57.6999C91.2 58.1999 92.1 58.4999 93 58.4999Z" fill="#242438"/>
<path d="M114.6 66.9001C114.1 66.9001 113.7 66.9001 113.3 66.8001C112.9 66.7001 112.6 66.6 112.4 66.6L113.2 64C113.8 64.2001 114.3 64.2 114.7 64.2C115.1 64.2 115.5 64 115.9 63.7001C116.3 63.4001 116.6 62.9001 116.8 62.2001L117.2 61.1L111.3 44.8H114.7L118.8 57.3H119L123.1 44.8H126.5L119.7 63C119.4 63.8 119 64.5 118.5 65.1C118 65.7 117.5 66.1001 116.8 66.4001C116.2 66.8001 115.5 66.9001 114.6 66.9001Z" fill="#242438"/>
<path d="M136.1 61.2001C134.6 61.2001 133.3 60.9001 132.1 60.2001C131 59.5001 130.1 58.5001 129.5 57.3001C128.9 56.1001 128.6 54.6001 128.6 52.9001C128.6 51.2001 128.9 49.8001 129.5 48.5001C130.1 47.2001 131 46.3001 132.1 45.6001C133.2 44.9001 134.5 44.6001 136.1 44.6001C137.7 44.6001 138.9 44.9001 140.1 45.6001C141.2 46.3001 142.1 47.3001 142.7 48.5001C143.3 49.7001 143.6 51.2001 143.6 52.9001C143.6 54.6001 143.3 56.0001 142.7 57.3001C142.1 58.5001 141.2 59.5001 140.1 60.2001C138.9 60.9001 137.6 61.2001 136.1 61.2001ZM136.1 58.6001C137.1 58.6001 137.9 58.3001 138.5 57.8001C139.1 57.3001 139.6 56.6001 139.9 55.7001C140.2 54.8001 140.4 53.9001 140.4 52.9001C140.4 51.9001 140.2 50.9001 139.9 50.1001C139.6 49.2001 139.1 48.5001 138.5 48.0001C137.9 47.5001 137 47.2001 136.1 47.2001C135.1 47.2001 134.3 47.5001 133.7 48.0001C133.1 48.5001 132.6 49.2001 132.3 50.1001C132 51.0001 131.8 51.9001 131.8 52.9001C131.8 53.9001 132 54.9001 132.3 55.7001C132.6 56.6001 133.1 57.2001 133.7 57.8001C134.3 58.3001 135.1 58.6001 136.1 58.6001Z" fill="#242438"/>
<path d="M157.3 54.2001V44.8H160.4V60.9001H157.3V58.1H157.1C156.7 59 156.1 59.7001 155.3 60.2001C154.5 60.8001 153.5 61.1 152.3 61.1C151.3 61.1 150.4 60.9001 149.6 60.4001C148.8 59.9001 148.2 59.3001 147.7 58.4001C147.2 57.5001 147 56.4 147 55.1V44.8H150.1V54.7001C150.1 55.8001 150.4 56.7 151 57.3C151.6 58 152.4 58.3 153.4 58.3C154 58.3 154.6 58.2001 155.2 57.9001C155.8 57.6001 156.3 57.2 156.7 56.6C157.1 56 157.3 55.1 157.3 54.2001Z" fill="#242438"/>
<path d="M172.5 60.8999V39.3999H175.6V60.8999H172.5ZM175.4 55.3999V51.5999H175.9L182.3 44.7999H186.1L178.8 52.5999H178.3L175.4 55.3999ZM182.6 60.8999L176.8 53.1999L179 50.9999L186.5 60.7999H182.6V60.8999Z" fill="#15BEE6"/>
<path d="M192 51.3V60.9H188.9V44.8H191.9V47.4H192.1C192.5 46.5 193.1 45.9 193.8 45.3C194.6 44.8 195.6 44.5 196.8 44.5C197.9 44.5 198.9 44.7 199.7 45.2C200.5 45.7 201.2 46.3 201.6 47.2C202.1 48.1 202.3 49.2 202.3 50.5V60.7H199.2V51C199.2 49.8 198.9 48.9 198.3 48.3C197.7 47.6 196.9 47.3 195.8 47.3C195.1 47.3 194.4 47.5 193.9 47.8C193.4 48.1 192.9 48.6 192.6 49.2C192.2 49.7 192 50.5 192 51.3Z" fill="#15BEE6"/>
<path d="M213.3 61.2001C211.8 61.2001 210.5 60.9001 209.3 60.2001C208.2 59.5001 207.3 58.5001 206.7 57.3001C206.1 56.1001 205.8 54.6001 205.8 52.9001C205.8 51.2001 206.1 49.8001 206.7 48.5001C207.3 47.2001 208.2 46.3001 209.3 45.6001C210.4 44.9001 211.7 44.6001 213.3 44.6001C214.9 44.6001 216.1 44.9001 217.3 45.6001C218.4 46.3001 219.3 47.3001 219.9 48.5001C220.5 49.7001 220.8 51.2001 220.8 52.9001C220.8 54.6001 220.5 56.0001 219.9 57.3001C219.3 58.5001 218.4 59.5001 217.3 60.2001C216.1 60.9001 214.8 61.2001 213.3 61.2001ZM213.3 58.6001C214.3 58.6001 215.1 58.3001 215.7 57.8001C216.3 57.3001 216.8 56.6001 217.1 55.7001C217.4 54.8001 217.6 53.9001 217.6 52.9001C217.6 51.9001 217.4 50.9001 217.1 50.1001C216.8 49.2001 216.3 48.5001 215.7 48.0001C215.1 47.5001 214.2 47.2001 213.3 47.2001C212.3 47.2001 211.5 47.5001 210.9 48.0001C210.3 48.5001 209.8 49.2001 209.5 50.1001C209.2 51.0001 209 51.9001 209 52.9001C209 53.9001 209.2 54.9001 209.5 55.7001C209.8 56.6001 210.3 57.2001 210.9 57.8001C211.5 58.3001 212.3 58.6001 213.3 58.6001Z" fill="#15BEE6"/>
<path d="M227.8 60.9001L223.1 44.8H226.3L229.5 56.6H229.7L232.9 44.8H236.1L239.2 56.6H239.4L242.5 44.8H245.7L241 60.9001H237.8L234.5 49.3H234.3L231 60.9001H227.8Z" fill="#15BEE6"/>
<path d="M252.1 54.4999C252.1 53.1999 252.2 52.1999 252.5 51.3999C252.8 50.5999 253.1 49.9999 253.6 49.4999C254.1 48.9999 254.6 48.5999 255.3 48.1999C255.7 47.8999 256.1 47.5999 256.4 47.2999C256.7 46.9999 257 46.5999 257.2 46.1999C257.4 45.7999 257.5 45.2999 257.5 44.7999C257.5 44.1999 257.4 43.5999 257.1 43.1999C256.8 42.6999 256.4 42.3999 255.9 42.0999C255.4 41.7999 254.9 41.6999 254.3 41.6999C253.8 41.6999 253.2 41.7999 252.8 41.9999C252.4 42.1999 251.9 42.5999 251.6 42.9999C251.3 43.3999 251.1 44.0999 251 44.7999H247.8C247.8 43.4999 248.2 42.4999 248.8 41.5999C249.4 40.6999 250.2 40.0999 251.1 39.5999C252 39.0999 253.1 38.8999 254.3 38.8999C255.6 38.8999 256.7 39.0999 257.7 39.5999C258.7 40.0999 259.4 40.6999 259.9 41.5999C260.4 42.4999 260.7 43.4999 260.7 44.5999C260.7 45.3999 260.6 46.0999 260.3 46.6999C260.1 47.2999 259.7 47.8999 259.3 48.3999C258.8 48.8999 258.3 49.2999 257.7 49.6999C257.1 50.0999 256.6 50.4999 256.3 50.8999C255.9 51.2999 255.7 51.7999 255.5 52.2999C255.3 52.7999 255.2 53.4999 255.2 54.2999V54.4999H252.1ZM253.7 61.0999C253.1 61.0999 252.6 60.8999 252.2 60.4999C251.8 60.0999 251.6 59.5999 251.6 58.9999C251.6 58.3999 251.8 57.8999 252.2 57.4999C252.6 57.0999 253.1 56.8999 253.7 56.8999C254.3 56.8999 254.8 57.0999 255.2 57.4999C255.6 57.8999 255.8 58.3999 255.8 58.9999C255.8 59.3999 255.7 59.6999 255.5 60.0999C255.3 60.3999 255.1 60.6999 254.7 60.8999C254.4 60.9999 254 61.0999 253.7 61.0999Z" fill="#15BEE6"/>
<path d="M258 65.6001H171.9V68.2001H258V65.6001Z" fill="#D9F4F9"/>
</g>
</g>
<defs>
<clipPath id="clip0_4_2068">
<rect width="1521" height="255" fill="white"/>
</clipPath>
</defs>
</svg>
